<?xml version="1.0" encoding="UTF-8" standalone="no"?>
<!DOCTYPE svg PUBLIC "-//W3C//DTD SVG 1.1//EN"
 "http://www.w3.org/Graphics/SVG/1.1/DTD/svg11.dtd">
<!-- Generated by graphviz version 2.43.0 (0)
 -->
<!-- Title: swarm_bot_cpp/src/__usart__.h Pages: 1 -->
<svg width="438pt" height="319pt"
 viewBox="0.00 0.00 438.00 319.00" xmlns="http://www.w3.org/2000/svg" xmlns:xlink="http://www.w3.org/1999/xlink">
<g id="graph0" class="graph" transform="scale(1 1) rotate(0) translate(4 315)">
<title>swarm_bot_cpp/src/__usart__.h</title>
<polygon fill="white" stroke="transparent" points="-4,4 -4,-315 434,-315 434,4 -4,4"/>
<!-- Node1 -->
<g id="node1" class="node">
<title>Node1</title>
<g id="a_node1"><a xlink:title="Header file for pid.c.">
<polygon fill="#bfbfbf" stroke="black" points="207.5,-280.5 207.5,-310.5 320.5,-310.5 320.5,-280.5 207.5,-280.5"/>
<text text-anchor="start" x="215.5" y="-298.5" font-family="Helvetica,sans-Serif" font-size="10.00">swarm_bot_cpp/src/</text>
<text text-anchor="middle" x="264" y="-287.5" font-family="Helvetica,sans-Serif" font-size="10.00">__usart__.h</text>
</a>
</g>
</g>
<!-- Node2 -->
<g id="node2" class="node">
<title>Node2</title>
<g id="a_node2"><a xlink:href="asf_8h.html" target="_top" xlink:title="Autogenerated API include file for the Atmel Software Framework (ASF)">
<polygon fill="white" stroke="black" points="196,-224.5 196,-243.5 236,-243.5 236,-224.5 196,-224.5"/>
<text text-anchor="middle" x="216" y="-231.5" font-family="Helvetica,sans-Serif" font-size="10.00">asf.h</text>
</a>
</g>
</g>
<!-- Node1&#45;&gt;Node2 -->
<g id="edge1" class="edge">
<title>Node1&#45;&gt;Node2</title>
<path fill="none" stroke="midnightblue" d="M252.62,-280.4C245.65,-271.75 236.69,-260.64 229.37,-251.58"/>
<polygon fill="midnightblue" stroke="midnightblue" points="231.99,-249.24 222.98,-243.66 226.54,-253.64 231.99,-249.24"/>
</g>
<!-- Node4 -->
<g id="node4" class="node">
<title>Node4</title>
<g id="a_node4"><a xlink:href="conf__board_8h.html" target="_top" xlink:title="User board configuration template.">
<polygon fill="white" stroke="black" points="0,-112.5 0,-131.5 80,-131.5 80,-112.5 0,-112.5"/>
<text text-anchor="middle" x="40" y="-119.5" font-family="Helvetica,sans-Serif" font-size="10.00">conf_board.h</text>
</a>
</g>
</g>
<!-- Node1&#45;&gt;Node4 -->
<g id="edge15" class="edge">
<title>Node1&#45;&gt;Node4</title>
<path fill="none" stroke="midnightblue" d="M207.47,-286.98C150.4,-276.06 65.13,-249.82 25,-188 15.76,-173.77 22.01,-154.55 29.04,-140.71"/>
<polygon fill="midnightblue" stroke="midnightblue" points="32.24,-142.15 34.09,-131.72 26.14,-138.72 32.24,-142.15"/>
</g>
<!-- Node5 -->
<g id="node5" class="node">
<title>Node5</title>
<g id="a_node5"><a xlink:href="board_8h.html" target="_top" xlink:title="Standard board header file.">
<polygon fill="white" stroke="black" points="354.5,-168.5 354.5,-187.5 407.5,-187.5 407.5,-168.5 354.5,-168.5"/>
<text text-anchor="middle" x="381" y="-175.5" font-family="Helvetica,sans-Serif" font-size="10.00">board.h</text>
</a>
</g>
</g>
<!-- Node1&#45;&gt;Node5 -->
<g id="edge14" class="edge">
<title>Node1&#45;&gt;Node5</title>
<path fill="none" stroke="midnightblue" d="M264.36,-280.44C265.46,-264.94 269.42,-240.07 283,-224 298.68,-205.45 323.65,-194.14 344.45,-187.5"/>
<polygon fill="midnightblue" stroke="midnightblue" points="345.67,-190.79 354.28,-184.6 343.69,-184.08 345.67,-190.79"/>
</g>
<!-- Node15 -->
<g id="node10" class="node">
<title>Node15</title>
<g id="a_node10"><a xlink:title=" ">
<polygon fill="white" stroke="#bfbfbf" points="292,-224.5 292,-243.5 342,-243.5 342,-224.5 292,-224.5"/>
<text text-anchor="middle" x="317" y="-231.5" font-family="Helvetica,sans-Serif" font-size="10.00">stdio.h</text>
</a>
</g>
</g>
<!-- Node1&#45;&gt;Node15 -->
<g id="edge13" class="edge">
<title>Node1&#45;&gt;Node15</title>
<path fill="none" stroke="midnightblue" d="M276.56,-280.4C284.34,-271.66 294.36,-260.41 302.48,-251.3"/>
<polygon fill="midnightblue" stroke="midnightblue" points="305.25,-253.45 309.29,-243.66 300.02,-248.8 305.25,-253.45"/>
</g>
<!-- Node16 -->
<g id="node11" class="node">
<title>Node16</title>
<g id="a_node11"><a xlink:title=" ">
<polygon fill="white" stroke="#bfbfbf" points="360,-224.5 360,-243.5 430,-243.5 430,-224.5 360,-224.5"/>
<text text-anchor="middle" x="395" y="-231.5" font-family="Helvetica,sans-Serif" font-size="10.00">util/delay.h</text>
</a>
</g>
</g>
<!-- Node1&#45;&gt;Node16 -->
<g id="edge16" class="edge">
<title>Node1&#45;&gt;Node16</title>
<path fill="none" stroke="midnightblue" d="M295.05,-280.4C316.73,-270.55 345.46,-257.5 366.55,-247.92"/>
<polygon fill="midnightblue" stroke="midnightblue" points="368.28,-250.98 375.94,-243.66 365.39,-244.61 368.28,-250.98"/>
</g>
<!-- Node3 -->
<g id="node3" class="node">
<title>Node3</title>
<g id="a_node3"><a xlink:href="user__board_8h.html" target="_top" xlink:title="User board definition template.">
<polygon fill="white" stroke="black" points="34,-168.5 34,-187.5 114,-187.5 114,-168.5 34,-168.5"/>
<text text-anchor="middle" x="74" y="-175.5" font-family="Helvetica,sans-Serif" font-size="10.00">user_board.h</text>
</a>
</g>
</g>
<!-- Node2&#45;&gt;Node3 -->
<g id="edge2" class="edge">
<title>Node2&#45;&gt;Node3</title>
<path fill="none" stroke="midnightblue" d="M195.96,-225.38C172.67,-216.52 133.93,-201.79 106.36,-191.31"/>
<polygon fill="midnightblue" stroke="midnightblue" points="107.35,-187.94 96.76,-187.65 104.86,-194.48 107.35,-187.94"/>
</g>
<!-- Node2&#45;&gt;Node5 -->
<g id="edge4" class="edge">
<title>Node2&#45;&gt;Node5</title>
<path fill="none" stroke="midnightblue" d="M236.23,-226.38C263.29,-217.52 311.72,-201.67 345.07,-190.76"/>
<polygon fill="midnightblue" stroke="midnightblue" points="346.47,-193.98 354.89,-187.55 344.3,-187.33 346.47,-193.98"/>
</g>
<!-- Node6 -->
<g id="node6" class="node">
<title>Node6</title>
<g id="a_node6"><a xlink:href="compiler_8h.html" target="_top" xlink:title="Commonly used includes, types and macros.">
<polygon fill="white" stroke="red" points="284,-112.5 284,-131.5 352,-131.5 352,-112.5 284,-112.5"/>
<text text-anchor="middle" x="318" y="-119.5" font-family="Helvetica,sans-Serif" font-size="10.00">compiler.h</text>
</a>
</g>
</g>
<!-- Node2&#45;&gt;Node6 -->
<g id="edge10" class="edge">
<title>Node2&#45;&gt;Node6</title>
<path fill="none" stroke="midnightblue" d="M236.21,-225.36C259.88,-216.01 297.02,-199.94 306,-188 315.92,-174.82 318.48,-155.94 318.82,-141.93"/>
<polygon fill="midnightblue" stroke="midnightblue" points="322.32,-141.49 318.7,-131.53 315.32,-141.57 322.32,-141.49"/>
</g>
<!-- Node11 -->
<g id="node7" class="node">
<title>Node11</title>
<g id="a_node7"><a xlink:href="parts_8h.html" target="_top" xlink:title="Atmel part identification macros.">
<polygon fill="white" stroke="black" points="209,-0.5 209,-19.5 259,-19.5 259,-0.5 209,-0.5"/>
<text text-anchor="middle" x="234" y="-7.5" font-family="Helvetica,sans-Serif" font-size="10.00">parts.h</text>
</a>
</g>
</g>
<!-- Node2&#45;&gt;Node11 -->
<g id="edge12" class="edge">
<title>Node2&#45;&gt;Node11</title>
<path fill="none" stroke="midnightblue" d="M210.44,-224.46C205.08,-215.71 197.32,-201.51 194,-188 180.01,-131.01 169.16,-110.47 191,-56 195.68,-44.33 204.99,-33.97 213.76,-26.14"/>
<polygon fill="midnightblue" stroke="midnightblue" points="216.05,-28.78 221.5,-19.7 211.58,-23.4 216.05,-28.78"/>
</g>
<!-- Node12 -->
<g id="node8" class="node">
<title>Node12</title>
<g id="a_node8"><a xlink:href="interrupt_8h.html" target="_top" xlink:title="Global interrupt management for 8&#45; and 32&#45;bit AVR.">
<polygon fill="white" stroke="black" points="200,-56.5 200,-75.5 268,-75.5 268,-56.5 200,-56.5"/>
<text text-anchor="middle" x="234" y="-63.5" font-family="Helvetica,sans-Serif" font-size="10.00">interrupt.h</text>
</a>
</g>
</g>
<!-- Node2&#45;&gt;Node12 -->
<g id="edge9" class="edge">
<title>Node2&#45;&gt;Node12</title>
<path fill="none" stroke="midnightblue" d="M211.63,-224.31C207.44,-215.44 201.4,-201.14 199,-188 192.13,-150.35 211.01,-107.63 223.64,-84.37"/>
<polygon fill="midnightblue" stroke="midnightblue" points="226.69,-86.09 228.58,-75.66 220.6,-82.63 226.69,-86.09"/>
</g>
<!-- Node14 -->
<g id="node9" class="node">
<title>Node14</title>
<g id="a_node9"><a xlink:href="status__codes_8h.html" target="_top" xlink:title="Status code definitions.">
<polygon fill="white" stroke="black" points="208.5,-168.5 208.5,-187.5 297.5,-187.5 297.5,-168.5 208.5,-168.5"/>
<text text-anchor="middle" x="253" y="-175.5" font-family="Helvetica,sans-Serif" font-size="10.00">status_codes.h</text>
</a>
</g>
</g>
<!-- Node2&#45;&gt;Node14 -->
<g id="edge11" class="edge">
<title>Node2&#45;&gt;Node14</title>
<path fill="none" stroke="midnightblue" d="M222.11,-224.08C227.28,-216.53 234.85,-205.49 241.19,-196.23"/>
<polygon fill="midnightblue" stroke="midnightblue" points="244.24,-197.98 247,-187.75 238.46,-194.02 244.24,-197.98"/>
</g>
<!-- Node3&#45;&gt;Node4 -->
<g id="edge3" class="edge">
<title>Node3&#45;&gt;Node4</title>
<path fill="none" stroke="midnightblue" d="M68.39,-168.08C63.63,-160.53 56.68,-149.49 50.85,-140.23"/>
<polygon fill="midnightblue" stroke="midnightblue" points="53.8,-138.35 45.51,-131.75 47.88,-142.08 53.8,-138.35"/>
</g>
<!-- Node5&#45;&gt;Node6 -->
<g id="edge5" class="edge">
<title>Node5&#45;&gt;Node6</title>
<path fill="none" stroke="midnightblue" d="M370.88,-168.32C361.47,-160.26 347.26,-148.08 335.93,-138.37"/>
<polygon fill="midnightblue" stroke="midnightblue" points="338.18,-135.68 328.31,-131.83 333.62,-141 338.18,-135.68"/>
</g>
<!-- Node6&#45;&gt;Node11 -->
<g id="edge6" class="edge">
<title>Node6&#45;&gt;Node11</title>
<path fill="none" stroke="midnightblue" d="M313.21,-112.22C306.04,-99.38 291.78,-74.93 277,-56 269.04,-45.8 259.12,-35.3 250.81,-27.01"/>
<polygon fill="midnightblue" stroke="midnightblue" points="253.06,-24.31 243.46,-19.82 248.16,-29.31 253.06,-24.31"/>
</g>
<!-- Node6&#45;&gt;Node12 -->
<g id="edge7" class="edge">
<title>Node6&#45;&gt;Node12</title>
<path fill="none" stroke="midnightblue" d="M304.5,-112.32C291.4,-103.9 271.29,-90.97 255.89,-81.07"/>
<polygon fill="midnightblue" stroke="midnightblue" points="257.77,-78.12 247.46,-75.65 253.98,-84.01 257.77,-78.12"/>
</g>
<!-- Node12&#45;&gt;Node11 -->
<g id="edge8" class="edge">
<title>Node12&#45;&gt;Node11</title>
<path fill="none" stroke="midnightblue" d="M234,-56.08C234,-49.01 234,-38.86 234,-29.99"/>
<polygon fill="midnightblue" stroke="midnightblue" points="237.5,-29.75 234,-19.75 230.5,-29.75 237.5,-29.75"/>
</g>
</g>
</svg>
