<?xml version="1.0" encoding="UTF-8" standalone="no"?>
<!DOCTYPE svg PUBLIC "-//W3C//DTD SVG 1.1//EN"
 "http://www.w3.org/Graphics/SVG/1.1/DTD/svg11.dtd">
<!-- Generated by graphviz version 2.43.0 (0)
 -->
<!-- Title: swarm_bot_cpp/src/__timer1__.h Pages: 1 -->
<!--zoomable 431 -->
<svg id="main" version="1.1" xmlns="http://www.w3.org/2000/svg" xmlns:xlink="http://www.w3.org/1999/xlink" xml:space="preserve" onload="init(evt)">
<style type="text/css"><![CDATA[
.edge:hover path { stroke: red; }
.edge:hover polygon { stroke: red; fill: red; }
]]></style>
<script type="text/javascript"><![CDATA[
var edges = document.getElementsByTagName('g');
if (edges && edges.length) {
  for (var i=0;i<edges.length;i++) {
    if (edges[i].id.substr(0,4)=='edge') {
      edges[i].setAttribute('class','edge');
    }
  }
}
]]></script>
        <defs>
                <circle id="rim" cx="0" cy="0" r="7"/>
                <circle id="rim2" cx="0" cy="0" r="3.5"/>
                <g id="zoomPlus">
                        <use xlink:href="#rim" fill="#404040">
                                <set attributeName="fill" to="#808080" begin="zoomplus.mouseover" end="zoomplus.mouseout"/>
                        </use>
                        <path d="M-4,0h8M0,-4v8" fill="none" stroke="white" stroke-width="1.5" pointer-events="none"/>
                </g>
                <g id="zoomMin">
                        <use xlink:href="#rim" fill="#404040">
                                <set attributeName="fill" to="#808080" begin="zoomminus.mouseover" end="zoomminus.mouseout"/>
                        </use>
                        <path d="M-4,0h8" fill="none" stroke="white" stroke-width="1.5" pointer-events="none"/>
                </g>
                <g id="dirArrow">
                        <path fill="none" stroke="white" stroke-width="1.5" d="M0,-3.0v7 M-2.5,-0.5L0,-3.0L2.5,-0.5"/>
                </g>
               <g id="resetDef">
                       <use xlink:href="#rim2" fill="#404040">
                               <set attributeName="fill" to="#808080" begin="reset.mouseover" end="reset.mouseout"/>
                       </use>
               </g>
        </defs>

<script type="text/javascript">
var viewWidth = 1311;
var viewHeight = 431;
var sectionId = 'dynsection-0';
</script>
<script xlink:href="svgpan.js"/>
<svg id="graph" class="graph">
<g id="viewport">
<title>swarm_bot_cpp/src/__timer1__.h</title>
<polygon fill="white" stroke="transparent" points="-4,4 -4,-427 1306.56,-427 1306.56,4 -4,4"/>
<!-- Node1 -->
<g id="node1" class="node">
<title>Node1</title>
<g id="a_node1"><a xlink:title="Header file for timer1.c.">
<polygon fill="#bfbfbf" stroke="black" points="533.56,-392.5 533.56,-422.5 646.56,-422.5 646.56,-392.5 533.56,-392.5"/>
<text text-anchor="start" x="541.56" y="-410.5" font-family="Helvetica,sans-Serif" font-size="10.00">swarm_bot_cpp/src/</text>
<text text-anchor="middle" x="590.06" y="-399.5" font-family="Helvetica,sans-Serif" font-size="10.00">__timer1__.h</text>
</a>
</g>
</g>
<!-- Node2 -->
<g id="node2" class="node">
<title>Node2</title>
<g id="a_node2"><a xlink:href="____swarm__wold_____8h.html" target="_top" xlink:title="Header file for dummy purposes.">
<polygon fill="white" stroke="black" points="536.06,-336.5 536.06,-355.5 644.06,-355.5 644.06,-336.5 536.06,-336.5"/>
<text text-anchor="middle" x="590.06" y="-343.5" font-family="Helvetica,sans-Serif" font-size="10.00">__swarm_wold__.h</text>
</a>
</g>
</g>
<!-- Node1&#45;&gt;Node2 -->
<g id="edge1" class="edge">
<title>Node1&#45;&gt;Node2</title>
<path fill="none" stroke="midnightblue" d="M584.22,-392.4C583.19,-384.38 583.03,-374.23 583.75,-365.57"/>
<polygon fill="midnightblue" stroke="midnightblue" points="587.22,-366.04 585.13,-355.66 580.28,-365.08 587.22,-366.04"/>
</g>
<!-- Node2&#45;&gt;Node1 -->
<g id="edge38" class="edge">
<title>Node2&#45;&gt;Node1</title>
<path fill="none" stroke="midnightblue" d="M594.99,-355.66C596.49,-362.65 597.06,-372.86 596.7,-382.29"/>
<polygon fill="midnightblue" stroke="midnightblue" points="593.2,-382.15 595.9,-392.4 600.18,-382.71 593.2,-382.15"/>
</g>
<!-- Node3 -->
<g id="node3" class="node">
<title>Node3</title>
<g id="a_node3"><a xlink:title=" ">
<polygon fill="white" stroke="#bfbfbf" points="949.06,-224.5 949.06,-243.5 999.06,-243.5 999.06,-224.5 949.06,-224.5"/>
<text text-anchor="middle" x="974.06" y="-231.5" font-family="Helvetica,sans-Serif" font-size="10.00">stdio.h</text>
</a>
</g>
</g>
<!-- Node2&#45;&gt;Node3 -->
<g id="edge2" class="edge">
<title>Node2&#45;&gt;Node3</title>
<path fill="none" stroke="midnightblue" d="M644.21,-344.32C770.34,-342.18 1075.3,-333.56 1106.06,-300 1137.4,-265.81 1057.86,-247.42 1008.98,-239.62"/>
<polygon fill="midnightblue" stroke="midnightblue" points="1009.47,-236.15 999.06,-238.11 1008.42,-243.07 1009.47,-236.15"/>
</g>
<!-- Node4 -->
<g id="node4" class="node">
<title>Node4</title>
<g id="a_node4"><a xlink:href="asf_8h.html" target="_top" xlink:title="Autogenerated API include file for the Atmel Software Framework (ASF)">
<polygon fill="white" stroke="black" points="730.06,-224.5 730.06,-243.5 770.06,-243.5 770.06,-224.5 730.06,-224.5"/>
<text text-anchor="middle" x="750.06" y="-231.5" font-family="Helvetica,sans-Serif" font-size="10.00">asf.h</text>
</a>
</g>
</g>
<!-- Node2&#45;&gt;Node4 -->
<g id="edge3" class="edge">
<title>Node2&#45;&gt;Node4</title>
<path fill="none" stroke="midnightblue" d="M644.36,-344.16C767.67,-341.68 1060.43,-332.41 1090.06,-300 1096.05,-293.44 1095.91,-286.69 1090.06,-280 1069.77,-256.85 860.44,-241.74 780.68,-236.78"/>
<polygon fill="midnightblue" stroke="midnightblue" points="780.52,-233.27 770.32,-236.15 780.09,-240.25 780.52,-233.27"/>
</g>
<!-- Node6 -->
<g id="node6" class="node">
<title>Node6</title>
<g id="a_node6"><a xlink:href="conf__board_8h.html" target="_top" xlink:title="User board configuration template.">
<polygon fill="white" stroke="black" points="847.06,-112.5 847.06,-131.5 927.06,-131.5 927.06,-112.5 847.06,-112.5"/>
<text text-anchor="middle" x="887.06" y="-119.5" font-family="Helvetica,sans-Serif" font-size="10.00">conf_board.h</text>
</a>
</g>
</g>
<!-- Node2&#45;&gt;Node6 -->
<g id="edge19" class="edge">
<title>Node2&#45;&gt;Node6</title>
<path fill="none" stroke="midnightblue" d="M644.08,-344.49C773.14,-342.7 1091.09,-334.78 1123.06,-300 1191.83,-225.18 1012.19,-160 927.92,-134.47"/>
<polygon fill="midnightblue" stroke="midnightblue" points="928.72,-131.06 918.14,-131.56 926.73,-137.77 928.72,-131.06"/>
</g>
<!-- Node7 -->
<g id="node7" class="node">
<title>Node7</title>
<g id="a_node7"><a xlink:href="board_8h.html" target="_top" xlink:title="Standard board header file.">
<polygon fill="white" stroke="black" points="471.56,-168.5 471.56,-187.5 524.56,-187.5 524.56,-168.5 471.56,-168.5"/>
<text text-anchor="middle" x="498.06" y="-175.5" font-family="Helvetica,sans-Serif" font-size="10.00">board.h</text>
</a>
</g>
</g>
<!-- Node2&#45;&gt;Node7 -->
<g id="edge18" class="edge">
<title>Node2&#45;&gt;Node7</title>
<path fill="none" stroke="midnightblue" d="M535.98,-343.42C424.18,-339.63 171.28,-328.14 90.06,-300 46.96,-285.07 25.8,-284.1 4.06,-244 -0.18,-236.19 -1.94,-230.56 4.06,-224 34.75,-190.38 351.79,-181.6 461.18,-179.56"/>
<polygon fill="midnightblue" stroke="midnightblue" points="461.47,-183.06 471.4,-179.38 461.34,-176.06 461.47,-183.06"/>
</g>
<!-- Node10 -->
<g id="node9" class="node">
<title>Node10</title>
<g id="a_node9"><a xlink:title=" ">
<polygon fill="white" stroke="#bfbfbf" points="1196.56,-56.5 1196.56,-75.5 1249.56,-75.5 1249.56,-56.5 1196.56,-56.5"/>
<text text-anchor="middle" x="1223.06" y="-63.5" font-family="Helvetica,sans-Serif" font-size="10.00">stdint.h</text>
</a>
</g>
</g>
<!-- Node2&#45;&gt;Node10 -->
<g id="edge21" class="edge">
<title>Node2&#45;&gt;Node10</title>
<path fill="none" stroke="midnightblue" d="M644.12,-344.64C764.99,-343.2 1053.44,-335.98 1143.06,-300 1185.57,-282.93 1223.06,-280.81 1223.06,-235 1223.06,-235 1223.06,-235 1223.06,-177 1223.06,-144.95 1223.06,-107.64 1223.06,-85.75"/>
<polygon fill="midnightblue" stroke="midnightblue" points="1226.56,-85.56 1223.06,-75.56 1219.56,-85.56 1226.56,-85.56"/>
</g>
<!-- Node17 -->
<g id="node13" class="node">
<title>Node17</title>
<g id="a_node13"><a xlink:title=" ">
<polygon fill="white" stroke="#bfbfbf" points="13.56,-224.5 13.56,-243.5 66.56,-243.5 66.56,-224.5 13.56,-224.5"/>
<text text-anchor="middle" x="40.06" y="-231.5" font-family="Helvetica,sans-Serif" font-size="10.00">avr/io.h</text>
</a>
</g>
</g>
<!-- Node2&#45;&gt;Node17 -->
<g id="edge16" class="edge">
<title>Node2&#45;&gt;Node17</title>
<path fill="none" stroke="midnightblue" d="M535.95,-343.34C430.48,-339.5 201.31,-328.13 128.06,-300 99.67,-289.1 72.37,-266.41 55.9,-250.94"/>
<polygon fill="midnightblue" stroke="midnightblue" points="57.95,-248.05 48.33,-243.61 53.08,-253.08 57.95,-248.05"/>
</g>
<!-- Node18 -->
<g id="node14" class="node">
<title>Node18</title>
<g id="a_node14"><a xlink:title=" ">
<polygon fill="white" stroke="#bfbfbf" points="85.06,-224.5 85.06,-243.5 171.06,-243.5 171.06,-224.5 85.06,-224.5"/>
<text text-anchor="middle" x="128.06" y="-231.5" font-family="Helvetica,sans-Serif" font-size="10.00">avr/interrupt.h</text>
</a>
</g>
</g>
<!-- Node2&#45;&gt;Node18 -->
<g id="edge17" class="edge">
<title>Node2&#45;&gt;Node18</title>
<path fill="none" stroke="midnightblue" d="M535.8,-342.99C423.4,-338.33 173.11,-325.22 144.06,-300 131.05,-288.71 127.74,-268.7 127.26,-253.86"/>
<polygon fill="midnightblue" stroke="midnightblue" points="130.76,-253.77 127.33,-243.74 123.76,-253.72 130.76,-253.77"/>
</g>
<!-- Node19 -->
<g id="node15" class="node">
<title>Node19</title>
<g id="a_node15"><a xlink:title=" ">
<polygon fill="white" stroke="#bfbfbf" points="604.06,-224.5 604.06,-243.5 674.06,-243.5 674.06,-224.5 604.06,-224.5"/>
<text text-anchor="middle" x="639.06" y="-231.5" font-family="Helvetica,sans-Serif" font-size="10.00">util/delay.h</text>
</a>
</g>
</g>
<!-- Node2&#45;&gt;Node19 -->
<g id="edge20" class="edge">
<title>Node2&#45;&gt;Node19</title>
<path fill="none" stroke="midnightblue" d="M536.02,-345.07C457.71,-343.89 318.58,-336.55 287.06,-300 281.25,-293.27 281.15,-286.65 287.06,-280 332.09,-229.3 523.01,-254.13 590.06,-244 591.33,-243.81 592.62,-243.61 593.93,-243.4"/>
<polygon fill="midnightblue" stroke="midnightblue" points="594.75,-246.81 604.04,-241.71 593.6,-239.91 594.75,-246.81"/>
</g>
<!-- Node20 -->
<g id="node16" class="node">
<title>Node20</title>
<g id="a_node16"><a xlink:href="____adc_____8h.html" target="_top" xlink:title="Header file for adc.c.">
<polygon fill="white" stroke="black" points="189.06,-224.5 189.06,-243.5 253.06,-243.5 253.06,-224.5 189.06,-224.5"/>
<text text-anchor="middle" x="221.06" y="-231.5" font-family="Helvetica,sans-Serif" font-size="10.00">__adc__.h</text>
</a>
</g>
</g>
<!-- Node2&#45;&gt;Node20 -->
<g id="edge22" class="edge">
<title>Node2&#45;&gt;Node20</title>
<path fill="none" stroke="midnightblue" d="M535.85,-343.56C422.59,-339.88 169.63,-328.35 144.06,-300 126.66,-280.72 157.11,-260.31 184.84,-247.61"/>
<polygon fill="midnightblue" stroke="midnightblue" points="186.28,-250.8 194.07,-243.62 183.5,-244.38 186.28,-250.8"/>
</g>
<!-- Node21 -->
<g id="node17" class="node">
<title>Node21</title>
<g id="a_node17"><a xlink:href="_____i_n_t__0__1_____8h.html" target="_top" xlink:title="Header file for INT_0_1.c.">
<polygon fill="white" stroke="black" points="296.06,-280.5 296.06,-299.5 382.06,-299.5 382.06,-280.5 296.06,-280.5"/>
<text text-anchor="middle" x="339.06" y="-287.5" font-family="Helvetica,sans-Serif" font-size="10.00">__INT_0_1__.h</text>
</a>
</g>
</g>
<!-- Node2&#45;&gt;Node21 -->
<g id="edge24" class="edge">
<title>Node2&#45;&gt;Node21</title>
<path fill="none" stroke="midnightblue" d="M545.2,-336.44C499.44,-327.04 429.04,-311.93 383.46,-301.74"/>
<polygon fill="midnightblue" stroke="midnightblue" points="384.09,-298.29 373.56,-299.52 382.55,-305.12 384.09,-298.29"/>
</g>
<!-- Node22 -->
<g id="node18" class="node">
<title>Node22</title>
<g id="a_node18"><a xlink:href=".html" target="_top" xlink:title=" ">
<polygon fill="white" stroke="black" points="162.06,-280.5 162.06,-299.5 240.06,-299.5 240.06,-280.5 162.06,-280.5"/>
<text text-anchor="middle" x="201.06" y="-287.5" font-family="Helvetica,sans-Serif" font-size="10.00">__pin_map.h</text>
</a>
</g>
</g>
<!-- Node2&#45;&gt;Node22 -->
<g id="edge26" class="edge">
<title>Node2&#45;&gt;Node22</title>
<path fill="none" stroke="midnightblue" d="M535.85,-338.33C469.37,-330.02 353.27,-315.06 254.06,-300 252.78,-299.81 251.5,-299.61 250.2,-299.41"/>
<polygon fill="midnightblue" stroke="midnightblue" points="250.53,-295.92 240.11,-297.79 249.43,-302.83 250.53,-295.92"/>
</g>
<!-- Node23 -->
<g id="node19" class="node">
<title>Node23</title>
<g id="a_node19"><a xlink:href="____timer0_____8h.html" target="_top" xlink:title="Header file for timer0.c.">
<polygon fill="white" stroke="black" points="400.56,-280.5 400.56,-299.5 479.56,-299.5 479.56,-280.5 400.56,-280.5"/>
<text text-anchor="middle" x="440.06" y="-287.5" font-family="Helvetica,sans-Serif" font-size="10.00">__timer0__.h</text>
</a>
</g>
</g>
<!-- Node2&#45;&gt;Node23 -->
<g id="edge36" class="edge">
<title>Node2&#45;&gt;Node23</title>
<path fill="none" stroke="midnightblue" d="M561.2,-336.44C534.33,-327.48 494.76,-313.31 468.15,-303.18"/>
<polygon fill="midnightblue" stroke="midnightblue" points="469.22,-299.85 458.63,-299.52 466.71,-306.38 469.22,-299.85"/>
</g>
<!-- Node24 -->
<g id="node20" class="node">
<title>Node24</title>
<g id="a_node20"><a xlink:href="____timer2_____8h.html" target="_top" xlink:title="Header file for timer2.c.">
<polygon fill="white" stroke="black" points="497.56,-280.5 497.56,-299.5 576.56,-299.5 576.56,-280.5 497.56,-280.5"/>
<text text-anchor="middle" x="537.06" y="-287.5" font-family="Helvetica,sans-Serif" font-size="10.00">__timer2__.h</text>
</a>
</g>
</g>
<!-- Node2&#45;&gt;Node24 -->
<g id="edge39" class="edge">
<title>Node2&#45;&gt;Node24</title>
<path fill="none" stroke="midnightblue" d="M576.43,-336.32C567.14,-328.58 555.41,-317.02 546.99,-307.51"/>
<polygon fill="midnightblue" stroke="midnightblue" points="549.67,-305.27 540.58,-299.83 544.3,-309.75 549.67,-305.27"/>
</g>
<!-- Node25 -->
<g id="node21" class="node">
<title>Node25</title>
<g id="a_node21"><a xlink:href="____usart_____8h.html" target="_top" xlink:title="Header file for pid.c.">
<polygon fill="white" stroke="black" points="911.56,-280.5 911.56,-299.5 982.56,-299.5 982.56,-280.5 911.56,-280.5"/>
<text text-anchor="middle" x="947.06" y="-287.5" font-family="Helvetica,sans-Serif" font-size="10.00">__usart__.h</text>
</a>
</g>
</g>
<!-- Node2&#45;&gt;Node25 -->
<g id="edge41" class="edge">
<title>Node2&#45;&gt;Node25</title>
<path fill="none" stroke="midnightblue" d="M644.21,-338.2C704.66,-330.39 805.61,-316.69 901.67,-300.16"/>
<polygon fill="midnightblue" stroke="midnightblue" points="902.29,-303.61 911.55,-298.45 901.1,-296.71 902.29,-303.61"/>
</g>
<!-- Node26 -->
<g id="node22" class="node">
<title>Node26</title>
<g id="a_node22"><a xlink:href="____dc__control_____8h.html" target="_top" xlink:title="Header file for dc_control.c.">
<polygon fill="white" stroke="black" points="594.56,-280.5 594.56,-299.5 691.56,-299.5 691.56,-280.5 594.56,-280.5"/>
<text text-anchor="middle" x="643.06" y="-287.5" font-family="Helvetica,sans-Serif" font-size="10.00">__dc_control__.h</text>
</a>
</g>
</g>
<!-- Node2&#45;&gt;Node26 -->
<g id="edge47" class="edge">
<title>Node2&#45;&gt;Node26</title>
<path fill="none" stroke="midnightblue" d="M593.64,-336.08C599.82,-328.06 611.22,-316.1 621.65,-306.51"/>
<polygon fill="midnightblue" stroke="midnightblue" points="624.14,-308.99 629.34,-299.75 619.52,-303.73 624.14,-308.99"/>
</g>
<!-- Node27 -->
<g id="node23" class="node">
<title>Node27</title>
<g id="a_node23"><a xlink:href="____odometry_____8h.html" target="_top" xlink:title="Header file for odometry.c.">
<polygon fill="white" stroke="black" points="710.06,-280.5 710.06,-299.5 804.06,-299.5 804.06,-280.5 710.06,-280.5"/>
<text text-anchor="middle" x="757.06" y="-287.5" font-family="Helvetica,sans-Serif" font-size="10.00">__odometry__.h</text>
</a>
</g>
</g>
<!-- Node2&#45;&gt;Node27 -->
<g id="edge49" class="edge">
<title>Node2&#45;&gt;Node27</title>
<path fill="none" stroke="midnightblue" d="M611.43,-336.44C637.76,-327.28 682.7,-312.69 715.78,-302.52"/>
<polygon fill="midnightblue" stroke="midnightblue" points="717.09,-305.78 725.64,-299.52 715.05,-299.08 717.09,-305.78"/>
</g>
<!-- Node28 -->
<g id="node24" class="node">
<title>Node28</title>
<g id="a_node24"><a xlink:href="____pwm_____8h.html" target="_top" xlink:title="Header file for pwm.c.">
<polygon fill="white" stroke="black" points="822.56,-280.5 822.56,-299.5 893.56,-299.5 893.56,-280.5 822.56,-280.5"/>
<text text-anchor="middle" x="858.06" y="-287.5" font-family="Helvetica,sans-Serif" font-size="10.00">__pwm__.h</text>
</a>
</g>
</g>
<!-- Node2&#45;&gt;Node28 -->
<g id="edge51" class="edge">
<title>Node2&#45;&gt;Node28</title>
<path fill="none" stroke="midnightblue" d="M627.43,-336.44C675.84,-326.24 759.92,-309.3 812.14,-299.24"/>
<polygon fill="midnightblue" stroke="midnightblue" points="812.98,-302.64 822.14,-297.32 811.66,-295.77 812.98,-302.64"/>
</g>
<!-- Node29 -->
<g id="node25" class="node">
<title>Node29</title>
<g id="a_node25"><a xlink:href="__pid___8h.html" target="_top" xlink:title="Header file for pid.c.">
<polygon fill="white" stroke="black" points="1251.56,-112.5 1251.56,-131.5 1302.56,-131.5 1302.56,-112.5 1251.56,-112.5"/>
<text text-anchor="middle" x="1277.06" y="-119.5" font-family="Helvetica,sans-Serif" font-size="10.00">_pid_.h</text>
</a>
</g>
</g>
<!-- Node2&#45;&gt;Node29 -->
<g id="edge53" class="edge">
<title>Node2&#45;&gt;Node29</title>
<path fill="none" stroke="midnightblue" d="M644.28,-344.87C791.83,-344.02 1192.53,-338.19 1237.06,-300 1283.45,-260.21 1282.5,-179.08 1279.32,-142.11"/>
<polygon fill="midnightblue" stroke="midnightblue" points="1282.76,-141.37 1278.26,-131.77 1275.79,-142.08 1282.76,-141.37"/>
</g>
<!-- Node30 -->
<g id="node26" class="node">
<title>Node30</title>
<g id="a_node26"><a xlink:href="____format_____8h.html" target="_top" xlink:title="Header file for format.c.">
<polygon fill="white" stroke="black" points="1001.06,-280.5 1001.06,-299.5 1081.06,-299.5 1081.06,-280.5 1001.06,-280.5"/>
<text text-anchor="middle" x="1041.06" y="-287.5" font-family="Helvetica,sans-Serif" font-size="10.00">__format__.h</text>
</a>
</g>
</g>
<!-- Node2&#45;&gt;Node30 -->
<g id="edge55" class="edge">
<title>Node2&#45;&gt;Node30</title>
<path fill="none" stroke="midnightblue" d="M644.31,-339.57C720.31,-332.18 862.34,-317.82 983.06,-300 985.65,-299.62 988.32,-299.2 991.03,-298.76"/>
<polygon fill="midnightblue" stroke="midnightblue" points="991.63,-302.21 1000.9,-297.09 990.46,-295.3 991.63,-302.21"/>
</g>
<!-- Node5 -->
<g id="node5" class="node">
<title>Node5</title>
<g id="a_node5"><a xlink:href="user__board_8h.html" target="_top" xlink:title="User board definition template.">
<polygon fill="white" stroke="black" points="813.06,-168.5 813.06,-187.5 893.06,-187.5 893.06,-168.5 813.06,-168.5"/>
<text text-anchor="middle" x="853.06" y="-175.5" font-family="Helvetica,sans-Serif" font-size="10.00">user_board.h</text>
</a>
</g>
</g>
<!-- Node4&#45;&gt;Node5 -->
<g id="edge4" class="edge">
<title>Node4&#45;&gt;Node5</title>
<path fill="none" stroke="midnightblue" d="M766.6,-224.32C783.05,-215.7 808.49,-202.36 827.52,-192.39"/>
<polygon fill="midnightblue" stroke="midnightblue" points="829.32,-195.4 836.55,-187.65 826.07,-189.2 829.32,-195.4"/>
</g>
<!-- Node4&#45;&gt;Node7 -->
<g id="edge6" class="edge">
<title>Node4&#45;&gt;Node7</title>
<path fill="none" stroke="midnightblue" d="M729.97,-227.48C725.41,-226.28 720.57,-225.06 716.06,-224 637.89,-205.72 617.6,-204.61 539.06,-188 537.77,-187.73 536.47,-187.45 535.15,-187.17"/>
<polygon fill="midnightblue" stroke="midnightblue" points="535.46,-183.66 524.95,-184.97 533.98,-190.5 535.46,-183.66"/>
</g>
<!-- Node8 -->
<g id="node8" class="node">
<title>Node8</title>
<g id="a_node8"><a xlink:href="compiler_8h.html" target="_top" xlink:title="Commonly used includes, types and macros.">
<polygon fill="white" stroke="red" points="581.06,-112.5 581.06,-131.5 649.06,-131.5 649.06,-112.5 581.06,-112.5"/>
<text text-anchor="middle" x="615.06" y="-119.5" font-family="Helvetica,sans-Serif" font-size="10.00">compiler.h</text>
</a>
</g>
</g>
<!-- Node4&#45;&gt;Node8 -->
<g id="edge13" class="edge">
<title>Node4&#45;&gt;Node8</title>
<path fill="none" stroke="midnightblue" d="M729.84,-225.64C711.13,-218.16 683.24,-205.21 663.06,-188 647.1,-174.39 633.41,-154.51 624.78,-140.32"/>
<polygon fill="midnightblue" stroke="midnightblue" points="627.72,-138.42 619.65,-131.56 621.68,-141.96 627.72,-138.42"/>
</g>
<!-- Node13 -->
<g id="node10" class="node">
<title>Node13</title>
<g id="a_node10"><a xlink:href="parts_8h.html" target="_top" xlink:title="Atmel part identification macros.">
<polygon fill="white" stroke="black" points="602.06,-0.5 602.06,-19.5 652.06,-19.5 652.06,-0.5 602.06,-0.5"/>
<text text-anchor="middle" x="627.06" y="-7.5" font-family="Helvetica,sans-Serif" font-size="10.00">parts.h</text>
</a>
</g>
</g>
<!-- Node4&#45;&gt;Node13 -->
<g id="edge15" class="edge">
<title>Node4&#45;&gt;Node13</title>
<path fill="none" stroke="midnightblue" d="M736.68,-224.46C724.86,-216.33 707.88,-203.11 697.06,-188 677.88,-161.24 646.14,-68.9 633.02,-29.28"/>
<polygon fill="midnightblue" stroke="midnightblue" points="636.29,-28.01 629.84,-19.61 629.64,-30.2 636.29,-28.01"/>
</g>
<!-- Node14 -->
<g id="node11" class="node">
<title>Node14</title>
<g id="a_node11"><a xlink:href="interrupt_8h.html" target="_top" xlink:title="Global interrupt management for 8&#45; and 32&#45;bit AVR.">
<polygon fill="white" stroke="black" points="531.06,-56.5 531.06,-75.5 599.06,-75.5 599.06,-56.5 531.06,-56.5"/>
<text text-anchor="middle" x="565.06" y="-63.5" font-family="Helvetica,sans-Serif" font-size="10.00">interrupt.h</text>
</a>
</g>
</g>
<!-- Node4&#45;&gt;Node14 -->
<g id="edge12" class="edge">
<title>Node4&#45;&gt;Node14</title>
<path fill="none" stroke="midnightblue" d="M729.73,-226.74C706.98,-219.27 669.46,-205.57 640.06,-188 606.45,-167.92 590.64,-166.46 572.06,-132 564.4,-117.8 563.09,-99.32 563.43,-85.7"/>
<polygon fill="midnightblue" stroke="midnightblue" points="566.94,-85.78 564.01,-75.6 559.95,-85.38 566.94,-85.78"/>
</g>
<!-- Node16 -->
<g id="node12" class="node">
<title>Node16</title>
<g id="a_node12"><a xlink:href="status__codes_8h.html" target="_top" xlink:title="Status code definitions.">
<polygon fill="white" stroke="black" points="705.56,-168.5 705.56,-187.5 794.56,-187.5 794.56,-168.5 705.56,-168.5"/>
<text text-anchor="middle" x="750.06" y="-175.5" font-family="Helvetica,sans-Serif" font-size="10.00">status_codes.h</text>
</a>
</g>
</g>
<!-- Node4&#45;&gt;Node16 -->
<g id="edge14" class="edge">
<title>Node4&#45;&gt;Node16</title>
<path fill="none" stroke="midnightblue" d="M750.06,-224.08C750.06,-217.01 750.06,-206.86 750.06,-197.99"/>
<polygon fill="midnightblue" stroke="midnightblue" points="753.56,-197.75 750.06,-187.75 746.56,-197.75 753.56,-197.75"/>
</g>
<!-- Node5&#45;&gt;Node6 -->
<g id="edge5" class="edge">
<title>Node5&#45;&gt;Node6</title>
<path fill="none" stroke="midnightblue" d="M858.67,-168.08C863.42,-160.53 870.37,-149.49 876.21,-140.23"/>
<polygon fill="midnightblue" stroke="midnightblue" points="879.18,-142.08 881.55,-131.75 873.26,-138.35 879.18,-142.08"/>
</g>
<!-- Node7&#45;&gt;Node8 -->
<g id="edge7" class="edge">
<title>Node7&#45;&gt;Node8</title>
<path fill="none" stroke="midnightblue" d="M516.59,-168.44C535.68,-159.64 565.63,-145.81 587.49,-135.72"/>
<polygon fill="midnightblue" stroke="midnightblue" points="588.99,-138.88 596.6,-131.52 586.06,-132.53 588.99,-138.88"/>
</g>
<!-- Node8&#45;&gt;Node10 -->
<g id="edge8" class="edge">
<title>Node8&#45;&gt;Node10</title>
<path fill="none" stroke="midnightblue" d="M649.49,-117.94C755.61,-108.52 1077.06,-79.97 1186.28,-70.27"/>
<polygon fill="midnightblue" stroke="midnightblue" points="1186.82,-73.73 1196.47,-69.36 1186.2,-66.76 1186.82,-73.73"/>
</g>
<!-- Node8&#45;&gt;Node13 -->
<g id="edge9" class="edge">
<title>Node8&#45;&gt;Node13</title>
<path fill="none" stroke="midnightblue" d="M616,-112.37C617.93,-94.62 622.4,-53.67 625.03,-29.6"/>
<polygon fill="midnightblue" stroke="midnightblue" points="628.51,-29.91 626.12,-19.59 621.55,-29.15 628.51,-29.91"/>
</g>
<!-- Node8&#45;&gt;Node14 -->
<g id="edge10" class="edge">
<title>Node8&#45;&gt;Node14</title>
<path fill="none" stroke="midnightblue" d="M606.8,-112.08C599.59,-104.3 588.95,-92.8 580.21,-83.37"/>
<polygon fill="midnightblue" stroke="midnightblue" points="582.52,-80.71 573.16,-75.75 577.38,-85.47 582.52,-80.71"/>
</g>
<!-- Node14&#45;&gt;Node13 -->
<g id="edge11" class="edge">
<title>Node14&#45;&gt;Node13</title>
<path fill="none" stroke="midnightblue" d="M575.02,-56.32C584.18,-48.34 597.99,-36.31 609.08,-26.65"/>
<polygon fill="midnightblue" stroke="midnightblue" points="611.67,-29.04 616.91,-19.83 607.07,-23.76 611.67,-29.04"/>
</g>
<!-- Node20&#45;&gt;Node2 -->
<g id="edge23" class="edge">
<title>Node20&#45;&gt;Node2</title>
<path fill="none" stroke="midnightblue" d="M206.12,-243.62C182.61,-255.68 142.69,-278.54 162.06,-300 186.15,-326.7 411.95,-338.48 525.56,-342.84"/>
<polygon fill="midnightblue" stroke="midnightblue" points="525.74,-346.35 535.87,-343.22 526,-339.35 525.74,-346.35"/>
</g>
<!-- Node21&#45;&gt;Node2 -->
<g id="edge25" class="edge">
<title>Node21&#45;&gt;Node2</title>
<path fill="none" stroke="midnightblue" d="M382.43,-299.25C428.04,-308.61 499.27,-323.9 545.37,-334.2"/>
<polygon fill="midnightblue" stroke="midnightblue" points="544.85,-337.67 555.37,-336.44 546.38,-330.84 544.85,-337.67"/>
</g>
<!-- Node22&#45;&gt;Node1 -->
<g id="edge35" class="edge">
<title>Node22&#45;&gt;Node1</title>
<path fill="none" stroke="midnightblue" d="M229.83,-299.54C293.78,-318.53 448.73,-364.54 533.07,-389.58"/>
<polygon fill="midnightblue" stroke="midnightblue" points="532.16,-392.96 542.75,-392.45 534.16,-386.25 532.16,-392.96"/>
</g>
<!-- Node22&#45;&gt;Node3 -->
<g id="edge27" class="edge">
<title>Node22&#45;&gt;Node3</title>
<path fill="none" stroke="midnightblue" d="M240.41,-284.56C255.05,-282.99 271.8,-281.3 287.06,-280 536.37,-258.8 837.33,-242.18 938.76,-236.83"/>
<polygon fill="midnightblue" stroke="midnightblue" points="938.96,-240.32 948.76,-236.3 938.59,-233.33 938.96,-240.32"/>
</g>
<!-- Node22&#45;&gt;Node4 -->
<g id="edge28" class="edge">
<title>Node22&#45;&gt;Node4</title>
<path fill="none" stroke="midnightblue" d="M240.43,-284.77C255.07,-283.22 271.82,-281.49 287.06,-280 462.94,-262.8 507.44,-263.77 683.06,-244 695.11,-242.64 708.35,-240.91 719.86,-239.34"/>
<polygon fill="midnightblue" stroke="midnightblue" points="720.43,-242.79 729.85,-237.94 719.47,-235.86 720.43,-242.79"/>
</g>
<!-- Node22&#45;&gt;Node6 -->
<g id="edge32" class="edge">
<title>Node22&#45;&gt;Node6</title>
<path fill="none" stroke="midnightblue" d="M235.61,-280.49C316.34,-260.61 523.62,-209.69 697.06,-168 746.07,-156.22 802.25,-142.94 840.74,-133.88"/>
<polygon fill="midnightblue" stroke="midnightblue" points="841.68,-137.25 850.61,-131.55 840.08,-130.44 841.68,-137.25"/>
</g>
<!-- Node22&#45;&gt;Node7 -->
<g id="edge31" class="edge">
<title>Node22&#45;&gt;Node7</title>
<path fill="none" stroke="midnightblue" d="M224.36,-280.37C276.95,-260.89 404.96,-213.48 465.42,-191.09"/>
<polygon fill="midnightblue" stroke="midnightblue" points="466.7,-194.35 474.86,-187.59 464.27,-187.78 466.7,-194.35"/>
</g>
<!-- Node22&#45;&gt;Node17 -->
<g id="edge29" class="edge">
<title>Node22&#45;&gt;Node17</title>
<path fill="none" stroke="midnightblue" d="M175.54,-280.44C148.46,-271.36 105.47,-256.94 75.19,-246.78"/>
<polygon fill="midnightblue" stroke="midnightblue" points="76.04,-243.38 65.45,-243.52 73.82,-250.01 76.04,-243.38"/>
</g>
<!-- Node22&#45;&gt;Node18 -->
<g id="edge30" class="edge">
<title>Node22&#45;&gt;Node18</title>
<path fill="none" stroke="midnightblue" d="M189.33,-280.32C178.22,-272.11 161.31,-259.6 148.07,-249.81"/>
<polygon fill="midnightblue" stroke="midnightblue" points="150.12,-246.97 140,-243.83 145.96,-252.59 150.12,-246.97"/>
</g>
<!-- Node22&#45;&gt;Node19 -->
<g id="edge33" class="edge">
<title>Node22&#45;&gt;Node19</title>
<path fill="none" stroke="midnightblue" d="M240.09,-282.09C244.79,-281.34 249.53,-280.63 254.06,-280 402.83,-259.42 441.43,-265.58 590.06,-244 591.33,-243.81 592.63,-243.62 593.93,-243.42"/>
<polygon fill="midnightblue" stroke="midnightblue" points="594.74,-246.83 604.04,-241.76 593.61,-239.92 594.74,-246.83"/>
</g>
<!-- Node22&#45;&gt;Node20 -->
<g id="edge34" class="edge">
<title>Node22&#45;&gt;Node20</title>
<path fill="none" stroke="midnightblue" d="M204.36,-280.08C207.04,-272.85 210.9,-262.41 214.24,-253.4"/>
<polygon fill="midnightblue" stroke="midnightblue" points="217.62,-254.34 217.81,-243.75 211.06,-251.91 217.62,-254.34"/>
</g>
<!-- Node23&#45;&gt;Node2 -->
<g id="edge37" class="edge">
<title>Node23&#45;&gt;Node2</title>
<path fill="none" stroke="midnightblue" d="M468.79,-299.52C495.63,-308.47 535.19,-322.63 561.85,-332.77"/>
<polygon fill="midnightblue" stroke="midnightblue" points="560.79,-336.11 571.38,-336.44 563.3,-329.58 560.79,-336.11"/>
</g>
<!-- Node24&#45;&gt;Node2 -->
<g id="edge40" class="edge">
<title>Node24&#45;&gt;Node2</title>
<path fill="none" stroke="midnightblue" d="M550.78,-299.75C559.93,-307.4 571.44,-318.74 579.82,-328.14"/>
<polygon fill="midnightblue" stroke="midnightblue" points="577.37,-330.67 586.47,-336.08 582.73,-326.17 577.37,-330.67"/>
</g>
<!-- Node25&#45;&gt;Node3 -->
<g id="edge43" class="edge">
<title>Node25&#45;&gt;Node3</title>
<path fill="none" stroke="midnightblue" d="M951.51,-280.08C955.21,-272.69 960.58,-261.95 965.15,-252.81"/>
<polygon fill="midnightblue" stroke="midnightblue" points="968.34,-254.26 969.68,-243.75 962.08,-251.13 968.34,-254.26"/>
</g>
<!-- Node25&#45;&gt;Node4 -->
<g id="edge42" class="edge">
<title>Node25&#45;&gt;Node4</title>
<path fill="none" stroke="midnightblue" d="M915.84,-280.44C878.71,-270.27 817.15,-253.39 780.41,-243.32"/>
<polygon fill="midnightblue" stroke="midnightblue" points="780.87,-239.82 770.3,-240.55 779.02,-246.57 780.87,-239.82"/>
</g>
<!-- Node25&#45;&gt;Node6 -->
<g id="edge45" class="edge">
<title>Node25&#45;&gt;Node6</title>
<path fill="none" stroke="midnightblue" d="M943.83,-280.08C934.34,-253.83 906.41,-176.55 893.6,-141.12"/>
<polygon fill="midnightblue" stroke="midnightblue" points="896.84,-139.78 890.15,-131.57 890.26,-142.16 896.84,-139.78"/>
</g>
<!-- Node25&#45;&gt;Node7 -->
<g id="edge44" class="edge">
<title>Node25&#45;&gt;Node7</title>
<path fill="none" stroke="midnightblue" d="M911.52,-281.71C908.66,-281.13 905.81,-280.55 903.06,-280 822.22,-263.74 798.8,-271.49 721.06,-244 703.06,-237.64 700.91,-230.75 683.06,-224 669.24,-218.78 584.58,-198.92 534.7,-187.4"/>
<polygon fill="midnightblue" stroke="midnightblue" points="535.45,-183.99 524.92,-185.15 533.88,-190.81 535.45,-183.99"/>
</g>
<!-- Node25&#45;&gt;Node19 -->
<g id="edge46" class="edge">
<title>Node25&#45;&gt;Node19</title>
<path fill="none" stroke="midnightblue" d="M911.54,-281.62C908.67,-281.06 905.82,-280.51 903.06,-280 807.8,-262.29 783.48,-260.75 688.06,-244 686.79,-243.78 685.5,-243.55 684.2,-243.32"/>
<polygon fill="midnightblue" stroke="midnightblue" points="684.57,-239.83 674.11,-241.51 683.33,-246.72 684.57,-239.83"/>
</g>
<!-- Node26&#45;&gt;Node2 -->
<g id="edge48" class="edge">
<title>Node26&#45;&gt;Node2</title>
<path fill="none" stroke="midnightblue" d="M639.53,-299.83C633.36,-307.87 621.88,-319.91 611.4,-329.54"/>
<polygon fill="midnightblue" stroke="midnightblue" points="608.88,-327.09 603.69,-336.32 613.51,-332.35 608.88,-327.09"/>
</g>
<!-- Node27&#45;&gt;Node2 -->
<g id="edge50" class="edge">
<title>Node27&#45;&gt;Node2</title>
<path fill="none" stroke="midnightblue" d="M735.8,-299.52C709.52,-308.66 664.59,-323.26 631.47,-333.44"/>
<polygon fill="midnightblue" stroke="midnightblue" points="630.15,-330.18 621.61,-336.44 632.19,-336.88 630.15,-330.18"/>
</g>
<!-- Node28&#45;&gt;Node2 -->
<g id="edge52" class="edge">
<title>Node28&#45;&gt;Node2</title>
<path fill="none" stroke="midnightblue" d="M822.54,-299.16C777.84,-308.61 700.7,-324.18 647.57,-334.51"/>
<polygon fill="midnightblue" stroke="midnightblue" points="646.76,-331.11 637.61,-336.44 648.09,-337.98 646.76,-331.11"/>
</g>
<!-- Node29&#45;&gt;Node10 -->
<g id="edge54" class="edge">
<title>Node29&#45;&gt;Node10</title>
<path fill="none" stroke="midnightblue" d="M1268.14,-112.08C1260.28,-104.22 1248.62,-92.57 1239.14,-83.08"/>
<polygon fill="midnightblue" stroke="midnightblue" points="1241.35,-80.35 1231.81,-75.75 1236.4,-85.3 1241.35,-80.35"/>
</g>
<!-- Node30&#45;&gt;Node2 -->
<g id="edge56" class="edge">
<title>Node30&#45;&gt;Node2</title>
<path fill="none" stroke="midnightblue" d="M1004.17,-299.53C1003.12,-299.69 1002.08,-299.85 1001.06,-300 879.13,-318 735.45,-332.47 654.25,-339.79"/>
<polygon fill="midnightblue" stroke="midnightblue" points="653.82,-336.31 644.18,-340.69 654.45,-343.28 653.82,-336.31"/>
</g>
</g>
</svg>
        <g id="navigator" transform="translate(0 0)" fill="#404254">
                <rect fill="#f2f5e9" fill-opacity="0.5" stroke="#606060" stroke-width=".5" x="0" y="0" width="60" height="60"/>
                <use id="zoomplus" xlink:href="#zoomPlus" x="17" y="9" onmousedown="handleZoom(evt,'in')"/>
                <use id="zoomminus" xlink:href="#zoomMin" x="42" y="9" onmousedown="handleZoom(evt,'out')"/>
                <use id="reset" xlink:href="#resetDef" x="30" y="36" onmousedown="handleReset()"/>
                <g id="arrowUp" xlink:href="#dirArrow" transform="translate(30 24)" onmousedown="handlePan(0,-1)">
                  <use xlink:href="#rim" fill="#404040">
                        <set attributeName="fill" to="#808080" begin="arrowUp.mouseover" end="arrowUp.mouseout"/>
                  </use>
                  <path fill="none" stroke="white" stroke-width="1.5" d="M0,-3.0v7 M-2.5,-0.5L0,-3.0L2.5,-0.5"/>
                </g>
                <g id="arrowRight" xlink:href="#dirArrow" transform="rotate(90) translate(36 -43)" onmousedown="handlePan(1,0)">
                  <use xlink:href="#rim" fill="#404040">
                        <set attributeName="fill" to="#808080" begin="arrowRight.mouseover" end="arrowRight.mouseout"/>
                  </use>
                  <path fill="none" stroke="white" stroke-width="1.5" d="M0,-3.0v7 M-2.5,-0.5L0,-3.0L2.5,-0.5"/>
                </g>
                <g id="arrowDown" xlink:href="#dirArrow" transform="rotate(180) translate(-30 -48)" onmousedown="handlePan(0,1)">
                  <use xlink:href="#rim" fill="#404040">
                        <set attributeName="fill" to="#808080" begin="arrowDown.mouseover" end="arrowDown.mouseout"/>
                  </use>
                  <path fill="none" stroke="white" stroke-width="1.5" d="M0,-3.0v7 M-2.5,-0.5L0,-3.0L2.5,-0.5"/>
                </g>
                <g id="arrowLeft" xlink:href="#dirArrow" transform="rotate(270) translate(-36 17)" onmousedown="handlePan(-1,0)">
                  <use xlink:href="#rim" fill="#404040">
                        <set attributeName="fill" to="#808080" begin="arrowLeft.mouseover" end="arrowLeft.mouseout"/>
                  </use>
                  <path fill="none" stroke="white" stroke-width="1.5" d="M0,-3.0v7 M-2.5,-0.5L0,-3.0L2.5,-0.5"/>
                </g>
        </g>
        <svg viewBox="0 0 15 15" width="100%" height="30px" preserveAspectRatio="xMaxYMin meet">
         <g id="arrow_out" transform="scale(0.3 0.3)">
          <a xlink:href="____timer1_____8h__incl_org.svg" target="_base">
           <rect id="button" ry="5" rx="5" y="6" x="6" height="38" width="38"
                fill="#f2f5e9" fill-opacity="0.5" stroke="#606060" stroke-width="1.0"/>
           <path id="arrow"
             d="M 11.500037,31.436501 C 11.940474,20.09759 22.043105,11.32322 32.158766,21.979434 L 37.068811,17.246167 C 37.068811,17.246167 37.088388,32 37.088388,32 L 22.160133,31.978069 C 22.160133,31.978069 26.997745,27.140456 26.997745,27.140456 C 18.528582,18.264221 13.291696,25.230495 11.500037,31.436501 z"
             style="fill:#404040;"/>
          </a>
         </g>
        </svg>
</svg>
