<?xml version="1.0" encoding="UTF-8" standalone="no"?>
<!DOCTYPE svg PUBLIC "-//W3C//DTD SVG 1.1//EN"
 "http://www.w3.org/Graphics/SVG/1.1/DTD/svg11.dtd">
<!-- Generated by graphviz version 2.43.0 (0)
 -->
<!-- Title: swarm_bot_cpp/src/__pwm__.h Pages: 1 -->
<svg width="1546pt" height="251pt"
 viewBox="0.00 0.00 1546.00 251.00" xmlns="http://www.w3.org/2000/svg" xmlns:xlink="http://www.w3.org/1999/xlink">
<g id="graph0" class="graph" transform="scale(1 1) rotate(0) translate(4 247)">
<title>swarm_bot_cpp/src/__pwm__.h</title>
<polygon fill="white" stroke="transparent" points="-4,4 -4,-247 1542,-247 1542,4 -4,4"/>
<!-- Node1 -->
<g id="node1" class="node">
<title>Node1</title>
<g id="a_node1"><a xlink:title="Header file for pwm.c.">
<polygon fill="#bfbfbf" stroke="black" points="754,-212.5 754,-242.5 867,-242.5 867,-212.5 754,-212.5"/>
<text text-anchor="start" x="762" y="-230.5" font-family="Helvetica,sans-Serif" font-size="10.00">swarm_bot_cpp/src/</text>
<text text-anchor="middle" x="810.5" y="-219.5" font-family="Helvetica,sans-Serif" font-size="10.00">__pwm__.h</text>
</a>
</g>
</g>
<!-- Node2 -->
<g id="node2" class="node">
<title>Node2</title>
<g id="a_node2"><a xlink:href=".html" target="_top" xlink:title=" ">
<polygon fill="white" stroke="black" points="623,-145.5 623,-175.5 736,-175.5 736,-145.5 623,-145.5"/>
<text text-anchor="start" x="631" y="-163.5" font-family="Helvetica,sans-Serif" font-size="10.00">swarm_bot_cpp/src/</text>
<text text-anchor="middle" x="679.5" y="-152.5" font-family="Helvetica,sans-Serif" font-size="10.00">__pwm__.c</text>
</a>
</g>
</g>
<!-- Node1&#45;&gt;Node2 -->
<g id="edge1" class="edge">
<title>Node1&#45;&gt;Node2</title>
<path fill="none" stroke="midnightblue" d="M772.92,-207.85C752.21,-197.58 726.91,-185.03 707.87,-175.58"/>
<polygon fill="midnightblue" stroke="midnightblue" points="771.56,-211.09 782.07,-212.4 774.67,-204.82 771.56,-211.09"/>
</g>
<!-- Node3 -->
<g id="node3" class="node">
<title>Node3</title>
<g id="a_node3"><a xlink:href="____swarm__wold_____8h.html" target="_top" xlink:title="Header file for dummy purposes.">
<polygon fill="white" stroke="black" points="754,-145.5 754,-175.5 867,-175.5 867,-145.5 754,-145.5"/>
<text text-anchor="start" x="762" y="-163.5" font-family="Helvetica,sans-Serif" font-size="10.00">swarm_bot_cpp/src/</text>
<text text-anchor="middle" x="810.5" y="-152.5" font-family="Helvetica,sans-Serif" font-size="10.00">__swarm_wold__.h</text>
</a>
</g>
</g>
<!-- Node1&#45;&gt;Node3 -->
<g id="edge2" class="edge">
<title>Node1&#45;&gt;Node3</title>
<path fill="none" stroke="midnightblue" d="M803.95,-202.4C803.51,-193.37 803.8,-183.41 804.83,-175.58"/>
<polygon fill="midnightblue" stroke="midnightblue" points="800.47,-202.74 804.82,-212.4 807.44,-202.13 800.47,-202.74"/>
</g>
<!-- Node3&#45;&gt;Node1 -->
<g id="edge23" class="edge">
<title>Node3&#45;&gt;Node1</title>
<path fill="none" stroke="midnightblue" d="M817.04,-185.57C817.49,-194.6 817.21,-204.56 816.18,-212.4"/>
<polygon fill="midnightblue" stroke="midnightblue" points="820.53,-185.24 816.17,-175.58 813.55,-185.84 820.53,-185.24"/>
</g>
<!-- Node4 -->
<g id="node4" class="node">
<title>Node4</title>
<g id="a_node4"><a xlink:href="____adc_____8h.html" target="_top" xlink:title="Header file for adc.c.">
<polygon fill="white" stroke="black" points="951,-73 951,-103 1064,-103 1064,-73 951,-73"/>
<text text-anchor="start" x="959" y="-91" font-family="Helvetica,sans-Serif" font-size="10.00">swarm_bot_cpp/src/</text>
<text text-anchor="middle" x="1007.5" y="-80" font-family="Helvetica,sans-Serif" font-size="10.00">__adc__.h</text>
</a>
</g>
</g>
<!-- Node3&#45;&gt;Node4 -->
<g id="edge3" class="edge">
<title>Node3&#45;&gt;Node4</title>
<path fill="none" stroke="midnightblue" d="M853.99,-141.81C886.27,-129.83 930.05,-114.21 962.65,-103.07"/>
<polygon fill="midnightblue" stroke="midnightblue" points="852.51,-138.63 844.37,-145.4 854.96,-145.18 852.51,-138.63"/>
</g>
<!-- Node7 -->
<g id="node7" class="node">
<title>Node7</title>
<g id="a_node7"><a xlink:href="____dc__control_____8h.html" target="_top" xlink:title="Header file for dc_control.c.">
<polygon fill="white" stroke="black" points="126,-73 126,-103 239,-103 239,-73 126,-73"/>
<text text-anchor="start" x="134" y="-91" font-family="Helvetica,sans-Serif" font-size="10.00">swarm_bot_cpp/src/</text>
<text text-anchor="middle" x="182.5" y="-80" font-family="Helvetica,sans-Serif" font-size="10.00">__dc_control__.h</text>
</a>
</g>
</g>
<!-- Node3&#45;&gt;Node7 -->
<g id="edge8" class="edge">
<title>Node3&#45;&gt;Node7</title>
<path fill="none" stroke="midnightblue" d="M743.68,-146.3C740.92,-145.83 738.18,-145.39 735.5,-145 516.33,-113.16 456.17,-149.83 238.5,-109 230.49,-107.5 222.08,-105.35 214.24,-103.02"/>
<polygon fill="midnightblue" stroke="midnightblue" points="743.31,-149.79 753.78,-148.15 744.57,-142.91 743.31,-149.79"/>
</g>
<!-- Node9 -->
<g id="node9" class="node">
<title>Node9</title>
<g id="a_node9"><a xlink:href="____format_____8h.html" target="_top" xlink:title="Header file for format.c.">
<polygon fill="white" stroke="black" points="257,-73 257,-103 370,-103 370,-73 257,-73"/>
<text text-anchor="start" x="265" y="-91" font-family="Helvetica,sans-Serif" font-size="10.00">swarm_bot_cpp/src/</text>
<text text-anchor="middle" x="313.5" y="-80" font-family="Helvetica,sans-Serif" font-size="10.00">__format__.h</text>
</a>
</g>
</g>
<!-- Node3&#45;&gt;Node9 -->
<g id="edge11" class="edge">
<title>Node3&#45;&gt;Node9</title>
<path fill="none" stroke="midnightblue" d="M743.67,-146.39C740.91,-145.89 738.18,-145.42 735.5,-145 574.06,-119.42 529.75,-141.2 369.5,-109 361.74,-107.44 353.6,-105.33 345.95,-103.06"/>
<polygon fill="midnightblue" stroke="midnightblue" points="743.28,-149.87 753.75,-148.3 744.58,-143 743.28,-149.87"/>
</g>
<!-- Node11 -->
<g id="node11" class="node">
<title>Node11</title>
<g id="a_node11"><a xlink:href="_____i_n_t__0__1_____8h.html" target="_top" xlink:title="Header file for INT_0_1.c.">
<polygon fill="white" stroke="black" points="388,-73 388,-103 501,-103 501,-73 388,-73"/>
<text text-anchor="start" x="396" y="-91" font-family="Helvetica,sans-Serif" font-size="10.00">swarm_bot_cpp/src/</text>
<text text-anchor="middle" x="444.5" y="-80" font-family="Helvetica,sans-Serif" font-size="10.00">__INT_0_1__.h</text>
</a>
</g>
</g>
<!-- Node3&#45;&gt;Node11 -->
<g id="edge14" class="edge">
<title>Node3&#45;&gt;Node11</title>
<path fill="none" stroke="midnightblue" d="M743.64,-146.57C740.89,-146.02 738.17,-145.5 735.5,-145 631.62,-125.65 603.49,-132.6 500.5,-109 493.13,-107.31 485.39,-105.22 478.06,-103.03"/>
<polygon fill="midnightblue" stroke="midnightblue" points="743.21,-150.05 753.7,-148.6 744.6,-143.19 743.21,-150.05"/>
</g>
<!-- Node13 -->
<g id="node13" class="node">
<title>Node13</title>
<g id="a_node13"><a xlink:href="____kinematics_____8h.html" target="_top" xlink:title="Header file for kimenatics.c.">
<polygon fill="white" stroke="black" points="519,-73 519,-103 632,-103 632,-73 519,-73"/>
<text text-anchor="start" x="527" y="-91" font-family="Helvetica,sans-Serif" font-size="10.00">swarm_bot_cpp/src/</text>
<text text-anchor="middle" x="575.5" y="-80" font-family="Helvetica,sans-Serif" font-size="10.00">__kinematics__.h</text>
</a>
</g>
</g>
<!-- Node3&#45;&gt;Node13 -->
<g id="edge17" class="edge">
<title>Node3&#45;&gt;Node13</title>
<path fill="none" stroke="midnightblue" d="M754.13,-142.59C713.91,-130.52 660.45,-114.48 622.52,-103.11"/>
<polygon fill="midnightblue" stroke="midnightblue" points="753.21,-145.97 763.79,-145.49 755.22,-139.26 753.21,-145.97"/>
</g>
<!-- Node15 -->
<g id="node15" class="node">
<title>Node15</title>
<g id="a_node15"><a xlink:href=".html" target="_top" xlink:title=" ">
<polygon fill="white" stroke="black" points="524.5,-6 524.5,-25 670.5,-25 670.5,-6 524.5,-6"/>
<text text-anchor="middle" x="597.5" y="-13" font-family="Helvetica,sans-Serif" font-size="10.00">swarm_bot_cpp/src/main.c</text>
</a>
</g>
</g>
<!-- Node3&#45;&gt;Node15 -->
<g id="edge35" class="edge">
<title>Node3&#45;&gt;Node15</title>
<path fill="none" stroke="midnightblue" d="M748.03,-142.24C725.27,-134.25 700.09,-123.29 679.5,-109 670.46,-102.73 623.32,-47.19 604.89,-25.3"/>
<polygon fill="midnightblue" stroke="midnightblue" points="747.02,-145.6 757.62,-145.49 749.27,-138.97 747.02,-145.6"/>
</g>
<!-- Node16 -->
<g id="node16" class="node">
<title>Node16</title>
<g id="a_node16"><a xlink:href="____odometry_____8h.html" target="_top" xlink:title="Header file for odometry.c.">
<polygon fill="white" stroke="black" points="689,-73 689,-103 802,-103 802,-73 689,-73"/>
<text text-anchor="start" x="697" y="-91" font-family="Helvetica,sans-Serif" font-size="10.00">swarm_bot_cpp/src/</text>
<text text-anchor="middle" x="745.5" y="-80" font-family="Helvetica,sans-Serif" font-size="10.00">__odometry__.h</text>
</a>
</g>
</g>
<!-- Node3&#45;&gt;Node16 -->
<g id="edge20" class="edge">
<title>Node3&#45;&gt;Node16</title>
<path fill="none" stroke="midnightblue" d="M784.59,-138.19C773.32,-126.87 761.02,-113.27 753.09,-103.25"/>
<polygon fill="midnightblue" stroke="midnightblue" points="782.2,-140.74 791.8,-145.23 787.1,-135.74 782.2,-140.74"/>
</g>
<!-- Node18 -->
<g id="node18" class="node">
<title>Node18</title>
<g id="a_node18"><a xlink:href="____timer0_____8h.html" target="_top" xlink:title="Header file for timer0.c.">
<polygon fill="white" stroke="black" points="820,-73 820,-103 933,-103 933,-73 820,-73"/>
<text text-anchor="start" x="828" y="-91" font-family="Helvetica,sans-Serif" font-size="10.00">swarm_bot_cpp/src/</text>
<text text-anchor="middle" x="876.5" y="-80" font-family="Helvetica,sans-Serif" font-size="10.00">__timer0__.h</text>
</a>
</g>
</g>
<!-- Node3&#45;&gt;Node18 -->
<g id="edge24" class="edge">
<title>Node3&#45;&gt;Node18</title>
<path fill="none" stroke="midnightblue" d="M824.8,-137.49C834.56,-126.22 847.34,-112.85 857.88,-103"/>
<polygon fill="midnightblue" stroke="midnightblue" points="822.05,-135.32 818.31,-145.23 827.41,-139.82 822.05,-135.32"/>
</g>
<!-- Node20 -->
<g id="node20" class="node">
<title>Node20</title>
<g id="a_node20"><a xlink:href="____timer1_____8h.html" target="_top" xlink:title="Header file for timer1.c.">
<polygon fill="white" stroke="black" points="1121,-73 1121,-103 1234,-103 1234,-73 1121,-73"/>
<text text-anchor="start" x="1129" y="-91" font-family="Helvetica,sans-Serif" font-size="10.00">swarm_bot_cpp/src/</text>
<text text-anchor="middle" x="1177.5" y="-80" font-family="Helvetica,sans-Serif" font-size="10.00">__timer1__.h</text>
</a>
</g>
</g>
<!-- Node3&#45;&gt;Node20 -->
<g id="edge27" class="edge">
<title>Node3&#45;&gt;Node20</title>
<path fill="none" stroke="midnightblue" d="M877.36,-149.07C935.77,-140.08 1022.54,-125.9 1097.5,-109 1105.25,-107.25 1113.4,-105.18 1121.45,-103.04"/>
<polygon fill="midnightblue" stroke="midnightblue" points="876.51,-145.66 867.15,-150.63 877.57,-152.58 876.51,-145.66"/>
</g>
<!-- Node22 -->
<g id="node22" class="node">
<title>Node22</title>
<g id="a_node22"><a xlink:href="____timer2_____8h.html" target="_top" xlink:title="Header file for timer2.c.">
<polygon fill="white" stroke="black" points="1425,-73 1425,-103 1538,-103 1538,-73 1425,-73"/>
<text text-anchor="start" x="1433" y="-91" font-family="Helvetica,sans-Serif" font-size="10.00">swarm_bot_cpp/src/</text>
<text text-anchor="middle" x="1481.5" y="-80" font-family="Helvetica,sans-Serif" font-size="10.00">__timer2__.h</text>
</a>
</g>
</g>
<!-- Node3&#45;&gt;Node22 -->
<g id="edge31" class="edge">
<title>Node3&#45;&gt;Node22</title>
<path fill="none" stroke="midnightblue" d="M877.29,-158.48C988.35,-155.76 1217.27,-145.75 1407.5,-109 1415.38,-107.48 1423.66,-105.35 1431.74,-103.05"/>
<polygon fill="midnightblue" stroke="midnightblue" points="877.16,-154.99 867.24,-158.72 877.32,-161.99 877.16,-154.99"/>
</g>
<!-- Node24 -->
<g id="node24" class="node">
<title>Node24</title>
<g id="a_node24"><a xlink:href="init_8c.html" target="_top" xlink:title="User board initialization template.">
<polygon fill="white" stroke="black" points="1252,-67.5 1252,-108.5 1407,-108.5 1407,-67.5 1252,-67.5"/>
<text text-anchor="start" x="1260" y="-96.5" font-family="Helvetica,sans-Serif" font-size="10.00">swarm_bot_cpp/src/ASF</text>
<text text-anchor="start" x="1260" y="-85.5" font-family="Helvetica,sans-Serif" font-size="10.00">/common/boards/user_board</text>
<text text-anchor="middle" x="1329.5" y="-74.5" font-family="Helvetica,sans-Serif" font-size="10.00">/init.c</text>
</a>
</g>
</g>
<!-- Node3&#45;&gt;Node24 -->
<g id="edge34" class="edge">
<title>Node3&#45;&gt;Node24</title>
<path fill="none" stroke="midnightblue" d="M877.26,-154.06C962.59,-146.57 1114.71,-131.41 1243.5,-109 1246.22,-108.53 1248.98,-108.02 1251.76,-107.49"/>
<polygon fill="midnightblue" stroke="midnightblue" points="876.85,-150.58 867.19,-154.94 877.45,-157.56 876.85,-150.58"/>
</g>
<!-- Node4&#45;&gt;Node3 -->
<g id="edge7" class="edge">
<title>Node4&#45;&gt;Node3</title>
<path fill="none" stroke="midnightblue" d="M964.08,-106.66C931.82,-118.64 888.04,-134.26 855.42,-145.4"/>
<polygon fill="midnightblue" stroke="midnightblue" points="965.55,-109.85 973.7,-103.07 963.11,-103.29 965.55,-109.85"/>
</g>
<!-- Node5 -->
<g id="node5" class="node">
<title>Node5</title>
<g id="a_node5"><a xlink:href=".html" target="_top" xlink:title=" ">
<polygon fill="white" stroke="black" points="951,-0.5 951,-30.5 1064,-30.5 1064,-0.5 951,-0.5"/>
<text text-anchor="start" x="959" y="-18.5" font-family="Helvetica,sans-Serif" font-size="10.00">swarm_bot_cpp/src/</text>
<text text-anchor="middle" x="1007.5" y="-7.5" font-family="Helvetica,sans-Serif" font-size="10.00">__adc__.c</text>
</a>
</g>
</g>
<!-- Node4&#45;&gt;Node5 -->
<g id="edge4" class="edge">
<title>Node4&#45;&gt;Node5</title>
<path fill="none" stroke="midnightblue" d="M1007.5,-62.73C1007.5,-52.07 1007.5,-39.91 1007.5,-30.75"/>
<polygon fill="midnightblue" stroke="midnightblue" points="1004,-62.73 1007.5,-72.73 1011,-62.73 1004,-62.73"/>
</g>
<!-- Node6 -->
<g id="node6" class="node">
<title>Node6</title>
<g id="a_node6"><a xlink:href=".html" target="_top" xlink:title=" ">
<polygon fill="white" stroke="black" points="1082,-0.5 1082,-30.5 1195,-30.5 1195,-0.5 1082,-0.5"/>
<text text-anchor="start" x="1090" y="-18.5" font-family="Helvetica,sans-Serif" font-size="10.00">swarm_bot_cpp/src/</text>
<text text-anchor="middle" x="1138.5" y="-7.5" font-family="Helvetica,sans-Serif" font-size="10.00">__pin_map.h</text>
</a>
</g>
</g>
<!-- Node4&#45;&gt;Node6 -->
<g id="edge5" class="edge">
<title>Node4&#45;&gt;Node6</title>
<path fill="none" stroke="midnightblue" d="M1042.7,-68.06C1064.63,-56.26 1092.37,-41.33 1112.35,-30.57"/>
<polygon fill="midnightblue" stroke="midnightblue" points="1040.84,-65.08 1033.69,-72.9 1044.16,-71.25 1040.84,-65.08"/>
</g>
<!-- Node6&#45;&gt;Node3 -->
<g id="edge6" class="edge">
<title>Node6&#45;&gt;Node3</title>
<path fill="none" stroke="midnightblue" d="M1125.07,-39.56C1110.4,-63.97 1087.16,-100.16 1073.5,-109 1040.12,-130.58 933.99,-145.87 867.19,-153.63"/>
<polygon fill="midnightblue" stroke="midnightblue" points="1128.14,-41.25 1130.24,-30.87 1122.12,-37.67 1128.14,-41.25"/>
</g>
<!-- Node7&#45;&gt;Node3 -->
<g id="edge10" class="edge">
<title>Node7&#45;&gt;Node3</title>
<path fill="none" stroke="midnightblue" d="M241.55,-105.64C246.59,-106.93 251.62,-108.08 256.5,-109 474.17,-149.83 534.33,-113.16 753.5,-145 754.54,-145.15 755.6,-145.31 756.66,-145.48"/>
<polygon fill="midnightblue" stroke="midnightblue" points="242.45,-102.26 231.89,-103.02 240.62,-109.02 242.45,-102.26"/>
</g>
<!-- Node8 -->
<g id="node8" class="node">
<title>Node8</title>
<g id="a_node8"><a xlink:href="____dc__control_____8c.html" target="_top" xlink:title="Header file for dc_control.c.">
<polygon fill="white" stroke="black" points="0,-0.5 0,-30.5 113,-30.5 113,-0.5 0,-0.5"/>
<text text-anchor="start" x="8" y="-18.5" font-family="Helvetica,sans-Serif" font-size="10.00">swarm_bot_cpp/src/</text>
<text text-anchor="middle" x="56.5" y="-7.5" font-family="Helvetica,sans-Serif" font-size="10.00">__dc_control__.c</text>
</a>
</g>
</g>
<!-- Node7&#45;&gt;Node8 -->
<g id="edge9" class="edge">
<title>Node7&#45;&gt;Node8</title>
<path fill="none" stroke="midnightblue" d="M148.36,-67.9C127.31,-56.12 100.78,-41.28 81.65,-30.57"/>
<polygon fill="midnightblue" stroke="midnightblue" points="146.87,-71.07 157.3,-72.9 150.29,-64.97 146.87,-71.07"/>
</g>
<!-- Node9&#45;&gt;Node3 -->
<g id="edge13" class="edge">
<title>Node9&#45;&gt;Node3</title>
<path fill="none" stroke="midnightblue" d="M373.39,-105.72C378.15,-106.95 382.9,-108.07 387.5,-109 547.75,-141.2 592.06,-119.42 753.5,-145 754.43,-145.15 755.36,-145.3 756.3,-145.46"/>
<polygon fill="midnightblue" stroke="midnightblue" points="374.2,-102.31 363.63,-103.06 372.36,-109.07 374.2,-102.31"/>
</g>
<!-- Node10 -->
<g id="node10" class="node">
<title>Node10</title>
<g id="a_node10"><a xlink:href="____format_____8c.html" target="_top" xlink:title="Header file for format.c.">
<polygon fill="white" stroke="black" points="131,-0.5 131,-30.5 244,-30.5 244,-0.5 131,-0.5"/>
<text text-anchor="start" x="139" y="-18.5" font-family="Helvetica,sans-Serif" font-size="10.00">swarm_bot_cpp/src/</text>
<text text-anchor="middle" x="187.5" y="-7.5" font-family="Helvetica,sans-Serif" font-size="10.00">__format__.c</text>
</a>
</g>
</g>
<!-- Node9&#45;&gt;Node10 -->
<g id="edge12" class="edge">
<title>Node9&#45;&gt;Node10</title>
<path fill="none" stroke="midnightblue" d="M279.36,-67.9C258.31,-56.12 231.78,-41.28 212.65,-30.57"/>
<polygon fill="midnightblue" stroke="midnightblue" points="277.87,-71.07 288.3,-72.9 281.29,-64.97 277.87,-71.07"/>
</g>
<!-- Node11&#45;&gt;Node3 -->
<g id="edge16" class="edge">
<title>Node11&#45;&gt;Node3</title>
<path fill="none" stroke="midnightblue" d="M505.44,-105.73C509.86,-106.91 514.24,-108.02 518.5,-109 621.49,-132.6 649.62,-125.65 753.5,-145 754.31,-145.15 755.12,-145.3 755.94,-145.46"/>
<polygon fill="midnightblue" stroke="midnightblue" points="506.35,-102.34 495.77,-103.03 504.47,-109.09 506.35,-102.34"/>
</g>
<!-- Node12 -->
<g id="node12" class="node">
<title>Node12</title>
<g id="a_node12"><a xlink:href=".html" target="_top" xlink:title=" ">
<polygon fill="white" stroke="black" points="262,-0.5 262,-30.5 375,-30.5 375,-0.5 262,-0.5"/>
<text text-anchor="start" x="270" y="-18.5" font-family="Helvetica,sans-Serif" font-size="10.00">swarm_bot_cpp/src/</text>
<text text-anchor="middle" x="318.5" y="-7.5" font-family="Helvetica,sans-Serif" font-size="10.00">__INT_0_1__.c</text>
</a>
</g>
</g>
<!-- Node11&#45;&gt;Node12 -->
<g id="edge15" class="edge">
<title>Node11&#45;&gt;Node12</title>
<path fill="none" stroke="midnightblue" d="M410.36,-67.9C389.31,-56.12 362.78,-41.28 343.65,-30.57"/>
<polygon fill="midnightblue" stroke="midnightblue" points="408.87,-71.07 419.3,-72.9 412.29,-64.97 408.87,-71.07"/>
</g>
<!-- Node14 -->
<g id="node14" class="node">
<title>Node14</title>
<g id="a_node14"><a xlink:href=".html" target="_top" xlink:title=" ">
<polygon fill="white" stroke="black" points="393,-0.5 393,-30.5 506,-30.5 506,-0.5 393,-0.5"/>
<text text-anchor="start" x="401" y="-18.5" font-family="Helvetica,sans-Serif" font-size="10.00">swarm_bot_cpp/src/</text>
<text text-anchor="middle" x="449.5" y="-7.5" font-family="Helvetica,sans-Serif" font-size="10.00">__kinematics__.c</text>
</a>
</g>
</g>
<!-- Node13&#45;&gt;Node14 -->
<g id="edge18" class="edge">
<title>Node13&#45;&gt;Node14</title>
<path fill="none" stroke="midnightblue" d="M541.36,-67.9C520.31,-56.12 493.78,-41.28 474.65,-30.57"/>
<polygon fill="midnightblue" stroke="midnightblue" points="539.87,-71.07 550.3,-72.9 543.29,-64.97 539.87,-71.07"/>
</g>
<!-- Node13&#45;&gt;Node15 -->
<g id="edge19" class="edge">
<title>Node13&#45;&gt;Node15</title>
<path fill="none" stroke="midnightblue" d="M583,-62.98C587.04,-50.01 591.79,-34.79 594.72,-25.39"/>
<polygon fill="midnightblue" stroke="midnightblue" points="579.59,-62.14 579.95,-72.73 586.27,-64.23 579.59,-62.14"/>
</g>
<!-- Node16&#45;&gt;Node3 -->
<g id="edge22" class="edge">
<title>Node16&#45;&gt;Node3</title>
<path fill="none" stroke="midnightblue" d="M771.16,-110.07C782.49,-121.42 794.91,-135.13 802.89,-145.23"/>
<polygon fill="midnightblue" stroke="midnightblue" points="773.53,-107.48 763.93,-103 768.64,-112.49 773.53,-107.48"/>
</g>
<!-- Node17 -->
<g id="node17" class="node">
<title>Node17</title>
<g id="a_node17"><a xlink:href=".html" target="_top" xlink:title=" ">
<polygon fill="white" stroke="black" points="689,-0.5 689,-30.5 802,-30.5 802,-0.5 689,-0.5"/>
<text text-anchor="start" x="697" y="-18.5" font-family="Helvetica,sans-Serif" font-size="10.00">swarm_bot_cpp/src/</text>
<text text-anchor="middle" x="745.5" y="-7.5" font-family="Helvetica,sans-Serif" font-size="10.00">__odometry__.c</text>
</a>
</g>
</g>
<!-- Node16&#45;&gt;Node17 -->
<g id="edge21" class="edge">
<title>Node16&#45;&gt;Node17</title>
<path fill="none" stroke="midnightblue" d="M745.5,-62.73C745.5,-52.07 745.5,-39.91 745.5,-30.75"/>
<polygon fill="midnightblue" stroke="midnightblue" points="742,-62.73 745.5,-72.73 749,-62.73 742,-62.73"/>
</g>
<!-- Node18&#45;&gt;Node3 -->
<g id="edge25" class="edge">
<title>Node18&#45;&gt;Node3</title>
<path fill="none" stroke="midnightblue" d="M862.27,-110.94C852.59,-122.12 839.91,-135.39 829.4,-145.23"/>
<polygon fill="midnightblue" stroke="midnightblue" points="864.97,-113.16 868.71,-103.25 859.6,-108.66 864.97,-113.16"/>
</g>
<!-- Node19 -->
<g id="node19" class="node">
<title>Node19</title>
<g id="a_node19"><a xlink:href=".html" target="_top" xlink:title=" ">
<polygon fill="white" stroke="black" points="820,-0.5 820,-30.5 933,-30.5 933,-0.5 820,-0.5"/>
<text text-anchor="start" x="828" y="-18.5" font-family="Helvetica,sans-Serif" font-size="10.00">swarm_bot_cpp/src/</text>
<text text-anchor="middle" x="876.5" y="-7.5" font-family="Helvetica,sans-Serif" font-size="10.00">__timer0__.c</text>
</a>
</g>
</g>
<!-- Node18&#45;&gt;Node19 -->
<g id="edge26" class="edge">
<title>Node18&#45;&gt;Node19</title>
<path fill="none" stroke="midnightblue" d="M876.5,-62.73C876.5,-52.07 876.5,-39.91 876.5,-30.75"/>
<polygon fill="midnightblue" stroke="midnightblue" points="873,-62.73 876.5,-72.73 880,-62.73 873,-62.73"/>
</g>
<!-- Node20&#45;&gt;Node3 -->
<g id="edge29" class="edge">
<title>Node20&#45;&gt;Node3</title>
<path fill="none" stroke="midnightblue" d="M1129.2,-105.69C1124.59,-106.87 1119.98,-107.99 1115.5,-109 1029.81,-128.32 928.69,-144.09 867,-152.61"/>
<polygon fill="midnightblue" stroke="midnightblue" points="1130.43,-108.99 1139.19,-103.04 1128.63,-102.22 1130.43,-108.99"/>
</g>
<!-- Node20&#45;&gt;Node6 -->
<g id="edge28" class="edge">
<title>Node20&#45;&gt;Node6</title>
<path fill="none" stroke="midnightblue" d="M1164.63,-63.73C1158.6,-52.83 1151.61,-40.2 1146.38,-30.75"/>
<polygon fill="midnightblue" stroke="midnightblue" points="1161.7,-65.68 1169.61,-72.73 1167.83,-62.29 1161.7,-65.68"/>
</g>
<!-- Node21 -->
<g id="node21" class="node">
<title>Node21</title>
<g id="a_node21"><a xlink:href=".html" target="_top" xlink:title=" ">
<polygon fill="white" stroke="black" points="1213,-0.5 1213,-30.5 1326,-30.5 1326,-0.5 1213,-0.5"/>
<text text-anchor="start" x="1221" y="-18.5" font-family="Helvetica,sans-Serif" font-size="10.00">swarm_bot_cpp/src/</text>
<text text-anchor="middle" x="1269.5" y="-7.5" font-family="Helvetica,sans-Serif" font-size="10.00">__timer1__.c</text>
</a>
</g>
</g>
<!-- Node20&#45;&gt;Node21 -->
<g id="edge30" class="edge">
<title>Node20&#45;&gt;Node21</title>
<path fill="none" stroke="midnightblue" d="M1204.11,-66.61C1219.22,-55.03 1237.75,-40.83 1251.22,-30.5"/>
<polygon fill="midnightblue" stroke="midnightblue" points="1201.93,-63.87 1196.12,-72.73 1206.18,-69.43 1201.93,-63.87"/>
</g>
<!-- Node22&#45;&gt;Node3 -->
<g id="edge32" class="edge">
<title>Node22&#45;&gt;Node3</title>
<path fill="none" stroke="midnightblue" d="M1439.77,-105.74C1435,-106.98 1430.18,-108.1 1425.5,-109 1222.85,-148.15 976.3,-156.95 867.08,-158.93"/>
<polygon fill="midnightblue" stroke="midnightblue" points="1440.71,-109.11 1449.41,-103.05 1438.83,-102.37 1440.71,-109.11"/>
</g>
<!-- Node23 -->
<g id="node23" class="node">
<title>Node23</title>
<g id="a_node23"><a xlink:href=".html" target="_top" xlink:title=" ">
<polygon fill="white" stroke="black" points="1425,-0.5 1425,-30.5 1538,-30.5 1538,-0.5 1425,-0.5"/>
<text text-anchor="start" x="1433" y="-18.5" font-family="Helvetica,sans-Serif" font-size="10.00">swarm_bot_cpp/src/</text>
<text text-anchor="middle" x="1481.5" y="-7.5" font-family="Helvetica,sans-Serif" font-size="10.00">__timer2__.c</text>
</a>
</g>
</g>
<!-- Node22&#45;&gt;Node23 -->
<g id="edge33" class="edge">
<title>Node22&#45;&gt;Node23</title>
<path fill="none" stroke="midnightblue" d="M1481.5,-62.73C1481.5,-52.07 1481.5,-39.91 1481.5,-30.75"/>
<polygon fill="midnightblue" stroke="midnightblue" points="1478,-62.73 1481.5,-72.73 1485,-62.73 1478,-62.73"/>
</g>
</g>
</svg>
