<?xml version="1.0" encoding="UTF-8" standalone="no"?>
<!DOCTYPE svg PUBLIC "-//W3C//DTD SVG 1.1//EN"
 "http://www.w3.org/Graphics/SVG/1.1/DTD/svg11.dtd">
<!-- Generated by graphviz version 2.43.0 (0)
 -->
<!-- Title: swarm_bot_cpp/src/__timer2__.h Pages: 1 -->
<!--zoomable 251 -->
<svg id="main" version="1.1" xmlns="http://www.w3.org/2000/svg" xmlns:xlink="http://www.w3.org/1999/xlink" xml:space="preserve" onload="init(evt)">
<style type="text/css"><![CDATA[
.edge:hover path { stroke: red; }
.edge:hover polygon { stroke: red; fill: red; }
]]></style>
<script type="text/javascript"><![CDATA[
var edges = document.getElementsByTagName('g');
if (edges && edges.length) {
  for (var i=0;i<edges.length;i++) {
    if (edges[i].id.substr(0,4)=='edge') {
      edges[i].setAttribute('class','edge');
    }
  }
}
]]></script>
        <defs>
                <circle id="rim" cx="0" cy="0" r="7"/>
                <circle id="rim2" cx="0" cy="0" r="3.5"/>
                <g id="zoomPlus">
                        <use xlink:href="#rim" fill="#404040">
                                <set attributeName="fill" to="#808080" begin="zoomplus.mouseover" end="zoomplus.mouseout"/>
                        </use>
                        <path d="M-4,0h8M0,-4v8" fill="none" stroke="white" stroke-width="1.5" pointer-events="none"/>
                </g>
                <g id="zoomMin">
                        <use xlink:href="#rim" fill="#404040">
                                <set attributeName="fill" to="#808080" begin="zoomminus.mouseover" end="zoomminus.mouseout"/>
                        </use>
                        <path d="M-4,0h8" fill="none" stroke="white" stroke-width="1.5" pointer-events="none"/>
                </g>
                <g id="dirArrow">
                        <path fill="none" stroke="white" stroke-width="1.5" d="M0,-3.0v7 M-2.5,-0.5L0,-3.0L2.5,-0.5"/>
                </g>
               <g id="resetDef">
                       <use xlink:href="#rim2" fill="#404040">
                               <set attributeName="fill" to="#808080" begin="reset.mouseover" end="reset.mouseout"/>
                       </use>
               </g>
        </defs>

<script type="text/javascript">
var viewWidth = 1512;
var viewHeight = 251;
var sectionId = 'dynsection-1';
</script>
<script xlink:href="svgpan.js"/>
<svg id="graph" class="graph">
<g id="viewport">
<title>swarm_bot_cpp/src/__timer2__.h</title>
<polygon fill="white" stroke="transparent" points="-4,4 -4,-247 1508,-247 1508,4 -4,4"/>
<!-- Node1 -->
<g id="node1" class="node">
<title>Node1</title>
<g id="a_node1"><a xlink:title="Header file for timer2.c.">
<polygon fill="#bfbfbf" stroke="black" points="655,-212.5 655,-242.5 768,-242.5 768,-212.5 655,-212.5"/>
<text text-anchor="start" x="663" y="-230.5" font-family="Helvetica,sans-Serif" font-size="10.00">swarm_bot_cpp/src/</text>
<text text-anchor="middle" x="711.5" y="-219.5" font-family="Helvetica,sans-Serif" font-size="10.00">__timer2__.h</text>
</a>
</g>
</g>
<!-- Node2 -->
<g id="node2" class="node">
<title>Node2</title>
<g id="a_node2"><a xlink:href="____swarm__wold_____8h.html" target="_top" xlink:title="Header file for dummy purposes.">
<polygon fill="white" stroke="black" points="655,-145.5 655,-175.5 768,-175.5 768,-145.5 655,-145.5"/>
<text text-anchor="start" x="663" y="-163.5" font-family="Helvetica,sans-Serif" font-size="10.00">swarm_bot_cpp/src/</text>
<text text-anchor="middle" x="711.5" y="-152.5" font-family="Helvetica,sans-Serif" font-size="10.00">__swarm_wold__.h</text>
</a>
</g>
</g>
<!-- Node1&#45;&gt;Node2 -->
<g id="edge1" class="edge">
<title>Node1&#45;&gt;Node2</title>
<path fill="none" stroke="midnightblue" d="M704.95,-202.4C704.51,-193.37 704.8,-183.41 705.83,-175.58"/>
<polygon fill="midnightblue" stroke="midnightblue" points="701.47,-202.74 705.82,-212.4 708.44,-202.13 701.47,-202.74"/>
</g>
<!-- Node24 -->
<g id="node24" class="node">
<title>Node24</title>
<g id="a_node24"><a xlink:href=".html" target="_top" xlink:title=" ">
<polygon fill="white" stroke="black" points="786,-145.5 786,-175.5 899,-175.5 899,-145.5 786,-145.5"/>
<text text-anchor="start" x="794" y="-163.5" font-family="Helvetica,sans-Serif" font-size="10.00">swarm_bot_cpp/src/</text>
<text text-anchor="middle" x="842.5" y="-152.5" font-family="Helvetica,sans-Serif" font-size="10.00">__timer2__.c</text>
</a>
</g>
</g>
<!-- Node1&#45;&gt;Node24 -->
<g id="edge35" class="edge">
<title>Node1&#45;&gt;Node24</title>
<path fill="none" stroke="midnightblue" d="M749.08,-207.85C769.79,-197.58 795.09,-185.03 814.13,-175.58"/>
<polygon fill="midnightblue" stroke="midnightblue" points="747.33,-204.82 739.93,-212.4 750.44,-211.09 747.33,-204.82"/>
</g>
<!-- Node2&#45;&gt;Node1 -->
<g id="edge32" class="edge">
<title>Node2&#45;&gt;Node1</title>
<path fill="none" stroke="midnightblue" d="M718.04,-185.57C718.49,-194.6 718.21,-204.56 717.18,-212.4"/>
<polygon fill="midnightblue" stroke="midnightblue" points="721.53,-185.24 717.17,-175.58 714.55,-185.84 721.53,-185.24"/>
</g>
<!-- Node3 -->
<g id="node3" class="node">
<title>Node3</title>
<g id="a_node3"><a xlink:href="____adc_____8h.html" target="_top" xlink:title="Header file for adc.c.">
<polygon fill="white" stroke="black" points="92,-73 92,-103 205,-103 205,-73 92,-73"/>
<text text-anchor="start" x="100" y="-91" font-family="Helvetica,sans-Serif" font-size="10.00">swarm_bot_cpp/src/</text>
<text text-anchor="middle" x="148.5" y="-80" font-family="Helvetica,sans-Serif" font-size="10.00">__adc__.h</text>
</a>
</g>
</g>
<!-- Node2&#45;&gt;Node3 -->
<g id="edge2" class="edge">
<title>Node2&#45;&gt;Node3</title>
<path fill="none" stroke="midnightblue" d="M644.45,-156.61C547.66,-151.43 363.9,-138.25 210.5,-109 202.2,-107.42 193.46,-105.32 185.21,-103.08"/>
<polygon fill="midnightblue" stroke="midnightblue" points="644.51,-160.12 654.68,-157.14 644.87,-153.12 644.51,-160.12"/>
</g>
<!-- Node6 -->
<g id="node6" class="node">
<title>Node6</title>
<g id="a_node6"><a xlink:href="____dc__control_____8h.html" target="_top" xlink:title="Header file for dc_control.c.">
<polygon fill="white" stroke="black" points="393,-73 393,-103 506,-103 506,-73 393,-73"/>
<text text-anchor="start" x="401" y="-91" font-family="Helvetica,sans-Serif" font-size="10.00">swarm_bot_cpp/src/</text>
<text text-anchor="middle" x="449.5" y="-80" font-family="Helvetica,sans-Serif" font-size="10.00">__dc_control__.h</text>
</a>
</g>
</g>
<!-- Node2&#45;&gt;Node6 -->
<g id="edge7" class="edge">
<title>Node2&#45;&gt;Node6</title>
<path fill="none" stroke="midnightblue" d="M644.86,-145.16C604.27,-135.43 551.65,-122.01 505.5,-109 498.91,-107.14 491.97,-105.1 485.28,-103.05"/>
<polygon fill="midnightblue" stroke="midnightblue" points="644.1,-148.58 654.64,-147.49 645.73,-141.77 644.1,-148.58"/>
</g>
<!-- Node8 -->
<g id="node8" class="node">
<title>Node8</title>
<g id="a_node8"><a xlink:href="____format_____8h.html" target="_top" xlink:title="Header file for format.c.">
<polygon fill="white" stroke="black" points="524,-73 524,-103 637,-103 637,-73 524,-73"/>
<text text-anchor="start" x="532" y="-91" font-family="Helvetica,sans-Serif" font-size="10.00">swarm_bot_cpp/src/</text>
<text text-anchor="middle" x="580.5" y="-80" font-family="Helvetica,sans-Serif" font-size="10.00">__format__.h</text>
</a>
</g>
</g>
<!-- Node2&#45;&gt;Node8 -->
<g id="edge10" class="edge">
<title>Node2&#45;&gt;Node8</title>
<path fill="none" stroke="midnightblue" d="M670.86,-140.87C647.73,-129.02 619.84,-113.92 601.13,-103.07"/>
<polygon fill="midnightblue" stroke="midnightblue" points="669.28,-144 679.78,-145.4 672.45,-137.76 669.28,-144"/>
</g>
<!-- Node10 -->
<g id="node10" class="node">
<title>Node10</title>
<g id="a_node10"><a xlink:href="_____i_n_t__0__1_____8h.html" target="_top" xlink:title="Header file for INT_0_1.c.">
<polygon fill="white" stroke="black" points="655,-73 655,-103 768,-103 768,-73 655,-73"/>
<text text-anchor="start" x="663" y="-91" font-family="Helvetica,sans-Serif" font-size="10.00">swarm_bot_cpp/src/</text>
<text text-anchor="middle" x="711.5" y="-80" font-family="Helvetica,sans-Serif" font-size="10.00">__INT_0_1__.h</text>
</a>
</g>
</g>
<!-- Node2&#45;&gt;Node10 -->
<g id="edge13" class="edge">
<title>Node2&#45;&gt;Node10</title>
<path fill="none" stroke="midnightblue" d="M705.05,-135.23C704.45,-124.57 704.75,-112.41 705.95,-103.25"/>
<polygon fill="midnightblue" stroke="midnightblue" points="701.57,-135.59 705.95,-145.23 708.54,-134.96 701.57,-135.59"/>
</g>
<!-- Node12 -->
<g id="node12" class="node">
<title>Node12</title>
<g id="a_node12"><a xlink:href="____kinematics_____8h.html" target="_top" xlink:title="Header file for kimenatics.c.">
<polygon fill="white" stroke="black" points="786,-73 786,-103 899,-103 899,-73 786,-73"/>
<text text-anchor="start" x="794" y="-91" font-family="Helvetica,sans-Serif" font-size="10.00">swarm_bot_cpp/src/</text>
<text text-anchor="middle" x="842.5" y="-80" font-family="Helvetica,sans-Serif" font-size="10.00">__kinematics__.h</text>
</a>
</g>
</g>
<!-- Node2&#45;&gt;Node12 -->
<g id="edge16" class="edge">
<title>Node2&#45;&gt;Node12</title>
<path fill="none" stroke="midnightblue" d="M746.7,-140.56C768.63,-128.76 796.37,-113.83 816.35,-103.07"/>
<polygon fill="midnightblue" stroke="midnightblue" points="744.84,-137.58 737.69,-145.4 748.16,-143.75 744.84,-137.58"/>
</g>
<!-- Node14 -->
<g id="node14" class="node">
<title>Node14</title>
<g id="a_node14"><a xlink:href=".html" target="_top" xlink:title=" ">
<polygon fill="white" stroke="black" points="917.5,-6 917.5,-25 1063.5,-25 1063.5,-6 917.5,-6"/>
<text text-anchor="middle" x="990.5" y="-13" font-family="Helvetica,sans-Serif" font-size="10.00">swarm_bot_cpp/src/main.c</text>
</a>
</g>
</g>
<!-- Node2&#45;&gt;Node14 -->
<g id="edge34" class="edge">
<title>Node2&#45;&gt;Node14</title>
<path fill="none" stroke="midnightblue" d="M778.36,-144.29C830.61,-132.07 896.21,-115.85 907.5,-109 912.27,-106.1 963.59,-47.41 983.07,-25.05"/>
<polygon fill="midnightblue" stroke="midnightblue" points="777.39,-140.92 768.45,-146.6 778.98,-147.74 777.39,-140.92"/>
</g>
<!-- Node15 -->
<g id="node15" class="node">
<title>Node15</title>
<g id="a_node15"><a xlink:href="____odometry_____8h.html" target="_top" xlink:title="Header file for odometry.c.">
<polygon fill="white" stroke="black" points="956,-73 956,-103 1069,-103 1069,-73 956,-73"/>
<text text-anchor="start" x="964" y="-91" font-family="Helvetica,sans-Serif" font-size="10.00">swarm_bot_cpp/src/</text>
<text text-anchor="middle" x="1012.5" y="-80" font-family="Helvetica,sans-Serif" font-size="10.00">__odometry__.h</text>
</a>
</g>
</g>
<!-- Node2&#45;&gt;Node15 -->
<g id="edge19" class="edge">
<title>Node2&#45;&gt;Node15</title>
<path fill="none" stroke="midnightblue" d="M775.28,-143.3C842.6,-128.65 862.95,-126.37 932.5,-109 940.08,-107.11 948.08,-104.98 955.99,-102.84"/>
<polygon fill="midnightblue" stroke="midnightblue" points="774.48,-139.89 765.46,-145.45 775.97,-146.73 774.48,-139.89"/>
</g>
<!-- Node17 -->
<g id="node17" class="node">
<title>Node17</title>
<g id="a_node17"><a xlink:href="____pwm_____8h.html" target="_top" xlink:title="Header file for pwm.c.">
<polygon fill="white" stroke="black" points="1087,-73 1087,-103 1200,-103 1200,-73 1087,-73"/>
<text text-anchor="start" x="1095" y="-91" font-family="Helvetica,sans-Serif" font-size="10.00">swarm_bot_cpp/src/</text>
<text text-anchor="middle" x="1143.5" y="-80" font-family="Helvetica,sans-Serif" font-size="10.00">__pwm__.h</text>
</a>
</g>
</g>
<!-- Node2&#45;&gt;Node17 -->
<g id="edge22" class="edge">
<title>Node2&#45;&gt;Node17</title>
<path fill="none" stroke="midnightblue" d="M774.88,-143.79C902.21,-123.01 939.98,-135.94 1068.5,-109 1076.23,-107.38 1084.37,-105.26 1092.33,-103.02"/>
<polygon fill="midnightblue" stroke="midnightblue" points="774.03,-140.38 764.75,-145.48 775.19,-147.28 774.03,-140.38"/>
</g>
<!-- Node19 -->
<g id="node19" class="node">
<title>Node19</title>
<g id="a_node19"><a xlink:href="____timer0_____8h.html" target="_top" xlink:title="Header file for timer0.c.">
<polygon fill="white" stroke="black" points="1218,-73 1218,-103 1331,-103 1331,-73 1218,-73"/>
<text text-anchor="start" x="1226" y="-91" font-family="Helvetica,sans-Serif" font-size="10.00">swarm_bot_cpp/src/</text>
<text text-anchor="middle" x="1274.5" y="-80" font-family="Helvetica,sans-Serif" font-size="10.00">__timer0__.h</text>
</a>
</g>
</g>
<!-- Node2&#45;&gt;Node19 -->
<g id="edge25" class="edge">
<title>Node2&#45;&gt;Node19</title>
<path fill="none" stroke="midnightblue" d="M774.49,-143.98C960.29,-116.93 1014.23,-144.96 1200.5,-109 1208.38,-107.48 1216.66,-105.35 1224.74,-103.05"/>
<polygon fill="midnightblue" stroke="midnightblue" points="773.77,-140.55 764.39,-145.49 774.8,-147.48 773.77,-140.55"/>
</g>
<!-- Node21 -->
<g id="node21" class="node">
<title>Node21</title>
<g id="a_node21"><a xlink:href="____timer1_____8h.html" target="_top" xlink:title="Header file for timer1.c.">
<polygon fill="white" stroke="black" points="262,-73 262,-103 375,-103 375,-73 262,-73"/>
<text text-anchor="start" x="270" y="-91" font-family="Helvetica,sans-Serif" font-size="10.00">swarm_bot_cpp/src/</text>
<text text-anchor="middle" x="318.5" y="-80" font-family="Helvetica,sans-Serif" font-size="10.00">__timer1__.h</text>
</a>
</g>
</g>
<!-- Node2&#45;&gt;Node21 -->
<g id="edge28" class="edge">
<title>Node2&#45;&gt;Node21</title>
<path fill="none" stroke="midnightblue" d="M644.6,-152.89C576.04,-145.02 466.9,-130.21 374.5,-109 367.14,-107.31 359.39,-105.21 352.06,-103.02"/>
<polygon fill="midnightblue" stroke="midnightblue" points="644.5,-156.4 654.83,-154.05 645.29,-149.45 644.5,-156.4"/>
</g>
<!-- Node23 -->
<g id="node23" class="node">
<title>Node23</title>
<g id="a_node23"><a xlink:href="init_8c.html" target="_top" xlink:title="User board initialization template.">
<polygon fill="white" stroke="black" points="1349,-67.5 1349,-108.5 1504,-108.5 1504,-67.5 1349,-67.5"/>
<text text-anchor="start" x="1357" y="-96.5" font-family="Helvetica,sans-Serif" font-size="10.00">swarm_bot_cpp/src/ASF</text>
<text text-anchor="start" x="1357" y="-85.5" font-family="Helvetica,sans-Serif" font-size="10.00">/common/boards/user_board</text>
<text text-anchor="middle" x="1426.5" y="-74.5" font-family="Helvetica,sans-Serif" font-size="10.00">/init.c</text>
</a>
</g>
</g>
<!-- Node2&#45;&gt;Node23 -->
<g id="edge33" class="edge">
<title>Node2&#45;&gt;Node23</title>
<path fill="none" stroke="midnightblue" d="M778.19,-144.91C1026.96,-110.49 1095.28,-145.09 1340.5,-109 1343.23,-108.6 1346,-108.15 1348.79,-107.68"/>
<polygon fill="midnightblue" stroke="midnightblue" points="777.54,-141.46 768.12,-146.32 778.51,-148.4 777.54,-141.46"/>
</g>
<!-- Node3&#45;&gt;Node2 -->
<g id="edge6" class="edge">
<title>Node3&#45;&gt;Node2</title>
<path fill="none" stroke="midnightblue" d="M212.98,-105.62C218.22,-106.88 223.44,-108.04 228.5,-109 381.17,-138.11 563.9,-151.3 654.69,-156.53"/>
<polygon fill="midnightblue" stroke="midnightblue" points="213.45,-102.13 202.9,-103.08 211.74,-108.92 213.45,-102.13"/>
</g>
<!-- Node4 -->
<g id="node4" class="node">
<title>Node4</title>
<g id="a_node4"><a xlink:href=".html" target="_top" xlink:title=" ">
<polygon fill="white" stroke="black" points="0,-0.5 0,-30.5 113,-30.5 113,-0.5 0,-0.5"/>
<text text-anchor="start" x="8" y="-18.5" font-family="Helvetica,sans-Serif" font-size="10.00">swarm_bot_cpp/src/</text>
<text text-anchor="middle" x="56.5" y="-7.5" font-family="Helvetica,sans-Serif" font-size="10.00">__adc__.c</text>
</a>
</g>
</g>
<!-- Node3&#45;&gt;Node4 -->
<g id="edge3" class="edge">
<title>Node3&#45;&gt;Node4</title>
<path fill="none" stroke="midnightblue" d="M121.89,-66.61C106.78,-55.03 88.25,-40.83 74.78,-30.5"/>
<polygon fill="midnightblue" stroke="midnightblue" points="119.82,-69.43 129.88,-72.73 124.07,-63.87 119.82,-69.43"/>
</g>
<!-- Node5 -->
<g id="node5" class="node">
<title>Node5</title>
<g id="a_node5"><a xlink:href=".html" target="_top" xlink:title=" ">
<polygon fill="white" stroke="black" points="131,-0.5 131,-30.5 244,-30.5 244,-0.5 131,-0.5"/>
<text text-anchor="start" x="139" y="-18.5" font-family="Helvetica,sans-Serif" font-size="10.00">swarm_bot_cpp/src/</text>
<text text-anchor="middle" x="187.5" y="-7.5" font-family="Helvetica,sans-Serif" font-size="10.00">__pin_map.h</text>
</a>
</g>
</g>
<!-- Node3&#45;&gt;Node5 -->
<g id="edge4" class="edge">
<title>Node3&#45;&gt;Node5</title>
<path fill="none" stroke="midnightblue" d="M161.37,-63.73C167.4,-52.83 174.39,-40.2 179.62,-30.75"/>
<polygon fill="midnightblue" stroke="midnightblue" points="158.17,-62.29 156.39,-72.73 164.3,-65.68 158.17,-62.29"/>
</g>
<!-- Node5&#45;&gt;Node2 -->
<g id="edge5" class="edge">
<title>Node5&#45;&gt;Node2</title>
<path fill="none" stroke="midnightblue" d="M200.57,-39.37C215.11,-63.97 238.42,-100.67 252.5,-109 319.27,-148.47 547.34,-157.13 654.72,-159"/>
<polygon fill="midnightblue" stroke="midnightblue" points="203.53,-37.5 195.46,-30.62 197.48,-41.03 203.53,-37.5"/>
</g>
<!-- Node6&#45;&gt;Node2 -->
<g id="edge9" class="edge">
<title>Node6&#45;&gt;Node2</title>
<path fill="none" stroke="midnightblue" d="M512.76,-105.91C516.4,-106.97 520,-108.01 523.5,-109 570.06,-122.12 623.2,-135.66 661.17,-145.41"/>
<polygon fill="midnightblue" stroke="midnightblue" points="513.65,-102.52 503.07,-103.05 511.67,-109.24 513.65,-102.52"/>
</g>
<!-- Node7 -->
<g id="node7" class="node">
<title>Node7</title>
<g id="a_node7"><a xlink:href="____dc__control_____8c.html" target="_top" xlink:title="Header file for dc_control.c.">
<polygon fill="white" stroke="black" points="393,-0.5 393,-30.5 506,-30.5 506,-0.5 393,-0.5"/>
<text text-anchor="start" x="401" y="-18.5" font-family="Helvetica,sans-Serif" font-size="10.00">swarm_bot_cpp/src/</text>
<text text-anchor="middle" x="449.5" y="-7.5" font-family="Helvetica,sans-Serif" font-size="10.00">__dc_control__.c</text>
</a>
</g>
</g>
<!-- Node6&#45;&gt;Node7 -->
<g id="edge8" class="edge">
<title>Node6&#45;&gt;Node7</title>
<path fill="none" stroke="midnightblue" d="M449.5,-62.73C449.5,-52.07 449.5,-39.91 449.5,-30.75"/>
<polygon fill="midnightblue" stroke="midnightblue" points="446,-62.73 449.5,-72.73 453,-62.73 446,-62.73"/>
</g>
<!-- Node8&#45;&gt;Node2 -->
<g id="edge12" class="edge">
<title>Node8&#45;&gt;Node2</title>
<path fill="none" stroke="midnightblue" d="M621.09,-107.6C644.21,-119.45 672.1,-134.55 690.83,-145.4"/>
<polygon fill="midnightblue" stroke="midnightblue" points="622.67,-104.48 612.17,-103.07 619.51,-110.72 622.67,-104.48"/>
</g>
<!-- Node9 -->
<g id="node9" class="node">
<title>Node9</title>
<g id="a_node9"><a xlink:href="____format_____8c.html" target="_top" xlink:title="Header file for format.c.">
<polygon fill="white" stroke="black" points="524,-0.5 524,-30.5 637,-30.5 637,-0.5 524,-0.5"/>
<text text-anchor="start" x="532" y="-18.5" font-family="Helvetica,sans-Serif" font-size="10.00">swarm_bot_cpp/src/</text>
<text text-anchor="middle" x="580.5" y="-7.5" font-family="Helvetica,sans-Serif" font-size="10.00">__format__.c</text>
</a>
</g>
</g>
<!-- Node8&#45;&gt;Node9 -->
<g id="edge11" class="edge">
<title>Node8&#45;&gt;Node9</title>
<path fill="none" stroke="midnightblue" d="M580.5,-62.73C580.5,-52.07 580.5,-39.91 580.5,-30.75"/>
<polygon fill="midnightblue" stroke="midnightblue" points="577,-62.73 580.5,-72.73 584,-62.73 577,-62.73"/>
</g>
<!-- Node10&#45;&gt;Node2 -->
<g id="edge15" class="edge">
<title>Node10&#45;&gt;Node2</title>
<path fill="none" stroke="midnightblue" d="M717.95,-113.24C718.55,-123.91 718.25,-136.06 717.05,-145.23"/>
<polygon fill="midnightblue" stroke="midnightblue" points="721.43,-112.89 717.05,-103.25 714.46,-113.52 721.43,-112.89"/>
</g>
<!-- Node11 -->
<g id="node11" class="node">
<title>Node11</title>
<g id="a_node11"><a xlink:href=".html" target="_top" xlink:title=" ">
<polygon fill="white" stroke="black" points="655,-0.5 655,-30.5 768,-30.5 768,-0.5 655,-0.5"/>
<text text-anchor="start" x="663" y="-18.5" font-family="Helvetica,sans-Serif" font-size="10.00">swarm_bot_cpp/src/</text>
<text text-anchor="middle" x="711.5" y="-7.5" font-family="Helvetica,sans-Serif" font-size="10.00">__INT_0_1__.c</text>
</a>
</g>
</g>
<!-- Node10&#45;&gt;Node11 -->
<g id="edge14" class="edge">
<title>Node10&#45;&gt;Node11</title>
<path fill="none" stroke="midnightblue" d="M711.5,-62.73C711.5,-52.07 711.5,-39.91 711.5,-30.75"/>
<polygon fill="midnightblue" stroke="midnightblue" points="708,-62.73 711.5,-72.73 715,-62.73 708,-62.73"/>
</g>
<!-- Node13 -->
<g id="node13" class="node">
<title>Node13</title>
<g id="a_node13"><a xlink:href=".html" target="_top" xlink:title=" ">
<polygon fill="white" stroke="black" points="786,-0.5 786,-30.5 899,-30.5 899,-0.5 786,-0.5"/>
<text text-anchor="start" x="794" y="-18.5" font-family="Helvetica,sans-Serif" font-size="10.00">swarm_bot_cpp/src/</text>
<text text-anchor="middle" x="842.5" y="-7.5" font-family="Helvetica,sans-Serif" font-size="10.00">__kinematics__.c</text>
</a>
</g>
</g>
<!-- Node12&#45;&gt;Node13 -->
<g id="edge17" class="edge">
<title>Node12&#45;&gt;Node13</title>
<path fill="none" stroke="midnightblue" d="M842.5,-62.73C842.5,-52.07 842.5,-39.91 842.5,-30.75"/>
<polygon fill="midnightblue" stroke="midnightblue" points="839,-62.73 842.5,-72.73 846,-62.73 839,-62.73"/>
</g>
<!-- Node12&#45;&gt;Node14 -->
<g id="edge18" class="edge">
<title>Node12&#45;&gt;Node14</title>
<path fill="none" stroke="midnightblue" d="M881.3,-68.52C910.82,-54.46 950.07,-35.76 972.59,-25.03"/>
<polygon fill="midnightblue" stroke="midnightblue" points="879.62,-65.44 872.09,-72.9 882.63,-71.76 879.62,-65.44"/>
</g>
<!-- Node15&#45;&gt;Node2 -->
<g id="edge21" class="edge">
<title>Node15&#45;&gt;Node2</title>
<path fill="none" stroke="midnightblue" d="M963.12,-105.74C958.87,-106.87 954.62,-107.97 950.5,-109 877.68,-127.18 858.8,-128.83 785.5,-145 779.97,-146.22 774.17,-147.51 768.35,-148.78"/>
<polygon fill="midnightblue" stroke="midnightblue" points="964.26,-109.06 972.99,-103.05 962.42,-102.3 964.26,-109.06"/>
</g>
<!-- Node16 -->
<g id="node16" class="node">
<title>Node16</title>
<g id="a_node16"><a xlink:href=".html" target="_top" xlink:title=" ">
<polygon fill="white" stroke="black" points="1082,-0.5 1082,-30.5 1195,-30.5 1195,-0.5 1082,-0.5"/>
<text text-anchor="start" x="1090" y="-18.5" font-family="Helvetica,sans-Serif" font-size="10.00">swarm_bot_cpp/src/</text>
<text text-anchor="middle" x="1138.5" y="-7.5" font-family="Helvetica,sans-Serif" font-size="10.00">__odometry__.c</text>
</a>
</g>
</g>
<!-- Node15&#45;&gt;Node16 -->
<g id="edge20" class="edge">
<title>Node15&#45;&gt;Node16</title>
<path fill="none" stroke="midnightblue" d="M1046.64,-67.9C1067.69,-56.12 1094.22,-41.28 1113.35,-30.57"/>
<polygon fill="midnightblue" stroke="midnightblue" points="1044.71,-64.97 1037.7,-72.9 1048.13,-71.07 1044.71,-64.97"/>
</g>
<!-- Node17&#45;&gt;Node2 -->
<g id="edge24" class="edge">
<title>Node17&#45;&gt;Node2</title>
<path fill="none" stroke="midnightblue" d="M1100.14,-105.76C1095.58,-106.96 1090.97,-108.06 1086.5,-109 954.63,-136.64 918.31,-122.3 785.5,-145 779.92,-145.95 774.09,-147.07 768.25,-148.26"/>
<polygon fill="midnightblue" stroke="midnightblue" points="1101.33,-109.07 1110.02,-103.02 1099.45,-102.32 1101.33,-109.07"/>
</g>
<!-- Node18 -->
<g id="node18" class="node">
<title>Node18</title>
<g id="a_node18"><a xlink:href=".html" target="_top" xlink:title=" ">
<polygon fill="white" stroke="black" points="1213,-0.5 1213,-30.5 1326,-30.5 1326,-0.5 1213,-0.5"/>
<text text-anchor="start" x="1221" y="-18.5" font-family="Helvetica,sans-Serif" font-size="10.00">swarm_bot_cpp/src/</text>
<text text-anchor="middle" x="1269.5" y="-7.5" font-family="Helvetica,sans-Serif" font-size="10.00">__pwm__.c</text>
</a>
</g>
</g>
<!-- Node17&#45;&gt;Node18 -->
<g id="edge23" class="edge">
<title>Node17&#45;&gt;Node18</title>
<path fill="none" stroke="midnightblue" d="M1177.64,-67.9C1198.69,-56.12 1225.22,-41.28 1244.35,-30.57"/>
<polygon fill="midnightblue" stroke="midnightblue" points="1175.71,-64.97 1168.7,-72.9 1179.13,-71.07 1175.71,-64.97"/>
</g>
<!-- Node19&#45;&gt;Node2 -->
<g id="edge26" class="edge">
<title>Node19&#45;&gt;Node2</title>
<path fill="none" stroke="midnightblue" d="M1232.77,-105.74C1228,-106.98 1223.18,-108.1 1218.5,-109 1028.89,-145.61 976.4,-115.91 785.5,-145 779.9,-145.85 774.06,-146.91 768.22,-148.06"/>
<polygon fill="midnightblue" stroke="midnightblue" points="1233.71,-109.11 1242.41,-103.05 1231.84,-102.37 1233.71,-109.11"/>
</g>
<!-- Node20 -->
<g id="node20" class="node">
<title>Node20</title>
<g id="a_node20"><a xlink:href=".html" target="_top" xlink:title=" ">
<polygon fill="white" stroke="black" points="1344,-0.5 1344,-30.5 1457,-30.5 1457,-0.5 1344,-0.5"/>
<text text-anchor="start" x="1352" y="-18.5" font-family="Helvetica,sans-Serif" font-size="10.00">swarm_bot_cpp/src/</text>
<text text-anchor="middle" x="1400.5" y="-7.5" font-family="Helvetica,sans-Serif" font-size="10.00">__timer0__.c</text>
</a>
</g>
</g>
<!-- Node19&#45;&gt;Node20 -->
<g id="edge27" class="edge">
<title>Node19&#45;&gt;Node20</title>
<path fill="none" stroke="midnightblue" d="M1308.64,-67.9C1329.69,-56.12 1356.22,-41.28 1375.35,-30.57"/>
<polygon fill="midnightblue" stroke="midnightblue" points="1306.71,-64.97 1299.7,-72.9 1310.13,-71.07 1306.71,-64.97"/>
</g>
<!-- Node21&#45;&gt;Node2 -->
<g id="edge30" class="edge">
<title>Node21&#45;&gt;Node2</title>
<path fill="none" stroke="midnightblue" d="M379.44,-105.72C383.86,-106.91 388.24,-108.02 392.5,-109 483.47,-129.88 590.66,-144.56 654.82,-152.52"/>
<polygon fill="midnightblue" stroke="midnightblue" points="380.35,-102.34 369.77,-103.02 378.47,-109.08 380.35,-102.34"/>
</g>
<!-- Node21&#45;&gt;Node5 -->
<g id="edge29" class="edge">
<title>Node21&#45;&gt;Node5</title>
<path fill="none" stroke="midnightblue" d="M283.3,-68.06C261.37,-56.26 233.63,-41.33 213.65,-30.57"/>
<polygon fill="midnightblue" stroke="midnightblue" points="281.84,-71.25 292.31,-72.9 285.16,-65.08 281.84,-71.25"/>
</g>
<!-- Node22 -->
<g id="node22" class="node">
<title>Node22</title>
<g id="a_node22"><a xlink:href=".html" target="_top" xlink:title=" ">
<polygon fill="white" stroke="black" points="262,-0.5 262,-30.5 375,-30.5 375,-0.5 262,-0.5"/>
<text text-anchor="start" x="270" y="-18.5" font-family="Helvetica,sans-Serif" font-size="10.00">swarm_bot_cpp/src/</text>
<text text-anchor="middle" x="318.5" y="-7.5" font-family="Helvetica,sans-Serif" font-size="10.00">__timer1__.c</text>
</a>
</g>
</g>
<!-- Node21&#45;&gt;Node22 -->
<g id="edge31" class="edge">
<title>Node21&#45;&gt;Node22</title>
<path fill="none" stroke="midnightblue" d="M318.5,-62.73C318.5,-52.07 318.5,-39.91 318.5,-30.75"/>
<polygon fill="midnightblue" stroke="midnightblue" points="315,-62.73 318.5,-72.73 322,-62.73 315,-62.73"/>
</g>
</g>
</svg>
        <g id="navigator" transform="translate(0 0)" fill="#404254">
                <rect fill="#f2f5e9" fill-opacity="0.5" stroke="#606060" stroke-width=".5" x="0" y="0" width="60" height="60"/>
                <use id="zoomplus" xlink:href="#zoomPlus" x="17" y="9" onmousedown="handleZoom(evt,'in')"/>
                <use id="zoomminus" xlink:href="#zoomMin" x="42" y="9" onmousedown="handleZoom(evt,'out')"/>
                <use id="reset" xlink:href="#resetDef" x="30" y="36" onmousedown="handleReset()"/>
                <g id="arrowUp" xlink:href="#dirArrow" transform="translate(30 24)" onmousedown="handlePan(0,-1)">
                  <use xlink:href="#rim" fill="#404040">
                        <set attributeName="fill" to="#808080" begin="arrowUp.mouseover" end="arrowUp.mouseout"/>
                  </use>
                  <path fill="none" stroke="white" stroke-width="1.5" d="M0,-3.0v7 M-2.5,-0.5L0,-3.0L2.5,-0.5"/>
                </g>
                <g id="arrowRight" xlink:href="#dirArrow" transform="rotate(90) translate(36 -43)" onmousedown="handlePan(1,0)">
                  <use xlink:href="#rim" fill="#404040">
                        <set attributeName="fill" to="#808080" begin="arrowRight.mouseover" end="arrowRight.mouseout"/>
                  </use>
                  <path fill="none" stroke="white" stroke-width="1.5" d="M0,-3.0v7 M-2.5,-0.5L0,-3.0L2.5,-0.5"/>
                </g>
                <g id="arrowDown" xlink:href="#dirArrow" transform="rotate(180) translate(-30 -48)" onmousedown="handlePan(0,1)">
                  <use xlink:href="#rim" fill="#404040">
                        <set attributeName="fill" to="#808080" begin="arrowDown.mouseover" end="arrowDown.mouseout"/>
                  </use>
                  <path fill="none" stroke="white" stroke-width="1.5" d="M0,-3.0v7 M-2.5,-0.5L0,-3.0L2.5,-0.5"/>
                </g>
                <g id="arrowLeft" xlink:href="#dirArrow" transform="rotate(270) translate(-36 17)" onmousedown="handlePan(-1,0)">
                  <use xlink:href="#rim" fill="#404040">
                        <set attributeName="fill" to="#808080" begin="arrowLeft.mouseover" end="arrowLeft.mouseout"/>
                  </use>
                  <path fill="none" stroke="white" stroke-width="1.5" d="M0,-3.0v7 M-2.5,-0.5L0,-3.0L2.5,-0.5"/>
                </g>
        </g>
        <svg viewBox="0 0 15 15" width="100%" height="30px" preserveAspectRatio="xMaxYMin meet">
         <g id="arrow_out" transform="scale(0.3 0.3)">
          <a xlink:href="____timer2_____8h__dep__incl_org.svg" target="_base">
           <rect id="button" ry="5" rx="5" y="6" x="6" height="38" width="38"
                fill="#f2f5e9" fill-opacity="0.5" stroke="#606060" stroke-width="1.0"/>
           <path id="arrow"
             d="M 11.500037,31.436501 C 11.940474,20.09759 22.043105,11.32322 32.158766,21.979434 L 37.068811,17.246167 C 37.068811,17.246167 37.088388,32 37.088388,32 L 22.160133,31.978069 C 22.160133,31.978069 26.997745,27.140456 26.997745,27.140456 C 18.528582,18.264221 13.291696,25.230495 11.500037,31.436501 z"
             style="fill:#404040;"/>
          </a>
         </g>
        </svg>
</svg>
