<?xml version="1.0" encoding="UTF-8" standalone="no"?>
<!DOCTYPE svg PUBLIC "-//W3C//DTD SVG 1.1//EN"
 "http://www.w3.org/Graphics/SVG/1.1/DTD/svg11.dtd">
<!-- Generated by graphviz version 2.43.0 (0)
 -->
<!-- Title: swarm_bot_cpp/src/__timer0__.h Pages: 1 -->
<svg width="1448pt" height="431pt"
 viewBox="0.00 0.00 1448.00 431.00" xmlns="http://www.w3.org/2000/svg" xmlns:xlink="http://www.w3.org/1999/xlink">
<g id="graph0" class="graph" transform="scale(1 1) rotate(0) translate(4 427)">
<title>swarm_bot_cpp/src/__timer0__.h</title>
<polygon fill="white" stroke="transparent" points="-4,4 -4,-427 1444,-427 1444,4 -4,4"/>
<!-- Node1 -->
<g id="node1" class="node">
<title>Node1</title>
<g id="a_node1"><a xlink:title="Header file for timer0.c.">
<polygon fill="#bfbfbf" stroke="black" points="718.5,-392.5 718.5,-422.5 831.5,-422.5 831.5,-392.5 718.5,-392.5"/>
<text text-anchor="start" x="726.5" y="-410.5" font-family="Helvetica,sans-Serif" font-size="10.00">swarm_bot_cpp/src/</text>
<text text-anchor="middle" x="775" y="-399.5" font-family="Helvetica,sans-Serif" font-size="10.00">__timer0__.h</text>
</a>
</g>
</g>
<!-- Node2 -->
<g id="node2" class="node">
<title>Node2</title>
<g id="a_node2"><a xlink:href="____swarm__wold_____8h.html" target="_top" xlink:title="Header file for dummy purposes.">
<polygon fill="white" stroke="black" points="721,-336.5 721,-355.5 829,-355.5 829,-336.5 721,-336.5"/>
<text text-anchor="middle" x="775" y="-343.5" font-family="Helvetica,sans-Serif" font-size="10.00">__swarm_wold__.h</text>
</a>
</g>
</g>
<!-- Node1&#45;&gt;Node2 -->
<g id="edge1" class="edge">
<title>Node1&#45;&gt;Node2</title>
<path fill="none" stroke="midnightblue" d="M769.16,-392.4C768.13,-384.38 767.97,-374.23 768.69,-365.57"/>
<polygon fill="midnightblue" stroke="midnightblue" points="772.16,-366.04 770.07,-355.66 765.23,-365.08 772.16,-366.04"/>
</g>
<!-- Node2&#45;&gt;Node1 -->
<g id="edge37" class="edge">
<title>Node2&#45;&gt;Node1</title>
<path fill="none" stroke="midnightblue" d="M779.93,-355.66C781.43,-362.65 782.01,-372.86 781.64,-382.29"/>
<polygon fill="midnightblue" stroke="midnightblue" points="778.14,-382.15 780.84,-392.4 785.12,-382.71 778.14,-382.15"/>
</g>
<!-- Node3 -->
<g id="node3" class="node">
<title>Node3</title>
<g id="a_node3"><a xlink:title=" ">
<polygon fill="white" stroke="#bfbfbf" points="98,-224.5 98,-243.5 148,-243.5 148,-224.5 98,-224.5"/>
<text text-anchor="middle" x="123" y="-231.5" font-family="Helvetica,sans-Serif" font-size="10.00">stdio.h</text>
</a>
</g>
</g>
<!-- Node2&#45;&gt;Node3 -->
<g id="edge2" class="edge">
<title>Node2&#45;&gt;Node3</title>
<path fill="none" stroke="midnightblue" d="M720.84,-343.2C583.42,-338.32 228.69,-323.57 181,-300 159.89,-289.57 143,-267.79 133.01,-252.31"/>
<polygon fill="midnightblue" stroke="midnightblue" points="135.92,-250.35 127.71,-243.66 129.95,-254.01 135.92,-250.35"/>
</g>
<!-- Node4 -->
<g id="node4" class="node">
<title>Node4</title>
<g id="a_node4"><a xlink:href="asf_8h.html" target="_top" xlink:title="Autogenerated API include file for the Atmel Software Framework (ASF)">
<polygon fill="white" stroke="black" points="166,-224.5 166,-243.5 206,-243.5 206,-224.5 166,-224.5"/>
<text text-anchor="middle" x="186" y="-231.5" font-family="Helvetica,sans-Serif" font-size="10.00">asf.h</text>
</a>
</g>
</g>
<!-- Node2&#45;&gt;Node4 -->
<g id="edge3" class="edge">
<title>Node2&#45;&gt;Node4</title>
<path fill="none" stroke="midnightblue" d="M720.6,-344.59C583.65,-343.03 232.78,-335.57 195,-300 182.71,-288.42 181.63,-268.46 182.91,-253.71"/>
<polygon fill="midnightblue" stroke="midnightblue" points="186.39,-254.03 184.19,-243.66 179.45,-253.14 186.39,-254.03"/>
</g>
<!-- Node6 -->
<g id="node6" class="node">
<title>Node6</title>
<g id="a_node6"><a xlink:href="conf__board_8h.html" target="_top" xlink:title="User board configuration template.">
<polygon fill="white" stroke="black" points="0,-112.5 0,-131.5 80,-131.5 80,-112.5 0,-112.5"/>
<text text-anchor="middle" x="40" y="-119.5" font-family="Helvetica,sans-Serif" font-size="10.00">conf_board.h</text>
</a>
</g>
</g>
<!-- Node2&#45;&gt;Node6 -->
<g id="edge19" class="edge">
<title>Node2&#45;&gt;Node6</title>
<path fill="none" stroke="midnightblue" d="M720.88,-344.08C589.57,-341.38 257.06,-331.55 151,-300 76.93,-277.97 37.83,-262.69 18,-188 13.66,-171.67 20.89,-153.48 28.19,-140.5"/>
<polygon fill="midnightblue" stroke="midnightblue" points="31.34,-142.07 33.6,-131.72 25.38,-138.4 31.34,-142.07"/>
</g>
<!-- Node7 -->
<g id="node7" class="node">
<title>Node7</title>
<g id="a_node7"><a xlink:href="board_8h.html" target="_top" xlink:title="Standard board header file.">
<polygon fill="white" stroke="black" points="354.5,-168.5 354.5,-187.5 407.5,-187.5 407.5,-168.5 354.5,-168.5"/>
<text text-anchor="middle" x="381" y="-175.5" font-family="Helvetica,sans-Serif" font-size="10.00">board.h</text>
</a>
</g>
</g>
<!-- Node2&#45;&gt;Node7 -->
<g id="edge18" class="edge">
<title>Node2&#45;&gt;Node7</title>
<path fill="none" stroke="midnightblue" d="M720.94,-342.19C621.96,-336.53 419.64,-322.34 397,-300 369.82,-273.17 372.98,-224.13 377.23,-197.47"/>
<polygon fill="midnightblue" stroke="midnightblue" points="380.69,-198 379.04,-187.53 373.81,-196.75 380.69,-198"/>
</g>
<!-- Node10 -->
<g id="node9" class="node">
<title>Node10</title>
<g id="a_node9"><a xlink:title=" ">
<polygon fill="white" stroke="#bfbfbf" points="787.5,-56.5 787.5,-75.5 840.5,-75.5 840.5,-56.5 787.5,-56.5"/>
<text text-anchor="middle" x="814" y="-63.5" font-family="Helvetica,sans-Serif" font-size="10.00">stdint.h</text>
</a>
</g>
</g>
<!-- Node2&#45;&gt;Node10 -->
<g id="edge21" class="edge">
<title>Node2&#45;&gt;Node10</title>
<path fill="none" stroke="midnightblue" d="M779.71,-336.43C784.62,-327.41 792.51,-312.79 799,-300 811.5,-275.36 817.15,-270.18 826,-244 842.27,-195.86 843.86,-182.56 849,-132 849.9,-123.16 851.88,-120.41 849,-112 845.28,-101.16 837.77,-90.92 830.65,-82.96"/>
<polygon fill="midnightblue" stroke="midnightblue" points="833,-80.35 823.56,-75.55 827.95,-85.19 833,-80.35"/>
</g>
<!-- Node17 -->
<g id="node13" class="node">
<title>Node17</title>
<g id="a_node13"><a xlink:title=" ">
<polygon fill="white" stroke="#bfbfbf" points="464.5,-224.5 464.5,-243.5 517.5,-243.5 517.5,-224.5 464.5,-224.5"/>
<text text-anchor="middle" x="491" y="-231.5" font-family="Helvetica,sans-Serif" font-size="10.00">avr/io.h</text>
</a>
</g>
</g>
<!-- Node2&#45;&gt;Node17 -->
<g id="edge16" class="edge">
<title>Node2&#45;&gt;Node17</title>
<path fill="none" stroke="midnightblue" d="M752.15,-336.47C728.17,-327.48 689.38,-312.89 656,-300 609.15,-281.91 555.01,-260.48 521.89,-247.32"/>
<polygon fill="midnightblue" stroke="midnightblue" points="522.91,-243.95 512.32,-243.51 520.32,-250.46 522.91,-243.95"/>
</g>
<!-- Node18 -->
<g id="node14" class="node">
<title>Node18</title>
<g id="a_node14"><a xlink:title=" ">
<polygon fill="white" stroke="#bfbfbf" points="536,-224.5 536,-243.5 622,-243.5 622,-224.5 536,-224.5"/>
<text text-anchor="middle" x="579" y="-231.5" font-family="Helvetica,sans-Serif" font-size="10.00">avr/interrupt.h</text>
</a>
</g>
</g>
<!-- Node2&#45;&gt;Node18 -->
<g id="edge17" class="edge">
<title>Node2&#45;&gt;Node18</title>
<path fill="none" stroke="midnightblue" d="M759.62,-336.37C725.63,-317.29 643.9,-271.42 603.06,-248.51"/>
<polygon fill="midnightblue" stroke="midnightblue" points="604.74,-245.43 594.31,-243.59 601.32,-251.54 604.74,-245.43"/>
</g>
<!-- Node19 -->
<g id="node15" class="node">
<title>Node19</title>
<g id="a_node15"><a xlink:title=" ">
<polygon fill="white" stroke="#bfbfbf" points="262,-224.5 262,-243.5 332,-243.5 332,-224.5 262,-224.5"/>
<text text-anchor="middle" x="297" y="-231.5" font-family="Helvetica,sans-Serif" font-size="10.00">util/delay.h</text>
</a>
</g>
</g>
<!-- Node2&#45;&gt;Node19 -->
<g id="edge20" class="edge">
<title>Node2&#45;&gt;Node19</title>
<path fill="none" stroke="midnightblue" d="M720.88,-344.62C620.24,-343.07 408.82,-335.53 346,-300 327.03,-289.27 313.13,-267.88 305.08,-252.57"/>
<polygon fill="midnightblue" stroke="midnightblue" points="308.2,-250.98 300.64,-243.55 301.92,-254.07 308.2,-250.98"/>
</g>
<!-- Node20 -->
<g id="node16" class="node">
<title>Node20</title>
<g id="a_node16"><a xlink:href="____adc_____8h.html" target="_top" xlink:title="Header file for adc.c.">
<polygon fill="white" stroke="black" points="640,-224.5 640,-243.5 704,-243.5 704,-224.5 640,-224.5"/>
<text text-anchor="middle" x="672" y="-231.5" font-family="Helvetica,sans-Serif" font-size="10.00">__adc__.h</text>
</a>
</g>
</g>
<!-- Node2&#45;&gt;Node20 -->
<g id="edge22" class="edge">
<title>Node2&#45;&gt;Node20</title>
<path fill="none" stroke="midnightblue" d="M763.07,-336.37C742.56,-318.14 702.18,-275.43 682.61,-251.68"/>
<polygon fill="midnightblue" stroke="midnightblue" points="685.16,-249.26 676.21,-243.59 679.67,-253.6 685.16,-249.26"/>
</g>
<!-- Node21 -->
<g id="node17" class="node">
<title>Node21</title>
<g id="a_node17"><a xlink:href="_____i_n_t__0__1_____8h.html" target="_top" xlink:title="Header file for INT_0_1.c.">
<polygon fill="white" stroke="black" points="841,-280.5 841,-299.5 927,-299.5 927,-280.5 841,-280.5"/>
<text text-anchor="middle" x="884" y="-287.5" font-family="Helvetica,sans-Serif" font-size="10.00">__INT_0_1__.h</text>
</a>
</g>
</g>
<!-- Node2&#45;&gt;Node21 -->
<g id="edge24" class="edge">
<title>Node2&#45;&gt;Node21</title>
<path fill="none" stroke="midnightblue" d="M787.4,-336.32C803.22,-327.55 830.57,-313.88 852.23,-303.84"/>
<polygon fill="midnightblue" stroke="midnightblue" points="853.77,-306.99 861.42,-299.65 850.87,-300.62 853.77,-306.99"/>
</g>
<!-- Node22 -->
<g id="node18" class="node">
<title>Node22</title>
<g id="a_node18"><a xlink:href=".html" target="_top" xlink:title=" ">
<polygon fill="white" stroke="black" points="406,-280.5 406,-299.5 484,-299.5 484,-280.5 406,-280.5"/>
<text text-anchor="middle" x="445" y="-287.5" font-family="Helvetica,sans-Serif" font-size="10.00">__pin_map.h</text>
</a>
</g>
</g>
<!-- Node2&#45;&gt;Node22 -->
<g id="edge26" class="edge">
<title>Node2&#45;&gt;Node22</title>
<path fill="none" stroke="midnightblue" d="M722.71,-336.44C660,-326.18 555.69,-309.11 494.33,-299.07"/>
<polygon fill="midnightblue" stroke="midnightblue" points="494.56,-295.56 484.13,-297.4 493.43,-302.47 494.56,-295.56"/>
</g>
<!-- Node23 -->
<g id="node19" class="node">
<title>Node23</title>
<g id="a_node19"><a xlink:href="____timer1_____8h.html" target="_top" xlink:title="Header file for timer1.c.">
<polygon fill="white" stroke="black" points="722.5,-224.5 722.5,-243.5 801.5,-243.5 801.5,-224.5 722.5,-224.5"/>
<text text-anchor="middle" x="762" y="-231.5" font-family="Helvetica,sans-Serif" font-size="10.00">__timer1__.h</text>
</a>
</g>
</g>
<!-- Node2&#45;&gt;Node23 -->
<g id="edge38" class="edge">
<title>Node2&#45;&gt;Node23</title>
<path fill="none" stroke="midnightblue" d="M764.6,-336.22C758.94,-327.28 753.97,-312.94 752,-300 749.67,-284.64 750.13,-267 752.46,-253.98"/>
<polygon fill="midnightblue" stroke="midnightblue" points="755.95,-254.44 754.96,-243.89 749.16,-252.76 755.95,-254.44"/>
</g>
<!-- Node24 -->
<g id="node20" class="node">
<title>Node24</title>
<g id="a_node20"><a xlink:href="____timer2_____8h.html" target="_top" xlink:title="Header file for timer2.c.">
<polygon fill="white" stroke="black" points="945.5,-280.5 945.5,-299.5 1024.5,-299.5 1024.5,-280.5 945.5,-280.5"/>
<text text-anchor="middle" x="985" y="-287.5" font-family="Helvetica,sans-Serif" font-size="10.00">__timer2__.h</text>
</a>
</g>
</g>
<!-- Node2&#45;&gt;Node24 -->
<g id="edge39" class="edge">
<title>Node2&#45;&gt;Node24</title>
<path fill="none" stroke="midnightblue" d="M803.19,-336.44C837.46,-327.1 895.58,-312.12 936.94,-301.93"/>
<polygon fill="midnightblue" stroke="midnightblue" points="937.92,-305.29 946.8,-299.52 936.26,-298.5 937.92,-305.29"/>
</g>
<!-- Node25 -->
<g id="node21" class="node">
<title>Node25</title>
<g id="a_node21"><a xlink:href="____usart_____8h.html" target="_top" xlink:title="Header file for pid.c.">
<polygon fill="white" stroke="black" points="204.5,-280.5 204.5,-299.5 275.5,-299.5 275.5,-280.5 204.5,-280.5"/>
<text text-anchor="middle" x="240" y="-287.5" font-family="Helvetica,sans-Serif" font-size="10.00">__usart__.h</text>
</a>
</g>
</g>
<!-- Node2&#45;&gt;Node25 -->
<g id="edge41" class="edge">
<title>Node2&#45;&gt;Node25</title>
<path fill="none" stroke="midnightblue" d="M721,-341.09C632.16,-334.4 449.7,-319.55 296,-300 292.73,-299.58 289.35,-299.12 285.96,-298.63"/>
<polygon fill="midnightblue" stroke="midnightblue" points="286.21,-295.13 275.8,-297.11 285.17,-302.06 286.21,-295.13"/>
</g>
<!-- Node26 -->
<g id="node22" class="node">
<title>Node26</title>
<g id="a_node22"><a xlink:href="____dc__control_____8h.html" target="_top" xlink:title="Header file for dc_control.c.">
<polygon fill="white" stroke="black" points="1042.5,-280.5 1042.5,-299.5 1139.5,-299.5 1139.5,-280.5 1042.5,-280.5"/>
<text text-anchor="middle" x="1091" y="-287.5" font-family="Helvetica,sans-Serif" font-size="10.00">__dc_control__.h</text>
</a>
</g>
</g>
<!-- Node2&#45;&gt;Node26 -->
<g id="edge47" class="edge">
<title>Node2&#45;&gt;Node26</title>
<path fill="none" stroke="midnightblue" d="M819.98,-336.44C875.84,-326.53 971.03,-310.25 1032.49,-300.11"/>
<polygon fill="midnightblue" stroke="midnightblue" points="1033.13,-303.55 1042.43,-298.47 1032,-296.64 1033.13,-303.55"/>
</g>
<!-- Node27 -->
<g id="node23" class="node">
<title>Node27</title>
<g id="a_node23"><a xlink:href="____odometry_____8h.html" target="_top" xlink:title="Header file for odometry.c.">
<polygon fill="white" stroke="black" points="1158,-280.5 1158,-299.5 1252,-299.5 1252,-280.5 1158,-280.5"/>
<text text-anchor="middle" x="1205" y="-287.5" font-family="Helvetica,sans-Serif" font-size="10.00">__odometry__.h</text>
</a>
</g>
</g>
<!-- Node2&#45;&gt;Node27 -->
<g id="edge49" class="edge">
<title>Node2&#45;&gt;Node27</title>
<path fill="none" stroke="midnightblue" d="M829.31,-338.45C900.72,-330.28 1029.74,-315.49 1140,-300 1142.61,-299.63 1145.28,-299.25 1147.99,-298.84"/>
<polygon fill="midnightblue" stroke="midnightblue" points="1148.52,-302.3 1157.88,-297.35 1147.47,-295.38 1148.52,-302.3"/>
</g>
<!-- Node28 -->
<g id="node24" class="node">
<title>Node28</title>
<g id="a_node24"><a xlink:href="____pwm_____8h.html" target="_top" xlink:title="Header file for pwm.c.">
<polygon fill="white" stroke="black" points="1270.5,-280.5 1270.5,-299.5 1341.5,-299.5 1341.5,-280.5 1270.5,-280.5"/>
<text text-anchor="middle" x="1306" y="-287.5" font-family="Helvetica,sans-Serif" font-size="10.00">__pwm__.h</text>
</a>
</g>
</g>
<!-- Node2&#45;&gt;Node28 -->
<g id="edge51" class="edge">
<title>Node2&#45;&gt;Node28</title>
<path fill="none" stroke="midnightblue" d="M829.33,-341.47C918.14,-335.61 1099.4,-322.26 1252,-300 1254.64,-299.61 1257.37,-299.18 1260.12,-298.7"/>
<polygon fill="midnightblue" stroke="midnightblue" points="1260.95,-302.11 1270.17,-296.89 1259.71,-295.22 1260.95,-302.11"/>
</g>
<!-- Node29 -->
<g id="node25" class="node">
<title>Node29</title>
<g id="a_node25"><a xlink:href="__pid___8h.html" target="_top" xlink:title="Header file for pid.c.">
<polygon fill="white" stroke="black" points="788.5,-112.5 788.5,-131.5 839.5,-131.5 839.5,-112.5 788.5,-112.5"/>
<text text-anchor="middle" x="814" y="-119.5" font-family="Helvetica,sans-Serif" font-size="10.00">_pid_.h</text>
</a>
</g>
</g>
<!-- Node2&#45;&gt;Node29 -->
<g id="edge53" class="edge">
<title>Node2&#45;&gt;Node29</title>
<path fill="none" stroke="midnightblue" d="M778.23,-336.18C786.9,-312.46 810.12,-248.76 811,-244 817.63,-208.31 816.68,-165.7 815.36,-141.75"/>
<polygon fill="midnightblue" stroke="midnightblue" points="818.84,-141.36 814.71,-131.61 811.85,-141.81 818.84,-141.36"/>
</g>
<!-- Node30 -->
<g id="node26" class="node">
<title>Node30</title>
<g id="a_node26"><a xlink:href="____format_____8h.html" target="_top" xlink:title="Header file for format.c.">
<polygon fill="white" stroke="black" points="1360,-280.5 1360,-299.5 1440,-299.5 1440,-280.5 1360,-280.5"/>
<text text-anchor="middle" x="1400" y="-287.5" font-family="Helvetica,sans-Serif" font-size="10.00">__format__.h</text>
</a>
</g>
</g>
<!-- Node2&#45;&gt;Node30 -->
<g id="edge55" class="edge">
<title>Node2&#45;&gt;Node30</title>
<path fill="none" stroke="midnightblue" d="M829.11,-342.39C930.24,-337.34 1154.27,-324.51 1342,-300 1344.6,-299.66 1347.28,-299.27 1349.99,-298.86"/>
<polygon fill="midnightblue" stroke="midnightblue" points="1350.56,-302.31 1359.87,-297.25 1349.44,-295.4 1350.56,-302.31"/>
</g>
<!-- Node5 -->
<g id="node5" class="node">
<title>Node5</title>
<g id="a_node5"><a xlink:href="user__board_8h.html" target="_top" xlink:title="User board definition template.">
<polygon fill="white" stroke="black" points="34,-168.5 34,-187.5 114,-187.5 114,-168.5 34,-168.5"/>
<text text-anchor="middle" x="74" y="-175.5" font-family="Helvetica,sans-Serif" font-size="10.00">user_board.h</text>
</a>
</g>
</g>
<!-- Node4&#45;&gt;Node5 -->
<g id="edge4" class="edge">
<title>Node4&#45;&gt;Node5</title>
<path fill="none" stroke="midnightblue" d="M168.01,-224.32C149.96,-215.62 121.95,-202.12 101.2,-192.11"/>
<polygon fill="midnightblue" stroke="midnightblue" points="102.48,-188.84 91.95,-187.65 99.44,-195.15 102.48,-188.84"/>
</g>
<!-- Node4&#45;&gt;Node7 -->
<g id="edge6" class="edge">
<title>Node4&#45;&gt;Node7</title>
<path fill="none" stroke="midnightblue" d="M206.13,-227.42C238.79,-218.38 303.75,-200.39 344.65,-189.07"/>
<polygon fill="midnightblue" stroke="midnightblue" points="345.79,-192.38 354.49,-186.34 343.92,-185.64 345.79,-192.38"/>
</g>
<!-- Node8 -->
<g id="node8" class="node">
<title>Node8</title>
<g id="a_node8"><a xlink:href="compiler_8h.html" target="_top" xlink:title="Commonly used includes, types and macros.">
<polygon fill="white" stroke="red" points="230,-112.5 230,-131.5 298,-131.5 298,-112.5 230,-112.5"/>
<text text-anchor="middle" x="264" y="-119.5" font-family="Helvetica,sans-Serif" font-size="10.00">compiler.h</text>
</a>
</g>
</g>
<!-- Node4&#45;&gt;Node8 -->
<g id="edge13" class="edge">
<title>Node4&#45;&gt;Node8</title>
<path fill="none" stroke="midnightblue" d="M185.75,-224.23C185.78,-210.97 187.5,-185.5 199,-168 207.85,-154.52 222.27,-143.94 235.28,-136.43"/>
<polygon fill="midnightblue" stroke="midnightblue" points="237.27,-139.34 244.41,-131.51 233.94,-133.18 237.27,-139.34"/>
</g>
<!-- Node13 -->
<g id="node10" class="node">
<title>Node13</title>
<g id="a_node10"><a xlink:href="parts_8h.html" target="_top" xlink:title="Atmel part identification macros.">
<polygon fill="white" stroke="black" points="251,-0.5 251,-19.5 301,-19.5 301,-0.5 251,-0.5"/>
<text text-anchor="middle" x="276" y="-7.5" font-family="Helvetica,sans-Serif" font-size="10.00">parts.h</text>
</a>
</g>
</g>
<!-- Node4&#45;&gt;Node13 -->
<g id="edge15" class="edge">
<title>Node4&#45;&gt;Node13</title>
<path fill="none" stroke="midnightblue" d="M206.33,-228.29C237.37,-220.65 294.19,-204.72 306,-188 340.86,-138.65 305.72,-62.54 286.61,-28.5"/>
<polygon fill="midnightblue" stroke="midnightblue" points="289.55,-26.6 281.5,-19.71 283.5,-30.12 289.55,-26.6"/>
</g>
<!-- Node14 -->
<g id="node11" class="node">
<title>Node14</title>
<g id="a_node11"><a xlink:href="interrupt_8h.html" target="_top" xlink:title="Global interrupt management for 8&#45; and 32&#45;bit AVR.">
<polygon fill="white" stroke="black" points="180,-56.5 180,-75.5 248,-75.5 248,-56.5 180,-56.5"/>
<text text-anchor="middle" x="214" y="-63.5" font-family="Helvetica,sans-Serif" font-size="10.00">interrupt.h</text>
</a>
</g>
</g>
<!-- Node4&#45;&gt;Node14 -->
<g id="edge12" class="edge">
<title>Node4&#45;&gt;Node14</title>
<path fill="none" stroke="midnightblue" d="M185.45,-224.12C184.83,-211.55 184.23,-187.9 187,-168 191.1,-138.57 200.99,-105.49 207.6,-85.45"/>
<polygon fill="midnightblue" stroke="midnightblue" points="210.98,-86.36 210.87,-75.77 204.35,-84.12 210.98,-86.36"/>
</g>
<!-- Node16 -->
<g id="node12" class="node">
<title>Node16</title>
<g id="a_node12"><a xlink:href="status__codes_8h.html" target="_top" xlink:title="Status code definitions.">
<polygon fill="white" stroke="black" points="208.5,-168.5 208.5,-187.5 297.5,-187.5 297.5,-168.5 208.5,-168.5"/>
<text text-anchor="middle" x="253" y="-175.5" font-family="Helvetica,sans-Serif" font-size="10.00">status_codes.h</text>
</a>
</g>
</g>
<!-- Node4&#45;&gt;Node16 -->
<g id="edge14" class="edge">
<title>Node4&#45;&gt;Node16</title>
<path fill="none" stroke="midnightblue" d="M196.76,-224.32C206.77,-216.26 221.89,-204.08 233.93,-194.37"/>
<polygon fill="midnightblue" stroke="midnightblue" points="236.45,-196.83 242.04,-187.83 232.06,-191.38 236.45,-196.83"/>
</g>
<!-- Node5&#45;&gt;Node6 -->
<g id="edge5" class="edge">
<title>Node5&#45;&gt;Node6</title>
<path fill="none" stroke="midnightblue" d="M68.39,-168.08C63.63,-160.53 56.68,-149.49 50.85,-140.23"/>
<polygon fill="midnightblue" stroke="midnightblue" points="53.8,-138.35 45.51,-131.75 47.88,-142.08 53.8,-138.35"/>
</g>
<!-- Node7&#45;&gt;Node8 -->
<g id="edge7" class="edge">
<title>Node7&#45;&gt;Node8</title>
<path fill="none" stroke="midnightblue" d="M362.46,-168.44C343.38,-159.64 313.43,-145.81 291.56,-135.72"/>
<polygon fill="midnightblue" stroke="midnightblue" points="293,-132.53 282.45,-131.52 290.07,-138.88 293,-132.53"/>
</g>
<!-- Node8&#45;&gt;Node10 -->
<g id="edge8" class="edge">
<title>Node8&#45;&gt;Node10</title>
<path fill="none" stroke="midnightblue" d="M298.4,-117.62C396.41,-108 676.47,-80.5 777.28,-70.6"/>
<polygon fill="midnightblue" stroke="midnightblue" points="777.69,-74.08 787.3,-69.62 777,-67.12 777.69,-74.08"/>
</g>
<!-- Node8&#45;&gt;Node13 -->
<g id="edge9" class="edge">
<title>Node8&#45;&gt;Node13</title>
<path fill="none" stroke="midnightblue" d="M264.94,-112.37C266.88,-94.62 271.35,-53.67 273.97,-29.6"/>
<polygon fill="midnightblue" stroke="midnightblue" points="277.46,-29.91 275.06,-19.59 270.5,-29.15 277.46,-29.91"/>
</g>
<!-- Node8&#45;&gt;Node14 -->
<g id="edge10" class="edge">
<title>Node8&#45;&gt;Node14</title>
<path fill="none" stroke="midnightblue" d="M255.74,-112.08C248.54,-104.3 237.89,-92.8 229.15,-83.37"/>
<polygon fill="midnightblue" stroke="midnightblue" points="231.47,-80.71 222.1,-75.75 226.33,-85.47 231.47,-80.71"/>
</g>
<!-- Node14&#45;&gt;Node13 -->
<g id="edge11" class="edge">
<title>Node14&#45;&gt;Node13</title>
<path fill="none" stroke="midnightblue" d="M223.96,-56.32C233.13,-48.34 246.94,-36.31 258.03,-26.65"/>
<polygon fill="midnightblue" stroke="midnightblue" points="260.62,-29.04 265.86,-19.83 256.02,-23.76 260.62,-29.04"/>
</g>
<!-- Node20&#45;&gt;Node2 -->
<g id="edge23" class="edge">
<title>Node20&#45;&gt;Node2</title>
<path fill="none" stroke="midnightblue" d="M683.88,-243.59C704.36,-261.79 744.74,-304.49 764.35,-328.27"/>
<polygon fill="midnightblue" stroke="midnightblue" points="761.81,-330.7 770.76,-336.37 767.3,-326.36 761.81,-330.7"/>
</g>
<!-- Node21&#45;&gt;Node2 -->
<g id="edge25" class="edge">
<title>Node21&#45;&gt;Node2</title>
<path fill="none" stroke="midnightblue" d="M871.89,-299.52C856.08,-308.31 828.43,-322.13 806.61,-332.23"/>
<polygon fill="midnightblue" stroke="midnightblue" points="805.01,-329.11 797.36,-336.44 807.91,-335.48 805.01,-329.11"/>
</g>
<!-- Node22&#45;&gt;Node3 -->
<g id="edge27" class="edge">
<title>Node22&#45;&gt;Node3</title>
<path fill="none" stroke="midnightblue" d="M405.64,-284.17C351.86,-277.28 252.27,-263.49 158.15,-244.06"/>
<polygon fill="midnightblue" stroke="midnightblue" points="158.69,-240.6 148.18,-241.98 157.25,-247.45 158.69,-240.6"/>
</g>
<!-- Node22&#45;&gt;Node4 -->
<g id="edge28" class="edge">
<title>Node22&#45;&gt;Node4</title>
<path fill="none" stroke="midnightblue" d="M405.94,-280.86C353.92,-270.01 262.99,-251.05 216.01,-241.26"/>
<polygon fill="midnightblue" stroke="midnightblue" points="216.64,-237.81 206.14,-239.2 215.21,-244.67 216.64,-237.81"/>
</g>
<!-- Node22&#45;&gt;Node6 -->
<g id="edge32" class="edge">
<title>Node22&#45;&gt;Node6</title>
<path fill="none" stroke="midnightblue" d="M445.92,-280.34C447.76,-257.91 449.24,-197.59 416,-168 392.1,-146.73 187.15,-131.79 90.3,-125.85"/>
<polygon fill="midnightblue" stroke="midnightblue" points="90.36,-122.35 80.16,-125.24 89.93,-129.33 90.36,-122.35"/>
</g>
<!-- Node22&#45;&gt;Node7 -->
<g id="edge31" class="edge">
<title>Node22&#45;&gt;Node7</title>
<path fill="none" stroke="midnightblue" d="M439.98,-280.37C429.46,-262.3 404.96,-220.18 391.07,-196.31"/>
<polygon fill="midnightblue" stroke="midnightblue" points="394.05,-194.47 386,-187.59 388,-198 394.05,-194.47"/>
</g>
<!-- Node22&#45;&gt;Node17 -->
<g id="edge29" class="edge">
<title>Node22&#45;&gt;Node17</title>
<path fill="none" stroke="midnightblue" d="M452.6,-280.08C459.23,-272.3 469.02,-260.8 477.06,-251.37"/>
<polygon fill="midnightblue" stroke="midnightblue" points="479.73,-253.63 483.55,-243.75 474.4,-249.09 479.73,-253.63"/>
</g>
<!-- Node22&#45;&gt;Node18 -->
<g id="edge30" class="edge">
<title>Node22&#45;&gt;Node18</title>
<path fill="none" stroke="midnightblue" d="M466.23,-280.44C488.38,-271.52 523.32,-257.44 548.44,-247.32"/>
<polygon fill="midnightblue" stroke="midnightblue" points="549.9,-250.5 557.87,-243.52 547.28,-244.01 549.9,-250.5"/>
</g>
<!-- Node22&#45;&gt;Node19 -->
<g id="edge33" class="edge">
<title>Node22&#45;&gt;Node19</title>
<path fill="none" stroke="midnightblue" d="M421.55,-280.44C396.87,-271.44 357.81,-257.19 330.02,-247.05"/>
<polygon fill="midnightblue" stroke="midnightblue" points="330.94,-243.66 320.34,-243.52 328.54,-250.23 330.94,-243.66"/>
</g>
<!-- Node22&#45;&gt;Node20 -->
<g id="edge34" class="edge">
<title>Node22&#45;&gt;Node20</title>
<path fill="none" stroke="midnightblue" d="M480.97,-280.44C521.48,-270.81 587.22,-255.17 630.04,-244.98"/>
<polygon fill="midnightblue" stroke="midnightblue" points="630.95,-248.36 639.87,-242.64 629.33,-241.55 630.95,-248.36"/>
</g>
<!-- Node22&#45;&gt;Node23 -->
<g id="edge35" class="edge">
<title>Node22&#45;&gt;Node23</title>
<path fill="none" stroke="midnightblue" d="M484.09,-282.63C534.42,-274.38 624.85,-259.42 712.58,-244.05"/>
<polygon fill="midnightblue" stroke="midnightblue" points="713.19,-247.5 722.43,-242.32 711.97,-240.6 713.19,-247.5"/>
</g>
<!-- Node23&#45;&gt;Node2 -->
<g id="edge36" class="edge">
<title>Node23&#45;&gt;Node2</title>
<path fill="none" stroke="midnightblue" d="M766.91,-243.89C768.64,-256.47 766.98,-280.14 770,-300 771.34,-308.8 774.06,-318.24 776.07,-326.19"/>
<polygon fill="midnightblue" stroke="midnightblue" points="772.7,-327.17 778.2,-336.22 779.55,-325.71 772.7,-327.17"/>
</g>
<!-- Node24&#45;&gt;Node2 -->
<g id="edge40" class="edge">
<title>Node24&#45;&gt;Node2</title>
<path fill="none" stroke="midnightblue" d="M956.96,-299.52C922.75,-308.84 864.65,-323.82 823.24,-334.02"/>
<polygon fill="midnightblue" stroke="midnightblue" points="822.24,-330.66 813.36,-336.44 823.91,-337.46 822.24,-330.66"/>
</g>
<!-- Node25&#45;&gt;Node3 -->
<g id="edge43" class="edge">
<title>Node25&#45;&gt;Node3</title>
<path fill="none" stroke="midnightblue" d="M221.46,-280.44C202.38,-271.64 172.43,-257.81 150.56,-247.72"/>
<polygon fill="midnightblue" stroke="midnightblue" points="152,-244.53 141.45,-243.52 149.07,-250.88 152,-244.53"/>
</g>
<!-- Node25&#45;&gt;Node4 -->
<g id="edge42" class="edge">
<title>Node25&#45;&gt;Node4</title>
<path fill="none" stroke="midnightblue" d="M231.08,-280.08C223.22,-272.22 211.57,-260.57 202.08,-251.08"/>
<polygon fill="midnightblue" stroke="midnightblue" points="204.3,-248.35 194.75,-243.75 199.35,-253.3 204.3,-248.35"/>
</g>
<!-- Node25&#45;&gt;Node6 -->
<g id="edge45" class="edge">
<title>Node25&#45;&gt;Node6</title>
<path fill="none" stroke="midnightblue" d="M204.44,-282.89C172.73,-276.42 125.76,-264.29 89,-244 55.91,-225.74 40.62,-222.42 25,-188 18.14,-172.87 23.67,-154.29 29.87,-140.88"/>
<polygon fill="midnightblue" stroke="midnightblue" points="33.09,-142.26 34.54,-131.77 26.86,-139.07 33.09,-142.26"/>
</g>
<!-- Node25&#45;&gt;Node7 -->
<g id="edge44" class="edge">
<title>Node25&#45;&gt;Node7</title>
<path fill="none" stroke="midnightblue" d="M239.21,-280.26C238.47,-266.57 239.12,-239.99 253,-224 265.21,-209.94 311.18,-196.08 344.54,-187.53"/>
<polygon fill="midnightblue" stroke="midnightblue" points="345.59,-190.88 354.44,-185.06 343.89,-184.09 345.59,-190.88"/>
</g>
<!-- Node25&#45;&gt;Node19 -->
<g id="edge46" class="edge">
<title>Node25&#45;&gt;Node19</title>
<path fill="none" stroke="midnightblue" d="M249.16,-280.32C257.5,-272.42 270.03,-260.55 280.18,-250.94"/>
<polygon fill="midnightblue" stroke="midnightblue" points="282.82,-253.25 287.68,-243.83 278.01,-248.17 282.82,-253.25"/>
</g>
<!-- Node26&#45;&gt;Node2 -->
<g id="edge48" class="edge">
<title>Node26&#45;&gt;Node2</title>
<path fill="none" stroke="midnightblue" d="M1046.16,-299.53C991.98,-309.15 900.65,-324.78 839.07,-334.97"/>
<polygon fill="midnightblue" stroke="midnightblue" points="838.37,-331.54 829.08,-336.62 839.51,-338.45 838.37,-331.54"/>
</g>
<!-- Node27&#45;&gt;Node2 -->
<g id="edge50" class="edge">
<title>Node27&#45;&gt;Node2</title>
<path fill="none" stroke="midnightblue" d="M1161.25,-299.54C1160.16,-299.7 1159.07,-299.85 1158,-300 1046.51,-315.66 915.84,-330.61 839.46,-338.72"/>
<polygon fill="midnightblue" stroke="midnightblue" points="838.63,-335.29 829.05,-339.82 839.37,-342.25 838.63,-335.29"/>
</g>
<!-- Node28&#45;&gt;Node2 -->
<g id="edge52" class="edge">
<title>Node28&#45;&gt;Node2</title>
<path fill="none" stroke="midnightblue" d="M1272.86,-299.57C1271.9,-299.72 1270.95,-299.86 1270,-300 1116.49,-322.39 933.99,-335.77 839.18,-341.58"/>
<polygon fill="midnightblue" stroke="midnightblue" points="838.94,-338.09 829.17,-342.18 839.36,-345.07 838.94,-338.09"/>
</g>
<!-- Node29&#45;&gt;Node10 -->
<g id="edge54" class="edge">
<title>Node29&#45;&gt;Node10</title>
<path fill="none" stroke="midnightblue" d="M814,-112.08C814,-105.01 814,-94.86 814,-85.99"/>
<polygon fill="midnightblue" stroke="midnightblue" points="817.5,-85.75 814,-75.75 810.5,-85.75 817.5,-85.75"/>
</g>
<!-- Node30&#45;&gt;Node2 -->
<g id="edge56" class="edge">
<title>Node30&#45;&gt;Node2</title>
<path fill="none" stroke="midnightblue" d="M1363.64,-299.5C1362.42,-299.68 1361.2,-299.84 1360,-300 1171.87,-324.56 947.3,-337.39 839.21,-342.42"/>
<polygon fill="midnightblue" stroke="midnightblue" points="838.94,-338.93 829.11,-342.88 839.26,-345.92 838.94,-338.93"/>
</g>
</g>
</svg>
