<?xml version="1.0" encoding="UTF-8" standalone="no"?>
<!DOCTYPE svg PUBLIC "-//W3C//DTD SVG 1.1//EN"
 "http://www.w3.org/Graphics/SVG/1.1/DTD/svg11.dtd">
<!-- Generated by graphviz version 2.43.0 (0)
 -->
<!-- Title: swarm_bot_cpp/src/__adc__.h Pages: 1 -->
<svg width="1381pt" height="307pt"
 viewBox="0.00 0.00 1381.00 307.00" xmlns="http://www.w3.org/2000/svg" xmlns:xlink="http://www.w3.org/1999/xlink">
<g id="graph0" class="graph" transform="scale(1 1) rotate(0) translate(4 303)">
<title>swarm_bot_cpp/src/__adc__.h</title>
<polygon fill="white" stroke="transparent" points="-4,4 -4,-303 1377,-303 1377,4 -4,4"/>
<!-- Node1 -->
<g id="node1" class="node">
<title>Node1</title>
<g id="a_node1"><a xlink:title="Header file for adc.c.">
<polygon fill="#bfbfbf" stroke="black" points="628,-268.5 628,-298.5 741,-298.5 741,-268.5 628,-268.5"/>
<text text-anchor="start" x="636" y="-286.5" font-family="Helvetica,sans-Serif" font-size="10.00">swarm_bot_cpp/src/</text>
<text text-anchor="middle" x="684.5" y="-275.5" font-family="Helvetica,sans-Serif" font-size="10.00">__adc__.h</text>
</a>
</g>
</g>
<!-- Node2 -->
<g id="node2" class="node">
<title>Node2</title>
<g id="a_node2"><a xlink:href=".html" target="_top" xlink:title=" ">
<polygon fill="white" stroke="black" points="534,-201.5 534,-231.5 647,-231.5 647,-201.5 534,-201.5"/>
<text text-anchor="start" x="542" y="-219.5" font-family="Helvetica,sans-Serif" font-size="10.00">swarm_bot_cpp/src/</text>
<text text-anchor="middle" x="590.5" y="-208.5" font-family="Helvetica,sans-Serif" font-size="10.00">__adc__.c</text>
</a>
</g>
</g>
<!-- Node1&#45;&gt;Node2 -->
<g id="edge1" class="edge">
<title>Node1&#45;&gt;Node2</title>
<path fill="none" stroke="midnightblue" d="M655.51,-262.45C641.05,-252.45 623.91,-240.6 610.86,-231.58"/>
<polygon fill="midnightblue" stroke="midnightblue" points="653.89,-265.59 664.1,-268.4 657.87,-259.83 653.89,-265.59"/>
</g>
<!-- Node3 -->
<g id="node3" class="node">
<title>Node3</title>
<g id="a_node3"><a xlink:href=".html" target="_top" xlink:title=" ">
<polygon fill="white" stroke="black" points="722,-201.5 722,-231.5 835,-231.5 835,-201.5 722,-201.5"/>
<text text-anchor="start" x="730" y="-219.5" font-family="Helvetica,sans-Serif" font-size="10.00">swarm_bot_cpp/src/</text>
<text text-anchor="middle" x="778.5" y="-208.5" font-family="Helvetica,sans-Serif" font-size="10.00">__pin_map.h</text>
</a>
</g>
</g>
<!-- Node1&#45;&gt;Node3 -->
<g id="edge2" class="edge">
<title>Node1&#45;&gt;Node3</title>
<path fill="none" stroke="midnightblue" d="M713.49,-262.45C727.95,-252.45 745.09,-240.6 758.14,-231.58"/>
<polygon fill="midnightblue" stroke="midnightblue" points="711.13,-259.83 704.9,-268.4 715.11,-265.59 711.13,-259.83"/>
</g>
<!-- Node4 -->
<g id="node4" class="node">
<title>Node4</title>
<g id="a_node4"><a xlink:href="____swarm__wold_____8h.html" target="_top" xlink:title="Header file for dummy purposes.">
<polygon fill="white" stroke="black" points="628,-134.5 628,-164.5 741,-164.5 741,-134.5 628,-134.5"/>
<text text-anchor="start" x="636" y="-152.5" font-family="Helvetica,sans-Serif" font-size="10.00">swarm_bot_cpp/src/</text>
<text text-anchor="middle" x="684.5" y="-141.5" font-family="Helvetica,sans-Serif" font-size="10.00">__swarm_wold__.h</text>
</a>
</g>
</g>
<!-- Node1&#45;&gt;Node4 -->
<g id="edge26" class="edge">
<title>Node1&#45;&gt;Node4</title>
<path fill="none" stroke="midnightblue" d="M679.14,-258.39C677,-230.9 677.33,-186.89 680.14,-164.52"/>
<polygon fill="midnightblue" stroke="midnightblue" points="675.66,-258.77 680.13,-268.37 682.63,-258.08 675.66,-258.77"/>
</g>
<!-- Node3&#45;&gt;Node4 -->
<g id="edge3" class="edge">
<title>Node3&#45;&gt;Node4</title>
<path fill="none" stroke="midnightblue" d="M749.51,-195.45C735.05,-185.45 717.91,-173.6 704.86,-164.58"/>
<polygon fill="midnightblue" stroke="midnightblue" points="747.89,-198.59 758.1,-201.4 751.87,-192.83 747.89,-198.59"/>
</g>
<!-- Node4&#45;&gt;Node1 -->
<g id="edge4" class="edge">
<title>Node4&#45;&gt;Node1</title>
<path fill="none" stroke="midnightblue" d="M689.85,-174.49C692,-201.92 691.68,-245.94 688.87,-268.37"/>
<polygon fill="midnightblue" stroke="midnightblue" points="693.33,-174.13 688.86,-164.52 686.36,-174.82 693.33,-174.13"/>
</g>
<!-- Node5 -->
<g id="node5" class="node">
<title>Node5</title>
<g id="a_node5"><a xlink:href="____dc__control_____8h.html" target="_top" xlink:title="Header file for dc_control.c.">
<polygon fill="white" stroke="red" points="0,-62 0,-92 113,-92 113,-62 0,-62"/>
<text text-anchor="start" x="8" y="-80" font-family="Helvetica,sans-Serif" font-size="10.00">swarm_bot_cpp/src/</text>
<text text-anchor="middle" x="56.5" y="-69" font-family="Helvetica,sans-Serif" font-size="10.00">__dc_control__.h</text>
</a>
</g>
</g>
<!-- Node4&#45;&gt;Node5 -->
<g id="edge5" class="edge">
<title>Node4&#45;&gt;Node5</title>
<path fill="none" stroke="midnightblue" d="M617.55,-147.18C509.91,-144.01 292.54,-133.37 112.5,-98 104.62,-96.45 96.34,-94.32 88.6,-92.01"/>
<polygon fill="midnightblue" stroke="midnightblue" points="617.52,-150.68 627.62,-147.46 617.72,-143.68 617.52,-150.68"/>
</g>
<!-- Node7 -->
<g id="node6" class="node">
<title>Node7</title>
<g id="a_node6"><a xlink:href="____format_____8h.html" target="_top" xlink:title="Header file for format.c.">
<polygon fill="white" stroke="red" points="131,-62 131,-92 244,-92 244,-62 131,-62"/>
<text text-anchor="start" x="139" y="-80" font-family="Helvetica,sans-Serif" font-size="10.00">swarm_bot_cpp/src/</text>
<text text-anchor="middle" x="187.5" y="-69" font-family="Helvetica,sans-Serif" font-size="10.00">__format__.h</text>
</a>
</g>
</g>
<!-- Node4&#45;&gt;Node7 -->
<g id="edge7" class="edge">
<title>Node4&#45;&gt;Node7</title>
<path fill="none" stroke="midnightblue" d="M617.8,-144.9C530.72,-139.13 374.28,-125.52 243.5,-98 235.87,-96.4 227.86,-94.29 220.32,-92.05"/>
<polygon fill="midnightblue" stroke="midnightblue" points="617.61,-148.4 627.81,-145.55 618.06,-141.41 617.61,-148.4"/>
</g>
<!-- Node9 -->
<g id="node7" class="node">
<title>Node9</title>
<g id="a_node7"><a xlink:href="_____i_n_t__0__1_____8h.html" target="_top" xlink:title="Header file for INT_0_1.c.">
<polygon fill="white" stroke="red" points="262,-62 262,-92 375,-92 375,-62 262,-62"/>
<text text-anchor="start" x="270" y="-80" font-family="Helvetica,sans-Serif" font-size="10.00">swarm_bot_cpp/src/</text>
<text text-anchor="middle" x="318.5" y="-69" font-family="Helvetica,sans-Serif" font-size="10.00">__INT_0_1__.h</text>
</a>
</g>
</g>
<!-- Node4&#45;&gt;Node9 -->
<g id="edge9" class="edge">
<title>Node4&#45;&gt;Node9</title>
<path fill="none" stroke="midnightblue" d="M617.65,-140.81C554.35,-132.43 457.17,-117.56 374.5,-98 367.26,-96.29 359.65,-94.21 352.42,-92.04"/>
<polygon fill="midnightblue" stroke="midnightblue" points="617.53,-144.32 627.9,-142.15 618.44,-137.38 617.53,-144.32"/>
</g>
<!-- Node11 -->
<g id="node8" class="node">
<title>Node11</title>
<g id="a_node8"><a xlink:href="____kinematics_____8h.html" target="_top" xlink:title="Header file for kimenatics.c.">
<polygon fill="white" stroke="red" points="393,-62 393,-92 506,-92 506,-62 393,-62"/>
<text text-anchor="start" x="401" y="-80" font-family="Helvetica,sans-Serif" font-size="10.00">swarm_bot_cpp/src/</text>
<text text-anchor="middle" x="449.5" y="-69" font-family="Helvetica,sans-Serif" font-size="10.00">__kinematics__.h</text>
</a>
</g>
</g>
<!-- Node4&#45;&gt;Node11 -->
<g id="edge11" class="edge">
<title>Node4&#45;&gt;Node11</title>
<path fill="none" stroke="midnightblue" d="M628.13,-131.59C587.91,-119.52 534.45,-103.48 496.52,-92.11"/>
<polygon fill="midnightblue" stroke="midnightblue" points="627.21,-134.97 637.79,-134.49 629.22,-128.26 627.21,-134.97"/>
</g>
<!-- Node13 -->
<g id="node9" class="node">
<title>Node13</title>
<g id="a_node9"><a xlink:href=".html" target="_top" xlink:title=" ">
<polygon fill="white" stroke="black" points="418.5,-0.5 418.5,-19.5 564.5,-19.5 564.5,-0.5 418.5,-0.5"/>
<text text-anchor="middle" x="491.5" y="-7.5" font-family="Helvetica,sans-Serif" font-size="10.00">swarm_bot_cpp/src/main.c</text>
</a>
</g>
</g>
<!-- Node4&#45;&gt;Node13 -->
<g id="edge25" class="edge">
<title>Node4&#45;&gt;Node13</title>
<path fill="none" stroke="midnightblue" d="M618.25,-131.37C596.2,-123.57 572.46,-112.71 553.5,-98 524.92,-75.83 503.91,-36.96 495.52,-19.69"/>
<polygon fill="midnightblue" stroke="midnightblue" points="617.32,-134.75 627.91,-134.64 619.56,-128.12 617.32,-134.75"/>
</g>
<!-- Node14 -->
<g id="node10" class="node">
<title>Node14</title>
<g id="a_node10"><a xlink:href="____odometry_____8h.html" target="_top" xlink:title="Header file for odometry.c.">
<polygon fill="white" stroke="red" points="563,-62 563,-92 676,-92 676,-62 563,-62"/>
<text text-anchor="start" x="571" y="-80" font-family="Helvetica,sans-Serif" font-size="10.00">swarm_bot_cpp/src/</text>
<text text-anchor="middle" x="619.5" y="-69" font-family="Helvetica,sans-Serif" font-size="10.00">__odometry__.h</text>
</a>
</g>
</g>
<!-- Node4&#45;&gt;Node14 -->
<g id="edge13" class="edge">
<title>Node4&#45;&gt;Node14</title>
<path fill="none" stroke="midnightblue" d="M658.59,-127.19C647.32,-115.87 635.02,-102.27 627.09,-92.25"/>
<polygon fill="midnightblue" stroke="midnightblue" points="656.2,-129.74 665.8,-134.23 661.1,-124.74 656.2,-129.74"/>
</g>
<!-- Node16 -->
<g id="node11" class="node">
<title>Node16</title>
<g id="a_node11"><a xlink:href="____pwm_____8h.html" target="_top" xlink:title="Header file for pwm.c.">
<polygon fill="white" stroke="red" points="694,-62 694,-92 807,-92 807,-62 694,-62"/>
<text text-anchor="start" x="702" y="-80" font-family="Helvetica,sans-Serif" font-size="10.00">swarm_bot_cpp/src/</text>
<text text-anchor="middle" x="750.5" y="-69" font-family="Helvetica,sans-Serif" font-size="10.00">__pwm__.h</text>
</a>
</g>
</g>
<!-- Node4&#45;&gt;Node16 -->
<g id="edge15" class="edge">
<title>Node4&#45;&gt;Node16</title>
<path fill="none" stroke="midnightblue" d="M698.8,-126.49C708.56,-115.22 721.34,-101.85 731.88,-92"/>
<polygon fill="midnightblue" stroke="midnightblue" points="696.05,-124.32 692.31,-134.23 701.41,-128.82 696.05,-124.32"/>
</g>
<!-- Node18 -->
<g id="node12" class="node">
<title>Node18</title>
<g id="a_node12"><a xlink:href="____timer0_____8h.html" target="_top" xlink:title="Header file for timer0.c.">
<polygon fill="white" stroke="red" points="825,-62 825,-92 938,-92 938,-62 825,-62"/>
<text text-anchor="start" x="833" y="-80" font-family="Helvetica,sans-Serif" font-size="10.00">swarm_bot_cpp/src/</text>
<text text-anchor="middle" x="881.5" y="-69" font-family="Helvetica,sans-Serif" font-size="10.00">__timer0__.h</text>
</a>
</g>
</g>
<!-- Node4&#45;&gt;Node18 -->
<g id="edge17" class="edge">
<title>Node4&#45;&gt;Node18</title>
<path fill="none" stroke="midnightblue" d="M727.99,-130.81C760.27,-118.83 804.05,-103.21 836.65,-92.07"/>
<polygon fill="midnightblue" stroke="midnightblue" points="726.51,-127.63 718.37,-134.4 728.96,-134.18 726.51,-127.63"/>
</g>
<!-- Node20 -->
<g id="node13" class="node">
<title>Node20</title>
<g id="a_node13"><a xlink:href="____timer1_____8h.html" target="_top" xlink:title="Header file for timer1.c.">
<polygon fill="white" stroke="red" points="1260,-62 1260,-92 1373,-92 1373,-62 1260,-62"/>
<text text-anchor="start" x="1268" y="-80" font-family="Helvetica,sans-Serif" font-size="10.00">swarm_bot_cpp/src/</text>
<text text-anchor="middle" x="1316.5" y="-69" font-family="Helvetica,sans-Serif" font-size="10.00">__timer1__.h</text>
</a>
</g>
</g>
<!-- Node4&#45;&gt;Node20 -->
<g id="edge19" class="edge">
<title>Node4&#45;&gt;Node20</title>
<path fill="none" stroke="midnightblue" d="M751.43,-146.89C856.83,-143.38 1067.23,-132.38 1242.5,-98 1250.38,-96.45 1258.66,-94.32 1266.74,-92.02"/>
<polygon fill="midnightblue" stroke="midnightblue" points="751.14,-143.39 741.26,-147.21 751.37,-150.39 751.14,-143.39"/>
</g>
<!-- Node22 -->
<g id="node14" class="node">
<title>Node22</title>
<g id="a_node14"><a xlink:href="____timer2_____8h.html" target="_top" xlink:title="Header file for timer2.c.">
<polygon fill="white" stroke="red" points="956,-62 956,-92 1069,-92 1069,-62 956,-62"/>
<text text-anchor="start" x="964" y="-80" font-family="Helvetica,sans-Serif" font-size="10.00">swarm_bot_cpp/src/</text>
<text text-anchor="middle" x="1012.5" y="-69" font-family="Helvetica,sans-Serif" font-size="10.00">__timer2__.h</text>
</a>
</g>
</g>
<!-- Node4&#45;&gt;Node22 -->
<g id="edge22" class="edge">
<title>Node4&#45;&gt;Node22</title>
<path fill="none" stroke="midnightblue" d="M751.21,-136.47C802.68,-127.34 875.37,-113.72 938.5,-98 945.6,-96.23 953.08,-94.15 960.46,-92"/>
<polygon fill="midnightblue" stroke="midnightblue" points="750.45,-133.05 741.21,-138.23 751.67,-139.94 750.45,-133.05"/>
</g>
<!-- Node24 -->
<g id="node15" class="node">
<title>Node24</title>
<g id="a_node15"><a xlink:href="init_8c.html" target="_top" xlink:title="User board initialization template.">
<polygon fill="white" stroke="black" points="1087,-56.5 1087,-97.5 1242,-97.5 1242,-56.5 1087,-56.5"/>
<text text-anchor="start" x="1095" y="-85.5" font-family="Helvetica,sans-Serif" font-size="10.00">swarm_bot_cpp/src/ASF</text>
<text text-anchor="start" x="1095" y="-74.5" font-family="Helvetica,sans-Serif" font-size="10.00">/common/boards/user_board</text>
<text text-anchor="middle" x="1164.5" y="-63.5" font-family="Helvetica,sans-Serif" font-size="10.00">/init.c</text>
</a>
</g>
</g>
<!-- Node4&#45;&gt;Node24 -->
<g id="edge24" class="edge">
<title>Node4&#45;&gt;Node24</title>
<path fill="none" stroke="midnightblue" d="M751.46,-142C830.11,-133.89 964.34,-118.54 1078.5,-98 1081.22,-97.51 1083.97,-96.99 1086.76,-96.45"/>
<polygon fill="midnightblue" stroke="midnightblue" points="750.8,-138.55 741.21,-143.05 751.52,-145.51 750.8,-138.55"/>
</g>
<!-- Node5&#45;&gt;Node4 -->
<g id="edge6" class="edge">
<title>Node5&#45;&gt;Node4</title>
<path fill="none" stroke="midnightblue" d="M116.17,-94.71C121,-95.95 125.82,-97.08 130.5,-98 310.09,-133.28 526.82,-143.96 627.77,-147.16"/>
<polygon fill="midnightblue" stroke="midnightblue" points="116.83,-91.26 106.26,-92.01 114.99,-98.02 116.83,-91.26"/>
</g>
<!-- Node7&#45;&gt;Node4 -->
<g id="edge8" class="edge">
<title>Node7&#45;&gt;Node4</title>
<path fill="none" stroke="midnightblue" d="M247.99,-94.78C252.55,-95.98 257.09,-97.07 261.5,-98 391.18,-125.29 546.09,-138.9 627.78,-144.76"/>
<polygon fill="midnightblue" stroke="midnightblue" points="248.58,-91.32 238.01,-92.05 246.73,-98.07 248.58,-91.32"/>
</g>
<!-- Node9&#45;&gt;Node4 -->
<g id="edge10" class="edge">
<title>Node9&#45;&gt;Node4</title>
<path fill="none" stroke="midnightblue" d="M380.02,-94.81C384.24,-95.96 388.43,-97.04 392.5,-98 473.58,-117.19 568.63,-131.86 627.8,-140.32"/>
<polygon fill="midnightblue" stroke="midnightblue" points="380.73,-91.37 370.15,-92.04 378.83,-98.11 380.73,-91.37"/>
</g>
<!-- Node11&#45;&gt;Node13 -->
<g id="edge12" class="edge">
<title>Node11&#45;&gt;Node13</title>
<path fill="none" stroke="midnightblue" d="M464.05,-53.47C471.58,-41.83 480.32,-28.3 485.88,-19.69"/>
<polygon fill="midnightblue" stroke="midnightblue" points="461.1,-51.6 458.61,-61.9 466.98,-55.4 461.1,-51.6"/>
</g>
<!-- Node14&#45;&gt;Node4 -->
<g id="edge14" class="edge">
<title>Node14&#45;&gt;Node4</title>
<path fill="none" stroke="midnightblue" d="M645.16,-99.07C656.49,-110.42 668.91,-124.13 676.89,-134.23"/>
<polygon fill="midnightblue" stroke="midnightblue" points="647.53,-96.48 637.93,-92 642.64,-101.49 647.53,-96.48"/>
</g>
<!-- Node16&#45;&gt;Node4 -->
<g id="edge16" class="edge">
<title>Node16&#45;&gt;Node4</title>
<path fill="none" stroke="midnightblue" d="M736.27,-99.94C726.59,-111.12 713.91,-124.39 703.4,-134.23"/>
<polygon fill="midnightblue" stroke="midnightblue" points="738.97,-102.16 742.71,-92.25 733.6,-97.66 738.97,-102.16"/>
</g>
<!-- Node18&#45;&gt;Node4 -->
<g id="edge18" class="edge">
<title>Node18&#45;&gt;Node4</title>
<path fill="none" stroke="midnightblue" d="M838.08,-95.66C805.82,-107.64 762.04,-123.26 729.42,-134.4"/>
<polygon fill="midnightblue" stroke="midnightblue" points="839.55,-98.85 847.7,-92.07 837.11,-92.29 839.55,-98.85"/>
</g>
<!-- Node20&#45;&gt;Node3 -->
<g id="edge20" class="edge">
<title>Node20&#45;&gt;Node3</title>
<path fill="none" stroke="midnightblue" d="M1262.23,-94.94C1258.61,-96 1255.01,-97.03 1251.5,-98 1102.1,-139.51 924.22,-181.8 835.19,-202.48"/>
<polygon fill="midnightblue" stroke="midnightblue" points="1263.24,-98.29 1271.84,-92.1 1261.26,-91.58 1263.24,-98.29"/>
</g>
<!-- Node20&#45;&gt;Node4 -->
<g id="edge21" class="edge">
<title>Node20&#45;&gt;Node4</title>
<path fill="none" stroke="midnightblue" d="M1274.76,-94.71C1270,-95.96 1265.18,-97.08 1260.5,-98 1073.09,-134.76 845.52,-144.8 741.35,-147.51"/>
<polygon fill="midnightblue" stroke="midnightblue" points="1275.71,-98.08 1284.4,-92.02 1273.83,-91.34 1275.71,-98.08"/>
</g>
<!-- Node22&#45;&gt;Node4 -->
<g id="edge23" class="edge">
<title>Node22&#45;&gt;Node4</title>
<path fill="none" stroke="midnightblue" d="M968.37,-94.86C964.38,-95.97 960.38,-97.03 956.5,-98 883.07,-116.29 796.71,-131.73 741.23,-140.56"/>
<polygon fill="midnightblue" stroke="midnightblue" points="969.57,-98.15 978.2,-92 967.62,-91.43 969.57,-98.15"/>
</g>
</g>
</svg>
