<?xml version="1.0" encoding="UTF-8" standalone="no"?>
<!DOCTYPE svg PUBLIC "-//W3C//DTD SVG 1.1//EN"
 "http://www.w3.org/Graphics/SVG/1.1/DTD/svg11.dtd">
<!-- Generated by graphviz version 2.43.0 (0)
 -->
<!-- Title: swarm_bot_cpp/src/__kinematics__.h Pages: 1 -->
<!--zoomable 431 -->
<svg id="main" version="1.1" xmlns="http://www.w3.org/2000/svg" xmlns:xlink="http://www.w3.org/1999/xlink" xml:space="preserve" onload="init(evt)">
<style type="text/css"><![CDATA[
.edge:hover path { stroke: red; }
.edge:hover polygon { stroke: red; fill: red; }
]]></style>
<script type="text/javascript"><![CDATA[
var edges = document.getElementsByTagName('g');
if (edges && edges.length) {
  for (var i=0;i<edges.length;i++) {
    if (edges[i].id.substr(0,4)=='edge') {
      edges[i].setAttribute('class','edge');
    }
  }
}
]]></script>
        <defs>
                <circle id="rim" cx="0" cy="0" r="7"/>
                <circle id="rim2" cx="0" cy="0" r="3.5"/>
                <g id="zoomPlus">
                        <use xlink:href="#rim" fill="#404040">
                                <set attributeName="fill" to="#808080" begin="zoomplus.mouseover" end="zoomplus.mouseout"/>
                        </use>
                        <path d="M-4,0h8M0,-4v8" fill="none" stroke="white" stroke-width="1.5" pointer-events="none"/>
                </g>
                <g id="zoomMin">
                        <use xlink:href="#rim" fill="#404040">
                                <set attributeName="fill" to="#808080" begin="zoomminus.mouseover" end="zoomminus.mouseout"/>
                        </use>
                        <path d="M-4,0h8" fill="none" stroke="white" stroke-width="1.5" pointer-events="none"/>
                </g>
                <g id="dirArrow">
                        <path fill="none" stroke="white" stroke-width="1.5" d="M0,-3.0v7 M-2.5,-0.5L0,-3.0L2.5,-0.5"/>
                </g>
               <g id="resetDef">
                       <use xlink:href="#rim2" fill="#404040">
                               <set attributeName="fill" to="#808080" begin="reset.mouseover" end="reset.mouseout"/>
                       </use>
               </g>
        </defs>

<script type="text/javascript">
var viewWidth = 1448;
var viewHeight = 431;
var sectionId = 'dynsection-0';
</script>
<script xlink:href="svgpan.js"/>
<svg id="graph" class="graph">
<g id="viewport">
<title>swarm_bot_cpp/src/__kinematics__.h</title>
<polygon fill="white" stroke="transparent" points="-4,4 -4,-427 1444.1,-427 1444.1,4 -4,4"/>
<!-- Node1 -->
<g id="node1" class="node">
<title>Node1</title>
<g id="a_node1"><a xlink:title="Header file for kimenatics.c.">
<polygon fill="#bfbfbf" stroke="black" points="686.6,-392.5 686.6,-422.5 799.6,-422.5 799.6,-392.5 686.6,-392.5"/>
<text text-anchor="start" x="694.6" y="-410.5" font-family="Helvetica,sans-Serif" font-size="10.00">swarm_bot_cpp/src/</text>
<text text-anchor="middle" x="743.1" y="-399.5" font-family="Helvetica,sans-Serif" font-size="10.00">__kinematics__.h</text>
</a>
</g>
</g>
<!-- Node2 -->
<g id="node2" class="node">
<title>Node2</title>
<g id="a_node2"><a xlink:href="____swarm__wold_____8h.html" target="_top" xlink:title="Header file for dummy purposes.">
<polygon fill="white" stroke="black" points="689.1,-336.5 689.1,-355.5 797.1,-355.5 797.1,-336.5 689.1,-336.5"/>
<text text-anchor="middle" x="743.1" y="-343.5" font-family="Helvetica,sans-Serif" font-size="10.00">__swarm_wold__.h</text>
</a>
</g>
</g>
<!-- Node1&#45;&gt;Node2 -->
<g id="edge1" class="edge">
<title>Node1&#45;&gt;Node2</title>
<path fill="none" stroke="midnightblue" d="M743.1,-392.4C743.1,-384.47 743.1,-374.46 743.1,-365.86"/>
<polygon fill="midnightblue" stroke="midnightblue" points="746.6,-365.66 743.1,-355.66 739.6,-365.66 746.6,-365.66"/>
</g>
<!-- Node3 -->
<g id="node3" class="node">
<title>Node3</title>
<g id="a_node3"><a xlink:title=" ">
<polygon fill="white" stroke="#bfbfbf" points="354.1,-224.5 354.1,-243.5 404.1,-243.5 404.1,-224.5 354.1,-224.5"/>
<text text-anchor="middle" x="379.1" y="-231.5" font-family="Helvetica,sans-Serif" font-size="10.00">stdio.h</text>
</a>
</g>
</g>
<!-- Node2&#45;&gt;Node3 -->
<g id="edge2" class="edge">
<title>Node2&#45;&gt;Node3</title>
<path fill="none" stroke="midnightblue" d="M689.04,-342.31C610.69,-337.59 470.22,-325.74 427.1,-300 408.9,-289.14 395.46,-268.45 387.5,-253.32"/>
<polygon fill="midnightblue" stroke="midnightblue" points="390.43,-251.35 382.88,-243.92 384.15,-254.44 390.43,-251.35"/>
</g>
<!-- Node4 -->
<g id="node4" class="node">
<title>Node4</title>
<g id="a_node4"><a xlink:href="asf_8h.html" target="_top" xlink:title="Autogenerated API include file for the Atmel Software Framework (ASF)">
<polygon fill="white" stroke="black" points="548.1,-224.5 548.1,-243.5 588.1,-243.5 588.1,-224.5 548.1,-224.5"/>
<text text-anchor="middle" x="568.1" y="-231.5" font-family="Helvetica,sans-Serif" font-size="10.00">asf.h</text>
</a>
</g>
</g>
<!-- Node2&#45;&gt;Node4 -->
<g id="edge3" class="edge">
<title>Node2&#45;&gt;Node4</title>
<path fill="none" stroke="midnightblue" d="M689.08,-338.72C642.17,-332.03 579.42,-319.65 564.1,-300 553.91,-286.93 556.7,-267.51 560.95,-253.3"/>
<polygon fill="midnightblue" stroke="midnightblue" points="564.33,-254.23 564.29,-243.64 557.72,-251.95 564.33,-254.23"/>
</g>
<!-- Node6 -->
<g id="node6" class="node">
<title>Node6</title>
<g id="a_node6"><a xlink:href="conf__board_8h.html" target="_top" xlink:title="User board configuration template.">
<polygon fill="white" stroke="black" points="280.1,-112.5 280.1,-131.5 360.1,-131.5 360.1,-112.5 280.1,-112.5"/>
<text text-anchor="middle" x="320.1" y="-119.5" font-family="Helvetica,sans-Serif" font-size="10.00">conf_board.h</text>
</a>
</g>
</g>
<!-- Node2&#45;&gt;Node6 -->
<g id="edge19" class="edge">
<title>Node2&#45;&gt;Node6</title>
<path fill="none" stroke="midnightblue" d="M689,-343.3C561,-338.91 242.56,-325.69 139.1,-300 78.84,-285.04 45.09,-295.97 11.1,-244 -51.24,-148.67 167.01,-128.42 269.64,-124.14"/>
<polygon fill="midnightblue" stroke="midnightblue" points="269.93,-127.63 279.79,-123.75 269.66,-120.63 269.93,-127.63"/>
</g>
<!-- Node7 -->
<g id="node7" class="node">
<title>Node7</title>
<g id="a_node7"><a xlink:href="board_8h.html" target="_top" xlink:title="Standard board header file.">
<polygon fill="white" stroke="black" points="700.6,-168.5 700.6,-187.5 753.6,-187.5 753.6,-168.5 700.6,-168.5"/>
<text text-anchor="middle" x="727.1" y="-175.5" font-family="Helvetica,sans-Serif" font-size="10.00">board.h</text>
</a>
</g>
</g>
<!-- Node2&#45;&gt;Node7 -->
<g id="edge18" class="edge">
<title>Node2&#45;&gt;Node7</title>
<path fill="none" stroke="midnightblue" d="M742.54,-336.48C741.22,-316.69 737.65,-266.12 733.1,-224 732.17,-215.37 730.93,-205.84 729.82,-197.78"/>
<polygon fill="midnightblue" stroke="midnightblue" points="733.25,-197.02 728.38,-187.61 726.32,-198 733.25,-197.02"/>
</g>
<!-- Node10 -->
<g id="node9" class="node">
<title>Node10</title>
<g id="a_node9"><a xlink:title=" ">
<polygon fill="white" stroke="#bfbfbf" points="949.6,-56.5 949.6,-75.5 1002.6,-75.5 1002.6,-56.5 949.6,-56.5"/>
<text text-anchor="middle" x="976.1" y="-63.5" font-family="Helvetica,sans-Serif" font-size="10.00">stdint.h</text>
</a>
</g>
</g>
<!-- Node2&#45;&gt;Node10 -->
<g id="edge21" class="edge">
<title>Node2&#45;&gt;Node10</title>
<path fill="none" stroke="midnightblue" d="M797.3,-339.94C852.86,-333.67 934.26,-321.15 957.1,-300 979.19,-279.55 976.1,-265.1 976.1,-235 976.1,-235 976.1,-235 976.1,-177 976.1,-144.95 976.1,-107.64 976.1,-85.75"/>
<polygon fill="midnightblue" stroke="midnightblue" points="979.6,-85.56 976.1,-75.56 972.6,-85.56 979.6,-85.56"/>
</g>
<!-- Node17 -->
<g id="node13" class="node">
<title>Node17</title>
<g id="a_node13"><a xlink:title=" ">
<polygon fill="white" stroke="#bfbfbf" points="20.6,-224.5 20.6,-243.5 73.6,-243.5 73.6,-224.5 20.6,-224.5"/>
<text text-anchor="middle" x="47.1" y="-231.5" font-family="Helvetica,sans-Serif" font-size="10.00">avr/io.h</text>
</a>
</g>
</g>
<!-- Node2&#45;&gt;Node17 -->
<g id="edge16" class="edge">
<title>Node2&#45;&gt;Node17</title>
<path fill="none" stroke="midnightblue" d="M689.05,-342.76C570.34,-337.48 290.1,-322.95 198.1,-300 151.33,-288.33 100.54,-263.77 71.4,-248.4"/>
<polygon fill="midnightblue" stroke="midnightblue" points="72.85,-245.21 62.38,-243.57 69.55,-251.38 72.85,-245.21"/>
</g>
<!-- Node18 -->
<g id="node14" class="node">
<title>Node18</title>
<g id="a_node14"><a xlink:title=" ">
<polygon fill="white" stroke="#bfbfbf" points="92.1,-224.5 92.1,-243.5 178.1,-243.5 178.1,-224.5 92.1,-224.5"/>
<text text-anchor="middle" x="135.1" y="-231.5" font-family="Helvetica,sans-Serif" font-size="10.00">avr/interrupt.h</text>
</a>
</g>
</g>
<!-- Node2&#45;&gt;Node18 -->
<g id="edge17" class="edge">
<title>Node2&#45;&gt;Node18</title>
<path fill="none" stroke="midnightblue" d="M688.98,-343.23C577.09,-339.07 323.92,-326.91 242.1,-300 208.29,-288.88 173.95,-265.39 153.59,-249.9"/>
<polygon fill="midnightblue" stroke="midnightblue" points="155.56,-247 145.52,-243.62 151.26,-252.52 155.56,-247"/>
</g>
<!-- Node19 -->
<g id="node15" class="node">
<title>Node19</title>
<g id="a_node15"><a xlink:title=" ">
<polygon fill="white" stroke="#bfbfbf" points="422.1,-224.5 422.1,-243.5 492.1,-243.5 492.1,-224.5 422.1,-224.5"/>
<text text-anchor="middle" x="457.1" y="-231.5" font-family="Helvetica,sans-Serif" font-size="10.00">util/delay.h</text>
</a>
</g>
</g>
<!-- Node2&#45;&gt;Node19 -->
<g id="edge20" class="edge">
<title>Node2&#45;&gt;Node19</title>
<path fill="none" stroke="midnightblue" d="M688.86,-345.16C609.84,-344.1 469,-336.93 437.1,-300 425.45,-286.51 434.49,-266.33 443.87,-252.04"/>
<polygon fill="midnightblue" stroke="midnightblue" points="446.92,-253.8 449.88,-243.63 441.22,-249.74 446.92,-253.8"/>
</g>
<!-- Node20 -->
<g id="node16" class="node">
<title>Node20</title>
<g id="a_node16"><a xlink:href="____adc_____8h.html" target="_top" xlink:title="Header file for adc.c.">
<polygon fill="white" stroke="black" points="196.1,-224.5 196.1,-243.5 260.1,-243.5 260.1,-224.5 196.1,-224.5"/>
<text text-anchor="middle" x="228.1" y="-231.5" font-family="Helvetica,sans-Serif" font-size="10.00">__adc__.h</text>
</a>
</g>
</g>
<!-- Node2&#45;&gt;Node20 -->
<g id="edge22" class="edge">
<title>Node2&#45;&gt;Node20</title>
<path fill="none" stroke="midnightblue" d="M688.73,-342.94C568.92,-337.8 290.44,-323.12 255.1,-300 238.93,-289.42 229.36,-268.96 226,-253.81"/>
<polygon fill="midnightblue" stroke="midnightblue" points="229.42,-252.97 224.64,-243.51 222.48,-253.88 229.42,-252.97"/>
</g>
<!-- Node21 -->
<g id="node17" class="node">
<title>Node21</title>
<g id="a_node17"><a xlink:href="_____i_n_t__0__1_____8h.html" target="_top" xlink:title="Header file for INT_0_1.c.">
<polygon fill="white" stroke="black" points="573.1,-280.5 573.1,-299.5 659.1,-299.5 659.1,-280.5 573.1,-280.5"/>
<text text-anchor="middle" x="616.1" y="-287.5" font-family="Helvetica,sans-Serif" font-size="10.00">__INT_0_1__.h</text>
</a>
</g>
</g>
<!-- Node2&#45;&gt;Node21 -->
<g id="edge24" class="edge">
<title>Node2&#45;&gt;Node21</title>
<path fill="none" stroke="midnightblue" d="M717.89,-336.44C695.24,-327.64 662.48,-313.81 640.19,-303.72"/>
<polygon fill="midnightblue" stroke="midnightblue" points="641.6,-300.52 631.05,-299.52 638.67,-306.88 641.6,-300.52"/>
</g>
<!-- Node22 -->
<g id="node18" class="node">
<title>Node22</title>
<g id="a_node18"><a xlink:href=".html" target="_top" xlink:title=" ">
<polygon fill="white" stroke="black" points="273.1,-280.5 273.1,-299.5 351.1,-299.5 351.1,-280.5 273.1,-280.5"/>
<text text-anchor="middle" x="312.1" y="-287.5" font-family="Helvetica,sans-Serif" font-size="10.00">__pin_map.h</text>
</a>
</g>
</g>
<!-- Node2&#45;&gt;Node22 -->
<g id="edge26" class="edge">
<title>Node2&#45;&gt;Node22</title>
<path fill="none" stroke="midnightblue" d="M688.84,-339.4C615.33,-331.61 480.06,-316.59 365.1,-300 363.83,-299.82 362.54,-299.63 361.24,-299.43"/>
<polygon fill="midnightblue" stroke="midnightblue" points="361.56,-295.94 351.14,-297.86 360.48,-302.86 361.56,-295.94"/>
</g>
<!-- Node23 -->
<g id="node19" class="node">
<title>Node23</title>
<g id="a_node19"><a xlink:href="____timer1_____8h.html" target="_top" xlink:title="Header file for timer1.c.">
<polygon fill="white" stroke="black" points="644.6,-224.5 644.6,-243.5 723.6,-243.5 723.6,-224.5 644.6,-224.5"/>
<text text-anchor="middle" x="684.1" y="-231.5" font-family="Helvetica,sans-Serif" font-size="10.00">__timer1__.h</text>
</a>
</g>
</g>
<!-- Node2&#45;&gt;Node23 -->
<g id="edge39" class="edge">
<title>Node2&#45;&gt;Node23</title>
<path fill="none" stroke="midnightblue" d="M734.63,-336.37C721.64,-318.46 698.93,-276.92 688.58,-252.95"/>
<polygon fill="midnightblue" stroke="midnightblue" points="691.81,-251.6 684.87,-243.59 685.31,-254.18 691.81,-251.6"/>
</g>
<!-- Node24 -->
<g id="node20" class="node">
<title>Node24</title>
<g id="a_node20"><a xlink:href="____timer0_____8h.html" target="_top" xlink:title="Header file for timer0.c.">
<polygon fill="white" stroke="black" points="771.6,-280.5 771.6,-299.5 850.6,-299.5 850.6,-280.5 771.6,-280.5"/>
<text text-anchor="middle" x="811.1" y="-287.5" font-family="Helvetica,sans-Serif" font-size="10.00">__timer0__.h</text>
</a>
</g>
</g>
<!-- Node2&#45;&gt;Node24 -->
<g id="edge37" class="edge">
<title>Node2&#45;&gt;Node24</title>
<path fill="none" stroke="midnightblue" d="M748.91,-336.32C757.53,-328.06 773.08,-315.45 786.6,-305.63"/>
<polygon fill="midnightblue" stroke="midnightblue" points="788.93,-308.27 795.09,-299.65 784.9,-302.55 788.93,-308.27"/>
</g>
<!-- Node25 -->
<g id="node21" class="node">
<title>Node25</title>
<g id="a_node21"><a xlink:href="____timer2_____8h.html" target="_top" xlink:title="Header file for timer2.c.">
<polygon fill="white" stroke="black" points="868.6,-280.5 868.6,-299.5 947.6,-299.5 947.6,-280.5 868.6,-280.5"/>
<text text-anchor="middle" x="908.1" y="-287.5" font-family="Helvetica,sans-Serif" font-size="10.00">__timer2__.h</text>
</a>
</g>
</g>
<!-- Node2&#45;&gt;Node25 -->
<g id="edge40" class="edge">
<title>Node2&#45;&gt;Node25</title>
<path fill="none" stroke="midnightblue" d="M764.16,-336.44C790.15,-327.28 834.55,-312.69 867.26,-302.52"/>
<polygon fill="midnightblue" stroke="midnightblue" points="868.47,-305.81 877,-299.52 866.41,-299.12 868.47,-305.81"/>
</g>
<!-- Node26 -->
<g id="node22" class="node">
<title>Node26</title>
<g id="a_node22"><a xlink:href="____usart_____8h.html" target="_top" xlink:title="Header file for pid.c.">
<polygon fill="white" stroke="black" points="445.6,-280.5 445.6,-299.5 516.6,-299.5 516.6,-280.5 445.6,-280.5"/>
<text text-anchor="middle" x="481.1" y="-287.5" font-family="Helvetica,sans-Serif" font-size="10.00">__usart__.h</text>
</a>
</g>
</g>
<!-- Node2&#45;&gt;Node26 -->
<g id="edge42" class="edge">
<title>Node2&#45;&gt;Node26</title>
<path fill="none" stroke="midnightblue" d="M701.59,-336.44C654.03,-326.64 576.35,-310.63 527.02,-300.46"/>
<polygon fill="midnightblue" stroke="midnightblue" points="527.45,-296.98 516.95,-298.39 526.04,-303.84 527.45,-296.98"/>
</g>
<!-- Node27 -->
<g id="node23" class="node">
<title>Node27</title>
<g id="a_node23"><a xlink:href="____dc__control_____8h.html" target="_top" xlink:title="Header file for dc_control.c.">
<polygon fill="white" stroke="black" points="1004.6,-280.5 1004.6,-299.5 1101.6,-299.5 1101.6,-280.5 1004.6,-280.5"/>
<text text-anchor="middle" x="1053.1" y="-287.5" font-family="Helvetica,sans-Serif" font-size="10.00">__dc_control__.h</text>
</a>
</g>
</g>
<!-- Node2&#45;&gt;Node27 -->
<g id="edge48" class="edge">
<title>Node2&#45;&gt;Node27</title>
<path fill="none" stroke="midnightblue" d="M787.13,-336.44C841.54,-326.59 934.09,-310.46 994.46,-300.3"/>
<polygon fill="midnightblue" stroke="midnightblue" points="995.32,-303.71 1004.6,-298.6 994.16,-296.8 995.32,-303.71"/>
</g>
<!-- Node28 -->
<g id="node24" class="node">
<title>Node28</title>
<g id="a_node24"><a xlink:href="____odometry_____8h.html" target="_top" xlink:title="Header file for odometry.c.">
<polygon fill="white" stroke="black" points="1120.1,-280.5 1120.1,-299.5 1214.1,-299.5 1214.1,-280.5 1120.1,-280.5"/>
<text text-anchor="middle" x="1167.1" y="-287.5" font-family="Helvetica,sans-Serif" font-size="10.00">__odometry__.h</text>
</a>
</g>
</g>
<!-- Node2&#45;&gt;Node28 -->
<g id="edge50" class="edge">
<title>Node2&#45;&gt;Node28</title>
<path fill="none" stroke="midnightblue" d="M797.37,-338.29C867.77,-330.05 994.08,-315.28 1102.1,-300 1104.71,-299.63 1107.38,-299.24 1110.09,-298.84"/>
<polygon fill="midnightblue" stroke="midnightblue" points="1110.62,-302.3 1119.98,-297.34 1109.57,-295.38 1110.62,-302.3"/>
</g>
<!-- Node29 -->
<g id="node25" class="node">
<title>Node29</title>
<g id="a_node25"><a xlink:href="____pwm_____8h.html" target="_top" xlink:title="Header file for pwm.c.">
<polygon fill="white" stroke="black" points="1232.6,-280.5 1232.6,-299.5 1303.6,-299.5 1303.6,-280.5 1232.6,-280.5"/>
<text text-anchor="middle" x="1268.1" y="-287.5" font-family="Helvetica,sans-Serif" font-size="10.00">__pwm__.h</text>
</a>
</g>
</g>
<!-- Node2&#45;&gt;Node29 -->
<g id="edge52" class="edge">
<title>Node2&#45;&gt;Node29</title>
<path fill="none" stroke="midnightblue" d="M797.41,-341.38C885.34,-335.43 1063.79,-322.02 1214.1,-300 1216.74,-299.61 1219.47,-299.17 1222.22,-298.7"/>
<polygon fill="midnightblue" stroke="midnightblue" points="1223.05,-302.11 1232.27,-296.88 1221.81,-295.22 1223.05,-302.11"/>
</g>
<!-- Node30 -->
<g id="node26" class="node">
<title>Node30</title>
<g id="a_node26"><a xlink:href="__pid___8h.html" target="_top" xlink:title="Header file for pid.c.">
<polygon fill="white" stroke="black" points="1155.6,-112.5 1155.6,-131.5 1206.6,-131.5 1206.6,-112.5 1155.6,-112.5"/>
<text text-anchor="middle" x="1181.1" y="-119.5" font-family="Helvetica,sans-Serif" font-size="10.00">_pid_.h</text>
</a>
</g>
</g>
<!-- Node2&#45;&gt;Node30 -->
<g id="edge54" class="edge">
<title>Node2&#45;&gt;Node30</title>
<path fill="none" stroke="midnightblue" d="M797.35,-344.81C932.99,-343.76 1278.53,-337.41 1313.1,-300 1365.03,-243.81 1255.76,-167.66 1205.08,-136.82"/>
<polygon fill="midnightblue" stroke="midnightblue" points="1206.73,-133.72 1196.35,-131.6 1203.14,-139.73 1206.73,-133.72"/>
</g>
<!-- Node31 -->
<g id="node27" class="node">
<title>Node31</title>
<g id="a_node27"><a xlink:href="____format_____8h.html" target="_top" xlink:title="Header file for format.c.">
<polygon fill="white" stroke="black" points="1360.1,-280.5 1360.1,-299.5 1440.1,-299.5 1440.1,-280.5 1360.1,-280.5"/>
<text text-anchor="middle" x="1400.1" y="-287.5" font-family="Helvetica,sans-Serif" font-size="10.00">__format__.h</text>
</a>
</g>
</g>
<!-- Node2&#45;&gt;Node31 -->
<g id="edge56" class="edge">
<title>Node2&#45;&gt;Node31</title>
<path fill="none" stroke="midnightblue" d="M797.45,-342.34C902.21,-337.12 1138.81,-323.87 1337.1,-300 1341.24,-299.5 1345.55,-298.91 1349.89,-298.27"/>
<polygon fill="midnightblue" stroke="midnightblue" points="1350.66,-301.69 1360.02,-296.72 1349.6,-294.77 1350.66,-301.69"/>
</g>
<!-- Node5 -->
<g id="node5" class="node">
<title>Node5</title>
<g id="a_node5"><a xlink:href="user__board_8h.html" target="_top" xlink:title="User board definition template.">
<polygon fill="white" stroke="black" points="488.1,-168.5 488.1,-187.5 568.1,-187.5 568.1,-168.5 488.1,-168.5"/>
<text text-anchor="middle" x="528.1" y="-175.5" font-family="Helvetica,sans-Serif" font-size="10.00">user_board.h</text>
</a>
</g>
</g>
<!-- Node4&#45;&gt;Node5 -->
<g id="edge4" class="edge">
<title>Node4&#45;&gt;Node5</title>
<path fill="none" stroke="midnightblue" d="M561.5,-224.08C555.85,-216.46 547.56,-205.26 540.65,-195.94"/>
<polygon fill="midnightblue" stroke="midnightblue" points="543.35,-193.7 534.58,-187.75 537.72,-197.87 543.35,-193.7"/>
</g>
<!-- Node4&#45;&gt;Node7 -->
<g id="edge6" class="edge">
<title>Node4&#45;&gt;Node7</title>
<path fill="none" stroke="midnightblue" d="M588.24,-226.16C614.33,-217.3 660.23,-201.71 692.09,-190.89"/>
<polygon fill="midnightblue" stroke="midnightblue" points="693.55,-194.09 701.89,-187.56 691.3,-187.46 693.55,-194.09"/>
</g>
<!-- Node8 -->
<g id="node8" class="node">
<title>Node8</title>
<g id="a_node8"><a xlink:href="compiler_8h.html" target="_top" xlink:title="Commonly used includes, types and macros.">
<polygon fill="white" stroke="red" points="686.1,-112.5 686.1,-131.5 754.1,-131.5 754.1,-112.5 686.1,-112.5"/>
<text text-anchor="middle" x="720.1" y="-119.5" font-family="Helvetica,sans-Serif" font-size="10.00">compiler.h</text>
</a>
</g>
</g>
<!-- Node4&#45;&gt;Node8 -->
<g id="edge13" class="edge">
<title>Node4&#45;&gt;Node8</title>
<path fill="none" stroke="midnightblue" d="M585.95,-224.41C602.63,-216.05 627.92,-202.51 648.1,-188 668.9,-173.04 690.41,-152.91 704.44,-139.03"/>
<polygon fill="midnightblue" stroke="midnightblue" points="707.19,-141.22 711.77,-131.67 702.23,-136.28 707.19,-141.22"/>
</g>
<!-- Node13 -->
<g id="node10" class="node">
<title>Node13</title>
<g id="a_node10"><a xlink:href="parts_8h.html" target="_top" xlink:title="Atmel part identification macros.">
<polygon fill="white" stroke="black" points="633.1,-0.5 633.1,-19.5 683.1,-19.5 683.1,-0.5 633.1,-0.5"/>
<text text-anchor="middle" x="658.1" y="-7.5" font-family="Helvetica,sans-Serif" font-size="10.00">parts.h</text>
</a>
</g>
</g>
<!-- Node4&#45;&gt;Node13 -->
<g id="edge15" class="edge">
<title>Node4&#45;&gt;Node13</title>
<path fill="none" stroke="midnightblue" d="M569.78,-224.46C575.99,-193.33 598.15,-86.23 615.1,-56 621.41,-44.74 631.2,-34.19 639.84,-26.14"/>
<polygon fill="midnightblue" stroke="midnightblue" points="642.16,-28.76 647.32,-19.5 637.52,-23.52 642.16,-28.76"/>
</g>
<!-- Node14 -->
<g id="node11" class="node">
<title>Node14</title>
<g id="a_node11"><a xlink:href="interrupt_8h.html" target="_top" xlink:title="Global interrupt management for 8&#45; and 32&#45;bit AVR.">
<polygon fill="white" stroke="black" points="624.1,-56.5 624.1,-75.5 692.1,-75.5 692.1,-56.5 624.1,-56.5"/>
<text text-anchor="middle" x="658.1" y="-63.5" font-family="Helvetica,sans-Serif" font-size="10.00">interrupt.h</text>
</a>
</g>
</g>
<!-- Node4&#45;&gt;Node14 -->
<g id="edge12" class="edge">
<title>Node4&#45;&gt;Node14</title>
<path fill="none" stroke="midnightblue" d="M578.24,-224.21C587.54,-215.72 601.19,-202.09 610.1,-188 631.27,-154.55 645.95,-110.22 653.1,-85.57"/>
<polygon fill="midnightblue" stroke="midnightblue" points="656.53,-86.3 655.85,-75.73 649.79,-84.42 656.53,-86.3"/>
</g>
<!-- Node16 -->
<g id="node12" class="node">
<title>Node16</title>
<g id="a_node12"><a xlink:href="status__codes_8h.html" target="_top" xlink:title="Status code definitions.">
<polygon fill="white" stroke="black" points="380.6,-168.5 380.6,-187.5 469.6,-187.5 469.6,-168.5 380.6,-168.5"/>
<text text-anchor="middle" x="425.1" y="-175.5" font-family="Helvetica,sans-Serif" font-size="10.00">status_codes.h</text>
</a>
</g>
</g>
<!-- Node4&#45;&gt;Node16 -->
<g id="edge14" class="edge">
<title>Node4&#45;&gt;Node16</title>
<path fill="none" stroke="midnightblue" d="M547.92,-225.38C524.47,-216.52 485.45,-201.79 457.69,-191.31"/>
<polygon fill="midnightblue" stroke="midnightblue" points="458.61,-187.91 448.02,-187.65 456.14,-194.46 458.61,-187.91"/>
</g>
<!-- Node5&#45;&gt;Node6 -->
<g id="edge5" class="edge">
<title>Node5&#45;&gt;Node6</title>
<path fill="none" stroke="midnightblue" d="M495.14,-168.44C459.31,-159.14 401.94,-144.25 362.71,-134.06"/>
<polygon fill="midnightblue" stroke="midnightblue" points="363.46,-130.64 352.91,-131.52 361.7,-137.42 363.46,-130.64"/>
</g>
<!-- Node7&#45;&gt;Node8 -->
<g id="edge7" class="edge">
<title>Node7&#45;&gt;Node8</title>
<path fill="none" stroke="midnightblue" d="M725.95,-168.08C725.02,-160.93 723.68,-150.64 722.52,-141.69"/>
<polygon fill="midnightblue" stroke="midnightblue" points="725.99,-141.22 721.24,-131.75 719.05,-142.12 725.99,-141.22"/>
</g>
<!-- Node8&#45;&gt;Node10 -->
<g id="edge8" class="edge">
<title>Node8&#45;&gt;Node10</title>
<path fill="none" stroke="midnightblue" d="M754.36,-113.77C802.57,-103.6 890.05,-85.15 939.49,-74.72"/>
<polygon fill="midnightblue" stroke="midnightblue" points="940.38,-78.11 949.44,-72.62 938.93,-71.26 940.38,-78.11"/>
</g>
<!-- Node8&#45;&gt;Node13 -->
<g id="edge9" class="edge">
<title>Node8&#45;&gt;Node13</title>
<path fill="none" stroke="midnightblue" d="M718.94,-112.49C716.89,-99.57 711.8,-74.53 701.1,-56 694.71,-44.94 685.06,-34.49 676.51,-26.46"/>
<polygon fill="midnightblue" stroke="midnightblue" points="678.58,-23.62 668.8,-19.55 673.91,-28.83 678.58,-23.62"/>
</g>
<!-- Node8&#45;&gt;Node14 -->
<g id="edge10" class="edge">
<title>Node8&#45;&gt;Node14</title>
<path fill="none" stroke="midnightblue" d="M710.14,-112.32C700.97,-104.34 687.16,-92.31 676.07,-82.65"/>
<polygon fill="midnightblue" stroke="midnightblue" points="678.08,-79.76 668.24,-75.83 673.49,-85.04 678.08,-79.76"/>
</g>
<!-- Node14&#45;&gt;Node13 -->
<g id="edge11" class="edge">
<title>Node14&#45;&gt;Node13</title>
<path fill="none" stroke="midnightblue" d="M658.1,-56.08C658.1,-49.01 658.1,-38.86 658.1,-29.99"/>
<polygon fill="midnightblue" stroke="midnightblue" points="661.6,-29.75 658.1,-19.75 654.6,-29.75 661.6,-29.75"/>
</g>
<!-- Node20&#45;&gt;Node2 -->
<g id="edge23" class="edge">
<title>Node20&#45;&gt;Node2</title>
<path fill="none" stroke="midnightblue" d="M235.51,-243.51C242.9,-257.89 252.81,-286.72 273.1,-300 306.55,-321.88 557.79,-336.2 678.66,-342.03"/>
<polygon fill="midnightblue" stroke="midnightblue" points="678.73,-345.54 688.89,-342.52 679.06,-338.55 678.73,-345.54"/>
</g>
<!-- Node21&#45;&gt;Node2 -->
<g id="edge25" class="edge">
<title>Node21&#45;&gt;Node2</title>
<path fill="none" stroke="midnightblue" d="M641.21,-299.52C663.83,-308.31 696.59,-322.13 718.91,-332.23"/>
<polygon fill="midnightblue" stroke="midnightblue" points="717.52,-335.45 728.07,-336.44 720.44,-329.09 717.52,-335.45"/>
</g>
<!-- Node22&#45;&gt;Node3 -->
<g id="edge27" class="edge">
<title>Node22&#45;&gt;Node3</title>
<path fill="none" stroke="midnightblue" d="M322.87,-280.32C332.87,-272.26 347.99,-260.08 360.03,-250.37"/>
<polygon fill="midnightblue" stroke="midnightblue" points="362.55,-252.83 368.14,-243.83 358.16,-247.38 362.55,-252.83"/>
</g>
<!-- Node22&#45;&gt;Node4 -->
<g id="edge28" class="edge">
<title>Node22&#45;&gt;Node4</title>
<path fill="none" stroke="midnightblue" d="M351.26,-280.74C402.59,-269.91 491.52,-251.15 537.94,-241.36"/>
<polygon fill="midnightblue" stroke="midnightblue" points="538.91,-244.73 547.97,-239.25 537.47,-237.89 538.91,-244.73"/>
</g>
<!-- Node22&#45;&gt;Node6 -->
<g id="edge32" class="edge">
<title>Node22&#45;&gt;Node6</title>
<path fill="none" stroke="midnightblue" d="M312.53,-280.08C313.79,-253.95 317.49,-177.21 319.21,-141.58"/>
<polygon fill="midnightblue" stroke="midnightblue" points="322.7,-141.73 319.69,-131.57 315.71,-141.39 322.7,-141.73"/>
</g>
<!-- Node22&#45;&gt;Node7 -->
<g id="edge31" class="edge">
<title>Node22&#45;&gt;Node7</title>
<path fill="none" stroke="midnightblue" d="M313.82,-280.1C317.12,-265.68 325.8,-237.47 345.1,-224 373.12,-204.45 600.46,-187.4 690.54,-181.35"/>
<polygon fill="midnightblue" stroke="midnightblue" points="690.82,-184.83 700.57,-180.68 690.36,-177.85 690.82,-184.83"/>
</g>
<!-- Node22&#45;&gt;Node17 -->
<g id="edge29" class="edge">
<title>Node22&#45;&gt;Node17</title>
<path fill="none" stroke="midnightblue" d="M273.08,-281.96C229.36,-273.93 156.17,-260.08 83.57,-244.01"/>
<polygon fill="midnightblue" stroke="midnightblue" points="84.32,-240.59 73.8,-241.84 82.8,-247.43 84.32,-240.59"/>
</g>
<!-- Node22&#45;&gt;Node18 -->
<g id="edge30" class="edge">
<title>Node22&#45;&gt;Node18</title>
<path fill="none" stroke="midnightblue" d="M284.05,-280.44C254.02,-271.28 206.19,-256.69 172.86,-246.52"/>
<polygon fill="midnightblue" stroke="midnightblue" points="173.6,-243.09 163.02,-243.52 171.56,-249.78 173.6,-243.09"/>
</g>
<!-- Node22&#45;&gt;Node19 -->
<g id="edge33" class="edge">
<title>Node22&#45;&gt;Node19</title>
<path fill="none" stroke="midnightblue" d="M335.08,-280.44C359.26,-271.44 397.52,-257.19 424.75,-247.05"/>
<polygon fill="midnightblue" stroke="midnightblue" points="426.08,-250.29 434.23,-243.52 423.64,-243.73 426.08,-250.29"/>
</g>
<!-- Node22&#45;&gt;Node20 -->
<g id="edge34" class="edge">
<title>Node22&#45;&gt;Node20</title>
<path fill="none" stroke="midnightblue" d="M298.61,-280.32C285.5,-271.9 265.39,-258.97 249.99,-249.07"/>
<polygon fill="midnightblue" stroke="midnightblue" points="251.87,-246.12 241.56,-243.65 248.08,-252.01 251.87,-246.12"/>
</g>
<!-- Node22&#45;&gt;Node23 -->
<g id="edge35" class="edge">
<title>Node22&#45;&gt;Node23</title>
<path fill="none" stroke="midnightblue" d="M351.21,-283.32C419.27,-273.44 559.36,-253.11 634.27,-242.23"/>
<polygon fill="midnightblue" stroke="midnightblue" points="635,-245.66 644.4,-240.76 634,-238.74 635,-245.66"/>
</g>
<!-- Node23&#45;&gt;Node2 -->
<g id="edge36" class="edge">
<title>Node23&#45;&gt;Node2</title>
<path fill="none" stroke="midnightblue" d="M692.54,-243.59C705.52,-261.47 728.23,-303 738.59,-327"/>
<polygon fill="midnightblue" stroke="midnightblue" points="735.37,-328.37 742.31,-336.37 741.88,-325.78 735.37,-328.37"/>
</g>
<!-- Node24&#45;&gt;Node2 -->
<g id="edge38" class="edge">
<title>Node24&#45;&gt;Node2</title>
<path fill="none" stroke="midnightblue" d="M805.13,-299.83C796.47,-308.11 781.02,-320.62 767.59,-330.38"/>
<polygon fill="midnightblue" stroke="midnightblue" points="765.3,-327.71 759.14,-336.32 769.33,-333.43 765.3,-327.71"/>
</g>
<!-- Node25&#45;&gt;Node2 -->
<g id="edge41" class="edge">
<title>Node25&#45;&gt;Node2</title>
<path fill="none" stroke="midnightblue" d="M887.16,-299.52C861.22,-308.66 816.83,-323.26 784.09,-333.44"/>
<polygon fill="midnightblue" stroke="midnightblue" points="782.86,-330.15 774.33,-336.44 784.92,-336.84 782.86,-330.15"/>
</g>
<!-- Node26&#45;&gt;Node3 -->
<g id="edge44" class="edge">
<title>Node26&#45;&gt;Node3</title>
<path fill="none" stroke="midnightblue" d="M464.71,-280.32C448.43,-271.7 423.23,-258.36 404.38,-248.39"/>
<polygon fill="midnightblue" stroke="midnightblue" points="405.92,-245.24 395.45,-243.65 402.65,-251.43 405.92,-245.24"/>
</g>
<!-- Node26&#45;&gt;Node4 -->
<g id="edge43" class="edge">
<title>Node26&#45;&gt;Node4</title>
<path fill="none" stroke="midnightblue" d="M495.08,-280.32C508.65,-271.9 529.48,-258.97 545.43,-249.07"/>
<polygon fill="midnightblue" stroke="midnightblue" points="547.51,-251.9 554.16,-243.65 543.82,-245.95 547.51,-251.9"/>
</g>
<!-- Node26&#45;&gt;Node6 -->
<g id="edge46" class="edge">
<title>Node26&#45;&gt;Node6</title>
<path fill="none" stroke="midnightblue" d="M488.41,-280.14C498.5,-266.75 514.09,-241.12 501.1,-224 465.11,-176.59 421.76,-220.82 372.1,-188 353.71,-175.84 338.77,-155.09 329.7,-140.3"/>
<polygon fill="midnightblue" stroke="midnightblue" points="332.68,-138.46 324.61,-131.6 326.64,-142 332.68,-138.46"/>
</g>
<!-- Node26&#45;&gt;Node7 -->
<g id="edge45" class="edge">
<title>Node26&#45;&gt;Node7</title>
<path fill="none" stroke="midnightblue" d="M505.4,-280.41C529.08,-271.84 565.96,-257.98 597.1,-244 614.87,-236.02 618.7,-232.76 636.1,-224 657.62,-213.16 682.1,-201.07 700.25,-192.15"/>
<polygon fill="midnightblue" stroke="midnightblue" points="702.18,-195.1 709.62,-187.55 699.1,-188.82 702.18,-195.1"/>
</g>
<!-- Node26&#45;&gt;Node19 -->
<g id="edge47" class="edge">
<title>Node26&#45;&gt;Node19</title>
<path fill="none" stroke="midnightblue" d="M477.14,-280.08C473.89,-272.77 469.18,-262.18 465.15,-253.1"/>
<polygon fill="midnightblue" stroke="midnightblue" points="468.25,-251.47 460.99,-243.75 461.85,-254.31 468.25,-251.47"/>
</g>
<!-- Node27&#45;&gt;Node2 -->
<g id="edge49" class="edge">
<title>Node27&#45;&gt;Node2</title>
<path fill="none" stroke="midnightblue" d="M1009.29,-299.52C956.62,-309.06 867.95,-324.52 807.51,-334.73"/>
<polygon fill="midnightblue" stroke="midnightblue" points="806.59,-331.33 797.31,-336.44 807.75,-338.24 806.59,-331.33"/>
</g>
<!-- Node28&#45;&gt;Node2 -->
<g id="edge51" class="edge">
<title>Node28&#45;&gt;Node2</title>
<path fill="none" stroke="midnightblue" d="M1123.35,-299.53C1122.26,-299.69 1121.17,-299.85 1120.1,-300 1010.84,-315.45 882.89,-330.39 807.57,-338.57"/>
<polygon fill="midnightblue" stroke="midnightblue" points="806.86,-335.13 797.3,-339.68 807.62,-342.09 806.86,-335.13"/>
</g>
<!-- Node29&#45;&gt;Node2 -->
<g id="edge53" class="edge">
<title>Node29&#45;&gt;Node2</title>
<path fill="none" stroke="midnightblue" d="M1234.97,-299.56C1234,-299.72 1233.05,-299.86 1232.1,-300 1081.04,-322.13 901.55,-335.57 807.58,-341.47"/>
<polygon fill="midnightblue" stroke="midnightblue" points="807.15,-337.99 797.38,-342.1 807.58,-344.97 807.15,-337.99"/>
</g>
<!-- Node30&#45;&gt;Node10 -->
<g id="edge55" class="edge">
<title>Node30&#45;&gt;Node10</title>
<path fill="none" stroke="midnightblue" d="M1155.55,-114.27C1119.54,-104.78 1053.65,-87.43 1012.51,-76.59"/>
<polygon fill="midnightblue" stroke="midnightblue" points="1013.18,-73.15 1002.62,-73.99 1011.4,-79.92 1013.18,-73.15"/>
</g>
<!-- Node31&#45;&gt;Node2 -->
<g id="edge57" class="edge">
<title>Node31&#45;&gt;Node2</title>
<path fill="none" stroke="midnightblue" d="M1359.98,-299.38C1358.33,-299.6 1356.71,-299.81 1355.1,-300 1156.5,-323.91 919.46,-337.16 807.53,-342.37"/>
<polygon fill="midnightblue" stroke="midnightblue" points="807.25,-338.88 797.42,-342.83 807.57,-345.87 807.25,-338.88"/>
</g>
</g>
</svg>
        <g id="navigator" transform="translate(0 0)" fill="#404254">
                <rect fill="#f2f5e9" fill-opacity="0.5" stroke="#606060" stroke-width=".5" x="0" y="0" width="60" height="60"/>
                <use id="zoomplus" xlink:href="#zoomPlus" x="17" y="9" onmousedown="handleZoom(evt,'in')"/>
                <use id="zoomminus" xlink:href="#zoomMin" x="42" y="9" onmousedown="handleZoom(evt,'out')"/>
                <use id="reset" xlink:href="#resetDef" x="30" y="36" onmousedown="handleReset()"/>
                <g id="arrowUp" xlink:href="#dirArrow" transform="translate(30 24)" onmousedown="handlePan(0,-1)">
                  <use xlink:href="#rim" fill="#404040">
                        <set attributeName="fill" to="#808080" begin="arrowUp.mouseover" end="arrowUp.mouseout"/>
                  </use>
                  <path fill="none" stroke="white" stroke-width="1.5" d="M0,-3.0v7 M-2.5,-0.5L0,-3.0L2.5,-0.5"/>
                </g>
                <g id="arrowRight" xlink:href="#dirArrow" transform="rotate(90) translate(36 -43)" onmousedown="handlePan(1,0)">
                  <use xlink:href="#rim" fill="#404040">
                        <set attributeName="fill" to="#808080" begin="arrowRight.mouseover" end="arrowRight.mouseout"/>
                  </use>
                  <path fill="none" stroke="white" stroke-width="1.5" d="M0,-3.0v7 M-2.5,-0.5L0,-3.0L2.5,-0.5"/>
                </g>
                <g id="arrowDown" xlink:href="#dirArrow" transform="rotate(180) translate(-30 -48)" onmousedown="handlePan(0,1)">
                  <use xlink:href="#rim" fill="#404040">
                        <set attributeName="fill" to="#808080" begin="arrowDown.mouseover" end="arrowDown.mouseout"/>
                  </use>
                  <path fill="none" stroke="white" stroke-width="1.5" d="M0,-3.0v7 M-2.5,-0.5L0,-3.0L2.5,-0.5"/>
                </g>
                <g id="arrowLeft" xlink:href="#dirArrow" transform="rotate(270) translate(-36 17)" onmousedown="handlePan(-1,0)">
                  <use xlink:href="#rim" fill="#404040">
                        <set attributeName="fill" to="#808080" begin="arrowLeft.mouseover" end="arrowLeft.mouseout"/>
                  </use>
                  <path fill="none" stroke="white" stroke-width="1.5" d="M0,-3.0v7 M-2.5,-0.5L0,-3.0L2.5,-0.5"/>
                </g>
        </g>
        <svg viewBox="0 0 15 15" width="100%" height="30px" preserveAspectRatio="xMaxYMin meet">
         <g id="arrow_out" transform="scale(0.3 0.3)">
          <a xlink:href="____kinematics_____8h__incl_org.svg" target="_base">
           <rect id="button" ry="5" rx="5" y="6" x="6" height="38" width="38"
                fill="#f2f5e9" fill-opacity="0.5" stroke="#606060" stroke-width="1.0"/>
           <path id="arrow"
             d="M 11.500037,31.436501 C 11.940474,20.09759 22.043105,11.32322 32.158766,21.979434 L 37.068811,17.246167 C 37.068811,17.246167 37.088388,32 37.088388,32 L 22.160133,31.978069 C 22.160133,31.978069 26.997745,27.140456 26.997745,27.140456 C 18.528582,18.264221 13.291696,25.230495 11.500037,31.436501 z"
             style="fill:#404040;"/>
          </a>
         </g>
        </svg>
</svg>
