<?xml version="1.0" encoding="UTF-8" standalone="no"?>
<!DOCTYPE svg PUBLIC "-//W3C//DTD SVG 1.1//EN"
 "http://www.w3.org/Graphics/SVG/1.1/DTD/svg11.dtd">
<!-- Generated by graphviz version 2.43.0 (0)
 -->
<!-- Title: swarm_bot_cpp/src/__swarm_wold__.h Pages: 1 -->
<!--zoomable 375 -->
<svg id="main" version="1.1" xmlns="http://www.w3.org/2000/svg" xmlns:xlink="http://www.w3.org/1999/xlink" xml:space="preserve" onload="init(evt)">
<style type="text/css"><![CDATA[
.edge:hover path { stroke: red; }
.edge:hover polygon { stroke: red; fill: red; }
]]></style>
<script type="text/javascript"><![CDATA[
var edges = document.getElementsByTagName('g');
if (edges && edges.length) {
  for (var i=0;i<edges.length;i++) {
    if (edges[i].id.substr(0,4)=='edge') {
      edges[i].setAttribute('class','edge');
    }
  }
}
]]></script>
        <defs>
                <circle id="rim" cx="0" cy="0" r="7"/>
                <circle id="rim2" cx="0" cy="0" r="3.5"/>
                <g id="zoomPlus">
                        <use xlink:href="#rim" fill="#404040">
                                <set attributeName="fill" to="#808080" begin="zoomplus.mouseover" end="zoomplus.mouseout"/>
                        </use>
                        <path d="M-4,0h8M0,-4v8" fill="none" stroke="white" stroke-width="1.5" pointer-events="none"/>
                </g>
                <g id="zoomMin">
                        <use xlink:href="#rim" fill="#404040">
                                <set attributeName="fill" to="#808080" begin="zoomminus.mouseover" end="zoomminus.mouseout"/>
                        </use>
                        <path d="M-4,0h8" fill="none" stroke="white" stroke-width="1.5" pointer-events="none"/>
                </g>
                <g id="dirArrow">
                        <path fill="none" stroke="white" stroke-width="1.5" d="M0,-3.0v7 M-2.5,-0.5L0,-3.0L2.5,-0.5"/>
                </g>
               <g id="resetDef">
                       <use xlink:href="#rim2" fill="#404040">
                               <set attributeName="fill" to="#808080" begin="reset.mouseover" end="reset.mouseout"/>
                       </use>
               </g>
        </defs>

<script type="text/javascript">
var viewWidth = 1448;
var viewHeight = 375;
var sectionId = 'dynsection-0';
</script>
<script xlink:href="svgpan.js"/>
<svg id="graph" class="graph">
<g id="viewport">
<title>swarm_bot_cpp/src/__swarm_wold__.h</title>
<polygon fill="white" stroke="transparent" points="-4,4 -4,-371 1444.1,-371 1444.1,4 -4,4"/>
<!-- Node1 -->
<g id="node1" class="node">
<title>Node1</title>
<g id="a_node1"><a xlink:title="Header file for dummy purposes.">
<polygon fill="#bfbfbf" stroke="black" points="686.6,-336.5 686.6,-366.5 799.6,-366.5 799.6,-336.5 686.6,-336.5"/>
<text text-anchor="start" x="694.6" y="-354.5" font-family="Helvetica,sans-Serif" font-size="10.00">swarm_bot_cpp/src/</text>
<text text-anchor="middle" x="743.1" y="-343.5" font-family="Helvetica,sans-Serif" font-size="10.00">__swarm_wold__.h</text>
</a>
</g>
</g>
<!-- Node2 -->
<g id="node2" class="node">
<title>Node2</title>
<g id="a_node2"><a xlink:title=" ">
<polygon fill="white" stroke="#bfbfbf" points="354.1,-224.5 354.1,-243.5 404.1,-243.5 404.1,-224.5 354.1,-224.5"/>
<text text-anchor="middle" x="379.1" y="-231.5" font-family="Helvetica,sans-Serif" font-size="10.00">stdio.h</text>
</a>
</g>
</g>
<!-- Node1&#45;&gt;Node2 -->
<g id="edge1" class="edge">
<title>Node1&#45;&gt;Node2</title>
<path fill="none" stroke="midnightblue" d="M686.39,-346.58C607.53,-340.28 469.64,-325.88 427.1,-300 408.99,-288.98 395.53,-268.32 387.55,-253.24"/>
<polygon fill="midnightblue" stroke="midnightblue" points="390.49,-251.28 382.91,-243.88 384.21,-254.39 390.49,-251.28"/>
</g>
<!-- Node3 -->
<g id="node3" class="node">
<title>Node3</title>
<g id="a_node3"><a xlink:href="asf_8h.html" target="_top" xlink:title="Autogenerated API include file for the Atmel Software Framework (ASF)">
<polygon fill="white" stroke="black" points="548.1,-224.5 548.1,-243.5 588.1,-243.5 588.1,-224.5 548.1,-224.5"/>
<text text-anchor="middle" x="568.1" y="-231.5" font-family="Helvetica,sans-Serif" font-size="10.00">asf.h</text>
</a>
</g>
</g>
<!-- Node1&#45;&gt;Node3 -->
<g id="edge2" class="edge">
<title>Node1&#45;&gt;Node3</title>
<path fill="none" stroke="midnightblue" d="M686.27,-342.04C639.64,-333.79 578.96,-319.63 564.1,-300 554.1,-286.78 556.86,-267.38 561.06,-253.22"/>
<polygon fill="midnightblue" stroke="midnightblue" points="564.42,-254.19 564.35,-243.6 557.8,-251.92 564.42,-254.19"/>
</g>
<!-- Node5 -->
<g id="node5" class="node">
<title>Node5</title>
<g id="a_node5"><a xlink:href="conf__board_8h.html" target="_top" xlink:title="User board configuration template.">
<polygon fill="white" stroke="black" points="280.1,-112.5 280.1,-131.5 360.1,-131.5 360.1,-112.5 280.1,-112.5"/>
<text text-anchor="middle" x="320.1" y="-119.5" font-family="Helvetica,sans-Serif" font-size="10.00">conf_board.h</text>
</a>
</g>
</g>
<!-- Node1&#45;&gt;Node5 -->
<g id="edge18" class="edge">
<title>Node1&#45;&gt;Node5</title>
<path fill="none" stroke="midnightblue" d="M686.12,-348.12C556.28,-342.32 241.75,-325.98 139.1,-300 78.9,-284.76 45.09,-295.97 11.1,-244 -51.24,-148.67 167.01,-128.42 269.64,-124.14"/>
<polygon fill="midnightblue" stroke="midnightblue" points="269.93,-127.63 279.79,-123.75 269.66,-120.63 269.93,-127.63"/>
</g>
<!-- Node6 -->
<g id="node6" class="node">
<title>Node6</title>
<g id="a_node6"><a xlink:href="board_8h.html" target="_top" xlink:title="Standard board header file.">
<polygon fill="white" stroke="black" points="700.6,-168.5 700.6,-187.5 753.6,-187.5 753.6,-168.5 700.6,-168.5"/>
<text text-anchor="middle" x="727.1" y="-175.5" font-family="Helvetica,sans-Serif" font-size="10.00">board.h</text>
</a>
</g>
</g>
<!-- Node1&#45;&gt;Node6 -->
<g id="edge17" class="edge">
<title>Node1&#45;&gt;Node6</title>
<path fill="none" stroke="midnightblue" d="M742.24,-336.44C740.74,-313.06 737.43,-264.75 733.1,-224 732.19,-215.37 730.95,-205.84 729.83,-197.78"/>
<polygon fill="midnightblue" stroke="midnightblue" points="733.26,-197.02 728.39,-187.61 726.33,-198 733.26,-197.02"/>
</g>
<!-- Node9 -->
<g id="node8" class="node">
<title>Node9</title>
<g id="a_node8"><a xlink:title=" ">
<polygon fill="white" stroke="#bfbfbf" points="949.6,-56.5 949.6,-75.5 1002.6,-75.5 1002.6,-56.5 949.6,-56.5"/>
<text text-anchor="middle" x="976.1" y="-63.5" font-family="Helvetica,sans-Serif" font-size="10.00">stdint.h</text>
</a>
</g>
</g>
<!-- Node1&#45;&gt;Node9 -->
<g id="edge20" class="edge">
<title>Node1&#45;&gt;Node9</title>
<path fill="none" stroke="midnightblue" d="M799.66,-343.65C855.18,-335.81 934.7,-321.25 957.1,-300 978.94,-279.29 976.1,-265.1 976.1,-235 976.1,-235 976.1,-235 976.1,-177 976.1,-144.95 976.1,-107.64 976.1,-85.75"/>
<polygon fill="midnightblue" stroke="midnightblue" points="979.6,-85.56 976.1,-75.56 972.6,-85.56 979.6,-85.56"/>
</g>
<!-- Node16 -->
<g id="node12" class="node">
<title>Node16</title>
<g id="a_node12"><a xlink:title=" ">
<polygon fill="white" stroke="#bfbfbf" points="20.6,-224.5 20.6,-243.5 73.6,-243.5 73.6,-224.5 20.6,-224.5"/>
<text text-anchor="middle" x="47.1" y="-231.5" font-family="Helvetica,sans-Serif" font-size="10.00">avr/io.h</text>
</a>
</g>
</g>
<!-- Node1&#45;&gt;Node16 -->
<g id="edge15" class="edge">
<title>Node1&#45;&gt;Node16</title>
<path fill="none" stroke="midnightblue" d="M686.41,-351.04C586.26,-350.73 372.14,-344.34 198.1,-300 151.39,-288.1 100.58,-263.61 71.42,-248.32"/>
<polygon fill="midnightblue" stroke="midnightblue" points="72.87,-245.13 62.4,-243.52 69.58,-251.31 72.87,-245.13"/>
</g>
<!-- Node17 -->
<g id="node13" class="node">
<title>Node17</title>
<g id="a_node13"><a xlink:title=" ">
<polygon fill="white" stroke="#bfbfbf" points="92.1,-224.5 92.1,-243.5 178.1,-243.5 178.1,-224.5 92.1,-224.5"/>
<text text-anchor="middle" x="135.1" y="-231.5" font-family="Helvetica,sans-Serif" font-size="10.00">avr/interrupt.h</text>
</a>
</g>
</g>
<!-- Node1&#45;&gt;Node17 -->
<g id="edge16" class="edge">
<title>Node1&#45;&gt;Node17</title>
<path fill="none" stroke="midnightblue" d="M686.39,-347.94C573.22,-342.32 323.23,-327.17 242.1,-300 208.35,-288.7 173.99,-265.25 153.62,-249.83"/>
<polygon fill="midnightblue" stroke="midnightblue" points="155.59,-246.93 145.54,-243.58 151.3,-252.46 155.59,-246.93"/>
</g>
<!-- Node18 -->
<g id="node14" class="node">
<title>Node18</title>
<g id="a_node14"><a xlink:title=" ">
<polygon fill="white" stroke="#bfbfbf" points="422.1,-224.5 422.1,-243.5 492.1,-243.5 492.1,-224.5 422.1,-224.5"/>
<text text-anchor="middle" x="457.1" y="-231.5" font-family="Helvetica,sans-Serif" font-size="10.00">util/delay.h</text>
</a>
</g>
</g>
<!-- Node1&#45;&gt;Node18 -->
<g id="edge19" class="edge">
<title>Node1&#45;&gt;Node18</title>
<path fill="none" stroke="midnightblue" d="M686.5,-349.56C607,-346.91 468.45,-336.95 437.1,-300 425.57,-286.41 434.59,-266.25 443.93,-251.99"/>
<polygon fill="midnightblue" stroke="midnightblue" points="446.96,-253.78 449.91,-243.6 441.26,-249.72 446.96,-253.78"/>
</g>
<!-- Node19 -->
<g id="node15" class="node">
<title>Node19</title>
<g id="a_node15"><a xlink:href="____adc_____8h.html" target="_top" xlink:title="Header file for adc.c.">
<polygon fill="white" stroke="black" points="196.1,-224.5 196.1,-243.5 260.1,-243.5 260.1,-224.5 196.1,-224.5"/>
<text text-anchor="middle" x="228.1" y="-231.5" font-family="Helvetica,sans-Serif" font-size="10.00">__adc__.h</text>
</a>
</g>
</g>
<!-- Node1&#45;&gt;Node19 -->
<g id="edge21" class="edge">
<title>Node1&#45;&gt;Node19</title>
<path fill="none" stroke="midnightblue" d="M686.27,-350.94C572.92,-350.92 324.12,-345.72 255.1,-300 239.16,-289.44 229.61,-269.32 226.14,-254.25"/>
<polygon fill="midnightblue" stroke="midnightblue" points="229.55,-253.35 224.67,-243.95 222.62,-254.34 229.55,-253.35"/>
</g>
<!-- Node20 -->
<g id="node16" class="node">
<title>Node20</title>
<g id="a_node16"><a xlink:href="_____i_n_t__0__1_____8h.html" target="_top" xlink:title="Header file for INT_0_1.c.">
<polygon fill="white" stroke="black" points="573.1,-280.5 573.1,-299.5 659.1,-299.5 659.1,-280.5 573.1,-280.5"/>
<text text-anchor="middle" x="616.1" y="-287.5" font-family="Helvetica,sans-Serif" font-size="10.00">__INT_0_1__.h</text>
</a>
</g>
</g>
<!-- Node1&#45;&gt;Node20 -->
<g id="edge23" class="edge">
<title>Node1&#45;&gt;Node20</title>
<path fill="none" stroke="midnightblue" d="M707.16,-336.4C685.18,-326.68 657.83,-313.86 638.78,-304.31"/>
<polygon fill="midnightblue" stroke="midnightblue" points="640.15,-301.08 629.65,-299.66 636.97,-307.32 640.15,-301.08"/>
</g>
<!-- Node21 -->
<g id="node17" class="node">
<title>Node21</title>
<g id="a_node17"><a xlink:href=".html" target="_top" xlink:title=" ">
<polygon fill="white" stroke="black" points="273.1,-280.5 273.1,-299.5 351.1,-299.5 351.1,-280.5 273.1,-280.5"/>
<text text-anchor="middle" x="312.1" y="-287.5" font-family="Helvetica,sans-Serif" font-size="10.00">__pin_map.h</text>
</a>
</g>
</g>
<!-- Node1&#45;&gt;Node21 -->
<g id="edge25" class="edge">
<title>Node1&#45;&gt;Node21</title>
<path fill="none" stroke="midnightblue" d="M686.34,-343.55C612.31,-334.35 478.84,-317.25 365.1,-300 363.83,-299.81 362.54,-299.61 361.24,-299.41"/>
<polygon fill="midnightblue" stroke="midnightblue" points="361.58,-295.92 351.15,-297.79 360.47,-302.83 361.58,-295.92"/>
</g>
<!-- Node22 -->
<g id="node18" class="node">
<title>Node22</title>
<g id="a_node18"><a xlink:href="____timer1_____8h.html" target="_top" xlink:title="Header file for timer1.c.">
<polygon fill="white" stroke="black" points="644.6,-224.5 644.6,-243.5 723.6,-243.5 723.6,-224.5 644.6,-224.5"/>
<text text-anchor="middle" x="684.1" y="-231.5" font-family="Helvetica,sans-Serif" font-size="10.00">__timer1__.h</text>
</a>
</g>
</g>
<!-- Node1&#45;&gt;Node22 -->
<g id="edge38" class="edge">
<title>Node1&#45;&gt;Node22</title>
<path fill="none" stroke="midnightblue" d="M731.25,-336.34C717.89,-315.43 697.75,-276.31 688.35,-253.27"/>
<polygon fill="midnightblue" stroke="midnightblue" points="691.54,-251.81 684.76,-243.67 684.98,-254.26 691.54,-251.81"/>
</g>
<!-- Node23 -->
<g id="node19" class="node">
<title>Node23</title>
<g id="a_node19"><a xlink:href="____timer0_____8h.html" target="_top" xlink:title="Header file for timer0.c.">
<polygon fill="white" stroke="black" points="771.6,-280.5 771.6,-299.5 850.6,-299.5 850.6,-280.5 771.6,-280.5"/>
<text text-anchor="middle" x="811.1" y="-287.5" font-family="Helvetica,sans-Serif" font-size="10.00">__timer0__.h</text>
</a>
</g>
</g>
<!-- Node1&#45;&gt;Node23 -->
<g id="edge36" class="edge">
<title>Node1&#45;&gt;Node23</title>
<path fill="none" stroke="midnightblue" d="M753.38,-336.4C762.69,-327.22 776.33,-315.26 788.11,-305.92"/>
<polygon fill="midnightblue" stroke="midnightblue" points="790.47,-308.52 796.28,-299.66 786.21,-302.96 790.47,-308.52"/>
</g>
<!-- Node24 -->
<g id="node20" class="node">
<title>Node24</title>
<g id="a_node20"><a xlink:href="____timer2_____8h.html" target="_top" xlink:title="Header file for timer2.c.">
<polygon fill="white" stroke="black" points="868.6,-280.5 868.6,-299.5 947.6,-299.5 947.6,-280.5 868.6,-280.5"/>
<text text-anchor="middle" x="908.1" y="-287.5" font-family="Helvetica,sans-Serif" font-size="10.00">__timer2__.h</text>
</a>
</g>
</g>
<!-- Node1&#45;&gt;Node24 -->
<g id="edge39" class="edge">
<title>Node1&#45;&gt;Node24</title>
<path fill="none" stroke="midnightblue" d="M776.36,-336.4C803.44,-326.16 841.52,-312.47 869.84,-302.81"/>
<polygon fill="midnightblue" stroke="midnightblue" points="871.07,-306.09 879.42,-299.57 868.83,-299.46 871.07,-306.09"/>
</g>
<!-- Node25 -->
<g id="node21" class="node">
<title>Node25</title>
<g id="a_node21"><a xlink:href="____usart_____8h.html" target="_top" xlink:title="Header file for pid.c.">
<polygon fill="white" stroke="black" points="445.6,-280.5 445.6,-299.5 516.6,-299.5 516.6,-280.5 445.6,-280.5"/>
<text text-anchor="middle" x="481.1" y="-287.5" font-family="Helvetica,sans-Serif" font-size="10.00">__usart__.h</text>
</a>
</g>
</g>
<!-- Node1&#45;&gt;Node25 -->
<g id="edge41" class="edge">
<title>Node1&#45;&gt;Node25</title>
<path fill="none" stroke="midnightblue" d="M686.57,-337.66C638.7,-326.79 570.97,-311.41 526.55,-301.32"/>
<polygon fill="midnightblue" stroke="midnightblue" points="527.14,-297.87 516.62,-299.07 525.59,-304.69 527.14,-297.87"/>
</g>
<!-- Node26 -->
<g id="node22" class="node">
<title>Node26</title>
<g id="a_node22"><a xlink:href="____dc__control_____8h.html" target="_top" xlink:title="Header file for dc_control.c.">
<polygon fill="white" stroke="black" points="1004.6,-280.5 1004.6,-299.5 1101.6,-299.5 1101.6,-280.5 1004.6,-280.5"/>
<text text-anchor="middle" x="1053.1" y="-287.5" font-family="Helvetica,sans-Serif" font-size="10.00">__dc_control__.h</text>
</a>
</g>
</g>
<!-- Node1&#45;&gt;Node26 -->
<g id="edge47" class="edge">
<title>Node1&#45;&gt;Node26</title>
<path fill="none" stroke="midnightblue" d="M799.92,-338.53C855.14,-327.6 938.49,-311.63 994.36,-301.27"/>
<polygon fill="midnightblue" stroke="midnightblue" points="995.26,-304.66 1004.45,-299.4 993.98,-297.78 995.26,-304.66"/>
</g>
<!-- Node27 -->
<g id="node23" class="node">
<title>Node27</title>
<g id="a_node23"><a xlink:href="____odometry_____8h.html" target="_top" xlink:title="Header file for odometry.c.">
<polygon fill="white" stroke="black" points="1120.1,-280.5 1120.1,-299.5 1214.1,-299.5 1214.1,-280.5 1120.1,-280.5"/>
<text text-anchor="middle" x="1167.1" y="-287.5" font-family="Helvetica,sans-Serif" font-size="10.00">__odometry__.h</text>
</a>
</g>
</g>
<!-- Node1&#45;&gt;Node27 -->
<g id="edge49" class="edge">
<title>Node1&#45;&gt;Node27</title>
<path fill="none" stroke="midnightblue" d="M799.85,-342.27C870.69,-332.62 995.26,-315.91 1102.1,-300 1104.7,-299.61 1107.38,-299.21 1110.08,-298.79"/>
<polygon fill="midnightblue" stroke="midnightblue" points="1110.62,-302.25 1119.97,-297.27 1109.56,-295.33 1110.62,-302.25"/>
</g>
<!-- Node28 -->
<g id="node24" class="node">
<title>Node28</title>
<g id="a_node24"><a xlink:href="____pwm_____8h.html" target="_top" xlink:title="Header file for pwm.c.">
<polygon fill="white" stroke="black" points="1232.6,-280.5 1232.6,-299.5 1303.6,-299.5 1303.6,-280.5 1232.6,-280.5"/>
<text text-anchor="middle" x="1268.1" y="-287.5" font-family="Helvetica,sans-Serif" font-size="10.00">__pwm__.h</text>
</a>
</g>
</g>
<!-- Node1&#45;&gt;Node28 -->
<g id="edge51" class="edge">
<title>Node1&#45;&gt;Node28</title>
<path fill="none" stroke="midnightblue" d="M799.97,-345.76C888.75,-338.4 1065.2,-322.67 1214.1,-300 1216.74,-299.6 1219.46,-299.15 1222.22,-298.67"/>
<polygon fill="midnightblue" stroke="midnightblue" points="1223.05,-302.07 1232.26,-296.83 1221.8,-295.19 1223.05,-302.07"/>
</g>
<!-- Node29 -->
<g id="node25" class="node">
<title>Node29</title>
<g id="a_node25"><a xlink:href="__pid___8h.html" target="_top" xlink:title="Header file for pid.c.">
<polygon fill="white" stroke="black" points="1155.6,-112.5 1155.6,-131.5 1206.6,-131.5 1206.6,-112.5 1155.6,-112.5"/>
<text text-anchor="middle" x="1181.1" y="-119.5" font-family="Helvetica,sans-Serif" font-size="10.00">_pid_.h</text>
</a>
</g>
</g>
<!-- Node1&#45;&gt;Node29 -->
<g id="edge53" class="edge">
<title>Node1&#45;&gt;Node29</title>
<path fill="none" stroke="midnightblue" d="M799.61,-349.73C936.83,-347.26 1278.87,-337.4 1313.1,-300 1364.76,-243.57 1255.64,-167.55 1205.04,-136.78"/>
<polygon fill="midnightblue" stroke="midnightblue" points="1206.7,-133.7 1196.32,-131.58 1203.11,-139.71 1206.7,-133.7"/>
</g>
<!-- Node30 -->
<g id="node26" class="node">
<title>Node30</title>
<g id="a_node26"><a xlink:href="____format_____8h.html" target="_top" xlink:title="Header file for format.c.">
<polygon fill="white" stroke="black" points="1360.1,-280.5 1360.1,-299.5 1440.1,-299.5 1440.1,-280.5 1360.1,-280.5"/>
<text text-anchor="middle" x="1400.1" y="-287.5" font-family="Helvetica,sans-Serif" font-size="10.00">__format__.h</text>
</a>
</g>
</g>
<!-- Node1&#45;&gt;Node30 -->
<g id="edge55" class="edge">
<title>Node1&#45;&gt;Node30</title>
<path fill="none" stroke="midnightblue" d="M799.95,-346.97C905.92,-340.37 1140.34,-324.59 1337.1,-300 1341.24,-299.48 1345.54,-298.88 1349.88,-298.23"/>
<polygon fill="midnightblue" stroke="midnightblue" points="1350.66,-301.65 1360.01,-296.67 1349.59,-294.74 1350.66,-301.65"/>
</g>
<!-- Node4 -->
<g id="node4" class="node">
<title>Node4</title>
<g id="a_node4"><a xlink:href="user__board_8h.html" target="_top" xlink:title="User board definition template.">
<polygon fill="white" stroke="black" points="488.1,-168.5 488.1,-187.5 568.1,-187.5 568.1,-168.5 488.1,-168.5"/>
<text text-anchor="middle" x="528.1" y="-175.5" font-family="Helvetica,sans-Serif" font-size="10.00">user_board.h</text>
</a>
</g>
</g>
<!-- Node3&#45;&gt;Node4 -->
<g id="edge3" class="edge">
<title>Node3&#45;&gt;Node4</title>
<path fill="none" stroke="midnightblue" d="M561.5,-224.08C555.85,-216.46 547.56,-205.26 540.65,-195.94"/>
<polygon fill="midnightblue" stroke="midnightblue" points="543.35,-193.7 534.58,-187.75 537.72,-197.87 543.35,-193.7"/>
</g>
<!-- Node3&#45;&gt;Node6 -->
<g id="edge5" class="edge">
<title>Node3&#45;&gt;Node6</title>
<path fill="none" stroke="midnightblue" d="M588.24,-226.16C614.33,-217.3 660.23,-201.71 692.09,-190.89"/>
<polygon fill="midnightblue" stroke="midnightblue" points="693.55,-194.09 701.89,-187.56 691.3,-187.46 693.55,-194.09"/>
</g>
<!-- Node7 -->
<g id="node7" class="node">
<title>Node7</title>
<g id="a_node7"><a xlink:href="compiler_8h.html" target="_top" xlink:title="Commonly used includes, types and macros.">
<polygon fill="white" stroke="red" points="686.1,-112.5 686.1,-131.5 754.1,-131.5 754.1,-112.5 686.1,-112.5"/>
<text text-anchor="middle" x="720.1" y="-119.5" font-family="Helvetica,sans-Serif" font-size="10.00">compiler.h</text>
</a>
</g>
</g>
<!-- Node3&#45;&gt;Node7 -->
<g id="edge12" class="edge">
<title>Node3&#45;&gt;Node7</title>
<path fill="none" stroke="midnightblue" d="M585.95,-224.41C602.63,-216.05 627.92,-202.51 648.1,-188 668.9,-173.04 690.41,-152.91 704.44,-139.03"/>
<polygon fill="midnightblue" stroke="midnightblue" points="707.19,-141.22 711.77,-131.67 702.23,-136.28 707.19,-141.22"/>
</g>
<!-- Node12 -->
<g id="node9" class="node">
<title>Node12</title>
<g id="a_node9"><a xlink:href="parts_8h.html" target="_top" xlink:title="Atmel part identification macros.">
<polygon fill="white" stroke="black" points="633.1,-0.5 633.1,-19.5 683.1,-19.5 683.1,-0.5 633.1,-0.5"/>
<text text-anchor="middle" x="658.1" y="-7.5" font-family="Helvetica,sans-Serif" font-size="10.00">parts.h</text>
</a>
</g>
</g>
<!-- Node3&#45;&gt;Node12 -->
<g id="edge14" class="edge">
<title>Node3&#45;&gt;Node12</title>
<path fill="none" stroke="midnightblue" d="M569.78,-224.46C575.99,-193.33 598.15,-86.23 615.1,-56 621.41,-44.74 631.2,-34.19 639.84,-26.14"/>
<polygon fill="midnightblue" stroke="midnightblue" points="642.16,-28.76 647.32,-19.5 637.52,-23.52 642.16,-28.76"/>
</g>
<!-- Node13 -->
<g id="node10" class="node">
<title>Node13</title>
<g id="a_node10"><a xlink:href="interrupt_8h.html" target="_top" xlink:title="Global interrupt management for 8&#45; and 32&#45;bit AVR.">
<polygon fill="white" stroke="black" points="624.1,-56.5 624.1,-75.5 692.1,-75.5 692.1,-56.5 624.1,-56.5"/>
<text text-anchor="middle" x="658.1" y="-63.5" font-family="Helvetica,sans-Serif" font-size="10.00">interrupt.h</text>
</a>
</g>
</g>
<!-- Node3&#45;&gt;Node13 -->
<g id="edge11" class="edge">
<title>Node3&#45;&gt;Node13</title>
<path fill="none" stroke="midnightblue" d="M578.24,-224.21C587.54,-215.72 601.19,-202.09 610.1,-188 631.27,-154.55 645.95,-110.22 653.1,-85.57"/>
<polygon fill="midnightblue" stroke="midnightblue" points="656.53,-86.3 655.85,-75.73 649.79,-84.42 656.53,-86.3"/>
</g>
<!-- Node15 -->
<g id="node11" class="node">
<title>Node15</title>
<g id="a_node11"><a xlink:href="status__codes_8h.html" target="_top" xlink:title="Status code definitions.">
<polygon fill="white" stroke="black" points="380.6,-168.5 380.6,-187.5 469.6,-187.5 469.6,-168.5 380.6,-168.5"/>
<text text-anchor="middle" x="425.1" y="-175.5" font-family="Helvetica,sans-Serif" font-size="10.00">status_codes.h</text>
</a>
</g>
</g>
<!-- Node3&#45;&gt;Node15 -->
<g id="edge13" class="edge">
<title>Node3&#45;&gt;Node15</title>
<path fill="none" stroke="midnightblue" d="M547.92,-225.38C524.47,-216.52 485.45,-201.79 457.69,-191.31"/>
<polygon fill="midnightblue" stroke="midnightblue" points="458.61,-187.91 448.02,-187.65 456.14,-194.46 458.61,-187.91"/>
</g>
<!-- Node4&#45;&gt;Node5 -->
<g id="edge4" class="edge">
<title>Node4&#45;&gt;Node5</title>
<path fill="none" stroke="midnightblue" d="M495.14,-168.44C459.31,-159.14 401.94,-144.25 362.71,-134.06"/>
<polygon fill="midnightblue" stroke="midnightblue" points="363.46,-130.64 352.91,-131.52 361.7,-137.42 363.46,-130.64"/>
</g>
<!-- Node6&#45;&gt;Node7 -->
<g id="edge6" class="edge">
<title>Node6&#45;&gt;Node7</title>
<path fill="none" stroke="midnightblue" d="M725.95,-168.08C725.02,-160.93 723.68,-150.64 722.52,-141.69"/>
<polygon fill="midnightblue" stroke="midnightblue" points="725.99,-141.22 721.24,-131.75 719.05,-142.12 725.99,-141.22"/>
</g>
<!-- Node7&#45;&gt;Node9 -->
<g id="edge7" class="edge">
<title>Node7&#45;&gt;Node9</title>
<path fill="none" stroke="midnightblue" d="M754.36,-113.77C802.57,-103.6 890.05,-85.15 939.49,-74.72"/>
<polygon fill="midnightblue" stroke="midnightblue" points="940.38,-78.11 949.44,-72.62 938.93,-71.26 940.38,-78.11"/>
</g>
<!-- Node7&#45;&gt;Node12 -->
<g id="edge8" class="edge">
<title>Node7&#45;&gt;Node12</title>
<path fill="none" stroke="midnightblue" d="M718.94,-112.49C716.89,-99.57 711.8,-74.53 701.1,-56 694.71,-44.94 685.06,-34.49 676.51,-26.46"/>
<polygon fill="midnightblue" stroke="midnightblue" points="678.58,-23.62 668.8,-19.55 673.91,-28.83 678.58,-23.62"/>
</g>
<!-- Node7&#45;&gt;Node13 -->
<g id="edge9" class="edge">
<title>Node7&#45;&gt;Node13</title>
<path fill="none" stroke="midnightblue" d="M710.14,-112.32C700.97,-104.34 687.16,-92.31 676.07,-82.65"/>
<polygon fill="midnightblue" stroke="midnightblue" points="678.08,-79.76 668.24,-75.83 673.49,-85.04 678.08,-79.76"/>
</g>
<!-- Node13&#45;&gt;Node12 -->
<g id="edge10" class="edge">
<title>Node13&#45;&gt;Node12</title>
<path fill="none" stroke="midnightblue" d="M658.1,-56.08C658.1,-49.01 658.1,-38.86 658.1,-29.99"/>
<polygon fill="midnightblue" stroke="midnightblue" points="661.6,-29.75 658.1,-19.75 654.6,-29.75 661.6,-29.75"/>
</g>
<!-- Node19&#45;&gt;Node1 -->
<g id="edge22" class="edge">
<title>Node19&#45;&gt;Node1</title>
<path fill="none" stroke="midnightblue" d="M235.77,-243.95C243.16,-258.44 253.1,-286.75 273.1,-300 338.09,-343.04 562.45,-350.18 676.12,-350.88"/>
<polygon fill="midnightblue" stroke="midnightblue" points="676.42,-354.38 686.44,-350.92 676.45,-347.38 676.42,-354.38"/>
</g>
<!-- Node20&#45;&gt;Node1 -->
<g id="edge24" class="edge">
<title>Node20&#45;&gt;Node1</title>
<path fill="none" stroke="midnightblue" d="M639.51,-299.66C659.31,-308.08 687.68,-321.16 709.79,-331.94"/>
<polygon fill="midnightblue" stroke="midnightblue" points="708.33,-335.12 718.84,-336.4 711.42,-328.84 708.33,-335.12"/>
</g>
<!-- Node21&#45;&gt;Node2 -->
<g id="edge26" class="edge">
<title>Node21&#45;&gt;Node2</title>
<path fill="none" stroke="midnightblue" d="M322.87,-280.32C332.87,-272.26 347.99,-260.08 360.03,-250.37"/>
<polygon fill="midnightblue" stroke="midnightblue" points="362.55,-252.83 368.14,-243.83 358.16,-247.38 362.55,-252.83"/>
</g>
<!-- Node21&#45;&gt;Node3 -->
<g id="edge27" class="edge">
<title>Node21&#45;&gt;Node3</title>
<path fill="none" stroke="midnightblue" d="M351.26,-280.74C402.59,-269.91 491.52,-251.15 537.94,-241.36"/>
<polygon fill="midnightblue" stroke="midnightblue" points="538.91,-244.73 547.97,-239.25 537.47,-237.89 538.91,-244.73"/>
</g>
<!-- Node21&#45;&gt;Node5 -->
<g id="edge31" class="edge">
<title>Node21&#45;&gt;Node5</title>
<path fill="none" stroke="midnightblue" d="M312.53,-280.08C313.79,-253.95 317.49,-177.21 319.21,-141.58"/>
<polygon fill="midnightblue" stroke="midnightblue" points="322.7,-141.73 319.69,-131.57 315.71,-141.39 322.7,-141.73"/>
</g>
<!-- Node21&#45;&gt;Node6 -->
<g id="edge30" class="edge">
<title>Node21&#45;&gt;Node6</title>
<path fill="none" stroke="midnightblue" d="M313.82,-280.1C317.12,-265.68 325.8,-237.47 345.1,-224 373.12,-204.45 600.46,-187.4 690.54,-181.35"/>
<polygon fill="midnightblue" stroke="midnightblue" points="690.82,-184.83 700.57,-180.68 690.36,-177.85 690.82,-184.83"/>
</g>
<!-- Node21&#45;&gt;Node16 -->
<g id="edge28" class="edge">
<title>Node21&#45;&gt;Node16</title>
<path fill="none" stroke="midnightblue" d="M273.08,-281.96C229.36,-273.93 156.17,-260.08 83.57,-244.01"/>
<polygon fill="midnightblue" stroke="midnightblue" points="84.32,-240.59 73.8,-241.84 82.8,-247.43 84.32,-240.59"/>
</g>
<!-- Node21&#45;&gt;Node17 -->
<g id="edge29" class="edge">
<title>Node21&#45;&gt;Node17</title>
<path fill="none" stroke="midnightblue" d="M284.05,-280.44C254.02,-271.28 206.19,-256.69 172.86,-246.52"/>
<polygon fill="midnightblue" stroke="midnightblue" points="173.6,-243.09 163.02,-243.52 171.56,-249.78 173.6,-243.09"/>
</g>
<!-- Node21&#45;&gt;Node18 -->
<g id="edge32" class="edge">
<title>Node21&#45;&gt;Node18</title>
<path fill="none" stroke="midnightblue" d="M335.08,-280.44C359.26,-271.44 397.52,-257.19 424.75,-247.05"/>
<polygon fill="midnightblue" stroke="midnightblue" points="426.08,-250.29 434.23,-243.52 423.64,-243.73 426.08,-250.29"/>
</g>
<!-- Node21&#45;&gt;Node19 -->
<g id="edge33" class="edge">
<title>Node21&#45;&gt;Node19</title>
<path fill="none" stroke="midnightblue" d="M298.61,-280.32C285.5,-271.9 265.39,-258.97 249.99,-249.07"/>
<polygon fill="midnightblue" stroke="midnightblue" points="251.87,-246.12 241.56,-243.65 248.08,-252.01 251.87,-246.12"/>
</g>
<!-- Node21&#45;&gt;Node22 -->
<g id="edge34" class="edge">
<title>Node21&#45;&gt;Node22</title>
<path fill="none" stroke="midnightblue" d="M351.21,-283.32C419.27,-273.44 559.36,-253.11 634.27,-242.23"/>
<polygon fill="midnightblue" stroke="midnightblue" points="635,-245.66 644.4,-240.76 634,-238.74 635,-245.66"/>
</g>
<!-- Node22&#45;&gt;Node1 -->
<g id="edge35" class="edge">
<title>Node22&#45;&gt;Node1</title>
<path fill="none" stroke="midnightblue" d="M692.3,-243.67C704.46,-261.14 725.48,-301.11 736.61,-326.9"/>
<polygon fill="midnightblue" stroke="midnightblue" points="733.45,-328.41 740.48,-336.34 739.93,-325.76 733.45,-328.41"/>
</g>
<!-- Node23&#45;&gt;Node1 -->
<g id="edge37" class="edge">
<title>Node23&#45;&gt;Node1</title>
<path fill="none" stroke="midnightblue" d="M806.14,-299.66C798.81,-307.56 785.62,-319.54 773.11,-329.89"/>
<polygon fill="midnightblue" stroke="midnightblue" points="770.64,-327.39 765.06,-336.4 775.03,-332.84 770.64,-327.39"/>
</g>
<!-- Node24&#45;&gt;Node1 -->
<g id="edge40" class="edge">
<title>Node24&#45;&gt;Node1</title>
<path fill="none" stroke="midnightblue" d="M889.02,-299.66C866.7,-308.39 829.09,-322.1 797.6,-333.09"/>
<polygon fill="midnightblue" stroke="midnightblue" points="796.34,-329.82 788.04,-336.4 798.64,-336.43 796.34,-329.82"/>
</g>
<!-- Node25&#45;&gt;Node2 -->
<g id="edge43" class="edge">
<title>Node25&#45;&gt;Node2</title>
<path fill="none" stroke="midnightblue" d="M464.71,-280.32C448.43,-271.7 423.23,-258.36 404.38,-248.39"/>
<polygon fill="midnightblue" stroke="midnightblue" points="405.92,-245.24 395.45,-243.65 402.65,-251.43 405.92,-245.24"/>
</g>
<!-- Node25&#45;&gt;Node3 -->
<g id="edge42" class="edge">
<title>Node25&#45;&gt;Node3</title>
<path fill="none" stroke="midnightblue" d="M495.08,-280.32C508.65,-271.9 529.48,-258.97 545.43,-249.07"/>
<polygon fill="midnightblue" stroke="midnightblue" points="547.51,-251.9 554.16,-243.65 543.82,-245.95 547.51,-251.9"/>
</g>
<!-- Node25&#45;&gt;Node5 -->
<g id="edge45" class="edge">
<title>Node25&#45;&gt;Node5</title>
<path fill="none" stroke="midnightblue" d="M488.41,-280.14C498.5,-266.75 514.09,-241.12 501.1,-224 465.11,-176.59 421.76,-220.82 372.1,-188 353.71,-175.84 338.77,-155.09 329.7,-140.3"/>
<polygon fill="midnightblue" stroke="midnightblue" points="332.68,-138.46 324.61,-131.6 326.64,-142 332.68,-138.46"/>
</g>
<!-- Node25&#45;&gt;Node6 -->
<g id="edge44" class="edge">
<title>Node25&#45;&gt;Node6</title>
<path fill="none" stroke="midnightblue" d="M505.4,-280.41C529.08,-271.84 565.96,-257.98 597.1,-244 614.87,-236.02 618.7,-232.76 636.1,-224 657.62,-213.16 682.1,-201.07 700.25,-192.15"/>
<polygon fill="midnightblue" stroke="midnightblue" points="702.18,-195.1 709.62,-187.55 699.1,-188.82 702.18,-195.1"/>
</g>
<!-- Node25&#45;&gt;Node18 -->
<g id="edge46" class="edge">
<title>Node25&#45;&gt;Node18</title>
<path fill="none" stroke="midnightblue" d="M477.14,-280.08C473.89,-272.77 469.18,-262.18 465.15,-253.1"/>
<polygon fill="midnightblue" stroke="midnightblue" points="468.25,-251.47 460.99,-243.75 461.85,-254.31 468.25,-251.47"/>
</g>
<!-- Node26&#45;&gt;Node1 -->
<g id="edge48" class="edge">
<title>Node26&#45;&gt;Node1</title>
<path fill="none" stroke="midnightblue" d="M1013.4,-299.56C961.99,-309.86 871.89,-327.19 809.9,-338.74"/>
<polygon fill="midnightblue" stroke="midnightblue" points="809.01,-335.34 799.82,-340.61 810.29,-342.22 809.01,-335.34"/>
</g>
<!-- Node27&#45;&gt;Node1 -->
<g id="edge50" class="edge">
<title>Node27&#45;&gt;Node1</title>
<path fill="none" stroke="midnightblue" d="M1123.35,-299.51C1122.26,-299.68 1121.17,-299.84 1120.1,-300 1011.97,-316.11 885.67,-333.03 810.07,-342.62"/>
<polygon fill="midnightblue" stroke="midnightblue" points="809.23,-339.2 799.75,-343.92 810.11,-346.14 809.23,-339.2"/>
</g>
<!-- Node28&#45;&gt;Node1 -->
<g id="edge52" class="edge">
<title>Node28&#45;&gt;Node1</title>
<path fill="none" stroke="midnightblue" d="M1234.96,-299.55C1234,-299.71 1233.05,-299.86 1232.1,-300 1082.24,-322.82 904.48,-338.61 809.91,-345.9"/>
<polygon fill="midnightblue" stroke="midnightblue" points="809.62,-342.42 799.91,-346.67 810.15,-349.4 809.62,-342.42"/>
</g>
<!-- Node29&#45;&gt;Node9 -->
<g id="edge54" class="edge">
<title>Node29&#45;&gt;Node9</title>
<path fill="none" stroke="midnightblue" d="M1155.55,-114.27C1119.54,-104.78 1053.65,-87.43 1012.51,-76.59"/>
<polygon fill="midnightblue" stroke="midnightblue" points="1013.18,-73.15 1002.62,-73.99 1011.4,-79.92 1013.18,-73.15"/>
</g>
<!-- Node30&#45;&gt;Node1 -->
<g id="edge56" class="edge">
<title>Node30&#45;&gt;Node1</title>
<path fill="none" stroke="midnightblue" d="M1359.97,-299.36C1358.33,-299.59 1356.7,-299.8 1355.1,-300 1157.98,-324.64 923.06,-340.43 810.11,-347"/>
<polygon fill="midnightblue" stroke="midnightblue" points="809.68,-343.52 799.89,-347.59 810.08,-350.51 809.68,-343.52"/>
</g>
</g>
</svg>
        <g id="navigator" transform="translate(0 0)" fill="#404254">
                <rect fill="#f2f5e9" fill-opacity="0.5" stroke="#606060" stroke-width=".5" x="0" y="0" width="60" height="60"/>
                <use id="zoomplus" xlink:href="#zoomPlus" x="17" y="9" onmousedown="handleZoom(evt,'in')"/>
                <use id="zoomminus" xlink:href="#zoomMin" x="42" y="9" onmousedown="handleZoom(evt,'out')"/>
                <use id="reset" xlink:href="#resetDef" x="30" y="36" onmousedown="handleReset()"/>
                <g id="arrowUp" xlink:href="#dirArrow" transform="translate(30 24)" onmousedown="handlePan(0,-1)">
                  <use xlink:href="#rim" fill="#404040">
                        <set attributeName="fill" to="#808080" begin="arrowUp.mouseover" end="arrowUp.mouseout"/>
                  </use>
                  <path fill="none" stroke="white" stroke-width="1.5" d="M0,-3.0v7 M-2.5,-0.5L0,-3.0L2.5,-0.5"/>
                </g>
                <g id="arrowRight" xlink:href="#dirArrow" transform="rotate(90) translate(36 -43)" onmousedown="handlePan(1,0)">
                  <use xlink:href="#rim" fill="#404040">
                        <set attributeName="fill" to="#808080" begin="arrowRight.mouseover" end="arrowRight.mouseout"/>
                  </use>
                  <path fill="none" stroke="white" stroke-width="1.5" d="M0,-3.0v7 M-2.5,-0.5L0,-3.0L2.5,-0.5"/>
                </g>
                <g id="arrowDown" xlink:href="#dirArrow" transform="rotate(180) translate(-30 -48)" onmousedown="handlePan(0,1)">
                  <use xlink:href="#rim" fill="#404040">
                        <set attributeName="fill" to="#808080" begin="arrowDown.mouseover" end="arrowDown.mouseout"/>
                  </use>
                  <path fill="none" stroke="white" stroke-width="1.5" d="M0,-3.0v7 M-2.5,-0.5L0,-3.0L2.5,-0.5"/>
                </g>
                <g id="arrowLeft" xlink:href="#dirArrow" transform="rotate(270) translate(-36 17)" onmousedown="handlePan(-1,0)">
                  <use xlink:href="#rim" fill="#404040">
                        <set attributeName="fill" to="#808080" begin="arrowLeft.mouseover" end="arrowLeft.mouseout"/>
                  </use>
                  <path fill="none" stroke="white" stroke-width="1.5" d="M0,-3.0v7 M-2.5,-0.5L0,-3.0L2.5,-0.5"/>
                </g>
        </g>
        <svg viewBox="0 0 15 15" width="100%" height="30px" preserveAspectRatio="xMaxYMin meet">
         <g id="arrow_out" transform="scale(0.3 0.3)">
          <a xlink:href="____swarm__wold_____8h__incl_org.svg" target="_base">
           <rect id="button" ry="5" rx="5" y="6" x="6" height="38" width="38"
                fill="#f2f5e9" fill-opacity="0.5" stroke="#606060" stroke-width="1.0"/>
           <path id="arrow"
             d="M 11.500037,31.436501 C 11.940474,20.09759 22.043105,11.32322 32.158766,21.979434 L 37.068811,17.246167 C 37.068811,17.246167 37.088388,32 37.088388,32 L 22.160133,31.978069 C 22.160133,31.978069 26.997745,27.140456 26.997745,27.140456 C 18.528582,18.264221 13.291696,25.230495 11.500037,31.436501 z"
             style="fill:#404040;"/>
          </a>
         </g>
        </svg>
</svg>
