<?xml version="1.0" encoding="UTF-8" standalone="no"?>
<!DOCTYPE svg PUBLIC "-//W3C//DTD SVG 1.1//EN"
 "http://www.w3.org/Graphics/SVG/1.1/DTD/svg11.dtd">
<!-- Generated by graphviz version 2.43.0 (0)
 -->
<!-- Title: swarm_bot_cpp/src/__adc__.h Pages: 1 -->
<!--zoomable 431 -->
<svg id="main" version="1.1" xmlns="http://www.w3.org/2000/svg" xmlns:xlink="http://www.w3.org/1999/xlink" xml:space="preserve" onload="init(evt)">
<style type="text/css"><![CDATA[
.edge:hover path { stroke: red; }
.edge:hover polygon { stroke: red; fill: red; }
]]></style>
<script type="text/javascript"><![CDATA[
var edges = document.getElementsByTagName('g');
if (edges && edges.length) {
  for (var i=0;i<edges.length;i++) {
    if (edges[i].id.substr(0,4)=='edge') {
      edges[i].setAttribute('class','edge');
    }
  }
}
]]></script>
        <defs>
                <circle id="rim" cx="0" cy="0" r="7"/>
                <circle id="rim2" cx="0" cy="0" r="3.5"/>
                <g id="zoomPlus">
                        <use xlink:href="#rim" fill="#404040">
                                <set attributeName="fill" to="#808080" begin="zoomplus.mouseover" end="zoomplus.mouseout"/>
                        </use>
                        <path d="M-4,0h8M0,-4v8" fill="none" stroke="white" stroke-width="1.5" pointer-events="none"/>
                </g>
                <g id="zoomMin">
                        <use xlink:href="#rim" fill="#404040">
                                <set attributeName="fill" to="#808080" begin="zoomminus.mouseover" end="zoomminus.mouseout"/>
                        </use>
                        <path d="M-4,0h8" fill="none" stroke="white" stroke-width="1.5" pointer-events="none"/>
                </g>
                <g id="dirArrow">
                        <path fill="none" stroke="white" stroke-width="1.5" d="M0,-3.0v7 M-2.5,-0.5L0,-3.0L2.5,-0.5"/>
                </g>
               <g id="resetDef">
                       <use xlink:href="#rim2" fill="#404040">
                               <set attributeName="fill" to="#808080" begin="reset.mouseover" end="reset.mouseout"/>
                       </use>
               </g>
        </defs>

<script type="text/javascript">
var viewWidth = 1338;
var viewHeight = 431;
var sectionId = 'dynsection-0';
</script>
<script xlink:href="svgpan.js"/>
<svg id="graph" class="graph">
<g id="viewport">
<title>swarm_bot_cpp/src/__adc__.h</title>
<polygon fill="white" stroke="transparent" points="-4,4 -4,-427 1334.5,-427 1334.5,4 -4,4"/>
<!-- Node1 -->
<g id="node1" class="node">
<title>Node1</title>
<g id="a_node1"><a xlink:title="Header file for adc.c.">
<polygon fill="#bfbfbf" stroke="black" points="554.5,-392.5 554.5,-422.5 667.5,-422.5 667.5,-392.5 554.5,-392.5"/>
<text text-anchor="start" x="562.5" y="-410.5" font-family="Helvetica,sans-Serif" font-size="10.00">swarm_bot_cpp/src/</text>
<text text-anchor="middle" x="611" y="-399.5" font-family="Helvetica,sans-Serif" font-size="10.00">__adc__.h</text>
</a>
</g>
</g>
<!-- Node2 -->
<g id="node2" class="node">
<title>Node2</title>
<g id="a_node2"><a xlink:href="____swarm__wold_____8h.html" target="_top" xlink:title="Header file for dummy purposes.">
<polygon fill="white" stroke="black" points="557,-336.5 557,-355.5 665,-355.5 665,-336.5 557,-336.5"/>
<text text-anchor="middle" x="611" y="-343.5" font-family="Helvetica,sans-Serif" font-size="10.00">__swarm_wold__.h</text>
</a>
</g>
</g>
<!-- Node1&#45;&gt;Node2 -->
<g id="edge1" class="edge">
<title>Node1&#45;&gt;Node2</title>
<path fill="none" stroke="midnightblue" d="M605.16,-392.4C604.13,-384.38 603.97,-374.23 604.69,-365.57"/>
<polygon fill="midnightblue" stroke="midnightblue" points="608.16,-366.04 606.07,-355.66 601.23,-365.08 608.16,-366.04"/>
</g>
<!-- Node2&#45;&gt;Node1 -->
<g id="edge22" class="edge">
<title>Node2&#45;&gt;Node1</title>
<path fill="none" stroke="midnightblue" d="M615.93,-355.66C617.43,-362.65 618.01,-372.86 617.64,-382.29"/>
<polygon fill="midnightblue" stroke="midnightblue" points="614.14,-382.15 616.84,-392.4 621.12,-382.71 614.14,-382.15"/>
</g>
<!-- Node3 -->
<g id="node3" class="node">
<title>Node3</title>
<g id="a_node3"><a xlink:title=" ">
<polygon fill="white" stroke="#bfbfbf" points="728,-224.5 728,-243.5 778,-243.5 778,-224.5 728,-224.5"/>
<text text-anchor="middle" x="753" y="-231.5" font-family="Helvetica,sans-Serif" font-size="10.00">stdio.h</text>
</a>
</g>
</g>
<!-- Node2&#45;&gt;Node3 -->
<g id="edge2" class="edge">
<title>Node2&#45;&gt;Node3</title>
<path fill="none" stroke="midnightblue" d="M665.26,-344.59C796.59,-343.05 1123.2,-335.62 1156,-300 1206.99,-244.62 895.79,-236.39 788.44,-235.2"/>
<polygon fill="midnightblue" stroke="midnightblue" points="788.16,-231.69 778.13,-235.1 788.09,-238.69 788.16,-231.69"/>
</g>
<!-- Node4 -->
<g id="node4" class="node">
<title>Node4</title>
<g id="a_node4"><a xlink:href="asf_8h.html" target="_top" xlink:title="Autogenerated API include file for the Atmel Software Framework (ASF)">
<polygon fill="white" stroke="black" points="509,-224.5 509,-243.5 549,-243.5 549,-224.5 509,-224.5"/>
<text text-anchor="middle" x="529" y="-231.5" font-family="Helvetica,sans-Serif" font-size="10.00">asf.h</text>
</a>
</g>
</g>
<!-- Node2&#45;&gt;Node4 -->
<g id="edge3" class="edge">
<title>Node2&#45;&gt;Node4</title>
<path fill="none" stroke="midnightblue" d="M665.36,-344.69C787.4,-343.05 1068.83,-333.51 1020,-280 1004.38,-262.88 663.74,-242.52 559.22,-236.65"/>
<polygon fill="midnightblue" stroke="midnightblue" points="559.22,-233.15 549.04,-236.09 558.83,-240.14 559.22,-233.15"/>
</g>
<!-- Node6 -->
<g id="node6" class="node">
<title>Node6</title>
<g id="a_node6"><a xlink:href="conf__board_8h.html" target="_top" xlink:title="User board configuration template.">
<polygon fill="white" stroke="black" points="626,-112.5 626,-131.5 706,-131.5 706,-112.5 626,-112.5"/>
<text text-anchor="middle" x="666" y="-119.5" font-family="Helvetica,sans-Serif" font-size="10.00">conf_board.h</text>
</a>
</g>
</g>
<!-- Node2&#45;&gt;Node6 -->
<g id="edge19" class="edge">
<title>Node2&#45;&gt;Node6</title>
<path fill="none" stroke="midnightblue" d="M665.37,-344.73C799.55,-343.5 1138.08,-336.75 1172,-300 1306.21,-154.6 868.46,-128.63 716.24,-124"/>
<polygon fill="midnightblue" stroke="midnightblue" points="716.3,-120.5 706.21,-123.71 716.1,-127.5 716.3,-120.5"/>
</g>
<!-- Node7 -->
<g id="node7" class="node">
<title>Node7</title>
<g id="a_node7"><a xlink:href="board_8h.html" target="_top" xlink:title="Standard board header file.">
<polygon fill="white" stroke="black" points="250.5,-168.5 250.5,-187.5 303.5,-187.5 303.5,-168.5 250.5,-168.5"/>
<text text-anchor="middle" x="277" y="-175.5" font-family="Helvetica,sans-Serif" font-size="10.00">board.h</text>
</a>
</g>
</g>
<!-- Node2&#45;&gt;Node7 -->
<g id="edge18" class="edge">
<title>Node2&#45;&gt;Node7</title>
<path fill="none" stroke="midnightblue" d="M556.95,-345.81C418.78,-346.48 59.64,-338.93 4,-244 -0.5,-236.33 -1.75,-230.78 4,-224 33.87,-188.8 172.79,-181.09 240.17,-179.43"/>
<polygon fill="midnightblue" stroke="midnightblue" points="240.41,-182.93 250.34,-179.22 240.26,-175.93 240.41,-182.93"/>
</g>
<!-- Node10 -->
<g id="node9" class="node">
<title>Node10</title>
<g id="a_node9"><a xlink:title=" ">
<polygon fill="white" stroke="#bfbfbf" points="1224.5,-56.5 1224.5,-75.5 1277.5,-75.5 1277.5,-56.5 1224.5,-56.5"/>
<text text-anchor="middle" x="1251" y="-63.5" font-family="Helvetica,sans-Serif" font-size="10.00">stdint.h</text>
</a>
</g>
</g>
<!-- Node2&#45;&gt;Node10 -->
<g id="edge21" class="edge">
<title>Node2&#45;&gt;Node10</title>
<path fill="none" stroke="midnightblue" d="M665.44,-343.07C800.88,-337.94 1145.44,-322.81 1192,-300 1227.04,-282.84 1251,-274.02 1251,-235 1251,-235 1251,-235 1251,-177 1251,-144.95 1251,-107.64 1251,-85.75"/>
<polygon fill="midnightblue" stroke="midnightblue" points="1254.5,-85.56 1251,-75.56 1247.5,-85.56 1254.5,-85.56"/>
</g>
<!-- Node17 -->
<g id="node13" class="node">
<title>Node17</title>
<g id="a_node13"><a xlink:title=" ">
<polygon fill="white" stroke="#bfbfbf" points="13.5,-224.5 13.5,-243.5 66.5,-243.5 66.5,-224.5 13.5,-224.5"/>
<text text-anchor="middle" x="40" y="-231.5" font-family="Helvetica,sans-Serif" font-size="10.00">avr/io.h</text>
</a>
</g>
</g>
<!-- Node2&#45;&gt;Node17 -->
<g id="edge16" class="edge">
<title>Node2&#45;&gt;Node17</title>
<path fill="none" stroke="midnightblue" d="M556.71,-342.69C451.46,-337.73 223.46,-324.46 149,-300 114.57,-288.69 79.38,-265.07 58.62,-249.64"/>
<polygon fill="midnightblue" stroke="midnightblue" points="60.74,-246.85 50.66,-243.59 56.5,-252.42 60.74,-246.85"/>
</g>
<!-- Node18 -->
<g id="node14" class="node">
<title>Node18</title>
<g id="a_node14"><a xlink:title=" ">
<polygon fill="white" stroke="#bfbfbf" points="85,-224.5 85,-243.5 171,-243.5 171,-224.5 85,-224.5"/>
<text text-anchor="middle" x="128" y="-231.5" font-family="Helvetica,sans-Serif" font-size="10.00">avr/interrupt.h</text>
</a>
</g>
</g>
<!-- Node2&#45;&gt;Node18 -->
<g id="edge17" class="edge">
<title>Node2&#45;&gt;Node18</title>
<path fill="none" stroke="midnightblue" d="M556.81,-344.99C454.33,-344.08 236.67,-337.63 173,-300 154.95,-289.33 142.42,-268.25 135.25,-252.99"/>
<polygon fill="midnightblue" stroke="midnightblue" points="138.34,-251.31 131.14,-243.54 131.92,-254.11 138.34,-251.31"/>
</g>
<!-- Node19 -->
<g id="node15" class="node">
<title>Node19</title>
<g id="a_node15"><a xlink:title=" ">
<polygon fill="white" stroke="#bfbfbf" points="383,-224.5 383,-243.5 453,-243.5 453,-224.5 383,-224.5"/>
<text text-anchor="middle" x="418" y="-231.5" font-family="Helvetica,sans-Serif" font-size="10.00">util/delay.h</text>
</a>
</g>
</g>
<!-- Node2&#45;&gt;Node19 -->
<g id="edge20" class="edge">
<title>Node2&#45;&gt;Node19</title>
<path fill="none" stroke="midnightblue" d="M556.93,-344.85C480.19,-343.36 345.58,-335.58 315,-300 293.55,-275.05 336.23,-256.42 373,-245.64"/>
<polygon fill="midnightblue" stroke="midnightblue" points="373.98,-249 382.67,-242.94 372.09,-242.26 373.98,-249"/>
</g>
<!-- Node20 -->
<g id="node16" class="node">
<title>Node20</title>
<g id="a_node16"><a xlink:href="_____i_n_t__0__1_____8h.html" target="_top" xlink:title="Header file for INT_0_1.c.">
<polygon fill="white" stroke="black" points="324,-280.5 324,-299.5 410,-299.5 410,-280.5 324,-280.5"/>
<text text-anchor="middle" x="367" y="-287.5" font-family="Helvetica,sans-Serif" font-size="10.00">__INT_0_1__.h</text>
</a>
</g>
</g>
<!-- Node2&#45;&gt;Node20 -->
<g id="edge23" class="edge">
<title>Node2&#45;&gt;Node20</title>
<path fill="none" stroke="midnightblue" d="M567.25,-336.44C522.8,-327.06 454.56,-311.99 410.29,-301.8"/>
<polygon fill="midnightblue" stroke="midnightblue" points="410.93,-298.36 400.4,-299.52 409.36,-305.18 410.93,-298.36"/>
</g>
<!-- Node21 -->
<g id="node17" class="node">
<title>Node21</title>
<g id="a_node17"><a xlink:href=".html" target="_top" xlink:title=" ">
<polygon fill="white" stroke="black" points="190,-280.5 190,-299.5 268,-299.5 268,-280.5 190,-280.5"/>
<text text-anchor="middle" x="229" y="-287.5" font-family="Helvetica,sans-Serif" font-size="10.00">__pin_map.h</text>
</a>
</g>
</g>
<!-- Node2&#45;&gt;Node21 -->
<g id="edge25" class="edge">
<title>Node2&#45;&gt;Node21</title>
<path fill="none" stroke="midnightblue" d="M556.78,-338.13C491.5,-329.73 378.59,-314.8 282,-300 280.73,-299.81 279.44,-299.61 278.14,-299.4"/>
<polygon fill="midnightblue" stroke="midnightblue" points="278.48,-295.91 268.05,-297.78 277.37,-302.82 278.48,-295.91"/>
</g>
<!-- Node22 -->
<g id="node18" class="node">
<title>Node22</title>
<g id="a_node18"><a xlink:href="____timer1_____8h.html" target="_top" xlink:title="Header file for timer1.c.">
<polygon fill="white" stroke="black" points="189.5,-224.5 189.5,-243.5 268.5,-243.5 268.5,-224.5 189.5,-224.5"/>
<text text-anchor="middle" x="229" y="-231.5" font-family="Helvetica,sans-Serif" font-size="10.00">__timer1__.h</text>
</a>
</g>
</g>
<!-- Node2&#45;&gt;Node22 -->
<g id="edge38" class="edge">
<title>Node2&#45;&gt;Node22</title>
<path fill="none" stroke="midnightblue" d="M556.75,-343.47C444.82,-339.64 197.09,-327.85 172,-300 157.13,-283.49 179.03,-262.53 200.03,-248.95"/>
<polygon fill="midnightblue" stroke="midnightblue" points="202.11,-251.78 208.86,-243.61 198.49,-245.79 202.11,-251.78"/>
</g>
<!-- Node23 -->
<g id="node19" class="node">
<title>Node23</title>
<g id="a_node19"><a xlink:href="____timer0_____8h.html" target="_top" xlink:title="Header file for timer0.c.">
<polygon fill="white" stroke="black" points="428.5,-280.5 428.5,-299.5 507.5,-299.5 507.5,-280.5 428.5,-280.5"/>
<text text-anchor="middle" x="468" y="-287.5" font-family="Helvetica,sans-Serif" font-size="10.00">__timer0__.h</text>
</a>
</g>
</g>
<!-- Node2&#45;&gt;Node23 -->
<g id="edge36" class="edge">
<title>Node2&#45;&gt;Node23</title>
<path fill="none" stroke="midnightblue" d="M583.25,-336.44C557.66,-327.52 520.15,-313.44 494.85,-303.32"/>
<polygon fill="midnightblue" stroke="midnightblue" points="496.05,-300.03 485.47,-299.52 493.42,-306.52 496.05,-300.03"/>
</g>
<!-- Node24 -->
<g id="node20" class="node">
<title>Node24</title>
<g id="a_node20"><a xlink:href="____timer2_____8h.html" target="_top" xlink:title="Header file for timer2.c.">
<polygon fill="white" stroke="black" points="525.5,-280.5 525.5,-299.5 604.5,-299.5 604.5,-280.5 525.5,-280.5"/>
<text text-anchor="middle" x="565" y="-287.5" font-family="Helvetica,sans-Serif" font-size="10.00">__timer2__.h</text>
</a>
</g>
</g>
<!-- Node2&#45;&gt;Node24 -->
<g id="edge39" class="edge">
<title>Node2&#45;&gt;Node24</title>
<path fill="none" stroke="midnightblue" d="M598.49,-336.32C590.38,-328.73 580.4,-317.48 573.23,-308.09"/>
<polygon fill="midnightblue" stroke="midnightblue" points="576.01,-305.97 567.38,-299.83 570.3,-310.02 576.01,-305.97"/>
</g>
<!-- Node25 -->
<g id="node21" class="node">
<title>Node25</title>
<g id="a_node21"><a xlink:href="____usart_____8h.html" target="_top" xlink:title="Header file for pid.c.">
<polygon fill="white" stroke="black" points="622.5,-280.5 622.5,-299.5 693.5,-299.5 693.5,-280.5 622.5,-280.5"/>
<text text-anchor="middle" x="658" y="-287.5" font-family="Helvetica,sans-Serif" font-size="10.00">__usart__.h</text>
</a>
</g>
</g>
<!-- Node2&#45;&gt;Node25 -->
<g id="edge41" class="edge">
<title>Node2&#45;&gt;Node25</title>
<path fill="none" stroke="midnightblue" d="M618.76,-336.08C625.54,-328.3 635.54,-316.8 643.75,-307.37"/>
<polygon fill="midnightblue" stroke="midnightblue" points="646.46,-309.59 650.38,-299.75 641.18,-305 646.46,-309.59"/>
</g>
<!-- Node26 -->
<g id="node22" class="node">
<title>Node26</title>
<g id="a_node22"><a xlink:href="____dc__control_____8h.html" target="_top" xlink:title="Header file for dc_control.c.">
<polygon fill="white" stroke="black" points="711.5,-280.5 711.5,-299.5 808.5,-299.5 808.5,-280.5 711.5,-280.5"/>
<text text-anchor="middle" x="760" y="-287.5" font-family="Helvetica,sans-Serif" font-size="10.00">__dc_control__.h</text>
</a>
</g>
</g>
<!-- Node2&#45;&gt;Node26 -->
<g id="edge47" class="edge">
<title>Node2&#45;&gt;Node26</title>
<path fill="none" stroke="midnightblue" d="M629.52,-336.44C652.59,-327.36 692.18,-312.94 721.8,-302.78"/>
<polygon fill="midnightblue" stroke="midnightblue" points="723.08,-306.05 731.42,-299.52 720.83,-299.42 723.08,-306.05"/>
</g>
<!-- Node27 -->
<g id="node23" class="node">
<title>Node27</title>
<g id="a_node23"><a xlink:href="____odometry_____8h.html" target="_top" xlink:title="Header file for odometry.c.">
<polygon fill="white" stroke="black" points="827,-280.5 827,-299.5 921,-299.5 921,-280.5 827,-280.5"/>
<text text-anchor="middle" x="874" y="-287.5" font-family="Helvetica,sans-Serif" font-size="10.00">__odometry__.h</text>
</a>
</g>
</g>
<!-- Node2&#45;&gt;Node27 -->
<g id="edge49" class="edge">
<title>Node2&#45;&gt;Node27</title>
<path fill="none" stroke="midnightblue" d="M647.58,-336.44C691.67,-326.96 766.01,-311.67 817.47,-301.48"/>
<polygon fill="midnightblue" stroke="midnightblue" points="818.31,-304.89 827.44,-299.52 816.95,-298.02 818.31,-304.89"/>
</g>
<!-- Node28 -->
<g id="node24" class="node">
<title>Node28</title>
<g id="a_node24"><a xlink:href="____pwm_____8h.html" target="_top" xlink:title="Header file for pwm.c.">
<polygon fill="white" stroke="black" points="939.5,-280.5 939.5,-299.5 1010.5,-299.5 1010.5,-280.5 939.5,-280.5"/>
<text text-anchor="middle" x="975" y="-287.5" font-family="Helvetica,sans-Serif" font-size="10.00">__pwm__.h</text>
</a>
</g>
</g>
<!-- Node2&#45;&gt;Node28 -->
<g id="edge51" class="edge">
<title>Node2&#45;&gt;Node28</title>
<path fill="none" stroke="midnightblue" d="M665.02,-337.49C727.02,-329.28 831.4,-315.27 921,-300 923.63,-299.55 926.35,-299.07 929.1,-298.56"/>
<polygon fill="midnightblue" stroke="midnightblue" points="929.95,-301.96 939.14,-296.68 928.66,-295.08 929.95,-301.96"/>
</g>
<!-- Node29 -->
<g id="node25" class="node">
<title>Node29</title>
<g id="a_node25"><a xlink:href="__pid___8h.html" target="_top" xlink:title="Header file for pid.c.">
<polygon fill="white" stroke="black" points="1279.5,-112.5 1279.5,-131.5 1330.5,-131.5 1330.5,-112.5 1279.5,-112.5"/>
<text text-anchor="middle" x="1305" y="-119.5" font-family="Helvetica,sans-Serif" font-size="10.00">_pid_.h</text>
</a>
</g>
</g>
<!-- Node2&#45;&gt;Node29 -->
<g id="edge53" class="edge">
<title>Node2&#45;&gt;Node29</title>
<path fill="none" stroke="midnightblue" d="M665,-344.92C813.49,-344.19 1219.9,-338.65 1265,-300 1311.4,-260.22 1310.45,-179.08 1307.26,-142.12"/>
<polygon fill="midnightblue" stroke="midnightblue" points="1310.7,-141.37 1306.21,-131.77 1303.74,-142.08 1310.7,-141.37"/>
</g>
<!-- Node30 -->
<g id="node26" class="node">
<title>Node30</title>
<g id="a_node26"><a xlink:href="____format_____8h.html" target="_top" xlink:title="Header file for format.c.">
<polygon fill="white" stroke="black" points="1067,-280.5 1067,-299.5 1147,-299.5 1147,-280.5 1067,-280.5"/>
<text text-anchor="middle" x="1107" y="-287.5" font-family="Helvetica,sans-Serif" font-size="10.00">__format__.h</text>
</a>
</g>
</g>
<!-- Node2&#45;&gt;Node30 -->
<g id="edge55" class="edge">
<title>Node2&#45;&gt;Node30</title>
<path fill="none" stroke="midnightblue" d="M665.22,-340.1C747.39,-332.88 907.92,-318.25 1044,-300 1048.13,-299.45 1052.44,-298.82 1056.77,-298.16"/>
<polygon fill="midnightblue" stroke="midnightblue" points="1057.56,-301.58 1066.9,-296.57 1056.47,-294.66 1057.56,-301.58"/>
</g>
<!-- Node5 -->
<g id="node5" class="node">
<title>Node5</title>
<g id="a_node5"><a xlink:href="user__board_8h.html" target="_top" xlink:title="User board definition template.">
<polygon fill="white" stroke="black" points="592,-168.5 592,-187.5 672,-187.5 672,-168.5 592,-168.5"/>
<text text-anchor="middle" x="632" y="-175.5" font-family="Helvetica,sans-Serif" font-size="10.00">user_board.h</text>
</a>
</g>
</g>
<!-- Node4&#45;&gt;Node5 -->
<g id="edge4" class="edge">
<title>Node4&#45;&gt;Node5</title>
<path fill="none" stroke="midnightblue" d="M545.55,-224.32C561.99,-215.7 587.43,-202.36 606.47,-192.39"/>
<polygon fill="midnightblue" stroke="midnightblue" points="608.26,-195.4 615.49,-187.65 605.01,-189.2 608.26,-195.4"/>
</g>
<!-- Node4&#45;&gt;Node7 -->
<g id="edge6" class="edge">
<title>Node4&#45;&gt;Node7</title>
<path fill="none" stroke="midnightblue" d="M508.91,-227.48C504.35,-226.28 499.52,-225.06 495,-224 416.83,-205.72 396.54,-204.61 318,-188 316.72,-187.73 315.41,-187.45 314.09,-187.17"/>
<polygon fill="midnightblue" stroke="midnightblue" points="314.41,-183.66 303.89,-184.97 312.93,-190.5 314.41,-183.66"/>
</g>
<!-- Node8 -->
<g id="node8" class="node">
<title>Node8</title>
<g id="a_node8"><a xlink:href="compiler_8h.html" target="_top" xlink:title="Commonly used includes, types and macros.">
<polygon fill="white" stroke="red" points="360,-112.5 360,-131.5 428,-131.5 428,-112.5 360,-112.5"/>
<text text-anchor="middle" x="394" y="-119.5" font-family="Helvetica,sans-Serif" font-size="10.00">compiler.h</text>
</a>
</g>
</g>
<!-- Node4&#45;&gt;Node8 -->
<g id="edge13" class="edge">
<title>Node4&#45;&gt;Node8</title>
<path fill="none" stroke="midnightblue" d="M508.79,-225.64C490.08,-218.16 462.19,-205.21 442,-188 426.04,-174.39 412.35,-154.51 403.72,-140.32"/>
<polygon fill="midnightblue" stroke="midnightblue" points="406.67,-138.42 398.59,-131.56 400.62,-141.96 406.67,-138.42"/>
</g>
<!-- Node13 -->
<g id="node10" class="node">
<title>Node13</title>
<g id="a_node10"><a xlink:href="parts_8h.html" target="_top" xlink:title="Atmel part identification macros.">
<polygon fill="white" stroke="black" points="381,-0.5 381,-19.5 431,-19.5 431,-0.5 381,-0.5"/>
<text text-anchor="middle" x="406" y="-7.5" font-family="Helvetica,sans-Serif" font-size="10.00">parts.h</text>
</a>
</g>
</g>
<!-- Node4&#45;&gt;Node13 -->
<g id="edge15" class="edge">
<title>Node4&#45;&gt;Node13</title>
<path fill="none" stroke="midnightblue" d="M515.62,-224.46C503.81,-216.33 486.83,-203.11 476,-188 456.82,-161.24 425.09,-68.9 411.96,-29.28"/>
<polygon fill="midnightblue" stroke="midnightblue" points="415.23,-28.01 408.78,-19.61 408.58,-30.2 415.23,-28.01"/>
</g>
<!-- Node14 -->
<g id="node11" class="node">
<title>Node14</title>
<g id="a_node11"><a xlink:href="interrupt_8h.html" target="_top" xlink:title="Global interrupt management for 8&#45; and 32&#45;bit AVR.">
<polygon fill="white" stroke="black" points="310,-56.5 310,-75.5 378,-75.5 378,-56.5 310,-56.5"/>
<text text-anchor="middle" x="344" y="-63.5" font-family="Helvetica,sans-Serif" font-size="10.00">interrupt.h</text>
</a>
</g>
</g>
<!-- Node4&#45;&gt;Node14 -->
<g id="edge12" class="edge">
<title>Node4&#45;&gt;Node14</title>
<path fill="none" stroke="midnightblue" d="M508.89,-226.67C486.37,-219.14 449.21,-205.38 420,-188 386.06,-167.81 369.87,-166.7 351,-132 343.29,-117.82 341.98,-99.34 342.35,-85.71"/>
<polygon fill="midnightblue" stroke="midnightblue" points="345.85,-85.79 342.94,-75.6 338.86,-85.38 345.85,-85.79"/>
</g>
<!-- Node16 -->
<g id="node12" class="node">
<title>Node16</title>
<g id="a_node12"><a xlink:href="status__codes_8h.html" target="_top" xlink:title="Status code definitions.">
<polygon fill="white" stroke="black" points="484.5,-168.5 484.5,-187.5 573.5,-187.5 573.5,-168.5 484.5,-168.5"/>
<text text-anchor="middle" x="529" y="-175.5" font-family="Helvetica,sans-Serif" font-size="10.00">status_codes.h</text>
</a>
</g>
</g>
<!-- Node4&#45;&gt;Node16 -->
<g id="edge14" class="edge">
<title>Node4&#45;&gt;Node16</title>
<path fill="none" stroke="midnightblue" d="M529,-224.08C529,-217.01 529,-206.86 529,-197.99"/>
<polygon fill="midnightblue" stroke="midnightblue" points="532.5,-197.75 529,-187.75 525.5,-197.75 532.5,-197.75"/>
</g>
<!-- Node5&#45;&gt;Node6 -->
<g id="edge5" class="edge">
<title>Node5&#45;&gt;Node6</title>
<path fill="none" stroke="midnightblue" d="M637.61,-168.08C642.37,-160.53 649.32,-149.49 655.15,-140.23"/>
<polygon fill="midnightblue" stroke="midnightblue" points="658.12,-142.08 660.49,-131.75 652.2,-138.35 658.12,-142.08"/>
</g>
<!-- Node7&#45;&gt;Node8 -->
<g id="edge7" class="edge">
<title>Node7&#45;&gt;Node8</title>
<path fill="none" stroke="midnightblue" d="M295.54,-168.44C314.62,-159.64 344.57,-145.81 366.44,-135.72"/>
<polygon fill="midnightblue" stroke="midnightblue" points="367.93,-138.88 375.55,-131.52 365,-132.53 367.93,-138.88"/>
</g>
<!-- Node8&#45;&gt;Node10 -->
<g id="edge8" class="edge">
<title>Node8&#45;&gt;Node10</title>
<path fill="none" stroke="midnightblue" d="M428.12,-118.85C564.81,-110.24 1072.19,-78.27 1213.98,-69.33"/>
<polygon fill="midnightblue" stroke="midnightblue" points="1214.54,-72.8 1224.3,-68.68 1214.1,-65.82 1214.54,-72.8"/>
</g>
<!-- Node8&#45;&gt;Node13 -->
<g id="edge9" class="edge">
<title>Node8&#45;&gt;Node13</title>
<path fill="none" stroke="midnightblue" d="M394.94,-112.37C396.88,-94.62 401.34,-53.67 403.97,-29.6"/>
<polygon fill="midnightblue" stroke="midnightblue" points="407.46,-29.91 405.06,-19.59 400.5,-29.15 407.46,-29.91"/>
</g>
<!-- Node8&#45;&gt;Node14 -->
<g id="edge10" class="edge">
<title>Node8&#45;&gt;Node14</title>
<path fill="none" stroke="midnightblue" d="M385.74,-112.08C378.53,-104.3 367.89,-92.8 359.15,-83.37"/>
<polygon fill="midnightblue" stroke="midnightblue" points="361.46,-80.71 352.1,-75.75 356.33,-85.47 361.46,-80.71"/>
</g>
<!-- Node14&#45;&gt;Node13 -->
<g id="edge11" class="edge">
<title>Node14&#45;&gt;Node13</title>
<path fill="none" stroke="midnightblue" d="M353.96,-56.32C363.13,-48.34 376.94,-36.31 388.03,-26.65"/>
<polygon fill="midnightblue" stroke="midnightblue" points="390.61,-29.04 395.86,-19.83 386.02,-23.76 390.61,-29.04"/>
</g>
<!-- Node20&#45;&gt;Node2 -->
<g id="edge24" class="edge">
<title>Node20&#45;&gt;Node2</title>
<path fill="none" stroke="midnightblue" d="M410.14,-299.43C454.49,-308.78 523.01,-323.91 567.49,-334.15"/>
<polygon fill="midnightblue" stroke="midnightblue" points="566.89,-337.6 577.43,-336.44 568.47,-330.78 566.89,-337.6"/>
</g>
<!-- Node21&#45;&gt;Node1 -->
<g id="edge33" class="edge">
<title>Node21&#45;&gt;Node1</title>
<path fill="none" stroke="midnightblue" d="M257.25,-299.54C319.99,-318.51 471.91,-364.45 554.79,-389.5"/>
<polygon fill="midnightblue" stroke="midnightblue" points="553.96,-392.91 564.54,-392.45 555.98,-386.21 553.96,-392.91"/>
</g>
<!-- Node21&#45;&gt;Node3 -->
<g id="edge26" class="edge">
<title>Node21&#45;&gt;Node3</title>
<path fill="none" stroke="midnightblue" d="M268.39,-284.86C283.02,-283.33 299.77,-281.58 315,-280 464.65,-264.48 643.09,-246.23 717.59,-238.61"/>
<polygon fill="midnightblue" stroke="midnightblue" points="718.22,-242.07 727.82,-237.57 717.51,-235.1 718.22,-242.07"/>
</g>
<!-- Node21&#45;&gt;Node4 -->
<g id="edge27" class="edge">
<title>Node21&#45;&gt;Node4</title>
<path fill="none" stroke="midnightblue" d="M268.22,-281.94C328.82,-271.03 443.93,-250.31 498.65,-240.46"/>
<polygon fill="midnightblue" stroke="midnightblue" points="499.53,-243.86 508.75,-238.64 498.29,-236.97 499.53,-243.86"/>
</g>
<!-- Node21&#45;&gt;Node6 -->
<g id="edge31" class="edge">
<title>Node21&#45;&gt;Node6</title>
<path fill="none" stroke="midnightblue" d="M243.53,-280.44C280.89,-258.75 383.85,-201.02 476,-168 522.28,-151.42 577.11,-139.18 615.94,-131.69"/>
<polygon fill="midnightblue" stroke="midnightblue" points="616.78,-135.09 625.95,-129.79 615.48,-128.21 616.78,-135.09"/>
</g>
<!-- Node21&#45;&gt;Node7 -->
<g id="edge30" class="edge">
<title>Node21&#45;&gt;Node7</title>
<path fill="none" stroke="midnightblue" d="M243.37,-280.33C254.88,-272.47 270.19,-259.72 277,-244 283.31,-229.44 282.69,-211.26 280.84,-197.83"/>
<polygon fill="midnightblue" stroke="midnightblue" points="284.27,-197.12 279.13,-187.86 277.37,-198.3 284.27,-197.12"/>
</g>
<!-- Node21&#45;&gt;Node17 -->
<g id="edge28" class="edge">
<title>Node21&#45;&gt;Node17</title>
<path fill="none" stroke="midnightblue" d="M199.05,-280.44C165.89,-270.97 112.43,-255.69 76.76,-245.5"/>
<polygon fill="midnightblue" stroke="midnightblue" points="77.33,-242.03 66.75,-242.64 75.4,-248.76 77.33,-242.03"/>
</g>
<!-- Node21&#45;&gt;Node18 -->
<g id="edge29" class="edge">
<title>Node21&#45;&gt;Node18</title>
<path fill="none" stroke="midnightblue" d="M212.77,-280.32C196.65,-271.7 171.7,-258.36 153.04,-248.39"/>
<polygon fill="midnightblue" stroke="midnightblue" points="154.66,-245.28 144.19,-243.65 151.36,-251.46 154.66,-245.28"/>
</g>
<!-- Node21&#45;&gt;Node19 -->
<g id="edge32" class="edge">
<title>Node21&#45;&gt;Node19</title>
<path fill="none" stroke="midnightblue" d="M258.95,-280.44C291.16,-271.24 342.53,-256.56 378.14,-246.39"/>
<polygon fill="midnightblue" stroke="midnightblue" points="379.54,-249.63 388.19,-243.52 377.62,-242.9 379.54,-249.63"/>
</g>
<!-- Node21&#45;&gt;Node22 -->
<g id="edge34" class="edge">
<title>Node21&#45;&gt;Node22</title>
<path fill="none" stroke="midnightblue" d="M229,-280.08C229,-273.01 229,-262.86 229,-253.99"/>
<polygon fill="midnightblue" stroke="midnightblue" points="232.5,-253.75 229,-243.75 225.5,-253.75 232.5,-253.75"/>
</g>
<!-- Node22&#45;&gt;Node2 -->
<g id="edge35" class="edge">
<title>Node22&#45;&gt;Node2</title>
<path fill="none" stroke="midnightblue" d="M220.5,-243.61C204.04,-256.45 173.01,-281.13 190,-300 213.63,-326.23 434.74,-338.21 546.76,-342.72"/>
<polygon fill="midnightblue" stroke="midnightblue" points="546.79,-346.22 556.92,-343.12 547.07,-339.23 546.79,-346.22"/>
</g>
<!-- Node23&#45;&gt;Node2 -->
<g id="edge37" class="edge">
<title>Node23&#45;&gt;Node2</title>
<path fill="none" stroke="midnightblue" d="M495.63,-299.52C521.19,-308.43 558.7,-322.5 584.04,-332.64"/>
<polygon fill="midnightblue" stroke="midnightblue" points="582.85,-335.93 593.43,-336.44 585.48,-329.44 582.85,-335.93"/>
</g>
<!-- Node24&#45;&gt;Node2 -->
<g id="edge40" class="edge">
<title>Node24&#45;&gt;Node2</title>
<path fill="none" stroke="midnightblue" d="M577.59,-299.75C585.67,-307.33 595.59,-318.5 602.73,-327.86"/>
<polygon fill="midnightblue" stroke="midnightblue" points="599.93,-329.96 608.57,-336.08 605.63,-325.9 599.93,-329.96"/>
</g>
<!-- Node25&#45;&gt;Node3 -->
<g id="edge43" class="edge">
<title>Node25&#45;&gt;Node3</title>
<path fill="none" stroke="midnightblue" d="M673.26,-280.32C688.22,-271.82 711.25,-258.73 728.73,-248.8"/>
<polygon fill="midnightblue" stroke="midnightblue" points="730.81,-251.64 737.77,-243.65 727.35,-245.55 730.81,-251.64"/>
</g>
<!-- Node25&#45;&gt;Node4 -->
<g id="edge42" class="edge">
<title>Node25&#45;&gt;Node4</title>
<path fill="none" stroke="midnightblue" d="M637.56,-280.44C616.33,-271.56 582.9,-257.56 558.74,-247.45"/>
<polygon fill="midnightblue" stroke="midnightblue" points="559.92,-244.15 549.34,-243.52 557.22,-250.61 559.92,-244.15"/>
</g>
<!-- Node25&#45;&gt;Node6 -->
<g id="edge45" class="edge">
<title>Node25&#45;&gt;Node6</title>
<path fill="none" stroke="midnightblue" d="M661.8,-280.22C669.96,-260.32 687.85,-210.21 681,-168 679.53,-158.96 676.51,-149.28 673.56,-141.22"/>
<polygon fill="midnightblue" stroke="midnightblue" points="676.76,-139.79 669.86,-131.75 670.24,-142.34 676.76,-139.79"/>
</g>
<!-- Node25&#45;&gt;Node7 -->
<g id="edge44" class="edge">
<title>Node25&#45;&gt;Node7</title>
<path fill="none" stroke="midnightblue" d="M622.47,-281.11C589.99,-273.38 540.91,-260.38 500,-244 482.28,-236.9 479.85,-230.75 462,-224 448.19,-218.78 363.52,-198.92 313.65,-187.4"/>
<polygon fill="midnightblue" stroke="midnightblue" points="314.4,-183.99 303.87,-185.15 312.83,-190.81 314.4,-183.99"/>
</g>
<!-- Node25&#45;&gt;Node19 -->
<g id="edge46" class="edge">
<title>Node25&#45;&gt;Node19</title>
<path fill="none" stroke="midnightblue" d="M622.33,-280.97C579.96,-271.44 509.23,-255.53 463.11,-245.15"/>
<polygon fill="midnightblue" stroke="midnightblue" points="463.61,-241.67 453.08,-242.89 462.07,-248.5 463.61,-241.67"/>
</g>
<!-- Node26&#45;&gt;Node2 -->
<g id="edge48" class="edge">
<title>Node26&#45;&gt;Node2</title>
<path fill="none" stroke="midnightblue" d="M741.58,-299.52C718.56,-308.59 678.98,-323 649.33,-333.17"/>
<polygon fill="midnightblue" stroke="midnightblue" points="648.04,-329.91 639.7,-336.44 650.29,-336.54 648.04,-329.91"/>
</g>
<!-- Node27&#45;&gt;Node2 -->
<g id="edge50" class="edge">
<title>Node27&#45;&gt;Node2</title>
<path fill="none" stroke="midnightblue" d="M837.6,-299.52C793.6,-308.98 719.27,-324.27 667.75,-334.47"/>
<polygon fill="midnightblue" stroke="midnightblue" points="666.89,-331.07 657.76,-336.44 668.25,-337.94 666.89,-331.07"/>
</g>
<!-- Node28&#45;&gt;Node2 -->
<g id="edge52" class="edge">
<title>Node28&#45;&gt;Node2</title>
<path fill="none" stroke="midnightblue" d="M941.85,-299.5C940.89,-299.67 939.94,-299.84 939,-300 848.07,-315.49 741.9,-329.7 675.46,-337.85"/>
<polygon fill="midnightblue" stroke="midnightblue" points="674.65,-334.42 665.15,-339.1 675.5,-341.37 674.65,-334.42"/>
</g>
<!-- Node29&#45;&gt;Node10 -->
<g id="edge54" class="edge">
<title>Node29&#45;&gt;Node10</title>
<path fill="none" stroke="midnightblue" d="M1296.08,-112.08C1288.22,-104.22 1276.57,-92.57 1267.08,-83.08"/>
<polygon fill="midnightblue" stroke="midnightblue" points="1269.3,-80.35 1259.75,-75.75 1264.35,-85.3 1269.3,-80.35"/>
</g>
<!-- Node30&#45;&gt;Node2 -->
<g id="edge56" class="edge">
<title>Node30&#45;&gt;Node2</title>
<path fill="none" stroke="midnightblue" d="M1066.87,-299.32C1065.23,-299.56 1063.6,-299.79 1062,-300 924.85,-318.39 762.87,-333.1 675.11,-340.26"/>
<polygon fill="midnightblue" stroke="midnightblue" points="674.72,-336.78 665.04,-341.08 675.29,-343.76 674.72,-336.78"/>
</g>
</g>
</svg>
        <g id="navigator" transform="translate(0 0)" fill="#404254">
                <rect fill="#f2f5e9" fill-opacity="0.5" stroke="#606060" stroke-width=".5" x="0" y="0" width="60" height="60"/>
                <use id="zoomplus" xlink:href="#zoomPlus" x="17" y="9" onmousedown="handleZoom(evt,'in')"/>
                <use id="zoomminus" xlink:href="#zoomMin" x="42" y="9" onmousedown="handleZoom(evt,'out')"/>
                <use id="reset" xlink:href="#resetDef" x="30" y="36" onmousedown="handleReset()"/>
                <g id="arrowUp" xlink:href="#dirArrow" transform="translate(30 24)" onmousedown="handlePan(0,-1)">
                  <use xlink:href="#rim" fill="#404040">
                        <set attributeName="fill" to="#808080" begin="arrowUp.mouseover" end="arrowUp.mouseout"/>
                  </use>
                  <path fill="none" stroke="white" stroke-width="1.5" d="M0,-3.0v7 M-2.5,-0.5L0,-3.0L2.5,-0.5"/>
                </g>
                <g id="arrowRight" xlink:href="#dirArrow" transform="rotate(90) translate(36 -43)" onmousedown="handlePan(1,0)">
                  <use xlink:href="#rim" fill="#404040">
                        <set attributeName="fill" to="#808080" begin="arrowRight.mouseover" end="arrowRight.mouseout"/>
                  </use>
                  <path fill="none" stroke="white" stroke-width="1.5" d="M0,-3.0v7 M-2.5,-0.5L0,-3.0L2.5,-0.5"/>
                </g>
                <g id="arrowDown" xlink:href="#dirArrow" transform="rotate(180) translate(-30 -48)" onmousedown="handlePan(0,1)">
                  <use xlink:href="#rim" fill="#404040">
                        <set attributeName="fill" to="#808080" begin="arrowDown.mouseover" end="arrowDown.mouseout"/>
                  </use>
                  <path fill="none" stroke="white" stroke-width="1.5" d="M0,-3.0v7 M-2.5,-0.5L0,-3.0L2.5,-0.5"/>
                </g>
                <g id="arrowLeft" xlink:href="#dirArrow" transform="rotate(270) translate(-36 17)" onmousedown="handlePan(-1,0)">
                  <use xlink:href="#rim" fill="#404040">
                        <set attributeName="fill" to="#808080" begin="arrowLeft.mouseover" end="arrowLeft.mouseout"/>
                  </use>
                  <path fill="none" stroke="white" stroke-width="1.5" d="M0,-3.0v7 M-2.5,-0.5L0,-3.0L2.5,-0.5"/>
                </g>
        </g>
        <svg viewBox="0 0 15 15" width="100%" height="30px" preserveAspectRatio="xMaxYMin meet">
         <g id="arrow_out" transform="scale(0.3 0.3)">
          <a xlink:href="____adc_____8h__incl_org.svg" target="_base">
           <rect id="button" ry="5" rx="5" y="6" x="6" height="38" width="38"
                fill="#f2f5e9" fill-opacity="0.5" stroke="#606060" stroke-width="1.0"/>
           <path id="arrow"
             d="M 11.500037,31.436501 C 11.940474,20.09759 22.043105,11.32322 32.158766,21.979434 L 37.068811,17.246167 C 37.068811,17.246167 37.088388,32 37.088388,32 L 22.160133,31.978069 C 22.160133,31.978069 26.997745,27.140456 26.997745,27.140456 C 18.528582,18.264221 13.291696,25.230495 11.500037,31.436501 z"
             style="fill:#404040;"/>
          </a>
         </g>
        </svg>
</svg>
