<?xml version="1.0" encoding="UTF-8" standalone="no"?>
<!DOCTYPE svg PUBLIC "-//W3C//DTD SVG 1.1//EN"
 "http://www.w3.org/Graphics/SVG/1.1/DTD/svg11.dtd">
<!-- Generated by graphviz version 2.43.0 (0)
 -->
<!-- Title: swarm_bot_cpp/src/__timer0__.h Pages: 1 -->
<svg width="1512pt" height="251pt"
 viewBox="0.00 0.00 1512.00 251.00" xmlns="http://www.w3.org/2000/svg" xmlns:xlink="http://www.w3.org/1999/xlink">
<g id="graph0" class="graph" transform="scale(1 1) rotate(0) translate(4 247)">
<title>swarm_bot_cpp/src/__timer0__.h</title>
<polygon fill="white" stroke="transparent" points="-4,4 -4,-247 1508,-247 1508,4 -4,4"/>
<!-- Node1 -->
<g id="node1" class="node">
<title>Node1</title>
<g id="a_node1"><a xlink:title="Header file for timer0.c.">
<polygon fill="#bfbfbf" stroke="black" points="736,-212.5 736,-242.5 849,-242.5 849,-212.5 736,-212.5"/>
<text text-anchor="start" x="744" y="-230.5" font-family="Helvetica,sans-Serif" font-size="10.00">swarm_bot_cpp/src/</text>
<text text-anchor="middle" x="792.5" y="-219.5" font-family="Helvetica,sans-Serif" font-size="10.00">__timer0__.h</text>
</a>
</g>
</g>
<!-- Node2 -->
<g id="node2" class="node">
<title>Node2</title>
<g id="a_node2"><a xlink:href="____swarm__wold_____8h.html" target="_top" xlink:title="Header file for dummy purposes.">
<polygon fill="white" stroke="black" points="736,-145.5 736,-175.5 849,-175.5 849,-145.5 736,-145.5"/>
<text text-anchor="start" x="744" y="-163.5" font-family="Helvetica,sans-Serif" font-size="10.00">swarm_bot_cpp/src/</text>
<text text-anchor="middle" x="792.5" y="-152.5" font-family="Helvetica,sans-Serif" font-size="10.00">__swarm_wold__.h</text>
</a>
</g>
</g>
<!-- Node1&#45;&gt;Node2 -->
<g id="edge1" class="edge">
<title>Node1&#45;&gt;Node2</title>
<path fill="none" stroke="midnightblue" d="M785.95,-202.4C785.51,-193.37 785.8,-183.41 786.83,-175.58"/>
<polygon fill="midnightblue" stroke="midnightblue" points="782.47,-202.74 786.82,-212.4 789.44,-202.13 782.47,-202.74"/>
</g>
<!-- Node24 -->
<g id="node24" class="node">
<title>Node24</title>
<g id="a_node24"><a xlink:href=".html" target="_top" xlink:title=" ">
<polygon fill="white" stroke="black" points="867,-145.5 867,-175.5 980,-175.5 980,-145.5 867,-145.5"/>
<text text-anchor="start" x="875" y="-163.5" font-family="Helvetica,sans-Serif" font-size="10.00">swarm_bot_cpp/src/</text>
<text text-anchor="middle" x="923.5" y="-152.5" font-family="Helvetica,sans-Serif" font-size="10.00">__timer0__.c</text>
</a>
</g>
</g>
<!-- Node1&#45;&gt;Node24 -->
<g id="edge35" class="edge">
<title>Node1&#45;&gt;Node24</title>
<path fill="none" stroke="midnightblue" d="M830.08,-207.85C850.79,-197.58 876.09,-185.03 895.13,-175.58"/>
<polygon fill="midnightblue" stroke="midnightblue" points="828.33,-204.82 820.93,-212.4 831.44,-211.09 828.33,-204.82"/>
</g>
<!-- Node2&#45;&gt;Node1 -->
<g id="edge26" class="edge">
<title>Node2&#45;&gt;Node1</title>
<path fill="none" stroke="midnightblue" d="M799.04,-185.57C799.49,-194.6 799.21,-204.56 798.18,-212.4"/>
<polygon fill="midnightblue" stroke="midnightblue" points="802.53,-185.24 798.17,-175.58 795.55,-185.84 802.53,-185.24"/>
</g>
<!-- Node3 -->
<g id="node3" class="node">
<title>Node3</title>
<g id="a_node3"><a xlink:href="init_8c.html" target="_top" xlink:title="User board initialization template.">
<polygon fill="white" stroke="black" points="0,-67.5 0,-108.5 155,-108.5 155,-67.5 0,-67.5"/>
<text text-anchor="start" x="8" y="-96.5" font-family="Helvetica,sans-Serif" font-size="10.00">swarm_bot_cpp/src/ASF</text>
<text text-anchor="start" x="8" y="-85.5" font-family="Helvetica,sans-Serif" font-size="10.00">/common/boards/user_board</text>
<text text-anchor="middle" x="77.5" y="-74.5" font-family="Helvetica,sans-Serif" font-size="10.00">/init.c</text>
</a>
</g>
</g>
<!-- Node2&#45;&gt;Node3 -->
<g id="edge2" class="edge">
<title>Node2&#45;&gt;Node3</title>
<path fill="none" stroke="midnightblue" d="M725.7,-157.39C610.4,-153.03 366.83,-140.63 163.5,-109 160.77,-108.58 158.01,-108.11 155.21,-107.62"/>
<polygon fill="midnightblue" stroke="midnightblue" points="725.67,-160.89 735.79,-157.77 725.92,-153.9 725.67,-160.89"/>
</g>
<!-- Node4 -->
<g id="node4" class="node">
<title>Node4</title>
<g id="a_node4"><a xlink:href="____adc_____8h.html" target="_top" xlink:title="Header file for adc.c.">
<polygon fill="white" stroke="black" points="998,-73 998,-103 1111,-103 1111,-73 998,-73"/>
<text text-anchor="start" x="1006" y="-91" font-family="Helvetica,sans-Serif" font-size="10.00">swarm_bot_cpp/src/</text>
<text text-anchor="middle" x="1054.5" y="-80" font-family="Helvetica,sans-Serif" font-size="10.00">__adc__.h</text>
</a>
</g>
</g>
<!-- Node2&#45;&gt;Node4 -->
<g id="edge3" class="edge">
<title>Node2&#45;&gt;Node4</title>
<path fill="none" stroke="midnightblue" d="M852.94,-142.82C889.88,-133.34 937.94,-120.99 980.5,-109 987.09,-107.14 994.03,-105.1 1000.93,-103.05"/>
<polygon fill="midnightblue" stroke="midnightblue" points="851.64,-139.54 842.83,-145.41 853.38,-146.32 851.64,-139.54"/>
</g>
<!-- Node7 -->
<g id="node7" class="node">
<title>Node7</title>
<g id="a_node7"><a xlink:href="____dc__control_____8h.html" target="_top" xlink:title="Header file for dc_control.c.">
<polygon fill="white" stroke="black" points="173,-73 173,-103 286,-103 286,-73 173,-73"/>
<text text-anchor="start" x="181" y="-91" font-family="Helvetica,sans-Serif" font-size="10.00">swarm_bot_cpp/src/</text>
<text text-anchor="middle" x="229.5" y="-80" font-family="Helvetica,sans-Serif" font-size="10.00">__dc_control__.h</text>
</a>
</g>
</g>
<!-- Node2&#45;&gt;Node7 -->
<g id="edge8" class="edge">
<title>Node2&#45;&gt;Node7</title>
<path fill="none" stroke="midnightblue" d="M725.68,-157.19C627.93,-152.74 440.98,-140.48 285.5,-109 277.75,-107.43 269.6,-105.31 261.96,-103.04"/>
<polygon fill="midnightblue" stroke="midnightblue" points="725.58,-160.69 735.72,-157.63 725.89,-153.69 725.58,-160.69"/>
</g>
<!-- Node9 -->
<g id="node9" class="node">
<title>Node9</title>
<g id="a_node9"><a xlink:href="____format_____8h.html" target="_top" xlink:title="Header file for format.c.">
<polygon fill="white" stroke="black" points="304,-73 304,-103 417,-103 417,-73 304,-73"/>
<text text-anchor="start" x="312" y="-91" font-family="Helvetica,sans-Serif" font-size="10.00">swarm_bot_cpp/src/</text>
<text text-anchor="middle" x="360.5" y="-80" font-family="Helvetica,sans-Serif" font-size="10.00">__format__.h</text>
</a>
</g>
</g>
<!-- Node2&#45;&gt;Node9 -->
<g id="edge11" class="edge">
<title>Node2&#45;&gt;Node9</title>
<path fill="none" stroke="midnightblue" d="M725.54,-154.19C649.72,-147.09 523.11,-132.57 416.5,-109 409.01,-107.34 401.13,-105.24 393.69,-103.02"/>
<polygon fill="midnightblue" stroke="midnightblue" points="725.62,-157.72 735.89,-155.15 726.26,-150.75 725.62,-157.72"/>
</g>
<!-- Node11 -->
<g id="node11" class="node">
<title>Node11</title>
<g id="a_node11"><a xlink:href="_____i_n_t__0__1_____8h.html" target="_top" xlink:title="Header file for INT_0_1.c.">
<polygon fill="white" stroke="black" points="435,-73 435,-103 548,-103 548,-73 435,-73"/>
<text text-anchor="start" x="443" y="-91" font-family="Helvetica,sans-Serif" font-size="10.00">swarm_bot_cpp/src/</text>
<text text-anchor="middle" x="491.5" y="-80" font-family="Helvetica,sans-Serif" font-size="10.00">__INT_0_1__.h</text>
</a>
</g>
</g>
<!-- Node2&#45;&gt;Node11 -->
<g id="edge14" class="edge">
<title>Node2&#45;&gt;Node11</title>
<path fill="none" stroke="midnightblue" d="M725.58,-148.25C675.96,-138.84 607.06,-124.5 547.5,-109 540.64,-107.22 533.43,-105.17 526.52,-103.08"/>
<polygon fill="midnightblue" stroke="midnightblue" points="725.08,-151.71 735.55,-150.12 726.37,-144.83 725.08,-151.71"/>
</g>
<!-- Node13 -->
<g id="node13" class="node">
<title>Node13</title>
<g id="a_node13"><a xlink:href="____kinematics_____8h.html" target="_top" xlink:title="Header file for kimenatics.c.">
<polygon fill="white" stroke="black" points="566,-73 566,-103 679,-103 679,-73 566,-73"/>
<text text-anchor="start" x="574" y="-91" font-family="Helvetica,sans-Serif" font-size="10.00">swarm_bot_cpp/src/</text>
<text text-anchor="middle" x="622.5" y="-80" font-family="Helvetica,sans-Serif" font-size="10.00">__kinematics__.h</text>
</a>
</g>
</g>
<!-- Node2&#45;&gt;Node13 -->
<g id="edge17" class="edge">
<title>Node2&#45;&gt;Node13</title>
<path fill="none" stroke="midnightblue" d="M749.09,-141.5C720.3,-129.56 683.06,-114.11 656.43,-103.07"/>
<polygon fill="midnightblue" stroke="midnightblue" points="747.93,-144.8 758.51,-145.4 750.61,-138.34 747.93,-144.8"/>
</g>
<!-- Node15 -->
<g id="node15" class="node">
<title>Node15</title>
<g id="a_node15"><a xlink:href=".html" target="_top" xlink:title=" ">
<polygon fill="white" stroke="black" points="571.5,-6 571.5,-25 717.5,-25 717.5,-6 571.5,-6"/>
<text text-anchor="middle" x="644.5" y="-13" font-family="Helvetica,sans-Serif" font-size="10.00">swarm_bot_cpp/src/main.c</text>
</a>
</g>
</g>
<!-- Node2&#45;&gt;Node15 -->
<g id="edge34" class="edge">
<title>Node2&#45;&gt;Node15</title>
<path fill="none" stroke="midnightblue" d="M763.74,-139.37C751.8,-130.54 738.06,-119.75 726.5,-109 710.63,-94.24 668.75,-45.18 651.79,-25.14"/>
<polygon fill="midnightblue" stroke="midnightblue" points="761.91,-142.37 772.06,-145.42 766.03,-136.71 761.91,-142.37"/>
</g>
<!-- Node16 -->
<g id="node16" class="node">
<title>Node16</title>
<g id="a_node16"><a xlink:href="____odometry_____8h.html" target="_top" xlink:title="Header file for odometry.c.">
<polygon fill="white" stroke="black" points="736,-73 736,-103 849,-103 849,-73 736,-73"/>
<text text-anchor="start" x="744" y="-91" font-family="Helvetica,sans-Serif" font-size="10.00">swarm_bot_cpp/src/</text>
<text text-anchor="middle" x="792.5" y="-80" font-family="Helvetica,sans-Serif" font-size="10.00">__odometry__.h</text>
</a>
</g>
</g>
<!-- Node2&#45;&gt;Node16 -->
<g id="edge20" class="edge">
<title>Node2&#45;&gt;Node16</title>
<path fill="none" stroke="midnightblue" d="M786.05,-135.23C785.45,-124.57 785.75,-112.41 786.95,-103.25"/>
<polygon fill="midnightblue" stroke="midnightblue" points="782.57,-135.59 786.95,-145.23 789.54,-134.96 782.57,-135.59"/>
</g>
<!-- Node18 -->
<g id="node18" class="node">
<title>Node18</title>
<g id="a_node18"><a xlink:href="____pwm_____8h.html" target="_top" xlink:title="Header file for pwm.c.">
<polygon fill="white" stroke="black" points="867,-73 867,-103 980,-103 980,-73 867,-73"/>
<text text-anchor="start" x="875" y="-91" font-family="Helvetica,sans-Serif" font-size="10.00">swarm_bot_cpp/src/</text>
<text text-anchor="middle" x="923.5" y="-80" font-family="Helvetica,sans-Serif" font-size="10.00">__pwm__.h</text>
</a>
</g>
</g>
<!-- Node2&#45;&gt;Node18 -->
<g id="edge23" class="edge">
<title>Node2&#45;&gt;Node18</title>
<path fill="none" stroke="midnightblue" d="M821.92,-140.4C842.74,-128.62 870.51,-113.78 891.83,-103.07"/>
<polygon fill="midnightblue" stroke="midnightblue" points="820.11,-137.4 813.17,-145.4 823.59,-143.48 820.11,-137.4"/>
</g>
<!-- Node20 -->
<g id="node20" class="node">
<title>Node20</title>
<g id="a_node20"><a xlink:href="____timer1_____8h.html" target="_top" xlink:title="Header file for timer1.c.">
<polygon fill="white" stroke="black" points="1168,-73 1168,-103 1281,-103 1281,-73 1168,-73"/>
<text text-anchor="start" x="1176" y="-91" font-family="Helvetica,sans-Serif" font-size="10.00">swarm_bot_cpp/src/</text>
<text text-anchor="middle" x="1224.5" y="-80" font-family="Helvetica,sans-Serif" font-size="10.00">__timer1__.h</text>
</a>
</g>
</g>
<!-- Node2&#45;&gt;Node20 -->
<g id="edge27" class="edge">
<title>Node2&#45;&gt;Node20</title>
<path fill="none" stroke="midnightblue" d="M856.65,-143.82C981.56,-123.4 1018.29,-134.32 1144.5,-109 1152.66,-107.36 1161.26,-105.27 1169.68,-103.05"/>
<polygon fill="midnightblue" stroke="midnightblue" points="855.99,-140.39 846.71,-145.49 857.15,-147.29 855.99,-140.39"/>
</g>
<!-- Node22 -->
<g id="node22" class="node">
<title>Node22</title>
<g id="a_node22"><a xlink:href="____timer2_____8h.html" target="_top" xlink:title="Header file for timer2.c.">
<polygon fill="white" stroke="black" points="1299,-73 1299,-103 1412,-103 1412,-73 1299,-73"/>
<text text-anchor="start" x="1307" y="-91" font-family="Helvetica,sans-Serif" font-size="10.00">swarm_bot_cpp/src/</text>
<text text-anchor="middle" x="1355.5" y="-80" font-family="Helvetica,sans-Serif" font-size="10.00">__timer2__.h</text>
</a>
</g>
</g>
<!-- Node2&#45;&gt;Node22 -->
<g id="edge31" class="edge">
<title>Node2&#45;&gt;Node22</title>
<path fill="none" stroke="midnightblue" d="M856.43,-144C1041.89,-117.27 1095.66,-144.9 1281.5,-109 1289.38,-107.48 1297.66,-105.35 1305.74,-103.05"/>
<polygon fill="midnightblue" stroke="midnightblue" points="855.73,-140.57 846.35,-145.49 856.75,-147.5 855.73,-140.57"/>
</g>
<!-- Node4&#45;&gt;Node2 -->
<g id="edge7" class="edge">
<title>Node4&#45;&gt;Node2</title>
<path fill="none" stroke="midnightblue" d="M1008.89,-106C1005.39,-107.04 1001.9,-108.04 998.5,-109 948.54,-123.08 891,-137.64 849.36,-147.49"/>
<polygon fill="midnightblue" stroke="midnightblue" points="1010.15,-109.28 1018.72,-103.05 1008.14,-102.58 1010.15,-109.28"/>
</g>
<!-- Node5 -->
<g id="node5" class="node">
<title>Node5</title>
<g id="a_node5"><a xlink:href=".html" target="_top" xlink:title=" ">
<polygon fill="white" stroke="black" points="998,-0.5 998,-30.5 1111,-30.5 1111,-0.5 998,-0.5"/>
<text text-anchor="start" x="1006" y="-18.5" font-family="Helvetica,sans-Serif" font-size="10.00">swarm_bot_cpp/src/</text>
<text text-anchor="middle" x="1054.5" y="-7.5" font-family="Helvetica,sans-Serif" font-size="10.00">__adc__.c</text>
</a>
</g>
</g>
<!-- Node4&#45;&gt;Node5 -->
<g id="edge4" class="edge">
<title>Node4&#45;&gt;Node5</title>
<path fill="none" stroke="midnightblue" d="M1054.5,-62.73C1054.5,-52.07 1054.5,-39.91 1054.5,-30.75"/>
<polygon fill="midnightblue" stroke="midnightblue" points="1051,-62.73 1054.5,-72.73 1058,-62.73 1051,-62.73"/>
</g>
<!-- Node6 -->
<g id="node6" class="node">
<title>Node6</title>
<g id="a_node6"><a xlink:href=".html" target="_top" xlink:title=" ">
<polygon fill="white" stroke="black" points="1129,-0.5 1129,-30.5 1242,-30.5 1242,-0.5 1129,-0.5"/>
<text text-anchor="start" x="1137" y="-18.5" font-family="Helvetica,sans-Serif" font-size="10.00">swarm_bot_cpp/src/</text>
<text text-anchor="middle" x="1185.5" y="-7.5" font-family="Helvetica,sans-Serif" font-size="10.00">__pin_map.h</text>
</a>
</g>
</g>
<!-- Node4&#45;&gt;Node6 -->
<g id="edge5" class="edge">
<title>Node4&#45;&gt;Node6</title>
<path fill="none" stroke="midnightblue" d="M1089.7,-68.06C1111.63,-56.26 1139.37,-41.33 1159.35,-30.57"/>
<polygon fill="midnightblue" stroke="midnightblue" points="1087.84,-65.08 1080.69,-72.9 1091.16,-71.25 1087.84,-65.08"/>
</g>
<!-- Node6&#45;&gt;Node2 -->
<g id="edge6" class="edge">
<title>Node6&#45;&gt;Node2</title>
<path fill="none" stroke="midnightblue" d="M1172.39,-39.3C1157.81,-63.84 1134.47,-100.49 1120.5,-109 1020.14,-170.18 974.21,-124.37 858.5,-145 855.5,-145.54 852.42,-146.11 849.32,-146.71"/>
<polygon fill="midnightblue" stroke="midnightblue" points="1175.47,-40.98 1177.51,-30.58 1169.43,-37.43 1175.47,-40.98"/>
</g>
<!-- Node7&#45;&gt;Node2 -->
<g id="edge10" class="edge">
<title>Node7&#45;&gt;Node2</title>
<path fill="none" stroke="midnightblue" d="M289.39,-105.71C294.15,-106.94 298.9,-108.07 303.5,-109 458.3,-140.34 644.31,-152.64 735.97,-157.13"/>
<polygon fill="midnightblue" stroke="midnightblue" points="290.2,-102.3 279.63,-103.04 288.36,-109.05 290.2,-102.3"/>
</g>
<!-- Node8 -->
<g id="node8" class="node">
<title>Node8</title>
<g id="a_node8"><a xlink:href="____dc__control_____8c.html" target="_top" xlink:title="Header file for dc_control.c.">
<polygon fill="white" stroke="black" points="47,-0.5 47,-30.5 160,-30.5 160,-0.5 47,-0.5"/>
<text text-anchor="start" x="55" y="-18.5" font-family="Helvetica,sans-Serif" font-size="10.00">swarm_bot_cpp/src/</text>
<text text-anchor="middle" x="103.5" y="-7.5" font-family="Helvetica,sans-Serif" font-size="10.00">__dc_control__.c</text>
</a>
</g>
</g>
<!-- Node7&#45;&gt;Node8 -->
<g id="edge9" class="edge">
<title>Node7&#45;&gt;Node8</title>
<path fill="none" stroke="midnightblue" d="M195.36,-67.9C174.31,-56.12 147.78,-41.28 128.65,-30.57"/>
<polygon fill="midnightblue" stroke="midnightblue" points="193.87,-71.07 204.3,-72.9 197.29,-64.97 193.87,-71.07"/>
</g>
<!-- Node9&#45;&gt;Node2 -->
<g id="edge13" class="edge">
<title>Node9&#45;&gt;Node2</title>
<path fill="none" stroke="midnightblue" d="M421.22,-105.74C425.71,-106.93 430.17,-108.04 434.5,-109 539.84,-132.29 664.71,-146.74 735.75,-153.94"/>
<polygon fill="midnightblue" stroke="midnightblue" points="421.97,-102.32 411.4,-103.02 420.1,-109.06 421.97,-102.32"/>
</g>
<!-- Node10 -->
<g id="node10" class="node">
<title>Node10</title>
<g id="a_node10"><a xlink:href="____format_____8c.html" target="_top" xlink:title="Header file for format.c.">
<polygon fill="white" stroke="black" points="178,-0.5 178,-30.5 291,-30.5 291,-0.5 178,-0.5"/>
<text text-anchor="start" x="186" y="-18.5" font-family="Helvetica,sans-Serif" font-size="10.00">swarm_bot_cpp/src/</text>
<text text-anchor="middle" x="234.5" y="-7.5" font-family="Helvetica,sans-Serif" font-size="10.00">__format__.c</text>
</a>
</g>
</g>
<!-- Node9&#45;&gt;Node10 -->
<g id="edge12" class="edge">
<title>Node9&#45;&gt;Node10</title>
<path fill="none" stroke="midnightblue" d="M326.36,-67.9C305.31,-56.12 278.78,-41.28 259.65,-30.57"/>
<polygon fill="midnightblue" stroke="midnightblue" points="324.87,-71.07 335.3,-72.9 328.29,-64.97 324.87,-71.07"/>
</g>
<!-- Node11&#45;&gt;Node2 -->
<g id="edge16" class="edge">
<title>Node11&#45;&gt;Node2</title>
<path fill="none" stroke="midnightblue" d="M554,-105.87C557.89,-106.97 561.75,-108.02 565.5,-109 623.28,-124.04 689.86,-137.98 735.99,-147.39"/>
<polygon fill="midnightblue" stroke="midnightblue" points="554.87,-102.48 544.29,-103.08 552.93,-109.21 554.87,-102.48"/>
</g>
<!-- Node12 -->
<g id="node12" class="node">
<title>Node12</title>
<g id="a_node12"><a xlink:href=".html" target="_top" xlink:title=" ">
<polygon fill="white" stroke="black" points="309,-0.5 309,-30.5 422,-30.5 422,-0.5 309,-0.5"/>
<text text-anchor="start" x="317" y="-18.5" font-family="Helvetica,sans-Serif" font-size="10.00">swarm_bot_cpp/src/</text>
<text text-anchor="middle" x="365.5" y="-7.5" font-family="Helvetica,sans-Serif" font-size="10.00">__INT_0_1__.c</text>
</a>
</g>
</g>
<!-- Node11&#45;&gt;Node12 -->
<g id="edge15" class="edge">
<title>Node11&#45;&gt;Node12</title>
<path fill="none" stroke="midnightblue" d="M457.36,-67.9C436.31,-56.12 409.78,-41.28 390.65,-30.57"/>
<polygon fill="midnightblue" stroke="midnightblue" points="455.87,-71.07 466.3,-72.9 459.29,-64.97 455.87,-71.07"/>
</g>
<!-- Node14 -->
<g id="node14" class="node">
<title>Node14</title>
<g id="a_node14"><a xlink:href=".html" target="_top" xlink:title=" ">
<polygon fill="white" stroke="black" points="440,-0.5 440,-30.5 553,-30.5 553,-0.5 440,-0.5"/>
<text text-anchor="start" x="448" y="-18.5" font-family="Helvetica,sans-Serif" font-size="10.00">swarm_bot_cpp/src/</text>
<text text-anchor="middle" x="496.5" y="-7.5" font-family="Helvetica,sans-Serif" font-size="10.00">__kinematics__.c</text>
</a>
</g>
</g>
<!-- Node13&#45;&gt;Node14 -->
<g id="edge18" class="edge">
<title>Node13&#45;&gt;Node14</title>
<path fill="none" stroke="midnightblue" d="M588.36,-67.9C567.31,-56.12 540.78,-41.28 521.65,-30.57"/>
<polygon fill="midnightblue" stroke="midnightblue" points="586.87,-71.07 597.3,-72.9 590.29,-64.97 586.87,-71.07"/>
</g>
<!-- Node13&#45;&gt;Node15 -->
<g id="edge19" class="edge">
<title>Node13&#45;&gt;Node15</title>
<path fill="none" stroke="midnightblue" d="M630,-62.98C634.04,-50.01 638.79,-34.79 641.72,-25.39"/>
<polygon fill="midnightblue" stroke="midnightblue" points="626.59,-62.14 626.95,-72.73 633.27,-64.23 626.59,-62.14"/>
</g>
<!-- Node16&#45;&gt;Node2 -->
<g id="edge22" class="edge">
<title>Node16&#45;&gt;Node2</title>
<path fill="none" stroke="midnightblue" d="M798.95,-113.24C799.55,-123.91 799.25,-136.06 798.05,-145.23"/>
<polygon fill="midnightblue" stroke="midnightblue" points="802.43,-112.89 798.05,-103.25 795.46,-113.52 802.43,-112.89"/>
</g>
<!-- Node17 -->
<g id="node17" class="node">
<title>Node17</title>
<g id="a_node17"><a xlink:href=".html" target="_top" xlink:title=" ">
<polygon fill="white" stroke="black" points="736,-0.5 736,-30.5 849,-30.5 849,-0.5 736,-0.5"/>
<text text-anchor="start" x="744" y="-18.5" font-family="Helvetica,sans-Serif" font-size="10.00">swarm_bot_cpp/src/</text>
<text text-anchor="middle" x="792.5" y="-7.5" font-family="Helvetica,sans-Serif" font-size="10.00">__odometry__.c</text>
</a>
</g>
</g>
<!-- Node16&#45;&gt;Node17 -->
<g id="edge21" class="edge">
<title>Node16&#45;&gt;Node17</title>
<path fill="none" stroke="midnightblue" d="M792.5,-62.73C792.5,-52.07 792.5,-39.91 792.5,-30.75"/>
<polygon fill="midnightblue" stroke="midnightblue" points="789,-62.73 792.5,-72.73 796,-62.73 789,-62.73"/>
</g>
<!-- Node18&#45;&gt;Node2 -->
<g id="edge25" class="edge">
<title>Node18&#45;&gt;Node2</title>
<path fill="none" stroke="midnightblue" d="M894.13,-108.07C873.31,-119.85 845.55,-134.69 824.22,-145.4"/>
<polygon fill="midnightblue" stroke="midnightblue" points="895.93,-111.08 902.87,-103.07 892.46,-105 895.93,-111.08"/>
</g>
<!-- Node19 -->
<g id="node19" class="node">
<title>Node19</title>
<g id="a_node19"><a xlink:href=".html" target="_top" xlink:title=" ">
<polygon fill="white" stroke="black" points="867,-0.5 867,-30.5 980,-30.5 980,-0.5 867,-0.5"/>
<text text-anchor="start" x="875" y="-18.5" font-family="Helvetica,sans-Serif" font-size="10.00">swarm_bot_cpp/src/</text>
<text text-anchor="middle" x="923.5" y="-7.5" font-family="Helvetica,sans-Serif" font-size="10.00">__pwm__.c</text>
</a>
</g>
</g>
<!-- Node18&#45;&gt;Node19 -->
<g id="edge24" class="edge">
<title>Node18&#45;&gt;Node19</title>
<path fill="none" stroke="midnightblue" d="M923.5,-62.73C923.5,-52.07 923.5,-39.91 923.5,-30.75"/>
<polygon fill="midnightblue" stroke="midnightblue" points="920,-62.73 923.5,-72.73 927,-62.73 920,-62.73"/>
</g>
<!-- Node20&#45;&gt;Node2 -->
<g id="edge29" class="edge">
<title>Node20&#45;&gt;Node2</title>
<path fill="none" stroke="midnightblue" d="M1177.7,-105.57C1172.61,-106.83 1167.47,-108 1162.5,-109 1033,-134.98 997.71,-122.8 867.5,-145 861.6,-146.01 855.43,-147.19 849.27,-148.43"/>
<polygon fill="midnightblue" stroke="midnightblue" points="1178.59,-108.96 1187.39,-103.05 1176.83,-102.18 1178.59,-108.96"/>
</g>
<!-- Node20&#45;&gt;Node6 -->
<g id="edge28" class="edge">
<title>Node20&#45;&gt;Node6</title>
<path fill="none" stroke="midnightblue" d="M1211.63,-63.73C1205.6,-52.83 1198.61,-40.2 1193.38,-30.75"/>
<polygon fill="midnightblue" stroke="midnightblue" points="1208.7,-65.68 1216.61,-72.73 1214.83,-62.29 1208.7,-65.68"/>
</g>
<!-- Node21 -->
<g id="node21" class="node">
<title>Node21</title>
<g id="a_node21"><a xlink:href=".html" target="_top" xlink:title=" ">
<polygon fill="white" stroke="black" points="1260,-0.5 1260,-30.5 1373,-30.5 1373,-0.5 1260,-0.5"/>
<text text-anchor="start" x="1268" y="-18.5" font-family="Helvetica,sans-Serif" font-size="10.00">swarm_bot_cpp/src/</text>
<text text-anchor="middle" x="1316.5" y="-7.5" font-family="Helvetica,sans-Serif" font-size="10.00">__timer1__.c</text>
</a>
</g>
</g>
<!-- Node20&#45;&gt;Node21 -->
<g id="edge30" class="edge">
<title>Node20&#45;&gt;Node21</title>
<path fill="none" stroke="midnightblue" d="M1251.11,-66.61C1266.22,-55.03 1284.75,-40.83 1298.22,-30.5"/>
<polygon fill="midnightblue" stroke="midnightblue" points="1248.93,-63.87 1243.12,-72.73 1253.18,-69.43 1248.93,-63.87"/>
</g>
<!-- Node22&#45;&gt;Node2 -->
<g id="edge32" class="edge">
<title>Node22&#45;&gt;Node2</title>
<path fill="none" stroke="midnightblue" d="M1313.77,-105.74C1309,-106.98 1304.18,-108.1 1299.5,-109 1110.33,-145.54 1058.01,-116.27 867.5,-145 861.58,-145.89 855.41,-147 849.23,-148.21"/>
<polygon fill="midnightblue" stroke="midnightblue" points="1314.71,-109.11 1323.41,-103.05 1312.83,-102.37 1314.71,-109.11"/>
</g>
<!-- Node23 -->
<g id="node23" class="node">
<title>Node23</title>
<g id="a_node23"><a xlink:href=".html" target="_top" xlink:title=" ">
<polygon fill="white" stroke="black" points="1391,-0.5 1391,-30.5 1504,-30.5 1504,-0.5 1391,-0.5"/>
<text text-anchor="start" x="1399" y="-18.5" font-family="Helvetica,sans-Serif" font-size="10.00">swarm_bot_cpp/src/</text>
<text text-anchor="middle" x="1447.5" y="-7.5" font-family="Helvetica,sans-Serif" font-size="10.00">__timer2__.c</text>
</a>
</g>
</g>
<!-- Node22&#45;&gt;Node23 -->
<g id="edge33" class="edge">
<title>Node22&#45;&gt;Node23</title>
<path fill="none" stroke="midnightblue" d="M1382.11,-66.61C1397.22,-55.03 1415.75,-40.83 1429.22,-30.5"/>
<polygon fill="midnightblue" stroke="midnightblue" points="1379.93,-63.87 1374.12,-72.73 1384.18,-69.43 1379.93,-63.87"/>
</g>
</g>
</svg>
