<?xml version="1.0" encoding="UTF-8" standalone="no"?>
<!DOCTYPE svg PUBLIC "-//W3C//DTD SVG 1.1//EN"
 "http://www.w3.org/Graphics/SVG/1.1/DTD/svg11.dtd">
<!-- Generated by graphviz version 2.43.0 (0)
 -->
<!-- Title: swarm_bot_cpp/src/__adc__.h Pages: 1 -->
<!--zoomable 307 -->
<svg id="main" version="1.1" xmlns="http://www.w3.org/2000/svg" xmlns:xlink="http://www.w3.org/1999/xlink" xml:space="preserve" onload="init(evt)">
<style type="text/css"><![CDATA[
.edge:hover path { stroke: red; }
.edge:hover polygon { stroke: red; fill: red; }
]]></style>
<script type="text/javascript"><![CDATA[
var edges = document.getElementsByTagName('g');
if (edges && edges.length) {
  for (var i=0;i<edges.length;i++) {
    if (edges[i].id.substr(0,4)=='edge') {
      edges[i].setAttribute('class','edge');
    }
  }
}
]]></script>
        <defs>
                <circle id="rim" cx="0" cy="0" r="7"/>
                <circle id="rim2" cx="0" cy="0" r="3.5"/>
                <g id="zoomPlus">
                        <use xlink:href="#rim" fill="#404040">
                                <set attributeName="fill" to="#808080" begin="zoomplus.mouseover" end="zoomplus.mouseout"/>
                        </use>
                        <path d="M-4,0h8M0,-4v8" fill="none" stroke="white" stroke-width="1.5" pointer-events="none"/>
                </g>
                <g id="zoomMin">
                        <use xlink:href="#rim" fill="#404040">
                                <set attributeName="fill" to="#808080" begin="zoomminus.mouseover" end="zoomminus.mouseout"/>
                        </use>
                        <path d="M-4,0h8" fill="none" stroke="white" stroke-width="1.5" pointer-events="none"/>
                </g>
                <g id="dirArrow">
                        <path fill="none" stroke="white" stroke-width="1.5" d="M0,-3.0v7 M-2.5,-0.5L0,-3.0L2.5,-0.5"/>
                </g>
               <g id="resetDef">
                       <use xlink:href="#rim2" fill="#404040">
                               <set attributeName="fill" to="#808080" begin="reset.mouseover" end="reset.mouseout"/>
                       </use>
               </g>
        </defs>

<script type="text/javascript">
var viewWidth = 1381;
var viewHeight = 307;
var sectionId = 'dynsection-1';
</script>
<script xlink:href="svgpan.js"/>
<svg id="graph" class="graph">
<g id="viewport">
<title>swarm_bot_cpp/src/__adc__.h</title>
<polygon fill="white" stroke="transparent" points="-4,4 -4,-303 1377,-303 1377,4 -4,4"/>
<!-- Node1 -->
<g id="node1" class="node">
<title>Node1</title>
<g id="a_node1"><a xlink:title="Header file for adc.c.">
<polygon fill="#bfbfbf" stroke="black" points="736,-268.5 736,-298.5 849,-298.5 849,-268.5 736,-268.5"/>
<text text-anchor="start" x="744" y="-286.5" font-family="Helvetica,sans-Serif" font-size="10.00">swarm_bot_cpp/src/</text>
<text text-anchor="middle" x="792.5" y="-275.5" font-family="Helvetica,sans-Serif" font-size="10.00">__adc__.h</text>
</a>
</g>
</g>
<!-- Node2 -->
<g id="node2" class="node">
<title>Node2</title>
<g id="a_node2"><a xlink:href=".html" target="_top" xlink:title=" ">
<polygon fill="white" stroke="black" points="642,-201.5 642,-231.5 755,-231.5 755,-201.5 642,-201.5"/>
<text text-anchor="start" x="650" y="-219.5" font-family="Helvetica,sans-Serif" font-size="10.00">swarm_bot_cpp/src/</text>
<text text-anchor="middle" x="698.5" y="-208.5" font-family="Helvetica,sans-Serif" font-size="10.00">__adc__.c</text>
</a>
</g>
</g>
<!-- Node1&#45;&gt;Node2 -->
<g id="edge1" class="edge">
<title>Node1&#45;&gt;Node2</title>
<path fill="none" stroke="midnightblue" d="M763.51,-262.45C749.05,-252.45 731.91,-240.6 718.86,-231.58"/>
<polygon fill="midnightblue" stroke="midnightblue" points="761.89,-265.59 772.1,-268.4 765.87,-259.83 761.89,-265.59"/>
</g>
<!-- Node3 -->
<g id="node3" class="node">
<title>Node3</title>
<g id="a_node3"><a xlink:href=".html" target="_top" xlink:title=" ">
<polygon fill="white" stroke="black" points="830,-201.5 830,-231.5 943,-231.5 943,-201.5 830,-201.5"/>
<text text-anchor="start" x="838" y="-219.5" font-family="Helvetica,sans-Serif" font-size="10.00">swarm_bot_cpp/src/</text>
<text text-anchor="middle" x="886.5" y="-208.5" font-family="Helvetica,sans-Serif" font-size="10.00">__pin_map.h</text>
</a>
</g>
</g>
<!-- Node1&#45;&gt;Node3 -->
<g id="edge2" class="edge">
<title>Node1&#45;&gt;Node3</title>
<path fill="none" stroke="midnightblue" d="M821.49,-262.45C835.95,-252.45 853.09,-240.6 866.14,-231.58"/>
<polygon fill="midnightblue" stroke="midnightblue" points="819.13,-259.83 812.9,-268.4 823.11,-265.59 819.13,-259.83"/>
</g>
<!-- Node4 -->
<g id="node4" class="node">
<title>Node4</title>
<g id="a_node4"><a xlink:href="____swarm__wold_____8h.html" target="_top" xlink:title="Header file for dummy purposes.">
<polygon fill="white" stroke="black" points="736,-134.5 736,-164.5 849,-164.5 849,-134.5 736,-134.5"/>
<text text-anchor="start" x="744" y="-152.5" font-family="Helvetica,sans-Serif" font-size="10.00">swarm_bot_cpp/src/</text>
<text text-anchor="middle" x="792.5" y="-141.5" font-family="Helvetica,sans-Serif" font-size="10.00">__swarm_wold__.h</text>
</a>
</g>
</g>
<!-- Node1&#45;&gt;Node4 -->
<g id="edge26" class="edge">
<title>Node1&#45;&gt;Node4</title>
<path fill="none" stroke="midnightblue" d="M787.14,-258.39C785,-230.9 785.33,-186.89 788.14,-164.52"/>
<polygon fill="midnightblue" stroke="midnightblue" points="783.66,-258.77 788.13,-268.37 790.63,-258.08 783.66,-258.77"/>
</g>
<!-- Node3&#45;&gt;Node4 -->
<g id="edge3" class="edge">
<title>Node3&#45;&gt;Node4</title>
<path fill="none" stroke="midnightblue" d="M857.51,-195.45C843.05,-185.45 825.91,-173.6 812.86,-164.58"/>
<polygon fill="midnightblue" stroke="midnightblue" points="855.89,-198.59 866.1,-201.4 859.87,-192.83 855.89,-198.59"/>
</g>
<!-- Node4&#45;&gt;Node1 -->
<g id="edge5" class="edge">
<title>Node4&#45;&gt;Node1</title>
<path fill="none" stroke="midnightblue" d="M797.85,-174.49C800,-201.92 799.68,-245.94 796.87,-268.37"/>
<polygon fill="midnightblue" stroke="midnightblue" points="801.33,-174.13 796.86,-164.52 794.36,-174.82 801.33,-174.13"/>
</g>
<!-- Node5 -->
<g id="node5" class="node">
<title>Node5</title>
<g id="a_node5"><a xlink:href="init_8c.html" target="_top" xlink:title="User board initialization template.">
<polygon fill="white" stroke="black" points="0,-56.5 0,-97.5 155,-97.5 155,-56.5 0,-56.5"/>
<text text-anchor="start" x="8" y="-85.5" font-family="Helvetica,sans-Serif" font-size="10.00">swarm_bot_cpp/src/ASF</text>
<text text-anchor="start" x="8" y="-74.5" font-family="Helvetica,sans-Serif" font-size="10.00">/common/boards/user_board</text>
<text text-anchor="middle" x="77.5" y="-63.5" font-family="Helvetica,sans-Serif" font-size="10.00">/init.c</text>
</a>
</g>
</g>
<!-- Node4&#45;&gt;Node5 -->
<g id="edge4" class="edge">
<title>Node4&#45;&gt;Node5</title>
<path fill="none" stroke="midnightblue" d="M725.7,-146.39C610.4,-142.03 366.83,-129.63 163.5,-98 160.77,-97.58 158.01,-97.11 155.21,-96.62"/>
<polygon fill="midnightblue" stroke="midnightblue" points="725.67,-149.89 735.79,-146.77 725.92,-142.9 725.67,-149.89"/>
</g>
<!-- Node6 -->
<g id="node6" class="node">
<title>Node6</title>
<g id="a_node6"><a xlink:href="____dc__control_____8h.html" target="_top" xlink:title="Header file for dc_control.c.">
<polygon fill="white" stroke="red" points="173,-62 173,-92 286,-92 286,-62 173,-62"/>
<text text-anchor="start" x="181" y="-80" font-family="Helvetica,sans-Serif" font-size="10.00">swarm_bot_cpp/src/</text>
<text text-anchor="middle" x="229.5" y="-69" font-family="Helvetica,sans-Serif" font-size="10.00">__dc_control__.h</text>
</a>
</g>
</g>
<!-- Node4&#45;&gt;Node6 -->
<g id="edge6" class="edge">
<title>Node4&#45;&gt;Node6</title>
<path fill="none" stroke="midnightblue" d="M725.68,-146.19C627.93,-141.74 440.98,-129.48 285.5,-98 277.75,-96.43 269.6,-94.31 261.96,-92.04"/>
<polygon fill="midnightblue" stroke="midnightblue" points="725.58,-149.69 735.72,-146.63 725.89,-142.69 725.58,-149.69"/>
</g>
<!-- Node8 -->
<g id="node7" class="node">
<title>Node8</title>
<g id="a_node7"><a xlink:href="____format_____8h.html" target="_top" xlink:title="Header file for format.c.">
<polygon fill="white" stroke="red" points="304,-62 304,-92 417,-92 417,-62 304,-62"/>
<text text-anchor="start" x="312" y="-80" font-family="Helvetica,sans-Serif" font-size="10.00">swarm_bot_cpp/src/</text>
<text text-anchor="middle" x="360.5" y="-69" font-family="Helvetica,sans-Serif" font-size="10.00">__format__.h</text>
</a>
</g>
</g>
<!-- Node4&#45;&gt;Node8 -->
<g id="edge8" class="edge">
<title>Node4&#45;&gt;Node8</title>
<path fill="none" stroke="midnightblue" d="M725.54,-143.19C649.72,-136.09 523.11,-121.57 416.5,-98 409.01,-96.34 401.13,-94.24 393.69,-92.02"/>
<polygon fill="midnightblue" stroke="midnightblue" points="725.62,-146.72 735.89,-144.15 726.26,-139.75 725.62,-146.72"/>
</g>
<!-- Node10 -->
<g id="node8" class="node">
<title>Node10</title>
<g id="a_node8"><a xlink:href="_____i_n_t__0__1_____8h.html" target="_top" xlink:title="Header file for INT_0_1.c.">
<polygon fill="white" stroke="red" points="435,-62 435,-92 548,-92 548,-62 435,-62"/>
<text text-anchor="start" x="443" y="-80" font-family="Helvetica,sans-Serif" font-size="10.00">swarm_bot_cpp/src/</text>
<text text-anchor="middle" x="491.5" y="-69" font-family="Helvetica,sans-Serif" font-size="10.00">__INT_0_1__.h</text>
</a>
</g>
</g>
<!-- Node4&#45;&gt;Node10 -->
<g id="edge10" class="edge">
<title>Node4&#45;&gt;Node10</title>
<path fill="none" stroke="midnightblue" d="M725.58,-137.25C675.96,-127.84 607.06,-113.5 547.5,-98 540.64,-96.22 533.43,-94.17 526.52,-92.08"/>
<polygon fill="midnightblue" stroke="midnightblue" points="725.08,-140.71 735.55,-139.12 726.37,-133.83 725.08,-140.71"/>
</g>
<!-- Node12 -->
<g id="node9" class="node">
<title>Node12</title>
<g id="a_node9"><a xlink:href="____kinematics_____8h.html" target="_top" xlink:title="Header file for kimenatics.c.">
<polygon fill="white" stroke="red" points="566,-62 566,-92 679,-92 679,-62 566,-62"/>
<text text-anchor="start" x="574" y="-80" font-family="Helvetica,sans-Serif" font-size="10.00">swarm_bot_cpp/src/</text>
<text text-anchor="middle" x="622.5" y="-69" font-family="Helvetica,sans-Serif" font-size="10.00">__kinematics__.h</text>
</a>
</g>
</g>
<!-- Node4&#45;&gt;Node12 -->
<g id="edge12" class="edge">
<title>Node4&#45;&gt;Node12</title>
<path fill="none" stroke="midnightblue" d="M749.09,-130.5C720.3,-118.56 683.06,-103.11 656.43,-92.07"/>
<polygon fill="midnightblue" stroke="midnightblue" points="747.93,-133.8 758.51,-134.4 750.61,-127.34 747.93,-133.8"/>
</g>
<!-- Node14 -->
<g id="node10" class="node">
<title>Node14</title>
<g id="a_node10"><a xlink:href=".html" target="_top" xlink:title=" ">
<polygon fill="white" stroke="black" points="591.5,-0.5 591.5,-19.5 737.5,-19.5 737.5,-0.5 591.5,-0.5"/>
<text text-anchor="middle" x="664.5" y="-7.5" font-family="Helvetica,sans-Serif" font-size="10.00">swarm_bot_cpp/src/main.c</text>
</a>
</g>
</g>
<!-- Node4&#45;&gt;Node14 -->
<g id="edge25" class="edge">
<title>Node4&#45;&gt;Node14</title>
<path fill="none" stroke="midnightblue" d="M762.63,-128.57C750.73,-119.91 737.31,-109.19 726.5,-98 701.75,-72.4 679.25,-36.26 669.55,-19.79"/>
<polygon fill="midnightblue" stroke="midnightblue" points="760.79,-131.56 770.97,-134.5 764.85,-125.85 760.79,-131.56"/>
</g>
<!-- Node15 -->
<g id="node11" class="node">
<title>Node15</title>
<g id="a_node11"><a xlink:href="____odometry_____8h.html" target="_top" xlink:title="Header file for odometry.c.">
<polygon fill="white" stroke="red" points="736,-62 736,-92 849,-92 849,-62 736,-62"/>
<text text-anchor="start" x="744" y="-80" font-family="Helvetica,sans-Serif" font-size="10.00">swarm_bot_cpp/src/</text>
<text text-anchor="middle" x="792.5" y="-69" font-family="Helvetica,sans-Serif" font-size="10.00">__odometry__.h</text>
</a>
</g>
</g>
<!-- Node4&#45;&gt;Node15 -->
<g id="edge14" class="edge">
<title>Node4&#45;&gt;Node15</title>
<path fill="none" stroke="midnightblue" d="M786.05,-124.23C785.45,-113.57 785.75,-101.41 786.95,-92.25"/>
<polygon fill="midnightblue" stroke="midnightblue" points="782.57,-124.59 786.95,-134.23 789.54,-123.96 782.57,-124.59"/>
</g>
<!-- Node17 -->
<g id="node12" class="node">
<title>Node17</title>
<g id="a_node12"><a xlink:href="____pwm_____8h.html" target="_top" xlink:title="Header file for pwm.c.">
<polygon fill="white" stroke="red" points="867,-62 867,-92 980,-92 980,-62 867,-62"/>
<text text-anchor="start" x="875" y="-80" font-family="Helvetica,sans-Serif" font-size="10.00">swarm_bot_cpp/src/</text>
<text text-anchor="middle" x="923.5" y="-69" font-family="Helvetica,sans-Serif" font-size="10.00">__pwm__.h</text>
</a>
</g>
</g>
<!-- Node4&#45;&gt;Node17 -->
<g id="edge16" class="edge">
<title>Node4&#45;&gt;Node17</title>
<path fill="none" stroke="midnightblue" d="M821.92,-129.4C842.74,-117.62 870.51,-102.78 891.83,-92.07"/>
<polygon fill="midnightblue" stroke="midnightblue" points="820.11,-126.4 813.17,-134.4 823.59,-132.48 820.11,-126.4"/>
</g>
<!-- Node19 -->
<g id="node13" class="node">
<title>Node19</title>
<g id="a_node13"><a xlink:href="____timer0_____8h.html" target="_top" xlink:title="Header file for timer0.c.">
<polygon fill="white" stroke="red" points="998,-62 998,-92 1111,-92 1111,-62 998,-62"/>
<text text-anchor="start" x="1006" y="-80" font-family="Helvetica,sans-Serif" font-size="10.00">swarm_bot_cpp/src/</text>
<text text-anchor="middle" x="1054.5" y="-69" font-family="Helvetica,sans-Serif" font-size="10.00">__timer0__.h</text>
</a>
</g>
</g>
<!-- Node4&#45;&gt;Node19 -->
<g id="edge18" class="edge">
<title>Node4&#45;&gt;Node19</title>
<path fill="none" stroke="midnightblue" d="M852.94,-131.82C889.88,-122.34 937.94,-109.99 980.5,-98 987.09,-96.14 994.03,-94.1 1000.93,-92.05"/>
<polygon fill="midnightblue" stroke="midnightblue" points="851.64,-128.54 842.83,-134.41 853.38,-135.32 851.64,-128.54"/>
</g>
<!-- Node21 -->
<g id="node14" class="node">
<title>Node21</title>
<g id="a_node14"><a xlink:href="____timer1_____8h.html" target="_top" xlink:title="Header file for timer1.c.">
<polygon fill="white" stroke="red" points="1260,-62 1260,-92 1373,-92 1373,-62 1260,-62"/>
<text text-anchor="start" x="1268" y="-80" font-family="Helvetica,sans-Serif" font-size="10.00">swarm_bot_cpp/src/</text>
<text text-anchor="middle" x="1316.5" y="-69" font-family="Helvetica,sans-Serif" font-size="10.00">__timer1__.h</text>
</a>
</g>
</g>
<!-- Node4&#45;&gt;Node21 -->
<g id="edge20" class="edge">
<title>Node4&#45;&gt;Node21</title>
<path fill="none" stroke="midnightblue" d="M859.27,-144.73C947.69,-139.05 1107.89,-125.85 1242.5,-98 1250.13,-96.42 1258.15,-94.33 1266,-92.09"/>
<polygon fill="midnightblue" stroke="midnightblue" points="858.87,-141.25 849.11,-145.37 859.31,-148.23 858.87,-141.25"/>
</g>
<!-- Node23 -->
<g id="node15" class="node">
<title>Node23</title>
<g id="a_node15"><a xlink:href="____timer2_____8h.html" target="_top" xlink:title="Header file for timer2.c.">
<polygon fill="white" stroke="red" points="1129,-62 1129,-92 1242,-92 1242,-62 1129,-62"/>
<text text-anchor="start" x="1137" y="-80" font-family="Helvetica,sans-Serif" font-size="10.00">swarm_bot_cpp/src/</text>
<text text-anchor="middle" x="1185.5" y="-69" font-family="Helvetica,sans-Serif" font-size="10.00">__timer2__.h</text>
</a>
</g>
</g>
<!-- Node4&#45;&gt;Node23 -->
<g id="edge23" class="edge">
<title>Node4&#45;&gt;Node23</title>
<path fill="none" stroke="midnightblue" d="M859.28,-140.26C924.19,-132.05 1025.15,-117.82 1111.5,-98 1118.86,-96.31 1126.61,-94.21 1134.23,-92.02"/>
<polygon fill="midnightblue" stroke="midnightblue" points="858.67,-136.8 849.18,-141.52 859.54,-143.75 858.67,-136.8"/>
</g>
<!-- Node6&#45;&gt;Node4 -->
<g id="edge7" class="edge">
<title>Node6&#45;&gt;Node4</title>
<path fill="none" stroke="midnightblue" d="M289.39,-94.71C294.15,-95.94 298.9,-97.07 303.5,-98 458.3,-129.34 644.31,-141.64 735.97,-146.13"/>
<polygon fill="midnightblue" stroke="midnightblue" points="290.2,-91.3 279.63,-92.04 288.36,-98.05 290.2,-91.3"/>
</g>
<!-- Node8&#45;&gt;Node4 -->
<g id="edge9" class="edge">
<title>Node8&#45;&gt;Node4</title>
<path fill="none" stroke="midnightblue" d="M421.22,-94.74C425.71,-95.93 430.17,-97.04 434.5,-98 539.84,-121.29 664.71,-135.74 735.75,-142.94"/>
<polygon fill="midnightblue" stroke="midnightblue" points="421.97,-91.32 411.4,-92.02 420.1,-98.06 421.97,-91.32"/>
</g>
<!-- Node10&#45;&gt;Node4 -->
<g id="edge11" class="edge">
<title>Node10&#45;&gt;Node4</title>
<path fill="none" stroke="midnightblue" d="M554,-94.87C557.89,-95.97 561.75,-97.02 565.5,-98 623.28,-113.04 689.86,-126.98 735.99,-136.39"/>
<polygon fill="midnightblue" stroke="midnightblue" points="554.87,-91.48 544.29,-92.08 552.93,-98.21 554.87,-91.48"/>
</g>
<!-- Node12&#45;&gt;Node14 -->
<g id="edge13" class="edge">
<title>Node12&#45;&gt;Node14</title>
<path fill="none" stroke="midnightblue" d="M637.05,-53.47C644.58,-41.83 653.32,-28.3 658.88,-19.69"/>
<polygon fill="midnightblue" stroke="midnightblue" points="634.1,-51.6 631.61,-61.9 639.98,-55.4 634.1,-51.6"/>
</g>
<!-- Node15&#45;&gt;Node4 -->
<g id="edge15" class="edge">
<title>Node15&#45;&gt;Node4</title>
<path fill="none" stroke="midnightblue" d="M798.95,-102.24C799.55,-112.91 799.25,-125.06 798.05,-134.23"/>
<polygon fill="midnightblue" stroke="midnightblue" points="802.43,-101.89 798.05,-92.25 795.46,-102.52 802.43,-101.89"/>
</g>
<!-- Node17&#45;&gt;Node4 -->
<g id="edge17" class="edge">
<title>Node17&#45;&gt;Node4</title>
<path fill="none" stroke="midnightblue" d="M894.13,-97.07C873.31,-108.85 845.55,-123.69 824.22,-134.4"/>
<polygon fill="midnightblue" stroke="midnightblue" points="895.93,-100.08 902.87,-92.07 892.46,-94 895.93,-100.08"/>
</g>
<!-- Node19&#45;&gt;Node4 -->
<g id="edge19" class="edge">
<title>Node19&#45;&gt;Node4</title>
<path fill="none" stroke="midnightblue" d="M1008.89,-95C1005.39,-96.04 1001.9,-97.04 998.5,-98 948.54,-112.08 891,-126.64 849.36,-136.49"/>
<polygon fill="midnightblue" stroke="midnightblue" points="1010.15,-98.28 1018.72,-92.05 1008.14,-91.58 1010.15,-98.28"/>
</g>
<!-- Node21&#45;&gt;Node3 -->
<g id="edge21" class="edge">
<title>Node21&#45;&gt;Node3</title>
<path fill="none" stroke="midnightblue" d="M1263,-95.11C1177.08,-122.58 1009.95,-176.02 930.5,-201.43"/>
<polygon fill="midnightblue" stroke="midnightblue" points="1264.11,-98.43 1272.57,-92.05 1261.97,-91.76 1264.11,-98.43"/>
</g>
<!-- Node21&#45;&gt;Node4 -->
<g id="edge22" class="edge">
<title>Node21&#45;&gt;Node4</title>
<path fill="none" stroke="midnightblue" d="M1273.96,-94.82C1269.45,-96 1264.91,-97.09 1260.5,-98 1114.28,-128.25 937.87,-141.22 849.13,-146.03"/>
<polygon fill="midnightblue" stroke="midnightblue" points="1275.01,-98.16 1283.69,-92.09 1273.12,-91.42 1275.01,-98.16"/>
</g>
<!-- Node23&#45;&gt;Node4 -->
<g id="edge24" class="edge">
<title>Node23&#45;&gt;Node4</title>
<path fill="none" stroke="midnightblue" d="M1142.15,-94.82C1137.91,-95.97 1133.64,-97.05 1129.5,-98 1032.35,-120.3 916.71,-135.52 849.17,-143.05"/>
<polygon fill="midnightblue" stroke="midnightblue" points="1143.29,-98.13 1151.94,-92.02 1141.37,-91.4 1143.29,-98.13"/>
</g>
</g>
</svg>
        <g id="navigator" transform="translate(0 0)" fill="#404254">
                <rect fill="#f2f5e9" fill-opacity="0.5" stroke="#606060" stroke-width=".5" x="0" y="0" width="60" height="60"/>
                <use id="zoomplus" xlink:href="#zoomPlus" x="17" y="9" onmousedown="handleZoom(evt,'in')"/>
                <use id="zoomminus" xlink:href="#zoomMin" x="42" y="9" onmousedown="handleZoom(evt,'out')"/>
                <use id="reset" xlink:href="#resetDef" x="30" y="36" onmousedown="handleReset()"/>
                <g id="arrowUp" xlink:href="#dirArrow" transform="translate(30 24)" onmousedown="handlePan(0,-1)">
                  <use xlink:href="#rim" fill="#404040">
                        <set attributeName="fill" to="#808080" begin="arrowUp.mouseover" end="arrowUp.mouseout"/>
                  </use>
                  <path fill="none" stroke="white" stroke-width="1.5" d="M0,-3.0v7 M-2.5,-0.5L0,-3.0L2.5,-0.5"/>
                </g>
                <g id="arrowRight" xlink:href="#dirArrow" transform="rotate(90) translate(36 -43)" onmousedown="handlePan(1,0)">
                  <use xlink:href="#rim" fill="#404040">
                        <set attributeName="fill" to="#808080" begin="arrowRight.mouseover" end="arrowRight.mouseout"/>
                  </use>
                  <path fill="none" stroke="white" stroke-width="1.5" d="M0,-3.0v7 M-2.5,-0.5L0,-3.0L2.5,-0.5"/>
                </g>
                <g id="arrowDown" xlink:href="#dirArrow" transform="rotate(180) translate(-30 -48)" onmousedown="handlePan(0,1)">
                  <use xlink:href="#rim" fill="#404040">
                        <set attributeName="fill" to="#808080" begin="arrowDown.mouseover" end="arrowDown.mouseout"/>
                  </use>
                  <path fill="none" stroke="white" stroke-width="1.5" d="M0,-3.0v7 M-2.5,-0.5L0,-3.0L2.5,-0.5"/>
                </g>
                <g id="arrowLeft" xlink:href="#dirArrow" transform="rotate(270) translate(-36 17)" onmousedown="handlePan(-1,0)">
                  <use xlink:href="#rim" fill="#404040">
                        <set attributeName="fill" to="#808080" begin="arrowLeft.mouseover" end="arrowLeft.mouseout"/>
                  </use>
                  <path fill="none" stroke="white" stroke-width="1.5" d="M0,-3.0v7 M-2.5,-0.5L0,-3.0L2.5,-0.5"/>
                </g>
        </g>
        <svg viewBox="0 0 15 15" width="100%" height="30px" preserveAspectRatio="xMaxYMin meet">
         <g id="arrow_out" transform="scale(0.3 0.3)">
          <a xlink:href="____adc_____8h__dep__incl_org.svg" target="_base">
           <rect id="button" ry="5" rx="5" y="6" x="6" height="38" width="38"
                fill="#f2f5e9" fill-opacity="0.5" stroke="#606060" stroke-width="1.0"/>
           <path id="arrow"
             d="M 11.500037,31.436501 C 11.940474,20.09759 22.043105,11.32322 32.158766,21.979434 L 37.068811,17.246167 C 37.068811,17.246167 37.088388,32 37.088388,32 L 22.160133,31.978069 C 22.160133,31.978069 26.997745,27.140456 26.997745,27.140456 C 18.528582,18.264221 13.291696,25.230495 11.500037,31.436501 z"
             style="fill:#404040;"/>
          </a>
         </g>
        </svg>
</svg>
