<?xml version="1.0" encoding="UTF-8" standalone="no"?>
<!DOCTYPE svg PUBLIC "-//W3C//DTD SVG 1.1//EN"
 "http://www.w3.org/Graphics/SVG/1.1/DTD/svg11.dtd">
<!-- Generated by graphviz version 2.43.0 (0)
 -->
<!-- Title: swarm_bot_cpp/src/__INT_0_1__.h Pages: 1 -->
<!--zoomable 251 -->
<svg id="main" version="1.1" xmlns="http://www.w3.org/2000/svg" xmlns:xlink="http://www.w3.org/1999/xlink" xml:space="preserve" onload="init(evt)">
<style type="text/css"><![CDATA[
.edge:hover path { stroke: red; }
.edge:hover polygon { stroke: red; fill: red; }
]]></style>
<script type="text/javascript"><![CDATA[
var edges = document.getElementsByTagName('g');
if (edges && edges.length) {
  for (var i=0;i<edges.length;i++) {
    if (edges[i].id.substr(0,4)=='edge') {
      edges[i].setAttribute('class','edge');
    }
  }
}
]]></script>
        <defs>
                <circle id="rim" cx="0" cy="0" r="7"/>
                <circle id="rim2" cx="0" cy="0" r="3.5"/>
                <g id="zoomPlus">
                        <use xlink:href="#rim" fill="#404040">
                                <set attributeName="fill" to="#808080" begin="zoomplus.mouseover" end="zoomplus.mouseout"/>
                        </use>
                        <path d="M-4,0h8M0,-4v8" fill="none" stroke="white" stroke-width="1.5" pointer-events="none"/>
                </g>
                <g id="zoomMin">
                        <use xlink:href="#rim" fill="#404040">
                                <set attributeName="fill" to="#808080" begin="zoomminus.mouseover" end="zoomminus.mouseout"/>
                        </use>
                        <path d="M-4,0h8" fill="none" stroke="white" stroke-width="1.5" pointer-events="none"/>
                </g>
                <g id="dirArrow">
                        <path fill="none" stroke="white" stroke-width="1.5" d="M0,-3.0v7 M-2.5,-0.5L0,-3.0L2.5,-0.5"/>
                </g>
               <g id="resetDef">
                       <use xlink:href="#rim2" fill="#404040">
                               <set attributeName="fill" to="#808080" begin="reset.mouseover" end="reset.mouseout"/>
                       </use>
               </g>
        </defs>

<script type="text/javascript">
var viewWidth = 1546;
var viewHeight = 251;
var sectionId = 'dynsection-1';
</script>
<script xlink:href="svgpan.js"/>
<svg id="graph" class="graph">
<g id="viewport">
<title>swarm_bot_cpp/src/__INT_0_1__.h</title>
<polygon fill="white" stroke="transparent" points="-4,4 -4,-247 1542,-247 1542,4 -4,4"/>
<!-- Node1 -->
<g id="node1" class="node">
<title>Node1</title>
<g id="a_node1"><a xlink:title="Header file for INT_0_1.c.">
<polygon fill="#bfbfbf" stroke="black" points="754,-212.5 754,-242.5 867,-242.5 867,-212.5 754,-212.5"/>
<text text-anchor="start" x="762" y="-230.5" font-family="Helvetica,sans-Serif" font-size="10.00">swarm_bot_cpp/src/</text>
<text text-anchor="middle" x="810.5" y="-219.5" font-family="Helvetica,sans-Serif" font-size="10.00">__INT_0_1__.h</text>
</a>
</g>
</g>
<!-- Node2 -->
<g id="node2" class="node">
<title>Node2</title>
<g id="a_node2"><a xlink:href=".html" target="_top" xlink:title=" ">
<polygon fill="white" stroke="black" points="623,-145.5 623,-175.5 736,-175.5 736,-145.5 623,-145.5"/>
<text text-anchor="start" x="631" y="-163.5" font-family="Helvetica,sans-Serif" font-size="10.00">swarm_bot_cpp/src/</text>
<text text-anchor="middle" x="679.5" y="-152.5" font-family="Helvetica,sans-Serif" font-size="10.00">__INT_0_1__.c</text>
</a>
</g>
</g>
<!-- Node1&#45;&gt;Node2 -->
<g id="edge1" class="edge">
<title>Node1&#45;&gt;Node2</title>
<path fill="none" stroke="midnightblue" d="M772.92,-207.85C752.21,-197.58 726.91,-185.03 707.87,-175.58"/>
<polygon fill="midnightblue" stroke="midnightblue" points="771.56,-211.09 782.07,-212.4 774.67,-204.82 771.56,-211.09"/>
</g>
<!-- Node3 -->
<g id="node3" class="node">
<title>Node3</title>
<g id="a_node3"><a xlink:href="____swarm__wold_____8h.html" target="_top" xlink:title="Header file for dummy purposes.">
<polygon fill="white" stroke="black" points="754,-145.5 754,-175.5 867,-175.5 867,-145.5 754,-145.5"/>
<text text-anchor="start" x="762" y="-163.5" font-family="Helvetica,sans-Serif" font-size="10.00">swarm_bot_cpp/src/</text>
<text text-anchor="middle" x="810.5" y="-152.5" font-family="Helvetica,sans-Serif" font-size="10.00">__swarm_wold__.h</text>
</a>
</g>
</g>
<!-- Node1&#45;&gt;Node3 -->
<g id="edge2" class="edge">
<title>Node1&#45;&gt;Node3</title>
<path fill="none" stroke="midnightblue" d="M803.95,-202.4C803.51,-193.37 803.8,-183.41 804.83,-175.58"/>
<polygon fill="midnightblue" stroke="midnightblue" points="800.47,-202.74 804.82,-212.4 807.44,-202.13 800.47,-202.74"/>
</g>
<!-- Node3&#45;&gt;Node1 -->
<g id="edge14" class="edge">
<title>Node3&#45;&gt;Node1</title>
<path fill="none" stroke="midnightblue" d="M817.04,-185.57C817.49,-194.6 817.21,-204.56 816.18,-212.4"/>
<polygon fill="midnightblue" stroke="midnightblue" points="820.53,-185.24 816.17,-175.58 813.55,-185.84 820.53,-185.24"/>
</g>
<!-- Node4 -->
<g id="node4" class="node">
<title>Node4</title>
<g id="a_node4"><a xlink:href="____adc_____8h.html" target="_top" xlink:title="Header file for adc.c.">
<polygon fill="white" stroke="black" points="951,-73 951,-103 1064,-103 1064,-73 951,-73"/>
<text text-anchor="start" x="959" y="-91" font-family="Helvetica,sans-Serif" font-size="10.00">swarm_bot_cpp/src/</text>
<text text-anchor="middle" x="1007.5" y="-80" font-family="Helvetica,sans-Serif" font-size="10.00">__adc__.h</text>
</a>
</g>
</g>
<!-- Node3&#45;&gt;Node4 -->
<g id="edge3" class="edge">
<title>Node3&#45;&gt;Node4</title>
<path fill="none" stroke="midnightblue" d="M853.99,-141.81C886.27,-129.83 930.05,-114.21 962.65,-103.07"/>
<polygon fill="midnightblue" stroke="midnightblue" points="852.51,-138.63 844.37,-145.4 854.96,-145.18 852.51,-138.63"/>
</g>
<!-- Node7 -->
<g id="node7" class="node">
<title>Node7</title>
<g id="a_node7"><a xlink:href="____dc__control_____8h.html" target="_top" xlink:title="Header file for dc_control.c.">
<polygon fill="white" stroke="black" points="126,-73 126,-103 239,-103 239,-73 126,-73"/>
<text text-anchor="start" x="134" y="-91" font-family="Helvetica,sans-Serif" font-size="10.00">swarm_bot_cpp/src/</text>
<text text-anchor="middle" x="182.5" y="-80" font-family="Helvetica,sans-Serif" font-size="10.00">__dc_control__.h</text>
</a>
</g>
</g>
<!-- Node3&#45;&gt;Node7 -->
<g id="edge8" class="edge">
<title>Node3&#45;&gt;Node7</title>
<path fill="none" stroke="midnightblue" d="M743.68,-146.3C740.92,-145.83 738.18,-145.39 735.5,-145 516.33,-113.16 456.17,-149.83 238.5,-109 230.49,-107.5 222.08,-105.35 214.24,-103.02"/>
<polygon fill="midnightblue" stroke="midnightblue" points="743.31,-149.79 753.78,-148.15 744.57,-142.91 743.31,-149.79"/>
</g>
<!-- Node9 -->
<g id="node9" class="node">
<title>Node9</title>
<g id="a_node9"><a xlink:href="____format_____8h.html" target="_top" xlink:title="Header file for format.c.">
<polygon fill="white" stroke="black" points="257,-73 257,-103 370,-103 370,-73 257,-73"/>
<text text-anchor="start" x="265" y="-91" font-family="Helvetica,sans-Serif" font-size="10.00">swarm_bot_cpp/src/</text>
<text text-anchor="middle" x="313.5" y="-80" font-family="Helvetica,sans-Serif" font-size="10.00">__format__.h</text>
</a>
</g>
</g>
<!-- Node3&#45;&gt;Node9 -->
<g id="edge11" class="edge">
<title>Node3&#45;&gt;Node9</title>
<path fill="none" stroke="midnightblue" d="M743.67,-146.39C740.91,-145.89 738.18,-145.42 735.5,-145 574.06,-119.42 529.75,-141.2 369.5,-109 361.74,-107.44 353.6,-105.33 345.95,-103.06"/>
<polygon fill="midnightblue" stroke="midnightblue" points="743.28,-149.87 753.75,-148.3 744.58,-143 743.28,-149.87"/>
</g>
<!-- Node11 -->
<g id="node11" class="node">
<title>Node11</title>
<g id="a_node11"><a xlink:href="____kinematics_____8h.html" target="_top" xlink:title="Header file for kimenatics.c.">
<polygon fill="white" stroke="black" points="388,-73 388,-103 501,-103 501,-73 388,-73"/>
<text text-anchor="start" x="396" y="-91" font-family="Helvetica,sans-Serif" font-size="10.00">swarm_bot_cpp/src/</text>
<text text-anchor="middle" x="444.5" y="-80" font-family="Helvetica,sans-Serif" font-size="10.00">__kinematics__.h</text>
</a>
</g>
</g>
<!-- Node3&#45;&gt;Node11 -->
<g id="edge15" class="edge">
<title>Node3&#45;&gt;Node11</title>
<path fill="none" stroke="midnightblue" d="M743.55,-144.9C641.49,-126.23 613,-130.32 515.5,-109 507.62,-107.28 499.32,-105.19 491.28,-103.02"/>
<polygon fill="midnightblue" stroke="midnightblue" points="743.19,-148.4 753.66,-146.78 744.47,-141.52 743.19,-148.4"/>
</g>
<!-- Node13 -->
<g id="node13" class="node">
<title>Node13</title>
<g id="a_node13"><a xlink:href=".html" target="_top" xlink:title=" ">
<polygon fill="white" stroke="black" points="393.5,-6 393.5,-25 539.5,-25 539.5,-6 393.5,-6"/>
<text text-anchor="middle" x="466.5" y="-13" font-family="Helvetica,sans-Serif" font-size="10.00">swarm_bot_cpp/src/main.c</text>
</a>
</g>
</g>
<!-- Node3&#45;&gt;Node13 -->
<g id="edge35" class="edge">
<title>Node3&#45;&gt;Node13</title>
<path fill="none" stroke="midnightblue" d="M743.76,-144.99C655.37,-129.17 622.93,-150.98 548.5,-109 543.66,-106.27 493.03,-47.48 473.83,-25.07"/>
<polygon fill="midnightblue" stroke="midnightblue" points="743.17,-148.44 753.64,-146.88 744.48,-141.57 743.17,-148.44"/>
</g>
<!-- Node14 -->
<g id="node14" class="node">
<title>Node14</title>
<g id="a_node14"><a xlink:href="____odometry_____8h.html" target="_top" xlink:title="Header file for odometry.c.">
<polygon fill="white" stroke="black" points="558,-73 558,-103 671,-103 671,-73 558,-73"/>
<text text-anchor="start" x="566" y="-91" font-family="Helvetica,sans-Serif" font-size="10.00">swarm_bot_cpp/src/</text>
<text text-anchor="middle" x="614.5" y="-80" font-family="Helvetica,sans-Serif" font-size="10.00">__odometry__.h</text>
</a>
</g>
</g>
<!-- Node3&#45;&gt;Node14 -->
<g id="edge18" class="edge">
<title>Node3&#45;&gt;Node14</title>
<path fill="none" stroke="midnightblue" d="M756.27,-142.12C721.61,-130.1 677.84,-114.31 648.1,-103.07"/>
<polygon fill="midnightblue" stroke="midnightblue" points="755.19,-145.45 765.78,-145.4 757.47,-138.83 755.19,-145.45"/>
</g>
<!-- Node16 -->
<g id="node16" class="node">
<title>Node16</title>
<g id="a_node16"><a xlink:href="____pwm_____8h.html" target="_top" xlink:title="Header file for pwm.c.">
<polygon fill="white" stroke="black" points="689,-73 689,-103 802,-103 802,-73 689,-73"/>
<text text-anchor="start" x="697" y="-91" font-family="Helvetica,sans-Serif" font-size="10.00">swarm_bot_cpp/src/</text>
<text text-anchor="middle" x="745.5" y="-80" font-family="Helvetica,sans-Serif" font-size="10.00">__pwm__.h</text>
</a>
</g>
</g>
<!-- Node3&#45;&gt;Node16 -->
<g id="edge21" class="edge">
<title>Node3&#45;&gt;Node16</title>
<path fill="none" stroke="midnightblue" d="M784.59,-138.19C773.32,-126.87 761.02,-113.27 753.09,-103.25"/>
<polygon fill="midnightblue" stroke="midnightblue" points="782.2,-140.74 791.8,-145.23 787.1,-135.74 782.2,-140.74"/>
</g>
<!-- Node18 -->
<g id="node18" class="node">
<title>Node18</title>
<g id="a_node18"><a xlink:href="____timer0_____8h.html" target="_top" xlink:title="Header file for timer0.c.">
<polygon fill="white" stroke="black" points="820,-73 820,-103 933,-103 933,-73 820,-73"/>
<text text-anchor="start" x="828" y="-91" font-family="Helvetica,sans-Serif" font-size="10.00">swarm_bot_cpp/src/</text>
<text text-anchor="middle" x="876.5" y="-80" font-family="Helvetica,sans-Serif" font-size="10.00">__timer0__.h</text>
</a>
</g>
</g>
<!-- Node3&#45;&gt;Node18 -->
<g id="edge24" class="edge">
<title>Node3&#45;&gt;Node18</title>
<path fill="none" stroke="midnightblue" d="M824.8,-137.49C834.56,-126.22 847.34,-112.85 857.88,-103"/>
<polygon fill="midnightblue" stroke="midnightblue" points="822.05,-135.32 818.31,-145.23 827.41,-139.82 822.05,-135.32"/>
</g>
<!-- Node20 -->
<g id="node20" class="node">
<title>Node20</title>
<g id="a_node20"><a xlink:href="____timer1_____8h.html" target="_top" xlink:title="Header file for timer1.c.">
<polygon fill="white" stroke="black" points="1121,-73 1121,-103 1234,-103 1234,-73 1121,-73"/>
<text text-anchor="start" x="1129" y="-91" font-family="Helvetica,sans-Serif" font-size="10.00">swarm_bot_cpp/src/</text>
<text text-anchor="middle" x="1177.5" y="-80" font-family="Helvetica,sans-Serif" font-size="10.00">__timer1__.h</text>
</a>
</g>
</g>
<!-- Node3&#45;&gt;Node20 -->
<g id="edge27" class="edge">
<title>Node3&#45;&gt;Node20</title>
<path fill="none" stroke="midnightblue" d="M877.36,-149.07C935.77,-140.08 1022.54,-125.9 1097.5,-109 1105.25,-107.25 1113.4,-105.18 1121.45,-103.04"/>
<polygon fill="midnightblue" stroke="midnightblue" points="876.51,-145.66 867.15,-150.63 877.57,-152.58 876.51,-145.66"/>
</g>
<!-- Node22 -->
<g id="node22" class="node">
<title>Node22</title>
<g id="a_node22"><a xlink:href="____timer2_____8h.html" target="_top" xlink:title="Header file for timer2.c.">
<polygon fill="white" stroke="black" points="1425,-73 1425,-103 1538,-103 1538,-73 1425,-73"/>
<text text-anchor="start" x="1433" y="-91" font-family="Helvetica,sans-Serif" font-size="10.00">swarm_bot_cpp/src/</text>
<text text-anchor="middle" x="1481.5" y="-80" font-family="Helvetica,sans-Serif" font-size="10.00">__timer2__.h</text>
</a>
</g>
</g>
<!-- Node3&#45;&gt;Node22 -->
<g id="edge31" class="edge">
<title>Node3&#45;&gt;Node22</title>
<path fill="none" stroke="midnightblue" d="M877.29,-158.48C988.35,-155.76 1217.27,-145.75 1407.5,-109 1415.38,-107.48 1423.66,-105.35 1431.74,-103.05"/>
<polygon fill="midnightblue" stroke="midnightblue" points="877.16,-154.99 867.24,-158.72 877.32,-161.99 877.16,-154.99"/>
</g>
<!-- Node24 -->
<g id="node24" class="node">
<title>Node24</title>
<g id="a_node24"><a xlink:href="init_8c.html" target="_top" xlink:title="User board initialization template.">
<polygon fill="white" stroke="black" points="1252,-67.5 1252,-108.5 1407,-108.5 1407,-67.5 1252,-67.5"/>
<text text-anchor="start" x="1260" y="-96.5" font-family="Helvetica,sans-Serif" font-size="10.00">swarm_bot_cpp/src/ASF</text>
<text text-anchor="start" x="1260" y="-85.5" font-family="Helvetica,sans-Serif" font-size="10.00">/common/boards/user_board</text>
<text text-anchor="middle" x="1329.5" y="-74.5" font-family="Helvetica,sans-Serif" font-size="10.00">/init.c</text>
</a>
</g>
</g>
<!-- Node3&#45;&gt;Node24 -->
<g id="edge34" class="edge">
<title>Node3&#45;&gt;Node24</title>
<path fill="none" stroke="midnightblue" d="M877.26,-154.06C962.59,-146.57 1114.71,-131.41 1243.5,-109 1246.22,-108.53 1248.98,-108.02 1251.76,-107.49"/>
<polygon fill="midnightblue" stroke="midnightblue" points="876.85,-150.58 867.19,-154.94 877.45,-157.56 876.85,-150.58"/>
</g>
<!-- Node4&#45;&gt;Node3 -->
<g id="edge7" class="edge">
<title>Node4&#45;&gt;Node3</title>
<path fill="none" stroke="midnightblue" d="M964.08,-106.66C931.82,-118.64 888.04,-134.26 855.42,-145.4"/>
<polygon fill="midnightblue" stroke="midnightblue" points="965.55,-109.85 973.7,-103.07 963.11,-103.29 965.55,-109.85"/>
</g>
<!-- Node5 -->
<g id="node5" class="node">
<title>Node5</title>
<g id="a_node5"><a xlink:href=".html" target="_top" xlink:title=" ">
<polygon fill="white" stroke="black" points="951,-0.5 951,-30.5 1064,-30.5 1064,-0.5 951,-0.5"/>
<text text-anchor="start" x="959" y="-18.5" font-family="Helvetica,sans-Serif" font-size="10.00">swarm_bot_cpp/src/</text>
<text text-anchor="middle" x="1007.5" y="-7.5" font-family="Helvetica,sans-Serif" font-size="10.00">__adc__.c</text>
</a>
</g>
</g>
<!-- Node4&#45;&gt;Node5 -->
<g id="edge4" class="edge">
<title>Node4&#45;&gt;Node5</title>
<path fill="none" stroke="midnightblue" d="M1007.5,-62.73C1007.5,-52.07 1007.5,-39.91 1007.5,-30.75"/>
<polygon fill="midnightblue" stroke="midnightblue" points="1004,-62.73 1007.5,-72.73 1011,-62.73 1004,-62.73"/>
</g>
<!-- Node6 -->
<g id="node6" class="node">
<title>Node6</title>
<g id="a_node6"><a xlink:href=".html" target="_top" xlink:title=" ">
<polygon fill="white" stroke="black" points="1082,-0.5 1082,-30.5 1195,-30.5 1195,-0.5 1082,-0.5"/>
<text text-anchor="start" x="1090" y="-18.5" font-family="Helvetica,sans-Serif" font-size="10.00">swarm_bot_cpp/src/</text>
<text text-anchor="middle" x="1138.5" y="-7.5" font-family="Helvetica,sans-Serif" font-size="10.00">__pin_map.h</text>
</a>
</g>
</g>
<!-- Node4&#45;&gt;Node6 -->
<g id="edge5" class="edge">
<title>Node4&#45;&gt;Node6</title>
<path fill="none" stroke="midnightblue" d="M1042.7,-68.06C1064.63,-56.26 1092.37,-41.33 1112.35,-30.57"/>
<polygon fill="midnightblue" stroke="midnightblue" points="1040.84,-65.08 1033.69,-72.9 1044.16,-71.25 1040.84,-65.08"/>
</g>
<!-- Node6&#45;&gt;Node3 -->
<g id="edge6" class="edge">
<title>Node6&#45;&gt;Node3</title>
<path fill="none" stroke="midnightblue" d="M1125.07,-39.56C1110.4,-63.97 1087.16,-100.16 1073.5,-109 1040.12,-130.58 933.99,-145.87 867.19,-153.63"/>
<polygon fill="midnightblue" stroke="midnightblue" points="1128.14,-41.25 1130.24,-30.87 1122.12,-37.67 1128.14,-41.25"/>
</g>
<!-- Node7&#45;&gt;Node3 -->
<g id="edge10" class="edge">
<title>Node7&#45;&gt;Node3</title>
<path fill="none" stroke="midnightblue" d="M241.55,-105.64C246.59,-106.93 251.62,-108.08 256.5,-109 474.17,-149.83 534.33,-113.16 753.5,-145 754.54,-145.15 755.6,-145.31 756.66,-145.48"/>
<polygon fill="midnightblue" stroke="midnightblue" points="242.45,-102.26 231.89,-103.02 240.62,-109.02 242.45,-102.26"/>
</g>
<!-- Node8 -->
<g id="node8" class="node">
<title>Node8</title>
<g id="a_node8"><a xlink:href="____dc__control_____8c.html" target="_top" xlink:title="Header file for dc_control.c.">
<polygon fill="white" stroke="black" points="0,-0.5 0,-30.5 113,-30.5 113,-0.5 0,-0.5"/>
<text text-anchor="start" x="8" y="-18.5" font-family="Helvetica,sans-Serif" font-size="10.00">swarm_bot_cpp/src/</text>
<text text-anchor="middle" x="56.5" y="-7.5" font-family="Helvetica,sans-Serif" font-size="10.00">__dc_control__.c</text>
</a>
</g>
</g>
<!-- Node7&#45;&gt;Node8 -->
<g id="edge9" class="edge">
<title>Node7&#45;&gt;Node8</title>
<path fill="none" stroke="midnightblue" d="M148.36,-67.9C127.31,-56.12 100.78,-41.28 81.65,-30.57"/>
<polygon fill="midnightblue" stroke="midnightblue" points="146.87,-71.07 157.3,-72.9 150.29,-64.97 146.87,-71.07"/>
</g>
<!-- Node9&#45;&gt;Node3 -->
<g id="edge13" class="edge">
<title>Node9&#45;&gt;Node3</title>
<path fill="none" stroke="midnightblue" d="M373.39,-105.72C378.15,-106.95 382.9,-108.07 387.5,-109 547.75,-141.2 592.06,-119.42 753.5,-145 754.43,-145.15 755.36,-145.3 756.3,-145.46"/>
<polygon fill="midnightblue" stroke="midnightblue" points="374.2,-102.31 363.63,-103.06 372.36,-109.07 374.2,-102.31"/>
</g>
<!-- Node10 -->
<g id="node10" class="node">
<title>Node10</title>
<g id="a_node10"><a xlink:href="____format_____8c.html" target="_top" xlink:title="Header file for format.c.">
<polygon fill="white" stroke="black" points="131,-0.5 131,-30.5 244,-30.5 244,-0.5 131,-0.5"/>
<text text-anchor="start" x="139" y="-18.5" font-family="Helvetica,sans-Serif" font-size="10.00">swarm_bot_cpp/src/</text>
<text text-anchor="middle" x="187.5" y="-7.5" font-family="Helvetica,sans-Serif" font-size="10.00">__format__.c</text>
</a>
</g>
</g>
<!-- Node9&#45;&gt;Node10 -->
<g id="edge12" class="edge">
<title>Node9&#45;&gt;Node10</title>
<path fill="none" stroke="midnightblue" d="M279.36,-67.9C258.31,-56.12 231.78,-41.28 212.65,-30.57"/>
<polygon fill="midnightblue" stroke="midnightblue" points="277.87,-71.07 288.3,-72.9 281.29,-64.97 277.87,-71.07"/>
</g>
<!-- Node12 -->
<g id="node12" class="node">
<title>Node12</title>
<g id="a_node12"><a xlink:href=".html" target="_top" xlink:title=" ">
<polygon fill="white" stroke="black" points="262,-0.5 262,-30.5 375,-30.5 375,-0.5 262,-0.5"/>
<text text-anchor="start" x="270" y="-18.5" font-family="Helvetica,sans-Serif" font-size="10.00">swarm_bot_cpp/src/</text>
<text text-anchor="middle" x="318.5" y="-7.5" font-family="Helvetica,sans-Serif" font-size="10.00">__kinematics__.c</text>
</a>
</g>
</g>
<!-- Node11&#45;&gt;Node12 -->
<g id="edge16" class="edge">
<title>Node11&#45;&gt;Node12</title>
<path fill="none" stroke="midnightblue" d="M410.36,-67.9C389.31,-56.12 362.78,-41.28 343.65,-30.57"/>
<polygon fill="midnightblue" stroke="midnightblue" points="408.87,-71.07 419.3,-72.9 412.29,-64.97 408.87,-71.07"/>
</g>
<!-- Node11&#45;&gt;Node13 -->
<g id="edge17" class="edge">
<title>Node11&#45;&gt;Node13</title>
<path fill="none" stroke="midnightblue" d="M452,-62.98C456.04,-50.01 460.79,-34.79 463.72,-25.39"/>
<polygon fill="midnightblue" stroke="midnightblue" points="448.59,-62.14 448.95,-72.73 455.27,-64.23 448.59,-62.14"/>
</g>
<!-- Node14&#45;&gt;Node3 -->
<g id="edge20" class="edge">
<title>Node14&#45;&gt;Node3</title>
<path fill="none" stroke="midnightblue" d="M668.66,-106.36C703.3,-118.37 747.08,-134.16 776.83,-145.4"/>
<polygon fill="midnightblue" stroke="midnightblue" points="669.74,-103.03 659.15,-103.07 667.46,-109.64 669.74,-103.03"/>
</g>
<!-- Node15 -->
<g id="node15" class="node">
<title>Node15</title>
<g id="a_node15"><a xlink:href=".html" target="_top" xlink:title=" ">
<polygon fill="white" stroke="black" points="558,-0.5 558,-30.5 671,-30.5 671,-0.5 558,-0.5"/>
<text text-anchor="start" x="566" y="-18.5" font-family="Helvetica,sans-Serif" font-size="10.00">swarm_bot_cpp/src/</text>
<text text-anchor="middle" x="614.5" y="-7.5" font-family="Helvetica,sans-Serif" font-size="10.00">__odometry__.c</text>
</a>
</g>
</g>
<!-- Node14&#45;&gt;Node15 -->
<g id="edge19" class="edge">
<title>Node14&#45;&gt;Node15</title>
<path fill="none" stroke="midnightblue" d="M614.5,-62.73C614.5,-52.07 614.5,-39.91 614.5,-30.75"/>
<polygon fill="midnightblue" stroke="midnightblue" points="611,-62.73 614.5,-72.73 618,-62.73 611,-62.73"/>
</g>
<!-- Node16&#45;&gt;Node3 -->
<g id="edge23" class="edge">
<title>Node16&#45;&gt;Node3</title>
<path fill="none" stroke="midnightblue" d="M771.16,-110.07C782.49,-121.42 794.91,-135.13 802.89,-145.23"/>
<polygon fill="midnightblue" stroke="midnightblue" points="773.53,-107.48 763.93,-103 768.64,-112.49 773.53,-107.48"/>
</g>
<!-- Node17 -->
<g id="node17" class="node">
<title>Node17</title>
<g id="a_node17"><a xlink:href=".html" target="_top" xlink:title=" ">
<polygon fill="white" stroke="black" points="689,-0.5 689,-30.5 802,-30.5 802,-0.5 689,-0.5"/>
<text text-anchor="start" x="697" y="-18.5" font-family="Helvetica,sans-Serif" font-size="10.00">swarm_bot_cpp/src/</text>
<text text-anchor="middle" x="745.5" y="-7.5" font-family="Helvetica,sans-Serif" font-size="10.00">__pwm__.c</text>
</a>
</g>
</g>
<!-- Node16&#45;&gt;Node17 -->
<g id="edge22" class="edge">
<title>Node16&#45;&gt;Node17</title>
<path fill="none" stroke="midnightblue" d="M745.5,-62.73C745.5,-52.07 745.5,-39.91 745.5,-30.75"/>
<polygon fill="midnightblue" stroke="midnightblue" points="742,-62.73 745.5,-72.73 749,-62.73 742,-62.73"/>
</g>
<!-- Node18&#45;&gt;Node3 -->
<g id="edge25" class="edge">
<title>Node18&#45;&gt;Node3</title>
<path fill="none" stroke="midnightblue" d="M862.27,-110.94C852.59,-122.12 839.91,-135.39 829.4,-145.23"/>
<polygon fill="midnightblue" stroke="midnightblue" points="864.97,-113.16 868.71,-103.25 859.6,-108.66 864.97,-113.16"/>
</g>
<!-- Node19 -->
<g id="node19" class="node">
<title>Node19</title>
<g id="a_node19"><a xlink:href=".html" target="_top" xlink:title=" ">
<polygon fill="white" stroke="black" points="820,-0.5 820,-30.5 933,-30.5 933,-0.5 820,-0.5"/>
<text text-anchor="start" x="828" y="-18.5" font-family="Helvetica,sans-Serif" font-size="10.00">swarm_bot_cpp/src/</text>
<text text-anchor="middle" x="876.5" y="-7.5" font-family="Helvetica,sans-Serif" font-size="10.00">__timer0__.c</text>
</a>
</g>
</g>
<!-- Node18&#45;&gt;Node19 -->
<g id="edge26" class="edge">
<title>Node18&#45;&gt;Node19</title>
<path fill="none" stroke="midnightblue" d="M876.5,-62.73C876.5,-52.07 876.5,-39.91 876.5,-30.75"/>
<polygon fill="midnightblue" stroke="midnightblue" points="873,-62.73 876.5,-72.73 880,-62.73 873,-62.73"/>
</g>
<!-- Node20&#45;&gt;Node3 -->
<g id="edge29" class="edge">
<title>Node20&#45;&gt;Node3</title>
<path fill="none" stroke="midnightblue" d="M1129.2,-105.69C1124.59,-106.87 1119.98,-107.99 1115.5,-109 1029.81,-128.32 928.69,-144.09 867,-152.61"/>
<polygon fill="midnightblue" stroke="midnightblue" points="1130.43,-108.99 1139.19,-103.04 1128.63,-102.22 1130.43,-108.99"/>
</g>
<!-- Node20&#45;&gt;Node6 -->
<g id="edge28" class="edge">
<title>Node20&#45;&gt;Node6</title>
<path fill="none" stroke="midnightblue" d="M1164.63,-63.73C1158.6,-52.83 1151.61,-40.2 1146.38,-30.75"/>
<polygon fill="midnightblue" stroke="midnightblue" points="1161.7,-65.68 1169.61,-72.73 1167.83,-62.29 1161.7,-65.68"/>
</g>
<!-- Node21 -->
<g id="node21" class="node">
<title>Node21</title>
<g id="a_node21"><a xlink:href=".html" target="_top" xlink:title=" ">
<polygon fill="white" stroke="black" points="1213,-0.5 1213,-30.5 1326,-30.5 1326,-0.5 1213,-0.5"/>
<text text-anchor="start" x="1221" y="-18.5" font-family="Helvetica,sans-Serif" font-size="10.00">swarm_bot_cpp/src/</text>
<text text-anchor="middle" x="1269.5" y="-7.5" font-family="Helvetica,sans-Serif" font-size="10.00">__timer1__.c</text>
</a>
</g>
</g>
<!-- Node20&#45;&gt;Node21 -->
<g id="edge30" class="edge">
<title>Node20&#45;&gt;Node21</title>
<path fill="none" stroke="midnightblue" d="M1204.11,-66.61C1219.22,-55.03 1237.75,-40.83 1251.22,-30.5"/>
<polygon fill="midnightblue" stroke="midnightblue" points="1201.93,-63.87 1196.12,-72.73 1206.18,-69.43 1201.93,-63.87"/>
</g>
<!-- Node22&#45;&gt;Node3 -->
<g id="edge32" class="edge">
<title>Node22&#45;&gt;Node3</title>
<path fill="none" stroke="midnightblue" d="M1439.77,-105.74C1435,-106.98 1430.18,-108.1 1425.5,-109 1222.85,-148.15 976.3,-156.95 867.08,-158.93"/>
<polygon fill="midnightblue" stroke="midnightblue" points="1440.71,-109.11 1449.41,-103.05 1438.83,-102.37 1440.71,-109.11"/>
</g>
<!-- Node23 -->
<g id="node23" class="node">
<title>Node23</title>
<g id="a_node23"><a xlink:href=".html" target="_top" xlink:title=" ">
<polygon fill="white" stroke="black" points="1425,-0.5 1425,-30.5 1538,-30.5 1538,-0.5 1425,-0.5"/>
<text text-anchor="start" x="1433" y="-18.5" font-family="Helvetica,sans-Serif" font-size="10.00">swarm_bot_cpp/src/</text>
<text text-anchor="middle" x="1481.5" y="-7.5" font-family="Helvetica,sans-Serif" font-size="10.00">__timer2__.c</text>
</a>
</g>
</g>
<!-- Node22&#45;&gt;Node23 -->
<g id="edge33" class="edge">
<title>Node22&#45;&gt;Node23</title>
<path fill="none" stroke="midnightblue" d="M1481.5,-62.73C1481.5,-52.07 1481.5,-39.91 1481.5,-30.75"/>
<polygon fill="midnightblue" stroke="midnightblue" points="1478,-62.73 1481.5,-72.73 1485,-62.73 1478,-62.73"/>
</g>
</g>
</svg>
        <g id="navigator" transform="translate(0 0)" fill="#404254">
                <rect fill="#f2f5e9" fill-opacity="0.5" stroke="#606060" stroke-width=".5" x="0" y="0" width="60" height="60"/>
                <use id="zoomplus" xlink:href="#zoomPlus" x="17" y="9" onmousedown="handleZoom(evt,'in')"/>
                <use id="zoomminus" xlink:href="#zoomMin" x="42" y="9" onmousedown="handleZoom(evt,'out')"/>
                <use id="reset" xlink:href="#resetDef" x="30" y="36" onmousedown="handleReset()"/>
                <g id="arrowUp" xlink:href="#dirArrow" transform="translate(30 24)" onmousedown="handlePan(0,-1)">
                  <use xlink:href="#rim" fill="#404040">
                        <set attributeName="fill" to="#808080" begin="arrowUp.mouseover" end="arrowUp.mouseout"/>
                  </use>
                  <path fill="none" stroke="white" stroke-width="1.5" d="M0,-3.0v7 M-2.5,-0.5L0,-3.0L2.5,-0.5"/>
                </g>
                <g id="arrowRight" xlink:href="#dirArrow" transform="rotate(90) translate(36 -43)" onmousedown="handlePan(1,0)">
                  <use xlink:href="#rim" fill="#404040">
                        <set attributeName="fill" to="#808080" begin="arrowRight.mouseover" end="arrowRight.mouseout"/>
                  </use>
                  <path fill="none" stroke="white" stroke-width="1.5" d="M0,-3.0v7 M-2.5,-0.5L0,-3.0L2.5,-0.5"/>
                </g>
                <g id="arrowDown" xlink:href="#dirArrow" transform="rotate(180) translate(-30 -48)" onmousedown="handlePan(0,1)">
                  <use xlink:href="#rim" fill="#404040">
                        <set attributeName="fill" to="#808080" begin="arrowDown.mouseover" end="arrowDown.mouseout"/>
                  </use>
                  <path fill="none" stroke="white" stroke-width="1.5" d="M0,-3.0v7 M-2.5,-0.5L0,-3.0L2.5,-0.5"/>
                </g>
                <g id="arrowLeft" xlink:href="#dirArrow" transform="rotate(270) translate(-36 17)" onmousedown="handlePan(-1,0)">
                  <use xlink:href="#rim" fill="#404040">
                        <set attributeName="fill" to="#808080" begin="arrowLeft.mouseover" end="arrowLeft.mouseout"/>
                  </use>
                  <path fill="none" stroke="white" stroke-width="1.5" d="M0,-3.0v7 M-2.5,-0.5L0,-3.0L2.5,-0.5"/>
                </g>
        </g>
        <svg viewBox="0 0 15 15" width="100%" height="30px" preserveAspectRatio="xMaxYMin meet">
         <g id="arrow_out" transform="scale(0.3 0.3)">
          <a xlink:href="_____i_n_t__0__1_____8h__dep__incl_org.svg" target="_base">
           <rect id="button" ry="5" rx="5" y="6" x="6" height="38" width="38"
                fill="#f2f5e9" fill-opacity="0.5" stroke="#606060" stroke-width="1.0"/>
           <path id="arrow"
             d="M 11.500037,31.436501 C 11.940474,20.09759 22.043105,11.32322 32.158766,21.979434 L 37.068811,17.246167 C 37.068811,17.246167 37.088388,32 37.088388,32 L 22.160133,31.978069 C 22.160133,31.978069 26.997745,27.140456 26.997745,27.140456 C 18.528582,18.264221 13.291696,25.230495 11.500037,31.436501 z"
             style="fill:#404040;"/>
          </a>
         </g>
        </svg>
</svg>
