<?xml version="1.0" encoding="UTF-8" standalone="no"?>
<!DOCTYPE svg PUBLIC "-//W3C//DTD SVG 1.1//EN"
 "http://www.w3.org/Graphics/SVG/1.1/DTD/svg11.dtd">
<!-- Generated by graphviz version 2.43.0 (0)
 -->
<!-- Title: _update_controller Pages: 1 -->
<svg width="236pt" height="104pt"
 viewBox="0.00 0.00 236.00 104.00" xmlns="http://www.w3.org/2000/svg" xmlns:xlink="http://www.w3.org/1999/xlink">
<g id="graph0" class="graph" transform="scale(1 1) rotate(0) translate(4 100)">
<title>_update_controller</title>
<polygon fill="white" stroke="transparent" points="-4,4 -4,-100 232,-100 232,4 -4,4"/>
<!-- Node1 -->
<g id="node1" class="node">
<title>Node1</title>
<g id="a_node1"><a xlink:title=" ">
<polygon fill="#bfbfbf" stroke="black" points="0,-38.5 0,-57.5 107,-57.5 107,-38.5 0,-38.5"/>
<text text-anchor="middle" x="53.5" y="-45.5" font-family="Helvetica,sans-Serif" font-size="10.00">_update_controller</text>
</a>
</g>
</g>
<!-- Node2 -->
<g id="node2" class="node">
<title>Node2</title>
<g id="a_node2"><a xlink:href="____dc__control_____8c.html#a0ae90f3c596a38b03cb3716df94f3db7" target="_top" xlink:title=" ">
<polygon fill="white" stroke="black" points="168,-76.5 168,-95.5 203,-95.5 203,-76.5 168,-76.5"/>
<text text-anchor="middle" x="185.5" y="-83.5" font-family="Helvetica,sans-Serif" font-size="10.00">_ref</text>
</a>
</g>
</g>
<!-- Node1&#45;&gt;Node2 -->
<g id="edge1" class="edge">
<title>Node1&#45;&gt;Node2</title>
<path fill="none" stroke="midnightblue" d="M87.3,-57.59C109.31,-64.02 137.9,-72.38 158.37,-78.36"/>
<polygon fill="midnightblue" stroke="midnightblue" points="157.4,-81.72 167.98,-81.17 159.36,-75.01 157.4,-81.72"/>
</g>
<!-- Node3 -->
<g id="node3" class="node">
<title>Node3</title>
<g id="a_node3"><a xlink:href="____dc__control_____8c.html#a1dcb64142631620c587c39e0dfa676b6" target="_top" xlink:title=" ">
<polygon fill="white" stroke="black" points="163.5,-38.5 163.5,-57.5 207.5,-57.5 207.5,-38.5 163.5,-38.5"/>
<text text-anchor="middle" x="185.5" y="-45.5" font-family="Helvetica,sans-Serif" font-size="10.00">_sens</text>
</a>
</g>
</g>
<!-- Node1&#45;&gt;Node3 -->
<g id="edge2" class="edge">
<title>Node1&#45;&gt;Node3</title>
<path fill="none" stroke="midnightblue" d="M107,-48C122.57,-48 139.13,-48 152.93,-48"/>
<polygon fill="midnightblue" stroke="midnightblue" points="153.34,-51.5 163.34,-48 153.34,-44.5 153.34,-51.5"/>
</g>
<!-- Node4 -->
<g id="node4" class="node">
<title>Node4</title>
<g id="a_node4"><a xlink:href="__pid___8c.html#ac0129c983e062dd6ee925ea932bae93f" target="_top" xlink:title="PID control algorithm.">
<polygon fill="white" stroke="black" points="143,-0.5 143,-19.5 228,-19.5 228,-0.5 143,-0.5"/>
<text text-anchor="middle" x="185.5" y="-7.5" font-family="Helvetica,sans-Serif" font-size="10.00">pid_Controller</text>
</a>
</g>
</g>
<!-- Node1&#45;&gt;Node4 -->
<g id="edge3" class="edge">
<title>Node1&#45;&gt;Node4</title>
<path fill="none" stroke="midnightblue" d="M87.3,-38.41C103.78,-33.6 123.94,-27.7 141.63,-22.53"/>
<polygon fill="midnightblue" stroke="midnightblue" points="143.09,-25.75 151.71,-19.59 141.13,-19.03 143.09,-25.75"/>
</g>
</g>
</svg>
