<?xml version="1.0" encoding="UTF-8" standalone="no"?>
<!DOCTYPE svg PUBLIC "-//W3C//DTD SVG 1.1//EN"
 "http://www.w3.org/Graphics/SVG/1.1/DTD/svg11.dtd">
<!-- Generated by graphviz version 2.43.0 (0)
 -->
<!-- Title: swarm_bot_cpp/src/__timer1__.h Pages: 1 -->
<svg width="1381pt" height="307pt"
 viewBox="0.00 0.00 1381.00 307.00" xmlns="http://www.w3.org/2000/svg" xmlns:xlink="http://www.w3.org/1999/xlink">
<g id="graph0" class="graph" transform="scale(1 1) rotate(0) translate(4 303)">
<title>swarm_bot_cpp/src/__timer1__.h</title>
<polygon fill="white" stroke="transparent" points="-4,4 -4,-303 1377,-303 1377,4 -4,4"/>
<!-- Node1 -->
<g id="node1" class="node">
<title>Node1</title>
<g id="a_node1"><a xlink:title="Header file for timer1.c.">
<polygon fill="#bfbfbf" stroke="black" points="631,-268.5 631,-298.5 744,-298.5 744,-268.5 631,-268.5"/>
<text text-anchor="start" x="639" y="-286.5" font-family="Helvetica,sans-Serif" font-size="10.00">swarm_bot_cpp/src/</text>
<text text-anchor="middle" x="687.5" y="-275.5" font-family="Helvetica,sans-Serif" font-size="10.00">__timer1__.h</text>
</a>
</g>
</g>
<!-- Node2 -->
<g id="node2" class="node">
<title>Node2</title>
<g id="a_node2"><a xlink:href=".html" target="_top" xlink:title=" ">
<polygon fill="white" stroke="black" points="537,-201.5 537,-231.5 650,-231.5 650,-201.5 537,-201.5"/>
<text text-anchor="start" x="545" y="-219.5" font-family="Helvetica,sans-Serif" font-size="10.00">swarm_bot_cpp/src/</text>
<text text-anchor="middle" x="593.5" y="-208.5" font-family="Helvetica,sans-Serif" font-size="10.00">__pin_map.h</text>
</a>
</g>
</g>
<!-- Node1&#45;&gt;Node2 -->
<g id="edge1" class="edge">
<title>Node1&#45;&gt;Node2</title>
<path fill="none" stroke="midnightblue" d="M658.51,-262.45C644.05,-252.45 626.91,-240.6 613.86,-231.58"/>
<polygon fill="midnightblue" stroke="midnightblue" points="656.89,-265.59 667.1,-268.4 660.87,-259.83 656.89,-265.59"/>
</g>
<!-- Node3 -->
<g id="node3" class="node">
<title>Node3</title>
<g id="a_node3"><a xlink:href="____swarm__wold_____8h.html" target="_top" xlink:title="Header file for dummy purposes.">
<polygon fill="white" stroke="black" points="631,-134.5 631,-164.5 744,-164.5 744,-134.5 631,-134.5"/>
<text text-anchor="start" x="639" y="-152.5" font-family="Helvetica,sans-Serif" font-size="10.00">swarm_bot_cpp/src/</text>
<text text-anchor="middle" x="687.5" y="-141.5" font-family="Helvetica,sans-Serif" font-size="10.00">__swarm_wold__.h</text>
</a>
</g>
</g>
<!-- Node1&#45;&gt;Node3 -->
<g id="edge25" class="edge">
<title>Node1&#45;&gt;Node3</title>
<path fill="none" stroke="midnightblue" d="M682.14,-258.39C680,-230.9 680.33,-186.89 683.14,-164.52"/>
<polygon fill="midnightblue" stroke="midnightblue" points="678.66,-258.77 683.13,-268.37 685.63,-258.08 678.66,-258.77"/>
</g>
<!-- Node24 -->
<g id="node15" class="node">
<title>Node24</title>
<g id="a_node15"><a xlink:href=".html" target="_top" xlink:title=" ">
<polygon fill="white" stroke="black" points="725,-201.5 725,-231.5 838,-231.5 838,-201.5 725,-201.5"/>
<text text-anchor="start" x="733" y="-219.5" font-family="Helvetica,sans-Serif" font-size="10.00">swarm_bot_cpp/src/</text>
<text text-anchor="middle" x="781.5" y="-208.5" font-family="Helvetica,sans-Serif" font-size="10.00">__timer1__.c</text>
</a>
</g>
</g>
<!-- Node1&#45;&gt;Node24 -->
<g id="edge26" class="edge">
<title>Node1&#45;&gt;Node24</title>
<path fill="none" stroke="midnightblue" d="M716.49,-262.45C730.95,-252.45 748.09,-240.6 761.14,-231.58"/>
<polygon fill="midnightblue" stroke="midnightblue" points="714.13,-259.83 707.9,-268.4 718.11,-265.59 714.13,-259.83"/>
</g>
<!-- Node2&#45;&gt;Node3 -->
<g id="edge2" class="edge">
<title>Node2&#45;&gt;Node3</title>
<path fill="none" stroke="midnightblue" d="M622.49,-195.45C636.95,-185.45 654.09,-173.6 667.14,-164.58"/>
<polygon fill="midnightblue" stroke="midnightblue" points="620.13,-192.83 613.9,-201.4 624.11,-198.59 620.13,-192.83"/>
</g>
<!-- Node3&#45;&gt;Node1 -->
<g id="edge21" class="edge">
<title>Node3&#45;&gt;Node1</title>
<path fill="none" stroke="midnightblue" d="M692.85,-174.49C695,-201.92 694.68,-245.94 691.87,-268.37"/>
<polygon fill="midnightblue" stroke="midnightblue" points="696.33,-174.13 691.86,-164.52 689.36,-174.82 696.33,-174.13"/>
</g>
<!-- Node4 -->
<g id="node4" class="node">
<title>Node4</title>
<g id="a_node4"><a xlink:href="init_8c.html" target="_top" xlink:title="User board initialization template.">
<polygon fill="white" stroke="black" points="131,-56.5 131,-97.5 286,-97.5 286,-56.5 131,-56.5"/>
<text text-anchor="start" x="139" y="-85.5" font-family="Helvetica,sans-Serif" font-size="10.00">swarm_bot_cpp/src/ASF</text>
<text text-anchor="start" x="139" y="-74.5" font-family="Helvetica,sans-Serif" font-size="10.00">/common/boards/user_board</text>
<text text-anchor="middle" x="208.5" y="-63.5" font-family="Helvetica,sans-Serif" font-size="10.00">/init.c</text>
</a>
</g>
</g>
<!-- Node3&#45;&gt;Node4 -->
<g id="edge3" class="edge">
<title>Node3&#45;&gt;Node4</title>
<path fill="none" stroke="midnightblue" d="M620.71,-141.99C542.26,-133.86 408.37,-118.5 294.5,-98 291.78,-97.51 289.03,-96.99 286.24,-96.45"/>
<polygon fill="midnightblue" stroke="midnightblue" points="620.63,-145.5 630.93,-143.04 621.34,-138.54 620.63,-145.5"/>
</g>
<!-- Node5 -->
<g id="node5" class="node">
<title>Node5</title>
<g id="a_node5"><a xlink:href="____adc_____8h.html" target="_top" xlink:title="Header file for adc.c.">
<polygon fill="white" stroke="red" points="0,-62 0,-92 113,-92 113,-62 0,-62"/>
<text text-anchor="start" x="8" y="-80" font-family="Helvetica,sans-Serif" font-size="10.00">swarm_bot_cpp/src/</text>
<text text-anchor="middle" x="56.5" y="-69" font-family="Helvetica,sans-Serif" font-size="10.00">__adc__.h</text>
</a>
</g>
</g>
<!-- Node3&#45;&gt;Node5 -->
<g id="edge4" class="edge">
<title>Node3&#45;&gt;Node5</title>
<path fill="none" stroke="midnightblue" d="M620.64,-147.22C512.59,-144.12 293.74,-133.56 112.5,-98 104.62,-96.45 96.34,-94.32 88.6,-92.02"/>
<polygon fill="midnightblue" stroke="midnightblue" points="620.65,-150.72 630.74,-147.5 620.84,-143.73 620.65,-150.72"/>
</g>
<!-- Node7 -->
<g id="node6" class="node">
<title>Node7</title>
<g id="a_node6"><a xlink:href="____dc__control_____8h.html" target="_top" xlink:title="Header file for dc_control.c.">
<polygon fill="white" stroke="red" points="304,-62 304,-92 417,-92 417,-62 304,-62"/>
<text text-anchor="start" x="312" y="-80" font-family="Helvetica,sans-Serif" font-size="10.00">swarm_bot_cpp/src/</text>
<text text-anchor="middle" x="360.5" y="-69" font-family="Helvetica,sans-Serif" font-size="10.00">__dc_control__.h</text>
</a>
</g>
</g>
<!-- Node3&#45;&gt;Node7 -->
<g id="edge7" class="edge">
<title>Node3&#45;&gt;Node7</title>
<path fill="none" stroke="midnightblue" d="M620.94,-138.92C565.65,-129.88 485.36,-115.18 416.5,-98 409.51,-96.26 402.16,-94.21 395.15,-92.1"/>
<polygon fill="midnightblue" stroke="midnightblue" points="620.54,-142.4 630.97,-140.54 621.65,-135.49 620.54,-142.4"/>
</g>
<!-- Node9 -->
<g id="node7" class="node">
<title>Node9</title>
<g id="a_node7"><a xlink:href="____format_____8h.html" target="_top" xlink:title="Header file for format.c.">
<polygon fill="white" stroke="red" points="435,-62 435,-92 548,-92 548,-62 435,-62"/>
<text text-anchor="start" x="443" y="-80" font-family="Helvetica,sans-Serif" font-size="10.00">swarm_bot_cpp/src/</text>
<text text-anchor="middle" x="491.5" y="-69" font-family="Helvetica,sans-Serif" font-size="10.00">__format__.h</text>
</a>
</g>
</g>
<!-- Node3&#45;&gt;Node9 -->
<g id="edge9" class="edge">
<title>Node3&#45;&gt;Node9</title>
<path fill="none" stroke="midnightblue" d="M633.27,-131.12C598.61,-119.1 554.84,-103.31 525.1,-92.07"/>
<polygon fill="midnightblue" stroke="midnightblue" points="632.19,-134.45 642.78,-134.4 634.47,-127.83 632.19,-134.45"/>
</g>
<!-- Node11 -->
<g id="node8" class="node">
<title>Node11</title>
<g id="a_node8"><a xlink:href="_____i_n_t__0__1_____8h.html" target="_top" xlink:title="Header file for INT_0_1.c.">
<polygon fill="white" stroke="red" points="566,-62 566,-92 679,-92 679,-62 566,-62"/>
<text text-anchor="start" x="574" y="-80" font-family="Helvetica,sans-Serif" font-size="10.00">swarm_bot_cpp/src/</text>
<text text-anchor="middle" x="622.5" y="-69" font-family="Helvetica,sans-Serif" font-size="10.00">__INT_0_1__.h</text>
</a>
</g>
</g>
<!-- Node3&#45;&gt;Node11 -->
<g id="edge11" class="edge">
<title>Node3&#45;&gt;Node11</title>
<path fill="none" stroke="midnightblue" d="M661.59,-127.19C650.32,-115.87 638.02,-102.27 630.09,-92.25"/>
<polygon fill="midnightblue" stroke="midnightblue" points="659.2,-129.74 668.8,-134.23 664.1,-124.74 659.2,-129.74"/>
</g>
<!-- Node13 -->
<g id="node9" class="node">
<title>Node13</title>
<g id="a_node9"><a xlink:href="____kinematics_____8h.html" target="_top" xlink:title="Header file for kimenatics.c.">
<polygon fill="white" stroke="red" points="697,-62 697,-92 810,-92 810,-62 697,-62"/>
<text text-anchor="start" x="705" y="-80" font-family="Helvetica,sans-Serif" font-size="10.00">swarm_bot_cpp/src/</text>
<text text-anchor="middle" x="753.5" y="-69" font-family="Helvetica,sans-Serif" font-size="10.00">__kinematics__.h</text>
</a>
</g>
</g>
<!-- Node3&#45;&gt;Node13 -->
<g id="edge13" class="edge">
<title>Node3&#45;&gt;Node13</title>
<path fill="none" stroke="midnightblue" d="M707.75,-126.86C718.29,-115.61 730.86,-102.18 740.16,-92.25"/>
<polygon fill="midnightblue" stroke="midnightblue" points="705.14,-124.54 700.86,-134.23 710.25,-129.33 705.14,-124.54"/>
</g>
<!-- Node15 -->
<g id="node10" class="node">
<title>Node15</title>
<g id="a_node10"><a xlink:href=".html" target="_top" xlink:title=" ">
<polygon fill="white" stroke="black" points="722.5,-0.5 722.5,-19.5 868.5,-19.5 868.5,-0.5 722.5,-0.5"/>
<text text-anchor="middle" x="795.5" y="-7.5" font-family="Helvetica,sans-Serif" font-size="10.00">swarm_bot_cpp/src/main.c</text>
</a>
</g>
</g>
<!-- Node3&#45;&gt;Node15 -->
<g id="edge24" class="edge">
<title>Node3&#45;&gt;Node15</title>
<path fill="none" stroke="midnightblue" d="M753.8,-139C778.31,-131.91 803.71,-119.56 818.5,-98 835.56,-73.14 813.82,-36.31 802.09,-19.7"/>
<polygon fill="midnightblue" stroke="midnightblue" points="752.89,-135.62 744.11,-141.55 754.67,-142.39 752.89,-135.62"/>
</g>
<!-- Node16 -->
<g id="node11" class="node">
<title>Node16</title>
<g id="a_node11"><a xlink:href="____odometry_____8h.html" target="_top" xlink:title="Header file for odometry.c.">
<polygon fill="white" stroke="red" points="867,-62 867,-92 980,-92 980,-62 867,-62"/>
<text text-anchor="start" x="875" y="-80" font-family="Helvetica,sans-Serif" font-size="10.00">swarm_bot_cpp/src/</text>
<text text-anchor="middle" x="923.5" y="-69" font-family="Helvetica,sans-Serif" font-size="10.00">__odometry__.h</text>
</a>
</g>
</g>
<!-- Node3&#45;&gt;Node16 -->
<g id="edge15" class="edge">
<title>Node3&#45;&gt;Node16</title>
<path fill="none" stroke="midnightblue" d="M738.5,-131.51C777.58,-119.46 831.24,-103.46 870.75,-92.11"/>
<polygon fill="midnightblue" stroke="midnightblue" points="737.41,-128.18 728.89,-134.49 739.48,-134.87 737.41,-128.18"/>
</g>
<!-- Node18 -->
<g id="node12" class="node">
<title>Node18</title>
<g id="a_node12"><a xlink:href="____pwm_____8h.html" target="_top" xlink:title="Header file for pwm.c.">
<polygon fill="white" stroke="red" points="998,-62 998,-92 1111,-92 1111,-62 998,-62"/>
<text text-anchor="start" x="1006" y="-80" font-family="Helvetica,sans-Serif" font-size="10.00">swarm_bot_cpp/src/</text>
<text text-anchor="middle" x="1054.5" y="-69" font-family="Helvetica,sans-Serif" font-size="10.00">__pwm__.h</text>
</a>
</g>
</g>
<!-- Node3&#45;&gt;Node18 -->
<g id="edge17" class="edge">
<title>Node3&#45;&gt;Node18</title>
<path fill="none" stroke="midnightblue" d="M754.2,-138.79C813.7,-130.1 902.81,-115.97 979.5,-98 986.84,-96.28 994.57,-94.19 1002.18,-92.03"/>
<polygon fill="midnightblue" stroke="midnightblue" points="753.58,-135.34 744.18,-140.24 754.58,-142.27 753.58,-135.34"/>
</g>
<!-- Node20 -->
<g id="node13" class="node">
<title>Node20</title>
<g id="a_node13"><a xlink:href="____timer0_____8h.html" target="_top" xlink:title="Header file for timer0.c.">
<polygon fill="white" stroke="red" points="1129,-62 1129,-92 1242,-92 1242,-62 1129,-62"/>
<text text-anchor="start" x="1137" y="-80" font-family="Helvetica,sans-Serif" font-size="10.00">swarm_bot_cpp/src/</text>
<text text-anchor="middle" x="1185.5" y="-69" font-family="Helvetica,sans-Serif" font-size="10.00">__timer0__.h</text>
</a>
</g>
</g>
<!-- Node3&#45;&gt;Node20 -->
<g id="edge19" class="edge">
<title>Node3&#45;&gt;Node20</title>
<path fill="none" stroke="midnightblue" d="M754.36,-143.92C838.24,-137.61 985.96,-123.93 1110.5,-98 1118.24,-96.39 1126.37,-94.28 1134.34,-92.04"/>
<polygon fill="midnightblue" stroke="midnightblue" points="753.91,-140.44 744.2,-144.67 754.43,-147.43 753.91,-140.44"/>
</g>
<!-- Node22 -->
<g id="node14" class="node">
<title>Node22</title>
<g id="a_node14"><a xlink:href="____timer2_____8h.html" target="_top" xlink:title="Header file for timer2.c.">
<polygon fill="white" stroke="red" points="1260,-62 1260,-92 1373,-92 1373,-62 1260,-62"/>
<text text-anchor="start" x="1268" y="-80" font-family="Helvetica,sans-Serif" font-size="10.00">swarm_bot_cpp/src/</text>
<text text-anchor="middle" x="1316.5" y="-69" font-family="Helvetica,sans-Serif" font-size="10.00">__timer2__.h</text>
</a>
</g>
</g>
<!-- Node3&#45;&gt;Node22 -->
<g id="edge22" class="edge">
<title>Node3&#45;&gt;Node22</title>
<path fill="none" stroke="midnightblue" d="M754.32,-146.73C859.07,-143.03 1067.63,-131.77 1241.5,-98 1249.49,-96.45 1257.9,-94.31 1266.1,-92"/>
<polygon fill="midnightblue" stroke="midnightblue" points="754.08,-143.23 744.21,-147.07 754.32,-150.23 754.08,-143.23"/>
</g>
<!-- Node5&#45;&gt;Node2 -->
<g id="edge5" class="edge">
<title>Node5&#45;&gt;Node2</title>
<path fill="none" stroke="midnightblue" d="M110.77,-94.94C114.39,-96 118,-97.03 121.5,-98 270.59,-139.46 448.09,-181.77 536.93,-202.47"/>
<polygon fill="midnightblue" stroke="midnightblue" points="111.74,-91.58 101.16,-92.09 109.76,-98.29 111.74,-91.58"/>
</g>
<!-- Node5&#45;&gt;Node3 -->
<g id="edge6" class="edge">
<title>Node5&#45;&gt;Node3</title>
<path fill="none" stroke="midnightblue" d="M116.17,-94.71C121,-95.96 125.82,-97.08 130.5,-98 311.29,-133.47 529.51,-144.06 630.85,-147.2"/>
<polygon fill="midnightblue" stroke="midnightblue" points="116.83,-91.26 106.26,-92.02 114.99,-98.02 116.83,-91.26"/>
</g>
<!-- Node7&#45;&gt;Node3 -->
<g id="edge8" class="edge">
<title>Node7&#45;&gt;Node3</title>
<path fill="none" stroke="midnightblue" d="M422.79,-94.91C426.75,-96 430.68,-97.05 434.5,-98 501.47,-114.71 579.24,-129.07 630.77,-138.16"/>
<polygon fill="midnightblue" stroke="midnightblue" points="423.48,-91.46 412.9,-92.1 421.57,-98.2 423.48,-91.46"/>
</g>
<!-- Node9&#45;&gt;Node3 -->
<g id="edge10" class="edge">
<title>Node9&#45;&gt;Node3</title>
<path fill="none" stroke="midnightblue" d="M545.66,-95.36C580.3,-107.37 624.08,-123.16 653.83,-134.4"/>
<polygon fill="midnightblue" stroke="midnightblue" points="546.74,-92.03 536.15,-92.07 544.46,-98.64 546.74,-92.03"/>
</g>
<!-- Node11&#45;&gt;Node3 -->
<g id="edge12" class="edge">
<title>Node11&#45;&gt;Node3</title>
<path fill="none" stroke="midnightblue" d="M648.16,-99.07C659.49,-110.42 671.91,-124.13 679.89,-134.23"/>
<polygon fill="midnightblue" stroke="midnightblue" points="650.53,-96.48 640.93,-92 645.64,-101.49 650.53,-96.48"/>
</g>
<!-- Node13&#45;&gt;Node15 -->
<g id="edge14" class="edge">
<title>Node13&#45;&gt;Node15</title>
<path fill="none" stroke="midnightblue" d="M768.05,-53.47C775.58,-41.83 784.32,-28.3 789.88,-19.69"/>
<polygon fill="midnightblue" stroke="midnightblue" points="765.1,-51.6 762.61,-61.9 770.98,-55.4 765.1,-51.6"/>
</g>
<!-- Node16&#45;&gt;Node3 -->
<g id="edge16" class="edge">
<title>Node16&#45;&gt;Node3</title>
<path fill="none" stroke="midnightblue" d="M872.18,-95.09C833.02,-107.17 779.36,-123.16 739.92,-134.49"/>
<polygon fill="midnightblue" stroke="midnightblue" points="873.29,-98.41 881.8,-92.11 871.22,-91.72 873.29,-98.41"/>
</g>
<!-- Node18&#45;&gt;Node3 -->
<g id="edge18" class="edge">
<title>Node18&#45;&gt;Node3</title>
<path fill="none" stroke="midnightblue" d="M1010.12,-94.8C1005.88,-95.95 1001.63,-97.03 997.5,-98 910.19,-118.47 806.76,-133.94 744.09,-142.08"/>
<polygon fill="midnightblue" stroke="midnightblue" points="1011.24,-98.12 1019.91,-92.03 1009.34,-91.38 1011.24,-98.12"/>
</g>
<!-- Node20&#45;&gt;Node3 -->
<g id="edge20" class="edge">
<title>Node20&#45;&gt;Node3</title>
<path fill="none" stroke="midnightblue" d="M1142.15,-94.78C1137.58,-95.97 1132.97,-97.07 1128.5,-98 992.48,-126.32 828.82,-140.02 744.17,-145.48"/>
<polygon fill="midnightblue" stroke="midnightblue" points="1143.33,-98.08 1152.03,-92.04 1141.46,-91.34 1143.33,-98.08"/>
</g>
<!-- Node22&#45;&gt;Node3 -->
<g id="edge23" class="edge">
<title>Node22&#45;&gt;Node3</title>
<path fill="none" stroke="midnightblue" d="M1273.97,-94.7C1269.14,-95.95 1264.25,-97.08 1259.5,-98 1073.57,-134.11 847.99,-144.48 744.37,-147.39"/>
<polygon fill="midnightblue" stroke="midnightblue" points="1275.05,-98.04 1283.76,-92 1273.19,-91.29 1275.05,-98.04"/>
</g>
</g>
</svg>
