<?xml version="1.0" encoding="UTF-8" standalone="no"?>
<!DOCTYPE svg PUBLIC "-//W3C//DTD SVG 1.1//EN"
 "http://www.w3.org/Graphics/SVG/1.1/DTD/svg11.dtd">
<!-- Generated by graphviz version 2.43.0 (0)
 -->
<!-- Title: swarm_bot_cpp/src/__timer1__.h Pages: 1 -->
<svg width="1381pt" height="307pt"
 viewBox="0.00 0.00 1381.00 307.00" xmlns="http://www.w3.org/2000/svg" xmlns:xlink="http://www.w3.org/1999/xlink">
<g id="graph0" class="graph" transform="scale(1 1) rotate(0) translate(4 303)">
<title>swarm_bot_cpp/src/__timer1__.h</title>
<polygon fill="white" stroke="transparent" points="-4,4 -4,-303 1377,-303 1377,4 -4,4"/>
<!-- Node1 -->
<g id="node1" class="node">
<title>Node1</title>
<g id="a_node1"><a xlink:title="Header file for timer1.c.">
<polygon fill="#bfbfbf" stroke="black" points="566,-268.5 566,-298.5 679,-298.5 679,-268.5 566,-268.5"/>
<text text-anchor="start" x="574" y="-286.5" font-family="Helvetica,sans-Serif" font-size="10.00">swarm_bot_cpp/src/</text>
<text text-anchor="middle" x="622.5" y="-275.5" font-family="Helvetica,sans-Serif" font-size="10.00">__timer1__.h</text>
</a>
</g>
</g>
<!-- Node2 -->
<g id="node2" class="node">
<title>Node2</title>
<g id="a_node2"><a xlink:href=".html" target="_top" xlink:title=" ">
<polygon fill="white" stroke="black" points="472,-201.5 472,-231.5 585,-231.5 585,-201.5 472,-201.5"/>
<text text-anchor="start" x="480" y="-219.5" font-family="Helvetica,sans-Serif" font-size="10.00">swarm_bot_cpp/src/</text>
<text text-anchor="middle" x="528.5" y="-208.5" font-family="Helvetica,sans-Serif" font-size="10.00">__pin_map.h</text>
</a>
</g>
</g>
<!-- Node1&#45;&gt;Node2 -->
<g id="edge1" class="edge">
<title>Node1&#45;&gt;Node2</title>
<path fill="none" stroke="midnightblue" d="M593.51,-262.45C579.05,-252.45 561.91,-240.6 548.86,-231.58"/>
<polygon fill="midnightblue" stroke="midnightblue" points="591.89,-265.59 602.1,-268.4 595.87,-259.83 591.89,-265.59"/>
</g>
<!-- Node3 -->
<g id="node3" class="node">
<title>Node3</title>
<g id="a_node3"><a xlink:href="____swarm__wold_____8h.html" target="_top" xlink:title="Header file for dummy purposes.">
<polygon fill="white" stroke="black" points="566,-134.5 566,-164.5 679,-164.5 679,-134.5 566,-134.5"/>
<text text-anchor="start" x="574" y="-152.5" font-family="Helvetica,sans-Serif" font-size="10.00">swarm_bot_cpp/src/</text>
<text text-anchor="middle" x="622.5" y="-141.5" font-family="Helvetica,sans-Serif" font-size="10.00">__swarm_wold__.h</text>
</a>
</g>
</g>
<!-- Node1&#45;&gt;Node3 -->
<g id="edge25" class="edge">
<title>Node1&#45;&gt;Node3</title>
<path fill="none" stroke="midnightblue" d="M617.14,-258.39C615,-230.9 615.33,-186.89 618.14,-164.52"/>
<polygon fill="midnightblue" stroke="midnightblue" points="613.66,-258.77 618.13,-268.37 620.63,-258.08 613.66,-258.77"/>
</g>
<!-- Node24 -->
<g id="node15" class="node">
<title>Node24</title>
<g id="a_node15"><a xlink:href=".html" target="_top" xlink:title=" ">
<polygon fill="white" stroke="black" points="660,-201.5 660,-231.5 773,-231.5 773,-201.5 660,-201.5"/>
<text text-anchor="start" x="668" y="-219.5" font-family="Helvetica,sans-Serif" font-size="10.00">swarm_bot_cpp/src/</text>
<text text-anchor="middle" x="716.5" y="-208.5" font-family="Helvetica,sans-Serif" font-size="10.00">__timer1__.c</text>
</a>
</g>
</g>
<!-- Node1&#45;&gt;Node24 -->
<g id="edge26" class="edge">
<title>Node1&#45;&gt;Node24</title>
<path fill="none" stroke="midnightblue" d="M651.49,-262.45C665.95,-252.45 683.09,-240.6 696.14,-231.58"/>
<polygon fill="midnightblue" stroke="midnightblue" points="649.13,-259.83 642.9,-268.4 653.11,-265.59 649.13,-259.83"/>
</g>
<!-- Node2&#45;&gt;Node3 -->
<g id="edge2" class="edge">
<title>Node2&#45;&gt;Node3</title>
<path fill="none" stroke="midnightblue" d="M557.49,-195.45C571.95,-185.45 589.09,-173.6 602.14,-164.58"/>
<polygon fill="midnightblue" stroke="midnightblue" points="555.13,-192.83 548.9,-201.4 559.11,-198.59 555.13,-192.83"/>
</g>
<!-- Node3&#45;&gt;Node1 -->
<g id="edge20" class="edge">
<title>Node3&#45;&gt;Node1</title>
<path fill="none" stroke="midnightblue" d="M627.85,-174.49C630,-201.92 629.68,-245.94 626.87,-268.37"/>
<polygon fill="midnightblue" stroke="midnightblue" points="631.33,-174.13 626.86,-164.52 624.36,-174.82 631.33,-174.13"/>
</g>
<!-- Node4 -->
<g id="node4" class="node">
<title>Node4</title>
<g id="a_node4"><a xlink:href="____adc_____8h.html" target="_top" xlink:title="Header file for adc.c.">
<polygon fill="white" stroke="red" points="0,-62 0,-92 113,-92 113,-62 0,-62"/>
<text text-anchor="start" x="8" y="-80" font-family="Helvetica,sans-Serif" font-size="10.00">swarm_bot_cpp/src/</text>
<text text-anchor="middle" x="56.5" y="-69" font-family="Helvetica,sans-Serif" font-size="10.00">__adc__.h</text>
</a>
</g>
</g>
<!-- Node3&#45;&gt;Node4 -->
<g id="edge3" class="edge">
<title>Node3&#45;&gt;Node4</title>
<path fill="none" stroke="midnightblue" d="M555.71,-146.24C457.49,-141.86 269.12,-129.66 112.5,-98 104.75,-96.43 96.6,-94.32 88.96,-92.04"/>
<polygon fill="midnightblue" stroke="midnightblue" points="555.65,-149.74 565.79,-146.68 555.95,-142.75 555.65,-149.74"/>
</g>
<!-- Node6 -->
<g id="node5" class="node">
<title>Node6</title>
<g id="a_node5"><a xlink:href="____dc__control_____8h.html" target="_top" xlink:title="Header file for dc_control.c.">
<polygon fill="white" stroke="red" points="131,-62 131,-92 244,-92 244,-62 131,-62"/>
<text text-anchor="start" x="139" y="-80" font-family="Helvetica,sans-Serif" font-size="10.00">swarm_bot_cpp/src/</text>
<text text-anchor="middle" x="187.5" y="-69" font-family="Helvetica,sans-Serif" font-size="10.00">__dc_control__.h</text>
</a>
</g>
</g>
<!-- Node3&#45;&gt;Node6 -->
<g id="edge6" class="edge">
<title>Node3&#45;&gt;Node6</title>
<path fill="none" stroke="midnightblue" d="M555.83,-143.31C479.5,-136.28 351.35,-121.79 243.5,-98 236.01,-96.35 228.13,-94.24 220.69,-92.03"/>
<polygon fill="midnightblue" stroke="midnightblue" points="555.52,-146.8 565.8,-144.21 556.15,-139.83 555.52,-146.8"/>
</g>
<!-- Node8 -->
<g id="node6" class="node">
<title>Node8</title>
<g id="a_node6"><a xlink:href="____format_____8h.html" target="_top" xlink:title="Header file for format.c.">
<polygon fill="white" stroke="red" points="262,-62 262,-92 375,-92 375,-62 262,-62"/>
<text text-anchor="start" x="270" y="-80" font-family="Helvetica,sans-Serif" font-size="10.00">swarm_bot_cpp/src/</text>
<text text-anchor="middle" x="318.5" y="-69" font-family="Helvetica,sans-Serif" font-size="10.00">__format__.h</text>
</a>
</g>
</g>
<!-- Node3&#45;&gt;Node8 -->
<g id="edge8" class="edge">
<title>Node3&#45;&gt;Node8</title>
<path fill="none" stroke="midnightblue" d="M555.77,-137.49C505.47,-128.12 435.19,-113.71 374.5,-98 367.64,-96.22 360.43,-94.18 353.52,-92.1"/>
<polygon fill="midnightblue" stroke="midnightblue" points="555.41,-140.98 565.88,-139.35 556.68,-134.09 555.41,-140.98"/>
</g>
<!-- Node10 -->
<g id="node7" class="node">
<title>Node10</title>
<g id="a_node7"><a xlink:href="_____i_n_t__0__1_____8h.html" target="_top" xlink:title="Header file for INT_0_1.c.">
<polygon fill="white" stroke="red" points="393,-62 393,-92 506,-92 506,-62 393,-62"/>
<text text-anchor="start" x="401" y="-80" font-family="Helvetica,sans-Serif" font-size="10.00">swarm_bot_cpp/src/</text>
<text text-anchor="middle" x="449.5" y="-69" font-family="Helvetica,sans-Serif" font-size="10.00">__INT_0_1__.h</text>
</a>
</g>
</g>
<!-- Node3&#45;&gt;Node10 -->
<g id="edge10" class="edge">
<title>Node3&#45;&gt;Node10</title>
<path fill="none" stroke="midnightblue" d="M572.75,-130.65C542.21,-118.69 504.25,-103.16 478.51,-92.07"/>
<polygon fill="midnightblue" stroke="midnightblue" points="571.79,-134.04 582.38,-134.4 574.33,-127.51 571.79,-134.04"/>
</g>
<!-- Node12 -->
<g id="node8" class="node">
<title>Node12</title>
<g id="a_node8"><a xlink:href="____kinematics_____8h.html" target="_top" xlink:title="Header file for kimenatics.c.">
<polygon fill="white" stroke="red" points="524,-62 524,-92 637,-92 637,-62 524,-62"/>
<text text-anchor="start" x="532" y="-80" font-family="Helvetica,sans-Serif" font-size="10.00">swarm_bot_cpp/src/</text>
<text text-anchor="middle" x="580.5" y="-69" font-family="Helvetica,sans-Serif" font-size="10.00">__kinematics__.h</text>
</a>
</g>
</g>
<!-- Node3&#45;&gt;Node12 -->
<g id="edge12" class="edge">
<title>Node3&#45;&gt;Node12</title>
<path fill="none" stroke="midnightblue" d="M608.83,-125.56C602.3,-114.59 594.68,-101.8 588.99,-92.25"/>
<polygon fill="midnightblue" stroke="midnightblue" points="605.88,-127.43 614,-134.23 611.89,-123.85 605.88,-127.43"/>
</g>
<!-- Node14 -->
<g id="node9" class="node">
<title>Node14</title>
<g id="a_node9"><a xlink:href=".html" target="_top" xlink:title=" ">
<polygon fill="white" stroke="black" points="549.5,-0.5 549.5,-19.5 695.5,-19.5 695.5,-0.5 549.5,-0.5"/>
<text text-anchor="middle" x="622.5" y="-7.5" font-family="Helvetica,sans-Serif" font-size="10.00">swarm_bot_cpp/src/main.c</text>
</a>
</g>
</g>
<!-- Node3&#45;&gt;Node14 -->
<g id="edge24" class="edge">
<title>Node3&#45;&gt;Node14</title>
<path fill="none" stroke="midnightblue" d="M635.54,-125.38C639.56,-117.02 643.47,-107.34 645.5,-98 649.46,-79.76 649.87,-74.15 645.5,-56 642.26,-42.52 634.25,-28.54 628.6,-19.81"/>
<polygon fill="midnightblue" stroke="midnightblue" points="632.32,-123.99 630.86,-134.48 638.54,-127.19 632.32,-123.99"/>
</g>
<!-- Node15 -->
<g id="node10" class="node">
<title>Node15</title>
<g id="a_node10"><a xlink:href="____odometry_____8h.html" target="_top" xlink:title="Header file for odometry.c.">
<polygon fill="white" stroke="red" points="694,-62 694,-92 807,-92 807,-62 694,-62"/>
<text text-anchor="start" x="702" y="-80" font-family="Helvetica,sans-Serif" font-size="10.00">swarm_bot_cpp/src/</text>
<text text-anchor="middle" x="750.5" y="-69" font-family="Helvetica,sans-Serif" font-size="10.00">__odometry__.h</text>
</a>
</g>
</g>
<!-- Node3&#45;&gt;Node15 -->
<g id="edge14" class="edge">
<title>Node3&#45;&gt;Node15</title>
<path fill="none" stroke="midnightblue" d="M651.38,-129.24C671.67,-117.49 698.66,-102.73 719.43,-92.07"/>
<polygon fill="midnightblue" stroke="midnightblue" points="649.43,-126.33 642.57,-134.4 652.97,-132.37 649.43,-126.33"/>
</g>
<!-- Node17 -->
<g id="node11" class="node">
<title>Node17</title>
<g id="a_node11"><a xlink:href="____pwm_____8h.html" target="_top" xlink:title="Header file for pwm.c.">
<polygon fill="white" stroke="red" points="825,-62 825,-92 938,-92 938,-62 825,-62"/>
<text text-anchor="start" x="833" y="-80" font-family="Helvetica,sans-Serif" font-size="10.00">swarm_bot_cpp/src/</text>
<text text-anchor="middle" x="881.5" y="-69" font-family="Helvetica,sans-Serif" font-size="10.00">__pwm__.h</text>
</a>
</g>
</g>
<!-- Node3&#45;&gt;Node17 -->
<g id="edge16" class="edge">
<title>Node3&#45;&gt;Node17</title>
<path fill="none" stroke="midnightblue" d="M680.72,-131.86C716.98,-122.3 764.45,-109.87 806.5,-98 813.18,-96.11 820.23,-94.06 827.23,-92"/>
<polygon fill="midnightblue" stroke="midnightblue" points="679.58,-128.54 670.8,-134.48 681.37,-135.31 679.58,-128.54"/>
</g>
<!-- Node19 -->
<g id="node12" class="node">
<title>Node19</title>
<g id="a_node12"><a xlink:href="____timer0_____8h.html" target="_top" xlink:title="Header file for timer0.c.">
<polygon fill="white" stroke="red" points="956,-62 956,-92 1069,-92 1069,-62 956,-62"/>
<text text-anchor="start" x="964" y="-80" font-family="Helvetica,sans-Serif" font-size="10.00">swarm_bot_cpp/src/</text>
<text text-anchor="middle" x="1012.5" y="-69" font-family="Helvetica,sans-Serif" font-size="10.00">__timer0__.h</text>
</a>
</g>
</g>
<!-- Node3&#45;&gt;Node19 -->
<g id="edge18" class="edge">
<title>Node3&#45;&gt;Node19</title>
<path fill="none" stroke="midnightblue" d="M689.25,-139.98C753.36,-131.65 852.55,-117.39 937.5,-98 944.85,-96.32 952.59,-94.26 960.2,-92.1"/>
<polygon fill="midnightblue" stroke="midnightblue" points="688.74,-136.51 679.27,-141.26 689.63,-143.46 688.74,-136.51"/>
</g>
<!-- Node21 -->
<g id="node13" class="node">
<title>Node21</title>
<g id="a_node13"><a xlink:href="____timer2_____8h.html" target="_top" xlink:title="Header file for timer2.c.">
<polygon fill="white" stroke="red" points="1087,-62 1087,-92 1200,-92 1200,-62 1087,-62"/>
<text text-anchor="start" x="1095" y="-80" font-family="Helvetica,sans-Serif" font-size="10.00">swarm_bot_cpp/src/</text>
<text text-anchor="middle" x="1143.5" y="-69" font-family="Helvetica,sans-Serif" font-size="10.00">__timer2__.h</text>
</a>
</g>
</g>
<!-- Node3&#45;&gt;Node21 -->
<g id="edge21" class="edge">
<title>Node3&#45;&gt;Node21</title>
<path fill="none" stroke="midnightblue" d="M689.16,-144.66C777.07,-138.93 935.96,-125.68 1069.5,-98 1077.13,-96.42 1085.15,-94.32 1093,-92.08"/>
<polygon fill="midnightblue" stroke="midnightblue" points="688.82,-141.18 679.06,-145.31 689.27,-148.16 688.82,-141.18"/>
</g>
<!-- Node23 -->
<g id="node14" class="node">
<title>Node23</title>
<g id="a_node14"><a xlink:href="init_8c.html" target="_top" xlink:title="User board initialization template.">
<polygon fill="white" stroke="black" points="1218,-56.5 1218,-97.5 1373,-97.5 1373,-56.5 1218,-56.5"/>
<text text-anchor="start" x="1226" y="-85.5" font-family="Helvetica,sans-Serif" font-size="10.00">swarm_bot_cpp/src/ASF</text>
<text text-anchor="start" x="1226" y="-74.5" font-family="Helvetica,sans-Serif" font-size="10.00">/common/boards/user_board</text>
<text text-anchor="middle" x="1295.5" y="-63.5" font-family="Helvetica,sans-Serif" font-size="10.00">/init.c</text>
</a>
</g>
</g>
<!-- Node3&#45;&gt;Node23 -->
<g id="edge23" class="edge">
<title>Node3&#45;&gt;Node23</title>
<path fill="none" stroke="midnightblue" d="M689.3,-145.86C798.62,-140.84 1022.33,-127.66 1209.5,-98 1212.23,-97.57 1214.99,-97.1 1217.78,-96.6"/>
<polygon fill="midnightblue" stroke="midnightblue" points="688.91,-142.37 679.08,-146.32 689.23,-149.36 688.91,-142.37"/>
</g>
<!-- Node4&#45;&gt;Node2 -->
<g id="edge4" class="edge">
<title>Node4&#45;&gt;Node2</title>
<path fill="none" stroke="midnightblue" d="M111.8,-95.09C115.08,-96.08 118.33,-97.06 121.5,-98 250.12,-136.35 402.2,-179.74 478.92,-201.49"/>
<polygon fill="midnightblue" stroke="midnightblue" points="112.51,-91.65 101.93,-92.09 110.48,-98.34 112.51,-91.65"/>
</g>
<!-- Node4&#45;&gt;Node3 -->
<g id="edge5" class="edge">
<title>Node4&#45;&gt;Node3</title>
<path fill="none" stroke="midnightblue" d="M116.39,-94.71C121.15,-95.94 125.9,-97.07 130.5,-98 286.45,-129.53 473.88,-141.75 565.97,-146.18"/>
<polygon fill="midnightblue" stroke="midnightblue" points="117.2,-91.3 106.63,-92.04 115.36,-98.06 117.2,-91.3"/>
</g>
<!-- Node6&#45;&gt;Node3 -->
<g id="edge7" class="edge">
<title>Node6&#45;&gt;Node3</title>
<path fill="none" stroke="midnightblue" d="M248.22,-94.75C252.71,-95.94 257.17,-97.04 261.5,-98 368.02,-121.49 494.34,-135.92 565.88,-143.05"/>
<polygon fill="midnightblue" stroke="midnightblue" points="248.97,-91.32 238.39,-92.03 247.1,-98.07 248.97,-91.32"/>
</g>
<!-- Node8&#45;&gt;Node3 -->
<g id="edge9" class="edge">
<title>Node8&#45;&gt;Node3</title>
<path fill="none" stroke="midnightblue" d="M381,-94.88C384.89,-95.98 388.75,-97.03 392.5,-98 451.21,-113.2 518.9,-127.18 565.66,-136.55"/>
<polygon fill="midnightblue" stroke="midnightblue" points="381.86,-91.49 371.29,-92.1 379.93,-98.22 381.86,-91.49"/>
</g>
<!-- Node10&#45;&gt;Node3 -->
<g id="edge11" class="edge">
<title>Node10&#45;&gt;Node3</title>
<path fill="none" stroke="midnightblue" d="M499.18,-95.82C529.71,-107.78 567.68,-123.31 593.43,-134.4"/>
<polygon fill="midnightblue" stroke="midnightblue" points="500.14,-92.44 489.56,-92.07 497.61,-98.96 500.14,-92.44"/>
</g>
<!-- Node12&#45;&gt;Node14 -->
<g id="edge13" class="edge">
<title>Node12&#45;&gt;Node14</title>
<path fill="none" stroke="midnightblue" d="M595.05,-53.47C602.58,-41.83 611.32,-28.3 616.88,-19.69"/>
<polygon fill="midnightblue" stroke="midnightblue" points="592.1,-51.6 589.61,-61.9 597.98,-55.4 592.1,-51.6"/>
</g>
<!-- Node15&#45;&gt;Node3 -->
<g id="edge15" class="edge">
<title>Node15&#45;&gt;Node3</title>
<path fill="none" stroke="midnightblue" d="M721.67,-97.23C701.38,-108.98 674.4,-123.74 653.62,-134.4"/>
<polygon fill="midnightblue" stroke="midnightblue" points="723.61,-100.15 730.47,-92.07 720.08,-94.11 723.61,-100.15"/>
</g>
<!-- Node17&#45;&gt;Node3 -->
<g id="edge17" class="edge">
<title>Node17&#45;&gt;Node3</title>
<path fill="none" stroke="midnightblue" d="M835.36,-94.87C831.7,-95.95 828.05,-97 824.5,-98 775.83,-111.74 719.9,-126.23 679.15,-136.15"/>
<polygon fill="midnightblue" stroke="midnightblue" points="836.43,-98.21 845.02,-92 834.43,-91.5 836.43,-98.21"/>
</g>
<!-- Node19&#45;&gt;Node3 -->
<g id="edge19" class="edge">
<title>Node19&#45;&gt;Node3</title>
<path fill="none" stroke="midnightblue" d="M968.13,-94.85C963.89,-95.99 959.64,-97.06 955.5,-98 859.76,-119.85 745.93,-135.19 679.11,-142.86"/>
<polygon fill="midnightblue" stroke="midnightblue" points="969.25,-98.18 977.93,-92.1 967.35,-91.44 969.25,-98.18"/>
</g>
<!-- Node21&#45;&gt;Node3 -->
<g id="edge22" class="edge">
<title>Node21&#45;&gt;Node3</title>
<path fill="none" stroke="midnightblue" d="M1100.95,-94.81C1096.45,-96 1091.91,-97.09 1087.5,-98 942.43,-128.07 767.45,-141.1 679.15,-145.98"/>
<polygon fill="midnightblue" stroke="midnightblue" points="1102,-98.15 1110.69,-92.08 1100.11,-91.41 1102,-98.15"/>
</g>
</g>
</svg>
