<?xml version="1.0" encoding="UTF-8" standalone="no"?>
<!DOCTYPE svg PUBLIC "-//W3C//DTD SVG 1.1//EN"
 "http://www.w3.org/Graphics/SVG/1.1/DTD/svg11.dtd">
<!-- Generated by graphviz version 2.43.0 (0)
 -->
<!-- Title: swarm_bot_cpp/src/__format__.c Pages: 1 -->
<svg width="1339pt" height="319pt"
 viewBox="0.00 0.00 1338.94 319.00" xmlns="http://www.w3.org/2000/svg" xmlns:xlink="http://www.w3.org/1999/xlink">
<g id="graph0" class="graph" transform="scale(1 1) rotate(0) translate(4 315)">
<title>swarm_bot_cpp/src/__format__.c</title>
<polygon fill="white" stroke="transparent" points="-4,4 -4,-315 1334.94,-315 1334.94,4 -4,4"/>
<!-- Node1 -->
<g id="node1" class="node">
<title>Node1</title>
<g id="a_node1"><a xlink:title="Header file for format.c.">
<polygon fill="#bfbfbf" stroke="black" points="594.94,-280.5 594.94,-310.5 707.94,-310.5 707.94,-280.5 594.94,-280.5"/>
<text text-anchor="start" x="602.94" y="-298.5" font-family="Helvetica,sans-Serif" font-size="10.00">swarm_bot_cpp/src/</text>
<text text-anchor="middle" x="651.44" y="-287.5" font-family="Helvetica,sans-Serif" font-size="10.00">__format__.c</text>
</a>
</g>
</g>
<!-- Node2 -->
<g id="node2" class="node">
<title>Node2</title>
<g id="a_node2"><a xlink:href="____format_____8h.html" target="_top" xlink:title="Header file for format.c.">
<polygon fill="white" stroke="black" points="611.44,-224.5 611.44,-243.5 691.44,-243.5 691.44,-224.5 611.44,-224.5"/>
<text text-anchor="middle" x="651.44" y="-231.5" font-family="Helvetica,sans-Serif" font-size="10.00">__format__.h</text>
</a>
</g>
</g>
<!-- Node1&#45;&gt;Node2 -->
<g id="edge1" class="edge">
<title>Node1&#45;&gt;Node2</title>
<path fill="none" stroke="midnightblue" d="M651.44,-280.4C651.44,-272.47 651.44,-262.46 651.44,-253.86"/>
<polygon fill="midnightblue" stroke="midnightblue" points="654.94,-253.66 651.44,-243.66 647.94,-253.66 654.94,-253.66"/>
</g>
<!-- Node3 -->
<g id="node3" class="node">
<title>Node3</title>
<g id="a_node3"><a xlink:href="____swarm__wold_____8h.html" target="_top" xlink:title="Header file for dummy purposes.">
<polygon fill="white" stroke="black" points="597.44,-168.5 597.44,-187.5 705.44,-187.5 705.44,-168.5 597.44,-168.5"/>
<text text-anchor="middle" x="651.44" y="-175.5" font-family="Helvetica,sans-Serif" font-size="10.00">__swarm_wold__.h</text>
</a>
</g>
</g>
<!-- Node2&#45;&gt;Node3 -->
<g id="edge2" class="edge">
<title>Node2&#45;&gt;Node3</title>
<path fill="none" stroke="midnightblue" d="M646.27,-224.08C644.76,-216.93 644.33,-206.64 644.98,-197.69"/>
<polygon fill="midnightblue" stroke="midnightblue" points="648.45,-198.13 646.31,-187.75 641.51,-197.2 648.45,-198.13"/>
</g>
<!-- Node3&#45;&gt;Node2 -->
<g id="edge46" class="edge">
<title>Node3&#45;&gt;Node2</title>
<path fill="none" stroke="midnightblue" d="M656.57,-187.75C658.09,-194.86 658.54,-205.14 657.91,-214.1"/>
<polygon fill="midnightblue" stroke="midnightblue" points="654.43,-213.71 656.6,-224.08 661.37,-214.62 654.43,-213.71"/>
</g>
<!-- Node4 -->
<g id="node4" class="node">
<title>Node4</title>
<g id="a_node4"><a xlink:title=" ">
<polygon fill="white" stroke="#bfbfbf" points="16.44,-56.5 16.44,-75.5 66.44,-75.5 66.44,-56.5 16.44,-56.5"/>
<text text-anchor="middle" x="41.44" y="-63.5" font-family="Helvetica,sans-Serif" font-size="10.00">stdio.h</text>
</a>
</g>
</g>
<!-- Node3&#45;&gt;Node4 -->
<g id="edge3" class="edge">
<title>Node3&#45;&gt;Node4</title>
<path fill="none" stroke="midnightblue" d="M597.29,-175.33C484.69,-171.34 228.9,-159.47 146.44,-132 113.13,-120.9 79.46,-97.4 59.53,-81.91"/>
<polygon fill="midnightblue" stroke="midnightblue" points="61.64,-79.11 51.63,-75.63 57.28,-84.59 61.64,-79.11"/>
</g>
<!-- Node5 -->
<g id="node5" class="node">
<title>Node5</title>
<g id="a_node5"><a xlink:href="asf_8h.html" target="_top" xlink:title="Autogenerated API include file for the Atmel Software Framework (ASF)">
<polygon fill="white" stroke="red" points="122.44,-56.5 122.44,-75.5 162.44,-75.5 162.44,-56.5 122.44,-56.5"/>
<text text-anchor="middle" x="142.44" y="-63.5" font-family="Helvetica,sans-Serif" font-size="10.00">asf.h</text>
</a>
</g>
</g>
<!-- Node3&#45;&gt;Node5 -->
<g id="edge4" class="edge">
<title>Node3&#45;&gt;Node5</title>
<path fill="none" stroke="midnightblue" d="M597.27,-175.33C477.21,-171.16 196.73,-158.65 163.44,-132 149.71,-121.01 144.84,-100.96 143.17,-86.02"/>
<polygon fill="midnightblue" stroke="midnightblue" points="146.65,-85.55 142.43,-75.83 139.67,-86.06 146.65,-85.55"/>
</g>
<!-- Node8 -->
<g id="node6" class="node">
<title>Node8</title>
<g id="a_node6"><a xlink:href="board_8h.html" target="_top" xlink:title="Standard board header file.">
<polygon fill="white" stroke="red" points="91.94,-0.5 91.94,-19.5 144.94,-19.5 144.94,-0.5 91.94,-0.5"/>
<text text-anchor="middle" x="118.44" y="-7.5" font-family="Helvetica,sans-Serif" font-size="10.00">board.h</text>
</a>
</g>
</g>
<!-- Node3&#45;&gt;Node8 -->
<g id="edge8" class="edge">
<title>Node3&#45;&gt;Node8</title>
<path fill="none" stroke="midnightblue" d="M596.99,-175.71C476.71,-172.35 191.79,-161.44 100.44,-132 49.63,-115.63 -22.39,-100.27 7.44,-56 23.88,-31.6 56.06,-20.42 81.55,-15.31"/>
<polygon fill="midnightblue" stroke="midnightblue" points="82.41,-18.71 91.65,-13.52 81.19,-11.82 82.41,-18.71"/>
</g>
<!-- Node18 -->
<g id="node7" class="node">
<title>Node18</title>
<g id="a_node7"><a xlink:title=" ">
<polygon fill="white" stroke="#bfbfbf" points="404.94,-56.5 404.94,-75.5 457.94,-75.5 457.94,-56.5 404.94,-56.5"/>
<text text-anchor="middle" x="431.44" y="-63.5" font-family="Helvetica,sans-Serif" font-size="10.00">avr/io.h</text>
</a>
</g>
</g>
<!-- Node3&#45;&gt;Node18 -->
<g id="edge6" class="edge">
<title>Node3&#45;&gt;Node18</title>
<path fill="none" stroke="midnightblue" d="M626.68,-168.49C603.43,-160.19 567.92,-146.7 538.44,-132 507.43,-116.54 473.55,-95.13 452.4,-81.18"/>
<polygon fill="midnightblue" stroke="midnightblue" points="454.16,-78.14 443.89,-75.51 450.28,-83.97 454.16,-78.14"/>
</g>
<!-- Node19 -->
<g id="node8" class="node">
<title>Node19</title>
<g id="a_node8"><a xlink:title=" ">
<polygon fill="white" stroke="#bfbfbf" points="476.44,-56.5 476.44,-75.5 562.44,-75.5 562.44,-56.5 476.44,-56.5"/>
<text text-anchor="middle" x="519.44" y="-63.5" font-family="Helvetica,sans-Serif" font-size="10.00">avr/interrupt.h</text>
</a>
</g>
</g>
<!-- Node3&#45;&gt;Node19 -->
<g id="edge7" class="edge">
<title>Node3&#45;&gt;Node19</title>
<path fill="none" stroke="midnightblue" d="M623.72,-168.4C603.79,-161.15 577.24,-149.18 558.44,-132 544.05,-118.85 533.26,-99.17 526.72,-84.91"/>
<polygon fill="midnightblue" stroke="midnightblue" points="529.9,-83.44 522.71,-75.66 523.47,-86.22 529.9,-83.44"/>
</g>
<!-- Node7 -->
<g id="node9" class="node">
<title>Node7</title>
<g id="a_node9"><a xlink:href="conf__board_8h.html" target="_top" xlink:title="User board configuration template.">
<polygon fill="white" stroke="black" points="180.44,-56.5 180.44,-75.5 260.44,-75.5 260.44,-56.5 180.44,-56.5"/>
<text text-anchor="middle" x="220.44" y="-63.5" font-family="Helvetica,sans-Serif" font-size="10.00">conf_board.h</text>
</a>
</g>
</g>
<!-- Node3&#45;&gt;Node7 -->
<g id="edge9" class="edge">
<title>Node3&#45;&gt;Node7</title>
<path fill="none" stroke="midnightblue" d="M597.36,-177.26C529.55,-175.92 410.74,-167.97 316.44,-132 286.21,-120.47 256.1,-97.8 237.88,-82.52"/>
<polygon fill="midnightblue" stroke="midnightblue" points="239.8,-79.56 229.93,-75.7 235.24,-84.87 239.8,-79.56"/>
</g>
<!-- Node20 -->
<g id="node10" class="node">
<title>Node20</title>
<g id="a_node10"><a xlink:title=" ">
<polygon fill="white" stroke="#bfbfbf" points="278.44,-56.5 278.44,-75.5 348.44,-75.5 348.44,-56.5 278.44,-56.5"/>
<text text-anchor="middle" x="313.44" y="-63.5" font-family="Helvetica,sans-Serif" font-size="10.00">util/delay.h</text>
</a>
</g>
</g>
<!-- Node3&#45;&gt;Node20 -->
<g id="edge10" class="edge">
<title>Node3&#45;&gt;Node20</title>
<path fill="none" stroke="midnightblue" d="M597.19,-176.26C516.72,-174.04 371.03,-165.39 332.44,-132 319.26,-120.6 314.97,-100.61 313.7,-85.8"/>
<polygon fill="midnightblue" stroke="midnightblue" points="317.19,-85.53 313.21,-75.71 310.2,-85.87 317.19,-85.53"/>
</g>
<!-- Node11 -->
<g id="node11" class="node">
<title>Node11</title>
<g id="a_node11"><a xlink:title=" ">
<polygon fill="white" stroke="#bfbfbf" points="759.94,-56.5 759.94,-75.5 812.94,-75.5 812.94,-56.5 759.94,-56.5"/>
<text text-anchor="middle" x="786.44" y="-63.5" font-family="Helvetica,sans-Serif" font-size="10.00">stdint.h</text>
</a>
</g>
</g>
<!-- Node3&#45;&gt;Node11 -->
<g id="edge11" class="edge">
<title>Node3&#45;&gt;Node11</title>
<path fill="none" stroke="midnightblue" d="M660.63,-168.28C674.22,-155.51 700.64,-131.15 724.44,-112 737.78,-101.26 753.38,-89.94 765.6,-81.34"/>
<polygon fill="midnightblue" stroke="midnightblue" points="767.62,-84.2 773.81,-75.61 763.61,-78.46 767.62,-84.2"/>
</g>
<!-- Node21 -->
<g id="node12" class="node">
<title>Node21</title>
<g id="a_node12"><a xlink:href="____adc_____8h.html" target="_top" xlink:title="Header file for adc.c.">
<polygon fill="white" stroke="black" points="580.44,-56.5 580.44,-75.5 644.44,-75.5 644.44,-56.5 580.44,-56.5"/>
<text text-anchor="middle" x="612.44" y="-63.5" font-family="Helvetica,sans-Serif" font-size="10.00">__adc__.h</text>
</a>
</g>
</g>
<!-- Node3&#45;&gt;Node21 -->
<g id="edge12" class="edge">
<title>Node3&#45;&gt;Node21</title>
<path fill="none" stroke="midnightblue" d="M609.4,-168.49C589.44,-161.88 567.69,-150.6 556.44,-132 545.3,-113.61 564.68,-93.77 583.8,-80.91"/>
<polygon fill="midnightblue" stroke="midnightblue" points="585.82,-83.78 592.46,-75.52 582.12,-77.83 585.82,-83.78"/>
</g>
<!-- Node22 -->
<g id="node13" class="node">
<title>Node22</title>
<g id="a_node13"><a xlink:href="_____i_n_t__0__1_____8h.html" target="_top" xlink:title="Header file for INT_0_1.c.">
<polygon fill="white" stroke="black" points="733.44,-112.5 733.44,-131.5 819.44,-131.5 819.44,-112.5 733.44,-112.5"/>
<text text-anchor="middle" x="776.44" y="-119.5" font-family="Helvetica,sans-Serif" font-size="10.00">__INT_0_1__.h</text>
</a>
</g>
</g>
<!-- Node3&#45;&gt;Node22 -->
<g id="edge14" class="edge">
<title>Node3&#45;&gt;Node22</title>
<path fill="none" stroke="midnightblue" d="M666.15,-168.44C684.86,-159.52 717.22,-145.44 742.15,-135.32"/>
<polygon fill="midnightblue" stroke="midnightblue" points="743.66,-138.48 751.64,-131.52 741.06,-131.99 743.66,-138.48"/>
</g>
<!-- Node23 -->
<g id="node14" class="node">
<title>Node23</title>
<g id="a_node14"><a xlink:href=".html" target="_top" xlink:title=" ">
<polygon fill="white" stroke="black" points="341.44,-112.5 341.44,-131.5 419.44,-131.5 419.44,-112.5 341.44,-112.5"/>
<text text-anchor="middle" x="380.44" y="-119.5" font-family="Helvetica,sans-Serif" font-size="10.00">__pin_map.h</text>
</a>
</g>
</g>
<!-- Node3&#45;&gt;Node23 -->
<g id="edge16" class="edge">
<title>Node3&#45;&gt;Node23</title>
<path fill="none" stroke="midnightblue" d="M608.5,-168.44C559.8,-158.74 480.57,-142.95 429.48,-132.77"/>
<polygon fill="midnightblue" stroke="midnightblue" points="430.15,-129.34 419.66,-130.82 428.78,-136.2 430.15,-129.34"/>
</g>
<!-- Node24 -->
<g id="node15" class="node">
<title>Node24</title>
<g id="a_node15"><a xlink:href="____timer1_____8h.html" target="_top" xlink:title="Header file for timer1.c.">
<polygon fill="white" stroke="black" points="662.94,-56.5 662.94,-75.5 741.94,-75.5 741.94,-56.5 662.94,-56.5"/>
<text text-anchor="middle" x="702.44" y="-63.5" font-family="Helvetica,sans-Serif" font-size="10.00">__timer1__.h</text>
</a>
</g>
</g>
<!-- Node3&#45;&gt;Node24 -->
<g id="edge29" class="edge">
<title>Node3&#45;&gt;Node24</title>
<path fill="none" stroke="midnightblue" d="M634.98,-168.43C617.65,-155.85 595.49,-131.74 607.44,-112 617.3,-95.7 635.23,-85.02 652.95,-78.18"/>
<polygon fill="midnightblue" stroke="midnightblue" points="654.43,-81.37 662.72,-74.76 652.12,-74.76 654.43,-81.37"/>
</g>
<!-- Node25 -->
<g id="node16" class="node">
<title>Node25</title>
<g id="a_node16"><a xlink:href="____timer0_____8h.html" target="_top" xlink:title="Header file for timer0.c.">
<polygon fill="white" stroke="black" points="837.94,-112.5 837.94,-131.5 916.94,-131.5 916.94,-112.5 837.94,-112.5"/>
<text text-anchor="middle" x="877.44" y="-119.5" font-family="Helvetica,sans-Serif" font-size="10.00">__timer0__.h</text>
</a>
</g>
</g>
<!-- Node3&#45;&gt;Node25 -->
<g id="edge27" class="edge">
<title>Node3&#45;&gt;Node25</title>
<path fill="none" stroke="midnightblue" d="M682.16,-168.44C719.69,-158.98 783.4,-143.73 827.86,-133.54"/>
<polygon fill="midnightblue" stroke="midnightblue" points="828.91,-136.89 837.88,-131.25 827.36,-130.06 828.91,-136.89"/>
</g>
<!-- Node26 -->
<g id="node17" class="node">
<title>Node26</title>
<g id="a_node17"><a xlink:href="____timer2_____8h.html" target="_top" xlink:title="Header file for timer2.c.">
<polygon fill="white" stroke="black" points="934.94,-112.5 934.94,-131.5 1013.94,-131.5 1013.94,-112.5 934.94,-112.5"/>
<text text-anchor="middle" x="974.44" y="-119.5" font-family="Helvetica,sans-Serif" font-size="10.00">__timer2__.h</text>
</a>
</g>
</g>
<!-- Node3&#45;&gt;Node26 -->
<g id="edge30" class="edge">
<title>Node3&#45;&gt;Node26</title>
<path fill="none" stroke="midnightblue" d="M698.98,-168.49C752.28,-159.7 840.96,-145.43 917.44,-132 919.88,-131.57 922.4,-131.12 924.95,-130.66"/>
<polygon fill="midnightblue" stroke="midnightblue" points="925.67,-134.09 934.89,-128.87 924.43,-127.2 925.67,-134.09"/>
</g>
<!-- Node27 -->
<g id="node18" class="node">
<title>Node27</title>
<g id="a_node18"><a xlink:href="____usart_____8h.html" target="_top" xlink:title="Header file for pid.c.">
<polygon fill="white" stroke="black" points="172.94,-112.5 172.94,-131.5 243.94,-131.5 243.94,-112.5 172.94,-112.5"/>
<text text-anchor="middle" x="208.44" y="-119.5" font-family="Helvetica,sans-Serif" font-size="10.00">__usart__.h</text>
</a>
</g>
</g>
<!-- Node3&#45;&gt;Node27 -->
<g id="edge32" class="edge">
<title>Node3&#45;&gt;Node27</title>
<path fill="none" stroke="midnightblue" d="M597.23,-171.74C521.63,-164.19 380.32,-149.26 260.44,-132 258.38,-131.7 256.28,-131.39 254.17,-131.06"/>
<polygon fill="midnightblue" stroke="midnightblue" points="254.63,-127.59 244.2,-129.46 253.52,-134.5 254.63,-127.59"/>
</g>
<!-- Node28 -->
<g id="node19" class="node">
<title>Node28</title>
<g id="a_node19"><a xlink:href="____dc__control_____8h.html" target="_top" xlink:title="Header file for dc_control.c.">
<polygon fill="white" stroke="black" points="1031.94,-112.5 1031.94,-131.5 1128.94,-131.5 1128.94,-112.5 1031.94,-112.5"/>
<text text-anchor="middle" x="1080.44" y="-119.5" font-family="Helvetica,sans-Serif" font-size="10.00">__dc_control__.h</text>
</a>
</g>
</g>
<!-- Node3&#45;&gt;Node28 -->
<g id="edge38" class="edge">
<title>Node3&#45;&gt;Node28</title>
<path fill="none" stroke="midnightblue" d="M705.73,-170.35C776.8,-162.1 904.9,-147.27 1014.44,-132 1016.78,-131.67 1019.18,-131.33 1021.6,-130.98"/>
<polygon fill="midnightblue" stroke="midnightblue" points="1022.32,-134.41 1031.69,-129.48 1021.29,-127.49 1022.32,-134.41"/>
</g>
<!-- Node29 -->
<g id="node20" class="node">
<title>Node29</title>
<g id="a_node20"><a xlink:href="____odometry_____8h.html" target="_top" xlink:title="Header file for odometry.c.">
<polygon fill="white" stroke="black" points="1147.44,-112.5 1147.44,-131.5 1241.44,-131.5 1241.44,-112.5 1147.44,-112.5"/>
<text text-anchor="middle" x="1194.44" y="-119.5" font-family="Helvetica,sans-Serif" font-size="10.00">__odometry__.h</text>
</a>
</g>
</g>
<!-- Node3&#45;&gt;Node29 -->
<g id="edge40" class="edge">
<title>Node3&#45;&gt;Node29</title>
<path fill="none" stroke="midnightblue" d="M705.79,-172.75C794.66,-165.95 976.12,-151.38 1129.44,-132 1132.05,-131.67 1134.72,-131.31 1137.44,-130.93"/>
<polygon fill="midnightblue" stroke="midnightblue" points="1137.95,-134.39 1147.34,-129.49 1136.94,-127.47 1137.95,-134.39"/>
</g>
<!-- Node30 -->
<g id="node21" class="node">
<title>Node30</title>
<g id="a_node21"><a xlink:href="____pwm_____8h.html" target="_top" xlink:title="Header file for pwm.c.">
<polygon fill="white" stroke="black" points="1259.94,-112.5 1259.94,-131.5 1330.94,-131.5 1330.94,-112.5 1259.94,-112.5"/>
<text text-anchor="middle" x="1295.44" y="-119.5" font-family="Helvetica,sans-Serif" font-size="10.00">__pwm__.h</text>
</a>
</g>
</g>
<!-- Node3&#45;&gt;Node30 -->
<g id="edge42" class="edge">
<title>Node3&#45;&gt;Node30</title>
<path fill="none" stroke="midnightblue" d="M705.47,-174.95C809.64,-170.69 1044.87,-158.94 1241.44,-132 1244.08,-131.64 1246.81,-131.22 1249.57,-130.76"/>
<polygon fill="midnightblue" stroke="midnightblue" points="1250.39,-134.16 1259.62,-128.96 1249.16,-127.27 1250.39,-134.16"/>
</g>
<!-- Node31 -->
<g id="node22" class="node">
<title>Node31</title>
<g id="a_node22"><a xlink:href="__pid___8h.html" target="_top" xlink:title="Header file for pid.c.">
<polygon fill="white" stroke="black" points="625.94,-112.5 625.94,-131.5 676.94,-131.5 676.94,-112.5 625.94,-112.5"/>
<text text-anchor="middle" x="651.44" y="-119.5" font-family="Helvetica,sans-Serif" font-size="10.00">_pid_.h</text>
</a>
</g>
</g>
<!-- Node3&#45;&gt;Node31 -->
<g id="edge44" class="edge">
<title>Node3&#45;&gt;Node31</title>
<path fill="none" stroke="midnightblue" d="M651.44,-168.08C651.44,-161.01 651.44,-150.86 651.44,-141.99"/>
<polygon fill="midnightblue" stroke="midnightblue" points="654.94,-141.75 651.44,-131.75 647.94,-141.75 654.94,-141.75"/>
</g>
<!-- Node5&#45;&gt;Node8 -->
<g id="edge5" class="edge">
<title>Node5&#45;&gt;Node8</title>
<path fill="none" stroke="midnightblue" d="M138.47,-56.08C135.22,-48.77 130.52,-38.18 126.48,-29.1"/>
<polygon fill="midnightblue" stroke="midnightblue" points="129.59,-27.47 122.33,-19.75 123.19,-30.31 129.59,-27.47"/>
</g>
<!-- Node21&#45;&gt;Node3 -->
<g id="edge13" class="edge">
<title>Node21&#45;&gt;Node3</title>
<path fill="none" stroke="midnightblue" d="M604.4,-75.52C589.34,-87.65 561.6,-110.8 574.44,-132 583.76,-147.4 600.28,-157.78 615.71,-164.65"/>
<polygon fill="midnightblue" stroke="midnightblue" points="614.52,-167.95 625.1,-168.49 617.17,-161.47 614.52,-167.95"/>
</g>
<!-- Node22&#45;&gt;Node3 -->
<g id="edge15" class="edge">
<title>Node22&#45;&gt;Node3</title>
<path fill="none" stroke="midnightblue" d="M761.8,-131.52C743.14,-140.43 710.79,-154.5 685.83,-164.64"/>
<polygon fill="midnightblue" stroke="midnightblue" points="684.31,-161.48 676.33,-168.44 686.92,-167.97 684.31,-161.48"/>
</g>
<!-- Node23&#45;&gt;Node4 -->
<g id="edge17" class="edge">
<title>Node23&#45;&gt;Node4</title>
<path fill="none" stroke="midnightblue" d="M341.22,-114.75C274.68,-104.15 140.71,-82.81 76.85,-72.64"/>
<polygon fill="midnightblue" stroke="midnightblue" points="77.29,-69.17 66.86,-71.05 76.19,-76.08 77.29,-69.17"/>
</g>
<!-- Node23&#45;&gt;Node5 -->
<g id="edge18" class="edge">
<title>Node23&#45;&gt;Node5</title>
<path fill="none" stroke="midnightblue" d="M341.29,-113.65C301.17,-105.88 236.81,-92.76 172.54,-76.12"/>
<polygon fill="midnightblue" stroke="midnightblue" points="173.21,-72.67 162.65,-73.53 171.44,-79.44 173.21,-72.67"/>
</g>
<!-- Node23&#45;&gt;Node8 -->
<g id="edge21" class="edge">
<title>Node23&#45;&gt;Node8</title>
<path fill="none" stroke="midnightblue" d="M380.01,-112.33C378.82,-98.24 374.34,-70.49 357.44,-56 327.57,-30.41 214.58,-18.23 155.28,-13.5"/>
<polygon fill="midnightblue" stroke="midnightblue" points="155.45,-10 145.21,-12.73 154.92,-16.98 155.45,-10"/>
</g>
<!-- Node23&#45;&gt;Node18 -->
<g id="edge19" class="edge">
<title>Node23&#45;&gt;Node18</title>
<path fill="none" stroke="midnightblue" d="M388.86,-112.08C396.28,-104.22 407.29,-92.57 416.25,-83.08"/>
<polygon fill="midnightblue" stroke="midnightblue" points="418.85,-85.42 423.17,-75.75 413.76,-80.62 418.85,-85.42"/>
</g>
<!-- Node23&#45;&gt;Node19 -->
<g id="edge20" class="edge">
<title>Node23&#45;&gt;Node19</title>
<path fill="none" stroke="midnightblue" d="M402.46,-112.44C425.54,-103.48 462,-89.31 488.08,-79.18"/>
<polygon fill="midnightblue" stroke="midnightblue" points="489.46,-82.4 497.51,-75.52 486.93,-75.88 489.46,-82.4"/>
</g>
<!-- Node23&#45;&gt;Node7 -->
<g id="edge22" class="edge">
<title>Node23&#45;&gt;Node7</title>
<path fill="none" stroke="midnightblue" d="M355.08,-112.44C328.17,-103.36 285.44,-88.94 255.35,-78.78"/>
<polygon fill="midnightblue" stroke="midnightblue" points="256.26,-75.4 245.67,-75.52 254.03,-82.03 256.26,-75.4"/>
</g>
<!-- Node23&#45;&gt;Node20 -->
<g id="edge23" class="edge">
<title>Node23&#45;&gt;Node20</title>
<path fill="none" stroke="midnightblue" d="M369.67,-112.32C359.67,-104.26 344.55,-92.08 332.51,-82.37"/>
<polygon fill="midnightblue" stroke="midnightblue" points="334.38,-79.38 324.4,-75.83 329.99,-84.83 334.38,-79.38"/>
</g>
<!-- Node23&#45;&gt;Node21 -->
<g id="edge24" class="edge">
<title>Node23&#45;&gt;Node21</title>
<path fill="none" stroke="midnightblue" d="M417.2,-112.44C458.92,-102.73 526.85,-86.92 570.58,-76.74"/>
<polygon fill="midnightblue" stroke="midnightblue" points="571.38,-80.15 580.33,-74.47 569.8,-73.33 571.38,-80.15"/>
</g>
<!-- Node23&#45;&gt;Node24 -->
<g id="edge25" class="edge">
<title>Node23&#45;&gt;Node24</title>
<path fill="none" stroke="midnightblue" d="M419.81,-114.74C470.98,-106.56 563.4,-91.6 652.82,-76.08"/>
<polygon fill="midnightblue" stroke="midnightblue" points="653.62,-79.49 662.87,-74.33 652.41,-72.6 653.62,-79.49"/>
</g>
<!-- Node24&#45;&gt;Node3 -->
<g id="edge26" class="edge">
<title>Node24&#45;&gt;Node3</title>
<path fill="none" stroke="midnightblue" d="M676.1,-75.51C658.44,-82.12 636.69,-93.4 625.44,-112 615.64,-128.19 628.78,-147.33 639.94,-160.63"/>
<polygon fill="midnightblue" stroke="midnightblue" points="637.52,-163.18 646.73,-168.43 642.81,-158.59 637.52,-163.18"/>
</g>
<!-- Node25&#45;&gt;Node3 -->
<g id="edge28" class="edge">
<title>Node25&#45;&gt;Node3</title>
<path fill="none" stroke="midnightblue" d="M846.87,-131.52C809.67,-140.9 746.56,-156.01 702.09,-166.22"/>
<polygon fill="midnightblue" stroke="midnightblue" points="701.31,-162.81 692.34,-168.44 702.86,-169.63 701.31,-162.81"/>
</g>
<!-- Node26&#45;&gt;Node3 -->
<g id="edge31" class="edge">
<title>Node26&#45;&gt;Node3</title>
<path fill="none" stroke="midnightblue" d="M938.22,-131.51C937.28,-131.67 936.35,-131.84 935.44,-132 860.37,-145.18 773.55,-159.18 715.77,-168"/>
<polygon fill="midnightblue" stroke="midnightblue" points="715.05,-164.57 705.69,-169.53 716.1,-171.49 715.05,-164.57"/>
</g>
<!-- Node27&#45;&gt;Node4 -->
<g id="edge34" class="edge">
<title>Node27&#45;&gt;Node4</title>
<path fill="none" stroke="midnightblue" d="M181.97,-112.44C153.43,-103.21 107.84,-88.47 76.36,-78.29"/>
<polygon fill="midnightblue" stroke="midnightblue" points="77.27,-74.91 66.68,-75.16 75.12,-81.57 77.27,-74.91"/>
</g>
<!-- Node27&#45;&gt;Node5 -->
<g id="edge33" class="edge">
<title>Node27&#45;&gt;Node5</title>
<path fill="none" stroke="midnightblue" d="M197.83,-112.32C187.98,-104.26 173.09,-92.08 161.22,-82.37"/>
<polygon fill="midnightblue" stroke="midnightblue" points="163.19,-79.46 153.23,-75.83 158.76,-84.88 163.19,-79.46"/>
</g>
<!-- Node27&#45;&gt;Node8 -->
<g id="edge35" class="edge">
<title>Node27&#45;&gt;Node8</title>
<path fill="none" stroke="midnightblue" d="M172.71,-114.02C151.55,-107.86 126.42,-96.51 113.44,-76 104.74,-62.27 107.38,-43.49 111.37,-29.64"/>
<polygon fill="midnightblue" stroke="midnightblue" points="114.81,-30.38 114.66,-19.79 108.17,-28.16 114.81,-30.38"/>
</g>
<!-- Node27&#45;&gt;Node7 -->
<g id="edge36" class="edge">
<title>Node27&#45;&gt;Node7</title>
<path fill="none" stroke="midnightblue" d="M210.42,-112.08C212.01,-104.93 214.29,-94.64 216.28,-85.69"/>
<polygon fill="midnightblue" stroke="midnightblue" points="219.74,-86.27 218.49,-75.75 212.91,-84.75 219.74,-86.27"/>
</g>
<!-- Node27&#45;&gt;Node20 -->
<g id="edge37" class="edge">
<title>Node27&#45;&gt;Node20</title>
<path fill="none" stroke="midnightblue" d="M225.31,-112.32C242.14,-103.66 268.24,-90.24 287.67,-80.25"/>
<polygon fill="midnightblue" stroke="midnightblue" points="289.32,-83.34 296.61,-75.65 286.11,-77.12 289.32,-83.34"/>
</g>
<!-- Node28&#45;&gt;Node3 -->
<g id="edge39" class="edge">
<title>Node28&#45;&gt;Node3</title>
<path fill="none" stroke="midnightblue" d="M1035.74,-131.53C1034.63,-131.69 1033.53,-131.85 1032.44,-132 921.67,-147.44 791.91,-162.44 715.9,-170.62"/>
<polygon fill="midnightblue" stroke="midnightblue" points="715.11,-167.19 705.53,-171.73 715.85,-174.15 715.11,-167.19"/>
</g>
<!-- Node29&#45;&gt;Node3 -->
<g id="edge41" class="edge">
<title>Node29&#45;&gt;Node3</title>
<path fill="none" stroke="midnightblue" d="M1150.99,-131.54C1149.79,-131.7 1148.61,-131.85 1147.44,-132 993.21,-151.5 810.5,-166.12 715.64,-172.87"/>
<polygon fill="midnightblue" stroke="midnightblue" points="715.35,-169.38 705.62,-173.58 715.84,-176.37 715.35,-169.38"/>
</g>
<!-- Node30&#45;&gt;Node3 -->
<g id="edge43" class="edge">
<title>Node30&#45;&gt;Node3</title>
<path fill="none" stroke="midnightblue" d="M1262.79,-131.52C1261.66,-131.69 1260.54,-131.85 1259.44,-132 1062.56,-158.98 826.9,-170.73 715.56,-174.97"/>
<polygon fill="midnightblue" stroke="midnightblue" points="715.36,-171.48 705.5,-175.35 715.62,-178.47 715.36,-171.48"/>
</g>
<!-- Node31&#45;&gt;Node11 -->
<g id="edge45" class="edge">
<title>Node31&#45;&gt;Node11</title>
<path fill="none" stroke="midnightblue" d="M672.83,-112.44C695.14,-103.52 730.34,-89.44 755.64,-79.32"/>
<polygon fill="midnightblue" stroke="midnightblue" points="757.16,-82.48 765.14,-75.52 754.56,-75.98 757.16,-82.48"/>
</g>
</g>
</svg>
