<?xml version="1.0" encoding="UTF-8" standalone="no"?>
<!DOCTYPE svg PUBLIC "-//W3C//DTD SVG 1.1//EN"
 "http://www.w3.org/Graphics/SVG/1.1/DTD/svg11.dtd">
<!-- Generated by graphviz version 2.43.0 (0)
 -->
<!-- Title: swarm_bot_cpp/src/_pid_.h Pages: 1 -->
<svg width="1677pt" height="251pt"
 viewBox="0.00 0.00 1677.00 251.00" xmlns="http://www.w3.org/2000/svg" xmlns:xlink="http://www.w3.org/1999/xlink">
<g id="graph0" class="graph" transform="scale(1 1) rotate(0) translate(4 247)">
<title>swarm_bot_cpp/src/_pid_.h</title>
<polygon fill="white" stroke="transparent" points="-4,4 -4,-247 1673,-247 1673,4 -4,4"/>
<!-- Node1 -->
<g id="node1" class="node">
<title>Node1</title>
<g id="a_node1"><a xlink:title="Header file for pid.c.">
<polygon fill="#bfbfbf" stroke="black" points="885,-212.5 885,-242.5 998,-242.5 998,-212.5 885,-212.5"/>
<text text-anchor="start" x="893" y="-230.5" font-family="Helvetica,sans-Serif" font-size="10.00">swarm_bot_cpp/src/</text>
<text text-anchor="middle" x="941.5" y="-219.5" font-family="Helvetica,sans-Serif" font-size="10.00">_pid_.h</text>
</a>
</g>
</g>
<!-- Node2 -->
<g id="node2" class="node">
<title>Node2</title>
<g id="a_node2"><a xlink:href="____swarm__wold_____8h.html" target="_top" xlink:title="Header file for dummy purposes.">
<polygon fill="white" stroke="black" points="820,-145.5 820,-175.5 933,-175.5 933,-145.5 820,-145.5"/>
<text text-anchor="start" x="828" y="-163.5" font-family="Helvetica,sans-Serif" font-size="10.00">swarm_bot_cpp/src/</text>
<text text-anchor="middle" x="876.5" y="-152.5" font-family="Helvetica,sans-Serif" font-size="10.00">__swarm_wold__.h</text>
</a>
</g>
</g>
<!-- Node1&#45;&gt;Node2 -->
<g id="edge1" class="edge">
<title>Node1&#45;&gt;Node2</title>
<path fill="none" stroke="midnightblue" d="M920.31,-205.31C910.56,-195.56 899.26,-184.26 890.58,-175.58"/>
<polygon fill="midnightblue" stroke="midnightblue" points="917.85,-207.8 927.4,-212.4 922.8,-202.85 917.85,-207.8"/>
</g>
<!-- Node26 -->
<g id="node26" class="node">
<title>Node26</title>
<g id="a_node26"><a xlink:href="__pid___8c.html" target="_top" xlink:title="General PID implementation for AVR.">
<polygon fill="white" stroke="black" points="951,-145.5 951,-175.5 1064,-175.5 1064,-145.5 951,-145.5"/>
<text text-anchor="start" x="959" y="-163.5" font-family="Helvetica,sans-Serif" font-size="10.00">swarm_bot_cpp/src/</text>
<text text-anchor="middle" x="1007.5" y="-152.5" font-family="Helvetica,sans-Serif" font-size="10.00">_pid_.c</text>
</a>
</g>
</g>
<!-- Node1&#45;&gt;Node26 -->
<g id="edge37" class="edge">
<title>Node1&#45;&gt;Node26</title>
<path fill="none" stroke="midnightblue" d="M963.01,-205.31C972.91,-195.56 984.39,-184.26 993.21,-175.58"/>
<polygon fill="midnightblue" stroke="midnightblue" points="960.49,-202.89 955.82,-212.4 965.4,-207.87 960.49,-202.89"/>
</g>
<!-- Node3 -->
<g id="node3" class="node">
<title>Node3</title>
<g id="a_node3"><a xlink:href="____adc_____8h.html" target="_top" xlink:title="Header file for adc.c.">
<polygon fill="white" stroke="black" points="1082,-73 1082,-103 1195,-103 1195,-73 1082,-73"/>
<text text-anchor="start" x="1090" y="-91" font-family="Helvetica,sans-Serif" font-size="10.00">swarm_bot_cpp/src/</text>
<text text-anchor="middle" x="1138.5" y="-80" font-family="Helvetica,sans-Serif" font-size="10.00">__adc__.h</text>
</a>
</g>
</g>
<!-- Node2&#45;&gt;Node3 -->
<g id="edge2" class="edge">
<title>Node2&#45;&gt;Node3</title>
<path fill="none" stroke="midnightblue" d="M936.94,-142.82C973.88,-133.34 1021.94,-120.99 1064.5,-109 1071.09,-107.14 1078.03,-105.1 1084.93,-103.05"/>
<polygon fill="midnightblue" stroke="midnightblue" points="935.64,-139.54 926.83,-145.41 937.38,-146.32 935.64,-139.54"/>
</g>
<!-- Node6 -->
<g id="node6" class="node">
<title>Node6</title>
<g id="a_node6"><a xlink:href="____dc__control_____8h.html" target="_top" xlink:title="Header file for dc_control.c.">
<polygon fill="white" stroke="black" points="126,-73 126,-103 239,-103 239,-73 126,-73"/>
<text text-anchor="start" x="134" y="-91" font-family="Helvetica,sans-Serif" font-size="10.00">swarm_bot_cpp/src/</text>
<text text-anchor="middle" x="182.5" y="-80" font-family="Helvetica,sans-Serif" font-size="10.00">__dc_control__.h</text>
</a>
</g>
</g>
<!-- Node2&#45;&gt;Node6 -->
<g id="edge7" class="edge">
<title>Node2&#45;&gt;Node6</title>
<path fill="none" stroke="midnightblue" d="M809.45,-158.99C692.33,-157.08 443.73,-148.32 238.5,-109 230.61,-107.49 222.33,-105.37 214.59,-103.07"/>
<polygon fill="midnightblue" stroke="midnightblue" points="809.64,-162.5 819.69,-159.15 809.75,-155.5 809.64,-162.5"/>
</g>
<!-- Node8 -->
<g id="node8" class="node">
<title>Node8</title>
<g id="a_node8"><a xlink:href="____format_____8h.html" target="_top" xlink:title="Header file for format.c.">
<polygon fill="white" stroke="black" points="257,-73 257,-103 370,-103 370,-73 257,-73"/>
<text text-anchor="start" x="265" y="-91" font-family="Helvetica,sans-Serif" font-size="10.00">swarm_bot_cpp/src/</text>
<text text-anchor="middle" x="313.5" y="-80" font-family="Helvetica,sans-Serif" font-size="10.00">__format__.h</text>
</a>
</g>
</g>
<!-- Node2&#45;&gt;Node8 -->
<g id="edge10" class="edge">
<title>Node2&#45;&gt;Node8</title>
<path fill="none" stroke="midnightblue" d="M809.68,-157.19C711.93,-152.74 524.98,-140.48 369.5,-109 361.75,-107.43 353.6,-105.31 345.96,-103.04"/>
<polygon fill="midnightblue" stroke="midnightblue" points="809.58,-160.69 819.72,-157.63 809.89,-153.69 809.58,-160.69"/>
</g>
<!-- Node10 -->
<g id="node10" class="node">
<title>Node10</title>
<g id="a_node10"><a xlink:href="_____i_n_t__0__1_____8h.html" target="_top" xlink:title="Header file for INT_0_1.c.">
<polygon fill="white" stroke="black" points="388,-73 388,-103 501,-103 501,-73 388,-73"/>
<text text-anchor="start" x="396" y="-91" font-family="Helvetica,sans-Serif" font-size="10.00">swarm_bot_cpp/src/</text>
<text text-anchor="middle" x="444.5" y="-80" font-family="Helvetica,sans-Serif" font-size="10.00">__INT_0_1__.h</text>
</a>
</g>
</g>
<!-- Node2&#45;&gt;Node10 -->
<g id="edge13" class="edge">
<title>Node2&#45;&gt;Node10</title>
<path fill="none" stroke="midnightblue" d="M809.54,-154.19C733.72,-147.09 607.11,-132.57 500.5,-109 493.01,-107.34 485.13,-105.24 477.69,-103.02"/>
<polygon fill="midnightblue" stroke="midnightblue" points="809.62,-157.72 819.89,-155.15 810.26,-150.75 809.62,-157.72"/>
</g>
<!-- Node12 -->
<g id="node12" class="node">
<title>Node12</title>
<g id="a_node12"><a xlink:href="____kinematics_____8h.html" target="_top" xlink:title="Header file for kimenatics.c.">
<polygon fill="white" stroke="black" points="519,-73 519,-103 632,-103 632,-73 519,-73"/>
<text text-anchor="start" x="527" y="-91" font-family="Helvetica,sans-Serif" font-size="10.00">swarm_bot_cpp/src/</text>
<text text-anchor="middle" x="575.5" y="-80" font-family="Helvetica,sans-Serif" font-size="10.00">__kinematics__.h</text>
</a>
</g>
</g>
<!-- Node2&#45;&gt;Node12 -->
<g id="edge16" class="edge">
<title>Node2&#45;&gt;Node12</title>
<path fill="none" stroke="midnightblue" d="M809.71,-145.91C763.68,-136.28 701.18,-122.69 646.5,-109 639.17,-107.16 631.45,-105.11 623.9,-103.04"/>
<polygon fill="midnightblue" stroke="midnightblue" points="809.07,-149.35 819.57,-147.97 810.5,-142.5 809.07,-149.35"/>
</g>
<!-- Node14 -->
<g id="node14" class="node">
<title>Node14</title>
<g id="a_node14"><a xlink:href=".html" target="_top" xlink:title=" ">
<polygon fill="white" stroke="black" points="524.5,-6 524.5,-25 670.5,-25 670.5,-6 524.5,-6"/>
<text text-anchor="middle" x="597.5" y="-13" font-family="Helvetica,sans-Serif" font-size="10.00">swarm_bot_cpp/src/main.c</text>
</a>
</g>
</g>
<!-- Node2&#45;&gt;Node14 -->
<g id="edge36" class="edge">
<title>Node2&#45;&gt;Node14</title>
<path fill="none" stroke="midnightblue" d="M810.03,-152.43C769.92,-145.83 719.09,-133.17 679.5,-109 674.76,-106.11 624.07,-47.41 604.84,-25.05"/>
<polygon fill="midnightblue" stroke="midnightblue" points="809.57,-155.9 819.99,-153.99 810.65,-148.99 809.57,-155.9"/>
</g>
<!-- Node15 -->
<g id="node15" class="node">
<title>Node15</title>
<g id="a_node15"><a xlink:href="____odometry_____8h.html" target="_top" xlink:title="Header file for odometry.c.">
<polygon fill="white" stroke="black" points="689,-73 689,-103 802,-103 802,-73 689,-73"/>
<text text-anchor="start" x="697" y="-91" font-family="Helvetica,sans-Serif" font-size="10.00">swarm_bot_cpp/src/</text>
<text text-anchor="middle" x="745.5" y="-80" font-family="Helvetica,sans-Serif" font-size="10.00">__odometry__.h</text>
</a>
</g>
</g>
<!-- Node2&#45;&gt;Node15 -->
<g id="edge19" class="edge">
<title>Node2&#45;&gt;Node15</title>
<path fill="none" stroke="midnightblue" d="M835.86,-140.87C812.73,-129.02 784.84,-113.92 766.13,-103.07"/>
<polygon fill="midnightblue" stroke="midnightblue" points="834.28,-144 844.78,-145.4 837.45,-137.76 834.28,-144"/>
</g>
<!-- Node17 -->
<g id="node17" class="node">
<title>Node17</title>
<g id="a_node17"><a xlink:href="____pwm_____8h.html" target="_top" xlink:title="Header file for pwm.c.">
<polygon fill="white" stroke="black" points="820,-73 820,-103 933,-103 933,-73 820,-73"/>
<text text-anchor="start" x="828" y="-91" font-family="Helvetica,sans-Serif" font-size="10.00">swarm_bot_cpp/src/</text>
<text text-anchor="middle" x="876.5" y="-80" font-family="Helvetica,sans-Serif" font-size="10.00">__pwm__.h</text>
</a>
</g>
</g>
<!-- Node2&#45;&gt;Node17 -->
<g id="edge22" class="edge">
<title>Node2&#45;&gt;Node17</title>
<path fill="none" stroke="midnightblue" d="M870.05,-135.23C869.45,-124.57 869.75,-112.41 870.95,-103.25"/>
<polygon fill="midnightblue" stroke="midnightblue" points="866.57,-135.59 870.95,-145.23 873.54,-134.96 866.57,-135.59"/>
</g>
<!-- Node19 -->
<g id="node19" class="node">
<title>Node19</title>
<g id="a_node19"><a xlink:href="____timer0_____8h.html" target="_top" xlink:title="Header file for timer0.c.">
<polygon fill="white" stroke="black" points="951,-73 951,-103 1064,-103 1064,-73 951,-73"/>
<text text-anchor="start" x="959" y="-91" font-family="Helvetica,sans-Serif" font-size="10.00">swarm_bot_cpp/src/</text>
<text text-anchor="middle" x="1007.5" y="-80" font-family="Helvetica,sans-Serif" font-size="10.00">__timer0__.h</text>
</a>
</g>
</g>
<!-- Node2&#45;&gt;Node19 -->
<g id="edge25" class="edge">
<title>Node2&#45;&gt;Node19</title>
<path fill="none" stroke="midnightblue" d="M905.92,-140.4C926.74,-128.62 954.51,-113.78 975.83,-103.07"/>
<polygon fill="midnightblue" stroke="midnightblue" points="904.11,-137.4 897.17,-145.4 907.59,-143.48 904.11,-137.4"/>
</g>
<!-- Node21 -->
<g id="node21" class="node">
<title>Node21</title>
<g id="a_node21"><a xlink:href="____timer1_____8h.html" target="_top" xlink:title="Header file for timer1.c.">
<polygon fill="white" stroke="black" points="1252,-73 1252,-103 1365,-103 1365,-73 1252,-73"/>
<text text-anchor="start" x="1260" y="-91" font-family="Helvetica,sans-Serif" font-size="10.00">swarm_bot_cpp/src/</text>
<text text-anchor="middle" x="1308.5" y="-80" font-family="Helvetica,sans-Serif" font-size="10.00">__timer1__.h</text>
</a>
</g>
</g>
<!-- Node2&#45;&gt;Node21 -->
<g id="edge28" class="edge">
<title>Node2&#45;&gt;Node21</title>
<path fill="none" stroke="midnightblue" d="M939.72,-143.8C1064.97,-123.16 1101.86,-134.38 1228.5,-109 1236.66,-107.36 1245.26,-105.27 1253.68,-103.05"/>
<polygon fill="midnightblue" stroke="midnightblue" points="939.03,-140.37 929.75,-145.48 940.19,-147.27 939.03,-140.37"/>
</g>
<!-- Node23 -->
<g id="node23" class="node">
<title>Node23</title>
<g id="a_node23"><a xlink:href="____timer2_____8h.html" target="_top" xlink:title="Header file for timer2.c.">
<polygon fill="white" stroke="black" points="1556,-73 1556,-103 1669,-103 1669,-73 1556,-73"/>
<text text-anchor="start" x="1564" y="-91" font-family="Helvetica,sans-Serif" font-size="10.00">swarm_bot_cpp/src/</text>
<text text-anchor="middle" x="1612.5" y="-80" font-family="Helvetica,sans-Serif" font-size="10.00">__timer2__.h</text>
</a>
</g>
</g>
<!-- Node2&#45;&gt;Node23 -->
<g id="edge32" class="edge">
<title>Node2&#45;&gt;Node23</title>
<path fill="none" stroke="midnightblue" d="M939.59,-144.05C1201.58,-108.75 1276.37,-156.41 1538.5,-109 1546.63,-107.53 1555.18,-105.37 1563.49,-103"/>
<polygon fill="midnightblue" stroke="midnightblue" points="938.82,-140.63 929.39,-145.46 939.77,-147.56 938.82,-140.63"/>
</g>
<!-- Node25 -->
<g id="node25" class="node">
<title>Node25</title>
<g id="a_node25"><a xlink:href="init_8c.html" target="_top" xlink:title="User board initialization template.">
<polygon fill="white" stroke="black" points="1383,-67.5 1383,-108.5 1538,-108.5 1538,-67.5 1383,-67.5"/>
<text text-anchor="start" x="1391" y="-96.5" font-family="Helvetica,sans-Serif" font-size="10.00">swarm_bot_cpp/src/ASF</text>
<text text-anchor="start" x="1391" y="-85.5" font-family="Helvetica,sans-Serif" font-size="10.00">/common/boards/user_board</text>
<text text-anchor="middle" x="1460.5" y="-74.5" font-family="Helvetica,sans-Serif" font-size="10.00">/init.c</text>
</a>
</g>
</g>
<!-- Node2&#45;&gt;Node25 -->
<g id="edge35" class="edge">
<title>Node2&#45;&gt;Node25</title>
<path fill="none" stroke="midnightblue" d="M943.22,-144.87C1134.2,-116.68 1186.99,-138.44 1374.5,-109 1377.23,-108.57 1379.99,-108.11 1382.78,-107.61"/>
<polygon fill="midnightblue" stroke="midnightblue" points="942.5,-141.44 933.13,-146.39 943.54,-148.36 942.5,-141.44"/>
</g>
<!-- Node3&#45;&gt;Node2 -->
<g id="edge6" class="edge">
<title>Node3&#45;&gt;Node2</title>
<path fill="none" stroke="midnightblue" d="M1092.89,-106C1089.39,-107.04 1085.9,-108.04 1082.5,-109 1032.54,-123.08 975,-137.64 933.36,-147.49"/>
<polygon fill="midnightblue" stroke="midnightblue" points="1094.15,-109.28 1102.72,-103.05 1092.14,-102.58 1094.15,-109.28"/>
</g>
<!-- Node4 -->
<g id="node4" class="node">
<title>Node4</title>
<g id="a_node4"><a xlink:href=".html" target="_top" xlink:title=" ">
<polygon fill="white" stroke="black" points="1082,-0.5 1082,-30.5 1195,-30.5 1195,-0.5 1082,-0.5"/>
<text text-anchor="start" x="1090" y="-18.5" font-family="Helvetica,sans-Serif" font-size="10.00">swarm_bot_cpp/src/</text>
<text text-anchor="middle" x="1138.5" y="-7.5" font-family="Helvetica,sans-Serif" font-size="10.00">__adc__.c</text>
</a>
</g>
</g>
<!-- Node3&#45;&gt;Node4 -->
<g id="edge3" class="edge">
<title>Node3&#45;&gt;Node4</title>
<path fill="none" stroke="midnightblue" d="M1138.5,-62.73C1138.5,-52.07 1138.5,-39.91 1138.5,-30.75"/>
<polygon fill="midnightblue" stroke="midnightblue" points="1135,-62.73 1138.5,-72.73 1142,-62.73 1135,-62.73"/>
</g>
<!-- Node5 -->
<g id="node5" class="node">
<title>Node5</title>
<g id="a_node5"><a xlink:href=".html" target="_top" xlink:title=" ">
<polygon fill="white" stroke="black" points="1213,-0.5 1213,-30.5 1326,-30.5 1326,-0.5 1213,-0.5"/>
<text text-anchor="start" x="1221" y="-18.5" font-family="Helvetica,sans-Serif" font-size="10.00">swarm_bot_cpp/src/</text>
<text text-anchor="middle" x="1269.5" y="-7.5" font-family="Helvetica,sans-Serif" font-size="10.00">__pin_map.h</text>
</a>
</g>
</g>
<!-- Node3&#45;&gt;Node5 -->
<g id="edge4" class="edge">
<title>Node3&#45;&gt;Node5</title>
<path fill="none" stroke="midnightblue" d="M1173.7,-68.06C1195.63,-56.26 1223.37,-41.33 1243.35,-30.57"/>
<polygon fill="midnightblue" stroke="midnightblue" points="1171.84,-65.08 1164.69,-72.9 1175.16,-71.25 1171.84,-65.08"/>
</g>
<!-- Node5&#45;&gt;Node2 -->
<g id="edge5" class="edge">
<title>Node5&#45;&gt;Node2</title>
<path fill="none" stroke="midnightblue" d="M1256.39,-39.31C1241.81,-63.84 1218.47,-100.49 1204.5,-109 1103.74,-170.38 1057.62,-124.14 941.5,-145 938.77,-145.49 935.98,-146.02 933.16,-146.57"/>
<polygon fill="midnightblue" stroke="midnightblue" points="1259.47,-40.98 1261.51,-30.58 1253.43,-37.43 1259.47,-40.98"/>
</g>
<!-- Node6&#45;&gt;Node2 -->
<g id="edge9" class="edge">
<title>Node6&#45;&gt;Node2</title>
<path fill="none" stroke="midnightblue" d="M242.16,-105.76C247,-106.99 251.82,-108.1 256.5,-109 461.47,-148.27 709.69,-157.06 819.59,-158.99"/>
<polygon fill="midnightblue" stroke="midnightblue" points="242.82,-102.31 232.25,-103.07 240.99,-109.06 242.82,-102.31"/>
</g>
<!-- Node7 -->
<g id="node7" class="node">
<title>Node7</title>
<g id="a_node7"><a xlink:href="____dc__control_____8c.html" target="_top" xlink:title="Header file for dc_control.c.">
<polygon fill="white" stroke="black" points="0,-0.5 0,-30.5 113,-30.5 113,-0.5 0,-0.5"/>
<text text-anchor="start" x="8" y="-18.5" font-family="Helvetica,sans-Serif" font-size="10.00">swarm_bot_cpp/src/</text>
<text text-anchor="middle" x="56.5" y="-7.5" font-family="Helvetica,sans-Serif" font-size="10.00">__dc_control__.c</text>
</a>
</g>
</g>
<!-- Node6&#45;&gt;Node7 -->
<g id="edge8" class="edge">
<title>Node6&#45;&gt;Node7</title>
<path fill="none" stroke="midnightblue" d="M148.36,-67.9C127.31,-56.12 100.78,-41.28 81.65,-30.57"/>
<polygon fill="midnightblue" stroke="midnightblue" points="146.87,-71.07 157.3,-72.9 150.29,-64.97 146.87,-71.07"/>
</g>
<!-- Node8&#45;&gt;Node2 -->
<g id="edge12" class="edge">
<title>Node8&#45;&gt;Node2</title>
<path fill="none" stroke="midnightblue" d="M373.39,-105.71C378.15,-106.94 382.9,-108.07 387.5,-109 542.3,-140.34 728.31,-152.64 819.97,-157.13"/>
<polygon fill="midnightblue" stroke="midnightblue" points="374.2,-102.3 363.63,-103.04 372.36,-109.05 374.2,-102.3"/>
</g>
<!-- Node9 -->
<g id="node9" class="node">
<title>Node9</title>
<g id="a_node9"><a xlink:href="____format_____8c.html" target="_top" xlink:title="Header file for format.c.">
<polygon fill="white" stroke="black" points="131,-0.5 131,-30.5 244,-30.5 244,-0.5 131,-0.5"/>
<text text-anchor="start" x="139" y="-18.5" font-family="Helvetica,sans-Serif" font-size="10.00">swarm_bot_cpp/src/</text>
<text text-anchor="middle" x="187.5" y="-7.5" font-family="Helvetica,sans-Serif" font-size="10.00">__format__.c</text>
</a>
</g>
</g>
<!-- Node8&#45;&gt;Node9 -->
<g id="edge11" class="edge">
<title>Node8&#45;&gt;Node9</title>
<path fill="none" stroke="midnightblue" d="M279.36,-67.9C258.31,-56.12 231.78,-41.28 212.65,-30.57"/>
<polygon fill="midnightblue" stroke="midnightblue" points="277.87,-71.07 288.3,-72.9 281.29,-64.97 277.87,-71.07"/>
</g>
<!-- Node10&#45;&gt;Node2 -->
<g id="edge15" class="edge">
<title>Node10&#45;&gt;Node2</title>
<path fill="none" stroke="midnightblue" d="M505.22,-105.74C509.71,-106.93 514.17,-108.04 518.5,-109 623.84,-132.29 748.71,-146.74 819.75,-153.94"/>
<polygon fill="midnightblue" stroke="midnightblue" points="505.97,-102.32 495.4,-103.02 504.1,-109.06 505.97,-102.32"/>
</g>
<!-- Node11 -->
<g id="node11" class="node">
<title>Node11</title>
<g id="a_node11"><a xlink:href=".html" target="_top" xlink:title=" ">
<polygon fill="white" stroke="black" points="262,-0.5 262,-30.5 375,-30.5 375,-0.5 262,-0.5"/>
<text text-anchor="start" x="270" y="-18.5" font-family="Helvetica,sans-Serif" font-size="10.00">swarm_bot_cpp/src/</text>
<text text-anchor="middle" x="318.5" y="-7.5" font-family="Helvetica,sans-Serif" font-size="10.00">__INT_0_1__.c</text>
</a>
</g>
</g>
<!-- Node10&#45;&gt;Node11 -->
<g id="edge14" class="edge">
<title>Node10&#45;&gt;Node11</title>
<path fill="none" stroke="midnightblue" d="M410.36,-67.9C389.31,-56.12 362.78,-41.28 343.65,-30.57"/>
<polygon fill="midnightblue" stroke="midnightblue" points="408.87,-71.07 419.3,-72.9 412.29,-64.97 408.87,-71.07"/>
</g>
<!-- Node13 -->
<g id="node13" class="node">
<title>Node13</title>
<g id="a_node13"><a xlink:href=".html" target="_top" xlink:title=" ">
<polygon fill="white" stroke="black" points="393,-0.5 393,-30.5 506,-30.5 506,-0.5 393,-0.5"/>
<text text-anchor="start" x="401" y="-18.5" font-family="Helvetica,sans-Serif" font-size="10.00">swarm_bot_cpp/src/</text>
<text text-anchor="middle" x="449.5" y="-7.5" font-family="Helvetica,sans-Serif" font-size="10.00">__kinematics__.c</text>
</a>
</g>
</g>
<!-- Node12&#45;&gt;Node13 -->
<g id="edge17" class="edge">
<title>Node12&#45;&gt;Node13</title>
<path fill="none" stroke="midnightblue" d="M541.36,-67.9C520.31,-56.12 493.78,-41.28 474.65,-30.57"/>
<polygon fill="midnightblue" stroke="midnightblue" points="539.87,-71.07 550.3,-72.9 543.29,-64.97 539.87,-71.07"/>
</g>
<!-- Node12&#45;&gt;Node14 -->
<g id="edge18" class="edge">
<title>Node12&#45;&gt;Node14</title>
<path fill="none" stroke="midnightblue" d="M583,-62.98C587.04,-50.01 591.79,-34.79 594.72,-25.39"/>
<polygon fill="midnightblue" stroke="midnightblue" points="579.59,-62.14 579.95,-72.73 586.27,-64.23 579.59,-62.14"/>
</g>
<!-- Node15&#45;&gt;Node2 -->
<g id="edge21" class="edge">
<title>Node15&#45;&gt;Node2</title>
<path fill="none" stroke="midnightblue" d="M786.09,-107.6C809.21,-119.45 837.1,-134.55 855.83,-145.4"/>
<polygon fill="midnightblue" stroke="midnightblue" points="787.67,-104.48 777.17,-103.07 784.51,-110.72 787.67,-104.48"/>
</g>
<!-- Node16 -->
<g id="node16" class="node">
<title>Node16</title>
<g id="a_node16"><a xlink:href=".html" target="_top" xlink:title=" ">
<polygon fill="white" stroke="black" points="689,-0.5 689,-30.5 802,-30.5 802,-0.5 689,-0.5"/>
<text text-anchor="start" x="697" y="-18.5" font-family="Helvetica,sans-Serif" font-size="10.00">swarm_bot_cpp/src/</text>
<text text-anchor="middle" x="745.5" y="-7.5" font-family="Helvetica,sans-Serif" font-size="10.00">__odometry__.c</text>
</a>
</g>
</g>
<!-- Node15&#45;&gt;Node16 -->
<g id="edge20" class="edge">
<title>Node15&#45;&gt;Node16</title>
<path fill="none" stroke="midnightblue" d="M745.5,-62.73C745.5,-52.07 745.5,-39.91 745.5,-30.75"/>
<polygon fill="midnightblue" stroke="midnightblue" points="742,-62.73 745.5,-72.73 749,-62.73 742,-62.73"/>
</g>
<!-- Node17&#45;&gt;Node2 -->
<g id="edge24" class="edge">
<title>Node17&#45;&gt;Node2</title>
<path fill="none" stroke="midnightblue" d="M882.95,-113.24C883.55,-123.91 883.25,-136.06 882.05,-145.23"/>
<polygon fill="midnightblue" stroke="midnightblue" points="886.43,-112.89 882.05,-103.25 879.46,-113.52 886.43,-112.89"/>
</g>
<!-- Node18 -->
<g id="node18" class="node">
<title>Node18</title>
<g id="a_node18"><a xlink:href=".html" target="_top" xlink:title=" ">
<polygon fill="white" stroke="black" points="820,-0.5 820,-30.5 933,-30.5 933,-0.5 820,-0.5"/>
<text text-anchor="start" x="828" y="-18.5" font-family="Helvetica,sans-Serif" font-size="10.00">swarm_bot_cpp/src/</text>
<text text-anchor="middle" x="876.5" y="-7.5" font-family="Helvetica,sans-Serif" font-size="10.00">__pwm__.c</text>
</a>
</g>
</g>
<!-- Node17&#45;&gt;Node18 -->
<g id="edge23" class="edge">
<title>Node17&#45;&gt;Node18</title>
<path fill="none" stroke="midnightblue" d="M876.5,-62.73C876.5,-52.07 876.5,-39.91 876.5,-30.75"/>
<polygon fill="midnightblue" stroke="midnightblue" points="873,-62.73 876.5,-72.73 880,-62.73 873,-62.73"/>
</g>
<!-- Node19&#45;&gt;Node2 -->
<g id="edge26" class="edge">
<title>Node19&#45;&gt;Node2</title>
<path fill="none" stroke="midnightblue" d="M978.13,-108.07C957.31,-119.85 929.55,-134.69 908.22,-145.4"/>
<polygon fill="midnightblue" stroke="midnightblue" points="979.93,-111.08 986.87,-103.07 976.46,-105 979.93,-111.08"/>
</g>
<!-- Node20 -->
<g id="node20" class="node">
<title>Node20</title>
<g id="a_node20"><a xlink:href=".html" target="_top" xlink:title=" ">
<polygon fill="white" stroke="black" points="951,-0.5 951,-30.5 1064,-30.5 1064,-0.5 951,-0.5"/>
<text text-anchor="start" x="959" y="-18.5" font-family="Helvetica,sans-Serif" font-size="10.00">swarm_bot_cpp/src/</text>
<text text-anchor="middle" x="1007.5" y="-7.5" font-family="Helvetica,sans-Serif" font-size="10.00">__timer0__.c</text>
</a>
</g>
</g>
<!-- Node19&#45;&gt;Node20 -->
<g id="edge27" class="edge">
<title>Node19&#45;&gt;Node20</title>
<path fill="none" stroke="midnightblue" d="M1007.5,-62.73C1007.5,-52.07 1007.5,-39.91 1007.5,-30.75"/>
<polygon fill="midnightblue" stroke="midnightblue" points="1004,-62.73 1007.5,-72.73 1011,-62.73 1004,-62.73"/>
</g>
<!-- Node21&#45;&gt;Node2 -->
<g id="edge30" class="edge">
<title>Node21&#45;&gt;Node2</title>
<path fill="none" stroke="midnightblue" d="M1261.7,-105.58C1256.61,-106.84 1251.47,-108 1246.5,-109 1116.56,-135.04 1081.11,-122.55 950.5,-145 944.92,-145.96 939.09,-147.08 933.25,-148.27"/>
<polygon fill="midnightblue" stroke="midnightblue" points="1262.59,-108.96 1271.39,-103.05 1260.83,-102.18 1262.59,-108.96"/>
</g>
<!-- Node21&#45;&gt;Node5 -->
<g id="edge29" class="edge">
<title>Node21&#45;&gt;Node5</title>
<path fill="none" stroke="midnightblue" d="M1295.63,-63.73C1289.6,-52.83 1282.61,-40.2 1277.38,-30.75"/>
<polygon fill="midnightblue" stroke="midnightblue" points="1292.7,-65.68 1300.61,-72.73 1298.83,-62.29 1292.7,-65.68"/>
</g>
<!-- Node22 -->
<g id="node22" class="node">
<title>Node22</title>
<g id="a_node22"><a xlink:href=".html" target="_top" xlink:title=" ">
<polygon fill="white" stroke="black" points="1344,-0.5 1344,-30.5 1457,-30.5 1457,-0.5 1344,-0.5"/>
<text text-anchor="start" x="1352" y="-18.5" font-family="Helvetica,sans-Serif" font-size="10.00">swarm_bot_cpp/src/</text>
<text text-anchor="middle" x="1400.5" y="-7.5" font-family="Helvetica,sans-Serif" font-size="10.00">__timer1__.c</text>
</a>
</g>
</g>
<!-- Node21&#45;&gt;Node22 -->
<g id="edge31" class="edge">
<title>Node21&#45;&gt;Node22</title>
<path fill="none" stroke="midnightblue" d="M1335.11,-66.61C1350.22,-55.03 1368.75,-40.83 1382.22,-30.5"/>
<polygon fill="midnightblue" stroke="midnightblue" points="1332.93,-63.87 1327.12,-72.73 1337.18,-69.43 1332.93,-63.87"/>
</g>
<!-- Node23&#45;&gt;Node2 -->
<g id="edge33" class="edge">
<title>Node23&#45;&gt;Node2</title>
<path fill="none" stroke="midnightblue" d="M1571.21,-105.75C1566.3,-107.01 1561.33,-108.13 1556.5,-109 1291,-157.02 1217.69,-107.51 950.5,-145 944.89,-145.79 939.05,-146.8 933.2,-147.93"/>
<polygon fill="midnightblue" stroke="midnightblue" points="1572.42,-109.05 1581.12,-103 1570.55,-102.3 1572.42,-109.05"/>
</g>
<!-- Node24 -->
<g id="node24" class="node">
<title>Node24</title>
<g id="a_node24"><a xlink:href=".html" target="_top" xlink:title=" ">
<polygon fill="white" stroke="black" points="1556,-0.5 1556,-30.5 1669,-30.5 1669,-0.5 1556,-0.5"/>
<text text-anchor="start" x="1564" y="-18.5" font-family="Helvetica,sans-Serif" font-size="10.00">swarm_bot_cpp/src/</text>
<text text-anchor="middle" x="1612.5" y="-7.5" font-family="Helvetica,sans-Serif" font-size="10.00">__timer2__.c</text>
</a>
</g>
</g>
<!-- Node23&#45;&gt;Node24 -->
<g id="edge34" class="edge">
<title>Node23&#45;&gt;Node24</title>
<path fill="none" stroke="midnightblue" d="M1612.5,-62.73C1612.5,-52.07 1612.5,-39.91 1612.5,-30.75"/>
<polygon fill="midnightblue" stroke="midnightblue" points="1609,-62.73 1612.5,-72.73 1616,-62.73 1609,-62.73"/>
</g>
</g>
</svg>
