<?xml version="1.0" encoding="UTF-8" standalone="no"?>
<!DOCTYPE svg PUBLIC "-//W3C//DTD SVG 1.1//EN"
 "http://www.w3.org/Graphics/SVG/1.1/DTD/svg11.dtd">
<!-- Generated by graphviz version 2.43.0 (0)
 -->
<!-- Title: swarm_bot_cpp/src/_pid_.h Pages: 1 -->
<svg width="1643pt" height="251pt"
 viewBox="0.00 0.00 1643.00 251.00" xmlns="http://www.w3.org/2000/svg" xmlns:xlink="http://www.w3.org/1999/xlink">
<g id="graph0" class="graph" transform="scale(1 1) rotate(0) translate(4 247)">
<title>swarm_bot_cpp/src/_pid_.h</title>
<polygon fill="white" stroke="transparent" points="-4,4 -4,-247 1639,-247 1639,4 -4,4"/>
<!-- Node1 -->
<g id="node1" class="node">
<title>Node1</title>
<g id="a_node1"><a xlink:title="Header file for pid.c.">
<polygon fill="#bfbfbf" stroke="black" points="866,-212.5 866,-242.5 979,-242.5 979,-212.5 866,-212.5"/>
<text text-anchor="start" x="874" y="-230.5" font-family="Helvetica,sans-Serif" font-size="10.00">swarm_bot_cpp/src/</text>
<text text-anchor="middle" x="922.5" y="-219.5" font-family="Helvetica,sans-Serif" font-size="10.00">_pid_.h</text>
</a>
</g>
</g>
<!-- Node2 -->
<g id="node2" class="node">
<title>Node2</title>
<g id="a_node2"><a xlink:href="____swarm__wold_____8h.html" target="_top" xlink:title="Header file for dummy purposes.">
<polygon fill="white" stroke="black" points="801,-145.5 801,-175.5 914,-175.5 914,-145.5 801,-145.5"/>
<text text-anchor="start" x="809" y="-163.5" font-family="Helvetica,sans-Serif" font-size="10.00">swarm_bot_cpp/src/</text>
<text text-anchor="middle" x="857.5" y="-152.5" font-family="Helvetica,sans-Serif" font-size="10.00">__swarm_wold__.h</text>
</a>
</g>
</g>
<!-- Node1&#45;&gt;Node2 -->
<g id="edge1" class="edge">
<title>Node1&#45;&gt;Node2</title>
<path fill="none" stroke="midnightblue" d="M901.31,-205.31C891.56,-195.56 880.26,-184.26 871.58,-175.58"/>
<polygon fill="midnightblue" stroke="midnightblue" points="898.85,-207.8 908.4,-212.4 903.8,-202.85 898.85,-207.8"/>
</g>
<!-- Node26 -->
<g id="node26" class="node">
<title>Node26</title>
<g id="a_node26"><a xlink:href="__pid___8c.html" target="_top" xlink:title="General PID implementation for AVR.">
<polygon fill="white" stroke="black" points="932,-145.5 932,-175.5 1045,-175.5 1045,-145.5 932,-145.5"/>
<text text-anchor="start" x="940" y="-163.5" font-family="Helvetica,sans-Serif" font-size="10.00">swarm_bot_cpp/src/</text>
<text text-anchor="middle" x="988.5" y="-152.5" font-family="Helvetica,sans-Serif" font-size="10.00">_pid_.c</text>
</a>
</g>
</g>
<!-- Node1&#45;&gt;Node26 -->
<g id="edge37" class="edge">
<title>Node1&#45;&gt;Node26</title>
<path fill="none" stroke="midnightblue" d="M944.01,-205.31C953.91,-195.56 965.39,-184.26 974.21,-175.58"/>
<polygon fill="midnightblue" stroke="midnightblue" points="941.49,-202.89 936.82,-212.4 946.4,-207.87 941.49,-202.89"/>
</g>
<!-- Node3 -->
<g id="node3" class="node">
<title>Node3</title>
<g id="a_node3"><a xlink:href="init_8c.html" target="_top" xlink:title="User board initialization template.">
<polygon fill="white" stroke="black" points="0,-67.5 0,-108.5 155,-108.5 155,-67.5 0,-67.5"/>
<text text-anchor="start" x="8" y="-96.5" font-family="Helvetica,sans-Serif" font-size="10.00">swarm_bot_cpp/src/ASF</text>
<text text-anchor="start" x="8" y="-85.5" font-family="Helvetica,sans-Serif" font-size="10.00">/common/boards/user_board</text>
<text text-anchor="middle" x="77.5" y="-74.5" font-family="Helvetica,sans-Serif" font-size="10.00">/init.c</text>
</a>
</g>
</g>
<!-- Node2&#45;&gt;Node3 -->
<g id="edge2" class="edge">
<title>Node2&#45;&gt;Node3</title>
<path fill="none" stroke="midnightblue" d="M790.84,-158.1C666.73,-154.73 392.07,-143.68 163.5,-109 160.77,-108.59 158,-108.13 155.21,-107.64"/>
<polygon fill="midnightblue" stroke="midnightblue" points="790.86,-161.6 800.95,-158.37 791.04,-154.6 790.86,-161.6"/>
</g>
<!-- Node4 -->
<g id="node4" class="node">
<title>Node4</title>
<g id="a_node4"><a xlink:href="____adc_____8h.html" target="_top" xlink:title="Header file for adc.c.">
<polygon fill="white" stroke="black" points="1129,-73 1129,-103 1242,-103 1242,-73 1129,-73"/>
<text text-anchor="start" x="1137" y="-91" font-family="Helvetica,sans-Serif" font-size="10.00">swarm_bot_cpp/src/</text>
<text text-anchor="middle" x="1185.5" y="-80" font-family="Helvetica,sans-Serif" font-size="10.00">__adc__.h</text>
</a>
</g>
</g>
<!-- Node2&#45;&gt;Node4 -->
<g id="edge3" class="edge">
<title>Node2&#45;&gt;Node4</title>
<path fill="none" stroke="midnightblue" d="M921.11,-143.49C1003.04,-127.45 1027.91,-129.38 1111.5,-109 1118.61,-107.27 1126.09,-105.2 1133.47,-103.06"/>
<polygon fill="midnightblue" stroke="midnightblue" points="920.23,-140.1 911.11,-145.49 921.6,-146.97 920.23,-140.1"/>
</g>
<!-- Node7 -->
<g id="node7" class="node">
<title>Node7</title>
<g id="a_node7"><a xlink:href="____dc__control_____8h.html" target="_top" xlink:title="Header file for dc_control.c.">
<polygon fill="white" stroke="black" points="173,-73 173,-103 286,-103 286,-73 173,-73"/>
<text text-anchor="start" x="181" y="-91" font-family="Helvetica,sans-Serif" font-size="10.00">swarm_bot_cpp/src/</text>
<text text-anchor="middle" x="229.5" y="-80" font-family="Helvetica,sans-Serif" font-size="10.00">__dc_control__.h</text>
</a>
</g>
</g>
<!-- Node2&#45;&gt;Node7 -->
<g id="edge8" class="edge">
<title>Node2&#45;&gt;Node7</title>
<path fill="none" stroke="midnightblue" d="M790.55,-158.18C682.91,-155.01 465.54,-144.37 285.5,-109 277.62,-107.45 269.34,-105.32 261.6,-103.01"/>
<polygon fill="midnightblue" stroke="midnightblue" points="790.52,-161.68 800.62,-158.46 790.72,-154.68 790.52,-161.68"/>
</g>
<!-- Node9 -->
<g id="node9" class="node">
<title>Node9</title>
<g id="a_node9"><a xlink:href="____format_____8h.html" target="_top" xlink:title="Header file for format.c.">
<polygon fill="white" stroke="black" points="304,-73 304,-103 417,-103 417,-73 304,-73"/>
<text text-anchor="start" x="312" y="-91" font-family="Helvetica,sans-Serif" font-size="10.00">swarm_bot_cpp/src/</text>
<text text-anchor="middle" x="360.5" y="-80" font-family="Helvetica,sans-Serif" font-size="10.00">__format__.h</text>
</a>
</g>
</g>
<!-- Node2&#45;&gt;Node9 -->
<g id="edge11" class="edge">
<title>Node2&#45;&gt;Node9</title>
<path fill="none" stroke="midnightblue" d="M790.8,-155.9C703.72,-150.13 547.28,-136.52 416.5,-109 408.87,-107.4 400.86,-105.29 393.32,-103.05"/>
<polygon fill="midnightblue" stroke="midnightblue" points="790.61,-159.4 800.81,-156.55 791.06,-152.41 790.61,-159.4"/>
</g>
<!-- Node11 -->
<g id="node11" class="node">
<title>Node11</title>
<g id="a_node11"><a xlink:href="_____i_n_t__0__1_____8h.html" target="_top" xlink:title="Header file for INT_0_1.c.">
<polygon fill="white" stroke="black" points="435,-73 435,-103 548,-103 548,-73 435,-73"/>
<text text-anchor="start" x="443" y="-91" font-family="Helvetica,sans-Serif" font-size="10.00">swarm_bot_cpp/src/</text>
<text text-anchor="middle" x="491.5" y="-80" font-family="Helvetica,sans-Serif" font-size="10.00">__INT_0_1__.h</text>
</a>
</g>
</g>
<!-- Node2&#45;&gt;Node11 -->
<g id="edge14" class="edge">
<title>Node2&#45;&gt;Node11</title>
<path fill="none" stroke="midnightblue" d="M790.65,-151.81C727.35,-143.43 630.17,-128.56 547.5,-109 540.26,-107.29 532.65,-105.21 525.42,-103.04"/>
<polygon fill="midnightblue" stroke="midnightblue" points="790.53,-155.32 800.9,-153.15 791.44,-148.38 790.53,-155.32"/>
</g>
<!-- Node13 -->
<g id="node13" class="node">
<title>Node13</title>
<g id="a_node13"><a xlink:href="____kinematics_____8h.html" target="_top" xlink:title="Header file for kimenatics.c.">
<polygon fill="white" stroke="black" points="566,-73 566,-103 679,-103 679,-73 566,-73"/>
<text text-anchor="start" x="574" y="-91" font-family="Helvetica,sans-Serif" font-size="10.00">swarm_bot_cpp/src/</text>
<text text-anchor="middle" x="622.5" y="-80" font-family="Helvetica,sans-Serif" font-size="10.00">__kinematics__.h</text>
</a>
</g>
</g>
<!-- Node2&#45;&gt;Node13 -->
<g id="edge17" class="edge">
<title>Node2&#45;&gt;Node13</title>
<path fill="none" stroke="midnightblue" d="M801.13,-142.59C760.91,-130.52 707.45,-114.48 669.52,-103.11"/>
<polygon fill="midnightblue" stroke="midnightblue" points="800.21,-145.97 810.79,-145.49 802.22,-139.26 800.21,-145.97"/>
</g>
<!-- Node15 -->
<g id="node15" class="node">
<title>Node15</title>
<g id="a_node15"><a xlink:href=".html" target="_top" xlink:title=" ">
<polygon fill="white" stroke="black" points="571.5,-6 571.5,-25 717.5,-25 717.5,-6 571.5,-6"/>
<text text-anchor="middle" x="644.5" y="-13" font-family="Helvetica,sans-Serif" font-size="10.00">swarm_bot_cpp/src/main.c</text>
</a>
</g>
</g>
<!-- Node2&#45;&gt;Node15 -->
<g id="edge36" class="edge">
<title>Node2&#45;&gt;Node15</title>
<path fill="none" stroke="midnightblue" d="M795.03,-142.24C772.27,-134.25 747.09,-123.29 726.5,-109 717.46,-102.73 670.32,-47.19 651.89,-25.3"/>
<polygon fill="midnightblue" stroke="midnightblue" points="794.02,-145.6 804.62,-145.49 796.27,-138.97 794.02,-145.6"/>
</g>
<!-- Node16 -->
<g id="node16" class="node">
<title>Node16</title>
<g id="a_node16"><a xlink:href="____odometry_____8h.html" target="_top" xlink:title="Header file for odometry.c.">
<polygon fill="white" stroke="black" points="736,-73 736,-103 849,-103 849,-73 736,-73"/>
<text text-anchor="start" x="744" y="-91" font-family="Helvetica,sans-Serif" font-size="10.00">swarm_bot_cpp/src/</text>
<text text-anchor="middle" x="792.5" y="-80" font-family="Helvetica,sans-Serif" font-size="10.00">__odometry__.h</text>
</a>
</g>
</g>
<!-- Node2&#45;&gt;Node16 -->
<g id="edge20" class="edge">
<title>Node2&#45;&gt;Node16</title>
<path fill="none" stroke="midnightblue" d="M831.59,-138.19C820.32,-126.87 808.02,-113.27 800.09,-103.25"/>
<polygon fill="midnightblue" stroke="midnightblue" points="829.2,-140.74 838.8,-145.23 834.1,-135.74 829.2,-140.74"/>
</g>
<!-- Node18 -->
<g id="node18" class="node">
<title>Node18</title>
<g id="a_node18"><a xlink:href="____pwm_____8h.html" target="_top" xlink:title="Header file for pwm.c.">
<polygon fill="white" stroke="black" points="867,-73 867,-103 980,-103 980,-73 867,-73"/>
<text text-anchor="start" x="875" y="-91" font-family="Helvetica,sans-Serif" font-size="10.00">swarm_bot_cpp/src/</text>
<text text-anchor="middle" x="923.5" y="-80" font-family="Helvetica,sans-Serif" font-size="10.00">__pwm__.h</text>
</a>
</g>
</g>
<!-- Node2&#45;&gt;Node18 -->
<g id="edge23" class="edge">
<title>Node2&#45;&gt;Node18</title>
<path fill="none" stroke="midnightblue" d="M871.8,-137.49C881.56,-126.22 894.34,-112.85 904.88,-103"/>
<polygon fill="midnightblue" stroke="midnightblue" points="869.05,-135.32 865.31,-145.23 874.41,-139.82 869.05,-135.32"/>
</g>
<!-- Node20 -->
<g id="node20" class="node">
<title>Node20</title>
<g id="a_node20"><a xlink:href="____timer0_____8h.html" target="_top" xlink:title="Header file for timer0.c.">
<polygon fill="white" stroke="black" points="998,-73 998,-103 1111,-103 1111,-73 998,-73"/>
<text text-anchor="start" x="1006" y="-91" font-family="Helvetica,sans-Serif" font-size="10.00">swarm_bot_cpp/src/</text>
<text text-anchor="middle" x="1054.5" y="-80" font-family="Helvetica,sans-Serif" font-size="10.00">__timer0__.h</text>
</a>
</g>
</g>
<!-- Node2&#45;&gt;Node20 -->
<g id="edge26" class="edge">
<title>Node2&#45;&gt;Node20</title>
<path fill="none" stroke="midnightblue" d="M900.99,-141.81C933.27,-129.83 977.05,-114.21 1009.65,-103.07"/>
<polygon fill="midnightblue" stroke="midnightblue" points="899.51,-138.63 891.37,-145.4 901.96,-145.18 899.51,-138.63"/>
</g>
<!-- Node22 -->
<g id="node22" class="node">
<title>Node22</title>
<g id="a_node22"><a xlink:href="____timer1_____8h.html" target="_top" xlink:title="Header file for timer1.c.">
<polygon fill="white" stroke="black" points="1299,-73 1299,-103 1412,-103 1412,-73 1299,-73"/>
<text text-anchor="start" x="1307" y="-91" font-family="Helvetica,sans-Serif" font-size="10.00">swarm_bot_cpp/src/</text>
<text text-anchor="middle" x="1355.5" y="-80" font-family="Helvetica,sans-Serif" font-size="10.00">__timer1__.h</text>
</a>
</g>
</g>
<!-- Node2&#45;&gt;Node22 -->
<g id="edge29" class="edge">
<title>Node2&#45;&gt;Node22</title>
<path fill="none" stroke="midnightblue" d="M921.05,-143.83C1075.06,-120.18 1120.04,-138.39 1275.5,-109 1283.93,-107.41 1292.81,-105.28 1301.49,-103"/>
<polygon fill="midnightblue" stroke="midnightblue" points="920.08,-140.44 910.74,-145.45 921.16,-147.36 920.08,-140.44"/>
</g>
<!-- Node24 -->
<g id="node24" class="node">
<title>Node24</title>
<g id="a_node24"><a xlink:href="____timer2_____8h.html" target="_top" xlink:title="Header file for timer2.c.">
<polygon fill="white" stroke="black" points="1430,-73 1430,-103 1543,-103 1543,-73 1430,-73"/>
<text text-anchor="start" x="1438" y="-91" font-family="Helvetica,sans-Serif" font-size="10.00">swarm_bot_cpp/src/</text>
<text text-anchor="middle" x="1486.5" y="-80" font-family="Helvetica,sans-Serif" font-size="10.00">__timer2__.h</text>
</a>
</g>
</g>
<!-- Node2&#45;&gt;Node24 -->
<g id="edge33" class="edge">
<title>Node2&#45;&gt;Node24</title>
<path fill="none" stroke="midnightblue" d="M920.41,-144.03C1135.36,-113.82 1197.26,-149.34 1412.5,-109 1420.51,-107.5 1428.92,-105.35 1437.11,-103.02"/>
<polygon fill="midnightblue" stroke="midnightblue" points="919.79,-140.59 910.39,-145.47 920.79,-147.52 919.79,-140.59"/>
</g>
<!-- Node4&#45;&gt;Node2 -->
<g id="edge7" class="edge">
<title>Node4&#45;&gt;Node2</title>
<path fill="none" stroke="midnightblue" d="M1141.38,-105.9C1137.39,-107 1133.39,-108.05 1129.5,-109 1042.6,-130.19 1019.17,-127.26 931.5,-145 925.95,-146.12 920.14,-147.35 914.31,-148.59"/>
<polygon fill="midnightblue" stroke="midnightblue" points="1142.58,-109.2 1151.22,-103.06 1140.64,-102.47 1142.58,-109.2"/>
</g>
<!-- Node5 -->
<g id="node5" class="node">
<title>Node5</title>
<g id="a_node5"><a xlink:href=".html" target="_top" xlink:title=" ">
<polygon fill="white" stroke="black" points="1129,-0.5 1129,-30.5 1242,-30.5 1242,-0.5 1129,-0.5"/>
<text text-anchor="start" x="1137" y="-18.5" font-family="Helvetica,sans-Serif" font-size="10.00">swarm_bot_cpp/src/</text>
<text text-anchor="middle" x="1185.5" y="-7.5" font-family="Helvetica,sans-Serif" font-size="10.00">__adc__.c</text>
</a>
</g>
</g>
<!-- Node4&#45;&gt;Node5 -->
<g id="edge4" class="edge">
<title>Node4&#45;&gt;Node5</title>
<path fill="none" stroke="midnightblue" d="M1185.5,-62.73C1185.5,-52.07 1185.5,-39.91 1185.5,-30.75"/>
<polygon fill="midnightblue" stroke="midnightblue" points="1182,-62.73 1185.5,-72.73 1189,-62.73 1182,-62.73"/>
</g>
<!-- Node6 -->
<g id="node6" class="node">
<title>Node6</title>
<g id="a_node6"><a xlink:href=".html" target="_top" xlink:title=" ">
<polygon fill="white" stroke="black" points="1260,-0.5 1260,-30.5 1373,-30.5 1373,-0.5 1260,-0.5"/>
<text text-anchor="start" x="1268" y="-18.5" font-family="Helvetica,sans-Serif" font-size="10.00">swarm_bot_cpp/src/</text>
<text text-anchor="middle" x="1316.5" y="-7.5" font-family="Helvetica,sans-Serif" font-size="10.00">__pin_map.h</text>
</a>
</g>
</g>
<!-- Node4&#45;&gt;Node6 -->
<g id="edge5" class="edge">
<title>Node4&#45;&gt;Node6</title>
<path fill="none" stroke="midnightblue" d="M1220.7,-68.06C1242.63,-56.26 1270.37,-41.33 1290.35,-30.57"/>
<polygon fill="midnightblue" stroke="midnightblue" points="1218.84,-65.08 1211.69,-72.9 1222.16,-71.25 1218.84,-65.08"/>
</g>
<!-- Node6&#45;&gt;Node2 -->
<g id="edge6" class="edge">
<title>Node6&#45;&gt;Node2</title>
<path fill="none" stroke="midnightblue" d="M1303.43,-39.37C1288.89,-63.97 1265.59,-100.68 1251.5,-109 1188.18,-146.41 995.06,-132.98 922.5,-145 919.76,-145.45 916.97,-145.95 914.15,-146.48"/>
<polygon fill="midnightblue" stroke="midnightblue" points="1306.52,-41.03 1308.54,-30.63 1300.48,-37.5 1306.52,-41.03"/>
</g>
<!-- Node7&#45;&gt;Node2 -->
<g id="edge10" class="edge">
<title>Node7&#45;&gt;Node2</title>
<path fill="none" stroke="midnightblue" d="M289.17,-105.71C294,-106.95 298.82,-108.08 303.5,-109 483.09,-144.28 699.82,-154.96 800.77,-158.16"/>
<polygon fill="midnightblue" stroke="midnightblue" points="289.83,-102.26 279.26,-103.01 287.99,-109.02 289.83,-102.26"/>
</g>
<!-- Node8 -->
<g id="node8" class="node">
<title>Node8</title>
<g id="a_node8"><a xlink:href="____dc__control_____8c.html" target="_top" xlink:title="Header file for dc_control.c.">
<polygon fill="white" stroke="black" points="47,-0.5 47,-30.5 160,-30.5 160,-0.5 47,-0.5"/>
<text text-anchor="start" x="55" y="-18.5" font-family="Helvetica,sans-Serif" font-size="10.00">swarm_bot_cpp/src/</text>
<text text-anchor="middle" x="103.5" y="-7.5" font-family="Helvetica,sans-Serif" font-size="10.00">__dc_control__.c</text>
</a>
</g>
</g>
<!-- Node7&#45;&gt;Node8 -->
<g id="edge9" class="edge">
<title>Node7&#45;&gt;Node8</title>
<path fill="none" stroke="midnightblue" d="M195.36,-67.9C174.31,-56.12 147.78,-41.28 128.65,-30.57"/>
<polygon fill="midnightblue" stroke="midnightblue" points="193.87,-71.07 204.3,-72.9 197.29,-64.97 193.87,-71.07"/>
</g>
<!-- Node9&#45;&gt;Node2 -->
<g id="edge13" class="edge">
<title>Node9&#45;&gt;Node2</title>
<path fill="none" stroke="midnightblue" d="M420.99,-105.78C425.55,-106.98 430.09,-108.07 434.5,-109 564.18,-136.29 719.09,-149.9 800.78,-155.76"/>
<polygon fill="midnightblue" stroke="midnightblue" points="421.58,-102.32 411.01,-103.05 419.73,-109.07 421.58,-102.32"/>
</g>
<!-- Node10 -->
<g id="node10" class="node">
<title>Node10</title>
<g id="a_node10"><a xlink:href="____format_____8c.html" target="_top" xlink:title="Header file for format.c.">
<polygon fill="white" stroke="black" points="178,-0.5 178,-30.5 291,-30.5 291,-0.5 178,-0.5"/>
<text text-anchor="start" x="186" y="-18.5" font-family="Helvetica,sans-Serif" font-size="10.00">swarm_bot_cpp/src/</text>
<text text-anchor="middle" x="234.5" y="-7.5" font-family="Helvetica,sans-Serif" font-size="10.00">__format__.c</text>
</a>
</g>
</g>
<!-- Node9&#45;&gt;Node10 -->
<g id="edge12" class="edge">
<title>Node9&#45;&gt;Node10</title>
<path fill="none" stroke="midnightblue" d="M326.36,-67.9C305.31,-56.12 278.78,-41.28 259.65,-30.57"/>
<polygon fill="midnightblue" stroke="midnightblue" points="324.87,-71.07 335.3,-72.9 328.29,-64.97 324.87,-71.07"/>
</g>
<!-- Node11&#45;&gt;Node2 -->
<g id="edge16" class="edge">
<title>Node11&#45;&gt;Node2</title>
<path fill="none" stroke="midnightblue" d="M553.02,-105.81C557.24,-106.96 561.43,-108.04 565.5,-109 646.58,-128.19 741.63,-142.86 800.8,-151.32"/>
<polygon fill="midnightblue" stroke="midnightblue" points="553.73,-102.37 543.15,-103.04 551.83,-109.11 553.73,-102.37"/>
</g>
<!-- Node12 -->
<g id="node12" class="node">
<title>Node12</title>
<g id="a_node12"><a xlink:href=".html" target="_top" xlink:title=" ">
<polygon fill="white" stroke="black" points="309,-0.5 309,-30.5 422,-30.5 422,-0.5 309,-0.5"/>
<text text-anchor="start" x="317" y="-18.5" font-family="Helvetica,sans-Serif" font-size="10.00">swarm_bot_cpp/src/</text>
<text text-anchor="middle" x="365.5" y="-7.5" font-family="Helvetica,sans-Serif" font-size="10.00">__INT_0_1__.c</text>
</a>
</g>
</g>
<!-- Node11&#45;&gt;Node12 -->
<g id="edge15" class="edge">
<title>Node11&#45;&gt;Node12</title>
<path fill="none" stroke="midnightblue" d="M457.36,-67.9C436.31,-56.12 409.78,-41.28 390.65,-30.57"/>
<polygon fill="midnightblue" stroke="midnightblue" points="455.87,-71.07 466.3,-72.9 459.29,-64.97 455.87,-71.07"/>
</g>
<!-- Node14 -->
<g id="node14" class="node">
<title>Node14</title>
<g id="a_node14"><a xlink:href=".html" target="_top" xlink:title=" ">
<polygon fill="white" stroke="black" points="440,-0.5 440,-30.5 553,-30.5 553,-0.5 440,-0.5"/>
<text text-anchor="start" x="448" y="-18.5" font-family="Helvetica,sans-Serif" font-size="10.00">swarm_bot_cpp/src/</text>
<text text-anchor="middle" x="496.5" y="-7.5" font-family="Helvetica,sans-Serif" font-size="10.00">__kinematics__.c</text>
</a>
</g>
</g>
<!-- Node13&#45;&gt;Node14 -->
<g id="edge18" class="edge">
<title>Node13&#45;&gt;Node14</title>
<path fill="none" stroke="midnightblue" d="M588.36,-67.9C567.31,-56.12 540.78,-41.28 521.65,-30.57"/>
<polygon fill="midnightblue" stroke="midnightblue" points="586.87,-71.07 597.3,-72.9 590.29,-64.97 586.87,-71.07"/>
</g>
<!-- Node13&#45;&gt;Node15 -->
<g id="edge19" class="edge">
<title>Node13&#45;&gt;Node15</title>
<path fill="none" stroke="midnightblue" d="M630,-62.98C634.04,-50.01 638.79,-34.79 641.72,-25.39"/>
<polygon fill="midnightblue" stroke="midnightblue" points="626.59,-62.14 626.95,-72.73 633.27,-64.23 626.59,-62.14"/>
</g>
<!-- Node16&#45;&gt;Node2 -->
<g id="edge22" class="edge">
<title>Node16&#45;&gt;Node2</title>
<path fill="none" stroke="midnightblue" d="M818.16,-110.07C829.49,-121.42 841.91,-135.13 849.89,-145.23"/>
<polygon fill="midnightblue" stroke="midnightblue" points="820.53,-107.48 810.93,-103 815.64,-112.49 820.53,-107.48"/>
</g>
<!-- Node17 -->
<g id="node17" class="node">
<title>Node17</title>
<g id="a_node17"><a xlink:href=".html" target="_top" xlink:title=" ">
<polygon fill="white" stroke="black" points="736,-0.5 736,-30.5 849,-30.5 849,-0.5 736,-0.5"/>
<text text-anchor="start" x="744" y="-18.5" font-family="Helvetica,sans-Serif" font-size="10.00">swarm_bot_cpp/src/</text>
<text text-anchor="middle" x="792.5" y="-7.5" font-family="Helvetica,sans-Serif" font-size="10.00">__odometry__.c</text>
</a>
</g>
</g>
<!-- Node16&#45;&gt;Node17 -->
<g id="edge21" class="edge">
<title>Node16&#45;&gt;Node17</title>
<path fill="none" stroke="midnightblue" d="M792.5,-62.73C792.5,-52.07 792.5,-39.91 792.5,-30.75"/>
<polygon fill="midnightblue" stroke="midnightblue" points="789,-62.73 792.5,-72.73 796,-62.73 789,-62.73"/>
</g>
<!-- Node18&#45;&gt;Node2 -->
<g id="edge25" class="edge">
<title>Node18&#45;&gt;Node2</title>
<path fill="none" stroke="midnightblue" d="M909.27,-110.94C899.59,-122.12 886.91,-135.39 876.4,-145.23"/>
<polygon fill="midnightblue" stroke="midnightblue" points="911.97,-113.16 915.71,-103.25 906.6,-108.66 911.97,-113.16"/>
</g>
<!-- Node19 -->
<g id="node19" class="node">
<title>Node19</title>
<g id="a_node19"><a xlink:href=".html" target="_top" xlink:title=" ">
<polygon fill="white" stroke="black" points="867,-0.5 867,-30.5 980,-30.5 980,-0.5 867,-0.5"/>
<text text-anchor="start" x="875" y="-18.5" font-family="Helvetica,sans-Serif" font-size="10.00">swarm_bot_cpp/src/</text>
<text text-anchor="middle" x="923.5" y="-7.5" font-family="Helvetica,sans-Serif" font-size="10.00">__pwm__.c</text>
</a>
</g>
</g>
<!-- Node18&#45;&gt;Node19 -->
<g id="edge24" class="edge">
<title>Node18&#45;&gt;Node19</title>
<path fill="none" stroke="midnightblue" d="M923.5,-62.73C923.5,-52.07 923.5,-39.91 923.5,-30.75"/>
<polygon fill="midnightblue" stroke="midnightblue" points="920,-62.73 923.5,-72.73 927,-62.73 920,-62.73"/>
</g>
<!-- Node20&#45;&gt;Node2 -->
<g id="edge27" class="edge">
<title>Node20&#45;&gt;Node2</title>
<path fill="none" stroke="midnightblue" d="M1011.08,-106.66C978.82,-118.64 935.04,-134.26 902.42,-145.4"/>
<polygon fill="midnightblue" stroke="midnightblue" points="1012.55,-109.85 1020.7,-103.07 1010.11,-103.29 1012.55,-109.85"/>
</g>
<!-- Node21 -->
<g id="node21" class="node">
<title>Node21</title>
<g id="a_node21"><a xlink:href=".html" target="_top" xlink:title=" ">
<polygon fill="white" stroke="black" points="998,-0.5 998,-30.5 1111,-30.5 1111,-0.5 998,-0.5"/>
<text text-anchor="start" x="1006" y="-18.5" font-family="Helvetica,sans-Serif" font-size="10.00">swarm_bot_cpp/src/</text>
<text text-anchor="middle" x="1054.5" y="-7.5" font-family="Helvetica,sans-Serif" font-size="10.00">__timer0__.c</text>
</a>
</g>
</g>
<!-- Node20&#45;&gt;Node21 -->
<g id="edge28" class="edge">
<title>Node20&#45;&gt;Node21</title>
<path fill="none" stroke="midnightblue" d="M1054.5,-62.73C1054.5,-52.07 1054.5,-39.91 1054.5,-30.75"/>
<polygon fill="midnightblue" stroke="midnightblue" points="1051,-62.73 1054.5,-72.73 1058,-62.73 1051,-62.73"/>
</g>
<!-- Node22&#45;&gt;Node2 -->
<g id="edge31" class="edge">
<title>Node22&#45;&gt;Node2</title>
<path fill="none" stroke="midnightblue" d="M1309.19,-105.58C1303.94,-106.86 1298.64,-108.03 1293.5,-109 1134.63,-139.03 1091.14,-119.35 931.5,-145 925.91,-145.9 920.07,-146.98 914.23,-148.15"/>
<polygon fill="midnightblue" stroke="midnightblue" points="1310.36,-108.89 1319.17,-103 1308.61,-102.11 1310.36,-108.89"/>
</g>
<!-- Node22&#45;&gt;Node6 -->
<g id="edge30" class="edge">
<title>Node22&#45;&gt;Node6</title>
<path fill="none" stroke="midnightblue" d="M1342.63,-63.73C1336.6,-52.83 1329.61,-40.2 1324.38,-30.75"/>
<polygon fill="midnightblue" stroke="midnightblue" points="1339.7,-65.68 1347.61,-72.73 1345.83,-62.29 1339.7,-65.68"/>
</g>
<!-- Node23 -->
<g id="node23" class="node">
<title>Node23</title>
<g id="a_node23"><a xlink:href=".html" target="_top" xlink:title=" ">
<polygon fill="white" stroke="black" points="1391,-0.5 1391,-30.5 1504,-30.5 1504,-0.5 1391,-0.5"/>
<text text-anchor="start" x="1399" y="-18.5" font-family="Helvetica,sans-Serif" font-size="10.00">swarm_bot_cpp/src/</text>
<text text-anchor="middle" x="1447.5" y="-7.5" font-family="Helvetica,sans-Serif" font-size="10.00">__timer1__.c</text>
</a>
</g>
</g>
<!-- Node22&#45;&gt;Node23 -->
<g id="edge32" class="edge">
<title>Node22&#45;&gt;Node23</title>
<path fill="none" stroke="midnightblue" d="M1382.11,-66.61C1397.22,-55.03 1415.75,-40.83 1429.22,-30.5"/>
<polygon fill="midnightblue" stroke="midnightblue" points="1379.93,-63.87 1374.12,-72.73 1384.18,-69.43 1379.93,-63.87"/>
</g>
<!-- Node24&#45;&gt;Node2 -->
<g id="edge34" class="edge">
<title>Node24&#45;&gt;Node2</title>
<path fill="none" stroke="midnightblue" d="M1444.99,-105.74C1440.15,-106.99 1435.25,-108.11 1430.5,-109 1211.95,-149.96 1151.5,-112.71 931.5,-145 925.89,-145.82 920.05,-146.86 914.21,-148"/>
<polygon fill="midnightblue" stroke="midnightblue" points="1446.07,-109.07 1454.76,-103.02 1444.19,-102.33 1446.07,-109.07"/>
</g>
<!-- Node25 -->
<g id="node25" class="node">
<title>Node25</title>
<g id="a_node25"><a xlink:href=".html" target="_top" xlink:title=" ">
<polygon fill="white" stroke="black" points="1522,-0.5 1522,-30.5 1635,-30.5 1635,-0.5 1522,-0.5"/>
<text text-anchor="start" x="1530" y="-18.5" font-family="Helvetica,sans-Serif" font-size="10.00">swarm_bot_cpp/src/</text>
<text text-anchor="middle" x="1578.5" y="-7.5" font-family="Helvetica,sans-Serif" font-size="10.00">__timer2__.c</text>
</a>
</g>
</g>
<!-- Node24&#45;&gt;Node25 -->
<g id="edge35" class="edge">
<title>Node24&#45;&gt;Node25</title>
<path fill="none" stroke="midnightblue" d="M1513.11,-66.61C1528.22,-55.03 1546.75,-40.83 1560.22,-30.5"/>
<polygon fill="midnightblue" stroke="midnightblue" points="1510.93,-63.87 1505.12,-72.73 1515.18,-69.43 1510.93,-63.87"/>
</g>
</g>
</svg>
