<?xml version="1.0" encoding="UTF-8" standalone="no"?>
<!DOCTYPE svg PUBLIC "-//W3C//DTD SVG 1.1//EN"
 "http://www.w3.org/Graphics/SVG/1.1/DTD/svg11.dtd">
<!-- Generated by graphviz version 2.43.0 (0)
 -->
<!-- Title: swarm_bot_cpp/src/asf.h Pages: 1 -->
<svg width="639pt" height="252pt"
 viewBox="0.00 0.00 639.00 252.00" xmlns="http://www.w3.org/2000/svg" xmlns:xlink="http://www.w3.org/1999/xlink">
<g id="graph0" class="graph" transform="scale(1 1) rotate(0) translate(4 248)">
<title>swarm_bot_cpp/src/asf.h</title>
<polygon fill="white" stroke="transparent" points="-4,4 -4,-248 635,-248 635,4 -4,4"/>
<!-- Node1 -->
<g id="node1" class="node">
<title>Node1</title>
<g id="a_node1"><a xlink:title="Autogenerated API include file for the Atmel Software Framework (ASF)">
<polygon fill="#bfbfbf" stroke="black" points="276.5,-224.5 276.5,-243.5 413.5,-243.5 413.5,-224.5 276.5,-224.5"/>
<text text-anchor="middle" x="345" y="-231.5" font-family="Helvetica,sans-Serif" font-size="10.00">swarm_bot_cpp/src/asf.h</text>
</a>
</g>
</g>
<!-- Node2 -->
<g id="node2" class="node">
<title>Node2</title>
<g id="a_node2"><a xlink:href="user__board_8h.html" target="_top" xlink:title="User board definition template.">
<polygon fill="white" stroke="black" points="0,-168.5 0,-187.5 80,-187.5 80,-168.5 0,-168.5"/>
<text text-anchor="middle" x="40" y="-175.5" font-family="Helvetica,sans-Serif" font-size="10.00">user_board.h</text>
</a>
</g>
</g>
<!-- Node1&#45;&gt;Node2 -->
<g id="edge1" class="edge">
<title>Node1&#45;&gt;Node2</title>
<path fill="none" stroke="midnightblue" d="M296.67,-224.44C240.26,-214.46 147.42,-198.02 90.21,-187.89"/>
<polygon fill="midnightblue" stroke="midnightblue" points="90.77,-184.43 80.31,-186.14 89.55,-191.33 90.77,-184.43"/>
</g>
<!-- Node4 -->
<g id="node4" class="node">
<title>Node4</title>
<g id="a_node4"><a xlink:href="board_8h.html" target="_top" xlink:title="Standard board header file.">
<polygon fill="white" stroke="black" points="291.5,-168.5 291.5,-187.5 344.5,-187.5 344.5,-168.5 291.5,-168.5"/>
<text text-anchor="middle" x="318" y="-175.5" font-family="Helvetica,sans-Serif" font-size="10.00">board.h</text>
</a>
</g>
</g>
<!-- Node1&#45;&gt;Node4 -->
<g id="edge3" class="edge">
<title>Node1&#45;&gt;Node4</title>
<path fill="none" stroke="midnightblue" d="M340.54,-224.08C336.85,-216.69 331.48,-205.95 326.91,-196.81"/>
<polygon fill="midnightblue" stroke="midnightblue" points="329.98,-195.13 322.38,-187.75 323.72,-198.26 329.98,-195.13"/>
</g>
<!-- Node5 -->
<g id="node5" class="node">
<title>Node5</title>
<g id="a_node5"><a xlink:href="compiler_8h.html" target="_top" xlink:title="Commonly used includes, types and macros.">
<polygon fill="white" stroke="black" points="327,-112.5 327,-131.5 395,-131.5 395,-112.5 327,-112.5"/>
<text text-anchor="middle" x="361" y="-119.5" font-family="Helvetica,sans-Serif" font-size="10.00">compiler.h</text>
</a>
</g>
</g>
<!-- Node1&#45;&gt;Node5 -->
<g id="edge14" class="edge">
<title>Node1&#45;&gt;Node5</title>
<path fill="none" stroke="midnightblue" d="M346.67,-224.4C348.39,-215.36 351.09,-200.71 353,-188 355.33,-172.52 357.46,-154.89 358.94,-141.9"/>
<polygon fill="midnightblue" stroke="midnightblue" points="362.43,-142.18 360.06,-131.85 355.48,-141.4 362.43,-142.18"/>
</g>
<!-- Node10 -->
<g id="node10" class="node">
<title>Node10</title>
<g id="a_node10"><a xlink:href="parts_8h.html" target="_top" xlink:title="Atmel part identification macros.">
<polygon fill="white" stroke="black" points="510,-0.5 510,-19.5 560,-19.5 560,-0.5 510,-0.5"/>
<text text-anchor="middle" x="535" y="-7.5" font-family="Helvetica,sans-Serif" font-size="10.00">parts.h</text>
</a>
</g>
</g>
<!-- Node1&#45;&gt;Node10 -->
<g id="edge16" class="edge">
<title>Node1&#45;&gt;Node10</title>
<path fill="none" stroke="midnightblue" d="M317.22,-224.46C244.65,-200.84 59.5,-131.35 127,-56 151.69,-28.43 404.99,-15.97 499.61,-12.26"/>
<polygon fill="midnightblue" stroke="midnightblue" points="499.96,-15.74 509.82,-11.86 499.69,-8.75 499.96,-15.74"/>
</g>
<!-- Node11 -->
<g id="node11" class="node">
<title>Node11</title>
<g id="a_node11"><a xlink:href="interrupt_8h.html" target="_top" xlink:title="Global interrupt management for 8&#45; and 32&#45;bit AVR.">
<polygon fill="white" stroke="black" points="563,-56.5 563,-75.5 631,-75.5 631,-56.5 563,-56.5"/>
<text text-anchor="middle" x="597" y="-63.5" font-family="Helvetica,sans-Serif" font-size="10.00">interrupt.h</text>
</a>
</g>
</g>
<!-- Node1&#45;&gt;Node11 -->
<g id="edge13" class="edge">
<title>Node1&#45;&gt;Node11</title>
<path fill="none" stroke="midnightblue" d="M357.98,-224.36C376.74,-211.88 412.49,-188.12 443,-168 490.17,-136.89 545.6,-100.6 575.41,-81.11"/>
<polygon fill="midnightblue" stroke="midnightblue" points="577.35,-84.03 583.8,-75.62 573.52,-78.17 577.35,-84.03"/>
</g>
<!-- Node13 -->
<g id="node13" class="node">
<title>Node13</title>
<g id="a_node13"><a xlink:href="status__codes_8h.html" target="_top" xlink:title="Status code definitions.">
<polygon fill="white" stroke="black" points="451.5,-168.5 451.5,-187.5 540.5,-187.5 540.5,-168.5 451.5,-168.5"/>
<text text-anchor="middle" x="496" y="-175.5" font-family="Helvetica,sans-Serif" font-size="10.00">status_codes.h</text>
</a>
</g>
</g>
<!-- Node1&#45;&gt;Node13 -->
<g id="edge15" class="edge">
<title>Node1&#45;&gt;Node13</title>
<path fill="none" stroke="midnightblue" d="M368.93,-224.44C394.22,-215.4 434.3,-201.06 462.68,-190.92"/>
<polygon fill="midnightblue" stroke="midnightblue" points="463.95,-194.18 472.19,-187.52 461.59,-187.59 463.95,-194.18"/>
</g>
<!-- Node3 -->
<g id="node3" class="node">
<title>Node3</title>
<g id="a_node3"><a xlink:href="conf__board_8h.html" target="_top" xlink:title="User board configuration template.">
<polygon fill="white" stroke="black" points="0,-112.5 0,-131.5 80,-131.5 80,-112.5 0,-112.5"/>
<text text-anchor="middle" x="40" y="-119.5" font-family="Helvetica,sans-Serif" font-size="10.00">conf_board.h</text>
</a>
</g>
</g>
<!-- Node2&#45;&gt;Node3 -->
<g id="edge2" class="edge">
<title>Node2&#45;&gt;Node3</title>
<path fill="none" stroke="midnightblue" d="M40,-168.08C40,-161.01 40,-150.86 40,-141.99"/>
<polygon fill="midnightblue" stroke="midnightblue" points="43.5,-141.75 40,-131.75 36.5,-141.75 43.5,-141.75"/>
</g>
<!-- Node4&#45;&gt;Node5 -->
<g id="edge4" class="edge">
<title>Node4&#45;&gt;Node5</title>
<path fill="none" stroke="midnightblue" d="M325.1,-168.08C331.24,-160.38 340.27,-149.03 347.74,-139.65"/>
<polygon fill="midnightblue" stroke="midnightblue" points="350.54,-141.75 354.03,-131.75 345.06,-137.39 350.54,-141.75"/>
</g>
<!-- Node6 -->
<g id="node6" class="node">
<title>Node6</title>
<g id="a_node6"><a xlink:title=" ">
<polygon fill="white" stroke="#bfbfbf" points="373,-56.5 373,-75.5 435,-75.5 435,-56.5 373,-56.5"/>
<text text-anchor="middle" x="404" y="-63.5" font-family="Helvetica,sans-Serif" font-size="10.00">stdbool.h</text>
</a>
</g>
</g>
<!-- Node5&#45;&gt;Node6 -->
<g id="edge5" class="edge">
<title>Node5&#45;&gt;Node6</title>
<path fill="none" stroke="midnightblue" d="M368.1,-112.08C374.24,-104.38 383.27,-93.03 390.74,-83.65"/>
<polygon fill="midnightblue" stroke="midnightblue" points="393.54,-85.75 397.03,-75.75 388.06,-81.39 393.54,-85.75"/>
</g>
<!-- Node7 -->
<g id="node7" class="node">
<title>Node7</title>
<g id="a_node7"><a xlink:title=" ">
<polygon fill="white" stroke="#bfbfbf" points="453.5,-56.5 453.5,-75.5 506.5,-75.5 506.5,-56.5 453.5,-56.5"/>
<text text-anchor="middle" x="480" y="-63.5" font-family="Helvetica,sans-Serif" font-size="10.00">stdint.h</text>
</a>
</g>
</g>
<!-- Node5&#45;&gt;Node7 -->
<g id="edge6" class="edge">
<title>Node5&#45;&gt;Node7</title>
<path fill="none" stroke="midnightblue" d="M379.86,-112.44C399.27,-103.64 429.73,-89.81 451.96,-79.72"/>
<polygon fill="midnightblue" stroke="midnightblue" points="453.57,-82.84 461.23,-75.52 450.68,-76.46 453.57,-82.84"/>
</g>
<!-- Node8 -->
<g id="node8" class="node">
<title>Node8</title>
<g id="a_node8"><a xlink:title=" ">
<polygon fill="white" stroke="#bfbfbf" points="136,-56.5 136,-75.5 192,-75.5 192,-56.5 136,-56.5"/>
<text text-anchor="middle" x="164" y="-63.5" font-family="Helvetica,sans-Serif" font-size="10.00">stddef.h</text>
</a>
</g>
</g>
<!-- Node5&#45;&gt;Node8 -->
<g id="edge7" class="edge">
<title>Node5&#45;&gt;Node8</title>
<path fill="none" stroke="midnightblue" d="M329.78,-112.44C295.17,-102.96 239.33,-87.65 202.16,-77.46"/>
<polygon fill="midnightblue" stroke="midnightblue" points="202.77,-74 192.2,-74.73 200.92,-80.75 202.77,-74"/>
</g>
<!-- Node9 -->
<g id="node9" class="node">
<title>Node9</title>
<g id="a_node9"><a xlink:title=" ">
<polygon fill="white" stroke="#bfbfbf" points="210.5,-56.5 210.5,-75.5 263.5,-75.5 263.5,-56.5 210.5,-56.5"/>
<text text-anchor="middle" x="237" y="-63.5" font-family="Helvetica,sans-Serif" font-size="10.00">stdlib.h</text>
</a>
</g>
</g>
<!-- Node5&#45;&gt;Node9 -->
<g id="edge8" class="edge">
<title>Node5&#45;&gt;Node9</title>
<path fill="none" stroke="midnightblue" d="M341.35,-112.44C321.04,-103.6 289.1,-89.69 265.9,-79.59"/>
<polygon fill="midnightblue" stroke="midnightblue" points="267.12,-76.3 256.56,-75.52 264.33,-82.72 267.12,-76.3"/>
</g>
<!-- Node5&#45;&gt;Node10 -->
<g id="edge9" class="edge">
<title>Node5&#45;&gt;Node10</title>
<path fill="none" stroke="midnightblue" d="M395.13,-112.94C438.08,-102.51 507.32,-84.66 516,-76 528.08,-63.94 532.57,-44.65 534.19,-30.21"/>
<polygon fill="midnightblue" stroke="midnightblue" points="537.71,-30.14 534.97,-19.91 530.73,-29.61 537.71,-30.14"/>
</g>
<!-- Node5&#45;&gt;Node11 -->
<g id="edge10" class="edge">
<title>Node5&#45;&gt;Node11</title>
<path fill="none" stroke="midnightblue" d="M395.06,-113.21C436.72,-103.67 507.3,-87.52 553.02,-77.06"/>
<polygon fill="midnightblue" stroke="midnightblue" points="553.98,-80.43 562.95,-74.79 552.42,-73.61 553.98,-80.43"/>
</g>
<!-- Node12 -->
<g id="node12" class="node">
<title>Node12</title>
<g id="a_node12"><a xlink:href="progmem_8h.html" target="_top" xlink:title="Program memory access.">
<polygon fill="white" stroke="black" points="281.5,-56.5 281.5,-75.5 354.5,-75.5 354.5,-56.5 281.5,-56.5"/>
<text text-anchor="middle" x="318" y="-63.5" font-family="Helvetica,sans-Serif" font-size="10.00">progmem.h</text>
</a>
</g>
</g>
<!-- Node5&#45;&gt;Node12 -->
<g id="edge12" class="edge">
<title>Node5&#45;&gt;Node12</title>
<path fill="none" stroke="midnightblue" d="M353.9,-112.08C347.76,-104.38 338.73,-93.03 331.26,-83.65"/>
<polygon fill="midnightblue" stroke="midnightblue" points="333.94,-81.39 324.97,-75.75 328.46,-85.75 333.94,-81.39"/>
</g>
<!-- Node11&#45;&gt;Node10 -->
<g id="edge11" class="edge">
<title>Node11&#45;&gt;Node10</title>
<path fill="none" stroke="midnightblue" d="M587.04,-56.32C577.87,-48.34 564.06,-36.31 552.97,-26.65"/>
<polygon fill="midnightblue" stroke="midnightblue" points="554.98,-23.76 545.14,-19.83 550.38,-29.04 554.98,-23.76"/>
</g>
</g>
</svg>
