<?xml version="1.0" encoding="UTF-8" standalone="no"?>
<!DOCTYPE svg PUBLIC "-//W3C//DTD SVG 1.1//EN"
 "http://www.w3.org/Graphics/SVG/1.1/DTD/svg11.dtd">
<!-- Generated by graphviz version 2.43.0 (0)
 -->
<!-- Title: swarm_bot_cpp/src/asf.h Pages: 1 -->
<!--zoomable 296 -->
<svg id="main" version="1.1" xmlns="http://www.w3.org/2000/svg" xmlns:xlink="http://www.w3.org/1999/xlink" xml:space="preserve" onload="init(evt)">
<style type="text/css"><![CDATA[
.edge:hover path { stroke: red; }
.edge:hover polygon { stroke: red; fill: red; }
]]></style>
<script type="text/javascript"><![CDATA[
var edges = document.getElementsByTagName('g');
if (edges && edges.length) {
  for (var i=0;i<edges.length;i++) {
    if (edges[i].id.substr(0,4)=='edge') {
      edges[i].setAttribute('class','edge');
    }
  }
}
]]></script>
        <defs>
                <circle id="rim" cx="0" cy="0" r="7"/>
                <circle id="rim2" cx="0" cy="0" r="3.5"/>
                <g id="zoomPlus">
                        <use xlink:href="#rim" fill="#404040">
                                <set attributeName="fill" to="#808080" begin="zoomplus.mouseover" end="zoomplus.mouseout"/>
                        </use>
                        <path d="M-4,0h8M0,-4v8" fill="none" stroke="white" stroke-width="1.5" pointer-events="none"/>
                </g>
                <g id="zoomMin">
                        <use xlink:href="#rim" fill="#404040">
                                <set attributeName="fill" to="#808080" begin="zoomminus.mouseover" end="zoomminus.mouseout"/>
                        </use>
                        <path d="M-4,0h8" fill="none" stroke="white" stroke-width="1.5" pointer-events="none"/>
                </g>
                <g id="dirArrow">
                        <path fill="none" stroke="white" stroke-width="1.5" d="M0,-3.0v7 M-2.5,-0.5L0,-3.0L2.5,-0.5"/>
                </g>
               <g id="resetDef">
                       <use xlink:href="#rim2" fill="#404040">
                               <set attributeName="fill" to="#808080" begin="reset.mouseover" end="reset.mouseout"/>
                       </use>
               </g>
        </defs>

<script type="text/javascript">
var viewWidth = 1512;
var viewHeight = 296;
var sectionId = 'dynsection-1';
</script>
<script xlink:href="svgpan.js"/>
<svg id="graph" class="graph">
<g id="viewport">
<title>swarm_bot_cpp/src/asf.h</title>
<polygon fill="white" stroke="transparent" points="-4,4 -4,-292 1508,-292 1508,4 -4,4"/>
<!-- Node1 -->
<g id="node1" class="node">
<title>Node1</title>
<g id="a_node1"><a xlink:title="Autogenerated API include file for the Atmel Software Framework (ASF)">
<polygon fill="#bfbfbf" stroke="black" points="596,-268.5 596,-287.5 733,-287.5 733,-268.5 596,-268.5"/>
<text text-anchor="middle" x="664.5" y="-275.5" font-family="Helvetica,sans-Serif" font-size="10.00">swarm_bot_cpp/src/asf.h</text>
</a>
</g>
</g>
<!-- Node2 -->
<g id="node2" class="node">
<title>Node2</title>
<g id="a_node2"><a xlink:href=".html" target="_top" xlink:title=" ">
<polygon fill="white" stroke="black" points="481,-201.5 481,-231.5 594,-231.5 594,-201.5 481,-201.5"/>
<text text-anchor="start" x="489" y="-219.5" font-family="Helvetica,sans-Serif" font-size="10.00">swarm_bot_cpp/src/</text>
<text text-anchor="middle" x="537.5" y="-208.5" font-family="Helvetica,sans-Serif" font-size="10.00">__pin_map.h</text>
</a>
</g>
</g>
<!-- Node1&#45;&gt;Node2 -->
<g id="edge1" class="edge">
<title>Node1&#45;&gt;Node2</title>
<path fill="none" stroke="midnightblue" d="M637.18,-264.2C616.66,-254.58 588.56,-241.42 567.43,-231.52"/>
<polygon fill="midnightblue" stroke="midnightblue" points="635.76,-267.4 646.3,-268.48 638.73,-261.06 635.76,-267.4"/>
</g>
<!-- Node3 -->
<g id="node3" class="node">
<title>Node3</title>
<g id="a_node3"><a xlink:href="____swarm__wold_____8h.html" target="_top" xlink:title="Header file for dummy purposes.">
<polygon fill="white" stroke="black" points="566,-134.5 566,-164.5 679,-164.5 679,-134.5 566,-134.5"/>
<text text-anchor="start" x="574" y="-152.5" font-family="Helvetica,sans-Serif" font-size="10.00">swarm_bot_cpp/src/</text>
<text text-anchor="middle" x="622.5" y="-141.5" font-family="Helvetica,sans-Serif" font-size="10.00">__swarm_wold__.h</text>
</a>
</g>
</g>
<!-- Node1&#45;&gt;Node3 -->
<g id="edge27" class="edge">
<title>Node1&#45;&gt;Node3</title>
<path fill="none" stroke="midnightblue" d="M654.26,-259.44C649.85,-251.3 644.93,-241.37 641.5,-232 633.11,-209.08 627.55,-181.14 624.72,-164.64"/>
<polygon fill="midnightblue" stroke="midnightblue" points="651.31,-261.32 659.26,-268.32 657.41,-257.89 651.31,-261.32"/>
</g>
<!-- Node25 -->
<g id="node15" class="node">
<title>Node25</title>
<g id="a_node15"><a xlink:href="init_8c.html" target="_top" xlink:title="User board initialization template.">
<polygon fill="white" stroke="black" points="1349,-56.5 1349,-97.5 1504,-97.5 1504,-56.5 1349,-56.5"/>
<text text-anchor="start" x="1357" y="-85.5" font-family="Helvetica,sans-Serif" font-size="10.00">swarm_bot_cpp/src/ASF</text>
<text text-anchor="start" x="1357" y="-74.5" font-family="Helvetica,sans-Serif" font-size="10.00">/common/boards/user_board</text>
<text text-anchor="middle" x="1426.5" y="-63.5" font-family="Helvetica,sans-Serif" font-size="10.00">/init.c</text>
</a>
</g>
</g>
<!-- Node1&#45;&gt;Node25 -->
<g id="edge31" class="edge">
<title>Node1&#45;&gt;Node25</title>
<path fill="none" stroke="midnightblue" d="M707.14,-265.86C831.3,-233.44 1193.78,-138.78 1351.61,-97.56"/>
<polygon fill="midnightblue" stroke="midnightblue" points="706.03,-262.54 697.24,-268.45 707.8,-269.31 706.03,-262.54"/>
</g>
<!-- Node26 -->
<g id="node16" class="node">
<title>Node26</title>
<g id="a_node16"><a xlink:href="____usart_____8h.html" target="_top" xlink:title="Header file for pid.c.">
<polygon fill="white" stroke="black" points="651,-201.5 651,-231.5 764,-231.5 764,-201.5 651,-201.5"/>
<text text-anchor="start" x="659" y="-219.5" font-family="Helvetica,sans-Serif" font-size="10.00">swarm_bot_cpp/src/</text>
<text text-anchor="middle" x="707.5" y="-208.5" font-family="Helvetica,sans-Serif" font-size="10.00">__usart__.h</text>
</a>
</g>
</g>
<!-- Node1&#45;&gt;Node26 -->
<g id="edge28" class="edge">
<title>Node1&#45;&gt;Node26</title>
<path fill="none" stroke="midnightblue" d="M676.61,-260.25C683.16,-251.19 691.15,-240.12 697.37,-231.52"/>
<polygon fill="midnightblue" stroke="midnightblue" points="673.68,-258.32 670.66,-268.48 679.36,-262.42 673.68,-258.32"/>
</g>
<!-- Node2&#45;&gt;Node3 -->
<g id="edge2" class="edge">
<title>Node2&#45;&gt;Node3</title>
<path fill="none" stroke="midnightblue" d="M564.09,-195.17C577.09,-185.23 592.4,-173.51 604.09,-164.58"/>
<polygon fill="midnightblue" stroke="midnightblue" points="561.76,-192.54 555.94,-201.4 566.01,-198.1 561.76,-192.54"/>
</g>
<!-- Node4 -->
<g id="node4" class="node">
<title>Node4</title>
<g id="a_node4"><a xlink:href="____adc_____8h.html" target="_top" xlink:title="Header file for adc.c.">
<polygon fill="white" stroke="red" points="131,-62 131,-92 244,-92 244,-62 131,-62"/>
<text text-anchor="start" x="139" y="-80" font-family="Helvetica,sans-Serif" font-size="10.00">swarm_bot_cpp/src/</text>
<text text-anchor="middle" x="187.5" y="-69" font-family="Helvetica,sans-Serif" font-size="10.00">__adc__.h</text>
</a>
</g>
</g>
<!-- Node3&#45;&gt;Node4 -->
<g id="edge3" class="edge">
<title>Node3&#45;&gt;Node4</title>
<path fill="none" stroke="midnightblue" d="M555.83,-143.31C479.5,-136.28 351.35,-121.79 243.5,-98 236.01,-96.35 228.13,-94.24 220.69,-92.03"/>
<polygon fill="midnightblue" stroke="midnightblue" points="555.52,-146.8 565.8,-144.21 556.15,-139.83 555.52,-146.8"/>
</g>
<!-- Node6 -->
<g id="node5" class="node">
<title>Node6</title>
<g id="a_node5"><a xlink:href="____dc__control_____8h.html" target="_top" xlink:title="Header file for dc_control.c.">
<polygon fill="white" stroke="red" points="262,-62 262,-92 375,-92 375,-62 262,-62"/>
<text text-anchor="start" x="270" y="-80" font-family="Helvetica,sans-Serif" font-size="10.00">swarm_bot_cpp/src/</text>
<text text-anchor="middle" x="318.5" y="-69" font-family="Helvetica,sans-Serif" font-size="10.00">__dc_control__.h</text>
</a>
</g>
</g>
<!-- Node3&#45;&gt;Node6 -->
<g id="edge6" class="edge">
<title>Node3&#45;&gt;Node6</title>
<path fill="none" stroke="midnightblue" d="M555.77,-137.49C505.47,-128.12 435.19,-113.71 374.5,-98 367.64,-96.22 360.43,-94.18 353.52,-92.1"/>
<polygon fill="midnightblue" stroke="midnightblue" points="555.41,-140.98 565.88,-139.35 556.68,-134.09 555.41,-140.98"/>
</g>
<!-- Node8 -->
<g id="node6" class="node">
<title>Node8</title>
<g id="a_node6"><a xlink:href="____format_____8h.html" target="_top" xlink:title="Header file for format.c.">
<polygon fill="white" stroke="red" points="393,-62 393,-92 506,-92 506,-62 393,-62"/>
<text text-anchor="start" x="401" y="-80" font-family="Helvetica,sans-Serif" font-size="10.00">swarm_bot_cpp/src/</text>
<text text-anchor="middle" x="449.5" y="-69" font-family="Helvetica,sans-Serif" font-size="10.00">__format__.h</text>
</a>
</g>
</g>
<!-- Node3&#45;&gt;Node8 -->
<g id="edge8" class="edge">
<title>Node3&#45;&gt;Node8</title>
<path fill="none" stroke="midnightblue" d="M572.75,-130.65C542.21,-118.69 504.25,-103.16 478.51,-92.07"/>
<polygon fill="midnightblue" stroke="midnightblue" points="571.79,-134.04 582.38,-134.4 574.33,-127.51 571.79,-134.04"/>
</g>
<!-- Node10 -->
<g id="node7" class="node">
<title>Node10</title>
<g id="a_node7"><a xlink:href="_____i_n_t__0__1_____8h.html" target="_top" xlink:title="Header file for INT_0_1.c.">
<polygon fill="white" stroke="red" points="524,-62 524,-92 637,-92 637,-62 524,-62"/>
<text text-anchor="start" x="532" y="-80" font-family="Helvetica,sans-Serif" font-size="10.00">swarm_bot_cpp/src/</text>
<text text-anchor="middle" x="580.5" y="-69" font-family="Helvetica,sans-Serif" font-size="10.00">__INT_0_1__.h</text>
</a>
</g>
</g>
<!-- Node3&#45;&gt;Node10 -->
<g id="edge10" class="edge">
<title>Node3&#45;&gt;Node10</title>
<path fill="none" stroke="midnightblue" d="M602.68,-125.89C595.37,-114.84 587.92,-101.89 583.44,-92.25"/>
<polygon fill="midnightblue" stroke="midnightblue" points="599.89,-128 608.45,-134.23 605.64,-124.02 599.89,-128"/>
</g>
<!-- Node12 -->
<g id="node8" class="node">
<title>Node12</title>
<g id="a_node8"><a xlink:href="____kinematics_____8h.html" target="_top" xlink:title="Header file for kimenatics.c.">
<polygon fill="white" stroke="red" points="694,-62 694,-92 807,-92 807,-62 694,-62"/>
<text text-anchor="start" x="702" y="-80" font-family="Helvetica,sans-Serif" font-size="10.00">swarm_bot_cpp/src/</text>
<text text-anchor="middle" x="750.5" y="-69" font-family="Helvetica,sans-Serif" font-size="10.00">__kinematics__.h</text>
</a>
</g>
</g>
<!-- Node3&#45;&gt;Node12 -->
<g id="edge12" class="edge">
<title>Node3&#45;&gt;Node12</title>
<path fill="none" stroke="midnightblue" d="M656.89,-129.56C678.32,-117.76 705.43,-102.83 724.95,-92.07"/>
<polygon fill="midnightblue" stroke="midnightblue" points="655.17,-126.51 648.1,-134.4 658.54,-132.64 655.17,-126.51"/>
</g>
<!-- Node14 -->
<g id="node9" class="node">
<title>Node14</title>
<g id="a_node9"><a xlink:href=".html" target="_top" xlink:title=" ">
<polygon fill="white" stroke="black" points="634.5,-0.5 634.5,-19.5 780.5,-19.5 780.5,-0.5 634.5,-0.5"/>
<text text-anchor="middle" x="707.5" y="-7.5" font-family="Helvetica,sans-Serif" font-size="10.00">swarm_bot_cpp/src/main.c</text>
</a>
</g>
</g>
<!-- Node3&#45;&gt;Node14 -->
<g id="edge26" class="edge">
<title>Node3&#45;&gt;Node14</title>
<path fill="none" stroke="midnightblue" d="M636.74,-125.46C655.93,-94.42 689.17,-40.64 702.12,-19.7"/>
<polygon fill="midnightblue" stroke="midnightblue" points="633.56,-123.96 631.28,-134.3 639.51,-127.64 633.56,-123.96"/>
</g>
<!-- Node15 -->
<g id="node10" class="node">
<title>Node15</title>
<g id="a_node10"><a xlink:href="____odometry_____8h.html" target="_top" xlink:title="Header file for odometry.c.">
<polygon fill="white" stroke="red" points="825,-62 825,-92 938,-92 938,-62 825,-62"/>
<text text-anchor="start" x="833" y="-80" font-family="Helvetica,sans-Serif" font-size="10.00">swarm_bot_cpp/src/</text>
<text text-anchor="middle" x="881.5" y="-69" font-family="Helvetica,sans-Serif" font-size="10.00">__odometry__.h</text>
</a>
</g>
</g>
<!-- Node3&#45;&gt;Node15 -->
<g id="edge14" class="edge">
<title>Node3&#45;&gt;Node15</title>
<path fill="none" stroke="midnightblue" d="M681.49,-131.85C717.9,-122.33 765.42,-109.94 807.5,-98 814.09,-96.13 821.03,-94.08 827.92,-92.03"/>
<polygon fill="midnightblue" stroke="midnightblue" points="680.31,-128.54 671.52,-134.46 682.08,-135.31 680.31,-128.54"/>
</g>
<!-- Node17 -->
<g id="node11" class="node">
<title>Node17</title>
<g id="a_node11"><a xlink:href="____pwm_____8h.html" target="_top" xlink:title="Header file for pwm.c.">
<polygon fill="white" stroke="red" points="956,-62 956,-92 1069,-92 1069,-62 956,-62"/>
<text text-anchor="start" x="964" y="-80" font-family="Helvetica,sans-Serif" font-size="10.00">swarm_bot_cpp/src/</text>
<text text-anchor="middle" x="1012.5" y="-69" font-family="Helvetica,sans-Serif" font-size="10.00">__pwm__.h</text>
</a>
</g>
</g>
<!-- Node3&#45;&gt;Node17 -->
<g id="edge16" class="edge">
<title>Node3&#45;&gt;Node17</title>
<path fill="none" stroke="midnightblue" d="M687.11,-132.68C795.79,-114.05 828.36,-122.43 938.5,-98 945.99,-96.34 953.87,-94.23 961.6,-92.01"/>
<polygon fill="midnightblue" stroke="midnightblue" points="686.31,-129.27 677.06,-134.44 687.51,-136.16 686.31,-129.27"/>
</g>
<!-- Node19 -->
<g id="node12" class="node">
<title>Node19</title>
<g id="a_node12"><a xlink:href="____timer0_____8h.html" target="_top" xlink:title="Header file for timer0.c.">
<polygon fill="white" stroke="red" points="1087,-62 1087,-92 1200,-92 1200,-62 1087,-62"/>
<text text-anchor="start" x="1095" y="-80" font-family="Helvetica,sans-Serif" font-size="10.00">swarm_bot_cpp/src/</text>
<text text-anchor="middle" x="1143.5" y="-69" font-family="Helvetica,sans-Serif" font-size="10.00">__timer0__.h</text>
</a>
</g>
</g>
<!-- Node3&#45;&gt;Node19 -->
<g id="edge18" class="edge">
<title>Node3&#45;&gt;Node19</title>
<path fill="none" stroke="midnightblue" d="M686.8,-132.91C853.4,-108.21 902.07,-131.12 1069.5,-98 1077.26,-96.47 1085.41,-94.36 1093.38,-92.1"/>
<polygon fill="midnightblue" stroke="midnightblue" points="686.06,-129.49 676.7,-134.45 687.11,-136.41 686.06,-129.49"/>
</g>
<!-- Node21 -->
<g id="node13" class="node">
<title>Node21</title>
<g id="a_node13"><a xlink:href="____timer1_____8h.html" target="_top" xlink:title="Header file for timer1.c.">
<polygon fill="white" stroke="red" points="0,-62 0,-92 113,-92 113,-62 0,-62"/>
<text text-anchor="start" x="8" y="-80" font-family="Helvetica,sans-Serif" font-size="10.00">swarm_bot_cpp/src/</text>
<text text-anchor="middle" x="56.5" y="-69" font-family="Helvetica,sans-Serif" font-size="10.00">__timer1__.h</text>
</a>
</g>
</g>
<!-- Node3&#45;&gt;Node21 -->
<g id="edge20" class="edge">
<title>Node3&#45;&gt;Node21</title>
<path fill="none" stroke="midnightblue" d="M555.71,-146.24C457.49,-141.86 269.12,-129.66 112.5,-98 104.75,-96.43 96.6,-94.32 88.96,-92.04"/>
<polygon fill="midnightblue" stroke="midnightblue" points="555.65,-149.74 565.79,-146.68 555.95,-142.75 555.65,-149.74"/>
</g>
<!-- Node23 -->
<g id="node14" class="node">
<title>Node23</title>
<g id="a_node14"><a xlink:href="____timer2_____8h.html" target="_top" xlink:title="Header file for timer2.c.">
<polygon fill="white" stroke="red" points="1218,-62 1218,-92 1331,-92 1331,-62 1218,-62"/>
<text text-anchor="start" x="1226" y="-80" font-family="Helvetica,sans-Serif" font-size="10.00">swarm_bot_cpp/src/</text>
<text text-anchor="middle" x="1274.5" y="-69" font-family="Helvetica,sans-Serif" font-size="10.00">__timer2__.h</text>
</a>
</g>
</g>
<!-- Node3&#45;&gt;Node23 -->
<g id="edge23" class="edge">
<title>Node3&#45;&gt;Node23</title>
<path fill="none" stroke="midnightblue" d="M686.47,-133.05C911.13,-102.14 975.64,-139.79 1200.5,-98 1208.51,-96.51 1216.92,-94.37 1225.12,-92.04"/>
<polygon fill="midnightblue" stroke="midnightblue" points="685.76,-129.61 676.34,-134.47 686.73,-136.54 685.76,-129.61"/>
</g>
<!-- Node3&#45;&gt;Node25 -->
<g id="edge25" class="edge">
<title>Node3&#45;&gt;Node25</title>
<path fill="none" stroke="midnightblue" d="M689.19,-134.08C977.81,-95.72 1056.42,-138.56 1340.5,-98 1343.23,-97.61 1346,-97.18 1348.8,-96.71"/>
<polygon fill="midnightblue" stroke="midnightblue" points="688.72,-130.61 679.28,-135.42 689.66,-137.55 688.72,-130.61"/>
</g>
<!-- Node4&#45;&gt;Node2 -->
<g id="edge4" class="edge">
<title>Node4&#45;&gt;Node2</title>
<path fill="none" stroke="midnightblue" d="M232.76,-95.78C303.18,-123.45 437.54,-176.23 501.69,-201.43"/>
<polygon fill="midnightblue" stroke="midnightblue" points="233.85,-92.45 223.26,-92.05 231.29,-98.96 233.85,-92.45"/>
</g>
<!-- Node4&#45;&gt;Node3 -->
<g id="edge5" class="edge">
<title>Node4&#45;&gt;Node3</title>
<path fill="none" stroke="midnightblue" d="M248.22,-94.75C252.71,-95.94 257.17,-97.04 261.5,-98 368.02,-121.49 494.34,-135.92 565.88,-143.05"/>
<polygon fill="midnightblue" stroke="midnightblue" points="248.97,-91.32 238.39,-92.03 247.1,-98.07 248.97,-91.32"/>
</g>
<!-- Node6&#45;&gt;Node3 -->
<g id="edge7" class="edge">
<title>Node6&#45;&gt;Node3</title>
<path fill="none" stroke="midnightblue" d="M381,-94.88C384.89,-95.98 388.75,-97.03 392.5,-98 451.21,-113.2 518.9,-127.18 565.66,-136.55"/>
<polygon fill="midnightblue" stroke="midnightblue" points="381.86,-91.49 371.29,-92.1 379.93,-98.22 381.86,-91.49"/>
</g>
<!-- Node8&#45;&gt;Node3 -->
<g id="edge9" class="edge">
<title>Node8&#45;&gt;Node3</title>
<path fill="none" stroke="midnightblue" d="M499.18,-95.82C529.71,-107.78 567.68,-123.31 593.43,-134.4"/>
<polygon fill="midnightblue" stroke="midnightblue" points="500.14,-92.44 489.56,-92.07 497.61,-98.96 500.14,-92.44"/>
</g>
<!-- Node10&#45;&gt;Node3 -->
<g id="edge11" class="edge">
<title>Node10&#45;&gt;Node3</title>
<path fill="none" stroke="midnightblue" d="M600.31,-100.59C607.61,-111.63 615.06,-124.58 619.55,-134.23"/>
<polygon fill="midnightblue" stroke="midnightblue" points="603.1,-98.48 594.53,-92.25 597.34,-102.46 603.1,-98.48"/>
</g>
<!-- Node12&#45;&gt;Node14 -->
<g id="edge13" class="edge">
<title>Node12&#45;&gt;Node14</title>
<path fill="none" stroke="midnightblue" d="M735.6,-53.47C727.9,-41.83 718.94,-28.3 713.25,-19.69"/>
<polygon fill="midnightblue" stroke="midnightblue" points="732.73,-55.49 741.17,-61.9 738.57,-51.62 732.73,-55.49"/>
</g>
<!-- Node15&#45;&gt;Node3 -->
<g id="edge15" class="edge">
<title>Node15&#45;&gt;Node3</title>
<path fill="none" stroke="midnightblue" d="M835.89,-94.99C832.39,-96.02 828.9,-97.04 825.5,-98 776.45,-111.92 720.01,-126.45 679.01,-136.33"/>
<polygon fill="midnightblue" stroke="midnightblue" points="837.15,-98.26 845.72,-92.03 835.13,-91.56 837.15,-98.26"/>
</g>
<!-- Node17&#45;&gt;Node3 -->
<g id="edge17" class="edge">
<title>Node17&#45;&gt;Node3</title>
<path fill="none" stroke="midnightblue" d="M969.36,-94.83C965.05,-95.99 960.71,-97.07 956.5,-98 843.04,-123.17 811.9,-113.52 697.5,-134 691.61,-135.05 685.45,-136.26 679.28,-137.53"/>
<polygon fill="midnightblue" stroke="midnightblue" points="970.64,-98.11 979.31,-92.01 968.73,-91.37 970.64,-98.11"/>
</g>
<!-- Node19&#45;&gt;Node3 -->
<g id="edge19" class="edge">
<title>Node19&#45;&gt;Node3</title>
<path fill="none" stroke="midnightblue" d="M1101.18,-94.85C1096.6,-96.04 1091.99,-97.11 1087.5,-98 916.74,-131.78 869.51,-107.27 697.5,-134 691.59,-134.92 685.41,-136.05 679.24,-137.26"/>
<polygon fill="midnightblue" stroke="midnightblue" points="1102.36,-98.15 1111.05,-92.1 1100.48,-91.41 1102.36,-98.15"/>
</g>
<!-- Node21&#45;&gt;Node2 -->
<g id="edge21" class="edge">
<title>Node21&#45;&gt;Node2</title>
<path fill="none" stroke="midnightblue" d="M106.77,-95.38C160.92,-113.81 249.79,-143.21 327.5,-165 378.95,-179.42 438.19,-193.44 480.61,-203.03"/>
<polygon fill="midnightblue" stroke="midnightblue" points="107.67,-91.99 97.07,-92.07 105.41,-98.61 107.67,-91.99"/>
</g>
<!-- Node21&#45;&gt;Node3 -->
<g id="edge22" class="edge">
<title>Node21&#45;&gt;Node3</title>
<path fill="none" stroke="midnightblue" d="M116.39,-94.71C121.15,-95.94 125.9,-97.07 130.5,-98 286.45,-129.53 473.88,-141.75 565.97,-146.18"/>
<polygon fill="midnightblue" stroke="midnightblue" points="117.2,-91.3 106.63,-92.04 115.36,-98.06 117.2,-91.3"/>
</g>
<!-- Node23&#45;&gt;Node3 -->
<g id="edge24" class="edge">
<title>Node23&#45;&gt;Node3</title>
<path fill="none" stroke="midnightblue" d="M1232.99,-94.76C1228.15,-96 1223.26,-97.12 1218.5,-98 990.3,-140.41 927.25,-101.01 697.5,-134 691.58,-134.85 685.4,-135.94 679.22,-137.13"/>
<polygon fill="midnightblue" stroke="midnightblue" points="1234.07,-98.09 1242.77,-92.04 1232.19,-91.35 1234.07,-98.09"/>
</g>
<!-- Node26&#45;&gt;Node3 -->
<g id="edge29" class="edge">
<title>Node26&#45;&gt;Node3</title>
<path fill="none" stroke="midnightblue" d="M680.91,-195.17C667.91,-185.23 652.6,-173.51 640.91,-164.58"/>
<polygon fill="midnightblue" stroke="midnightblue" points="678.99,-198.1 689.06,-201.4 683.24,-192.54 678.99,-198.1"/>
</g>
<!-- Node27 -->
<g id="node17" class="node">
<title>Node27</title>
<g id="a_node17"><a xlink:href=".html" target="_top" xlink:title=" ">
<polygon fill="white" stroke="black" points="697,-134.5 697,-164.5 810,-164.5 810,-134.5 697,-134.5"/>
<text text-anchor="start" x="705" y="-152.5" font-family="Helvetica,sans-Serif" font-size="10.00">swarm_bot_cpp/src/</text>
<text text-anchor="middle" x="753.5" y="-141.5" font-family="Helvetica,sans-Serif" font-size="10.00">__usart__.c</text>
</a>
</g>
</g>
<!-- Node26&#45;&gt;Node27 -->
<g id="edge30" class="edge">
<title>Node26&#45;&gt;Node27</title>
<path fill="none" stroke="midnightblue" d="M723.31,-193.16C730.02,-183.68 737.63,-172.92 743.54,-164.58"/>
<polygon fill="midnightblue" stroke="midnightblue" points="720.4,-191.21 717.48,-201.4 726.12,-195.26 720.4,-191.21"/>
</g>
</g>
</svg>
        <g id="navigator" transform="translate(0 0)" fill="#404254">
                <rect fill="#f2f5e9" fill-opacity="0.5" stroke="#606060" stroke-width=".5" x="0" y="0" width="60" height="60"/>
                <use id="zoomplus" xlink:href="#zoomPlus" x="17" y="9" onmousedown="handleZoom(evt,'in')"/>
                <use id="zoomminus" xlink:href="#zoomMin" x="42" y="9" onmousedown="handleZoom(evt,'out')"/>
                <use id="reset" xlink:href="#resetDef" x="30" y="36" onmousedown="handleReset()"/>
                <g id="arrowUp" xlink:href="#dirArrow" transform="translate(30 24)" onmousedown="handlePan(0,-1)">
                  <use xlink:href="#rim" fill="#404040">
                        <set attributeName="fill" to="#808080" begin="arrowUp.mouseover" end="arrowUp.mouseout"/>
                  </use>
                  <path fill="none" stroke="white" stroke-width="1.5" d="M0,-3.0v7 M-2.5,-0.5L0,-3.0L2.5,-0.5"/>
                </g>
                <g id="arrowRight" xlink:href="#dirArrow" transform="rotate(90) translate(36 -43)" onmousedown="handlePan(1,0)">
                  <use xlink:href="#rim" fill="#404040">
                        <set attributeName="fill" to="#808080" begin="arrowRight.mouseover" end="arrowRight.mouseout"/>
                  </use>
                  <path fill="none" stroke="white" stroke-width="1.5" d="M0,-3.0v7 M-2.5,-0.5L0,-3.0L2.5,-0.5"/>
                </g>
                <g id="arrowDown" xlink:href="#dirArrow" transform="rotate(180) translate(-30 -48)" onmousedown="handlePan(0,1)">
                  <use xlink:href="#rim" fill="#404040">
                        <set attributeName="fill" to="#808080" begin="arrowDown.mouseover" end="arrowDown.mouseout"/>
                  </use>
                  <path fill="none" stroke="white" stroke-width="1.5" d="M0,-3.0v7 M-2.5,-0.5L0,-3.0L2.5,-0.5"/>
                </g>
                <g id="arrowLeft" xlink:href="#dirArrow" transform="rotate(270) translate(-36 17)" onmousedown="handlePan(-1,0)">
                  <use xlink:href="#rim" fill="#404040">
                        <set attributeName="fill" to="#808080" begin="arrowLeft.mouseover" end="arrowLeft.mouseout"/>
                  </use>
                  <path fill="none" stroke="white" stroke-width="1.5" d="M0,-3.0v7 M-2.5,-0.5L0,-3.0L2.5,-0.5"/>
                </g>
        </g>
        <svg viewBox="0 0 15 15" width="100%" height="30px" preserveAspectRatio="xMaxYMin meet">
         <g id="arrow_out" transform="scale(0.3 0.3)">
          <a xlink:href="asf_8h__dep__incl_org.svg" target="_base">
           <rect id="button" ry="5" rx="5" y="6" x="6" height="38" width="38"
                fill="#f2f5e9" fill-opacity="0.5" stroke="#606060" stroke-width="1.0"/>
           <path id="arrow"
             d="M 11.500037,31.436501 C 11.940474,20.09759 22.043105,11.32322 32.158766,21.979434 L 37.068811,17.246167 C 37.068811,17.246167 37.088388,32 37.088388,32 L 22.160133,31.978069 C 22.160133,31.978069 26.997745,27.140456 26.997745,27.140456 C 18.528582,18.264221 13.291696,25.230495 11.500037,31.436501 z"
             style="fill:#404040;"/>
          </a>
         </g>
        </svg>
</svg>
