<?xml version="1.0" encoding="UTF-8" standalone="no"?>
<!DOCTYPE svg PUBLIC "-//W3C//DTD SVG 1.1//EN"
 "http://www.w3.org/Graphics/SVG/1.1/DTD/svg11.dtd">
<!-- Generated by graphviz version 2.43.0 (0)
 -->
<!-- Title: swarm_bot_cpp/src/asf.h Pages: 1 -->
<!--zoomable 296 -->
<svg id="main" version="1.1" xmlns="http://www.w3.org/2000/svg" xmlns:xlink="http://www.w3.org/1999/xlink" xml:space="preserve" onload="init(evt)">
<style type="text/css"><![CDATA[
.edge:hover path { stroke: red; }
.edge:hover polygon { stroke: red; fill: red; }
]]></style>
<script type="text/javascript"><![CDATA[
var edges = document.getElementsByTagName('g');
if (edges && edges.length) {
  for (var i=0;i<edges.length;i++) {
    if (edges[i].id.substr(0,4)=='edge') {
      edges[i].setAttribute('class','edge');
    }
  }
}
]]></script>
        <defs>
                <circle id="rim" cx="0" cy="0" r="7"/>
                <circle id="rim2" cx="0" cy="0" r="3.5"/>
                <g id="zoomPlus">
                        <use xlink:href="#rim" fill="#404040">
                                <set attributeName="fill" to="#808080" begin="zoomplus.mouseover" end="zoomplus.mouseout"/>
                        </use>
                        <path d="M-4,0h8M0,-4v8" fill="none" stroke="white" stroke-width="1.5" pointer-events="none"/>
                </g>
                <g id="zoomMin">
                        <use xlink:href="#rim" fill="#404040">
                                <set attributeName="fill" to="#808080" begin="zoomminus.mouseover" end="zoomminus.mouseout"/>
                        </use>
                        <path d="M-4,0h8" fill="none" stroke="white" stroke-width="1.5" pointer-events="none"/>
                </g>
                <g id="dirArrow">
                        <path fill="none" stroke="white" stroke-width="1.5" d="M0,-3.0v7 M-2.5,-0.5L0,-3.0L2.5,-0.5"/>
                </g>
               <g id="resetDef">
                       <use xlink:href="#rim2" fill="#404040">
                               <set attributeName="fill" to="#808080" begin="reset.mouseover" end="reset.mouseout"/>
                       </use>
               </g>
        </defs>

<script type="text/javascript">
var viewWidth = 1512;
var viewHeight = 296;
var sectionId = 'dynsection-1';
</script>
<script xlink:href="svgpan.js"/>
<svg id="graph" class="graph">
<g id="viewport">
<title>swarm_bot_cpp/src/asf.h</title>
<polygon fill="white" stroke="transparent" points="-4,4 -4,-292 1508,-292 1508,4 -4,4"/>
<!-- Node1 -->
<g id="node1" class="node">
<title>Node1</title>
<g id="a_node1"><a xlink:title="Autogenerated API include file for the Atmel Software Framework (ASF)">
<polygon fill="#bfbfbf" stroke="black" points="684,-268.5 684,-287.5 821,-287.5 821,-268.5 684,-268.5"/>
<text text-anchor="middle" x="752.5" y="-275.5" font-family="Helvetica,sans-Serif" font-size="10.00">swarm_bot_cpp/src/asf.h</text>
</a>
</g>
</g>
<!-- Node2 -->
<g id="node2" class="node">
<title>Node2</title>
<g id="a_node2"><a xlink:href="init_8c.html" target="_top" xlink:title="User board initialization template.">
<polygon fill="white" stroke="black" points="0,-56.5 0,-97.5 155,-97.5 155,-56.5 0,-56.5"/>
<text text-anchor="start" x="8" y="-85.5" font-family="Helvetica,sans-Serif" font-size="10.00">swarm_bot_cpp/src/ASF</text>
<text text-anchor="start" x="8" y="-74.5" font-family="Helvetica,sans-Serif" font-size="10.00">/common/boards/user_board</text>
<text text-anchor="middle" x="77.5" y="-63.5" font-family="Helvetica,sans-Serif" font-size="10.00">/init.c</text>
</a>
</g>
</g>
<!-- Node1&#45;&gt;Node2 -->
<g id="edge1" class="edge">
<title>Node1&#45;&gt;Node2</title>
<path fill="none" stroke="midnightblue" d="M713.73,-265.57C602.81,-232.87 283.23,-138.65 143.84,-97.56"/>
<polygon fill="midnightblue" stroke="midnightblue" points="712.91,-268.98 723.5,-268.45 714.89,-262.26 712.91,-268.98"/>
</g>
<!-- Node3 -->
<g id="node3" class="node">
<title>Node3</title>
<g id="a_node3"><a xlink:href=".html" target="_top" xlink:title=" ">
<polygon fill="white" stroke="black" points="739,-201.5 739,-231.5 852,-231.5 852,-201.5 739,-201.5"/>
<text text-anchor="start" x="747" y="-219.5" font-family="Helvetica,sans-Serif" font-size="10.00">swarm_bot_cpp/src/</text>
<text text-anchor="middle" x="795.5" y="-208.5" font-family="Helvetica,sans-Serif" font-size="10.00">__pin_map.h</text>
</a>
</g>
</g>
<!-- Node1&#45;&gt;Node3 -->
<g id="edge2" class="edge">
<title>Node1&#45;&gt;Node3</title>
<path fill="none" stroke="midnightblue" d="M764.61,-260.25C771.16,-251.19 779.15,-240.12 785.37,-231.52"/>
<polygon fill="midnightblue" stroke="midnightblue" points="761.68,-258.32 758.66,-268.48 767.36,-262.42 761.68,-258.32"/>
</g>
<!-- Node4 -->
<g id="node4" class="node">
<title>Node4</title>
<g id="a_node4"><a xlink:href="____swarm__wold_____8h.html" target="_top" xlink:title="Header file for dummy purposes.">
<polygon fill="white" stroke="black" points="739,-134.5 739,-164.5 852,-164.5 852,-134.5 739,-134.5"/>
<text text-anchor="start" x="747" y="-152.5" font-family="Helvetica,sans-Serif" font-size="10.00">swarm_bot_cpp/src/</text>
<text text-anchor="middle" x="795.5" y="-141.5" font-family="Helvetica,sans-Serif" font-size="10.00">__swarm_wold__.h</text>
</a>
</g>
</g>
<!-- Node1&#45;&gt;Node4 -->
<g id="edge28" class="edge">
<title>Node1&#45;&gt;Node4</title>
<path fill="none" stroke="midnightblue" d="M739.98,-259.49C730.33,-243.68 720.1,-220.04 729.5,-201 737.3,-185.22 752.65,-173.01 766.59,-164.55"/>
<polygon fill="midnightblue" stroke="midnightblue" points="737.31,-261.79 745.73,-268.22 743.15,-257.94 737.31,-261.79"/>
</g>
<!-- Node26 -->
<g id="node16" class="node">
<title>Node26</title>
<g id="a_node16"><a xlink:href="____usart_____8h.html" target="_top" xlink:title="Header file for pid.c.">
<polygon fill="white" stroke="black" points="870,-201.5 870,-231.5 983,-231.5 983,-201.5 870,-201.5"/>
<text text-anchor="start" x="878" y="-219.5" font-family="Helvetica,sans-Serif" font-size="10.00">swarm_bot_cpp/src/</text>
<text text-anchor="middle" x="926.5" y="-208.5" font-family="Helvetica,sans-Serif" font-size="10.00">__usart__.h</text>
</a>
</g>
</g>
<!-- Node1&#45;&gt;Node26 -->
<g id="edge29" class="edge">
<title>Node1&#45;&gt;Node26</title>
<path fill="none" stroke="midnightblue" d="M786.92,-265.23C815.25,-255.54 855.49,-241.78 885.49,-231.52"/>
<polygon fill="midnightblue" stroke="midnightblue" points="785.76,-261.93 777.43,-268.48 788.02,-268.55 785.76,-261.93"/>
</g>
<!-- Node3&#45;&gt;Node4 -->
<g id="edge3" class="edge">
<title>Node3&#45;&gt;Node4</title>
<path fill="none" stroke="midnightblue" d="M795.5,-191.11C795.5,-182.15 795.5,-172.32 795.5,-164.58"/>
<polygon fill="midnightblue" stroke="midnightblue" points="792,-191.4 795.5,-201.4 799,-191.4 792,-191.4"/>
</g>
<!-- Node4&#45;&gt;Node2 -->
<g id="edge4" class="edge">
<title>Node4&#45;&gt;Node2</title>
<path fill="none" stroke="midnightblue" d="M728.83,-146.43C613.17,-142.12 368.06,-129.78 163.5,-98 160.77,-97.58 158.01,-97.11 155.21,-96.62"/>
<polygon fill="midnightblue" stroke="midnightblue" points="728.83,-149.93 738.95,-146.8 729.08,-142.94 728.83,-149.93"/>
</g>
<!-- Node5 -->
<g id="node5" class="node">
<title>Node5</title>
<g id="a_node5"><a xlink:href="____adc_____8h.html" target="_top" xlink:title="Header file for adc.c.">
<polygon fill="white" stroke="red" points="173,-62 173,-92 286,-92 286,-62 173,-62"/>
<text text-anchor="start" x="181" y="-80" font-family="Helvetica,sans-Serif" font-size="10.00">swarm_bot_cpp/src/</text>
<text text-anchor="middle" x="229.5" y="-69" font-family="Helvetica,sans-Serif" font-size="10.00">__adc__.h</text>
</a>
</g>
</g>
<!-- Node4&#45;&gt;Node5 -->
<g id="edge5" class="edge">
<title>Node4&#45;&gt;Node5</title>
<path fill="none" stroke="midnightblue" d="M728.62,-143.82C610.04,-134.85 368.03,-114.69 285.5,-98 277.75,-96.43 269.6,-94.32 261.96,-92.04"/>
<polygon fill="midnightblue" stroke="midnightblue" points="728.43,-147.31 738.66,-144.57 728.95,-140.33 728.43,-147.31"/>
</g>
<!-- Node7 -->
<g id="node6" class="node">
<title>Node7</title>
<g id="a_node6"><a xlink:href="____dc__control_____8h.html" target="_top" xlink:title="Header file for dc_control.c.">
<polygon fill="white" stroke="red" points="304,-62 304,-92 417,-92 417,-62 304,-62"/>
<text text-anchor="start" x="312" y="-80" font-family="Helvetica,sans-Serif" font-size="10.00">swarm_bot_cpp/src/</text>
<text text-anchor="middle" x="360.5" y="-69" font-family="Helvetica,sans-Serif" font-size="10.00">__dc_control__.h</text>
</a>
</g>
</g>
<!-- Node4&#45;&gt;Node7 -->
<g id="edge8" class="edge">
<title>Node4&#45;&gt;Node7</title>
<path fill="none" stroke="midnightblue" d="M728.83,-143.31C652.5,-136.28 524.35,-121.79 416.5,-98 409.01,-96.35 401.13,-94.24 393.69,-92.03"/>
<polygon fill="midnightblue" stroke="midnightblue" points="728.52,-146.8 738.8,-144.21 729.15,-139.83 728.52,-146.8"/>
</g>
<!-- Node9 -->
<g id="node7" class="node">
<title>Node9</title>
<g id="a_node7"><a xlink:href="____format_____8h.html" target="_top" xlink:title="Header file for format.c.">
<polygon fill="white" stroke="red" points="435,-62 435,-92 548,-92 548,-62 435,-62"/>
<text text-anchor="start" x="443" y="-80" font-family="Helvetica,sans-Serif" font-size="10.00">swarm_bot_cpp/src/</text>
<text text-anchor="middle" x="491.5" y="-69" font-family="Helvetica,sans-Serif" font-size="10.00">__format__.h</text>
</a>
</g>
</g>
<!-- Node4&#45;&gt;Node9 -->
<g id="edge10" class="edge">
<title>Node4&#45;&gt;Node9</title>
<path fill="none" stroke="midnightblue" d="M728.77,-137.49C678.47,-128.12 608.19,-113.71 547.5,-98 540.64,-96.22 533.43,-94.18 526.52,-92.1"/>
<polygon fill="midnightblue" stroke="midnightblue" points="728.41,-140.98 738.88,-139.35 729.68,-134.09 728.41,-140.98"/>
</g>
<!-- Node11 -->
<g id="node8" class="node">
<title>Node11</title>
<g id="a_node8"><a xlink:href="_____i_n_t__0__1_____8h.html" target="_top" xlink:title="Header file for INT_0_1.c.">
<polygon fill="white" stroke="red" points="566,-62 566,-92 679,-92 679,-62 566,-62"/>
<text text-anchor="start" x="574" y="-80" font-family="Helvetica,sans-Serif" font-size="10.00">swarm_bot_cpp/src/</text>
<text text-anchor="middle" x="622.5" y="-69" font-family="Helvetica,sans-Serif" font-size="10.00">__INT_0_1__.h</text>
</a>
</g>
</g>
<!-- Node4&#45;&gt;Node11 -->
<g id="edge12" class="edge">
<title>Node4&#45;&gt;Node11</title>
<path fill="none" stroke="midnightblue" d="M745.75,-130.65C715.21,-118.69 677.25,-103.16 651.51,-92.07"/>
<polygon fill="midnightblue" stroke="midnightblue" points="744.79,-134.04 755.38,-134.4 747.33,-127.51 744.79,-134.04"/>
</g>
<!-- Node13 -->
<g id="node9" class="node">
<title>Node13</title>
<g id="a_node9"><a xlink:href="____kinematics_____8h.html" target="_top" xlink:title="Header file for kimenatics.c.">
<polygon fill="white" stroke="red" points="697,-62 697,-92 810,-92 810,-62 697,-62"/>
<text text-anchor="start" x="705" y="-80" font-family="Helvetica,sans-Serif" font-size="10.00">swarm_bot_cpp/src/</text>
<text text-anchor="middle" x="753.5" y="-69" font-family="Helvetica,sans-Serif" font-size="10.00">__kinematics__.h</text>
</a>
</g>
</g>
<!-- Node4&#45;&gt;Node13 -->
<g id="edge14" class="edge">
<title>Node4&#45;&gt;Node13</title>
<path fill="none" stroke="midnightblue" d="M781.83,-125.56C775.3,-114.59 767.68,-101.8 761.99,-92.25"/>
<polygon fill="midnightblue" stroke="midnightblue" points="778.88,-127.43 787,-134.23 784.89,-123.85 778.88,-127.43"/>
</g>
<!-- Node15 -->
<g id="node10" class="node">
<title>Node15</title>
<g id="a_node10"><a xlink:href=".html" target="_top" xlink:title=" ">
<polygon fill="white" stroke="black" points="722.5,-0.5 722.5,-19.5 868.5,-19.5 868.5,-0.5 722.5,-0.5"/>
<text text-anchor="middle" x="795.5" y="-7.5" font-family="Helvetica,sans-Serif" font-size="10.00">swarm_bot_cpp/src/main.c</text>
</a>
</g>
</g>
<!-- Node4&#45;&gt;Node15 -->
<g id="edge27" class="edge">
<title>Node4&#45;&gt;Node15</title>
<path fill="none" stroke="midnightblue" d="M809.28,-125.08C813.42,-116.81 817.41,-107.26 819.5,-98 823.61,-79.79 824.03,-74.11 819.5,-56 816.11,-42.43 807.76,-28.47 801.87,-19.77"/>
<polygon fill="midnightblue" stroke="midnightblue" points="806.08,-123.63 804.46,-134.1 812.26,-126.93 806.08,-123.63"/>
</g>
<!-- Node16 -->
<g id="node11" class="node">
<title>Node16</title>
<g id="a_node11"><a xlink:href="____odometry_____8h.html" target="_top" xlink:title="Header file for odometry.c.">
<polygon fill="white" stroke="red" points="867,-62 867,-92 980,-92 980,-62 867,-62"/>
<text text-anchor="start" x="875" y="-80" font-family="Helvetica,sans-Serif" font-size="10.00">swarm_bot_cpp/src/</text>
<text text-anchor="middle" x="923.5" y="-69" font-family="Helvetica,sans-Serif" font-size="10.00">__odometry__.h</text>
</a>
</g>
</g>
<!-- Node4&#45;&gt;Node16 -->
<g id="edge16" class="edge">
<title>Node4&#45;&gt;Node16</title>
<path fill="none" stroke="midnightblue" d="M824.38,-129.24C844.67,-117.49 871.66,-102.73 892.43,-92.07"/>
<polygon fill="midnightblue" stroke="midnightblue" points="822.43,-126.33 815.57,-134.4 825.97,-132.37 822.43,-126.33"/>
</g>
<!-- Node18 -->
<g id="node12" class="node">
<title>Node18</title>
<g id="a_node12"><a xlink:href="____pwm_____8h.html" target="_top" xlink:title="Header file for pwm.c.">
<polygon fill="white" stroke="red" points="998,-62 998,-92 1111,-92 1111,-62 998,-62"/>
<text text-anchor="start" x="1006" y="-80" font-family="Helvetica,sans-Serif" font-size="10.00">swarm_bot_cpp/src/</text>
<text text-anchor="middle" x="1054.5" y="-69" font-family="Helvetica,sans-Serif" font-size="10.00">__pwm__.h</text>
</a>
</g>
</g>
<!-- Node4&#45;&gt;Node18 -->
<g id="edge18" class="edge">
<title>Node4&#45;&gt;Node18</title>
<path fill="none" stroke="midnightblue" d="M854.49,-131.85C890.9,-122.33 938.42,-109.94 980.5,-98 987.09,-96.13 994.03,-94.08 1000.92,-92.03"/>
<polygon fill="midnightblue" stroke="midnightblue" points="853.31,-128.54 844.52,-134.46 855.08,-135.31 853.31,-128.54"/>
</g>
<!-- Node20 -->
<g id="node13" class="node">
<title>Node20</title>
<g id="a_node13"><a xlink:href="____timer0_____8h.html" target="_top" xlink:title="Header file for timer0.c.">
<polygon fill="white" stroke="red" points="1129,-62 1129,-92 1242,-92 1242,-62 1129,-62"/>
<text text-anchor="start" x="1137" y="-80" font-family="Helvetica,sans-Serif" font-size="10.00">swarm_bot_cpp/src/</text>
<text text-anchor="middle" x="1185.5" y="-69" font-family="Helvetica,sans-Serif" font-size="10.00">__timer0__.h</text>
</a>
</g>
</g>
<!-- Node4&#45;&gt;Node20 -->
<g id="edge20" class="edge">
<title>Node4&#45;&gt;Node20</title>
<path fill="none" stroke="midnightblue" d="M862.35,-133.21C971.7,-115.04 1003.48,-122.11 1111.5,-98 1118.87,-96.35 1126.62,-94.28 1134.24,-92.1"/>
<polygon fill="midnightblue" stroke="midnightblue" points="861.51,-129.81 852.23,-134.93 862.68,-136.71 861.51,-129.81"/>
</g>
<!-- Node22 -->
<g id="node14" class="node">
<title>Node22</title>
<g id="a_node14"><a xlink:href="____timer1_____8h.html" target="_top" xlink:title="Header file for timer1.c.">
<polygon fill="white" stroke="red" points="1391,-62 1391,-92 1504,-92 1504,-62 1391,-62"/>
<text text-anchor="start" x="1399" y="-80" font-family="Helvetica,sans-Serif" font-size="10.00">swarm_bot_cpp/src/</text>
<text text-anchor="middle" x="1447.5" y="-69" font-family="Helvetica,sans-Serif" font-size="10.00">__timer1__.h</text>
</a>
</g>
</g>
<!-- Node4&#45;&gt;Node22 -->
<g id="edge22" class="edge">
<title>Node4&#45;&gt;Node22</title>
<path fill="none" stroke="midnightblue" d="M862.34,-133.41C1087.14,-104 1150.8,-139.46 1373.5,-98 1381.51,-96.51 1389.92,-94.37 1398.12,-92.04"/>
<polygon fill="midnightblue" stroke="midnightblue" points="861.66,-129.97 852.21,-134.76 862.58,-136.91 861.66,-129.97"/>
</g>
<!-- Node24 -->
<g id="node15" class="node">
<title>Node24</title>
<g id="a_node15"><a xlink:href="____timer2_____8h.html" target="_top" xlink:title="Header file for timer2.c.">
<polygon fill="white" stroke="red" points="1260,-62 1260,-92 1373,-92 1373,-62 1260,-62"/>
<text text-anchor="start" x="1268" y="-80" font-family="Helvetica,sans-Serif" font-size="10.00">swarm_bot_cpp/src/</text>
<text text-anchor="middle" x="1316.5" y="-69" font-family="Helvetica,sans-Serif" font-size="10.00">__timer2__.h</text>
</a>
</g>
</g>
<!-- Node4&#45;&gt;Node24 -->
<g id="edge25" class="edge">
<title>Node4&#45;&gt;Node24</title>
<path fill="none" stroke="midnightblue" d="M862.34,-133.35C1029.36,-109.63 1077.22,-130.79 1242.5,-98 1250.26,-96.46 1258.41,-94.36 1266.38,-92.09"/>
<polygon fill="midnightblue" stroke="midnightblue" points="861.61,-129.92 852.22,-134.82 862.62,-136.84 861.61,-129.92"/>
</g>
<!-- Node5&#45;&gt;Node3 -->
<g id="edge6" class="edge">
<title>Node5&#45;&gt;Node3</title>
<path fill="none" stroke="midnightblue" d="M283.56,-94.94C287.26,-96 290.93,-97.03 294.5,-98 454.46,-141.31 645.66,-183.55 738.83,-203.53"/>
<polygon fill="midnightblue" stroke="midnightblue" points="284.37,-91.53 273.79,-92.07 282.4,-98.24 284.37,-91.53"/>
</g>
<!-- Node5&#45;&gt;Node4 -->
<g id="edge7" class="edge">
<title>Node5&#45;&gt;Node4</title>
<path fill="none" stroke="midnightblue" d="M289.39,-94.71C294.15,-95.94 298.9,-97.07 303.5,-98 385.97,-114.67 627.7,-134.83 738.71,-143.8"/>
<polygon fill="midnightblue" stroke="midnightblue" points="290.2,-91.3 279.63,-92.04 288.36,-98.06 290.2,-91.3"/>
</g>
<!-- Node7&#45;&gt;Node4 -->
<g id="edge9" class="edge">
<title>Node7&#45;&gt;Node4</title>
<path fill="none" stroke="midnightblue" d="M421.22,-94.75C425.71,-95.94 430.17,-97.04 434.5,-98 541.02,-121.49 667.34,-135.92 738.88,-143.05"/>
<polygon fill="midnightblue" stroke="midnightblue" points="421.97,-91.32 411.39,-92.03 420.1,-98.07 421.97,-91.32"/>
</g>
<!-- Node9&#45;&gt;Node4 -->
<g id="edge11" class="edge">
<title>Node9&#45;&gt;Node4</title>
<path fill="none" stroke="midnightblue" d="M554,-94.88C557.89,-95.98 561.75,-97.03 565.5,-98 624.21,-113.2 691.9,-127.18 738.66,-136.55"/>
<polygon fill="midnightblue" stroke="midnightblue" points="554.86,-91.49 544.29,-92.1 552.93,-98.22 554.86,-91.49"/>
</g>
<!-- Node11&#45;&gt;Node4 -->
<g id="edge13" class="edge">
<title>Node11&#45;&gt;Node4</title>
<path fill="none" stroke="midnightblue" d="M672.18,-95.82C702.71,-107.78 740.68,-123.31 766.43,-134.4"/>
<polygon fill="midnightblue" stroke="midnightblue" points="673.14,-92.44 662.56,-92.07 670.61,-98.96 673.14,-92.44"/>
</g>
<!-- Node13&#45;&gt;Node15 -->
<g id="edge15" class="edge">
<title>Node13&#45;&gt;Node15</title>
<path fill="none" stroke="midnightblue" d="M768.05,-53.47C775.58,-41.83 784.32,-28.3 789.88,-19.69"/>
<polygon fill="midnightblue" stroke="midnightblue" points="765.1,-51.6 762.61,-61.9 770.98,-55.4 765.1,-51.6"/>
</g>
<!-- Node16&#45;&gt;Node4 -->
<g id="edge17" class="edge">
<title>Node16&#45;&gt;Node4</title>
<path fill="none" stroke="midnightblue" d="M894.67,-97.23C874.38,-108.98 847.4,-123.74 826.62,-134.4"/>
<polygon fill="midnightblue" stroke="midnightblue" points="896.61,-100.15 903.47,-92.07 893.08,-94.11 896.61,-100.15"/>
</g>
<!-- Node18&#45;&gt;Node4 -->
<g id="edge19" class="edge">
<title>Node18&#45;&gt;Node4</title>
<path fill="none" stroke="midnightblue" d="M1008.89,-94.99C1005.39,-96.02 1001.9,-97.04 998.5,-98 949.45,-111.92 893.01,-126.45 852.01,-136.33"/>
<polygon fill="midnightblue" stroke="midnightblue" points="1010.15,-98.26 1018.72,-92.03 1008.13,-91.56 1010.15,-98.26"/>
</g>
<!-- Node20&#45;&gt;Node4 -->
<g id="edge21" class="edge">
<title>Node20&#45;&gt;Node4</title>
<path fill="none" stroke="midnightblue" d="M1142.16,-94.87C1137.92,-96.01 1133.65,-97.07 1129.5,-98 1018.22,-122.84 987.85,-114.58 875.5,-134 867.94,-135.31 859.95,-136.81 852.04,-138.35"/>
<polygon fill="midnightblue" stroke="midnightblue" points="1143.29,-98.19 1151.96,-92.1 1141.39,-91.45 1143.29,-98.19"/>
</g>
<!-- Node22&#45;&gt;Node3 -->
<g id="edge23" class="edge">
<title>Node22&#45;&gt;Node3</title>
<path fill="none" stroke="midnightblue" d="M1397.02,-94.73C1392.15,-95.98 1387.25,-97.1 1382.5,-98 1171.41,-137.84 1100.54,-55.7 900.5,-134 879.88,-142.07 878.96,-151.38 861.5,-165 845.57,-177.42 827.33,-191.36 814.06,-201.44"/>
<polygon fill="midnightblue" stroke="midnightblue" points="1398.22,-98.03 1406.94,-92.01 1396.37,-91.28 1398.22,-98.03"/>
</g>
<!-- Node22&#45;&gt;Node4 -->
<g id="edge24" class="edge">
<title>Node22&#45;&gt;Node4</title>
<path fill="none" stroke="midnightblue" d="M1405.99,-94.75C1401.15,-96 1396.26,-97.11 1391.5,-98 1165.49,-140.08 1103.28,-102.93 875.5,-134 868.02,-135.02 860.15,-136.36 852.36,-137.81"/>
<polygon fill="midnightblue" stroke="midnightblue" points="1407.07,-98.09 1415.77,-92.04 1405.19,-91.34 1407.07,-98.09"/>
</g>
<!-- Node24&#45;&gt;Node4 -->
<g id="edge26" class="edge">
<title>Node24&#45;&gt;Node4</title>
<path fill="none" stroke="midnightblue" d="M1274.18,-94.84C1269.6,-96.03 1264.99,-97.11 1260.5,-98 1091.93,-131.45 1045.5,-108.77 875.5,-134 868.03,-135.11 860.17,-136.49 852.38,-137.97"/>
<polygon fill="midnightblue" stroke="midnightblue" points="1275.36,-98.15 1284.05,-92.09 1273.48,-91.4 1275.36,-98.15"/>
</g>
<!-- Node26&#45;&gt;Node4 -->
<g id="edge30" class="edge">
<title>Node26&#45;&gt;Node4</title>
<path fill="none" stroke="midnightblue" d="M888.92,-196.85C868.21,-186.58 842.91,-174.03 823.87,-164.58"/>
<polygon fill="midnightblue" stroke="midnightblue" points="887.56,-200.09 898.07,-201.4 890.67,-193.82 887.56,-200.09"/>
</g>
<!-- Node27 -->
<g id="node17" class="node">
<title>Node27</title>
<g id="a_node17"><a xlink:href=".html" target="_top" xlink:title=" ">
<polygon fill="white" stroke="black" points="909,-134.5 909,-164.5 1022,-164.5 1022,-134.5 909,-134.5"/>
<text text-anchor="start" x="917" y="-152.5" font-family="Helvetica,sans-Serif" font-size="10.00">swarm_bot_cpp/src/</text>
<text text-anchor="middle" x="965.5" y="-141.5" font-family="Helvetica,sans-Serif" font-size="10.00">__usart__.c</text>
</a>
</g>
</g>
<!-- Node26&#45;&gt;Node27 -->
<g id="edge31" class="edge">
<title>Node26&#45;&gt;Node27</title>
<path fill="none" stroke="midnightblue" d="M940.25,-192.58C945.86,-183.24 952.15,-172.75 957.05,-164.58"/>
<polygon fill="midnightblue" stroke="midnightblue" points="937.11,-191.02 934.96,-201.4 943.11,-194.62 937.11,-191.02"/>
</g>
</g>
</svg>
        <g id="navigator" transform="translate(0 0)" fill="#404254">
                <rect fill="#f2f5e9" fill-opacity="0.5" stroke="#606060" stroke-width=".5" x="0" y="0" width="60" height="60"/>
                <use id="zoomplus" xlink:href="#zoomPlus" x="17" y="9" onmousedown="handleZoom(evt,'in')"/>
                <use id="zoomminus" xlink:href="#zoomMin" x="42" y="9" onmousedown="handleZoom(evt,'out')"/>
                <use id="reset" xlink:href="#resetDef" x="30" y="36" onmousedown="handleReset()"/>
                <g id="arrowUp" xlink:href="#dirArrow" transform="translate(30 24)" onmousedown="handlePan(0,-1)">
                  <use xlink:href="#rim" fill="#404040">
                        <set attributeName="fill" to="#808080" begin="arrowUp.mouseover" end="arrowUp.mouseout"/>
                  </use>
                  <path fill="none" stroke="white" stroke-width="1.5" d="M0,-3.0v7 M-2.5,-0.5L0,-3.0L2.5,-0.5"/>
                </g>
                <g id="arrowRight" xlink:href="#dirArrow" transform="rotate(90) translate(36 -43)" onmousedown="handlePan(1,0)">
                  <use xlink:href="#rim" fill="#404040">
                        <set attributeName="fill" to="#808080" begin="arrowRight.mouseover" end="arrowRight.mouseout"/>
                  </use>
                  <path fill="none" stroke="white" stroke-width="1.5" d="M0,-3.0v7 M-2.5,-0.5L0,-3.0L2.5,-0.5"/>
                </g>
                <g id="arrowDown" xlink:href="#dirArrow" transform="rotate(180) translate(-30 -48)" onmousedown="handlePan(0,1)">
                  <use xlink:href="#rim" fill="#404040">
                        <set attributeName="fill" to="#808080" begin="arrowDown.mouseover" end="arrowDown.mouseout"/>
                  </use>
                  <path fill="none" stroke="white" stroke-width="1.5" d="M0,-3.0v7 M-2.5,-0.5L0,-3.0L2.5,-0.5"/>
                </g>
                <g id="arrowLeft" xlink:href="#dirArrow" transform="rotate(270) translate(-36 17)" onmousedown="handlePan(-1,0)">
                  <use xlink:href="#rim" fill="#404040">
                        <set attributeName="fill" to="#808080" begin="arrowLeft.mouseover" end="arrowLeft.mouseout"/>
                  </use>
                  <path fill="none" stroke="white" stroke-width="1.5" d="M0,-3.0v7 M-2.5,-0.5L0,-3.0L2.5,-0.5"/>
                </g>
        </g>
        <svg viewBox="0 0 15 15" width="100%" height="30px" preserveAspectRatio="xMaxYMin meet">
         <g id="arrow_out" transform="scale(0.3 0.3)">
          <a xlink:href="asf_8h__dep__incl_org.svg" target="_base">
           <rect id="button" ry="5" rx="5" y="6" x="6" height="38" width="38"
                fill="#f2f5e9" fill-opacity="0.5" stroke="#606060" stroke-width="1.0"/>
           <path id="arrow"
             d="M 11.500037,31.436501 C 11.940474,20.09759 22.043105,11.32322 32.158766,21.979434 L 37.068811,17.246167 C 37.068811,17.246167 37.088388,32 37.088388,32 L 22.160133,31.978069 C 22.160133,31.978069 26.997745,27.140456 26.997745,27.140456 C 18.528582,18.264221 13.291696,25.230495 11.500037,31.436501 z"
             style="fill:#404040;"/>
          </a>
         </g>
        </svg>
</svg>
