<?xml version="1.0" encoding="UTF-8" standalone="no"?>
<!DOCTYPE svg PUBLIC "-//W3C//DTD SVG 1.1//EN"
 "http://www.w3.org/Graphics/SVG/1.1/DTD/svg11.dtd">
<!-- Generated by graphviz version 2.43.0 (0)
 -->
<!-- Title: swarm_bot_cpp/src/ASF/common/boards/board.h Pages: 1 -->
<svg width="1512pt" height="363pt"
 viewBox="0.00 0.00 1512.00 363.00" xmlns="http://www.w3.org/2000/svg" xmlns:xlink="http://www.w3.org/1999/xlink">
<g id="graph0" class="graph" transform="scale(1 1) rotate(0) translate(4 359)">
<title>swarm_bot_cpp/src/ASF/common/boards/board.h</title>
<polygon fill="white" stroke="transparent" points="-4,4 -4,-359 1508,-359 1508,4 -4,4"/>
<!-- Node1 -->
<g id="node1" class="node">
<title>Node1</title>
<g id="a_node1"><a xlink:title="Standard board header file.">
<polygon fill="#bfbfbf" stroke="black" points="687.5,-324.5 687.5,-354.5 825.5,-354.5 825.5,-324.5 687.5,-324.5"/>
<text text-anchor="start" x="695.5" y="-342.5" font-family="Helvetica,sans-Serif" font-size="10.00">swarm_bot_cpp/src/ASF</text>
<text text-anchor="middle" x="756.5" y="-331.5" font-family="Helvetica,sans-Serif" font-size="10.00">/common/boards/board.h</text>
</a>
</g>
</g>
<!-- Node2 -->
<g id="node2" class="node">
<title>Node2</title>
<g id="a_node2"><a xlink:href=".html" target="_top" xlink:title=" ">
<polygon fill="white" stroke="black" points="518,-201.5 518,-231.5 631,-231.5 631,-201.5 518,-201.5"/>
<text text-anchor="start" x="526" y="-219.5" font-family="Helvetica,sans-Serif" font-size="10.00">swarm_bot_cpp/src/</text>
<text text-anchor="middle" x="574.5" y="-208.5" font-family="Helvetica,sans-Serif" font-size="10.00">__pin_map.h</text>
</a>
</g>
</g>
<!-- Node1&#45;&gt;Node2 -->
<g id="edge1" class="edge">
<title>Node1&#45;&gt;Node2</title>
<path fill="none" stroke="midnightblue" d="M707.63,-320.69C687.52,-312.26 664.52,-301.14 645.5,-288 621.92,-271.71 599.24,-247.13 586.1,-231.72"/>
<polygon fill="midnightblue" stroke="midnightblue" points="706.36,-323.95 716.94,-324.49 709.01,-317.47 706.36,-323.95"/>
</g>
<!-- Node3 -->
<g id="node3" class="node">
<title>Node3</title>
<g id="a_node3"><a xlink:href="____swarm__wold_____8h.html" target="_top" xlink:title="Header file for dummy purposes.">
<polygon fill="white" stroke="black" points="609,-134.5 609,-164.5 722,-164.5 722,-134.5 609,-134.5"/>
<text text-anchor="start" x="617" y="-152.5" font-family="Helvetica,sans-Serif" font-size="10.00">swarm_bot_cpp/src/</text>
<text text-anchor="middle" x="665.5" y="-141.5" font-family="Helvetica,sans-Serif" font-size="10.00">__swarm_wold__.h</text>
</a>
</g>
</g>
<!-- Node1&#45;&gt;Node3 -->
<g id="edge27" class="edge">
<title>Node1&#45;&gt;Node3</title>
<path fill="none" stroke="midnightblue" d="M712.54,-319.46C699.47,-311.63 686.52,-301.22 678.5,-288 654.62,-248.64 659.25,-190.98 663.05,-164.6"/>
<polygon fill="midnightblue" stroke="midnightblue" points="711.11,-322.67 721.55,-324.49 714.52,-316.56 711.11,-322.67"/>
</g>
<!-- Node25 -->
<g id="node15" class="node">
<title>Node25</title>
<g id="a_node15"><a xlink:href="init_8c.html" target="_top" xlink:title="User board initialization template.">
<polygon fill="white" stroke="black" points="1349,-56.5 1349,-97.5 1504,-97.5 1504,-56.5 1349,-56.5"/>
<text text-anchor="start" x="1357" y="-85.5" font-family="Helvetica,sans-Serif" font-size="10.00">swarm_bot_cpp/src/ASF</text>
<text text-anchor="start" x="1357" y="-74.5" font-family="Helvetica,sans-Serif" font-size="10.00">/common/boards/user_board</text>
<text text-anchor="middle" x="1426.5" y="-63.5" font-family="Helvetica,sans-Serif" font-size="10.00">/init.c</text>
</a>
</g>
</g>
<!-- Node1&#45;&gt;Node25 -->
<g id="edge31" class="edge">
<title>Node1&#45;&gt;Node25</title>
<path fill="none" stroke="midnightblue" d="M801.85,-320.87C922.41,-273.99 1250.19,-146.55 1376.21,-97.55"/>
<polygon fill="midnightblue" stroke="midnightblue" points="800.57,-317.61 792.52,-324.49 803.11,-324.13 800.57,-317.61"/>
</g>
<!-- Node26 -->
<g id="node16" class="node">
<title>Node26</title>
<g id="a_node16"><a xlink:href="____usart_____8h.html" target="_top" xlink:title="Header file for pid.c.">
<polygon fill="white" stroke="black" points="785,-201.5 785,-231.5 898,-231.5 898,-201.5 785,-201.5"/>
<text text-anchor="start" x="793" y="-219.5" font-family="Helvetica,sans-Serif" font-size="10.00">swarm_bot_cpp/src/</text>
<text text-anchor="middle" x="841.5" y="-208.5" font-family="Helvetica,sans-Serif" font-size="10.00">__usart__.h</text>
</a>
</g>
</g>
<!-- Node1&#45;&gt;Node26 -->
<g id="edge28" class="edge">
<title>Node1&#45;&gt;Node26</title>
<path fill="none" stroke="midnightblue" d="M800.42,-319.44C813.49,-311.6 826.45,-301.21 834.5,-288 845,-270.78 844.92,-246.69 843.51,-231.6"/>
<polygon fill="midnightblue" stroke="midnightblue" points="798.45,-316.54 791.42,-324.47 801.86,-322.65 798.45,-316.54"/>
</g>
<!-- Node28 -->
<g id="node18" class="node">
<title>Node28</title>
<g id="a_node18"><a xlink:href="asf_8h.html" target="_top" xlink:title="Autogenerated API include file for the Atmel Software Framework (ASF)">
<polygon fill="white" stroke="black" points="688,-268.5 688,-287.5 825,-287.5 825,-268.5 688,-268.5"/>
<text text-anchor="middle" x="756.5" y="-275.5" font-family="Helvetica,sans-Serif" font-size="10.00">swarm_bot_cpp/src/asf.h</text>
</a>
</g>
</g>
<!-- Node1&#45;&gt;Node28 -->
<g id="edge32" class="edge">
<title>Node1&#45;&gt;Node28</title>
<path fill="none" stroke="midnightblue" d="M756.5,-314.29C756.5,-304.86 756.5,-294.65 756.5,-287.66"/>
<polygon fill="midnightblue" stroke="midnightblue" points="753,-314.4 756.5,-324.4 760,-314.4 753,-314.4"/>
</g>
<!-- Node2&#45;&gt;Node3 -->
<g id="edge2" class="edge">
<title>Node2&#45;&gt;Node3</title>
<path fill="none" stroke="midnightblue" d="M602.57,-195.45C616.57,-185.45 633.16,-173.6 645.79,-164.58"/>
<polygon fill="midnightblue" stroke="midnightblue" points="600.35,-192.74 594.25,-201.4 604.42,-198.43 600.35,-192.74"/>
</g>
<!-- Node4 -->
<g id="node4" class="node">
<title>Node4</title>
<g id="a_node4"><a xlink:href="____adc_____8h.html" target="_top" xlink:title="Header file for adc.c.">
<polygon fill="white" stroke="red" points="131,-62 131,-92 244,-92 244,-62 131,-62"/>
<text text-anchor="start" x="139" y="-80" font-family="Helvetica,sans-Serif" font-size="10.00">swarm_bot_cpp/src/</text>
<text text-anchor="middle" x="187.5" y="-69" font-family="Helvetica,sans-Serif" font-size="10.00">__adc__.h</text>
</a>
</g>
</g>
<!-- Node3&#45;&gt;Node4 -->
<g id="edge3" class="edge">
<title>Node3&#45;&gt;Node4</title>
<path fill="none" stroke="midnightblue" d="M598.56,-144.44C514.65,-138.27 367.1,-124.36 243.5,-98 235.88,-96.37 227.87,-94.26 220.33,-92.01"/>
<polygon fill="midnightblue" stroke="midnightblue" points="598.5,-147.95 608.72,-145.18 599,-140.97 598.5,-147.95"/>
</g>
<!-- Node6 -->
<g id="node5" class="node">
<title>Node6</title>
<g id="a_node5"><a xlink:href="____dc__control_____8h.html" target="_top" xlink:title="Header file for dc_control.c.">
<polygon fill="white" stroke="red" points="262,-62 262,-92 375,-92 375,-62 262,-62"/>
<text text-anchor="start" x="270" y="-80" font-family="Helvetica,sans-Serif" font-size="10.00">swarm_bot_cpp/src/</text>
<text text-anchor="middle" x="318.5" y="-69" font-family="Helvetica,sans-Serif" font-size="10.00">__dc_control__.h</text>
</a>
</g>
</g>
<!-- Node3&#45;&gt;Node6 -->
<g id="edge6" class="edge">
<title>Node3&#45;&gt;Node6</title>
<path fill="none" stroke="midnightblue" d="M598.9,-139.97C539.44,-131.25 450.47,-116.42 374.5,-98 367.39,-96.28 359.91,-94.21 352.78,-92.08"/>
<polygon fill="midnightblue" stroke="midnightblue" points="598.52,-143.45 608.92,-141.41 599.52,-136.52 598.52,-143.45"/>
</g>
<!-- Node8 -->
<g id="node6" class="node">
<title>Node8</title>
<g id="a_node6"><a xlink:href="____format_____8h.html" target="_top" xlink:title="Header file for format.c.">
<polygon fill="white" stroke="red" points="393,-62 393,-92 506,-92 506,-62 393,-62"/>
<text text-anchor="start" x="401" y="-80" font-family="Helvetica,sans-Serif" font-size="10.00">swarm_bot_cpp/src/</text>
<text text-anchor="middle" x="449.5" y="-69" font-family="Helvetica,sans-Serif" font-size="10.00">__format__.h</text>
</a>
</g>
</g>
<!-- Node3&#45;&gt;Node8 -->
<g id="edge8" class="edge">
<title>Node3&#45;&gt;Node8</title>
<path fill="none" stroke="midnightblue" d="M607.1,-131.36C568.95,-119.32 520.33,-103.41 487.19,-92.11"/>
<polygon fill="midnightblue" stroke="midnightblue" points="606.46,-134.83 617.05,-134.49 608.56,-128.15 606.46,-134.83"/>
</g>
<!-- Node10 -->
<g id="node7" class="node">
<title>Node10</title>
<g id="a_node7"><a xlink:href="_____i_n_t__0__1_____8h.html" target="_top" xlink:title="Header file for INT_0_1.c.">
<polygon fill="white" stroke="red" points="524,-62 524,-92 637,-92 637,-62 524,-62"/>
<text text-anchor="start" x="532" y="-80" font-family="Helvetica,sans-Serif" font-size="10.00">swarm_bot_cpp/src/</text>
<text text-anchor="middle" x="580.5" y="-69" font-family="Helvetica,sans-Serif" font-size="10.00">__INT_0_1__.h</text>
</a>
</g>
</g>
<!-- Node3&#45;&gt;Node10 -->
<g id="edge10" class="edge">
<title>Node3&#45;&gt;Node10</title>
<path fill="none" stroke="midnightblue" d="M634.73,-128.11C619.83,-116.53 602.94,-102.33 591.87,-92"/>
<polygon fill="midnightblue" stroke="midnightblue" points="632.68,-130.95 642.75,-134.23 636.93,-125.38 632.68,-130.95"/>
</g>
<!-- Node12 -->
<g id="node8" class="node">
<title>Node12</title>
<g id="a_node8"><a xlink:href="____kinematics_____8h.html" target="_top" xlink:title="Header file for kimenatics.c.">
<polygon fill="white" stroke="red" points="694,-62 694,-92 807,-92 807,-62 694,-62"/>
<text text-anchor="start" x="702" y="-80" font-family="Helvetica,sans-Serif" font-size="10.00">swarm_bot_cpp/src/</text>
<text text-anchor="middle" x="750.5" y="-69" font-family="Helvetica,sans-Serif" font-size="10.00">__kinematics__.h</text>
</a>
</g>
</g>
<!-- Node3&#45;&gt;Node12 -->
<g id="edge12" class="edge">
<title>Node3&#45;&gt;Node12</title>
<path fill="none" stroke="midnightblue" d="M690.47,-127.79C704.36,-116.27 721.28,-102.23 733.61,-92"/>
<polygon fill="midnightblue" stroke="midnightblue" points="688.16,-125.16 682.7,-134.23 692.63,-130.54 688.16,-125.16"/>
</g>
<!-- Node14 -->
<g id="node9" class="node">
<title>Node14</title>
<g id="a_node9"><a xlink:href=".html" target="_top" xlink:title=" ">
<polygon fill="white" stroke="black" points="634.5,-0.5 634.5,-19.5 780.5,-19.5 780.5,-0.5 634.5,-0.5"/>
<text text-anchor="middle" x="707.5" y="-7.5" font-family="Helvetica,sans-Serif" font-size="10.00">swarm_bot_cpp/src/main.c</text>
</a>
</g>
</g>
<!-- Node3&#45;&gt;Node14 -->
<g id="edge26" class="edge">
<title>Node3&#45;&gt;Node14</title>
<path fill="none" stroke="midnightblue" d="M668.65,-124.24C671.55,-105.29 676.6,-78.5 684.5,-56 689.15,-42.75 696.97,-28.49 702.18,-19.65"/>
<polygon fill="midnightblue" stroke="midnightblue" points="665.15,-124 667.19,-134.39 672.08,-124.99 665.15,-124"/>
</g>
<!-- Node15 -->
<g id="node10" class="node">
<title>Node15</title>
<g id="a_node10"><a xlink:href="____odometry_____8h.html" target="_top" xlink:title="Header file for odometry.c.">
<polygon fill="white" stroke="red" points="825,-62 825,-92 938,-92 938,-62 825,-62"/>
<text text-anchor="start" x="833" y="-80" font-family="Helvetica,sans-Serif" font-size="10.00">swarm_bot_cpp/src/</text>
<text text-anchor="middle" x="881.5" y="-69" font-family="Helvetica,sans-Serif" font-size="10.00">__odometry__.h</text>
</a>
</g>
</g>
<!-- Node3&#45;&gt;Node15 -->
<g id="edge14" class="edge">
<title>Node3&#45;&gt;Node15</title>
<path fill="none" stroke="midnightblue" d="M712.84,-131.12C748.44,-119.1 796.95,-103.31 832.86,-92.07"/>
<polygon fill="midnightblue" stroke="midnightblue" points="711.51,-127.87 703.17,-134.4 713.76,-134.5 711.51,-127.87"/>
</g>
<!-- Node17 -->
<g id="node11" class="node">
<title>Node17</title>
<g id="a_node11"><a xlink:href="____pwm_____8h.html" target="_top" xlink:title="Header file for pwm.c.">
<polygon fill="white" stroke="red" points="956,-62 956,-92 1069,-92 1069,-62 956,-62"/>
<text text-anchor="start" x="964" y="-80" font-family="Helvetica,sans-Serif" font-size="10.00">swarm_bot_cpp/src/</text>
<text text-anchor="middle" x="1012.5" y="-69" font-family="Helvetica,sans-Serif" font-size="10.00">__pwm__.h</text>
</a>
</g>
</g>
<!-- Node3&#45;&gt;Node17 -->
<g id="edge16" class="edge">
<title>Node3&#45;&gt;Node17</title>
<path fill="none" stroke="midnightblue" d="M732.09,-134.26C732.56,-134.17 733.03,-134.09 733.5,-134 824.51,-117.44 848.56,-119.64 938.5,-98 945.62,-96.29 953.1,-94.23 960.48,-92.1"/>
<polygon fill="midnightblue" stroke="midnightblue" points="731.24,-130.86 722.03,-136.1 732.5,-137.74 731.24,-130.86"/>
</g>
<!-- Node19 -->
<g id="node12" class="node">
<title>Node19</title>
<g id="a_node12"><a xlink:href="____timer0_____8h.html" target="_top" xlink:title="Header file for timer0.c.">
<polygon fill="white" stroke="red" points="1087,-62 1087,-92 1200,-92 1200,-62 1087,-62"/>
<text text-anchor="start" x="1095" y="-80" font-family="Helvetica,sans-Serif" font-size="10.00">swarm_bot_cpp/src/</text>
<text text-anchor="middle" x="1143.5" y="-69" font-family="Helvetica,sans-Serif" font-size="10.00">__timer0__.h</text>
</a>
</g>
</g>
<!-- Node3&#45;&gt;Node19 -->
<g id="edge18" class="edge">
<title>Node3&#45;&gt;Node19</title>
<path fill="none" stroke="midnightblue" d="M732.48,-134.15C732.82,-134.1 733.16,-134.05 733.5,-134 882.08,-112.09 922.38,-128.22 1069.5,-98 1077.25,-96.41 1085.39,-94.28 1093.36,-92"/>
<polygon fill="midnightblue" stroke="midnightblue" points="731.73,-130.73 722.4,-135.74 732.82,-137.64 731.73,-130.73"/>
</g>
<!-- Node21 -->
<g id="node13" class="node">
<title>Node21</title>
<g id="a_node13"><a xlink:href="____timer1_____8h.html" target="_top" xlink:title="Header file for timer1.c.">
<polygon fill="white" stroke="red" points="0,-62 0,-92 113,-92 113,-62 0,-62"/>
<text text-anchor="start" x="8" y="-80" font-family="Helvetica,sans-Serif" font-size="10.00">swarm_bot_cpp/src/</text>
<text text-anchor="middle" x="56.5" y="-69" font-family="Helvetica,sans-Serif" font-size="10.00">__timer1__.h</text>
</a>
</g>
</g>
<!-- Node3&#45;&gt;Node21 -->
<g id="edge20" class="edge">
<title>Node3&#45;&gt;Node21</title>
<path fill="none" stroke="midnightblue" d="M598.68,-146.92C493.9,-143.38 285.39,-132.24 112.5,-98 104.74,-96.46 96.59,-94.36 88.95,-92.09"/>
<polygon fill="midnightblue" stroke="midnightblue" points="598.68,-150.42 608.79,-147.24 598.91,-143.42 598.68,-150.42"/>
</g>
<!-- Node23 -->
<g id="node14" class="node">
<title>Node23</title>
<g id="a_node14"><a xlink:href="____timer2_____8h.html" target="_top" xlink:title="Header file for timer2.c.">
<polygon fill="white" stroke="red" points="1218,-62 1218,-92 1331,-92 1331,-62 1218,-62"/>
<text text-anchor="start" x="1226" y="-80" font-family="Helvetica,sans-Serif" font-size="10.00">swarm_bot_cpp/src/</text>
<text text-anchor="middle" x="1274.5" y="-69" font-family="Helvetica,sans-Serif" font-size="10.00">__timer2__.h</text>
</a>
</g>
</g>
<!-- Node3&#45;&gt;Node23 -->
<g id="edge23" class="edge">
<title>Node3&#45;&gt;Node23</title>
<path fill="none" stroke="midnightblue" d="M732.47,-134.14C732.82,-134.09 733.16,-134.05 733.5,-134 939.87,-106.7 995.99,-136.85 1200.5,-98 1208.39,-96.5 1216.67,-94.39 1224.75,-92.09"/>
<polygon fill="midnightblue" stroke="midnightblue" points="731.77,-130.7 722.38,-135.61 732.78,-137.63 731.77,-130.7"/>
</g>
<!-- Node3&#45;&gt;Node25 -->
<g id="edge25" class="edge">
<title>Node3&#45;&gt;Node25</title>
<path fill="none" stroke="midnightblue" d="M732.09,-135.42C735.6,-134.9 739.09,-134.42 742.5,-134 1006.74,-101.3 1077.01,-136.29 1340.5,-98 1343.23,-97.6 1346,-97.16 1348.8,-96.69"/>
<polygon fill="midnightblue" stroke="midnightblue" points="731.47,-131.98 722.14,-137 732.57,-138.89 731.47,-131.98"/>
</g>
<!-- Node4&#45;&gt;Node2 -->
<g id="edge4" class="edge">
<title>Node4&#45;&gt;Node2</title>
<path fill="none" stroke="midnightblue" d="M236.59,-95.44C314.19,-123.01 463.68,-176.13 534.9,-201.43"/>
<polygon fill="midnightblue" stroke="midnightblue" points="237.64,-92.1 227.04,-92.05 235.29,-98.69 237.64,-92.1"/>
</g>
<!-- Node4&#45;&gt;Node3 -->
<g id="edge5" class="edge">
<title>Node4&#45;&gt;Node3</title>
<path fill="none" stroke="midnightblue" d="M248,-94.76C252.56,-95.96 257.09,-97.06 261.5,-98 384.07,-124.14 530.2,-138.04 608.86,-144.29"/>
<polygon fill="midnightblue" stroke="midnightblue" points="248.59,-91.29 238.02,-92.01 246.73,-98.04 248.59,-91.29"/>
</g>
<!-- Node6&#45;&gt;Node3 -->
<g id="edge7" class="edge">
<title>Node6&#45;&gt;Node3</title>
<path fill="none" stroke="midnightblue" d="M380.23,-94.82C384.38,-95.95 388.5,-97.03 392.5,-98 466.7,-115.99 553.3,-130.56 608.82,-139.35"/>
<polygon fill="midnightblue" stroke="midnightblue" points="381.1,-91.42 370.52,-92.08 379.2,-98.16 381.1,-91.42"/>
</g>
<!-- Node8&#45;&gt;Node3 -->
<g id="edge9" class="edge">
<title>Node8&#45;&gt;Node3</title>
<path fill="none" stroke="midnightblue" d="M508.09,-95.2C546.22,-107.24 594.75,-123.12 627.83,-134.4"/>
<polygon fill="midnightblue" stroke="midnightblue" points="508.73,-91.73 498.14,-92.07 506.63,-98.41 508.73,-91.73"/>
</g>
<!-- Node10&#45;&gt;Node3 -->
<g id="edge11" class="edge">
<title>Node10&#45;&gt;Node3</title>
<path fill="none" stroke="midnightblue" d="M610.89,-98.1C625.75,-109.63 642.68,-123.85 653.85,-134.23"/>
<polygon fill="midnightblue" stroke="midnightblue" points="612.97,-95.28 602.9,-92 608.73,-100.85 612.97,-95.28"/>
</g>
<!-- Node12&#45;&gt;Node14 -->
<g id="edge13" class="edge">
<title>Node12&#45;&gt;Node14</title>
<path fill="none" stroke="midnightblue" d="M735.6,-53.47C727.9,-41.83 718.94,-28.3 713.25,-19.69"/>
<polygon fill="midnightblue" stroke="midnightblue" points="732.73,-55.49 741.17,-61.9 738.57,-51.62 732.73,-55.49"/>
</g>
<!-- Node15&#45;&gt;Node3 -->
<g id="edge15" class="edge">
<title>Node15&#45;&gt;Node3</title>
<path fill="none" stroke="midnightblue" d="M834.11,-95.4C798.46,-107.44 749.86,-123.26 713.95,-134.49"/>
<polygon fill="midnightblue" stroke="midnightblue" points="835.46,-98.63 843.81,-92.11 833.21,-92.01 835.46,-98.63"/>
</g>
<!-- Node17&#45;&gt;Node3 -->
<g id="edge17" class="edge">
<title>Node17&#45;&gt;Node3</title>
<path fill="none" stroke="midnightblue" d="M968.39,-94.93C964.39,-96.02 960.39,-97.06 956.5,-98 866.56,-119.64 842.51,-117.44 751.5,-134 742.13,-135.7 732.13,-137.56 722.36,-139.36"/>
<polygon fill="midnightblue" stroke="midnightblue" points="969.58,-98.22 978.22,-92.1 967.65,-91.5 969.58,-98.22"/>
</g>
<!-- Node19&#45;&gt;Node3 -->
<g id="edge19" class="edge">
<title>Node19&#45;&gt;Node3</title>
<path fill="none" stroke="midnightblue" d="M1101.16,-94.78C1096.59,-95.98 1091.98,-97.08 1087.5,-98 940.38,-128.22 900.08,-112.09 751.5,-134 742.08,-135.39 732.05,-137.1 722.27,-138.86"/>
<polygon fill="midnightblue" stroke="midnightblue" points="1102.35,-98.08 1111.04,-92 1100.46,-91.34 1102.35,-98.08"/>
</g>
<!-- Node21&#45;&gt;Node2 -->
<g id="edge21" class="edge">
<title>Node21&#45;&gt;Node2</title>
<path fill="none" stroke="midnightblue" d="M111.81,-95.04C115.09,-96.04 118.34,-97.03 121.5,-98 219.66,-127.98 243.17,-139.18 342.5,-165 401.94,-180.45 470.78,-195.03 517.94,-204.51"/>
<polygon fill="midnightblue" stroke="midnightblue" points="112.54,-91.6 101.95,-92.01 110.48,-98.29 112.54,-91.6"/>
</g>
<!-- Node21&#45;&gt;Node3 -->
<g id="edge22" class="edge">
<title>Node21&#45;&gt;Node3</title>
<path fill="none" stroke="midnightblue" d="M116.39,-94.75C121.15,-95.98 125.89,-97.09 130.5,-98 302.86,-132.14 510.63,-143.31 608.9,-146.88"/>
<polygon fill="midnightblue" stroke="midnightblue" points="117.19,-91.34 106.62,-92.09 115.35,-98.1 117.19,-91.34"/>
</g>
<!-- Node23&#45;&gt;Node3 -->
<g id="edge24" class="edge">
<title>Node23&#45;&gt;Node3</title>
<path fill="none" stroke="midnightblue" d="M1232.77,-94.77C1228.01,-96 1223.18,-97.11 1218.5,-98 1013.99,-136.85 957.87,-106.7 751.5,-134 742.06,-135.25 732.03,-136.9 722.24,-138.64"/>
<polygon fill="midnightblue" stroke="midnightblue" points="1233.72,-98.14 1242.41,-92.09 1231.84,-91.4 1233.72,-98.14"/>
</g>
<!-- Node26&#45;&gt;Node3 -->
<g id="edge29" class="edge">
<title>Node26&#45;&gt;Node3</title>
<path fill="none" stroke="midnightblue" d="M793.62,-197.82C765.33,-187.37 730.01,-174.32 703.61,-164.58"/>
<polygon fill="midnightblue" stroke="midnightblue" points="792.72,-201.21 803.31,-201.4 795.14,-194.65 792.72,-201.21"/>
</g>
<!-- Node27 -->
<g id="node17" class="node">
<title>Node27</title>
<g id="a_node17"><a xlink:href=".html" target="_top" xlink:title=" ">
<polygon fill="white" stroke="black" points="785,-134.5 785,-164.5 898,-164.5 898,-134.5 785,-134.5"/>
<text text-anchor="start" x="793" y="-152.5" font-family="Helvetica,sans-Serif" font-size="10.00">swarm_bot_cpp/src/</text>
<text text-anchor="middle" x="841.5" y="-141.5" font-family="Helvetica,sans-Serif" font-size="10.00">__usart__.c</text>
</a>
</g>
</g>
<!-- Node26&#45;&gt;Node27 -->
<g id="edge30" class="edge">
<title>Node26&#45;&gt;Node27</title>
<path fill="none" stroke="midnightblue" d="M841.5,-191.11C841.5,-182.15 841.5,-172.32 841.5,-164.58"/>
<polygon fill="midnightblue" stroke="midnightblue" points="838,-191.4 841.5,-201.4 845,-191.4 838,-191.4"/>
</g>
<!-- Node28&#45;&gt;Node2 -->
<g id="edge33" class="edge">
<title>Node28&#45;&gt;Node2</title>
<path fill="none" stroke="midnightblue" d="M720.89,-265.36C691.23,-255.66 648.91,-241.83 617.39,-231.52"/>
<polygon fill="midnightblue" stroke="midnightblue" points="719.83,-268.69 730.42,-268.48 722.01,-262.04 719.83,-268.69"/>
</g>
<!-- Node28&#45;&gt;Node3 -->
<g id="edge34" class="edge">
<title>Node28&#45;&gt;Node3</title>
<path fill="none" stroke="midnightblue" d="M744.36,-260.13C726.34,-235.07 692.79,-188.43 675.85,-164.89"/>
<polygon fill="midnightblue" stroke="midnightblue" points="741.56,-262.23 750.25,-268.31 747.25,-258.14 741.56,-262.23"/>
</g>
<!-- Node28&#45;&gt;Node25 -->
<g id="edge36" class="edge">
<title>Node28&#45;&gt;Node25</title>
<path fill="none" stroke="midnightblue" d="M752.59,-258.4C747.3,-227.51 742.12,-165.88 776.5,-134 822.54,-91.3 1278.37,-107.14 1340.5,-98 1343.23,-97.6 1346,-97.15 1348.79,-96.68"/>
<polygon fill="midnightblue" stroke="midnightblue" points="749.16,-259.11 754.47,-268.28 756.04,-257.8 749.16,-259.11"/>
</g>
<!-- Node28&#45;&gt;Node26 -->
<g id="edge35" class="edge">
<title>Node28&#45;&gt;Node26</title>
<path fill="none" stroke="midnightblue" d="M776.87,-262.74C790.38,-253.28 808.03,-240.93 821.47,-231.52"/>
<polygon fill="midnightblue" stroke="midnightblue" points="774.86,-259.87 768.68,-268.48 778.88,-265.61 774.86,-259.87"/>
</g>
</g>
</svg>
