<?xml version="1.0" encoding="UTF-8" standalone="no"?>
<!DOCTYPE svg PUBLIC "-//W3C//DTD SVG 1.1//EN"
 "http://www.w3.org/Graphics/SVG/1.1/DTD/svg11.dtd">
<!-- Generated by graphviz version 2.43.0 (0)
 -->
<!-- Title: swarm_bot_cpp/src/ASF/common/boards/board.h Pages: 1 -->
<svg width="1512pt" height="363pt"
 viewBox="0.00 0.00 1512.00 363.00" xmlns="http://www.w3.org/2000/svg" xmlns:xlink="http://www.w3.org/1999/xlink">
<g id="graph0" class="graph" transform="scale(1 1) rotate(0) translate(4 359)">
<title>swarm_bot_cpp/src/ASF/common/boards/board.h</title>
<polygon fill="white" stroke="transparent" points="-4,4 -4,-359 1508,-359 1508,4 -4,4"/>
<!-- Node1 -->
<g id="node1" class="node">
<title>Node1</title>
<g id="a_node1"><a xlink:title="Standard board header file.">
<polygon fill="#bfbfbf" stroke="black" points="733.5,-324.5 733.5,-354.5 871.5,-354.5 871.5,-324.5 733.5,-324.5"/>
<text text-anchor="start" x="741.5" y="-342.5" font-family="Helvetica,sans-Serif" font-size="10.00">swarm_bot_cpp/src/ASF</text>
<text text-anchor="middle" x="802.5" y="-331.5" font-family="Helvetica,sans-Serif" font-size="10.00">/common/boards/board.h</text>
</a>
</g>
</g>
<!-- Node2 -->
<g id="node2" class="node">
<title>Node2</title>
<g id="a_node2"><a xlink:href="init_8c.html" target="_top" xlink:title="User board initialization template.">
<polygon fill="white" stroke="black" points="1349,-56.5 1349,-97.5 1504,-97.5 1504,-56.5 1349,-56.5"/>
<text text-anchor="start" x="1357" y="-85.5" font-family="Helvetica,sans-Serif" font-size="10.00">swarm_bot_cpp/src/ASF</text>
<text text-anchor="start" x="1357" y="-74.5" font-family="Helvetica,sans-Serif" font-size="10.00">/common/boards/user_board</text>
<text text-anchor="middle" x="1426.5" y="-63.5" font-family="Helvetica,sans-Serif" font-size="10.00">/init.c</text>
</a>
</g>
</g>
<!-- Node1&#45;&gt;Node2 -->
<g id="edge1" class="edge">
<title>Node1&#45;&gt;Node2</title>
<path fill="none" stroke="midnightblue" d="M845.42,-320.58C958.24,-273.48 1262.53,-146.45 1379.66,-97.55"/>
<polygon fill="midnightblue" stroke="midnightblue" points="843.93,-317.41 836.05,-324.49 846.63,-323.87 843.93,-317.41"/>
</g>
<!-- Node3 -->
<g id="node3" class="node">
<title>Node3</title>
<g id="a_node3"><a xlink:href=".html" target="_top" xlink:title=" ">
<polygon fill="white" stroke="black" points="564,-201.5 564,-231.5 677,-231.5 677,-201.5 564,-201.5"/>
<text text-anchor="start" x="572" y="-219.5" font-family="Helvetica,sans-Serif" font-size="10.00">swarm_bot_cpp/src/</text>
<text text-anchor="middle" x="620.5" y="-208.5" font-family="Helvetica,sans-Serif" font-size="10.00">__pin_map.h</text>
</a>
</g>
</g>
<!-- Node1&#45;&gt;Node3 -->
<g id="edge2" class="edge">
<title>Node1&#45;&gt;Node3</title>
<path fill="none" stroke="midnightblue" d="M753.63,-320.69C733.52,-312.26 710.52,-301.14 691.5,-288 667.92,-271.71 645.24,-247.13 632.1,-231.72"/>
<polygon fill="midnightblue" stroke="midnightblue" points="752.36,-323.95 762.94,-324.49 755.01,-317.47 752.36,-323.95"/>
</g>
<!-- Node4 -->
<g id="node4" class="node">
<title>Node4</title>
<g id="a_node4"><a xlink:href="____swarm__wold_____8h.html" target="_top" xlink:title="Header file for dummy purposes.">
<polygon fill="white" stroke="black" points="655,-134.5 655,-164.5 768,-164.5 768,-134.5 655,-134.5"/>
<text text-anchor="start" x="663" y="-152.5" font-family="Helvetica,sans-Serif" font-size="10.00">swarm_bot_cpp/src/</text>
<text text-anchor="middle" x="711.5" y="-141.5" font-family="Helvetica,sans-Serif" font-size="10.00">__swarm_wold__.h</text>
</a>
</g>
</g>
<!-- Node1&#45;&gt;Node4 -->
<g id="edge28" class="edge">
<title>Node1&#45;&gt;Node4</title>
<path fill="none" stroke="midnightblue" d="M758.54,-319.46C745.47,-311.63 732.52,-301.22 724.5,-288 700.62,-248.64 705.25,-190.98 709.05,-164.6"/>
<polygon fill="midnightblue" stroke="midnightblue" points="757.11,-322.67 767.55,-324.49 760.52,-316.56 757.11,-322.67"/>
</g>
<!-- Node26 -->
<g id="node16" class="node">
<title>Node26</title>
<g id="a_node16"><a xlink:href="____usart_____8h.html" target="_top" xlink:title="Header file for pid.c.">
<polygon fill="white" stroke="black" points="831,-201.5 831,-231.5 944,-231.5 944,-201.5 831,-201.5"/>
<text text-anchor="start" x="839" y="-219.5" font-family="Helvetica,sans-Serif" font-size="10.00">swarm_bot_cpp/src/</text>
<text text-anchor="middle" x="887.5" y="-208.5" font-family="Helvetica,sans-Serif" font-size="10.00">__usart__.h</text>
</a>
</g>
</g>
<!-- Node1&#45;&gt;Node26 -->
<g id="edge29" class="edge">
<title>Node1&#45;&gt;Node26</title>
<path fill="none" stroke="midnightblue" d="M846.42,-319.44C859.49,-311.6 872.45,-301.21 880.5,-288 891,-270.78 890.92,-246.69 889.51,-231.6"/>
<polygon fill="midnightblue" stroke="midnightblue" points="844.45,-316.54 837.42,-324.47 847.86,-322.65 844.45,-316.54"/>
</g>
<!-- Node28 -->
<g id="node18" class="node">
<title>Node28</title>
<g id="a_node18"><a xlink:href="asf_8h.html" target="_top" xlink:title="Autogenerated API include file for the Atmel Software Framework (ASF)">
<polygon fill="white" stroke="black" points="734,-268.5 734,-287.5 871,-287.5 871,-268.5 734,-268.5"/>
<text text-anchor="middle" x="802.5" y="-275.5" font-family="Helvetica,sans-Serif" font-size="10.00">swarm_bot_cpp/src/asf.h</text>
</a>
</g>
</g>
<!-- Node1&#45;&gt;Node28 -->
<g id="edge32" class="edge">
<title>Node1&#45;&gt;Node28</title>
<path fill="none" stroke="midnightblue" d="M802.5,-314.29C802.5,-304.86 802.5,-294.65 802.5,-287.66"/>
<polygon fill="midnightblue" stroke="midnightblue" points="799,-314.4 802.5,-324.4 806,-314.4 799,-314.4"/>
</g>
<!-- Node3&#45;&gt;Node4 -->
<g id="edge3" class="edge">
<title>Node3&#45;&gt;Node4</title>
<path fill="none" stroke="midnightblue" d="M648.57,-195.45C662.57,-185.45 679.16,-173.6 691.79,-164.58"/>
<polygon fill="midnightblue" stroke="midnightblue" points="646.35,-192.74 640.25,-201.4 650.42,-198.43 646.35,-192.74"/>
</g>
<!-- Node4&#45;&gt;Node2 -->
<g id="edge4" class="edge">
<title>Node4&#45;&gt;Node2</title>
<path fill="none" stroke="midnightblue" d="M778.09,-135.45C781.6,-134.92 785.09,-134.43 788.5,-134 1032.42,-103.19 1097.29,-133.96 1340.5,-98 1343.23,-97.6 1346,-97.15 1348.79,-96.67"/>
<polygon fill="midnightblue" stroke="midnightblue" points="777.47,-132 768.15,-137.03 778.57,-138.91 777.47,-132"/>
</g>
<!-- Node5 -->
<g id="node5" class="node">
<title>Node5</title>
<g id="a_node5"><a xlink:href="____adc_____8h.html" target="_top" xlink:title="Header file for adc.c.">
<polygon fill="white" stroke="red" points="131,-62 131,-92 244,-92 244,-62 131,-62"/>
<text text-anchor="start" x="139" y="-80" font-family="Helvetica,sans-Serif" font-size="10.00">swarm_bot_cpp/src/</text>
<text text-anchor="middle" x="187.5" y="-69" font-family="Helvetica,sans-Serif" font-size="10.00">__adc__.h</text>
</a>
</g>
</g>
<!-- Node4&#45;&gt;Node5 -->
<g id="edge5" class="edge">
<title>Node4&#45;&gt;Node5</title>
<path fill="none" stroke="midnightblue" d="M644.64,-145.46C553.08,-140.23 384.29,-127.13 243.5,-98 235.87,-96.42 227.85,-94.33 220.31,-92.09"/>
<polygon fill="midnightblue" stroke="midnightblue" points="644.7,-148.97 654.87,-146.03 645.09,-141.98 644.7,-148.97"/>
</g>
<!-- Node7 -->
<g id="node6" class="node">
<title>Node7</title>
<g id="a_node6"><a xlink:href="____dc__control_____8h.html" target="_top" xlink:title="Header file for dc_control.c.">
<polygon fill="white" stroke="red" points="524,-62 524,-92 637,-92 637,-62 524,-62"/>
<text text-anchor="start" x="532" y="-80" font-family="Helvetica,sans-Serif" font-size="10.00">swarm_bot_cpp/src/</text>
<text text-anchor="middle" x="580.5" y="-69" font-family="Helvetica,sans-Serif" font-size="10.00">__dc_control__.h</text>
</a>
</g>
</g>
<!-- Node4&#45;&gt;Node7 -->
<g id="edge8" class="edge">
<title>Node4&#45;&gt;Node7</title>
<path fill="none" stroke="midnightblue" d="M670.86,-129.87C647.73,-118.02 619.84,-102.92 601.13,-92.07"/>
<polygon fill="midnightblue" stroke="midnightblue" points="669.28,-133 679.78,-134.4 672.45,-126.76 669.28,-133"/>
</g>
<!-- Node9 -->
<g id="node7" class="node">
<title>Node9</title>
<g id="a_node7"><a xlink:href="____format_____8h.html" target="_top" xlink:title="Header file for format.c.">
<polygon fill="white" stroke="red" points="655,-62 655,-92 768,-92 768,-62 655,-62"/>
<text text-anchor="start" x="663" y="-80" font-family="Helvetica,sans-Serif" font-size="10.00">swarm_bot_cpp/src/</text>
<text text-anchor="middle" x="711.5" y="-69" font-family="Helvetica,sans-Serif" font-size="10.00">__format__.h</text>
</a>
</g>
</g>
<!-- Node4&#45;&gt;Node9 -->
<g id="edge10" class="edge">
<title>Node4&#45;&gt;Node9</title>
<path fill="none" stroke="midnightblue" d="M705.05,-124.23C704.45,-113.57 704.75,-101.41 705.95,-92.25"/>
<polygon fill="midnightblue" stroke="midnightblue" points="701.57,-124.59 705.95,-134.23 708.54,-123.96 701.57,-124.59"/>
</g>
<!-- Node11 -->
<g id="node8" class="node">
<title>Node11</title>
<g id="a_node8"><a xlink:href="_____i_n_t__0__1_____8h.html" target="_top" xlink:title="Header file for INT_0_1.c.">
<polygon fill="white" stroke="red" points="786,-62 786,-92 899,-92 899,-62 786,-62"/>
<text text-anchor="start" x="794" y="-80" font-family="Helvetica,sans-Serif" font-size="10.00">swarm_bot_cpp/src/</text>
<text text-anchor="middle" x="842.5" y="-69" font-family="Helvetica,sans-Serif" font-size="10.00">__INT_0_1__.h</text>
</a>
</g>
</g>
<!-- Node4&#45;&gt;Node11 -->
<g id="edge12" class="edge">
<title>Node4&#45;&gt;Node11</title>
<path fill="none" stroke="midnightblue" d="M740.92,-129.4C761.74,-117.62 789.51,-102.78 810.83,-92.07"/>
<polygon fill="midnightblue" stroke="midnightblue" points="739.11,-126.4 732.17,-134.4 742.59,-132.48 739.11,-126.4"/>
</g>
<!-- Node13 -->
<g id="node9" class="node">
<title>Node13</title>
<g id="a_node9"><a xlink:href="____kinematics_____8h.html" target="_top" xlink:title="Header file for kimenatics.c.">
<polygon fill="white" stroke="red" points="917,-62 917,-92 1030,-92 1030,-62 917,-62"/>
<text text-anchor="start" x="925" y="-80" font-family="Helvetica,sans-Serif" font-size="10.00">swarm_bot_cpp/src/</text>
<text text-anchor="middle" x="973.5" y="-69" font-family="Helvetica,sans-Serif" font-size="10.00">__kinematics__.h</text>
</a>
</g>
</g>
<!-- Node4&#45;&gt;Node13 -->
<g id="edge14" class="edge">
<title>Node4&#45;&gt;Node13</title>
<path fill="none" stroke="midnightblue" d="M778.15,-132.25C816.41,-122.72 865.29,-110.18 908.5,-98 915.09,-96.14 922.03,-94.1 928.83,-92.05"/>
<polygon fill="midnightblue" stroke="midnightblue" points="777.02,-128.93 768.16,-134.73 778.71,-135.72 777.02,-128.93"/>
</g>
<!-- Node15 -->
<g id="node10" class="node">
<title>Node15</title>
<g id="a_node10"><a xlink:href=".html" target="_top" xlink:title=" ">
<polygon fill="white" stroke="black" points="942.5,-0.5 942.5,-19.5 1088.5,-19.5 1088.5,-0.5 942.5,-0.5"/>
<text text-anchor="middle" x="1015.5" y="-7.5" font-family="Helvetica,sans-Serif" font-size="10.00">swarm_bot_cpp/src/main.c</text>
</a>
</g>
</g>
<!-- Node4&#45;&gt;Node15 -->
<g id="edge27" class="edge">
<title>Node4&#45;&gt;Node15</title>
<path fill="none" stroke="midnightblue" d="M778.13,-135.77C781.64,-135.15 785.11,-134.56 788.5,-134 844.09,-124.78 1002.59,-140.58 1039.5,-98 1059.51,-74.91 1035.11,-36.52 1022.35,-19.53"/>
<polygon fill="midnightblue" stroke="midnightblue" points="777.45,-132.33 768.22,-137.53 778.68,-139.22 777.45,-132.33"/>
</g>
<!-- Node16 -->
<g id="node11" class="node">
<title>Node16</title>
<g id="a_node11"><a xlink:href="____odometry_____8h.html" target="_top" xlink:title="Header file for odometry.c.">
<polygon fill="white" stroke="red" points="1087,-62 1087,-92 1200,-92 1200,-62 1087,-62"/>
<text text-anchor="start" x="1095" y="-80" font-family="Helvetica,sans-Serif" font-size="10.00">swarm_bot_cpp/src/</text>
<text text-anchor="middle" x="1143.5" y="-69" font-family="Helvetica,sans-Serif" font-size="10.00">__odometry__.h</text>
</a>
</g>
</g>
<!-- Node4&#45;&gt;Node16 -->
<g id="edge16" class="edge">
<title>Node4&#45;&gt;Node16</title>
<path fill="none" stroke="midnightblue" d="M778.48,-134.16C778.82,-134.11 779.16,-134.05 779.5,-134 905.19,-114.22 938.81,-123.32 1063.5,-98 1071.66,-96.34 1080.25,-94.24 1088.68,-92.02"/>
<polygon fill="midnightblue" stroke="midnightblue" points="777.71,-130.74 768.41,-135.82 778.85,-137.65 777.71,-130.74"/>
</g>
<!-- Node18 -->
<g id="node12" class="node">
<title>Node18</title>
<g id="a_node12"><a xlink:href="____pwm_____8h.html" target="_top" xlink:title="Header file for pwm.c.">
<polygon fill="white" stroke="red" points="1218,-62 1218,-92 1331,-92 1331,-62 1218,-62"/>
<text text-anchor="start" x="1226" y="-80" font-family="Helvetica,sans-Serif" font-size="10.00">swarm_bot_cpp/src/</text>
<text text-anchor="middle" x="1274.5" y="-69" font-family="Helvetica,sans-Serif" font-size="10.00">__pwm__.h</text>
</a>
</g>
</g>
<!-- Node4&#45;&gt;Node18 -->
<g id="edge18" class="edge">
<title>Node4&#45;&gt;Node18</title>
<path fill="none" stroke="midnightblue" d="M778.47,-134.14C778.82,-134.09 779.16,-134.05 779.5,-134 965.57,-108.59 1016.15,-133.82 1200.5,-98 1208.38,-96.47 1216.66,-94.34 1224.74,-92.04"/>
<polygon fill="midnightblue" stroke="midnightblue" points="777.76,-130.71 768.39,-135.64 778.79,-137.63 777.76,-130.71"/>
</g>
<!-- Node20 -->
<g id="node13" class="node">
<title>Node20</title>
<g id="a_node13"><a xlink:href="____timer0_____8h.html" target="_top" xlink:title="Header file for timer0.c.">
<polygon fill="white" stroke="red" points="262,-62 262,-92 375,-92 375,-62 262,-62"/>
<text text-anchor="start" x="270" y="-80" font-family="Helvetica,sans-Serif" font-size="10.00">swarm_bot_cpp/src/</text>
<text text-anchor="middle" x="318.5" y="-69" font-family="Helvetica,sans-Serif" font-size="10.00">__timer0__.h</text>
</a>
</g>
</g>
<!-- Node4&#45;&gt;Node20 -->
<g id="edge20" class="edge">
<title>Node4&#45;&gt;Node20</title>
<path fill="none" stroke="midnightblue" d="M644.6,-141.89C576.04,-134.02 466.9,-119.21 374.5,-98 367.14,-96.31 359.39,-94.21 352.06,-92.02"/>
<polygon fill="midnightblue" stroke="midnightblue" points="644.5,-145.4 654.83,-143.05 645.29,-138.45 644.5,-145.4"/>
</g>
<!-- Node22 -->
<g id="node14" class="node">
<title>Node22</title>
<g id="a_node14"><a xlink:href="____timer1_____8h.html" target="_top" xlink:title="Header file for timer1.c.">
<polygon fill="white" stroke="red" points="0,-62 0,-92 113,-92 113,-62 0,-62"/>
<text text-anchor="start" x="8" y="-80" font-family="Helvetica,sans-Serif" font-size="10.00">swarm_bot_cpp/src/</text>
<text text-anchor="middle" x="56.5" y="-69" font-family="Helvetica,sans-Serif" font-size="10.00">__timer1__.h</text>
</a>
</g>
</g>
<!-- Node4&#45;&gt;Node22 -->
<g id="edge22" class="edge">
<title>Node4&#45;&gt;Node22</title>
<path fill="none" stroke="midnightblue" d="M644.54,-147.53C532.97,-144.89 302.84,-134.99 112.5,-98 104.62,-96.47 96.34,-94.34 88.6,-92.04"/>
<polygon fill="midnightblue" stroke="midnightblue" points="644.56,-151.04 654.64,-147.76 644.72,-144.04 644.56,-151.04"/>
</g>
<!-- Node24 -->
<g id="node15" class="node">
<title>Node24</title>
<g id="a_node15"><a xlink:href="____timer2_____8h.html" target="_top" xlink:title="Header file for timer2.c.">
<polygon fill="white" stroke="red" points="393,-62 393,-92 506,-92 506,-62 393,-62"/>
<text text-anchor="start" x="401" y="-80" font-family="Helvetica,sans-Serif" font-size="10.00">swarm_bot_cpp/src/</text>
<text text-anchor="middle" x="449.5" y="-69" font-family="Helvetica,sans-Serif" font-size="10.00">__timer2__.h</text>
</a>
</g>
</g>
<!-- Node4&#45;&gt;Node24 -->
<g id="edge25" class="edge">
<title>Node4&#45;&gt;Node24</title>
<path fill="none" stroke="midnightblue" d="M644.86,-134.16C604.27,-124.43 551.65,-111.01 505.5,-98 498.91,-96.14 491.97,-94.1 485.28,-92.05"/>
<polygon fill="midnightblue" stroke="midnightblue" points="644.1,-137.58 654.64,-136.49 645.73,-130.77 644.1,-137.58"/>
</g>
<!-- Node5&#45;&gt;Node3 -->
<g id="edge6" class="edge">
<title>Node5&#45;&gt;Node3</title>
<path fill="none" stroke="midnightblue" d="M241.37,-95.11C327.89,-122.58 496.19,-176.02 576.2,-201.43"/>
<polygon fill="midnightblue" stroke="midnightblue" points="242.33,-91.74 231.74,-92.05 240.21,-98.41 242.33,-91.74"/>
</g>
<!-- Node5&#45;&gt;Node4 -->
<g id="edge7" class="edge">
<title>Node5&#45;&gt;Node4</title>
<path fill="none" stroke="midnightblue" d="M247.99,-94.82C252.55,-96 257.09,-97.09 261.5,-98 401.44,-126.96 569.03,-140.07 654.89,-145.37"/>
<polygon fill="midnightblue" stroke="midnightblue" points="248.57,-91.35 238,-92.09 246.73,-98.1 248.57,-91.35"/>
</g>
<!-- Node7&#45;&gt;Node4 -->
<g id="edge9" class="edge">
<title>Node7&#45;&gt;Node4</title>
<path fill="none" stroke="midnightblue" d="M621.09,-96.6C644.21,-108.45 672.1,-123.55 690.83,-134.4"/>
<polygon fill="midnightblue" stroke="midnightblue" points="622.67,-93.48 612.17,-92.07 619.51,-99.72 622.67,-93.48"/>
</g>
<!-- Node9&#45;&gt;Node4 -->
<g id="edge11" class="edge">
<title>Node9&#45;&gt;Node4</title>
<path fill="none" stroke="midnightblue" d="M717.95,-102.24C718.55,-112.91 718.25,-125.06 717.05,-134.23"/>
<polygon fill="midnightblue" stroke="midnightblue" points="721.43,-101.89 717.05,-92.25 714.46,-102.52 721.43,-101.89"/>
</g>
<!-- Node11&#45;&gt;Node4 -->
<g id="edge13" class="edge">
<title>Node11&#45;&gt;Node4</title>
<path fill="none" stroke="midnightblue" d="M813.13,-97.07C792.31,-108.85 764.55,-123.69 743.22,-134.4"/>
<polygon fill="midnightblue" stroke="midnightblue" points="814.93,-100.08 821.87,-92.07 811.46,-94 814.93,-100.08"/>
</g>
<!-- Node13&#45;&gt;Node15 -->
<g id="edge15" class="edge">
<title>Node13&#45;&gt;Node15</title>
<path fill="none" stroke="midnightblue" d="M988.05,-53.47C995.58,-41.83 1004.32,-28.3 1009.88,-19.69"/>
<polygon fill="midnightblue" stroke="midnightblue" points="985.1,-51.6 982.61,-61.9 990.98,-55.4 985.1,-51.6"/>
</g>
<!-- Node16&#45;&gt;Node4 -->
<g id="edge17" class="edge">
<title>Node16&#45;&gt;Node4</title>
<path fill="none" stroke="midnightblue" d="M1096.69,-94.55C1091.6,-95.81 1086.47,-96.99 1081.5,-98 956.81,-123.32 923.19,-114.22 797.5,-134 788.09,-135.48 778.07,-137.24 768.3,-139"/>
<polygon fill="midnightblue" stroke="midnightblue" points="1097.59,-97.93 1106.38,-92.02 1095.82,-91.16 1097.59,-97.93"/>
</g>
<!-- Node18&#45;&gt;Node4 -->
<g id="edge19" class="edge">
<title>Node18&#45;&gt;Node4</title>
<path fill="none" stroke="midnightblue" d="M1232.76,-94.73C1228,-95.97 1223.18,-97.09 1218.5,-98 1034.15,-133.82 983.57,-108.59 797.5,-134 788.07,-135.29 778.03,-136.96 768.25,-138.7"/>
<polygon fill="midnightblue" stroke="midnightblue" points="1233.71,-98.1 1242.4,-92.04 1231.83,-91.36 1233.71,-98.1"/>
</g>
<!-- Node20&#45;&gt;Node4 -->
<g id="edge21" class="edge">
<title>Node20&#45;&gt;Node4</title>
<path fill="none" stroke="midnightblue" d="M379.44,-94.72C383.86,-95.91 388.24,-97.02 392.5,-98 483.47,-118.88 590.66,-133.56 654.82,-141.52"/>
<polygon fill="midnightblue" stroke="midnightblue" points="380.35,-91.34 369.77,-92.02 378.47,-98.08 380.35,-91.34"/>
</g>
<!-- Node22&#45;&gt;Node3 -->
<g id="edge23" class="edge">
<title>Node22&#45;&gt;Node3</title>
<path fill="none" stroke="midnightblue" d="M111.3,-94.97C114.75,-96.01 118.17,-97.02 121.5,-98 227.77,-129.18 253.73,-139.49 361.5,-165 430.71,-181.38 511.23,-196.47 563.89,-205.8"/>
<polygon fill="midnightblue" stroke="midnightblue" points="112.15,-91.57 101.56,-92.03 110.12,-98.27 112.15,-91.57"/>
</g>
<!-- Node22&#45;&gt;Node4 -->
<g id="edge24" class="edge">
<title>Node22&#45;&gt;Node4</title>
<path fill="none" stroke="midnightblue" d="M116.16,-94.73C121,-95.97 125.82,-97.09 130.5,-98 320.48,-134.92 550.09,-144.85 654.74,-147.52"/>
<polygon fill="midnightblue" stroke="midnightblue" points="116.83,-91.28 106.26,-92.04 114.99,-98.04 116.83,-91.28"/>
</g>
<!-- Node24&#45;&gt;Node4 -->
<g id="edge26" class="edge">
<title>Node24&#45;&gt;Node4</title>
<path fill="none" stroke="midnightblue" d="M512.76,-94.91C516.4,-95.97 520,-97.01 523.5,-98 570.06,-111.12 623.2,-124.66 661.17,-134.41"/>
<polygon fill="midnightblue" stroke="midnightblue" points="513.65,-91.52 503.07,-92.05 511.67,-98.24 513.65,-91.52"/>
</g>
<!-- Node26&#45;&gt;Node4 -->
<g id="edge30" class="edge">
<title>Node26&#45;&gt;Node4</title>
<path fill="none" stroke="midnightblue" d="M839.62,-197.82C811.33,-187.37 776.01,-174.32 749.61,-164.58"/>
<polygon fill="midnightblue" stroke="midnightblue" points="838.72,-201.21 849.31,-201.4 841.14,-194.65 838.72,-201.21"/>
</g>
<!-- Node27 -->
<g id="node17" class="node">
<title>Node27</title>
<g id="a_node17"><a xlink:href=".html" target="_top" xlink:title=" ">
<polygon fill="white" stroke="black" points="831,-134.5 831,-164.5 944,-164.5 944,-134.5 831,-134.5"/>
<text text-anchor="start" x="839" y="-152.5" font-family="Helvetica,sans-Serif" font-size="10.00">swarm_bot_cpp/src/</text>
<text text-anchor="middle" x="887.5" y="-141.5" font-family="Helvetica,sans-Serif" font-size="10.00">__usart__.c</text>
</a>
</g>
</g>
<!-- Node26&#45;&gt;Node27 -->
<g id="edge31" class="edge">
<title>Node26&#45;&gt;Node27</title>
<path fill="none" stroke="midnightblue" d="M887.5,-191.11C887.5,-182.15 887.5,-172.32 887.5,-164.58"/>
<polygon fill="midnightblue" stroke="midnightblue" points="884,-191.4 887.5,-201.4 891,-191.4 884,-191.4"/>
</g>
<!-- Node28&#45;&gt;Node2 -->
<g id="edge33" class="edge">
<title>Node28&#45;&gt;Node2</title>
<path fill="none" stroke="midnightblue" d="M798.61,-258.42C793.35,-227.56 788.21,-165.98 822.5,-134 864.69,-94.65 1283.44,-106.56 1340.5,-98 1343.23,-97.59 1346,-97.14 1348.79,-96.66"/>
<polygon fill="midnightblue" stroke="midnightblue" points="795.18,-259.11 800.48,-268.29 802.05,-257.81 795.18,-259.11"/>
</g>
<!-- Node28&#45;&gt;Node3 -->
<g id="edge34" class="edge">
<title>Node28&#45;&gt;Node3</title>
<path fill="none" stroke="midnightblue" d="M766.89,-265.36C737.23,-255.66 694.91,-241.83 663.39,-231.52"/>
<polygon fill="midnightblue" stroke="midnightblue" points="765.83,-268.69 776.42,-268.48 768.01,-262.04 765.83,-268.69"/>
</g>
<!-- Node28&#45;&gt;Node4 -->
<g id="edge35" class="edge">
<title>Node28&#45;&gt;Node4</title>
<path fill="none" stroke="midnightblue" d="M790.36,-260.13C772.34,-235.07 738.79,-188.43 721.85,-164.89"/>
<polygon fill="midnightblue" stroke="midnightblue" points="787.56,-262.23 796.25,-268.31 793.25,-258.14 787.56,-262.23"/>
</g>
<!-- Node28&#45;&gt;Node26 -->
<g id="edge36" class="edge">
<title>Node28&#45;&gt;Node26</title>
<path fill="none" stroke="midnightblue" d="M822.87,-262.74C836.38,-253.28 854.03,-240.93 867.47,-231.52"/>
<polygon fill="midnightblue" stroke="midnightblue" points="820.86,-259.87 814.68,-268.48 824.88,-265.61 820.86,-259.87"/>
</g>
</g>
</svg>
