<?xml version="1.0" encoding="UTF-8" standalone="no"?>
<!DOCTYPE svg PUBLIC "-//W3C//DTD SVG 1.1//EN"
 "http://www.w3.org/Graphics/SVG/1.1/DTD/svg11.dtd">
<!-- Generated by graphviz version 2.43.0 (0)
 -->
<!-- Title: swarm_bot_cpp/src/ASF/mega/utils/compiler.h Pages: 1 -->
<svg width="504pt" height="151pt"
 viewBox="0.00 0.00 503.50 151.00" xmlns="http://www.w3.org/2000/svg" xmlns:xlink="http://www.w3.org/1999/xlink">
<g id="graph0" class="graph" transform="scale(1 1) rotate(0) translate(4 147)">
<title>swarm_bot_cpp/src/ASF/mega/utils/compiler.h</title>
<polygon fill="white" stroke="transparent" points="-4,4 -4,-147 499.5,-147 499.5,4 -4,4"/>
<!-- Node1 -->
<g id="node1" class="node">
<title>Node1</title>
<g id="a_node1"><a xlink:title="Commonly used includes, types and macros.">
<polygon fill="#bfbfbf" stroke="black" points="187,-112.5 187,-142.5 319,-142.5 319,-112.5 187,-112.5"/>
<text text-anchor="start" x="195" y="-130.5" font-family="Helvetica,sans-Serif" font-size="10.00">swarm_bot_cpp/src/ASF</text>
<text text-anchor="middle" x="253" y="-119.5" font-family="Helvetica,sans-Serif" font-size="10.00">/mega/utils/compiler.h</text>
</a>
</g>
</g>
<!-- Node2 -->
<g id="node2" class="node">
<title>Node2</title>
<g id="a_node2"><a xlink:title=" ">
<polygon fill="white" stroke="#bfbfbf" points="0,-56.5 0,-75.5 62,-75.5 62,-56.5 0,-56.5"/>
<text text-anchor="middle" x="31" y="-63.5" font-family="Helvetica,sans-Serif" font-size="10.00">stdbool.h</text>
</a>
</g>
</g>
<!-- Node1&#45;&gt;Node2 -->
<g id="edge1" class="edge">
<title>Node1&#45;&gt;Node2</title>
<path fill="none" stroke="midnightblue" d="M200.67,-112.47C161.3,-101.92 108.11,-87.67 71.85,-77.95"/>
<polygon fill="midnightblue" stroke="midnightblue" points="72.66,-74.54 62.09,-75.33 70.85,-81.3 72.66,-74.54"/>
</g>
<!-- Node3 -->
<g id="node3" class="node">
<title>Node3</title>
<g id="a_node3"><a xlink:title=" ">
<polygon fill="white" stroke="#bfbfbf" points="80.5,-56.5 80.5,-75.5 133.5,-75.5 133.5,-56.5 80.5,-56.5"/>
<text text-anchor="middle" x="107" y="-63.5" font-family="Helvetica,sans-Serif" font-size="10.00">stdint.h</text>
</a>
</g>
</g>
<!-- Node1&#45;&gt;Node3 -->
<g id="edge2" class="edge">
<title>Node1&#45;&gt;Node3</title>
<path fill="none" stroke="midnightblue" d="M218.4,-112.4C193.9,-102.42 161.34,-89.15 137.75,-79.53"/>
<polygon fill="midnightblue" stroke="midnightblue" points="138.83,-76.19 128.24,-75.66 136.18,-82.67 138.83,-76.19"/>
</g>
<!-- Node4 -->
<g id="node4" class="node">
<title>Node4</title>
<g id="a_node4"><a xlink:title=" ">
<polygon fill="white" stroke="#bfbfbf" points="152,-56.5 152,-75.5 208,-75.5 208,-56.5 152,-56.5"/>
<text text-anchor="middle" x="180" y="-63.5" font-family="Helvetica,sans-Serif" font-size="10.00">stddef.h</text>
</a>
</g>
</g>
<!-- Node1&#45;&gt;Node4 -->
<g id="edge3" class="edge">
<title>Node1&#45;&gt;Node4</title>
<path fill="none" stroke="midnightblue" d="M235.7,-112.4C224.55,-103.31 210.05,-91.49 198.64,-82.19"/>
<polygon fill="midnightblue" stroke="midnightblue" points="200.58,-79.26 190.62,-75.66 196.16,-84.69 200.58,-79.26"/>
</g>
<!-- Node5 -->
<g id="node5" class="node">
<title>Node5</title>
<g id="a_node5"><a xlink:title=" ">
<polygon fill="white" stroke="#bfbfbf" points="226.5,-56.5 226.5,-75.5 279.5,-75.5 279.5,-56.5 226.5,-56.5"/>
<text text-anchor="middle" x="253" y="-63.5" font-family="Helvetica,sans-Serif" font-size="10.00">stdlib.h</text>
</a>
</g>
</g>
<!-- Node1&#45;&gt;Node5 -->
<g id="edge4" class="edge">
<title>Node1&#45;&gt;Node5</title>
<path fill="none" stroke="midnightblue" d="M253,-112.4C253,-104.47 253,-94.46 253,-85.86"/>
<polygon fill="midnightblue" stroke="midnightblue" points="256.5,-85.66 253,-75.66 249.5,-85.66 256.5,-85.66"/>
</g>
<!-- Node6 -->
<g id="node6" class="node">
<title>Node6</title>
<g id="a_node6"><a xlink:href="parts_8h.html" target="_top" xlink:title="Atmel part identification macros.">
<polygon fill="white" stroke="black" points="314,-0.5 314,-19.5 364,-19.5 364,-0.5 314,-0.5"/>
<text text-anchor="middle" x="339" y="-7.5" font-family="Helvetica,sans-Serif" font-size="10.00">parts.h</text>
</a>
</g>
</g>
<!-- Node1&#45;&gt;Node6 -->
<g id="edge5" class="edge">
<title>Node1&#45;&gt;Node6</title>
<path fill="none" stroke="midnightblue" d="M263.55,-112.34C279.46,-90.96 309.57,-50.53 326.54,-27.73"/>
<polygon fill="midnightblue" stroke="midnightblue" points="329.38,-29.78 332.54,-19.67 323.77,-25.6 329.38,-29.78"/>
</g>
<!-- Node7 -->
<g id="node7" class="node">
<title>Node7</title>
<g id="a_node7"><a xlink:href="interrupt_8h.html" target="_top" xlink:title="Global interrupt management for 8&#45; and 32&#45;bit AVR.">
<polygon fill="white" stroke="black" points="336,-56.5 336,-75.5 404,-75.5 404,-56.5 336,-56.5"/>
<text text-anchor="middle" x="370" y="-63.5" font-family="Helvetica,sans-Serif" font-size="10.00">interrupt.h</text>
</a>
</g>
</g>
<!-- Node1&#45;&gt;Node7 -->
<g id="edge6" class="edge">
<title>Node1&#45;&gt;Node7</title>
<path fill="none" stroke="midnightblue" d="M280.73,-112.4C299.83,-102.68 325.06,-89.86 343.82,-80.31"/>
<polygon fill="midnightblue" stroke="midnightblue" points="345.65,-83.31 352.98,-75.66 342.48,-77.07 345.65,-83.31"/>
</g>
<!-- Node8 -->
<g id="node8" class="node">
<title>Node8</title>
<g id="a_node8"><a xlink:href="progmem_8h.html" target="_top" xlink:title="Program memory access.">
<polygon fill="white" stroke="black" points="422.5,-56.5 422.5,-75.5 495.5,-75.5 495.5,-56.5 422.5,-56.5"/>
<text text-anchor="middle" x="459" y="-63.5" font-family="Helvetica,sans-Serif" font-size="10.00">progmem.h</text>
</a>
</g>
</g>
<!-- Node1&#45;&gt;Node8 -->
<g id="edge8" class="edge">
<title>Node1&#45;&gt;Node8</title>
<path fill="none" stroke="midnightblue" d="M301.56,-112.47C337.56,-102.08 386.02,-88.08 419.63,-78.37"/>
<polygon fill="midnightblue" stroke="midnightblue" points="420.91,-81.64 429.55,-75.51 418.97,-74.92 420.91,-81.64"/>
</g>
<!-- Node7&#45;&gt;Node6 -->
<g id="edge7" class="edge">
<title>Node7&#45;&gt;Node6</title>
<path fill="none" stroke="midnightblue" d="M364.88,-56.08C360.59,-48.61 354.34,-37.72 349.06,-28.52"/>
<polygon fill="midnightblue" stroke="midnightblue" points="352.04,-26.68 344.02,-19.75 345.97,-30.17 352.04,-26.68"/>
</g>
</g>
</svg>
