<?xml version="1.0" encoding="UTF-8" standalone="no"?>
<!DOCTYPE svg PUBLIC "-//W3C//DTD SVG 1.1//EN"
 "http://www.w3.org/Graphics/SVG/1.1/DTD/svg11.dtd">
<!-- Generated by graphviz version 2.43.0 (0)
 -->
<!-- Title: swarm_bot_cpp/src/config/conf_board.h Pages: 1 -->
<svg width="371pt" height="385pt"
 viewBox="0.00 0.00 371.11 385.00" xmlns="http://www.w3.org/2000/svg" xmlns:xlink="http://www.w3.org/1999/xlink">
<g id="graph0" class="graph" transform="scale(1 1) rotate(0) translate(4 381)">
<title>swarm_bot_cpp/src/config/conf_board.h</title>
<polygon fill="white" stroke="transparent" points="-4,4 -4,-381 367.11,-381 367.11,4 -4,4"/>
<!-- Node1 -->
<g id="node1" class="node">
<title>Node1</title>
<g id="a_node1"><a xlink:title="User board configuration template.">
<polygon fill="#bfbfbf" stroke="black" points="117.5,-346.5 117.5,-376.5 260.5,-376.5 260.5,-346.5 117.5,-346.5"/>
<text text-anchor="start" x="125.5" y="-364.5" font-family="Helvetica,sans-Serif" font-size="10.00">swarm_bot_cpp/src/config</text>
<text text-anchor="middle" x="189" y="-353.5" font-family="Helvetica,sans-Serif" font-size="10.00">/conf_board.h</text>
</a>
</g>
</g>
<!-- Node2 -->
<g id="node2" class="node">
<title>Node2</title>
<g id="a_node2"><a xlink:href="init_8c.html" target="_top" xlink:title="User board initialization template.">
<polygon fill="white" stroke="black" points="92.5,-0.5 92.5,-41.5 247.5,-41.5 247.5,-0.5 92.5,-0.5"/>
<text text-anchor="start" x="100.5" y="-29.5" font-family="Helvetica,sans-Serif" font-size="10.00">swarm_bot_cpp/src/ASF</text>
<text text-anchor="start" x="100.5" y="-18.5" font-family="Helvetica,sans-Serif" font-size="10.00">/common/boards/user_board</text>
<text text-anchor="middle" x="170" y="-7.5" font-family="Helvetica,sans-Serif" font-size="10.00">/init.c</text>
</a>
</g>
</g>
<!-- Node1&#45;&gt;Node2 -->
<g id="edge1" class="edge">
<title>Node1&#45;&gt;Node2</title>
<path fill="none" stroke="midnightblue" d="M125.64,-343.15C70.72,-323.8 0,-286.54 0,-223 0,-223 0,-223 0,-159.5 0,-100.47 62.72,-62.42 111.97,-41.64"/>
<polygon fill="midnightblue" stroke="midnightblue" points="124.75,-346.54 135.35,-346.44 127,-339.91 124.75,-346.54"/>
</g>
<!-- Node3 -->
<g id="node3" class="node">
<title>Node3</title>
<g id="a_node3"><a xlink:href="user__board_8h.html" target="_top" xlink:title="User board definition template.">
<polygon fill="white" stroke="black" points="111.5,-268.5 111.5,-309.5 266.5,-309.5 266.5,-268.5 111.5,-268.5"/>
<text text-anchor="start" x="119.5" y="-297.5" font-family="Helvetica,sans-Serif" font-size="10.00">swarm_bot_cpp/src/ASF</text>
<text text-anchor="start" x="119.5" y="-286.5" font-family="Helvetica,sans-Serif" font-size="10.00">/common/boards/user_board</text>
<text text-anchor="middle" x="189" y="-275.5" font-family="Helvetica,sans-Serif" font-size="10.00">/user_board.h</text>
</a>
</g>
</g>
<!-- Node1&#45;&gt;Node3 -->
<g id="edge2" class="edge">
<title>Node1&#45;&gt;Node3</title>
<path fill="none" stroke="midnightblue" d="M189,-335.98C189,-327.35 189,-317.76 189,-309.59"/>
<polygon fill="midnightblue" stroke="midnightblue" points="185.5,-336.23 189,-346.23 192.5,-336.23 185.5,-336.23"/>
</g>
<!-- Node5 -->
<g id="node5" class="node">
<title>Node5</title>
<g id="a_node5"><a xlink:href=".html" target="_top" xlink:title=" ">
<polygon fill="white" stroke="black" points="28.5,-145.5 28.5,-175.5 141.5,-175.5 141.5,-145.5 28.5,-145.5"/>
<text text-anchor="start" x="36.5" y="-163.5" font-family="Helvetica,sans-Serif" font-size="10.00">swarm_bot_cpp/src/</text>
<text text-anchor="middle" x="85" y="-152.5" font-family="Helvetica,sans-Serif" font-size="10.00">__pin_map.h</text>
</a>
</g>
</g>
<!-- Node1&#45;&gt;Node5 -->
<g id="edge11" class="edge">
<title>Node1&#45;&gt;Node5</title>
<path fill="none" stroke="midnightblue" d="M139.77,-341.66C125.74,-333.93 111.88,-323.54 103,-310 75.24,-267.65 79.33,-203.65 82.85,-175.56"/>
<polygon fill="midnightblue" stroke="midnightblue" points="138.46,-344.92 148.96,-346.36 141.65,-338.69 138.46,-344.92"/>
</g>
<!-- Node6 -->
<g id="node6" class="node">
<title>Node6</title>
<g id="a_node6"><a xlink:href="____swarm__wold_____8h.html" target="_top" xlink:title="Header file for dummy purposes.">
<polygon fill="white" stroke="red" points="198.5,-78.5 198.5,-108.5 311.5,-108.5 311.5,-78.5 198.5,-78.5"/>
<text text-anchor="start" x="206.5" y="-96.5" font-family="Helvetica,sans-Serif" font-size="10.00">swarm_bot_cpp/src/</text>
<text text-anchor="middle" x="255" y="-85.5" font-family="Helvetica,sans-Serif" font-size="10.00">__swarm_wold__.h</text>
</a>
</g>
</g>
<!-- Node1&#45;&gt;Node6 -->
<g id="edge12" class="edge">
<title>Node1&#45;&gt;Node6</title>
<path fill="none" stroke="midnightblue" d="M246.85,-342.68C264.95,-334.91 283.86,-324.24 298,-310 344.12,-263.58 345.13,-239.95 359,-176 361.92,-162.54 366.31,-156.68 359,-145 348.19,-127.73 329.6,-116.22 311.1,-108.61"/>
<polygon fill="midnightblue" stroke="midnightblue" points="245.44,-339.48 237.49,-346.48 248.07,-345.96 245.44,-339.48"/>
</g>
<!-- Node28 -->
<g id="node7" class="node">
<title>Node28</title>
<g id="a_node7"><a xlink:href="____usart_____8h.html" target="_top" xlink:title="Header file for pid.c.">
<polygon fill="white" stroke="red" points="236.5,-145.5 236.5,-175.5 349.5,-175.5 349.5,-145.5 236.5,-145.5"/>
<text text-anchor="start" x="244.5" y="-163.5" font-family="Helvetica,sans-Serif" font-size="10.00">swarm_bot_cpp/src/</text>
<text text-anchor="middle" x="293" y="-152.5" font-family="Helvetica,sans-Serif" font-size="10.00">__usart__.h</text>
</a>
</g>
</g>
<!-- Node1&#45;&gt;Node28 -->
<g id="edge13" class="edge">
<title>Node1&#45;&gt;Node28</title>
<path fill="none" stroke="midnightblue" d="M239.22,-341.61C253.28,-333.9 267.14,-323.55 276,-310 303.71,-267.66 299.07,-203.66 295.28,-175.56"/>
<polygon fill="midnightblue" stroke="midnightblue" points="237.33,-338.64 230,-346.29 240.5,-344.88 237.33,-338.64"/>
</g>
<!-- Node4 -->
<g id="node4" class="node">
<title>Node4</title>
<g id="a_node4"><a xlink:href="asf_8h.html" target="_top" xlink:title="Autogenerated API include file for the Atmel Software Framework (ASF)">
<polygon fill="white" stroke="black" points="120.5,-212.5 120.5,-231.5 257.5,-231.5 257.5,-212.5 120.5,-212.5"/>
<text text-anchor="middle" x="189" y="-219.5" font-family="Helvetica,sans-Serif" font-size="10.00">swarm_bot_cpp/src/asf.h</text>
</a>
</g>
</g>
<!-- Node3&#45;&gt;Node4 -->
<g id="edge3" class="edge">
<title>Node3&#45;&gt;Node4</title>
<path fill="none" stroke="midnightblue" d="M189,-258.26C189,-248.56 189,-238.52 189,-231.65"/>
<polygon fill="midnightblue" stroke="midnightblue" points="185.5,-258.5 189,-268.5 192.5,-258.5 185.5,-258.5"/>
</g>
<!-- Node4&#45;&gt;Node2 -->
<g id="edge4" class="edge">
<title>Node4&#45;&gt;Node2</title>
<path fill="none" stroke="midnightblue" d="M187.22,-202.4C183.64,-164.84 175.56,-80.2 171.88,-41.72"/>
<polygon fill="midnightblue" stroke="midnightblue" points="183.75,-202.83 188.18,-212.45 190.72,-202.16 183.75,-202.83"/>
</g>
<!-- Node4&#45;&gt;Node5 -->
<g id="edge5" class="edge">
<title>Node4&#45;&gt;Node5</title>
<path fill="none" stroke="midnightblue" d="M165.01,-207.28C148.37,-197.75 126.27,-185.11 109.51,-175.52"/>
<polygon fill="midnightblue" stroke="midnightblue" points="163.68,-210.55 174.1,-212.48 167.16,-204.47 163.68,-210.55"/>
</g>
<!-- Node4&#45;&gt;Node6 -->
<g id="edge8" class="edge">
<title>Node4&#45;&gt;Node6</title>
<path fill="none" stroke="midnightblue" d="M198.07,-203.12C205.92,-187.69 217.61,-164.83 228,-145 234.46,-132.67 241.93,-118.72 247.37,-108.62"/>
<polygon fill="midnightblue" stroke="midnightblue" points="194.92,-201.58 193.51,-212.08 201.16,-204.75 194.92,-201.58"/>
</g>
<!-- Node4&#45;&gt;Node28 -->
<g id="edge9" class="edge">
<title>Node4&#45;&gt;Node28</title>
<path fill="none" stroke="midnightblue" d="M212.99,-207.28C229.63,-197.75 251.73,-185.11 268.49,-175.52"/>
<polygon fill="midnightblue" stroke="midnightblue" points="210.84,-204.47 203.9,-212.48 214.32,-210.55 210.84,-204.47"/>
</g>
<!-- Node5&#45;&gt;Node6 -->
<g id="edge6" class="edge">
<title>Node5&#45;&gt;Node6</title>
<path fill="none" stroke="midnightblue" d="M131.24,-141.82C158.57,-131.37 192.69,-118.32 218.18,-108.58"/>
<polygon fill="midnightblue" stroke="midnightblue" points="129.98,-138.56 121.89,-145.4 132.48,-145.09 129.98,-138.56"/>
</g>
<!-- Node6&#45;&gt;Node2 -->
<g id="edge7" class="edge">
<title>Node6&#45;&gt;Node2</title>
<path fill="none" stroke="midnightblue" d="M229.87,-71.66C218.4,-62.15 204.9,-50.94 193.62,-41.59"/>
<polygon fill="midnightblue" stroke="midnightblue" points="227.87,-74.54 237.8,-78.23 232.34,-69.16 227.87,-74.54"/>
</g>
<!-- Node28&#45;&gt;Node6 -->
<g id="edge10" class="edge">
<title>Node28&#45;&gt;Node6</title>
<path fill="none" stroke="midnightblue" d="M279.6,-136.58C274.14,-127.24 268.01,-116.75 263.23,-108.58"/>
<polygon fill="midnightblue" stroke="midnightblue" points="276.69,-138.53 284.75,-145.4 282.73,-135 276.69,-138.53"/>
</g>
</g>
</svg>
