<?xml version="1.0" encoding="UTF-8" standalone="no"?>
<!DOCTYPE svg PUBLIC "-//W3C//DTD SVG 1.1//EN"
 "http://www.w3.org/Graphics/SVG/1.1/DTD/svg11.dtd">
<!-- Generated by graphviz version 2.43.0 (0)
 -->
<!-- Title: swarm_bot_cpp/src/config/conf_board.h Pages: 1 -->
<svg width="1512pt" height="441pt"
 viewBox="0.00 0.00 1512.00 441.00" xmlns="http://www.w3.org/2000/svg" xmlns:xlink="http://www.w3.org/1999/xlink">
<g id="graph0" class="graph" transform="scale(1 1) rotate(0) translate(4 437)">
<title>swarm_bot_cpp/src/config/conf_board.h</title>
<polygon fill="white" stroke="transparent" points="-4,4 -4,-437 1508,-437 1508,4 -4,4"/>
<!-- Node1 -->
<g id="node1" class="node">
<title>Node1</title>
<g id="a_node1"><a xlink:title="User board configuration template.">
<polygon fill="#bfbfbf" stroke="black" points="692,-402.5 692,-432.5 835,-432.5 835,-402.5 692,-402.5"/>
<text text-anchor="start" x="700" y="-420.5" font-family="Helvetica,sans-Serif" font-size="10.00">swarm_bot_cpp/src/config</text>
<text text-anchor="middle" x="763.5" y="-409.5" font-family="Helvetica,sans-Serif" font-size="10.00">/conf_board.h</text>
</a>
</g>
</g>
<!-- Node2 -->
<g id="node2" class="node">
<title>Node2</title>
<g id="a_node2"><a xlink:href=".html" target="_top" xlink:title=" ">
<polygon fill="white" stroke="black" points="516,-201.5 516,-231.5 629,-231.5 629,-201.5 516,-201.5"/>
<text text-anchor="start" x="524" y="-219.5" font-family="Helvetica,sans-Serif" font-size="10.00">swarm_bot_cpp/src/</text>
<text text-anchor="middle" x="572.5" y="-208.5" font-family="Helvetica,sans-Serif" font-size="10.00">__pin_map.h</text>
</a>
</g>
</g>
<!-- Node1&#45;&gt;Node2 -->
<g id="edge1" class="edge">
<title>Node1&#45;&gt;Node2</title>
<path fill="none" stroke="midnightblue" d="M698.43,-398.96C679,-391.29 658.82,-380.61 643.5,-366 602.96,-327.35 582.88,-260.83 575.69,-231.78"/>
<polygon fill="midnightblue" stroke="midnightblue" points="697.28,-402.27 707.88,-402.49 699.73,-395.71 697.28,-402.27"/>
</g>
<!-- Node3 -->
<g id="node3" class="node">
<title>Node3</title>
<g id="a_node3"><a xlink:href="____swarm__wold_____8h.html" target="_top" xlink:title="Header file for dummy purposes.">
<polygon fill="white" stroke="black" points="609,-134.5 609,-164.5 722,-164.5 722,-134.5 609,-134.5"/>
<text text-anchor="start" x="617" y="-152.5" font-family="Helvetica,sans-Serif" font-size="10.00">swarm_bot_cpp/src/</text>
<text text-anchor="middle" x="665.5" y="-141.5" font-family="Helvetica,sans-Serif" font-size="10.00">__swarm_wold__.h</text>
</a>
</g>
</g>
<!-- Node1&#45;&gt;Node3 -->
<g id="edge27" class="edge">
<title>Node1&#45;&gt;Node3</title>
<path fill="none" stroke="midnightblue" d="M713.36,-397.8C699.44,-390.1 685.86,-379.7 677.5,-366 637.4,-300.26 653.95,-201.2 662.04,-164.67"/>
<polygon fill="midnightblue" stroke="midnightblue" points="712.02,-401.04 722.51,-402.47 715.2,-394.8 712.02,-401.04"/>
</g>
<!-- Node25 -->
<g id="node15" class="node">
<title>Node25</title>
<g id="a_node15"><a xlink:href="init_8c.html" target="_top" xlink:title="User board initialization template.">
<polygon fill="white" stroke="black" points="1349,-56.5 1349,-97.5 1504,-97.5 1504,-56.5 1349,-56.5"/>
<text text-anchor="start" x="1357" y="-85.5" font-family="Helvetica,sans-Serif" font-size="10.00">swarm_bot_cpp/src/ASF</text>
<text text-anchor="start" x="1357" y="-74.5" font-family="Helvetica,sans-Serif" font-size="10.00">/common/boards/user_board</text>
<text text-anchor="middle" x="1426.5" y="-63.5" font-family="Helvetica,sans-Serif" font-size="10.00">/init.c</text>
</a>
</g>
</g>
<!-- Node1&#45;&gt;Node25 -->
<g id="edge31" class="edge">
<title>Node1&#45;&gt;Node25</title>
<path fill="none" stroke="midnightblue" d="M845.09,-406.27C965.71,-388.83 1177.5,-348.34 1177.5,-279 1177.5,-279 1177.5,-279 1177.5,-215.5 1177.5,-172.29 1293.86,-123.9 1367.49,-97.61"/>
<polygon fill="midnightblue" stroke="midnightblue" points="844.55,-402.81 835.14,-407.68 845.53,-409.74 844.55,-402.81"/>
</g>
<!-- Node26 -->
<g id="node16" class="node">
<title>Node26</title>
<g id="a_node16"><a xlink:href="____usart_____8h.html" target="_top" xlink:title="Header file for pid.c.">
<polygon fill="white" stroke="black" points="787,-201.5 787,-231.5 900,-231.5 900,-201.5 787,-201.5"/>
<text text-anchor="start" x="795" y="-219.5" font-family="Helvetica,sans-Serif" font-size="10.00">swarm_bot_cpp/src/</text>
<text text-anchor="middle" x="843.5" y="-208.5" font-family="Helvetica,sans-Serif" font-size="10.00">__usart__.h</text>
</a>
</g>
</g>
<!-- Node1&#45;&gt;Node26 -->
<g id="edge28" class="edge">
<title>Node1&#45;&gt;Node26</title>
<path fill="none" stroke="midnightblue" d="M815.43,-397.78C829.27,-390.15 842.57,-379.78 850.5,-366 875.49,-322.61 858.58,-259.7 848.93,-231.78"/>
<polygon fill="midnightblue" stroke="midnightblue" points="813.64,-394.77 806.31,-402.42 816.81,-401.01 813.64,-394.77"/>
</g>
<!-- Node28 -->
<g id="node18" class="node">
<title>Node28</title>
<g id="a_node18"><a xlink:href="user__board_8h.html" target="_top" xlink:title="User board definition template.">
<polygon fill="white" stroke="black" points="686,-324.5 686,-365.5 841,-365.5 841,-324.5 686,-324.5"/>
<text text-anchor="start" x="694" y="-353.5" font-family="Helvetica,sans-Serif" font-size="10.00">swarm_bot_cpp/src/ASF</text>
<text text-anchor="start" x="694" y="-342.5" font-family="Helvetica,sans-Serif" font-size="10.00">/common/boards/user_board</text>
<text text-anchor="middle" x="763.5" y="-331.5" font-family="Helvetica,sans-Serif" font-size="10.00">/user_board.h</text>
</a>
</g>
</g>
<!-- Node1&#45;&gt;Node28 -->
<g id="edge32" class="edge">
<title>Node1&#45;&gt;Node28</title>
<path fill="none" stroke="midnightblue" d="M763.5,-391.98C763.5,-383.35 763.5,-373.76 763.5,-365.59"/>
<polygon fill="midnightblue" stroke="midnightblue" points="760,-392.23 763.5,-402.23 767,-392.23 760,-392.23"/>
</g>
<!-- Node2&#45;&gt;Node3 -->
<g id="edge2" class="edge">
<title>Node2&#45;&gt;Node3</title>
<path fill="none" stroke="midnightblue" d="M601.19,-195.45C615.49,-185.45 632.45,-173.6 645.36,-164.58"/>
<polygon fill="midnightblue" stroke="midnightblue" points="598.87,-192.8 592.68,-201.4 602.88,-198.54 598.87,-192.8"/>
</g>
<!-- Node4 -->
<g id="node4" class="node">
<title>Node4</title>
<g id="a_node4"><a xlink:href="____adc_____8h.html" target="_top" xlink:title="Header file for adc.c.">
<polygon fill="white" stroke="red" points="131,-62 131,-92 244,-92 244,-62 131,-62"/>
<text text-anchor="start" x="139" y="-80" font-family="Helvetica,sans-Serif" font-size="10.00">swarm_bot_cpp/src/</text>
<text text-anchor="middle" x="187.5" y="-69" font-family="Helvetica,sans-Serif" font-size="10.00">__adc__.h</text>
</a>
</g>
</g>
<!-- Node3&#45;&gt;Node4 -->
<g id="edge3" class="edge">
<title>Node3&#45;&gt;Node4</title>
<path fill="none" stroke="midnightblue" d="M598.56,-144.44C514.65,-138.27 367.1,-124.36 243.5,-98 235.88,-96.37 227.87,-94.26 220.33,-92.01"/>
<polygon fill="midnightblue" stroke="midnightblue" points="598.5,-147.95 608.72,-145.18 599,-140.97 598.5,-147.95"/>
</g>
<!-- Node6 -->
<g id="node5" class="node">
<title>Node6</title>
<g id="a_node5"><a xlink:href="____dc__control_____8h.html" target="_top" xlink:title="Header file for dc_control.c.">
<polygon fill="white" stroke="red" points="262,-62 262,-92 375,-92 375,-62 262,-62"/>
<text text-anchor="start" x="270" y="-80" font-family="Helvetica,sans-Serif" font-size="10.00">swarm_bot_cpp/src/</text>
<text text-anchor="middle" x="318.5" y="-69" font-family="Helvetica,sans-Serif" font-size="10.00">__dc_control__.h</text>
</a>
</g>
</g>
<!-- Node3&#45;&gt;Node6 -->
<g id="edge6" class="edge">
<title>Node3&#45;&gt;Node6</title>
<path fill="none" stroke="midnightblue" d="M598.9,-139.97C539.44,-131.25 450.47,-116.42 374.5,-98 367.39,-96.28 359.91,-94.21 352.78,-92.08"/>
<polygon fill="midnightblue" stroke="midnightblue" points="598.52,-143.45 608.92,-141.41 599.52,-136.52 598.52,-143.45"/>
</g>
<!-- Node8 -->
<g id="node6" class="node">
<title>Node8</title>
<g id="a_node6"><a xlink:href="____format_____8h.html" target="_top" xlink:title="Header file for format.c.">
<polygon fill="white" stroke="red" points="393,-62 393,-92 506,-92 506,-62 393,-62"/>
<text text-anchor="start" x="401" y="-80" font-family="Helvetica,sans-Serif" font-size="10.00">swarm_bot_cpp/src/</text>
<text text-anchor="middle" x="449.5" y="-69" font-family="Helvetica,sans-Serif" font-size="10.00">__format__.h</text>
</a>
</g>
</g>
<!-- Node3&#45;&gt;Node8 -->
<g id="edge8" class="edge">
<title>Node3&#45;&gt;Node8</title>
<path fill="none" stroke="midnightblue" d="M607.1,-131.36C568.95,-119.32 520.33,-103.41 487.19,-92.11"/>
<polygon fill="midnightblue" stroke="midnightblue" points="606.46,-134.83 617.05,-134.49 608.56,-128.15 606.46,-134.83"/>
</g>
<!-- Node10 -->
<g id="node7" class="node">
<title>Node10</title>
<g id="a_node7"><a xlink:href="_____i_n_t__0__1_____8h.html" target="_top" xlink:title="Header file for INT_0_1.c.">
<polygon fill="white" stroke="red" points="524,-62 524,-92 637,-92 637,-62 524,-62"/>
<text text-anchor="start" x="532" y="-80" font-family="Helvetica,sans-Serif" font-size="10.00">swarm_bot_cpp/src/</text>
<text text-anchor="middle" x="580.5" y="-69" font-family="Helvetica,sans-Serif" font-size="10.00">__INT_0_1__.h</text>
</a>
</g>
</g>
<!-- Node3&#45;&gt;Node10 -->
<g id="edge10" class="edge">
<title>Node3&#45;&gt;Node10</title>
<path fill="none" stroke="midnightblue" d="M634.73,-128.11C619.83,-116.53 602.94,-102.33 591.87,-92"/>
<polygon fill="midnightblue" stroke="midnightblue" points="632.68,-130.95 642.75,-134.23 636.93,-125.38 632.68,-130.95"/>
</g>
<!-- Node12 -->
<g id="node8" class="node">
<title>Node12</title>
<g id="a_node8"><a xlink:href="____kinematics_____8h.html" target="_top" xlink:title="Header file for kimenatics.c.">
<polygon fill="white" stroke="red" points="694,-62 694,-92 807,-92 807,-62 694,-62"/>
<text text-anchor="start" x="702" y="-80" font-family="Helvetica,sans-Serif" font-size="10.00">swarm_bot_cpp/src/</text>
<text text-anchor="middle" x="750.5" y="-69" font-family="Helvetica,sans-Serif" font-size="10.00">__kinematics__.h</text>
</a>
</g>
</g>
<!-- Node3&#45;&gt;Node12 -->
<g id="edge12" class="edge">
<title>Node3&#45;&gt;Node12</title>
<path fill="none" stroke="midnightblue" d="M690.47,-127.79C704.36,-116.27 721.28,-102.23 733.61,-92"/>
<polygon fill="midnightblue" stroke="midnightblue" points="688.16,-125.16 682.7,-134.23 692.63,-130.54 688.16,-125.16"/>
</g>
<!-- Node14 -->
<g id="node9" class="node">
<title>Node14</title>
<g id="a_node9"><a xlink:href=".html" target="_top" xlink:title=" ">
<polygon fill="white" stroke="black" points="634.5,-0.5 634.5,-19.5 780.5,-19.5 780.5,-0.5 634.5,-0.5"/>
<text text-anchor="middle" x="707.5" y="-7.5" font-family="Helvetica,sans-Serif" font-size="10.00">swarm_bot_cpp/src/main.c</text>
</a>
</g>
</g>
<!-- Node3&#45;&gt;Node14 -->
<g id="edge26" class="edge">
<title>Node3&#45;&gt;Node14</title>
<path fill="none" stroke="midnightblue" d="M669.04,-124.55C672.23,-105.61 677.63,-78.68 685.5,-56 690.06,-42.85 697.51,-28.56 702.46,-19.69"/>
<polygon fill="midnightblue" stroke="midnightblue" points="665.59,-123.99 667.46,-134.42 672.5,-125.1 665.59,-123.99"/>
</g>
<!-- Node15 -->
<g id="node10" class="node">
<title>Node15</title>
<g id="a_node10"><a xlink:href="____odometry_____8h.html" target="_top" xlink:title="Header file for odometry.c.">
<polygon fill="white" stroke="red" points="825,-62 825,-92 938,-92 938,-62 825,-62"/>
<text text-anchor="start" x="833" y="-80" font-family="Helvetica,sans-Serif" font-size="10.00">swarm_bot_cpp/src/</text>
<text text-anchor="middle" x="881.5" y="-69" font-family="Helvetica,sans-Serif" font-size="10.00">__odometry__.h</text>
</a>
</g>
</g>
<!-- Node3&#45;&gt;Node15 -->
<g id="edge14" class="edge">
<title>Node3&#45;&gt;Node15</title>
<path fill="none" stroke="midnightblue" d="M712.84,-131.12C748.44,-119.1 796.95,-103.31 832.86,-92.07"/>
<polygon fill="midnightblue" stroke="midnightblue" points="711.51,-127.87 703.17,-134.4 713.76,-134.5 711.51,-127.87"/>
</g>
<!-- Node17 -->
<g id="node11" class="node">
<title>Node17</title>
<g id="a_node11"><a xlink:href="____pwm_____8h.html" target="_top" xlink:title="Header file for pwm.c.">
<polygon fill="white" stroke="red" points="956,-62 956,-92 1069,-92 1069,-62 956,-62"/>
<text text-anchor="start" x="964" y="-80" font-family="Helvetica,sans-Serif" font-size="10.00">swarm_bot_cpp/src/</text>
<text text-anchor="middle" x="1012.5" y="-69" font-family="Helvetica,sans-Serif" font-size="10.00">__pwm__.h</text>
</a>
</g>
</g>
<!-- Node3&#45;&gt;Node17 -->
<g id="edge16" class="edge">
<title>Node3&#45;&gt;Node17</title>
<path fill="none" stroke="midnightblue" d="M732.18,-134.6C733.3,-134.4 734.4,-134.2 735.5,-134 825.67,-117.73 849.43,-119.51 938.5,-98 945.62,-96.28 953.1,-94.22 960.48,-92.09"/>
<polygon fill="midnightblue" stroke="midnightblue" points="731.25,-131.21 722.04,-136.44 732.5,-138.1 731.25,-131.21"/>
</g>
<!-- Node19 -->
<g id="node12" class="node">
<title>Node19</title>
<g id="a_node12"><a xlink:href="____timer0_____8h.html" target="_top" xlink:title="Header file for timer0.c.">
<polygon fill="white" stroke="red" points="1087,-62 1087,-92 1200,-92 1200,-62 1087,-62"/>
<text text-anchor="start" x="1095" y="-80" font-family="Helvetica,sans-Serif" font-size="10.00">swarm_bot_cpp/src/</text>
<text text-anchor="middle" x="1143.5" y="-69" font-family="Helvetica,sans-Serif" font-size="10.00">__timer0__.h</text>
</a>
</g>
</g>
<!-- Node3&#45;&gt;Node19 -->
<g id="edge18" class="edge">
<title>Node3&#45;&gt;Node19</title>
<path fill="none" stroke="midnightblue" d="M732.68,-134.42C733.62,-134.28 734.56,-134.14 735.5,-134 883.25,-112.51 923.26,-128.09 1069.5,-98 1077.25,-96.41 1085.39,-94.28 1093.36,-92"/>
<polygon fill="midnightblue" stroke="midnightblue" points="731.74,-131.02 722.41,-136.03 732.83,-137.94 731.74,-131.02"/>
</g>
<!-- Node21 -->
<g id="node13" class="node">
<title>Node21</title>
<g id="a_node13"><a xlink:href="____timer1_____8h.html" target="_top" xlink:title="Header file for timer1.c.">
<polygon fill="white" stroke="red" points="0,-62 0,-92 113,-92 113,-62 0,-62"/>
<text text-anchor="start" x="8" y="-80" font-family="Helvetica,sans-Serif" font-size="10.00">swarm_bot_cpp/src/</text>
<text text-anchor="middle" x="56.5" y="-69" font-family="Helvetica,sans-Serif" font-size="10.00">__timer1__.h</text>
</a>
</g>
</g>
<!-- Node3&#45;&gt;Node21 -->
<g id="edge20" class="edge">
<title>Node3&#45;&gt;Node21</title>
<path fill="none" stroke="midnightblue" d="M598.68,-146.92C493.9,-143.38 285.39,-132.24 112.5,-98 104.74,-96.46 96.59,-94.36 88.95,-92.09"/>
<polygon fill="midnightblue" stroke="midnightblue" points="598.68,-150.42 608.79,-147.24 598.91,-143.42 598.68,-150.42"/>
</g>
<!-- Node23 -->
<g id="node14" class="node">
<title>Node23</title>
<g id="a_node14"><a xlink:href="____timer2_____8h.html" target="_top" xlink:title="Header file for timer2.c.">
<polygon fill="white" stroke="red" points="1218,-62 1218,-92 1331,-92 1331,-62 1218,-62"/>
<text text-anchor="start" x="1226" y="-80" font-family="Helvetica,sans-Serif" font-size="10.00">swarm_bot_cpp/src/</text>
<text text-anchor="middle" x="1274.5" y="-69" font-family="Helvetica,sans-Serif" font-size="10.00">__timer2__.h</text>
</a>
</g>
</g>
<!-- Node3&#45;&gt;Node23 -->
<g id="edge23" class="edge">
<title>Node3&#45;&gt;Node23</title>
<path fill="none" stroke="midnightblue" d="M732.67,-134.38C733.62,-134.25 734.56,-134.12 735.5,-134 941.05,-107.25 996.86,-136.72 1200.5,-98 1208.39,-96.5 1216.67,-94.39 1224.75,-92.09"/>
<polygon fill="midnightblue" stroke="midnightblue" points="731.78,-130.97 722.39,-135.88 732.79,-137.9 731.78,-130.97"/>
</g>
<!-- Node3&#45;&gt;Node25 -->
<g id="edge25" class="edge">
<title>Node3&#45;&gt;Node25</title>
<path fill="none" stroke="midnightblue" d="M732.46,-135.63C736.53,-135.03 740.56,-134.48 744.5,-134 1007.93,-101.99 1077.89,-136.19 1340.5,-98 1343.23,-97.6 1346,-97.16 1348.8,-96.69"/>
<polygon fill="midnightblue" stroke="midnightblue" points="731.67,-132.21 722.33,-137.22 732.75,-139.13 731.67,-132.21"/>
</g>
<!-- Node4&#45;&gt;Node2 -->
<g id="edge4" class="edge">
<title>Node4&#45;&gt;Node2</title>
<path fill="none" stroke="midnightblue" d="M236.34,-95.44C313.54,-123.01 462.26,-176.13 533.11,-201.43"/>
<polygon fill="midnightblue" stroke="midnightblue" points="237.43,-92.12 226.84,-92.05 235.08,-98.71 237.43,-92.12"/>
</g>
<!-- Node4&#45;&gt;Node3 -->
<g id="edge5" class="edge">
<title>Node4&#45;&gt;Node3</title>
<path fill="none" stroke="midnightblue" d="M248,-94.76C252.56,-95.96 257.09,-97.06 261.5,-98 384.07,-124.14 530.2,-138.04 608.86,-144.29"/>
<polygon fill="midnightblue" stroke="midnightblue" points="248.59,-91.29 238.02,-92.01 246.73,-98.04 248.59,-91.29"/>
</g>
<!-- Node6&#45;&gt;Node3 -->
<g id="edge7" class="edge">
<title>Node6&#45;&gt;Node3</title>
<path fill="none" stroke="midnightblue" d="M380.23,-94.82C384.38,-95.95 388.5,-97.03 392.5,-98 466.7,-115.99 553.3,-130.56 608.82,-139.35"/>
<polygon fill="midnightblue" stroke="midnightblue" points="381.1,-91.42 370.52,-92.08 379.2,-98.16 381.1,-91.42"/>
</g>
<!-- Node8&#45;&gt;Node3 -->
<g id="edge9" class="edge">
<title>Node8&#45;&gt;Node3</title>
<path fill="none" stroke="midnightblue" d="M508.09,-95.2C546.22,-107.24 594.75,-123.12 627.83,-134.4"/>
<polygon fill="midnightblue" stroke="midnightblue" points="508.73,-91.73 498.14,-92.07 506.63,-98.41 508.73,-91.73"/>
</g>
<!-- Node10&#45;&gt;Node3 -->
<g id="edge11" class="edge">
<title>Node10&#45;&gt;Node3</title>
<path fill="none" stroke="midnightblue" d="M610.89,-98.1C625.75,-109.63 642.68,-123.85 653.85,-134.23"/>
<polygon fill="midnightblue" stroke="midnightblue" points="612.97,-95.28 602.9,-92 608.73,-100.85 612.97,-95.28"/>
</g>
<!-- Node12&#45;&gt;Node14 -->
<g id="edge13" class="edge">
<title>Node12&#45;&gt;Node14</title>
<path fill="none" stroke="midnightblue" d="M735.6,-53.47C727.9,-41.83 718.94,-28.3 713.25,-19.69"/>
<polygon fill="midnightblue" stroke="midnightblue" points="732.73,-55.49 741.17,-61.9 738.57,-51.62 732.73,-55.49"/>
</g>
<!-- Node15&#45;&gt;Node3 -->
<g id="edge15" class="edge">
<title>Node15&#45;&gt;Node3</title>
<path fill="none" stroke="midnightblue" d="M834.11,-95.4C798.46,-107.44 749.86,-123.26 713.95,-134.49"/>
<polygon fill="midnightblue" stroke="midnightblue" points="835.46,-98.63 843.81,-92.11 833.21,-92.01 835.46,-98.63"/>
</g>
<!-- Node17&#45;&gt;Node3 -->
<g id="edge17" class="edge">
<title>Node17&#45;&gt;Node3</title>
<path fill="none" stroke="midnightblue" d="M968.38,-94.92C964.39,-96.02 960.39,-97.06 956.5,-98 867.43,-119.51 843.67,-117.73 753.5,-134 743.48,-135.81 732.75,-137.76 722.33,-139.64"/>
<polygon fill="midnightblue" stroke="midnightblue" points="969.58,-98.22 978.22,-92.09 967.64,-91.49 969.58,-98.22"/>
</g>
<!-- Node19&#45;&gt;Node3 -->
<g id="edge19" class="edge">
<title>Node19&#45;&gt;Node3</title>
<path fill="none" stroke="midnightblue" d="M1101.16,-94.77C1096.59,-95.98 1091.98,-97.08 1087.5,-98 941.26,-128.09 901.25,-112.51 753.5,-134 743.43,-135.47 732.67,-137.27 722.24,-139.11"/>
<polygon fill="midnightblue" stroke="midnightblue" points="1102.35,-98.07 1111.03,-92 1100.46,-91.33 1102.35,-98.07"/>
</g>
<!-- Node21&#45;&gt;Node2 -->
<g id="edge21" class="edge">
<title>Node21&#45;&gt;Node2</title>
<path fill="none" stroke="midnightblue" d="M111.81,-95.04C115.09,-96.04 118.34,-97.03 121.5,-98 219.66,-127.98 243.19,-139.09 342.5,-165 401.24,-180.33 469.23,-194.87 515.97,-204.37"/>
<polygon fill="midnightblue" stroke="midnightblue" points="112.54,-91.6 101.95,-92.01 110.48,-98.29 112.54,-91.6"/>
</g>
<!-- Node21&#45;&gt;Node3 -->
<g id="edge22" class="edge">
<title>Node21&#45;&gt;Node3</title>
<path fill="none" stroke="midnightblue" d="M116.39,-94.75C121.15,-95.98 125.89,-97.09 130.5,-98 302.86,-132.14 510.63,-143.31 608.9,-146.88"/>
<polygon fill="midnightblue" stroke="midnightblue" points="117.19,-91.34 106.62,-92.09 115.35,-98.1 117.19,-91.34"/>
</g>
<!-- Node23&#45;&gt;Node3 -->
<g id="edge24" class="edge">
<title>Node23&#45;&gt;Node3</title>
<path fill="none" stroke="midnightblue" d="M1232.77,-94.77C1228.01,-96 1223.18,-97.11 1218.5,-98 1014.86,-136.72 959.05,-107.25 753.5,-134 743.41,-135.31 732.64,-137.06 722.21,-138.88"/>
<polygon fill="midnightblue" stroke="midnightblue" points="1233.72,-98.14 1242.41,-92.09 1231.84,-91.4 1233.72,-98.14"/>
</g>
<!-- Node26&#45;&gt;Node3 -->
<g id="edge29" class="edge">
<title>Node26&#45;&gt;Node3</title>
<path fill="none" stroke="midnightblue" d="M795.45,-197.96C766.78,-187.48 730.86,-174.37 704.05,-164.58"/>
<polygon fill="midnightblue" stroke="midnightblue" points="794.28,-201.25 804.88,-201.4 796.68,-194.68 794.28,-201.25"/>
</g>
<!-- Node27 -->
<g id="node17" class="node">
<title>Node27</title>
<g id="a_node17"><a xlink:href=".html" target="_top" xlink:title=" ">
<polygon fill="white" stroke="black" points="787,-134.5 787,-164.5 900,-164.5 900,-134.5 787,-134.5"/>
<text text-anchor="start" x="795" y="-152.5" font-family="Helvetica,sans-Serif" font-size="10.00">swarm_bot_cpp/src/</text>
<text text-anchor="middle" x="843.5" y="-141.5" font-family="Helvetica,sans-Serif" font-size="10.00">__usart__.c</text>
</a>
</g>
</g>
<!-- Node26&#45;&gt;Node27 -->
<g id="edge30" class="edge">
<title>Node26&#45;&gt;Node27</title>
<path fill="none" stroke="midnightblue" d="M843.5,-191.11C843.5,-182.15 843.5,-172.32 843.5,-164.58"/>
<polygon fill="midnightblue" stroke="midnightblue" points="840,-191.4 843.5,-201.4 847,-191.4 840,-191.4"/>
</g>
<!-- Node29 -->
<g id="node19" class="node">
<title>Node29</title>
<g id="a_node19"><a xlink:href="asf_8h.html" target="_top" xlink:title="Autogenerated API include file for the Atmel Software Framework (ASF)">
<polygon fill="white" stroke="black" points="690,-268.5 690,-287.5 827,-287.5 827,-268.5 690,-268.5"/>
<text text-anchor="middle" x="758.5" y="-275.5" font-family="Helvetica,sans-Serif" font-size="10.00">swarm_bot_cpp/src/asf.h</text>
</a>
</g>
</g>
<!-- Node28&#45;&gt;Node29 -->
<g id="edge33" class="edge">
<title>Node28&#45;&gt;Node29</title>
<path fill="none" stroke="midnightblue" d="M761.21,-314.26C760.47,-304.56 759.69,-294.52 759.17,-287.65"/>
<polygon fill="midnightblue" stroke="midnightblue" points="757.74,-314.8 762,-324.5 764.72,-314.26 757.74,-314.8"/>
</g>
<!-- Node29&#45;&gt;Node2 -->
<g id="edge34" class="edge">
<title>Node29&#45;&gt;Node2</title>
<path fill="none" stroke="midnightblue" d="M722.1,-265.36C691.8,-255.66 648.55,-241.83 616.34,-231.52"/>
<polygon fill="midnightblue" stroke="midnightblue" points="721.26,-268.76 731.85,-268.48 723.39,-262.09 721.26,-268.76"/>
</g>
<!-- Node29&#45;&gt;Node3 -->
<g id="edge35" class="edge">
<title>Node29&#45;&gt;Node3</title>
<path fill="none" stroke="midnightblue" d="M746.1,-260.13C727.67,-235.07 693.39,-188.43 676.08,-164.89"/>
<polygon fill="midnightblue" stroke="midnightblue" points="743.36,-262.32 752.11,-268.31 749,-258.17 743.36,-262.32"/>
</g>
<!-- Node29&#45;&gt;Node25 -->
<g id="edge37" class="edge">
<title>Node29&#45;&gt;Node25</title>
<path fill="none" stroke="midnightblue" d="M754.59,-258.4C749.3,-227.51 744.13,-165.89 778.5,-134 824.37,-91.44 1278.6,-107.12 1340.5,-98 1343.23,-97.6 1346,-97.15 1348.79,-96.67"/>
<polygon fill="midnightblue" stroke="midnightblue" points="751.16,-259.11 756.47,-268.28 758.04,-257.8 751.16,-259.11"/>
</g>
<!-- Node29&#45;&gt;Node26 -->
<g id="edge36" class="edge">
<title>Node29&#45;&gt;Node26</title>
<path fill="none" stroke="midnightblue" d="M778.87,-262.74C792.38,-253.28 810.03,-240.93 823.47,-231.52"/>
<polygon fill="midnightblue" stroke="midnightblue" points="776.86,-259.87 770.68,-268.48 780.88,-265.61 776.86,-259.87"/>
</g>
</g>
</svg>
