<?xml version="1.0" encoding="UTF-8" standalone="no"?>
<!DOCTYPE svg PUBLIC "-//W3C//DTD SVG 1.1//EN"
 "http://www.w3.org/Graphics/SVG/1.1/DTD/svg11.dtd">
<!-- Generated by graphviz version 2.43.0 (0)
 -->
<!-- Title: swarm_bot_cpp/src/ASF Pages: 1 -->
<svg width="250pt" height="183pt"
 viewBox="0.00 0.00 250.00 183.00" xmlns="http://www.w3.org/2000/svg" xmlns:xlink="http://www.w3.org/1999/xlink">
<g id="graph0" class="graph" transform="scale(1 1) rotate(0) translate(4 179)">
<title>swarm_bot_cpp/src/ASF</title>
<polygon fill="white" stroke="transparent" points="-4,4 -4,-179 246,-179 246,4 -4,4"/>
<g id="clust1" class="cluster">
<title>clusterdir_5ff9bff9080f3456b0705485f9bfb1ee</title>
<g id="a_clust1"><a xlink:href="dir_5ff9bff9080f3456b0705485f9bfb1ee.html" target="_top" xlink:title="src">
<polygon fill="#ddddee" stroke="black" points="8,-8 8,-167 234,-167 234,-8 8,-8"/>
<text text-anchor="middle" x="121" y="-155" font-family="Helvetica,sans-Serif" font-size="10.00">src</text>
</a>
</g>
</g>
<g id="clust2" class="cluster">
<title>clusterdir_251699a5df448e26da2ff8e672c06999</title>
<g id="a_clust2"><a xlink:href="dir_251699a5df448e26da2ff8e672c06999.html" target="_top">
<polygon fill="#eeeeff" stroke="black" points="16,-16 16,-140 164,-140 164,-16 16,-16"/>
</a>
</g>
</g>
<!-- dir_77d26fbd36b204cb1e085df46e738610 -->
<g id="node1" class="node">
<title>dir_77d26fbd36b204cb1e085df46e738610</title>
<g id="a_node1"><a xlink:href="dir_77d26fbd36b204cb1e085df46e738610.html" target="_top" xlink:title="config">
<polygon fill="none" stroke="black" points="226,-60 172,-60 172,-24 226,-24 226,-60"/>
<text text-anchor="middle" x="199" y="-39.5" font-family="Helvetica,sans-Serif" font-size="10.00">config</text>
</a>
</g>
</g>
<!-- dir_251699a5df448e26da2ff8e672c06999 -->
<g id="node2" class="node">
<title>dir_251699a5df448e26da2ff8e672c06999</title>
<text text-anchor="middle" x="129" y="-111.5" font-family="Helvetica,sans-Serif" font-size="10.00">ASF</text>
</g>
<!-- dir_74df48dc91d2be5b5b113c7e3bb92ea1 -->
<g id="node3" class="node">
<title>dir_74df48dc91d2be5b5b113c7e3bb92ea1</title>
<g id="a_node3"><a xlink:href="dir_74df48dc91d2be5b5b113c7e3bb92ea1.html" target="_top" xlink:title="common">
<polygon fill="white" stroke="red" points="83.5,-132 24.5,-132 24.5,-96 83.5,-96 83.5,-132"/>
<text text-anchor="middle" x="54" y="-111.5" font-family="Helvetica,sans-Serif" font-size="10.00">common</text>
</a>
</g>
</g>
<!-- dir_74df48dc91d2be5b5b113c7e3bb92ea1&#45;&gt;dir_77d26fbd36b204cb1e085df46e738610 -->
<g id="edge3" class="edge">
<title>dir_74df48dc91d2be5b5b113c7e3bb92ea1&#45;&gt;dir_77d26fbd36b204cb1e085df46e738610</title>
<path fill="none" stroke="black" d="M83.78,-99.81C104.77,-90.37 133.69,-77.08 162.68,-62.63"/>
<polygon fill="black" stroke="black" points="164.3,-65.73 171.67,-58.12 161.16,-59.48 164.3,-65.73"/>
<g id="a_edge3&#45;headlabel"><a xlink:href="dir_000003_000012.html" target="_top" xlink:title="2">
<text text-anchor="middle" x="162.37" y="-67.39" font-family="Helvetica,sans-Serif" font-size="10.00">2</text>
</a>
</g>
</g>
<!-- dir_276e1334157020eb87a235e2295a834d -->
<g id="node4" class="node">
<title>dir_276e1334157020eb87a235e2295a834d</title>
<g id="a_node4"><a xlink:href="dir_276e1334157020eb87a235e2295a834d.html" target="_top" xlink:title="mega">
<polygon fill="white" stroke="red" points="81,-60 27,-60 27,-24 81,-24 81,-60"/>
<text text-anchor="middle" x="54" y="-39.5" font-family="Helvetica,sans-Serif" font-size="10.00">mega</text>
</a>
</g>
</g>
<!-- dir_74df48dc91d2be5b5b113c7e3bb92ea1&#45;&gt;dir_276e1334157020eb87a235e2295a834d -->
<g id="edge2" class="edge">
<title>dir_74df48dc91d2be5b5b113c7e3bb92ea1&#45;&gt;dir_276e1334157020eb87a235e2295a834d</title>
<path fill="none" stroke="black" d="M48.08,-95.7C47.29,-87.98 47.06,-78.71 47.4,-70.11"/>
<polygon fill="black" stroke="black" points="50.9,-70.32 48.1,-60.1 43.92,-69.84 50.9,-70.32"/>
<g id="a_edge2&#45;headlabel"><a xlink:href="dir_000003_000008.html" target="_top" xlink:title="2">
<text text-anchor="middle" x="53.48" y="-71.61" font-family="Helvetica,sans-Serif" font-size="10.00">2</text>
</a>
</g>
</g>
<!-- dir_276e1334157020eb87a235e2295a834d&#45;&gt;dir_74df48dc91d2be5b5b113c7e3bb92ea1 -->
<g id="edge1" class="edge">
<title>dir_276e1334157020eb87a235e2295a834d&#45;&gt;dir_74df48dc91d2be5b5b113c7e3bb92ea1</title>
<path fill="none" stroke="black" d="M59.9,-60.1C60.7,-67.79 60.94,-77.05 60.6,-85.67"/>
<polygon fill="black" stroke="black" points="57.11,-85.48 59.92,-95.7 64.09,-85.96 57.11,-85.48"/>
<g id="a_edge1&#45;headlabel"><a xlink:href="dir_000008_000003.html" target="_top" xlink:title="2">
<text text-anchor="middle" x="54.52" y="-79.2" font-family="Helvetica,sans-Serif" font-size="10.00">2</text>
</a>
</g>
</g>
</g>
</svg>
