<?xml version="1.0" encoding="UTF-8" standalone="no"?>
<!DOCTYPE svg PUBLIC "-//W3C//DTD SVG 1.1//EN"
 "http://www.w3.org/Graphics/SVG/1.1/DTD/svg11.dtd">
<!-- Generated by graphviz version 2.43.0 (0)
 -->
<!-- Title: swarm_bot_cpp/src/ASF/common/boards/user_board Pages: 1 -->
<svg width="112pt" height="151pt"
 viewBox="0.00 0.00 112.00 151.00" xmlns="http://www.w3.org/2000/svg" xmlns:xlink="http://www.w3.org/1999/xlink">
<g id="graph0" class="graph" transform="scale(1 1) rotate(0) translate(4 147)">
<title>swarm_bot_cpp/src/ASF/common/boards/user_board</title>
<polygon fill="white" stroke="transparent" points="-4,4 -4,-147 108,-147 108,4 -4,4"/>
<g id="clust1" class="cluster">
<title>clusterdir_404f37874c29ed0cd6caaffc1b5ab4fc</title>
<g id="a_clust1"><a xlink:href="dir_404f37874c29ed0cd6caaffc1b5ab4fc.html" target="_top" xlink:title="boards">
<polygon fill="#ddddee" stroke="black" points="8,-64 8,-135 96,-135 96,-64 8,-64"/>
<text text-anchor="middle" x="52" y="-123" font-family="Helvetica,sans-Serif" font-size="10.00">boards</text>
</a>
</g>
</g>
<!-- dir_0aa9b805d2b79756d91b911af36b57a9 -->
<g id="node1" class="node">
<title>dir_0aa9b805d2b79756d91b911af36b57a9</title>
<g id="a_node1"><a xlink:href="dir_0aa9b805d2b79756d91b911af36b57a9.html" target="_top" xlink:title="user_board">
<polygon fill="#eeeeff" stroke="black" points="87.5,-108 16.5,-108 16.5,-72 87.5,-72 87.5,-108"/>
<text text-anchor="middle" x="52" y="-87.5" font-family="Helvetica,sans-Serif" font-size="10.00">user_board</text>
</a>
</g>
</g>
<!-- dir_77d26fbd36b204cb1e085df46e738610 -->
<g id="node2" class="node">
<title>dir_77d26fbd36b204cb1e085df46e738610</title>
<g id="a_node2"><a xlink:href="dir_77d26fbd36b204cb1e085df46e738610.html" target="_top" xlink:title="config">
<polygon fill="none" stroke="black" points="79,-36 25,-36 25,0 79,0 79,-36"/>
<text text-anchor="middle" x="52" y="-15.5" font-family="Helvetica,sans-Serif" font-size="10.00">config</text>
</a>
</g>
</g>
<!-- dir_0aa9b805d2b79756d91b911af36b57a9&#45;&gt;dir_77d26fbd36b204cb1e085df46e738610 -->
<g id="edge1" class="edge">
<title>dir_0aa9b805d2b79756d91b911af36b57a9&#45;&gt;dir_77d26fbd36b204cb1e085df46e738610</title>
<path fill="none" stroke="black" d="M52,-71.7C52,-63.98 52,-54.71 52,-46.11"/>
<polygon fill="black" stroke="black" points="55.5,-46.1 52,-36.1 48.5,-46.1 55.5,-46.1"/>
<g id="a_edge1&#45;headlabel"><a xlink:href="dir_000005_000013.html" target="_top" xlink:title="2">
<text text-anchor="middle" x="58.34" y="-47.2" font-family="Helvetica,sans-Serif" font-size="10.00">2</text>
</a>
</g>
</g>
</g>
</svg>
