<?xml version="1.0" encoding="UTF-8" standalone="no"?>
<!DOCTYPE svg PUBLIC "-//W3C//DTD SVG 1.1//EN"
 "http://www.w3.org/Graphics/SVG/1.1/DTD/svg11.dtd">
<!-- Generated by graphviz version 2.43.0 (0)
 -->
<!-- Title: swarm_bot_cpp/src/ASF/mega/utils Pages: 1 -->
<svg width="294pt" height="159pt"
 viewBox="0.00 0.00 294.00 159.00" xmlns="http://www.w3.org/2000/svg" xmlns:xlink="http://www.w3.org/1999/xlink">
<g id="graph0" class="graph" transform="scale(1 1) rotate(0) translate(4 155)">
<title>swarm_bot_cpp/src/ASF/mega/utils</title>
<polygon fill="white" stroke="transparent" points="-4,4 -4,-155 290,-155 290,4 -4,4"/>
<g id="clust1" class="cluster">
<title>clusterdir_276e1334157020eb87a235e2295a834d</title>
<g id="a_clust1"><a xlink:href="dir_276e1334157020eb87a235e2295a834d.html" target="_top" xlink:title="mega">
<polygon fill="#ddddee" stroke="black" points="8,-56 8,-143 278,-143 278,-56 8,-56"/>
<text text-anchor="middle" x="143" y="-131" font-family="Helvetica,sans-Serif" font-size="10.00">mega</text>
</a>
</g>
</g>
<g id="clust2" class="cluster">
<title>clusterdir_a03ca458299fa6ff19a4345153f6c581</title>
<g id="a_clust2"><a xlink:href="dir_a03ca458299fa6ff19a4345153f6c581.html" target="_top">
<polygon fill="#eeeeff" stroke="black" points="16,-64 16,-116 270,-116 270,-64 16,-64"/>
</a>
</g>
</g>
<!-- dir_a03ca458299fa6ff19a4345153f6c581 -->
<g id="node1" class="node">
<title>dir_a03ca458299fa6ff19a4345153f6c581</title>
<text text-anchor="middle" x="235" y="-87.5" font-family="Helvetica,sans-Serif" font-size="10.00">utils</text>
</g>
<!-- dir_74df48dc91d2be5b5b113c7e3bb92ea1 -->
<g id="node4" class="node">
<title>dir_74df48dc91d2be5b5b113c7e3bb92ea1</title>
<g id="a_node4"><a xlink:href="dir_74df48dc91d2be5b5b113c7e3bb92ea1.html" target="_top" xlink:title="common">
<polygon fill="white" stroke="red" points="264.5,-36 205.5,-36 205.5,0 264.5,0 264.5,-36"/>
<text text-anchor="middle" x="235" y="-15.5" font-family="Helvetica,sans-Serif" font-size="10.00">common</text>
</a>
</g>
</g>
<!-- dir_a03ca458299fa6ff19a4345153f6c581&#45;&gt;dir_74df48dc91d2be5b5b113c7e3bb92ea1 -->
<g id="edge1" class="edge">
<title>dir_a03ca458299fa6ff19a4345153f6c581&#45;&gt;dir_74df48dc91d2be5b5b113c7e3bb92ea1</title>
<path fill="none" stroke="black" d="M235,-71.7C235,-63.98 235,-54.71 235,-46.11"/>
<polygon fill="black" stroke="black" points="238.5,-46.1 235,-36.1 231.5,-46.1 238.5,-46.1"/>
<g id="a_edge1&#45;headlabel"><a xlink:href="dir_000009_000003.html" target="_top" xlink:title="2">
<text text-anchor="middle" x="241.34" y="-47.2" font-family="Helvetica,sans-Serif" font-size="10.00">2</text>
</a>
</g>
</g>
<!-- dir_e0783f2177854e4bee054ddb971aee8b -->
<g id="node2" class="node">
<title>dir_e0783f2177854e4bee054ddb971aee8b</title>
<g id="a_node2"><a xlink:href="dir_e0783f2177854e4bee054ddb971aee8b.html" target="_top" xlink:title="assembler">
<polygon fill="white" stroke="black" points="190,-108 122,-108 122,-72 190,-72 190,-108"/>
<text text-anchor="middle" x="156" y="-87.5" font-family="Helvetica,sans-Serif" font-size="10.00">assembler</text>
</a>
</g>
</g>
<!-- dir_676eb4f64c2ddf279e8f0480acda6393 -->
<g id="node3" class="node">
<title>dir_676eb4f64c2ddf279e8f0480acda6393</title>
<g id="a_node3"><a xlink:href="dir_676eb4f64c2ddf279e8f0480acda6393.html" target="_top" xlink:title="preprocessor">
<polygon fill="white" stroke="black" points="104,-108 24,-108 24,-72 104,-72 104,-108"/>
<text text-anchor="middle" x="64" y="-87.5" font-family="Helvetica,sans-Serif" font-size="10.00">preprocessor</text>
</a>
</g>
</g>
</g>
</svg>
