<?xml version="1.0" encoding="UTF-8" standalone="no"?>
<!DOCTYPE svg PUBLIC "-//W3C//DTD SVG 1.1//EN"
 "http://www.w3.org/Graphics/SVG/1.1/DTD/svg11.dtd">
<!-- Generated by graphviz version 2.43.0 (0)
 -->
<!-- Title: swarm_bot_cpp/src/ASF/common/utils Pages: 1 -->
<svg width="260pt" height="159pt"
 viewBox="0.00 0.00 260.00 159.00" xmlns="http://www.w3.org/2000/svg" xmlns:xlink="http://www.w3.org/1999/xlink">
<g id="graph0" class="graph" transform="scale(1 1) rotate(0) translate(4 155)">
<title>swarm_bot_cpp/src/ASF/common/utils</title>
<polygon fill="white" stroke="transparent" points="-4,4 -4,-155 256,-155 256,4 -4,4"/>
<g id="clust1" class="cluster">
<title>clusterdir_74df48dc91d2be5b5b113c7e3bb92ea1</title>
<g id="a_clust1"><a xlink:href="dir_74df48dc91d2be5b5b113c7e3bb92ea1.html" target="_top" xlink:title="common">
<polygon fill="#ddddee" stroke="black" points="8,-56 8,-143 244,-143 244,-56 8,-56"/>
<text text-anchor="middle" x="126" y="-131" font-family="Helvetica,sans-Serif" font-size="10.00">common</text>
</a>
</g>
</g>
<g id="clust2" class="cluster">
<title>clusterdir_3fc2c6057d89ccf4149428a8f8658b58</title>
<g id="a_clust2"><a xlink:href="dir_3fc2c6057d89ccf4149428a8f8658b58.html" target="_top">
<polygon fill="#eeeeff" stroke="black" points="16,-64 16,-116 236,-116 236,-64 16,-64"/>
</a>
</g>
</g>
<!-- dir_3fc2c6057d89ccf4149428a8f8658b58 -->
<g id="node1" class="node">
<title>dir_3fc2c6057d89ccf4149428a8f8658b58</title>
<text text-anchor="middle" x="201" y="-87.5" font-family="Helvetica,sans-Serif" font-size="10.00">utils</text>
</g>
<!-- dir_cad6fc5e9bda245bf8a7db95e0299d6d -->
<g id="node2" class="node">
<title>dir_cad6fc5e9bda245bf8a7db95e0299d6d</title>
<g id="a_node2"><a xlink:href="dir_cad6fc5e9bda245bf8a7db95e0299d6d.html" target="_top" xlink:title="interrupt">
<polygon fill="white" stroke="black" points="155.5,-108 96.5,-108 96.5,-72 155.5,-72 155.5,-108"/>
<text text-anchor="middle" x="126" y="-87.5" font-family="Helvetica,sans-Serif" font-size="10.00">interrupt</text>
</a>
</g>
</g>
<!-- dir_276e1334157020eb87a235e2295a834d -->
<g id="node4" class="node">
<title>dir_276e1334157020eb87a235e2295a834d</title>
<g id="a_node4"><a xlink:href="dir_276e1334157020eb87a235e2295a834d.html" target="_top" xlink:title="mega">
<polygon fill="white" stroke="red" points="153,-36 99,-36 99,0 153,0 153,-36"/>
<text text-anchor="middle" x="126" y="-15.5" font-family="Helvetica,sans-Serif" font-size="10.00">mega</text>
</a>
</g>
</g>
<!-- dir_cad6fc5e9bda245bf8a7db95e0299d6d&#45;&gt;dir_276e1334157020eb87a235e2295a834d -->
<g id="edge1" class="edge">
<title>dir_cad6fc5e9bda245bf8a7db95e0299d6d&#45;&gt;dir_276e1334157020eb87a235e2295a834d</title>
<path fill="none" stroke="black" d="M126,-71.7C126,-63.98 126,-54.71 126,-46.11"/>
<polygon fill="black" stroke="black" points="129.5,-46.1 126,-36.1 122.5,-46.1 129.5,-46.1"/>
<g id="a_edge1&#45;headlabel"><a xlink:href="dir_000007_000009.html" target="_top" xlink:title="1">
<text text-anchor="middle" x="132.34" y="-47.2" font-family="Helvetica,sans-Serif" font-size="10.00">1</text>
</a>
</g>
</g>
<!-- dir_9a61e600b9e3efe2fc5accfed8b4fa40 -->
<g id="node3" class="node">
<title>dir_9a61e600b9e3efe2fc5accfed8b4fa40</title>
<g id="a_node3"><a xlink:href="dir_9a61e600b9e3efe2fc5accfed8b4fa40.html" target="_top" xlink:title="make">
<polygon fill="white" stroke="black" points="78,-108 24,-108 24,-72 78,-72 78,-108"/>
<text text-anchor="middle" x="51" y="-87.5" font-family="Helvetica,sans-Serif" font-size="10.00">make</text>
</a>
</g>
</g>
</g>
</svg>
