<?xml version="1.0" encoding="UTF-8" standalone="no"?>
<!DOCTYPE svg PUBLIC "-//W3C//DTD SVG 1.1//EN"
 "http://www.w3.org/Graphics/SVG/1.1/DTD/svg11.dtd">
<!-- Generated by graphviz version 2.43.0 (0)
 -->
<!-- Title: swarm_bot_cpp/src/ASF/common Pages: 1 -->
<svg width="314pt" height="175pt"
 viewBox="0.00 0.00 314.00 175.00" xmlns="http://www.w3.org/2000/svg" xmlns:xlink="http://www.w3.org/1999/xlink">
<g id="graph0" class="graph" transform="scale(1 1) rotate(0) translate(4 171)">
<title>swarm_bot_cpp/src/ASF/common</title>
<polygon fill="white" stroke="transparent" points="-4,4 -4,-171 310,-171 310,4 -4,4"/>
<g id="clust1" class="cluster">
<title>clusterdir_251699a5df448e26da2ff8e672c06999</title>
<g id="a_clust1"><a xlink:href="dir_251699a5df448e26da2ff8e672c06999.html" target="_top" xlink:title="ASF">
<polygon fill="#ddddee" stroke="black" points="8,-8 8,-159 244,-159 244,-8 8,-8"/>
<text text-anchor="middle" x="126" y="-147" font-family="Helvetica,sans-Serif" font-size="10.00">ASF</text>
</a>
</g>
</g>
<g id="clust2" class="cluster">
<title>clusterdir_74df48dc91d2be5b5b113c7e3bb92ea1</title>
<g id="a_clust2"><a xlink:href="dir_74df48dc91d2be5b5b113c7e3bb92ea1.html" target="_top">
<polygon fill="#eeeeff" stroke="black" points="16,-80 16,-132 236,-132 236,-80 16,-80"/>
</a>
</g>
</g>
<!-- dir_276e1334157020eb87a235e2295a834d -->
<g id="node1" class="node">
<title>dir_276e1334157020eb87a235e2295a834d</title>
<g id="a_node1"><a xlink:href="dir_276e1334157020eb87a235e2295a834d.html" target="_top" xlink:title="mega">
<polygon fill="white" stroke="red" points="114,-52 60,-52 60,-16 114,-16 114,-52"/>
<text text-anchor="middle" x="87" y="-31.5" font-family="Helvetica,sans-Serif" font-size="10.00">mega</text>
</a>
</g>
</g>
<!-- dir_3fc2c6057d89ccf4149428a8f8658b58 -->
<g id="node4" class="node">
<title>dir_3fc2c6057d89ccf4149428a8f8658b58</title>
<g id="a_node4"><a xlink:href="dir_3fc2c6057d89ccf4149428a8f8658b58.html" target="_top" xlink:title="utils">
<polygon fill="white" stroke="red" points="78,-124 24,-124 24,-88 78,-88 78,-124"/>
<text text-anchor="middle" x="51" y="-103.5" font-family="Helvetica,sans-Serif" font-size="10.00">utils</text>
</a>
</g>
</g>
<!-- dir_276e1334157020eb87a235e2295a834d&#45;&gt;dir_3fc2c6057d89ccf4149428a8f8658b58 -->
<g id="edge3" class="edge">
<title>dir_276e1334157020eb87a235e2295a834d&#45;&gt;dir_3fc2c6057d89ccf4149428a8f8658b58</title>
<path fill="none" stroke="black" d="M84.1,-52.1C80.81,-60.13 76.02,-69.87 71.03,-78.8"/>
<polygon fill="black" stroke="black" points="67.85,-77.3 65.81,-87.7 73.89,-80.84 67.85,-77.3"/>
<g id="a_edge3&#45;headlabel"><a xlink:href="dir_000009_000006.html" target="_top" xlink:title="2">
<text text-anchor="middle" x="67.22" y="-70.26" font-family="Helvetica,sans-Serif" font-size="10.00">2</text>
</a>
</g>
</g>
<!-- dir_74df48dc91d2be5b5b113c7e3bb92ea1 -->
<g id="node2" class="node">
<title>dir_74df48dc91d2be5b5b113c7e3bb92ea1</title>
<text text-anchor="middle" x="198" y="-103.5" font-family="Helvetica,sans-Serif" font-size="10.00">common</text>
</g>
<!-- dir_404f37874c29ed0cd6caaffc1b5ab4fc -->
<g id="node3" class="node">
<title>dir_404f37874c29ed0cd6caaffc1b5ab4fc</title>
<g id="a_node3"><a xlink:href="dir_404f37874c29ed0cd6caaffc1b5ab4fc.html" target="_top" xlink:title="boards">
<polygon fill="white" stroke="red" points="150,-124 96,-124 96,-88 150,-88 150,-124"/>
<text text-anchor="middle" x="123" y="-103.5" font-family="Helvetica,sans-Serif" font-size="10.00">boards</text>
</a>
</g>
</g>
<!-- dir_404f37874c29ed0cd6caaffc1b5ab4fc&#45;&gt;dir_276e1334157020eb87a235e2295a834d -->
<g id="edge1" class="edge">
<title>dir_404f37874c29ed0cd6caaffc1b5ab4fc&#45;&gt;dir_276e1334157020eb87a235e2295a834d</title>
<path fill="none" stroke="black" d="M114.1,-87.7C110,-79.73 105.05,-70.1 100.51,-61.26"/>
<polygon fill="black" stroke="black" points="103.48,-59.4 95.8,-52.1 97.26,-62.6 103.48,-59.4"/>
<g id="a_edge1&#45;headlabel"><a xlink:href="dir_000004_000009.html" target="_top" xlink:title="1">
<text text-anchor="middle" x="107.65" y="-58.79" font-family="Helvetica,sans-Serif" font-size="10.00">1</text>
</a>
</g>
</g>
<!-- dir_77d26fbd36b204cb1e085df46e738610 -->
<g id="node5" class="node">
<title>dir_77d26fbd36b204cb1e085df46e738610</title>
<g id="a_node5"><a xlink:href="dir_77d26fbd36b204cb1e085df46e738610.html" target="_top" xlink:title="config">
<polygon fill="none" stroke="black" points="306,-52 252,-52 252,-16 306,-16 306,-52"/>
<text text-anchor="middle" x="279" y="-31.5" font-family="Helvetica,sans-Serif" font-size="10.00">config</text>
</a>
</g>
</g>
<!-- dir_404f37874c29ed0cd6caaffc1b5ab4fc&#45;&gt;dir_77d26fbd36b204cb1e085df46e738610 -->
<g id="edge2" class="edge">
<title>dir_404f37874c29ed0cd6caaffc1b5ab4fc&#45;&gt;dir_77d26fbd36b204cb1e085df46e738610</title>
<path fill="none" stroke="black" d="M146.28,-87.81C150.71,-84.97 155.4,-82.23 160,-80 193.91,-63.57 207.93,-67.33 242.09,-54.25"/>
<polygon fill="black" stroke="black" points="243.82,-57.32 251.76,-50.31 241.18,-50.84 243.82,-57.32"/>
<g id="a_edge2&#45;headlabel"><a xlink:href="dir_000004_000013.html" target="_top" xlink:title="2">
<text text-anchor="middle" x="241.56" y="-58.81" font-family="Helvetica,sans-Serif" font-size="10.00">2</text>
</a>
</g>
</g>
<!-- dir_3fc2c6057d89ccf4149428a8f8658b58&#45;&gt;dir_276e1334157020eb87a235e2295a834d -->
<g id="edge4" class="edge">
<title>dir_3fc2c6057d89ccf4149428a8f8658b58&#45;&gt;dir_276e1334157020eb87a235e2295a834d</title>
<path fill="none" stroke="black" d="M53.98,-87.7C57.29,-79.64 62.1,-69.89 67.09,-60.98"/>
<polygon fill="black" stroke="black" points="70.26,-62.5 72.31,-52.1 64.22,-58.95 70.26,-62.5"/>
<g id="a_edge4&#45;headlabel"><a xlink:href="dir_000006_000009.html" target="_top" xlink:title="1">
<text text-anchor="middle" x="70.89" y="-64.54" font-family="Helvetica,sans-Serif" font-size="10.00">1</text>
</a>
</g>
</g>
</g>
</svg>
