<?xml version="1.0" encoding="UTF-8" standalone="no"?>
<!DOCTYPE svg PUBLIC "-//W3C//DTD SVG 1.1//EN"
 "http://www.w3.org/Graphics/SVG/1.1/DTD/svg11.dtd">
<!-- Generated by graphviz version 2.43.0 (0)
 -->
<!-- Title: swarm_bot_cpp/src/ASF/common/utils/interrupt Pages: 1 -->
<svg width="100pt" height="151pt"
 viewBox="0.00 0.00 100.00 151.00" xmlns="http://www.w3.org/2000/svg" xmlns:xlink="http://www.w3.org/1999/xlink">
<g id="graph0" class="graph" transform="scale(1 1) rotate(0) translate(4 147)">
<title>swarm_bot_cpp/src/ASF/common/utils/interrupt</title>
<polygon fill="white" stroke="transparent" points="-4,4 -4,-147 96,-147 96,4 -4,4"/>
<g id="clust1" class="cluster">
<title>clusterdir_3fc2c6057d89ccf4149428a8f8658b58</title>
<g id="a_clust1"><a xlink:href="dir_3fc2c6057d89ccf4149428a8f8658b58.html" target="_top" xlink:title="utils">
<polygon fill="#ddddee" stroke="black" points="8,-64 8,-135 84,-135 84,-64 8,-64"/>
<text text-anchor="middle" x="46" y="-123" font-family="Helvetica,sans-Serif" font-size="10.00">utils</text>
</a>
</g>
</g>
<!-- dir_cad6fc5e9bda245bf8a7db95e0299d6d -->
<g id="node1" class="node">
<title>dir_cad6fc5e9bda245bf8a7db95e0299d6d</title>
<g id="a_node1"><a xlink:href="dir_cad6fc5e9bda245bf8a7db95e0299d6d.html" target="_top" xlink:title="interrupt">
<polygon fill="#eeeeff" stroke="black" points="75.5,-108 16.5,-108 16.5,-72 75.5,-72 75.5,-108"/>
<text text-anchor="middle" x="46" y="-87.5" font-family="Helvetica,sans-Serif" font-size="10.00">interrupt</text>
</a>
</g>
</g>
<!-- dir_276e1334157020eb87a235e2295a834d -->
<g id="node2" class="node">
<title>dir_276e1334157020eb87a235e2295a834d</title>
<g id="a_node2"><a xlink:href="dir_276e1334157020eb87a235e2295a834d.html" target="_top" xlink:title="mega">
<polygon fill="white" stroke="red" points="73,-36 19,-36 19,0 73,0 73,-36"/>
<text text-anchor="middle" x="46" y="-15.5" font-family="Helvetica,sans-Serif" font-size="10.00">mega</text>
</a>
</g>
</g>
<!-- dir_cad6fc5e9bda245bf8a7db95e0299d6d&#45;&gt;dir_276e1334157020eb87a235e2295a834d -->
<g id="edge1" class="edge">
<title>dir_cad6fc5e9bda245bf8a7db95e0299d6d&#45;&gt;dir_276e1334157020eb87a235e2295a834d</title>
<path fill="none" stroke="black" d="M46,-71.7C46,-63.98 46,-54.71 46,-46.11"/>
<polygon fill="black" stroke="black" points="49.5,-46.1 46,-36.1 42.5,-46.1 49.5,-46.1"/>
<g id="a_edge1&#45;headlabel"><a xlink:href="dir_000007_000008.html" target="_top" xlink:title="1">
<text text-anchor="middle" x="52.34" y="-47.2" font-family="Helvetica,sans-Serif" font-size="10.00">1</text>
</a>
</g>
</g>
</g>
</svg>
