<?xml version="1.0" encoding="UTF-8" standalone="no"?>
<!DOCTYPE svg PUBLIC "-//W3C//DTD SVG 1.1//EN"
 "http://www.w3.org/Graphics/SVG/1.1/DTD/svg11.dtd">
<!-- Generated by graphviz version 2.43.0 (0)
 -->
<!-- Title: swarm_bot_cpp/src/ASF/common/boards Pages: 1 -->
<svg width="200pt" height="159pt"
 viewBox="0.00 0.00 200.00 159.00" xmlns="http://www.w3.org/2000/svg" xmlns:xlink="http://www.w3.org/1999/xlink">
<g id="graph0" class="graph" transform="scale(1 1) rotate(0) translate(4 155)">
<title>swarm_bot_cpp/src/ASF/common/boards</title>
<polygon fill="white" stroke="transparent" points="-4,4 -4,-155 196,-155 196,4 -4,4"/>
<g id="clust1" class="cluster">
<title>clusterdir_74df48dc91d2be5b5b113c7e3bb92ea1</title>
<g id="a_clust1"><a xlink:href="dir_74df48dc91d2be5b5b113c7e3bb92ea1.html" target="_top" xlink:title="common">
<polygon fill="#ddddee" stroke="black" points="8,-56 8,-143 184,-143 184,-56 8,-56"/>
<text text-anchor="middle" x="96" y="-131" font-family="Helvetica,sans-Serif" font-size="10.00">common</text>
</a>
</g>
</g>
<g id="clust2" class="cluster">
<title>clusterdir_404f37874c29ed0cd6caaffc1b5ab4fc</title>
<g id="a_clust2"><a xlink:href="dir_404f37874c29ed0cd6caaffc1b5ab4fc.html" target="_top">
<polygon fill="#eeeeff" stroke="black" points="16,-64 16,-116 176,-116 176,-64 16,-64"/>
</a>
</g>
</g>
<!-- dir_404f37874c29ed0cd6caaffc1b5ab4fc -->
<g id="node1" class="node">
<title>dir_404f37874c29ed0cd6caaffc1b5ab4fc</title>
<text text-anchor="middle" x="51" y="-87.5" font-family="Helvetica,sans-Serif" font-size="10.00">boards</text>
</g>
<!-- dir_276e1334157020eb87a235e2295a834d -->
<g id="node3" class="node">
<title>dir_276e1334157020eb87a235e2295a834d</title>
<g id="a_node3"><a xlink:href="dir_276e1334157020eb87a235e2295a834d.html" target="_top" xlink:title="mega">
<polygon fill="white" stroke="red" points="78,-36 24,-36 24,0 78,0 78,-36"/>
<text text-anchor="middle" x="51" y="-15.5" font-family="Helvetica,sans-Serif" font-size="10.00">mega</text>
</a>
</g>
</g>
<!-- dir_404f37874c29ed0cd6caaffc1b5ab4fc&#45;&gt;dir_276e1334157020eb87a235e2295a834d -->
<g id="edge1" class="edge">
<title>dir_404f37874c29ed0cd6caaffc1b5ab4fc&#45;&gt;dir_276e1334157020eb87a235e2295a834d</title>
<path fill="none" stroke="black" d="M51,-71.7C51,-63.98 51,-54.71 51,-46.11"/>
<polygon fill="black" stroke="black" points="54.5,-46.1 51,-36.1 47.5,-46.1 54.5,-46.1"/>
<g id="a_edge1&#45;headlabel"><a xlink:href="dir_000004_000008.html" target="_top" xlink:title="1">
<text text-anchor="middle" x="57.34" y="-47.2" font-family="Helvetica,sans-Serif" font-size="10.00">1</text>
</a>
</g>
</g>
<!-- dir_0aa9b805d2b79756d91b911af36b57a9 -->
<g id="node2" class="node">
<title>dir_0aa9b805d2b79756d91b911af36b57a9</title>
<g id="a_node2"><a xlink:href="dir_0aa9b805d2b79756d91b911af36b57a9.html" target="_top" xlink:title="user_board">
<polygon fill="white" stroke="black" points="167.5,-108 96.5,-108 96.5,-72 167.5,-72 167.5,-108"/>
<text text-anchor="middle" x="132" y="-87.5" font-family="Helvetica,sans-Serif" font-size="10.00">user_board</text>
</a>
</g>
</g>
<!-- dir_77d26fbd36b204cb1e085df46e738610 -->
<g id="node4" class="node">
<title>dir_77d26fbd36b204cb1e085df46e738610</title>
<g id="a_node4"><a xlink:href="dir_77d26fbd36b204cb1e085df46e738610.html" target="_top" xlink:title="config">
<polygon fill="none" stroke="black" points="159,-36 105,-36 105,0 159,0 159,-36"/>
<text text-anchor="middle" x="132" y="-15.5" font-family="Helvetica,sans-Serif" font-size="10.00">config</text>
</a>
</g>
</g>
<!-- dir_0aa9b805d2b79756d91b911af36b57a9&#45;&gt;dir_77d26fbd36b204cb1e085df46e738610 -->
<g id="edge2" class="edge">
<title>dir_0aa9b805d2b79756d91b911af36b57a9&#45;&gt;dir_77d26fbd36b204cb1e085df46e738610</title>
<path fill="none" stroke="black" d="M132,-71.7C132,-63.98 132,-54.71 132,-46.11"/>
<polygon fill="black" stroke="black" points="135.5,-46.1 132,-36.1 128.5,-46.1 135.5,-46.1"/>
<g id="a_edge2&#45;headlabel"><a xlink:href="dir_000005_000012.html" target="_top" xlink:title="2">
<text text-anchor="middle" x="138.34" y="-47.2" font-family="Helvetica,sans-Serif" font-size="10.00">2</text>
</a>
</g>
</g>
</g>
</svg>
