<?xml version="1.0" encoding="UTF-8" standalone="no"?>
<!DOCTYPE svg PUBLIC "-//W3C//DTD SVG 1.1//EN"
 "http://www.w3.org/Graphics/SVG/1.1/DTD/svg11.dtd">
<!-- Generated by graphviz version 2.43.0 (0)
 -->
<!-- Title: swarm_bot_cpp/src Pages: 1 -->
<svg width="182pt" height="183pt"
 viewBox="0.00 0.00 182.00 183.00" xmlns="http://www.w3.org/2000/svg" xmlns:xlink="http://www.w3.org/1999/xlink">
<g id="graph0" class="graph" transform="scale(1 1) rotate(0) translate(4 179)">
<title>swarm_bot_cpp/src</title>
<polygon fill="white" stroke="transparent" points="-4,4 -4,-179 178,-179 178,4 -4,4"/>
<g id="clust1" class="cluster">
<title>clusterdir_1295e576a255f14a967470c55e62b815</title>
<g id="a_clust1"><a xlink:href="dir_1295e576a255f14a967470c55e62b815.html" target="_top" xlink:title="swarm_bot_cpp">
<polygon fill="#ddddee" stroke="black" points="8,-8 8,-167 166,-167 166,-8 8,-8"/>
<text text-anchor="middle" x="87" y="-155" font-family="Helvetica,sans-Serif" font-size="10.00">swarm_bot_cpp</text>
</a>
</g>
</g>
<g id="clust2" class="cluster">
<title>clusterdir_5ff9bff9080f3456b0705485f9bfb1ee</title>
<g id="a_clust2"><a xlink:href="dir_5ff9bff9080f3456b0705485f9bfb1ee.html" target="_top">
<polygon fill="#eeeeff" stroke="black" points="16,-16 16,-140 158,-140 158,-16 16,-16"/>
</a>
</g>
</g>
<!-- dir_5ff9bff9080f3456b0705485f9bfb1ee -->
<g id="node1" class="node">
<title>dir_5ff9bff9080f3456b0705485f9bfb1ee</title>
<text text-anchor="middle" x="123" y="-111.5" font-family="Helvetica,sans-Serif" font-size="10.00">src</text>
</g>
<!-- dir_77d26fbd36b204cb1e085df46e738610 -->
<g id="node3" class="node">
<title>dir_77d26fbd36b204cb1e085df46e738610</title>
<g id="a_node3"><a xlink:href="dir_77d26fbd36b204cb1e085df46e738610.html" target="_top" xlink:title="config">
<polygon fill="white" stroke="black" points="114,-60 60,-60 60,-24 114,-24 114,-60"/>
<text text-anchor="middle" x="87" y="-39.5" font-family="Helvetica,sans-Serif" font-size="10.00">config</text>
</a>
</g>
</g>
<!-- dir_5ff9bff9080f3456b0705485f9bfb1ee&#45;&gt;dir_77d26fbd36b204cb1e085df46e738610 -->
<g id="edge1" class="edge">
<title>dir_5ff9bff9080f3456b0705485f9bfb1ee&#45;&gt;dir_77d26fbd36b204cb1e085df46e738610</title>
<path fill="none" stroke="black" d="M114.1,-95.7C110,-87.73 105.05,-78.1 100.51,-69.26"/>
<polygon fill="black" stroke="black" points="103.48,-67.4 95.8,-60.1 97.26,-70.6 103.48,-67.4"/>
<g id="a_edge1&#45;headlabel"><a xlink:href="dir_000001_000012.html" target="_top" xlink:title="5">
<text text-anchor="middle" x="107.65" y="-66.79" font-family="Helvetica,sans-Serif" font-size="10.00">5</text>
</a>
</g>
</g>
<!-- dir_251699a5df448e26da2ff8e672c06999 -->
<g id="node2" class="node">
<title>dir_251699a5df448e26da2ff8e672c06999</title>
<g id="a_node2"><a xlink:href="dir_251699a5df448e26da2ff8e672c06999.html" target="_top" xlink:title="ASF">
<polygon fill="white" stroke="red" points="78,-132 24,-132 24,-96 78,-96 78,-132"/>
<text text-anchor="middle" x="51" y="-111.5" font-family="Helvetica,sans-Serif" font-size="10.00">ASF</text>
</a>
</g>
</g>
<!-- dir_251699a5df448e26da2ff8e672c06999&#45;&gt;dir_77d26fbd36b204cb1e085df46e738610 -->
<g id="edge2" class="edge">
<title>dir_251699a5df448e26da2ff8e672c06999&#45;&gt;dir_77d26fbd36b204cb1e085df46e738610</title>
<path fill="none" stroke="black" d="M59.9,-95.7C64,-87.73 68.95,-78.1 73.49,-69.26"/>
<polygon fill="black" stroke="black" points="76.74,-70.6 78.2,-60.1 70.52,-67.4 76.74,-70.6"/>
<g id="a_edge2&#45;headlabel"><a xlink:href="dir_000002_000012.html" target="_top" xlink:title="2">
<text text-anchor="middle" x="77.62" y="-72.59" font-family="Helvetica,sans-Serif" font-size="10.00">2</text>
</a>
</g>
</g>
</g>
</svg>
