<?xml version="1.0" encoding="UTF-8" standalone="no"?>
<!DOCTYPE svg PUBLIC "-//W3C//DTD SVG 1.1//EN"
 "http://www.w3.org/Graphics/SVG/1.1/DTD/svg11.dtd">
<!-- Generated by graphviz version 2.43.0 (0)
 -->
<!-- Title: swarm_bot_cpp/src/ASF/common/utils Pages: 1 -->
<svg width="188pt" height="159pt"
 viewBox="0.00 0.00 188.00 159.00" xmlns="http://www.w3.org/2000/svg" xmlns:xlink="http://www.w3.org/1999/xlink">
<g id="graph0" class="graph" transform="scale(1 1) rotate(0) translate(4 155)">
<title>swarm_bot_cpp/src/ASF/common/utils</title>
<polygon fill="white" stroke="transparent" points="-4,4 -4,-155 184,-155 184,4 -4,4"/>
<g id="clust1" class="cluster">
<title>clusterdir_74df48dc91d2be5b5b113c7e3bb92ea1</title>
<g id="a_clust1"><a xlink:href="dir_74df48dc91d2be5b5b113c7e3bb92ea1.html" target="_top" xlink:title="common">
<polygon fill="#ddddee" stroke="black" points="8,-56 8,-143 172,-143 172,-56 8,-56"/>
<text text-anchor="middle" x="90" y="-131" font-family="Helvetica,sans-Serif" font-size="10.00">common</text>
</a>
</g>
</g>
<g id="clust2" class="cluster">
<title>clusterdir_3fc2c6057d89ccf4149428a8f8658b58</title>
<g id="a_clust2"><a xlink:href="dir_3fc2c6057d89ccf4149428a8f8658b58.html" target="_top">
<polygon fill="#eeeeff" stroke="black" points="16,-64 16,-116 164,-116 164,-64 16,-64"/>
</a>
</g>
</g>
<!-- dir_3fc2c6057d89ccf4149428a8f8658b58 -->
<g id="node1" class="node">
<title>dir_3fc2c6057d89ccf4149428a8f8658b58</title>
<text text-anchor="middle" x="129" y="-87.5" font-family="Helvetica,sans-Serif" font-size="10.00">utils</text>
</g>
<!-- dir_cad6fc5e9bda245bf8a7db95e0299d6d -->
<g id="node2" class="node">
<title>dir_cad6fc5e9bda245bf8a7db95e0299d6d</title>
<g id="a_node2"><a xlink:href="dir_cad6fc5e9bda245bf8a7db95e0299d6d.html" target="_top" xlink:title="interrupt">
<polygon fill="white" stroke="black" points="83.5,-108 24.5,-108 24.5,-72 83.5,-72 83.5,-108"/>
<text text-anchor="middle" x="54" y="-87.5" font-family="Helvetica,sans-Serif" font-size="10.00">interrupt</text>
</a>
</g>
</g>
<!-- dir_276e1334157020eb87a235e2295a834d -->
<g id="node3" class="node">
<title>dir_276e1334157020eb87a235e2295a834d</title>
<g id="a_node3"><a xlink:href="dir_276e1334157020eb87a235e2295a834d.html" target="_top" xlink:title="mega">
<polygon fill="white" stroke="red" points="81,-36 27,-36 27,0 81,0 81,-36"/>
<text text-anchor="middle" x="54" y="-15.5" font-family="Helvetica,sans-Serif" font-size="10.00">mega</text>
</a>
</g>
</g>
<!-- dir_cad6fc5e9bda245bf8a7db95e0299d6d&#45;&gt;dir_276e1334157020eb87a235e2295a834d -->
<g id="edge1" class="edge">
<title>dir_cad6fc5e9bda245bf8a7db95e0299d6d&#45;&gt;dir_276e1334157020eb87a235e2295a834d</title>
<path fill="none" stroke="black" d="M54,-71.7C54,-63.98 54,-54.71 54,-46.11"/>
<polygon fill="black" stroke="black" points="57.5,-46.1 54,-36.1 50.5,-46.1 57.5,-46.1"/>
<g id="a_edge1&#45;headlabel"><a xlink:href="dir_000007_000008.html" target="_top" xlink:title="1">
<text text-anchor="middle" x="60.34" y="-47.2" font-family="Helvetica,sans-Serif" font-size="10.00">1</text>
</a>
</g>
</g>
</g>
</svg>
