<?xml version="1.0" encoding="UTF-8" standalone="no"?>
<!DOCTYPE svg PUBLIC "-//W3C//DTD SVG 1.1//EN"
 "http://www.w3.org/Graphics/SVG/1.1/DTD/svg11.dtd">
<!-- Generated by graphviz version 2.43.0 (0)
 -->
<!-- Title: swarm_bot_cpp/src/ASF/mega Pages: 1 -->
<svg width="182pt" height="175pt"
 viewBox="0.00 0.00 182.00 175.00" xmlns="http://www.w3.org/2000/svg" xmlns:xlink="http://www.w3.org/1999/xlink">
<g id="graph0" class="graph" transform="scale(1 1) rotate(0) translate(4 171)">
<title>swarm_bot_cpp/src/ASF/mega</title>
<polygon fill="white" stroke="transparent" points="-4,4 -4,-171 178,-171 178,4 -4,4"/>
<g id="clust1" class="cluster">
<title>clusterdir_251699a5df448e26da2ff8e672c06999</title>
<g id="a_clust1"><a xlink:href="dir_251699a5df448e26da2ff8e672c06999.html" target="_top" xlink:title="ASF">
<polygon fill="#ddddee" stroke="black" points="8,-8 8,-159 166,-159 166,-8 8,-8"/>
<text text-anchor="middle" x="87" y="-147" font-family="Helvetica,sans-Serif" font-size="10.00">ASF</text>
</a>
</g>
</g>
<g id="clust2" class="cluster">
<title>clusterdir_276e1334157020eb87a235e2295a834d</title>
<g id="a_clust2"><a xlink:href="dir_276e1334157020eb87a235e2295a834d.html" target="_top">
<polygon fill="#eeeeff" stroke="black" points="16,-16 16,-68 158,-68 158,-16 16,-16"/>
</a>
</g>
</g>
<!-- dir_74df48dc91d2be5b5b113c7e3bb92ea1 -->
<g id="node1" class="node">
<title>dir_74df48dc91d2be5b5b113c7e3bb92ea1</title>
<g id="a_node1"><a xlink:href="dir_74df48dc91d2be5b5b113c7e3bb92ea1.html" target="_top" xlink:title="common">
<polygon fill="white" stroke="red" points="80.5,-132 21.5,-132 21.5,-96 80.5,-96 80.5,-132"/>
<text text-anchor="middle" x="51" y="-111.5" font-family="Helvetica,sans-Serif" font-size="10.00">common</text>
</a>
</g>
</g>
<!-- dir_a03ca458299fa6ff19a4345153f6c581 -->
<g id="node3" class="node">
<title>dir_a03ca458299fa6ff19a4345153f6c581</title>
<g id="a_node3"><a xlink:href="dir_a03ca458299fa6ff19a4345153f6c581.html" target="_top" xlink:title="utils">
<polygon fill="white" stroke="red" points="78,-60 24,-60 24,-24 78,-24 78,-60"/>
<text text-anchor="middle" x="51" y="-39.5" font-family="Helvetica,sans-Serif" font-size="10.00">utils</text>
</a>
</g>
</g>
<!-- dir_74df48dc91d2be5b5b113c7e3bb92ea1&#45;&gt;dir_a03ca458299fa6ff19a4345153f6c581 -->
<g id="edge1" class="edge">
<title>dir_74df48dc91d2be5b5b113c7e3bb92ea1&#45;&gt;dir_a03ca458299fa6ff19a4345153f6c581</title>
<path fill="none" stroke="black" d="M56.92,-95.7C57.71,-87.98 57.94,-78.71 57.6,-70.11"/>
<polygon fill="black" stroke="black" points="61.08,-69.84 56.9,-60.1 54.1,-70.32 61.08,-69.84"/>
<g id="a_edge1&#45;headlabel"><a xlink:href="dir_000003_000010.html" target="_top" xlink:title="2">
<text text-anchor="middle" x="64.17" y="-70.72" font-family="Helvetica,sans-Serif" font-size="10.00">2</text>
</a>
</g>
</g>
<!-- dir_276e1334157020eb87a235e2295a834d -->
<g id="node2" class="node">
<title>dir_276e1334157020eb87a235e2295a834d</title>
<text text-anchor="middle" x="123" y="-39.5" font-family="Helvetica,sans-Serif" font-size="10.00">mega</text>
</g>
<!-- dir_a03ca458299fa6ff19a4345153f6c581&#45;&gt;dir_74df48dc91d2be5b5b113c7e3bb92ea1 -->
<g id="edge2" class="edge">
<title>dir_a03ca458299fa6ff19a4345153f6c581&#45;&gt;dir_74df48dc91d2be5b5b113c7e3bb92ea1</title>
<path fill="none" stroke="black" d="M45.1,-60.1C44.3,-67.79 44.06,-77.05 44.4,-85.67"/>
<polygon fill="black" stroke="black" points="40.91,-85.96 45.08,-95.7 47.89,-85.48 40.91,-85.96"/>
<g id="a_edge2&#45;headlabel"><a xlink:href="dir_000010_000003.html" target="_top" xlink:title="2">
<text text-anchor="middle" x="37.83" y="-80.07" font-family="Helvetica,sans-Serif" font-size="10.00">2</text>
</a>
</g>
</g>
</g>
</svg>
