<?xml version="1.0" encoding="UTF-8" standalone="no"?>
<!DOCTYPE svg PUBLIC "-//W3C//DTD SVG 1.1//EN"
 "http://www.w3.org/Graphics/SVG/1.1/DTD/svg11.dtd">
<!-- Generated by graphviz version 2.43.0 (0)
 -->
<!-- Title: board_init Pages: 1 -->
<svg width="217pt" height="180pt"
 viewBox="0.00 0.00 217.00 180.00" xmlns="http://www.w3.org/2000/svg" xmlns:xlink="http://www.w3.org/1999/xlink">
<g id="graph0" class="graph" transform="scale(1 1) rotate(0) translate(4 176)">
<title>board_init</title>
<polygon fill="white" stroke="transparent" points="-4,4 -4,-176 213,-176 213,4 -4,4"/>
<!-- Node1 -->
<g id="node1" class="node">
<title>Node1</title>
<g id="a_node1"><a xlink:title="This function initializes the board target resources.">
<polygon fill="#bfbfbf" stroke="black" points="0,-76.5 0,-95.5 65,-95.5 65,-76.5 0,-76.5"/>
<text text-anchor="middle" x="32.5" y="-83.5" font-family="Helvetica,sans-Serif" font-size="10.00">board_init</text>
</a>
</g>
</g>
<!-- Node2 -->
<g id="node2" class="node">
<title>Node2</title>
<g id="a_node2"><a xlink:href="____adc_____8h.html#a82219102879b9b9281fda7a9c6f81f72" target="_top" xlink:title=" ">
<polygon fill="white" stroke="black" points="125,-152.5 125,-171.5 185,-171.5 185,-152.5 125,-152.5"/>
<text text-anchor="middle" x="155" y="-159.5" font-family="Helvetica,sans-Serif" font-size="10.00">_adc_init</text>
</a>
</g>
</g>
<!-- Node1&#45;&gt;Node2 -->
<g id="edge1" class="edge">
<title>Node1&#45;&gt;Node2</title>
<path fill="none" stroke="midnightblue" d="M42.72,-95.7C55,-108.13 77.88,-129.68 101,-143 105.49,-145.59 110.39,-147.92 115.35,-149.99"/>
<polygon fill="midnightblue" stroke="midnightblue" points="114.25,-153.31 124.84,-153.64 116.76,-146.78 114.25,-153.31"/>
</g>
<!-- Node3 -->
<g id="node3" class="node">
<title>Node3</title>
<g id="a_node3"><a xlink:href="_____i_n_t__0__1_____8h.html#adf8820d00238bff8edcec983f9019935" target="_top" xlink:title=" ">
<polygon fill="white" stroke="black" points="101,-114.5 101,-133.5 209,-133.5 209,-114.5 101,-114.5"/>
<text text-anchor="middle" x="155" y="-121.5" font-family="Helvetica,sans-Serif" font-size="10.00">_interrupt0_enable</text>
</a>
</g>
</g>
<!-- Node1&#45;&gt;Node3 -->
<g id="edge2" class="edge">
<title>Node1&#45;&gt;Node3</title>
<path fill="none" stroke="midnightblue" d="M63.91,-95.59C79.03,-100.36 97.52,-106.19 113.8,-111.32"/>
<polygon fill="midnightblue" stroke="midnightblue" points="113.01,-114.74 123.6,-114.41 115.12,-108.07 113.01,-114.74"/>
</g>
<!-- Node4 -->
<g id="node4" class="node">
<title>Node4</title>
<g id="a_node4"><a xlink:href="____timer0_____8h.html#a05471fe7588ff4146c1b52bbbb17fc8c" target="_top" xlink:title=" ">
<polygon fill="white" stroke="black" points="117.5,-76.5 117.5,-95.5 192.5,-95.5 192.5,-76.5 117.5,-76.5"/>
<text text-anchor="middle" x="155" y="-83.5" font-family="Helvetica,sans-Serif" font-size="10.00">_timer0_init</text>
</a>
</g>
</g>
<!-- Node1&#45;&gt;Node4 -->
<g id="edge3" class="edge">
<title>Node1&#45;&gt;Node4</title>
<path fill="none" stroke="midnightblue" d="M65.16,-86C78.07,-86 93.25,-86 107.38,-86"/>
<polygon fill="midnightblue" stroke="midnightblue" points="107.43,-89.5 117.43,-86 107.43,-82.5 107.43,-89.5"/>
</g>
<!-- Node5 -->
<g id="node5" class="node">
<title>Node5</title>
<g id="a_node5"><a xlink:href="____timer1_____8h.html#ab50c41f94cdcb3558e9ebcc885552ab6" target="_top" xlink:title=" ">
<polygon fill="white" stroke="black" points="117.5,-38.5 117.5,-57.5 192.5,-57.5 192.5,-38.5 117.5,-38.5"/>
<text text-anchor="middle" x="155" y="-45.5" font-family="Helvetica,sans-Serif" font-size="10.00">_timer1_init</text>
</a>
</g>
</g>
<!-- Node1&#45;&gt;Node5 -->
<g id="edge4" class="edge">
<title>Node1&#45;&gt;Node5</title>
<path fill="none" stroke="midnightblue" d="M63.91,-76.41C79.03,-71.64 97.52,-65.81 113.8,-60.68"/>
<polygon fill="midnightblue" stroke="midnightblue" points="115.12,-63.93 123.6,-57.59 113.01,-57.26 115.12,-63.93"/>
</g>
<!-- Node6 -->
<g id="node6" class="node">
<title>Node6</title>
<g id="a_node6"><a xlink:href="____usart_____8h.html#a6aa3b4e2a5362cd032ed6b218afe58f6" target="_top" xlink:title=" ">
<polygon fill="white" stroke="black" points="124,-0.5 124,-19.5 186,-19.5 186,-0.5 124,-0.5"/>
<text text-anchor="middle" x="155" y="-7.5" font-family="Helvetica,sans-Serif" font-size="10.00">usart_init</text>
</a>
</g>
</g>
<!-- Node1&#45;&gt;Node6 -->
<g id="edge5" class="edge">
<title>Node1&#45;&gt;Node6</title>
<path fill="none" stroke="midnightblue" d="M42.72,-76.3C55,-63.87 77.88,-42.32 101,-29 105.17,-26.6 109.7,-24.41 114.3,-22.45"/>
<polygon fill="midnightblue" stroke="midnightblue" points="115.7,-25.66 123.73,-18.75 113.14,-19.15 115.7,-25.66"/>
</g>
</g>
</svg>
