<?xml version="1.0" encoding="UTF-8" standalone="no"?>
<!DOCTYPE svg PUBLIC "-//W3C//DTD SVG 1.1//EN"
 "http://www.w3.org/Graphics/SVG/1.1/DTD/svg11.dtd">
<!-- Generated by graphviz version 2.43.0 (0)
 -->
<!-- Title: Atmel part identification macros Pages: 1 -->
<svg width="282pt" height="138pt"
 viewBox="0.00 0.00 282.00 138.00" xmlns="http://www.w3.org/2000/svg" xmlns:xlink="http://www.w3.org/1999/xlink">
<g id="graph0" class="graph" transform="scale(1 1) rotate(0) translate(4 134)">
<title>Atmel part identification macros</title>
<polygon fill="white" stroke="transparent" points="-4,4 -4,-134 278,-134 278,4 -4,4"/>
<!-- Node5 -->
<g id="node1" class="node">
<title>Node5</title>
<g id="a_node1"><a xlink:href="group__sam__part__macros__group.html" target="_top" xlink:title=" ">
<polygon fill="white" stroke="black" points="256,-130 189,-130 189,-111 256,-111 256,-130"/>
<text text-anchor="middle" x="222.5" y="-118" font-family="Helvetica,sans-Serif" font-size="10.00">SAM parts</text>
</a>
</g>
</g>
<!-- Node2 -->
<g id="node2" class="node">
<title>Node2</title>
<g id="a_node2"><a xlink:href="group__uc3__part__macros__group.html" target="_top" xlink:title=" ">
<polygon fill="white" stroke="black" points="266,-93 179,-93 179,-74 266,-74 266,-93"/>
<text text-anchor="middle" x="222.5" y="-81" font-family="Helvetica,sans-Serif" font-size="10.00">AVR UC3 parts</text>
</a>
</g>
</g>
<!-- Node3 -->
<g id="node3" class="node">
<title>Node3</title>
<g id="a_node3"><a xlink:href="group__xmega__part__macros__group.html" target="_top" xlink:title=" ">
<polygon fill="white" stroke="black" points="274,-56 171,-56 171,-37 274,-37 274,-56"/>
<text text-anchor="middle" x="222.5" y="-44" font-family="Helvetica,sans-Serif" font-size="10.00">AVR XMEGA parts</text>
</a>
</g>
</g>
<!-- Node4 -->
<g id="node4" class="node">
<title>Node4</title>
<g id="a_node4"><a xlink:href="group__mega__part__macros__group.html" target="_top" xlink:title=" ">
<polygon fill="white" stroke="black" points="268.5,-19 176.5,-19 176.5,0 268.5,0 268.5,-19"/>
<text text-anchor="middle" x="222.5" y="-7" font-family="Helvetica,sans-Serif" font-size="10.00">megaAVR parts</text>
</a>
</g>
</g>
<!-- Node1 -->
<g id="node5" class="node">
<title>Node1</title>
<g id="a_node5"><a xlink:title=" ">
<polygon fill="#bfbfbf" stroke="black" points="135,-79.5 0,-79.5 0,-49.5 135,-49.5 135,-79.5"/>
<text text-anchor="start" x="8" y="-67.5" font-family="Helvetica,sans-Serif" font-size="10.00">Atmel part identification</text>
<text text-anchor="middle" x="67.5" y="-56.5" font-family="Helvetica,sans-Serif" font-size="10.00"> macros</text>
</a>
</g>
</g>
<!-- Node1&#45;&gt;Node5 -->
<g id="edge4" class="edge">
<title>Node1&#45;&gt;Node5</title>
<path fill="none" stroke="black" d="M118.43,-83.16C135.13,-89.36 153.85,-96.27 171,-102.5 178.61,-105.27 186.88,-108.23 194.48,-110.94"/>
<polygon fill="black" stroke="black" points="119.46,-79.8 108.86,-79.6 117.02,-86.36 119.46,-79.8"/>
</g>
<!-- Node1&#45;&gt;Node2 -->
<g id="edge1" class="edge">
<title>Node1&#45;&gt;Node2</title>
<path fill="none" stroke="black" d="M145.28,-74.04C156.83,-75.47 168.37,-76.9 178.84,-78.2"/>
<polygon fill="black" stroke="black" points="145.52,-70.54 135.16,-72.78 144.66,-77.48 145.52,-70.54"/>
</g>
<!-- Node1&#45;&gt;Node3 -->
<g id="edge2" class="edge">
<title>Node1&#45;&gt;Node3</title>
<path fill="none" stroke="black" d="M145.27,-55.47C153.9,-54.45 162.52,-53.44 170.71,-52.48"/>
<polygon fill="black" stroke="black" points="144.69,-52.01 135.16,-56.66 145.5,-58.96 144.69,-52.01"/>
</g>
<!-- Node1&#45;&gt;Node4 -->
<g id="edge3" class="edge">
<title>Node1&#45;&gt;Node4</title>
<path fill="none" stroke="black" d="M120.03,-45.97C145.06,-36.98 174.09,-26.54 194.67,-19.14"/>
<polygon fill="black" stroke="black" points="118.53,-42.79 110.31,-49.47 120.9,-49.38 118.53,-42.79"/>
</g>
</g>
</svg>
