<?xml version="1.0" encoding="UTF-8" standalone="no"?>
<!DOCTYPE svg PUBLIC "-//W3C//DTD SVG 1.1//EN"
 "http://www.w3.org/Graphics/SVG/1.1/DTD/svg11.dtd">
<!-- Generated by graphviz version 2.43.0 (0)
 -->
<!-- Title: swarm_bot_cpp/src/ASF/common/boards/user_board/init.c Pages: 1 -->
<!--zoomable 442 -->
<svg id="main" version="1.1" xmlns="http://www.w3.org/2000/svg" xmlns:xlink="http://www.w3.org/1999/xlink" xml:space="preserve" onload="init(evt)">
<style type="text/css"><![CDATA[
.edge:hover path { stroke: red; }
.edge:hover polygon { stroke: red; fill: red; }
]]></style>
<script type="text/javascript"><![CDATA[
var edges = document.getElementsByTagName('g');
if (edges && edges.length) {
  for (var i=0;i<edges.length;i++) {
    if (edges[i].id.substr(0,4)=='edge') {
      edges[i].setAttribute('class','edge');
    }
  }
}
]]></script>
        <defs>
                <circle id="rim" cx="0" cy="0" r="7"/>
                <circle id="rim2" cx="0" cy="0" r="3.5"/>
                <g id="zoomPlus">
                        <use xlink:href="#rim" fill="#404040">
                                <set attributeName="fill" to="#808080" begin="zoomplus.mouseover" end="zoomplus.mouseout"/>
                        </use>
                        <path d="M-4,0h8M0,-4v8" fill="none" stroke="white" stroke-width="1.5" pointer-events="none"/>
                </g>
                <g id="zoomMin">
                        <use xlink:href="#rim" fill="#404040">
                                <set attributeName="fill" to="#808080" begin="zoomminus.mouseover" end="zoomminus.mouseout"/>
                        </use>
                        <path d="M-4,0h8" fill="none" stroke="white" stroke-width="1.5" pointer-events="none"/>
                </g>
                <g id="dirArrow">
                        <path fill="none" stroke="white" stroke-width="1.5" d="M0,-3.0v7 M-2.5,-0.5L0,-3.0L2.5,-0.5"/>
                </g>
               <g id="resetDef">
                       <use xlink:href="#rim2" fill="#404040">
                               <set attributeName="fill" to="#808080" begin="reset.mouseover" end="reset.mouseout"/>
                       </use>
               </g>
        </defs>

<script type="text/javascript">
var viewWidth = 1465;
var viewHeight = 442;
var sectionId = 'dynsection-0';
</script>
<script xlink:href="svgpan.js"/>
<svg id="graph" class="graph">
<g id="viewport">
<title>swarm_bot_cpp/src/ASF/common/boards/user_board/init.c</title>
<polygon fill="white" stroke="transparent" points="-4,4 -4,-438 1461.16,-438 1461.16,4 -4,4"/>
<!-- Node1 -->
<g id="node1" class="node">
<title>Node1</title>
<g id="a_node1"><a xlink:title="User board initialization template.">
<polygon fill="#bfbfbf" stroke="black" points="663.16,-392.5 663.16,-433.5 818.16,-433.5 818.16,-392.5 663.16,-392.5"/>
<text text-anchor="start" x="671.16" y="-421.5" font-family="Helvetica,sans-Serif" font-size="10.00">swarm_bot_cpp/src/ASF</text>
<text text-anchor="start" x="671.16" y="-410.5" font-family="Helvetica,sans-Serif" font-size="10.00">/common/boards/user_board</text>
<text text-anchor="middle" x="740.66" y="-399.5" font-family="Helvetica,sans-Serif" font-size="10.00">/init.c</text>
</a>
</g>
</g>
<!-- Node2 -->
<g id="node2" class="node">
<title>Node2</title>
<g id="a_node2"><a xlink:href="asf_8h.html" target="_top" xlink:title="Autogenerated API include file for the Atmel Software Framework (ASF)">
<polygon fill="white" stroke="black" points="362.66,-224.5 362.66,-243.5 402.66,-243.5 402.66,-224.5 362.66,-224.5"/>
<text text-anchor="middle" x="382.66" y="-231.5" font-family="Helvetica,sans-Serif" font-size="10.00">asf.h</text>
</a>
</g>
</g>
<!-- Node1&#45;&gt;Node2 -->
<g id="edge1" class="edge">
<title>Node1&#45;&gt;Node2</title>
<path fill="none" stroke="midnightblue" d="M818.24,-408.41C947.46,-399.83 1184.54,-371.44 1098.66,-280 1074.85,-254.64 547.02,-239.26 413.26,-235.77"/>
<polygon fill="midnightblue" stroke="midnightblue" points="413.02,-232.26 402.93,-235.5 412.84,-239.26 413.02,-232.26"/>
</g>
<!-- Node4 -->
<g id="node4" class="node">
<title>Node4</title>
<g id="a_node4"><a xlink:href="conf__board_8h.html" target="_top" xlink:title="User board configuration template.">
<polygon fill="white" stroke="black" points="551.66,-112.5 551.66,-131.5 631.66,-131.5 631.66,-112.5 551.66,-112.5"/>
<text text-anchor="middle" x="591.66" y="-119.5" font-family="Helvetica,sans-Serif" font-size="10.00">conf_board.h</text>
</a>
</g>
</g>
<!-- Node1&#45;&gt;Node4 -->
<g id="edge16" class="edge">
<title>Node1&#45;&gt;Node4</title>
<path fill="none" stroke="midnightblue" d="M818.42,-407.7C895.06,-401.76 1014.72,-387.89 1113.66,-356 1165.5,-339.29 1177.49,-330.43 1222.66,-300 1259.52,-275.17 1308.95,-263.02 1287.66,-224 1265.64,-183.63 1244.27,-182.59 1200.66,-168 1097.49,-133.49 768.34,-125.39 641.85,-123.54"/>
<polygon fill="midnightblue" stroke="midnightblue" points="641.72,-120.03 631.67,-123.39 641.62,-127.03 641.72,-120.03"/>
</g>
<!-- Node5 -->
<g id="node5" class="node">
<title>Node5</title>
<g id="a_node5"><a xlink:href="board_8h.html" target="_top" xlink:title="Standard board header file.">
<polygon fill="white" stroke="black" points="55.16,-168.5 55.16,-187.5 108.16,-187.5 108.16,-168.5 55.16,-168.5"/>
<text text-anchor="middle" x="81.66" y="-175.5" font-family="Helvetica,sans-Serif" font-size="10.00">board.h</text>
</a>
</g>
</g>
<!-- Node1&#45;&gt;Node5 -->
<g id="edge15" class="edge">
<title>Node1&#45;&gt;Node5</title>
<path fill="none" stroke="midnightblue" d="M663.14,-408.61C522.32,-401.84 230.07,-384.75 132.66,-356 59.52,-334.41 17.43,-318.82 2.66,-244 0.94,-235.28 -1.8,-231.69 2.66,-224 11.93,-208.07 29.17,-197.31 45.2,-190.31"/>
<polygon fill="midnightblue" stroke="midnightblue" points="46.94,-193.39 54.93,-186.44 44.35,-186.88 46.94,-193.39"/>
</g>
<!-- Node15 -->
<g id="node11" class="node">
<title>Node15</title>
<g id="a_node11"><a xlink:title=" ">
<polygon fill="white" stroke="#bfbfbf" points="20.66,-224.5 20.66,-243.5 70.66,-243.5 70.66,-224.5 20.66,-224.5"/>
<text text-anchor="middle" x="45.66" y="-231.5" font-family="Helvetica,sans-Serif" font-size="10.00">stdio.h</text>
</a>
</g>
</g>
<!-- Node1&#45;&gt;Node15 -->
<g id="edge14" class="edge">
<title>Node1&#45;&gt;Node15</title>
<path fill="none" stroke="midnightblue" d="M663.06,-409.51C504.18,-402.82 149.5,-379.18 62.66,-300 49.89,-288.35 46.21,-268.4 45.37,-253.67"/>
<polygon fill="midnightblue" stroke="midnightblue" points="48.87,-253.58 45.19,-243.64 41.87,-253.71 48.87,-253.58"/>
</g>
<!-- Node16 -->
<g id="node12" class="node">
<title>Node16</title>
<g id="a_node12"><a xlink:href="____swarm__wold_____8h.html" target="_top" xlink:title="Header file for dummy purposes.">
<polygon fill="white" stroke="black" points="686.66,-336.5 686.66,-355.5 794.66,-355.5 794.66,-336.5 686.66,-336.5"/>
<text text-anchor="middle" x="740.66" y="-343.5" font-family="Helvetica,sans-Serif" font-size="10.00">__swarm_wold__.h</text>
</a>
</g>
</g>
<!-- Node1&#45;&gt;Node16 -->
<g id="edge17" class="edge">
<title>Node1&#45;&gt;Node16</title>
<path fill="none" stroke="midnightblue" d="M740.66,-392.5C740.66,-384.07 740.66,-374.24 740.66,-365.87"/>
<polygon fill="midnightblue" stroke="midnightblue" points="744.16,-365.65 740.66,-355.65 737.16,-365.65 744.16,-365.65"/>
</g>
<!-- Node3 -->
<g id="node3" class="node">
<title>Node3</title>
<g id="a_node3"><a xlink:href="user__board_8h.html" target="_top" xlink:title="User board definition template.">
<polygon fill="white" stroke="black" points="483.66,-168.5 483.66,-187.5 563.66,-187.5 563.66,-168.5 483.66,-168.5"/>
<text text-anchor="middle" x="523.66" y="-175.5" font-family="Helvetica,sans-Serif" font-size="10.00">user_board.h</text>
</a>
</g>
</g>
<!-- Node2&#45;&gt;Node3 -->
<g id="edge2" class="edge">
<title>Node2&#45;&gt;Node3</title>
<path fill="none" stroke="midnightblue" d="M402.87,-225.26C426.06,-216.38 464.41,-201.69 491.67,-191.25"/>
<polygon fill="midnightblue" stroke="midnightblue" points="493.08,-194.46 501.17,-187.62 490.58,-187.92 493.08,-194.46"/>
</g>
<!-- Node2&#45;&gt;Node5 -->
<g id="edge4" class="edge">
<title>Node2&#45;&gt;Node5</title>
<path fill="none" stroke="midnightblue" d="M362.6,-227.36C358.04,-226.17 353.2,-224.98 348.66,-224 266.99,-206.35 170.01,-191.51 118.36,-184.09"/>
<polygon fill="midnightblue" stroke="midnightblue" points="118.74,-180.61 108.35,-182.67 117.75,-187.54 118.74,-180.61"/>
</g>
<!-- Node6 -->
<g id="node6" class="node">
<title>Node6</title>
<g id="a_node6"><a xlink:href="compiler_8h.html" target="_top" xlink:title="Commonly used includes, types and macros.">
<polygon fill="white" stroke="red" points="299.66,-112.5 299.66,-131.5 367.66,-131.5 367.66,-112.5 299.66,-112.5"/>
<text text-anchor="middle" x="333.66" y="-119.5" font-family="Helvetica,sans-Serif" font-size="10.00">compiler.h</text>
</a>
</g>
</g>
<!-- Node2&#45;&gt;Node6 -->
<g id="edge11" class="edge">
<title>Node2&#45;&gt;Node6</title>
<path fill="none" stroke="midnightblue" d="M366.03,-224.46C353.18,-216.84 336.32,-204.36 328.66,-188 321.85,-173.44 324.13,-155.03 327.52,-141.52"/>
<polygon fill="midnightblue" stroke="midnightblue" points="330.88,-142.49 330.32,-131.91 324.16,-140.53 330.88,-142.49"/>
</g>
<!-- Node11 -->
<g id="node8" class="node">
<title>Node11</title>
<g id="a_node8"><a xlink:href="parts_8h.html" target="_top" xlink:title="Atmel part identification macros.">
<polygon fill="white" stroke="black" points="339.66,-0.5 339.66,-19.5 389.66,-19.5 389.66,-0.5 339.66,-0.5"/>
<text text-anchor="middle" x="364.66" y="-7.5" font-family="Helvetica,sans-Serif" font-size="10.00">parts.h</text>
</a>
</g>
</g>
<!-- Node2&#45;&gt;Node11 -->
<g id="edge13" class="edge">
<title>Node2&#45;&gt;Node11</title>
<path fill="none" stroke="midnightblue" d="M399,-224.39C411.62,-216.72 428.16,-204.21 435.66,-188 439.4,-179.93 437.54,-176.69 435.66,-168 424.05,-114.11 392.37,-56.46 375.53,-28.38"/>
<polygon fill="midnightblue" stroke="midnightblue" points="378.44,-26.44 370.24,-19.73 372.47,-30.09 378.44,-26.44"/>
</g>
<!-- Node12 -->
<g id="node9" class="node">
<title>Node12</title>
<g id="a_node9"><a xlink:href="interrupt_8h.html" target="_top" xlink:title="Global interrupt management for 8&#45; and 32&#45;bit AVR.">
<polygon fill="white" stroke="black" points="268.66,-56.5 268.66,-75.5 336.66,-75.5 336.66,-56.5 268.66,-56.5"/>
<text text-anchor="middle" x="302.66" y="-63.5" font-family="Helvetica,sans-Serif" font-size="10.00">interrupt.h</text>
</a>
</g>
</g>
<!-- Node2&#45;&gt;Node12 -->
<g id="edge10" class="edge">
<title>Node2&#45;&gt;Node12</title>
<path fill="none" stroke="midnightblue" d="M367.13,-224.45C353.57,-216.41 334.04,-203.33 320.66,-188 302.1,-166.72 297.54,-159.39 290.66,-132 286.78,-116.52 290.66,-98.68 295.01,-85.61"/>
<polygon fill="midnightblue" stroke="midnightblue" points="298.41,-86.5 298.62,-75.91 291.85,-84.06 298.41,-86.5"/>
</g>
<!-- Node14 -->
<g id="node10" class="node">
<title>Node14</title>
<g id="a_node10"><a xlink:href="status__codes_8h.html" target="_top" xlink:title="Status code definitions.">
<polygon fill="white" stroke="black" points="338.16,-168.5 338.16,-187.5 427.16,-187.5 427.16,-168.5 338.16,-168.5"/>
<text text-anchor="middle" x="382.66" y="-175.5" font-family="Helvetica,sans-Serif" font-size="10.00">status_codes.h</text>
</a>
</g>
</g>
<!-- Node2&#45;&gt;Node14 -->
<g id="edge12" class="edge">
<title>Node2&#45;&gt;Node14</title>
<path fill="none" stroke="midnightblue" d="M382.66,-224.08C382.66,-217.01 382.66,-206.86 382.66,-197.99"/>
<polygon fill="midnightblue" stroke="midnightblue" points="386.16,-197.75 382.66,-187.75 379.16,-197.75 386.16,-197.75"/>
</g>
<!-- Node3&#45;&gt;Node4 -->
<g id="edge3" class="edge">
<title>Node3&#45;&gt;Node4</title>
<path fill="none" stroke="midnightblue" d="M534.59,-168.32C544.84,-160.18 560.38,-147.84 572.66,-138.09"/>
<polygon fill="midnightblue" stroke="midnightblue" points="574.88,-140.79 580.54,-131.83 570.53,-135.31 574.88,-140.79"/>
</g>
<!-- Node5&#45;&gt;Node6 -->
<g id="edge5" class="edge">
<title>Node5&#45;&gt;Node6</title>
<path fill="none" stroke="midnightblue" d="M108.56,-171.07C113.26,-170.04 118.11,-168.99 122.66,-168 180.28,-155.53 246.8,-141.39 289.5,-132.34"/>
<polygon fill="midnightblue" stroke="midnightblue" points="290.24,-135.76 299.3,-130.26 288.79,-128.91 290.24,-135.76"/>
</g>
<!-- Node8 -->
<g id="node7" class="node">
<title>Node8</title>
<g id="a_node7"><a xlink:title=" ">
<polygon fill="white" stroke="#bfbfbf" points="1351.16,-56.5 1351.16,-75.5 1404.16,-75.5 1404.16,-56.5 1351.16,-56.5"/>
<text text-anchor="middle" x="1377.66" y="-63.5" font-family="Helvetica,sans-Serif" font-size="10.00">stdint.h</text>
</a>
</g>
</g>
<!-- Node6&#45;&gt;Node8 -->
<g id="edge6" class="edge">
<title>Node6&#45;&gt;Node8</title>
<path fill="none" stroke="midnightblue" d="M367.81,-119.23C524.95,-111.11 1177.95,-77.33 1340.76,-68.91"/>
<polygon fill="midnightblue" stroke="midnightblue" points="1340.96,-72.4 1350.77,-68.39 1340.6,-65.41 1340.96,-72.4"/>
</g>
<!-- Node6&#45;&gt;Node11 -->
<g id="edge7" class="edge">
<title>Node6&#45;&gt;Node11</title>
<path fill="none" stroke="midnightblue" d="M336.1,-112.37C341.12,-94.54 352.74,-53.3 359.51,-29.27"/>
<polygon fill="midnightblue" stroke="midnightblue" points="362.9,-30.17 362.24,-19.59 356.16,-28.27 362.9,-30.17"/>
</g>
<!-- Node6&#45;&gt;Node12 -->
<g id="edge8" class="edge">
<title>Node6&#45;&gt;Node12</title>
<path fill="none" stroke="midnightblue" d="M328.54,-112.08C324.26,-104.61 318.01,-93.72 312.72,-84.52"/>
<polygon fill="midnightblue" stroke="midnightblue" points="315.7,-82.68 307.69,-75.75 309.63,-86.17 315.7,-82.68"/>
</g>
<!-- Node12&#45;&gt;Node11 -->
<g id="edge9" class="edge">
<title>Node12&#45;&gt;Node11</title>
<path fill="none" stroke="midnightblue" d="M312.63,-56.32C321.79,-48.34 335.6,-36.31 346.69,-26.65"/>
<polygon fill="midnightblue" stroke="midnightblue" points="349.28,-29.04 354.52,-19.83 344.68,-23.76 349.28,-29.04"/>
</g>
<!-- Node16&#45;&gt;Node2 -->
<g id="edge19" class="edge">
<title>Node16&#45;&gt;Node2</title>
<path fill="none" stroke="midnightblue" d="M686.47,-343.6C572.22,-340.09 314.93,-329.01 288.66,-300 265.51,-274.43 317.15,-253.61 352.68,-242.89"/>
<polygon fill="midnightblue" stroke="midnightblue" points="354.01,-246.15 362.64,-240.01 352.06,-239.42 354.01,-246.15"/>
</g>
<!-- Node16&#45;&gt;Node4 -->
<g id="edge23" class="edge">
<title>Node16&#45;&gt;Node4</title>
<path fill="none" stroke="midnightblue" d="M795.03,-342.63C896.86,-337.68 1112.41,-324.59 1182.66,-300 1231.12,-283.04 1303.19,-262.89 1269.66,-224 1188.17,-129.47 785.07,-122.04 642.07,-122.44"/>
<polygon fill="midnightblue" stroke="midnightblue" points="641.82,-118.94 631.84,-122.49 641.85,-125.94 641.82,-118.94"/>
</g>
<!-- Node16&#45;&gt;Node5 -->
<g id="edge22" class="edge">
<title>Node16&#45;&gt;Node5</title>
<path fill="none" stroke="midnightblue" d="M686.65,-343.73C535.95,-339.85 118.25,-326.8 62.66,-300 26.02,-282.34 -7.83,-259.7 11.66,-224 19.48,-209.68 34.03,-199.24 47.84,-192.04"/>
<polygon fill="midnightblue" stroke="midnightblue" points="49.68,-195.03 57.19,-187.56 46.66,-188.72 49.68,-195.03"/>
</g>
<!-- Node16&#45;&gt;Node8 -->
<g id="edge25" class="edge">
<title>Node16&#45;&gt;Node8</title>
<path fill="none" stroke="midnightblue" d="M794.78,-344.06C903.98,-341.51 1146.77,-332.28 1222.66,-300 1314.96,-260.74 1359.2,-133.27 1372.86,-85.4"/>
<polygon fill="midnightblue" stroke="midnightblue" points="1376.31,-86.07 1375.57,-75.5 1369.56,-84.23 1376.31,-86.07"/>
</g>
<!-- Node16&#45;&gt;Node15 -->
<g id="edge18" class="edge">
<title>Node16&#45;&gt;Node15</title>
<path fill="none" stroke="midnightblue" d="M686.53,-344.14C538.64,-341.38 135.41,-331.07 84.66,-300 67.52,-289.5 56.95,-268.39 51.21,-253.07"/>
<polygon fill="midnightblue" stroke="midnightblue" points="54.52,-251.93 47.99,-243.59 47.89,-254.18 54.52,-251.93"/>
</g>
<!-- Node17 -->
<g id="node13" class="node">
<title>Node17</title>
<g id="a_node13"><a xlink:title=" ">
<polygon fill="white" stroke="#bfbfbf" points="253.16,-224.5 253.16,-243.5 306.16,-243.5 306.16,-224.5 253.16,-224.5"/>
<text text-anchor="middle" x="279.66" y="-231.5" font-family="Helvetica,sans-Serif" font-size="10.00">avr/io.h</text>
</a>
</g>
</g>
<!-- Node16&#45;&gt;Node17 -->
<g id="edge20" class="edge">
<title>Node16&#45;&gt;Node17</title>
<path fill="none" stroke="midnightblue" d="M686.28,-343.71C570.2,-340.39 306.54,-329.63 279.66,-300 268.55,-287.74 270.16,-268.21 273.58,-253.75"/>
<polygon fill="midnightblue" stroke="midnightblue" points="277.01,-254.46 276.35,-243.88 270.27,-252.56 277.01,-254.46"/>
</g>
<!-- Node18 -->
<g id="node14" class="node">
<title>Node18</title>
<g id="a_node14"><a xlink:title=" ">
<polygon fill="white" stroke="#bfbfbf" points="807.66,-224.5 807.66,-243.5 893.66,-243.5 893.66,-224.5 807.66,-224.5"/>
<text text-anchor="middle" x="850.66" y="-231.5" font-family="Helvetica,sans-Serif" font-size="10.00">avr/interrupt.h</text>
</a>
</g>
</g>
<!-- Node16&#45;&gt;Node18 -->
<g id="edge21" class="edge">
<title>Node16&#45;&gt;Node18</title>
<path fill="none" stroke="midnightblue" d="M794.73,-342.09C889.83,-336.4 1078.9,-322.4 1098.66,-300 1104.54,-293.33 1104.36,-286.82 1098.66,-280 1074.37,-250.9 969.4,-240.58 904.05,-236.95"/>
<polygon fill="midnightblue" stroke="midnightblue" points="904.09,-233.44 893.93,-236.42 903.73,-240.43 904.09,-233.44"/>
</g>
<!-- Node19 -->
<g id="node15" class="node">
<title>Node19</title>
<g id="a_node15"><a xlink:title=" ">
<polygon fill="white" stroke="#bfbfbf" points="164.66,-224.5 164.66,-243.5 234.66,-243.5 234.66,-224.5 164.66,-224.5"/>
<text text-anchor="middle" x="199.66" y="-231.5" font-family="Helvetica,sans-Serif" font-size="10.00">util/delay.h</text>
</a>
</g>
</g>
<!-- Node16&#45;&gt;Node19 -->
<g id="edge24" class="edge">
<title>Node16&#45;&gt;Node19</title>
<path fill="none" stroke="midnightblue" d="M686.6,-344.27C578.78,-342.11 341.09,-333.57 267.66,-300 244.32,-289.33 224.01,-267.26 211.81,-251.81"/>
<polygon fill="midnightblue" stroke="midnightblue" points="214.43,-249.48 205.6,-243.62 208.85,-253.7 214.43,-249.48"/>
</g>
<!-- Node20 -->
<g id="node16" class="node">
<title>Node20</title>
<g id="a_node16"><a xlink:href="____adc_____8h.html" target="_top" xlink:title="Header file for adc.c.">
<polygon fill="white" stroke="black" points="1098.66,-224.5 1098.66,-243.5 1162.66,-243.5 1162.66,-224.5 1098.66,-224.5"/>
<text text-anchor="middle" x="1130.66" y="-231.5" font-family="Helvetica,sans-Serif" font-size="10.00">__adc__.h</text>
</a>
</g>
</g>
<!-- Node16&#45;&gt;Node20 -->
<g id="edge26" class="edge">
<title>Node16&#45;&gt;Node20</title>
<path fill="none" stroke="midnightblue" d="M794.81,-345.89C885.32,-345.99 1061.47,-340.58 1106.66,-300 1119.44,-288.53 1122.45,-268.55 1124.46,-253.76"/>
<polygon fill="midnightblue" stroke="midnightblue" points="1127.95,-254.1 1125.96,-243.69 1121.03,-253.07 1127.95,-254.1"/>
</g>
<!-- Node21 -->
<g id="node17" class="node">
<title>Node21</title>
<g id="a_node17"><a xlink:href="_____i_n_t__0__1_____8h.html" target="_top" xlink:title="Header file for INT_0_1.c.">
<polygon fill="white" stroke="black" points="393.66,-280.5 393.66,-299.5 479.66,-299.5 479.66,-280.5 393.66,-280.5"/>
<text text-anchor="middle" x="436.66" y="-287.5" font-family="Helvetica,sans-Serif" font-size="10.00">__INT_0_1__.h</text>
</a>
</g>
</g>
<!-- Node16&#45;&gt;Node21 -->
<g id="edge28" class="edge">
<title>Node16&#45;&gt;Node21</title>
<path fill="none" stroke="midnightblue" d="M687.41,-336.44C631.73,-326.92 545.04,-311.55 489.52,-301.36"/>
<polygon fill="midnightblue" stroke="midnightblue" points="490,-297.89 479.53,-299.52 488.73,-304.77 490,-297.89"/>
</g>
<!-- Node22 -->
<g id="node18" class="node">
<title>Node22</title>
<g id="a_node18"><a xlink:href=".html" target="_top" xlink:title=" ">
<polygon fill="white" stroke="black" points="297.66,-280.5 297.66,-299.5 375.66,-299.5 375.66,-280.5 297.66,-280.5"/>
<text text-anchor="middle" x="336.66" y="-287.5" font-family="Helvetica,sans-Serif" font-size="10.00">__pin_map.h</text>
</a>
</g>
</g>
<!-- Node16&#45;&gt;Node22 -->
<g id="edge30" class="edge">
<title>Node16&#45;&gt;Node22</title>
<path fill="none" stroke="midnightblue" d="M686.54,-339.18C618.69,-331.65 498.59,-317.58 386.09,-300.15"/>
<polygon fill="midnightblue" stroke="midnightblue" points="386.34,-296.64 375.92,-298.56 385.26,-303.56 386.34,-296.64"/>
</g>
<!-- Node23 -->
<g id="node19" class="node">
<title>Node23</title>
<g id="a_node19"><a xlink:href="____timer1_____8h.html" target="_top" xlink:title="Header file for timer1.c.">
<polygon fill="white" stroke="black" points="1181.16,-224.5 1181.16,-243.5 1260.16,-243.5 1260.16,-224.5 1181.16,-224.5"/>
<text text-anchor="middle" x="1220.66" y="-231.5" font-family="Helvetica,sans-Serif" font-size="10.00">__timer1__.h</text>
</a>
</g>
</g>
<!-- Node16&#45;&gt;Node23 -->
<g id="edge43" class="edge">
<title>Node16&#45;&gt;Node23</title>
<path fill="none" stroke="midnightblue" d="M794.96,-342.64C888.47,-338.1 1075.29,-326.19 1135.66,-300 1161.4,-288.84 1184.92,-265.88 1201.04,-250.45"/>
<polygon fill="midnightblue" stroke="midnightblue" points="1203.46,-252.98 1208.33,-243.57 1198.65,-247.89 1203.46,-252.98"/>
</g>
<!-- Node24 -->
<g id="node20" class="node">
<title>Node24</title>
<g id="a_node20"><a xlink:href="____timer0_____8h.html" target="_top" xlink:title="Header file for timer0.c.">
<polygon fill="white" stroke="black" points="498.16,-280.5 498.16,-299.5 577.16,-299.5 577.16,-280.5 498.16,-280.5"/>
<text text-anchor="middle" x="537.66" y="-287.5" font-family="Helvetica,sans-Serif" font-size="10.00">__timer0__.h</text>
</a>
</g>
</g>
<!-- Node16&#45;&gt;Node24 -->
<g id="edge41" class="edge">
<title>Node16&#45;&gt;Node24</title>
<path fill="none" stroke="midnightblue" d="M703.41,-336.44C666.64,-327.2 610.96,-312.44 574.38,-302.26"/>
<polygon fill="midnightblue" stroke="midnightblue" points="575.17,-298.85 564.6,-299.52 573.28,-305.59 575.17,-298.85"/>
</g>
<!-- Node25 -->
<g id="node21" class="node">
<title>Node25</title>
<g id="a_node21"><a xlink:href="____timer2_____8h.html" target="_top" xlink:title="Header file for timer2.c.">
<polygon fill="white" stroke="black" points="595.16,-280.5 595.16,-299.5 674.16,-299.5 674.16,-280.5 595.16,-280.5"/>
<text text-anchor="middle" x="634.66" y="-287.5" font-family="Helvetica,sans-Serif" font-size="10.00">__timer2__.h</text>
</a>
</g>
</g>
<!-- Node16&#45;&gt;Node25 -->
<g id="edge44" class="edge">
<title>Node16&#45;&gt;Node25</title>
<path fill="none" stroke="midnightblue" d="M718.78,-336.44C699.99,-327.83 673.4,-314.43 655.06,-304.41"/>
<polygon fill="midnightblue" stroke="midnightblue" points="656.74,-301.34 646.3,-299.52 653.33,-307.45 656.74,-301.34"/>
</g>
<!-- Node26 -->
<g id="node22" class="node">
<title>Node26</title>
<g id="a_node22"><a xlink:href="____usart_____8h.html" target="_top" xlink:title="Header file for pid.c.">
<polygon fill="white" stroke="black" points="94.16,-280.5 94.16,-299.5 165.16,-299.5 165.16,-280.5 94.16,-280.5"/>
<text text-anchor="middle" x="129.66" y="-287.5" font-family="Helvetica,sans-Serif" font-size="10.00">__usart__.h</text>
</a>
</g>
</g>
<!-- Node16&#45;&gt;Node26 -->
<g id="edge46" class="edge">
<title>Node16&#45;&gt;Node26</title>
<path fill="none" stroke="midnightblue" d="M686.32,-342.42C585.93,-337.25 364.73,-324.02 179.66,-300 178.22,-299.81 176.74,-299.61 175.26,-299.4"/>
<polygon fill="midnightblue" stroke="midnightblue" points="175.79,-295.94 165.38,-297.87 174.72,-302.86 175.79,-295.94"/>
</g>
<!-- Node27 -->
<g id="node23" class="node">
<title>Node27</title>
<g id="a_node23"><a xlink:href="____dc__control_____8h.html" target="_top" xlink:title="Header file for dc_control.c.">
<polygon fill="white" stroke="black" points="692.16,-280.5 692.16,-299.5 789.16,-299.5 789.16,-280.5 692.16,-280.5"/>
<text text-anchor="middle" x="740.66" y="-287.5" font-family="Helvetica,sans-Serif" font-size="10.00">__dc_control__.h</text>
</a>
</g>
</g>
<!-- Node16&#45;&gt;Node27 -->
<g id="edge52" class="edge">
<title>Node16&#45;&gt;Node27</title>
<path fill="none" stroke="midnightblue" d="M735.5,-336.08C733.99,-328.93 733.56,-318.64 734.21,-309.69"/>
<polygon fill="midnightblue" stroke="midnightblue" points="737.68,-310.13 735.53,-299.75 730.74,-309.2 737.68,-310.13"/>
</g>
<!-- Node28 -->
<g id="node24" class="node">
<title>Node28</title>
<g id="a_node24"><a xlink:href="____odometry_____8h.html" target="_top" xlink:title="Header file for odometry.c.">
<polygon fill="white" stroke="black" points="807.66,-280.5 807.66,-299.5 901.66,-299.5 901.66,-280.5 807.66,-280.5"/>
<text text-anchor="middle" x="854.66" y="-287.5" font-family="Helvetica,sans-Serif" font-size="10.00">__odometry__.h</text>
</a>
</g>
</g>
<!-- Node16&#45;&gt;Node28 -->
<g id="edge54" class="edge">
<title>Node16&#45;&gt;Node28</title>
<path fill="none" stroke="midnightblue" d="M753.86,-336.32C770.57,-327.51 799.37,-313.75 822.01,-303.71"/>
<polygon fill="midnightblue" stroke="midnightblue" points="823.52,-306.87 831.28,-299.65 820.72,-300.45 823.52,-306.87"/>
</g>
<!-- Node29 -->
<g id="node25" class="node">
<title>Node29</title>
<g id="a_node25"><a xlink:href="____pwm_____8h.html" target="_top" xlink:title="Header file for pwm.c.">
<polygon fill="white" stroke="black" points="920.16,-280.5 920.16,-299.5 991.16,-299.5 991.16,-280.5 920.16,-280.5"/>
<text text-anchor="middle" x="955.66" y="-287.5" font-family="Helvetica,sans-Serif" font-size="10.00">__pwm__.h</text>
</a>
</g>
</g>
<!-- Node16&#45;&gt;Node29 -->
<g id="edge56" class="edge">
<title>Node16&#45;&gt;Node29</title>
<path fill="none" stroke="midnightblue" d="M769.64,-336.44C805.79,-326.83 867.71,-311.26 910.18,-301.07"/>
<polygon fill="midnightblue" stroke="midnightblue" points="911.08,-304.45 919.99,-298.73 909.45,-297.64 911.08,-304.45"/>
</g>
<!-- Node30 -->
<g id="node26" class="node">
<title>Node30</title>
<g id="a_node26"><a xlink:href="__pid___8h.html" target="_top" xlink:title="Header file for pid.c.">
<polygon fill="white" stroke="black" points="1406.16,-112.5 1406.16,-131.5 1457.16,-131.5 1457.16,-112.5 1406.16,-112.5"/>
<text text-anchor="middle" x="1431.66" y="-119.5" font-family="Helvetica,sans-Serif" font-size="10.00">_pid_.h</text>
</a>
</g>
</g>
<!-- Node16&#45;&gt;Node30 -->
<g id="edge58" class="edge">
<title>Node16&#45;&gt;Node30</title>
<path fill="none" stroke="midnightblue" d="M794.87,-343.87C936.56,-340.51 1310.28,-328.99 1357.66,-300 1413.28,-265.98 1427.11,-180.5 1430.54,-142.14"/>
<polygon fill="midnightblue" stroke="midnightblue" points="1434.05,-142.1 1431.3,-131.86 1427.07,-141.58 1434.05,-142.1"/>
</g>
<!-- Node31 -->
<g id="node27" class="node">
<title>Node31</title>
<g id="a_node27"><a xlink:href="____format_____8h.html" target="_top" xlink:title="Header file for format.c.">
<polygon fill="white" stroke="black" points="1009.66,-280.5 1009.66,-299.5 1089.66,-299.5 1089.66,-280.5 1009.66,-280.5"/>
<text text-anchor="middle" x="1049.66" y="-287.5" font-family="Helvetica,sans-Serif" font-size="10.00">__format__.h</text>
</a>
</g>
</g>
<!-- Node16&#45;&gt;Node31 -->
<g id="edge60" class="edge">
<title>Node16&#45;&gt;Node31</title>
<path fill="none" stroke="midnightblue" d="M783.61,-336.46C833.48,-327.48 917.86,-312.88 990.66,-300 993.61,-299.48 996.65,-298.94 999.73,-298.39"/>
<polygon fill="midnightblue" stroke="midnightblue" points="1000.41,-301.83 1009.65,-296.65 999.19,-294.93 1000.41,-301.83"/>
</g>
<!-- Node20&#45;&gt;Node16 -->
<g id="edge27" class="edge">
<title>Node20&#45;&gt;Node16</title>
<path fill="none" stroke="midnightblue" d="M1137.06,-243.69C1141.35,-257.82 1140.69,-285.61 1124.66,-300 1079.36,-340.69 902.4,-346.02 805.23,-345.89"/>
<polygon fill="midnightblue" stroke="midnightblue" points="804.95,-342.39 794.94,-345.85 804.93,-349.39 804.95,-342.39"/>
</g>
<!-- Node21&#45;&gt;Node16 -->
<g id="edge29" class="edge">
<title>Node21&#45;&gt;Node16</title>
<path fill="none" stroke="midnightblue" d="M480.13,-297.89C534.92,-307.18 628.82,-323.82 687.73,-334.63"/>
<polygon fill="midnightblue" stroke="midnightblue" points="687.11,-338.07 697.58,-336.44 688.38,-331.19 687.11,-338.07"/>
</g>
<!-- Node22&#45;&gt;Node2 -->
<g id="edge32" class="edge">
<title>Node22&#45;&gt;Node2</title>
<path fill="none" stroke="midnightblue" d="M344.26,-280.08C350.89,-272.3 360.68,-260.8 368.72,-251.37"/>
<polygon fill="midnightblue" stroke="midnightblue" points="371.39,-253.63 375.21,-243.75 366.06,-249.09 371.39,-253.63"/>
</g>
<!-- Node22&#45;&gt;Node4 -->
<g id="edge36" class="edge">
<title>Node22&#45;&gt;Node4</title>
<path fill="none" stroke="midnightblue" d="M364.28,-280.48C420.11,-262.74 543.61,-220.76 572.66,-188 583.99,-175.23 588.58,-156.04 590.43,-141.81"/>
<polygon fill="midnightblue" stroke="midnightblue" points="593.93,-141.98 591.41,-131.69 586.96,-141.31 593.93,-141.98"/>
</g>
<!-- Node22&#45;&gt;Node5 -->
<g id="edge35" class="edge">
<title>Node22&#45;&gt;Node5</title>
<path fill="none" stroke="midnightblue" d="M336.37,-280.35C335.41,-266.28 331.36,-238.57 314.66,-224 285.88,-198.88 176.52,-186.54 118.43,-181.65"/>
<polygon fill="midnightblue" stroke="midnightblue" points="118.47,-178.14 108.22,-180.82 117.9,-185.11 118.47,-178.14"/>
</g>
<!-- Node22&#45;&gt;Node15 -->
<g id="edge31" class="edge">
<title>Node22&#45;&gt;Node15</title>
<path fill="none" stroke="midnightblue" d="M297.42,-281.72C240.43,-271.14 135.63,-251.7 80.96,-241.55"/>
<polygon fill="midnightblue" stroke="midnightblue" points="81.51,-238.09 71.04,-239.71 80.23,-244.97 81.51,-238.09"/>
</g>
<!-- Node22&#45;&gt;Node17 -->
<g id="edge33" class="edge">
<title>Node22&#45;&gt;Node17</title>
<path fill="none" stroke="midnightblue" d="M327.51,-280.32C319.16,-272.42 306.63,-260.55 296.49,-250.94"/>
<polygon fill="midnightblue" stroke="midnightblue" points="298.66,-248.17 288.99,-243.83 293.84,-253.25 298.66,-248.17"/>
</g>
<!-- Node22&#45;&gt;Node18 -->
<g id="edge34" class="edge">
<title>Node22&#45;&gt;Node18</title>
<path fill="none" stroke="midnightblue" d="M375.91,-281.35C378.87,-280.86 381.81,-280.4 384.66,-280 533.53,-258.9 710.57,-244.8 797.34,-238.6"/>
<polygon fill="midnightblue" stroke="midnightblue" points="797.74,-242.08 807.47,-237.88 797.24,-235.09 797.74,-242.08"/>
</g>
<!-- Node22&#45;&gt;Node19 -->
<g id="edge37" class="edge">
<title>Node22&#45;&gt;Node19</title>
<path fill="none" stroke="midnightblue" d="M314.96,-280.44C292.31,-271.52 256.59,-257.44 230.91,-247.32"/>
<polygon fill="midnightblue" stroke="midnightblue" points="231.86,-243.93 221.27,-243.52 229.29,-250.44 231.86,-243.93"/>
</g>
<!-- Node22&#45;&gt;Node20 -->
<g id="edge38" class="edge">
<title>Node22&#45;&gt;Node20</title>
<path fill="none" stroke="midnightblue" d="M375.89,-281.23C378.85,-280.77 381.8,-280.35 384.66,-280 522.56,-262.98 951.86,-242.94 1088.47,-236.85"/>
<polygon fill="midnightblue" stroke="midnightblue" points="1088.7,-240.34 1098.54,-236.4 1088.39,-233.35 1088.7,-240.34"/>
</g>
<!-- Node22&#45;&gt;Node23 -->
<g id="edge39" class="edge">
<title>Node22&#45;&gt;Node23</title>
<path fill="none" stroke="midnightblue" d="M375.89,-281.18C378.85,-280.74 381.8,-280.33 384.66,-280 729.16,-240.02 822.02,-282.89 1171.02,-243.88"/>
<polygon fill="midnightblue" stroke="midnightblue" points="1171.61,-247.34 1181.15,-242.73 1170.82,-240.38 1171.61,-247.34"/>
</g>
<!-- Node23&#45;&gt;Node16 -->
<g id="edge40" class="edge">
<title>Node23&#45;&gt;Node16</title>
<path fill="none" stroke="midnightblue" d="M1219.2,-243.57C1210.56,-258.05 1183.61,-287.01 1153.66,-300 1093.02,-326.3 904.83,-338.21 804.68,-342.7"/>
<polygon fill="midnightblue" stroke="midnightblue" points="804.52,-339.2 794.68,-343.14 804.83,-346.2 804.52,-339.2"/>
</g>
<!-- Node24&#45;&gt;Node16 -->
<g id="edge42" class="edge">
<title>Node24&#45;&gt;Node16</title>
<path fill="none" stroke="midnightblue" d="M574.76,-299.52C611.48,-308.74 667.16,-323.51 703.79,-333.7"/>
<polygon fill="midnightblue" stroke="midnightblue" points="703.01,-337.12 713.59,-336.44 704.9,-330.38 703.01,-337.12"/>
</g>
<!-- Node25&#45;&gt;Node16 -->
<g id="edge45" class="edge">
<title>Node25&#45;&gt;Node16</title>
<path fill="none" stroke="midnightblue" d="M656.76,-299.65C675.45,-308.23 701.75,-321.48 720.01,-331.45"/>
<polygon fill="midnightblue" stroke="midnightblue" points="718.31,-334.51 728.75,-336.32 721.72,-328.4 718.31,-334.51"/>
</g>
<!-- Node26&#45;&gt;Node2 -->
<g id="edge47" class="edge">
<title>Node26&#45;&gt;Node2</title>
<path fill="none" stroke="midnightblue" d="M165.38,-281.38C215.52,-270.67 305.9,-251.38 352.72,-241.39"/>
<polygon fill="midnightblue" stroke="midnightblue" points="353.51,-244.8 362.56,-239.29 352.05,-237.95 353.51,-244.8"/>
</g>
<!-- Node26&#45;&gt;Node4 -->
<g id="edge50" class="edge">
<title>Node26&#45;&gt;Node4</title>
<path fill="none" stroke="midnightblue" d="M130.8,-280.09C133.04,-266.17 139.33,-239.27 155.66,-224 211.5,-171.81 439.03,-140.18 541.37,-128.34"/>
<polygon fill="midnightblue" stroke="midnightblue" points="541.92,-131.8 551.46,-127.19 541.13,-124.84 541.92,-131.8"/>
</g>
<!-- Node26&#45;&gt;Node5 -->
<g id="edge49" class="edge">
<title>Node26&#45;&gt;Node5</title>
<path fill="none" stroke="midnightblue" d="M125.9,-280.37C118.08,-262.46 99.96,-220.92 89.5,-196.95"/>
<polygon fill="midnightblue" stroke="midnightblue" points="92.62,-195.36 85.41,-187.59 86.2,-198.16 92.62,-195.36"/>
</g>
<!-- Node26&#45;&gt;Node15 -->
<g id="edge48" class="edge">
<title>Node26&#45;&gt;Node15</title>
<path fill="none" stroke="midnightblue" d="M116.17,-280.32C103.06,-271.9 82.95,-258.97 67.56,-249.07"/>
<polygon fill="midnightblue" stroke="midnightblue" points="69.43,-246.12 59.13,-243.65 65.65,-252.01 69.43,-246.12"/>
</g>
<!-- Node26&#45;&gt;Node19 -->
<g id="edge51" class="edge">
<title>Node26&#45;&gt;Node19</title>
<path fill="none" stroke="midnightblue" d="M140.91,-280.32C151.46,-272.18 167.46,-259.84 180.11,-250.09"/>
<polygon fill="midnightblue" stroke="midnightblue" points="182.43,-252.71 188.21,-243.83 178.16,-247.17 182.43,-252.71"/>
</g>
<!-- Node27&#45;&gt;Node16 -->
<g id="edge53" class="edge">
<title>Node27&#45;&gt;Node16</title>
<path fill="none" stroke="midnightblue" d="M745.79,-299.75C747.32,-306.86 747.77,-317.14 747.14,-326.1"/>
<polygon fill="midnightblue" stroke="midnightblue" points="743.66,-325.71 745.83,-336.08 750.6,-326.62 743.66,-325.71"/>
</g>
<!-- Node28&#45;&gt;Node16 -->
<g id="edge55" class="edge">
<title>Node28&#45;&gt;Node16</title>
<path fill="none" stroke="midnightblue" d="M841.76,-299.52C825.06,-308.35 795.95,-322.26 773.15,-332.37"/>
<polygon fill="midnightblue" stroke="midnightblue" points="771.58,-329.23 763.82,-336.44 774.38,-335.65 771.58,-329.23"/>
</g>
<!-- Node29&#45;&gt;Node16 -->
<g id="edge57" class="edge">
<title>Node29&#45;&gt;Node16</title>
<path fill="none" stroke="midnightblue" d="M926.84,-299.52C891.69,-308.86 832.02,-323.89 789.65,-334.09"/>
<polygon fill="midnightblue" stroke="midnightblue" points="788.73,-330.71 779.82,-336.44 790.36,-337.52 788.73,-330.71"/>
</g>
<!-- Node30&#45;&gt;Node8 -->
<g id="edge59" class="edge">
<title>Node30&#45;&gt;Node8</title>
<path fill="none" stroke="midnightblue" d="M1422.75,-112.08C1414.88,-104.22 1403.23,-92.57 1393.74,-83.08"/>
<polygon fill="midnightblue" stroke="midnightblue" points="1395.96,-80.35 1386.41,-75.75 1391.01,-85.3 1395.96,-80.35"/>
</g>
<!-- Node31&#45;&gt;Node16 -->
<g id="edge61" class="edge">
<title>Node31&#45;&gt;Node16</title>
<path fill="none" stroke="midnightblue" d="M1011.29,-299.53C1010.41,-299.69 1009.53,-299.85 1008.66,-300 939.28,-312.27 859.38,-326.11 804.91,-335.16"/>
<polygon fill="midnightblue" stroke="midnightblue" points="804.34,-331.71 795.05,-336.79 805.49,-338.61 804.34,-331.71"/>
</g>
</g>
</svg>
        <g id="navigator" transform="translate(0 0)" fill="#404254">
                <rect fill="#f2f5e9" fill-opacity="0.5" stroke="#606060" stroke-width=".5" x="0" y="0" width="60" height="60"/>
                <use id="zoomplus" xlink:href="#zoomPlus" x="17" y="9" onmousedown="handleZoom(evt,'in')"/>
                <use id="zoomminus" xlink:href="#zoomMin" x="42" y="9" onmousedown="handleZoom(evt,'out')"/>
                <use id="reset" xlink:href="#resetDef" x="30" y="36" onmousedown="handleReset()"/>
                <g id="arrowUp" xlink:href="#dirArrow" transform="translate(30 24)" onmousedown="handlePan(0,-1)">
                  <use xlink:href="#rim" fill="#404040">
                        <set attributeName="fill" to="#808080" begin="arrowUp.mouseover" end="arrowUp.mouseout"/>
                  </use>
                  <path fill="none" stroke="white" stroke-width="1.5" d="M0,-3.0v7 M-2.5,-0.5L0,-3.0L2.5,-0.5"/>
                </g>
                <g id="arrowRight" xlink:href="#dirArrow" transform="rotate(90) translate(36 -43)" onmousedown="handlePan(1,0)">
                  <use xlink:href="#rim" fill="#404040">
                        <set attributeName="fill" to="#808080" begin="arrowRight.mouseover" end="arrowRight.mouseout"/>
                  </use>
                  <path fill="none" stroke="white" stroke-width="1.5" d="M0,-3.0v7 M-2.5,-0.5L0,-3.0L2.5,-0.5"/>
                </g>
                <g id="arrowDown" xlink:href="#dirArrow" transform="rotate(180) translate(-30 -48)" onmousedown="handlePan(0,1)">
                  <use xlink:href="#rim" fill="#404040">
                        <set attributeName="fill" to="#808080" begin="arrowDown.mouseover" end="arrowDown.mouseout"/>
                  </use>
                  <path fill="none" stroke="white" stroke-width="1.5" d="M0,-3.0v7 M-2.5,-0.5L0,-3.0L2.5,-0.5"/>
                </g>
                <g id="arrowLeft" xlink:href="#dirArrow" transform="rotate(270) translate(-36 17)" onmousedown="handlePan(-1,0)">
                  <use xlink:href="#rim" fill="#404040">
                        <set attributeName="fill" to="#808080" begin="arrowLeft.mouseover" end="arrowLeft.mouseout"/>
                  </use>
                  <path fill="none" stroke="white" stroke-width="1.5" d="M0,-3.0v7 M-2.5,-0.5L0,-3.0L2.5,-0.5"/>
                </g>
        </g>
        <svg viewBox="0 0 15 15" width="100%" height="30px" preserveAspectRatio="xMaxYMin meet">
         <g id="arrow_out" transform="scale(0.3 0.3)">
          <a xlink:href="init_8c__incl_org.svg" target="_base">
           <rect id="button" ry="5" rx="5" y="6" x="6" height="38" width="38"
                fill="#f2f5e9" fill-opacity="0.5" stroke="#606060" stroke-width="1.0"/>
           <path id="arrow"
             d="M 11.500037,31.436501 C 11.940474,20.09759 22.043105,11.32322 32.158766,21.979434 L 37.068811,17.246167 C 37.068811,17.246167 37.088388,32 37.088388,32 L 22.160133,31.978069 C 22.160133,31.978069 26.997745,27.140456 26.997745,27.140456 C 18.528582,18.264221 13.291696,25.230495 11.500037,31.436501 z"
             style="fill:#404040;"/>
          </a>
         </g>
        </svg>
</svg>
