<?xml version="1.0" encoding="UTF-8" standalone="no"?>
<!DOCTYPE svg PUBLIC "-//W3C//DTD SVG 1.1//EN"
 "http://www.w3.org/Graphics/SVG/1.1/DTD/svg11.dtd">
<!-- Generated by graphviz version 2.43.0 (0)
 -->
<!-- Title: swarm_bot_cpp/src/ASF/common/utils/interrupt/interrupt_avr8.h Pages: 1 -->
<svg width="521pt" height="218pt"
 viewBox="0.00 0.00 521.47 218.00" xmlns="http://www.w3.org/2000/svg" xmlns:xlink="http://www.w3.org/1999/xlink">
<g id="graph0" class="graph" transform="scale(1 1) rotate(0) translate(4 214)">
<title>swarm_bot_cpp/src/ASF/common/utils/interrupt/interrupt_avr8.h</title>
<polygon fill="white" stroke="transparent" points="-4,4 -4,-214 517.47,-214 517.47,4 -4,4"/>
<!-- Node1 -->
<g id="node1" class="node">
<title>Node1</title>
<g id="a_node1"><a xlink:title="Global interrupt management for 8&#45;bit AVR.">
<polygon fill="#bfbfbf" stroke="black" points="323,-168.5 323,-209.5 455,-209.5 455,-168.5 323,-168.5"/>
<text text-anchor="start" x="331" y="-197.5" font-family="Helvetica,sans-Serif" font-size="10.00">swarm_bot_cpp/src/ASF</text>
<text text-anchor="start" x="331" y="-186.5" font-family="Helvetica,sans-Serif" font-size="10.00">/common/utils/interrupt</text>
<text text-anchor="middle" x="389" y="-175.5" font-family="Helvetica,sans-Serif" font-size="10.00">/interrupt_avr8.h</text>
</a>
</g>
</g>
<!-- Node2 -->
<g id="node2" class="node">
<title>Node2</title>
<g id="a_node2"><a xlink:href="compiler_8h.html" target="_top" xlink:title="Commonly used includes, types and macros.">
<polygon fill="white" stroke="black" points="247,-112.5 247,-131.5 315,-131.5 315,-112.5 247,-112.5"/>
<text text-anchor="middle" x="281" y="-119.5" font-family="Helvetica,sans-Serif" font-size="10.00">compiler.h</text>
</a>
</g>
</g>
<!-- Node1&#45;&gt;Node2 -->
<g id="edge1" class="edge">
<title>Node1&#45;&gt;Node2</title>
<path fill="none" stroke="midnightblue" d="M356.6,-168.5C339.72,-158.34 319.47,-146.16 304.18,-136.95"/>
<polygon fill="midnightblue" stroke="midnightblue" points="305.75,-133.81 295.38,-131.65 302.14,-139.81 305.75,-133.81"/>
</g>
<!-- Node7 -->
<g id="node7" class="node">
<title>Node7</title>
<g id="a_node7"><a xlink:href="parts_8h.html" target="_top" xlink:title="Atmel part identification macros.">
<polygon fill="white" stroke="black" points="345,-0.5 345,-19.5 395,-19.5 395,-0.5 345,-0.5"/>
<text text-anchor="middle" x="370" y="-7.5" font-family="Helvetica,sans-Serif" font-size="10.00">parts.h</text>
</a>
</g>
</g>
<!-- Node1&#45;&gt;Node7 -->
<g id="edge10" class="edge">
<title>Node1&#45;&gt;Node7</title>
<path fill="none" stroke="midnightblue" d="M428.18,-168.44C472.77,-143.52 535.68,-98.57 505,-56 482.48,-24.76 437.33,-14.88 405.46,-11.93"/>
<polygon fill="midnightblue" stroke="midnightblue" points="405.45,-8.42 395.22,-11.17 404.93,-15.4 405.45,-8.42"/>
</g>
<!-- Node3 -->
<g id="node3" class="node">
<title>Node3</title>
<g id="a_node3"><a xlink:title=" ">
<polygon fill="white" stroke="#bfbfbf" points="0,-56.5 0,-75.5 62,-75.5 62,-56.5 0,-56.5"/>
<text text-anchor="middle" x="31" y="-63.5" font-family="Helvetica,sans-Serif" font-size="10.00">stdbool.h</text>
</a>
</g>
</g>
<!-- Node2&#45;&gt;Node3 -->
<g id="edge2" class="edge">
<title>Node2&#45;&gt;Node3</title>
<path fill="none" stroke="midnightblue" d="M246.79,-113.78C207.15,-105.39 139.62,-91.03 71.98,-76.2"/>
<polygon fill="midnightblue" stroke="midnightblue" points="72.52,-72.73 62,-74.01 71.02,-79.57 72.52,-72.73"/>
</g>
<!-- Node4 -->
<g id="node4" class="node">
<title>Node4</title>
<g id="a_node4"><a xlink:title=" ">
<polygon fill="white" stroke="#bfbfbf" points="80.5,-56.5 80.5,-75.5 133.5,-75.5 133.5,-56.5 80.5,-56.5"/>
<text text-anchor="middle" x="107" y="-63.5" font-family="Helvetica,sans-Serif" font-size="10.00">stdint.h</text>
</a>
</g>
</g>
<!-- Node2&#45;&gt;Node4 -->
<g id="edge3" class="edge">
<title>Node2&#45;&gt;Node4</title>
<path fill="none" stroke="midnightblue" d="M253.43,-112.44C223.64,-103.2 176.05,-88.43 143.25,-78.25"/>
<polygon fill="midnightblue" stroke="midnightblue" points="144.17,-74.87 133.59,-75.25 142.1,-81.56 144.17,-74.87"/>
</g>
<!-- Node5 -->
<g id="node5" class="node">
<title>Node5</title>
<g id="a_node5"><a xlink:title=" ">
<polygon fill="white" stroke="#bfbfbf" points="152,-56.5 152,-75.5 208,-75.5 208,-56.5 152,-56.5"/>
<text text-anchor="middle" x="180" y="-63.5" font-family="Helvetica,sans-Serif" font-size="10.00">stddef.h</text>
</a>
</g>
</g>
<!-- Node2&#45;&gt;Node5 -->
<g id="edge4" class="edge">
<title>Node2&#45;&gt;Node5</title>
<path fill="none" stroke="midnightblue" d="M264.77,-112.32C248.65,-103.7 223.7,-90.36 205.04,-80.39"/>
<polygon fill="midnightblue" stroke="midnightblue" points="206.66,-77.28 196.19,-75.65 203.36,-83.46 206.66,-77.28"/>
</g>
<!-- Node6 -->
<g id="node6" class="node">
<title>Node6</title>
<g id="a_node6"><a xlink:title=" ">
<polygon fill="white" stroke="#bfbfbf" points="226.5,-56.5 226.5,-75.5 279.5,-75.5 279.5,-56.5 226.5,-56.5"/>
<text text-anchor="middle" x="253" y="-63.5" font-family="Helvetica,sans-Serif" font-size="10.00">stdlib.h</text>
</a>
</g>
</g>
<!-- Node2&#45;&gt;Node6 -->
<g id="edge5" class="edge">
<title>Node2&#45;&gt;Node6</title>
<path fill="none" stroke="midnightblue" d="M276.38,-112.08C272.54,-104.69 266.98,-93.95 262.24,-84.81"/>
<polygon fill="midnightblue" stroke="midnightblue" points="265.25,-83.02 257.54,-75.75 259.03,-86.24 265.25,-83.02"/>
</g>
<!-- Node2&#45;&gt;Node7 -->
<g id="edge6" class="edge">
<title>Node2&#45;&gt;Node7</title>
<path fill="none" stroke="midnightblue" d="M286.57,-112.29C294.86,-99.54 311.17,-75.2 327,-56 335.33,-45.89 345.42,-35.26 353.73,-26.87"/>
<polygon fill="midnightblue" stroke="midnightblue" points="356.41,-29.14 361.03,-19.61 351.47,-24.18 356.41,-29.14"/>
</g>
<!-- Node8 -->
<g id="node8" class="node">
<title>Node8</title>
<g id="a_node8"><a xlink:href="interrupt_8h.html" target="_top" xlink:title="Global interrupt management for 8&#45; and 32&#45;bit AVR.">
<polygon fill="white" stroke="black" points="336,-56.5 336,-75.5 404,-75.5 404,-56.5 336,-56.5"/>
<text text-anchor="middle" x="370" y="-63.5" font-family="Helvetica,sans-Serif" font-size="10.00">interrupt.h</text>
</a>
</g>
</g>
<!-- Node2&#45;&gt;Node8 -->
<g id="edge7" class="edge">
<title>Node2&#45;&gt;Node8</title>
<path fill="none" stroke="midnightblue" d="M295.3,-112.32C309.18,-103.9 330.49,-90.97 346.8,-81.07"/>
<polygon fill="midnightblue" stroke="midnightblue" points="349,-83.83 355.74,-75.65 345.37,-77.85 349,-83.83"/>
</g>
<!-- Node9 -->
<g id="node9" class="node">
<title>Node9</title>
<g id="a_node9"><a xlink:href="progmem_8h.html" target="_top" xlink:title="Program memory access.">
<polygon fill="white" stroke="black" points="422.5,-56.5 422.5,-75.5 495.5,-75.5 495.5,-56.5 422.5,-56.5"/>
<text text-anchor="middle" x="459" y="-63.5" font-family="Helvetica,sans-Serif" font-size="10.00">progmem.h</text>
</a>
</g>
</g>
<!-- Node2&#45;&gt;Node9 -->
<g id="edge9" class="edge">
<title>Node2&#45;&gt;Node9</title>
<path fill="none" stroke="midnightblue" d="M309.2,-112.44C339.41,-103.28 387.51,-88.69 421.03,-78.52"/>
<polygon fill="midnightblue" stroke="midnightblue" points="422.37,-81.77 430.93,-75.52 420.34,-75.07 422.37,-81.77"/>
</g>
<!-- Node8&#45;&gt;Node7 -->
<g id="edge8" class="edge">
<title>Node8&#45;&gt;Node7</title>
<path fill="none" stroke="midnightblue" d="M370,-56.08C370,-49.01 370,-38.86 370,-29.99"/>
<polygon fill="midnightblue" stroke="midnightblue" points="373.5,-29.75 370,-19.75 366.5,-29.75 373.5,-29.75"/>
</g>
</g>
</svg>
