<?xml version="1.0" encoding="UTF-8" standalone="no"?>
<!DOCTYPE svg PUBLIC "-//W3C//DTD SVG 1.1//EN"
 "http://www.w3.org/Graphics/SVG/1.1/DTD/svg11.dtd">
<!-- Generated by graphviz version 2.43.0 (0)
 -->
<!-- Title: swarm_bot_cpp/src/ASF/common/utils/interrupt.h Pages: 1 -->
<!--zoomable 452 -->
<svg id="main" version="1.1" xmlns="http://www.w3.org/2000/svg" xmlns:xlink="http://www.w3.org/1999/xlink" xml:space="preserve" onload="init(evt)">
<style type="text/css"><![CDATA[
.edge:hover path { stroke: red; }
.edge:hover polygon { stroke: red; fill: red; }
]]></style>
<script type="text/javascript"><![CDATA[
var edges = document.getElementsByTagName('g');
if (edges && edges.length) {
  for (var i=0;i<edges.length;i++) {
    if (edges[i].id.substr(0,4)=='edge') {
      edges[i].setAttribute('class','edge');
    }
  }
}
]]></script>
        <defs>
                <circle id="rim" cx="0" cy="0" r="7"/>
                <circle id="rim2" cx="0" cy="0" r="3.5"/>
                <g id="zoomPlus">
                        <use xlink:href="#rim" fill="#404040">
                                <set attributeName="fill" to="#808080" begin="zoomplus.mouseover" end="zoomplus.mouseout"/>
                        </use>
                        <path d="M-4,0h8M0,-4v8" fill="none" stroke="white" stroke-width="1.5" pointer-events="none"/>
                </g>
                <g id="zoomMin">
                        <use xlink:href="#rim" fill="#404040">
                                <set attributeName="fill" to="#808080" begin="zoomminus.mouseover" end="zoomminus.mouseout"/>
                        </use>
                        <path d="M-4,0h8" fill="none" stroke="white" stroke-width="1.5" pointer-events="none"/>
                </g>
                <g id="dirArrow">
                        <path fill="none" stroke="white" stroke-width="1.5" d="M0,-3.0v7 M-2.5,-0.5L0,-3.0L2.5,-0.5"/>
                </g>
               <g id="resetDef">
                       <use xlink:href="#rim2" fill="#404040">
                               <set attributeName="fill" to="#808080" begin="reset.mouseover" end="reset.mouseout"/>
                       </use>
               </g>
        </defs>

<script type="text/javascript">
var viewWidth = 393;
var viewHeight = 452;
var sectionId = 'dynsection-1';
</script>
<script xlink:href="svgpan.js"/>
<svg id="graph" class="graph">
<g id="viewport">
<title>swarm_bot_cpp/src/ASF/common/utils/interrupt.h</title>
<polygon fill="white" stroke="transparent" points="-4,4 -4,-448 388.5,-448 388.5,4 -4,4"/>
<!-- Node1 -->
<g id="node1" class="node">
<title>Node1</title>
<g id="a_node1"><a xlink:title="Global interrupt management for 8&#45; and 32&#45;bit AVR.">
<polygon fill="#bfbfbf" stroke="black" points="7.5,-413.5 7.5,-443.5 147.5,-443.5 147.5,-413.5 7.5,-413.5"/>
<text text-anchor="start" x="15.5" y="-431.5" font-family="Helvetica,sans-Serif" font-size="10.00">swarm_bot_cpp/src/ASF</text>
<text text-anchor="middle" x="77.5" y="-420.5" font-family="Helvetica,sans-Serif" font-size="10.00">/common/utils/interrupt.h</text>
</a>
</g>
</g>
<!-- Node2 -->
<g id="node2" class="node">
<title>Node2</title>
<g id="a_node2"><a xlink:href="compiler_8h.html" target="_top" xlink:title="Commonly used includes, types and macros.">
<polygon fill="white" stroke="black" points="77.5,-346.5 77.5,-376.5 209.5,-376.5 209.5,-346.5 77.5,-346.5"/>
<text text-anchor="start" x="85.5" y="-364.5" font-family="Helvetica,sans-Serif" font-size="10.00">swarm_bot_cpp/src/ASF</text>
<text text-anchor="middle" x="143.5" y="-353.5" font-family="Helvetica,sans-Serif" font-size="10.00">/mega/utils/compiler.h</text>
</a>
</g>
</g>
<!-- Node1&#45;&gt;Node2 -->
<g id="edge1" class="edge">
<title>Node1&#45;&gt;Node2</title>
<path fill="none" stroke="midnightblue" d="M99.01,-406.31C108.91,-396.56 120.39,-385.26 129.21,-376.58"/>
<polygon fill="midnightblue" stroke="midnightblue" points="96.49,-403.89 91.82,-413.4 101.4,-408.87 96.49,-403.89"/>
</g>
<!-- Node30 -->
<g id="node8" class="node">
<title>Node30</title>
<g id="a_node8"><a xlink:href="asf_8h.html" target="_top" xlink:title="Autogenerated API include file for the Atmel Software Framework (ASF)">
<polygon fill="white" stroke="black" points="0,-212.5 0,-231.5 137,-231.5 137,-212.5 0,-212.5"/>
<text text-anchor="middle" x="68.5" y="-219.5" font-family="Helvetica,sans-Serif" font-size="10.00">swarm_bot_cpp/src/asf.h</text>
</a>
</g>
</g>
<!-- Node1&#45;&gt;Node30 -->
<g id="edge17" class="edge">
<title>Node1&#45;&gt;Node30</title>
<path fill="none" stroke="midnightblue" d="M72.35,-403.58C70.78,-395.22 69.27,-385.73 68.5,-377 63.63,-321.87 66.63,-255.21 67.96,-231.71"/>
<polygon fill="midnightblue" stroke="midnightblue" points="68.92,-404.32 74.31,-413.44 75.79,-402.95 68.92,-404.32"/>
</g>
<!-- Node3 -->
<g id="node3" class="node">
<title>Node3</title>
<g id="a_node3"><a xlink:href="board_8h.html" target="_top" xlink:title="Standard board header file.">
<polygon fill="white" stroke="black" points="246.5,-274 246.5,-304 384.5,-304 384.5,-274 246.5,-274"/>
<text text-anchor="start" x="254.5" y="-292" font-family="Helvetica,sans-Serif" font-size="10.00">swarm_bot_cpp/src/ASF</text>
<text text-anchor="middle" x="315.5" y="-281" font-family="Helvetica,sans-Serif" font-size="10.00">/common/boards/board.h</text>
</a>
</g>
</g>
<!-- Node2&#45;&gt;Node3 -->
<g id="edge2" class="edge">
<title>Node2&#45;&gt;Node3</title>
<path fill="none" stroke="midnightblue" d="M187.42,-342.5C216.55,-330.56 254.23,-315.11 281.17,-304.07"/>
<polygon fill="midnightblue" stroke="midnightblue" points="185.82,-339.37 177.89,-346.4 188.47,-345.85 185.82,-339.37"/>
</g>
<!-- Node2&#45;&gt;Node30 -->
<g id="edge16" class="edge">
<title>Node2&#45;&gt;Node30</title>
<path fill="none" stroke="midnightblue" d="M114.01,-339.9C104.21,-331.66 94.12,-321.41 87.5,-310 72.6,-284.33 69.36,-248.23 68.67,-231.78"/>
<polygon fill="midnightblue" stroke="midnightblue" points="112.08,-342.84 122.09,-346.33 116.44,-337.36 112.08,-342.84"/>
</g>
<!-- Node31 -->
<g id="node9" class="node">
<title>Node31</title>
<g id="a_node9"><a xlink:href="interrupt__avr8_8h.html" target="_top" xlink:title="Global interrupt management for 8&#45;bit AVR.">
<polygon fill="white" stroke="black" points="96.5,-268.5 96.5,-309.5 228.5,-309.5 228.5,-268.5 96.5,-268.5"/>
<text text-anchor="start" x="104.5" y="-297.5" font-family="Helvetica,sans-Serif" font-size="10.00">swarm_bot_cpp/src/ASF</text>
<text text-anchor="start" x="104.5" y="-286.5" font-family="Helvetica,sans-Serif" font-size="10.00">/common/utils/interrupt</text>
<text text-anchor="middle" x="162.5" y="-275.5" font-family="Helvetica,sans-Serif" font-size="10.00">/interrupt_avr8.h</text>
</a>
</g>
</g>
<!-- Node2&#45;&gt;Node31 -->
<g id="edge15" class="edge">
<title>Node2&#45;&gt;Node31</title>
<path fill="none" stroke="midnightblue" d="M149.95,-336.56C152.32,-327.77 154.97,-317.94 157.22,-309.59"/>
<polygon fill="midnightblue" stroke="midnightblue" points="146.57,-335.67 147.34,-346.23 153.33,-337.49 146.57,-335.67"/>
</g>
<!-- Node4 -->
<g id="node4" class="node">
<title>Node4</title>
<g id="a_node4"><a xlink:href="init_8c.html" target="_top" xlink:title="User board initialization template.">
<polygon fill="white" stroke="black" points="114,-0.5 114,-41.5 269,-41.5 269,-0.5 114,-0.5"/>
<text text-anchor="start" x="122" y="-29.5" font-family="Helvetica,sans-Serif" font-size="10.00">swarm_bot_cpp/src/ASF</text>
<text text-anchor="start" x="122" y="-18.5" font-family="Helvetica,sans-Serif" font-size="10.00">/common/boards/user_board</text>
<text text-anchor="middle" x="191.5" y="-7.5" font-family="Helvetica,sans-Serif" font-size="10.00">/init.c</text>
</a>
</g>
</g>
<!-- Node3&#45;&gt;Node4 -->
<g id="edge3" class="edge">
<title>Node3&#45;&gt;Node4</title>
<path fill="none" stroke="midnightblue" d="M332.49,-265.47C338.83,-255.72 345.27,-243.84 348.5,-232 354.14,-211.31 355.13,-167.2 343.5,-145 318.69,-97.64 266.88,-62 230.67,-41.58"/>
<polygon fill="midnightblue" stroke="midnightblue" points="329.57,-263.55 326.8,-273.77 335.34,-267.51 329.57,-263.55"/>
</g>
<!-- Node5 -->
<g id="node5" class="node">
<title>Node5</title>
<g id="a_node5"><a xlink:href=".html" target="_top" xlink:title=" ">
<polygon fill="white" stroke="black" points="201,-145.5 201,-175.5 314,-175.5 314,-145.5 201,-145.5"/>
<text text-anchor="start" x="209" y="-163.5" font-family="Helvetica,sans-Serif" font-size="10.00">swarm_bot_cpp/src/</text>
<text text-anchor="middle" x="257.5" y="-152.5" font-family="Helvetica,sans-Serif" font-size="10.00">__pin_map.h</text>
</a>
</g>
</g>
<!-- Node3&#45;&gt;Node5 -->
<g id="edge4" class="edge">
<title>Node3&#45;&gt;Node5</title>
<path fill="none" stroke="midnightblue" d="M304.87,-264.81C292.91,-238.72 273.86,-197.18 263.96,-175.58"/>
<polygon fill="midnightblue" stroke="midnightblue" points="301.72,-266.35 309.07,-273.98 308.09,-263.43 301.72,-266.35"/>
</g>
<!-- Node6 -->
<g id="node6" class="node">
<title>Node6</title>
<g id="a_node6"><a xlink:href="____swarm__wold_____8h.html" target="_top" xlink:title="Header file for dummy purposes.">
<polygon fill="white" stroke="red" points="135,-78.5 135,-108.5 248,-108.5 248,-78.5 135,-78.5"/>
<text text-anchor="start" x="143" y="-96.5" font-family="Helvetica,sans-Serif" font-size="10.00">swarm_bot_cpp/src/</text>
<text text-anchor="middle" x="191.5" y="-85.5" font-family="Helvetica,sans-Serif" font-size="10.00">__swarm_wold__.h</text>
</a>
</g>
</g>
<!-- Node3&#45;&gt;Node6 -->
<g id="edge7" class="edge">
<title>Node3&#45;&gt;Node6</title>
<path fill="none" stroke="midnightblue" d="M325.07,-264.11C335.58,-233.61 347.96,-180.55 323.5,-145 306.53,-120.34 275.76,-107.71 248.19,-101.25"/>
<polygon fill="midnightblue" stroke="midnightblue" points="321.64,-263.3 321.49,-273.89 328.21,-265.7 321.64,-263.3"/>
</g>
<!-- Node28 -->
<g id="node7" class="node">
<title>Node28</title>
<g id="a_node7"><a xlink:href="____usart_____8h.html" target="_top" xlink:title="Header file for pid.c.">
<polygon fill="white" stroke="red" points="70,-145.5 70,-175.5 183,-175.5 183,-145.5 70,-145.5"/>
<text text-anchor="start" x="78" y="-163.5" font-family="Helvetica,sans-Serif" font-size="10.00">swarm_bot_cpp/src/</text>
<text text-anchor="middle" x="126.5" y="-152.5" font-family="Helvetica,sans-Serif" font-size="10.00">__usart__.h</text>
</a>
</g>
</g>
<!-- Node3&#45;&gt;Node28 -->
<g id="edge8" class="edge">
<title>Node3&#45;&gt;Node28</title>
<path fill="none" stroke="midnightblue" d="M285.87,-268.17C247.4,-242.42 181.24,-198.14 147.54,-175.58"/>
<polygon fill="midnightblue" stroke="midnightblue" points="284.29,-271.33 294.55,-273.98 288.19,-265.51 284.29,-271.33"/>
</g>
<!-- Node3&#45;&gt;Node30 -->
<g id="edge10" class="edge">
<title>Node3&#45;&gt;Node30</title>
<path fill="none" stroke="midnightblue" d="M252.46,-271.41C204.09,-258.68 139.28,-241.63 100.91,-231.53"/>
<polygon fill="midnightblue" stroke="midnightblue" points="251.65,-274.82 262.21,-273.98 253.43,-268.05 251.65,-274.82"/>
</g>
<!-- Node5&#45;&gt;Node6 -->
<g id="edge5" class="edge">
<title>Node5&#45;&gt;Node6</title>
<path fill="none" stroke="midnightblue" d="M235.99,-138.31C226.09,-128.56 214.61,-117.26 205.79,-108.58"/>
<polygon fill="midnightblue" stroke="midnightblue" points="233.6,-140.87 243.18,-145.4 238.51,-135.89 233.6,-140.87"/>
</g>
<!-- Node6&#45;&gt;Node4 -->
<g id="edge6" class="edge">
<title>Node6&#45;&gt;Node4</title>
<path fill="none" stroke="midnightblue" d="M191.5,-67.98C191.5,-59.35 191.5,-49.76 191.5,-41.59"/>
<polygon fill="midnightblue" stroke="midnightblue" points="188,-68.23 191.5,-78.23 195,-68.23 188,-68.23"/>
</g>
<!-- Node28&#45;&gt;Node6 -->
<g id="edge9" class="edge">
<title>Node28&#45;&gt;Node6</title>
<path fill="none" stroke="midnightblue" d="M147.69,-138.31C157.44,-128.56 168.74,-117.26 177.42,-108.58"/>
<polygon fill="midnightblue" stroke="midnightblue" points="145.2,-135.85 140.6,-145.4 150.15,-140.8 145.2,-135.85"/>
</g>
<!-- Node30&#45;&gt;Node4 -->
<g id="edge11" class="edge">
<title>Node30&#45;&gt;Node4</title>
<path fill="none" stroke="midnightblue" d="M57.92,-203.06C50.07,-187.25 42.05,-163.88 50.5,-145 71.47,-98.15 120.26,-62.28 154.55,-41.68"/>
<polygon fill="midnightblue" stroke="midnightblue" points="55.05,-205.1 62.89,-212.22 61.2,-201.76 55.05,-205.1"/>
</g>
<!-- Node30&#45;&gt;Node5 -->
<g id="edge12" class="edge">
<title>Node30&#45;&gt;Node5</title>
<path fill="none" stroke="midnightblue" d="M105.48,-209.36C136.28,-199.66 180.23,-185.83 212.96,-175.52"/>
<polygon fill="midnightblue" stroke="midnightblue" points="104.07,-206.13 95.58,-212.48 106.17,-212.81 104.07,-206.13"/>
</g>
<!-- Node30&#45;&gt;Node6 -->
<g id="edge13" class="edge">
<title>Node30&#45;&gt;Node6</title>
<path fill="none" stroke="midnightblue" d="M60.22,-202.51C54.2,-186 48.92,-161.87 60.5,-145 77.26,-120.58 107.62,-107.97 134.89,-101.45"/>
<polygon fill="midnightblue" stroke="midnightblue" points="57.12,-204.17 64.12,-212.11 63.6,-201.53 57.12,-204.17"/>
</g>
<!-- Node30&#45;&gt;Node28 -->
<g id="edge14" class="edge">
<title>Node30&#45;&gt;Node28</title>
<path fill="none" stroke="midnightblue" d="M84.01,-205.09C92.99,-195.88 104.18,-184.39 112.83,-175.52"/>
<polygon fill="midnightblue" stroke="midnightblue" points="81.28,-202.87 76.81,-212.48 86.3,-207.76 81.28,-202.87"/>
</g>
</g>
</svg>
        <g id="navigator" transform="translate(0 0)" fill="#404254">
                <rect fill="#f2f5e9" fill-opacity="0.5" stroke="#606060" stroke-width=".5" x="0" y="0" width="60" height="60"/>
                <use id="zoomplus" xlink:href="#zoomPlus" x="17" y="9" onmousedown="handleZoom(evt,'in')"/>
                <use id="zoomminus" xlink:href="#zoomMin" x="42" y="9" onmousedown="handleZoom(evt,'out')"/>
                <use id="reset" xlink:href="#resetDef" x="30" y="36" onmousedown="handleReset()"/>
                <g id="arrowUp" xlink:href="#dirArrow" transform="translate(30 24)" onmousedown="handlePan(0,-1)">
                  <use xlink:href="#rim" fill="#404040">
                        <set attributeName="fill" to="#808080" begin="arrowUp.mouseover" end="arrowUp.mouseout"/>
                  </use>
                  <path fill="none" stroke="white" stroke-width="1.5" d="M0,-3.0v7 M-2.5,-0.5L0,-3.0L2.5,-0.5"/>
                </g>
                <g id="arrowRight" xlink:href="#dirArrow" transform="rotate(90) translate(36 -43)" onmousedown="handlePan(1,0)">
                  <use xlink:href="#rim" fill="#404040">
                        <set attributeName="fill" to="#808080" begin="arrowRight.mouseover" end="arrowRight.mouseout"/>
                  </use>
                  <path fill="none" stroke="white" stroke-width="1.5" d="M0,-3.0v7 M-2.5,-0.5L0,-3.0L2.5,-0.5"/>
                </g>
                <g id="arrowDown" xlink:href="#dirArrow" transform="rotate(180) translate(-30 -48)" onmousedown="handlePan(0,1)">
                  <use xlink:href="#rim" fill="#404040">
                        <set attributeName="fill" to="#808080" begin="arrowDown.mouseover" end="arrowDown.mouseout"/>
                  </use>
                  <path fill="none" stroke="white" stroke-width="1.5" d="M0,-3.0v7 M-2.5,-0.5L0,-3.0L2.5,-0.5"/>
                </g>
                <g id="arrowLeft" xlink:href="#dirArrow" transform="rotate(270) translate(-36 17)" onmousedown="handlePan(-1,0)">
                  <use xlink:href="#rim" fill="#404040">
                        <set attributeName="fill" to="#808080" begin="arrowLeft.mouseover" end="arrowLeft.mouseout"/>
                  </use>
                  <path fill="none" stroke="white" stroke-width="1.5" d="M0,-3.0v7 M-2.5,-0.5L0,-3.0L2.5,-0.5"/>
                </g>
        </g>
        <svg viewBox="0 0 15 15" width="100%" height="30px" preserveAspectRatio="xMaxYMin meet">
         <g id="arrow_out" transform="scale(0.3 0.3)">
          <a xlink:href="interrupt_8h__dep__incl_org.svg" target="_base">
           <rect id="button" ry="5" rx="5" y="6" x="6" height="38" width="38"
                fill="#f2f5e9" fill-opacity="0.5" stroke="#606060" stroke-width="1.0"/>
           <path id="arrow"
             d="M 11.500037,31.436501 C 11.940474,20.09759 22.043105,11.32322 32.158766,21.979434 L 37.068811,17.246167 C 37.068811,17.246167 37.088388,32 37.088388,32 L 22.160133,31.978069 C 22.160133,31.978069 26.997745,27.140456 26.997745,27.140456 C 18.528582,18.264221 13.291696,25.230495 11.500037,31.436501 z"
             style="fill:#404040;"/>
          </a>
         </g>
        </svg>
</svg>
