<?xml version="1.0" encoding="UTF-8" standalone="no"?>
<!DOCTYPE svg PUBLIC "-//W3C//DTD SVG 1.1//EN"
 "http://www.w3.org/Graphics/SVG/1.1/DTD/svg11.dtd">
<!-- Generated by graphviz version 2.43.0 (0)
 -->
<!-- Title: swarm_bot_cpp/src/ASF/mega/utils/preprocessor/mrepeat.h Pages: 1 -->
<svg width="145pt" height="162pt"
 viewBox="0.00 0.00 145.00 162.00" xmlns="http://www.w3.org/2000/svg" xmlns:xlink="http://www.w3.org/1999/xlink">
<g id="graph0" class="graph" transform="scale(1 1) rotate(0) translate(4 158)">
<title>swarm_bot_cpp/src/ASF/mega/utils/preprocessor/mrepeat.h</title>
<polygon fill="white" stroke="transparent" points="-4,4 -4,-158 141,-158 141,4 -4,4"/>
<!-- Node1 -->
<g id="node1" class="node">
<title>Node1</title>
<g id="a_node1"><a xlink:title="Preprocessor macro repeating utils.">
<polygon fill="#bfbfbf" stroke="black" points="0,-112.5 0,-153.5 137,-153.5 137,-112.5 0,-112.5"/>
<text text-anchor="start" x="8" y="-141.5" font-family="Helvetica,sans-Serif" font-size="10.00">swarm_bot_cpp/src/ASF</text>
<text text-anchor="start" x="8" y="-130.5" font-family="Helvetica,sans-Serif" font-size="10.00">/mega/utils/preprocessor</text>
<text text-anchor="middle" x="68.5" y="-119.5" font-family="Helvetica,sans-Serif" font-size="10.00">/mrepeat.h</text>
</a>
</g>
</g>
<!-- Node2 -->
<g id="node2" class="node">
<title>Node2</title>
<g id="a_node2"><a xlink:href="preprocessor_8h.html" target="_top" xlink:title="Preprocessor utils.">
<polygon fill="white" stroke="black" points="24.5,-56.5 24.5,-75.5 112.5,-75.5 112.5,-56.5 24.5,-56.5"/>
<text text-anchor="middle" x="68.5" y="-63.5" font-family="Helvetica,sans-Serif" font-size="10.00">preprocessor.h</text>
</a>
</g>
</g>
<!-- Node1&#45;&gt;Node2 -->
<g id="edge1" class="edge">
<title>Node1&#45;&gt;Node2</title>
<path fill="none" stroke="midnightblue" d="M62.25,-112.5C61.56,-103.97 61.58,-94.01 62.33,-85.59"/>
<polygon fill="midnightblue" stroke="midnightblue" points="65.8,-86.04 63.74,-75.65 58.87,-85.06 65.8,-86.04"/>
</g>
<!-- Node2&#45;&gt;Node1 -->
<g id="edge4" class="edge">
<title>Node2&#45;&gt;Node1</title>
<path fill="none" stroke="midnightblue" d="M73.26,-75.65C74.73,-82.52 75.38,-92.56 75.23,-102.26"/>
<polygon fill="midnightblue" stroke="midnightblue" points="71.72,-102.34 74.75,-112.5 78.71,-102.67 71.72,-102.34"/>
</g>
<!-- Node3 -->
<g id="node3" class="node">
<title>Node3</title>
<g id="a_node3"><a xlink:href="tpaste_8h.html" target="_top" xlink:title="Preprocessor token pasting utils.">
<polygon fill="white" stroke="black" points="2.5,-0.5 2.5,-19.5 58.5,-19.5 58.5,-0.5 2.5,-0.5"/>
<text text-anchor="middle" x="30.5" y="-7.5" font-family="Helvetica,sans-Serif" font-size="10.00">tpaste.h</text>
</a>
</g>
</g>
<!-- Node2&#45;&gt;Node3 -->
<g id="edge2" class="edge">
<title>Node2&#45;&gt;Node3</title>
<path fill="none" stroke="midnightblue" d="M62.23,-56.08C56.86,-48.46 48.98,-37.26 42.42,-27.94"/>
<polygon fill="midnightblue" stroke="midnightblue" points="45.28,-25.91 36.66,-19.75 39.55,-29.94 45.28,-25.91"/>
</g>
<!-- Node4 -->
<g id="node4" class="node">
<title>Node4</title>
<g id="a_node4"><a xlink:href="stringz_8h.html" target="_top" xlink:title="Preprocessor stringizing utils.">
<polygon fill="white" stroke="black" points="77,-0.5 77,-19.5 136,-19.5 136,-0.5 77,-0.5"/>
<text text-anchor="middle" x="106.5" y="-7.5" font-family="Helvetica,sans-Serif" font-size="10.00">stringz.h</text>
</a>
</g>
</g>
<!-- Node2&#45;&gt;Node4 -->
<g id="edge3" class="edge">
<title>Node2&#45;&gt;Node4</title>
<path fill="none" stroke="midnightblue" d="M74.77,-56.08C80.14,-48.46 88.02,-37.26 94.58,-27.94"/>
<polygon fill="midnightblue" stroke="midnightblue" points="97.45,-29.94 100.34,-19.75 91.72,-25.91 97.45,-29.94"/>
</g>
</g>
</svg>
