<?xml version="1.0" encoding="UTF-8" standalone="no"?>
<!DOCTYPE svg PUBLIC "-//W3C//DTD SVG 1.1//EN"
 "http://www.w3.org/Graphics/SVG/1.1/DTD/svg11.dtd">
<!-- Generated by graphviz version 2.43.0 (0)
 -->
<!-- Title: swarm_bot_cpp/src/ASF/common/utils/parts.h Pages: 1 -->
<svg width="412pt" height="307pt"
 viewBox="0.00 0.00 411.50 307.00" xmlns="http://www.w3.org/2000/svg" xmlns:xlink="http://www.w3.org/1999/xlink">
<g id="graph0" class="graph" transform="scale(1 1) rotate(0) translate(4 303)">
<title>swarm_bot_cpp/src/ASF/common/utils/parts.h</title>
<polygon fill="white" stroke="transparent" points="-4,4 -4,-303 407.5,-303 407.5,4 -4,4"/>
<!-- Node1 -->
<g id="node1" class="node">
<title>Node1</title>
<g id="a_node1"><a xlink:title="Atmel part identification macros.">
<polygon fill="#bfbfbf" stroke="black" points="179,-268.5 179,-298.5 311,-298.5 311,-268.5 179,-268.5"/>
<text text-anchor="start" x="187" y="-286.5" font-family="Helvetica,sans-Serif" font-size="10.00">swarm_bot_cpp/src/ASF</text>
<text text-anchor="middle" x="245" y="-275.5" font-family="Helvetica,sans-Serif" font-size="10.00">/common/utils/parts.h</text>
</a>
</g>
</g>
<!-- Node2 -->
<g id="node2" class="node">
<title>Node2</title>
<g id="a_node2"><a xlink:href="interrupt__avr8_8h.html" target="_top" xlink:title="Global interrupt management for 8&#45;bit AVR.">
<polygon fill="white" stroke="black" points="0,-56.5 0,-97.5 132,-97.5 132,-56.5 0,-56.5"/>
<text text-anchor="start" x="8" y="-85.5" font-family="Helvetica,sans-Serif" font-size="10.00">swarm_bot_cpp/src/ASF</text>
<text text-anchor="start" x="8" y="-74.5" font-family="Helvetica,sans-Serif" font-size="10.00">/common/utils/interrupt</text>
<text text-anchor="middle" x="66" y="-63.5" font-family="Helvetica,sans-Serif" font-size="10.00">/interrupt_avr8.h</text>
</a>
</g>
</g>
<!-- Node1&#45;&gt;Node2 -->
<g id="edge1" class="edge">
<title>Node1&#45;&gt;Node2</title>
<path fill="none" stroke="midnightblue" d="M226.05,-260.85C191.08,-220.9 116.9,-136.15 83.25,-97.71"/>
<polygon fill="midnightblue" stroke="midnightblue" points="223.48,-263.22 232.7,-268.44 228.74,-258.61 223.48,-263.22"/>
</g>
<!-- Node3 -->
<g id="node3" class="node">
<title>Node3</title>
<g id="a_node3"><a xlink:href="interrupt_8h.html" target="_top" xlink:title="Global interrupt management for 8&#45; and 32&#45;bit AVR.">
<polygon fill="white" stroke="black" points="224,-201.5 224,-231.5 364,-231.5 364,-201.5 224,-201.5"/>
<text text-anchor="start" x="232" y="-219.5" font-family="Helvetica,sans-Serif" font-size="10.00">swarm_bot_cpp/src/ASF</text>
<text text-anchor="middle" x="294" y="-208.5" font-family="Helvetica,sans-Serif" font-size="10.00">/common/utils/interrupt.h</text>
</a>
</g>
</g>
<!-- Node1&#45;&gt;Node3 -->
<g id="edge2" class="edge">
<title>Node1&#45;&gt;Node3</title>
<path fill="none" stroke="midnightblue" d="M261.84,-260.16C268.99,-250.68 277.1,-239.92 283.39,-231.58"/>
<polygon fill="midnightblue" stroke="midnightblue" points="258.86,-258.3 255.63,-268.4 264.45,-262.52 258.86,-258.3"/>
</g>
<!-- Node4 -->
<g id="node4" class="node">
<title>Node4</title>
<g id="a_node4"><a xlink:href="compiler_8h.html" target="_top" xlink:title="Commonly used includes, types and macros.">
<polygon fill="white" stroke="black" points="153,-134.5 153,-164.5 285,-164.5 285,-134.5 153,-134.5"/>
<text text-anchor="start" x="161" y="-152.5" font-family="Helvetica,sans-Serif" font-size="10.00">swarm_bot_cpp/src/ASF</text>
<text text-anchor="middle" x="219" y="-141.5" font-family="Helvetica,sans-Serif" font-size="10.00">/mega/utils/compiler.h</text>
</a>
</g>
</g>
<!-- Node1&#45;&gt;Node4 -->
<g id="edge9" class="edge">
<title>Node1&#45;&gt;Node4</title>
<path fill="none" stroke="midnightblue" d="M228.15,-260.02C222.86,-251.67 217.7,-241.82 215,-232 208.7,-209.05 212.39,-181.12 215.67,-164.63"/>
<polygon fill="midnightblue" stroke="midnightblue" points="225.33,-262.1 233.83,-268.43 231.13,-258.18 225.33,-262.1"/>
</g>
<!-- Node32 -->
<g id="node6" class="node">
<title>Node32</title>
<g id="a_node6"><a xlink:href="asf_8h.html" target="_top" xlink:title="Autogenerated API include file for the Atmel Software Framework (ASF)">
<polygon fill="white" stroke="red" points="266.5,-0.5 266.5,-19.5 403.5,-19.5 403.5,-0.5 266.5,-0.5"/>
<text text-anchor="middle" x="335" y="-7.5" font-family="Helvetica,sans-Serif" font-size="10.00">swarm_bot_cpp/src/asf.h</text>
</a>
</g>
</g>
<!-- Node1&#45;&gt;Node32 -->
<g id="edge10" class="edge">
<title>Node1&#45;&gt;Node32</title>
<path fill="none" stroke="midnightblue" d="M320.97,-268.92C341.21,-261.46 360.82,-249.9 373,-232 420.75,-161.83 359.62,-50.91 340.42,-19.52"/>
<polygon fill="midnightblue" stroke="midnightblue" points="319.7,-265.65 311.34,-272.16 321.93,-272.29 319.7,-265.65"/>
</g>
<!-- Node3&#45;&gt;Node4 -->
<g id="edge3" class="edge">
<title>Node3&#45;&gt;Node4</title>
<path fill="none" stroke="midnightblue" d="M269.88,-194.6C258.56,-184.78 245.36,-173.34 235.24,-164.58"/>
<polygon fill="midnightblue" stroke="midnightblue" points="267.88,-197.49 277.73,-201.4 272.46,-192.2 267.88,-197.49"/>
</g>
<!-- Node3&#45;&gt;Node32 -->
<g id="edge8" class="edge">
<title>Node3&#45;&gt;Node32</title>
<path fill="none" stroke="midnightblue" d="M300.66,-191.67C307.08,-168.05 316.72,-130.75 323,-98 328.46,-69.55 332.42,-35.41 334.11,-19.69"/>
<polygon fill="midnightblue" stroke="midnightblue" points="297.24,-190.93 297.96,-201.5 303.99,-192.78 297.24,-190.93"/>
</g>
<!-- Node4&#45;&gt;Node2 -->
<g id="edge6" class="edge">
<title>Node4&#45;&gt;Node2</title>
<path fill="none" stroke="midnightblue" d="M179.13,-130.13C157.41,-120.12 130.53,-107.73 108.42,-97.55"/>
<polygon fill="midnightblue" stroke="midnightblue" points="177.86,-133.4 188.41,-134.4 180.79,-127.04 177.86,-133.4"/>
</g>
<!-- Node5 -->
<g id="node5" class="node">
<title>Node5</title>
<g id="a_node5"><a xlink:href="board_8h.html" target="_top" xlink:title="Standard board header file.">
<polygon fill="white" stroke="red" points="150,-62 150,-92 288,-92 288,-62 150,-62"/>
<text text-anchor="start" x="158" y="-80" font-family="Helvetica,sans-Serif" font-size="10.00">swarm_bot_cpp/src/ASF</text>
<text text-anchor="middle" x="219" y="-69" font-family="Helvetica,sans-Serif" font-size="10.00">/common/boards/board.h</text>
</a>
</g>
</g>
<!-- Node4&#45;&gt;Node5 -->
<g id="edge4" class="edge">
<title>Node4&#45;&gt;Node5</title>
<path fill="none" stroke="midnightblue" d="M219,-124.23C219,-113.57 219,-101.41 219,-92.25"/>
<polygon fill="midnightblue" stroke="midnightblue" points="215.5,-124.23 219,-134.23 222.5,-124.23 215.5,-124.23"/>
</g>
<!-- Node4&#45;&gt;Node32 -->
<g id="edge7" class="edge">
<title>Node4&#45;&gt;Node32</title>
<path fill="none" stroke="midnightblue" d="M257.94,-129.41C271.65,-121.22 286.29,-110.61 297,-98 317.7,-73.63 328.85,-36.23 333.03,-19.55"/>
<polygon fill="midnightblue" stroke="midnightblue" points="256.07,-126.44 249.12,-134.44 259.54,-132.53 256.07,-126.44"/>
</g>
<!-- Node5&#45;&gt;Node32 -->
<g id="edge5" class="edge">
<title>Node5&#45;&gt;Node32</title>
<path fill="none" stroke="midnightblue" d="M252.96,-56.97C275.1,-44.56 302.93,-28.97 319.82,-19.51"/>
<polygon fill="midnightblue" stroke="midnightblue" points="251.18,-53.95 244.17,-61.9 254.6,-60.06 251.18,-53.95"/>
</g>
</g>
</svg>
