<?xml version="1.0" encoding="UTF-8" standalone="no"?>
<!DOCTYPE svg PUBLIC "-//W3C//DTD SVG 1.1//EN"
 "http://www.w3.org/Graphics/SVG/1.1/DTD/svg11.dtd">
<!-- Generated by graphviz version 2.43.0 (0)
 -->
<!-- Title: swarm_bot_cpp/src/ASF/mega/utils/preprocessor/preprocessor.h Pages: 1 -->
<svg width="145pt" height="128pt"
 viewBox="0.00 0.00 145.00 128.00" xmlns="http://www.w3.org/2000/svg" xmlns:xlink="http://www.w3.org/1999/xlink">
<g id="graph0" class="graph" transform="scale(1 1) rotate(0) translate(4 124)">
<title>swarm_bot_cpp/src/ASF/mega/utils/preprocessor/preprocessor.h</title>
<polygon fill="white" stroke="transparent" points="-4,4 -4,-124 141,-124 141,4 -4,4"/>
<!-- Node1 -->
<g id="node1" class="node">
<title>Node1</title>
<g id="a_node1"><a xlink:title="Preprocessor utils.">
<polygon fill="#bfbfbf" stroke="black" points="0,-78.5 0,-119.5 137,-119.5 137,-78.5 0,-78.5"/>
<text text-anchor="start" x="8" y="-107.5" font-family="Helvetica,sans-Serif" font-size="10.00">swarm_bot_cpp/src/ASF</text>
<text text-anchor="start" x="8" y="-96.5" font-family="Helvetica,sans-Serif" font-size="10.00">/mega/utils/preprocessor</text>
<text text-anchor="middle" x="68.5" y="-85.5" font-family="Helvetica,sans-Serif" font-size="10.00">/preprocessor.h</text>
</a>
</g>
</g>
<!-- Node2 -->
<g id="node2" class="node">
<title>Node2</title>
<g id="a_node2"><a xlink:href="mrepeat_8h.html" target="_top" xlink:title="Preprocessor macro repeating utils.">
<polygon fill="white" stroke="black" points="0,-0.5 0,-41.5 137,-41.5 137,-0.5 0,-0.5"/>
<text text-anchor="start" x="8" y="-29.5" font-family="Helvetica,sans-Serif" font-size="10.00">swarm_bot_cpp/src/ASF</text>
<text text-anchor="start" x="8" y="-18.5" font-family="Helvetica,sans-Serif" font-size="10.00">/mega/utils/preprocessor</text>
<text text-anchor="middle" x="68.5" y="-7.5" font-family="Helvetica,sans-Serif" font-size="10.00">/mrepeat.h</text>
</a>
</g>
</g>
<!-- Node1&#45;&gt;Node2 -->
<g id="edge1" class="edge">
<title>Node1&#45;&gt;Node2</title>
<path fill="none" stroke="midnightblue" d="M61.9,-68.3C61.58,-59.3 61.78,-49.65 62.52,-41.51"/>
<polygon fill="midnightblue" stroke="midnightblue" points="58.41,-68.66 62.51,-78.43 65.4,-68.23 58.41,-68.66"/>
</g>
<!-- Node2&#45;&gt;Node1 -->
<g id="edge2" class="edge">
<title>Node2&#45;&gt;Node1</title>
<path fill="none" stroke="midnightblue" d="M75.1,-51.63C75.42,-60.62 75.22,-70.27 74.49,-78.43"/>
<polygon fill="midnightblue" stroke="midnightblue" points="78.59,-51.27 74.48,-41.51 71.6,-51.7 78.59,-51.27"/>
</g>
</g>
</svg>
