<?xml version="1.0" encoding="UTF-8" standalone="no"?>
<!DOCTYPE svg PUBLIC "-//W3C//DTD SVG 1.1//EN"
 "http://www.w3.org/Graphics/SVG/1.1/DTD/svg11.dtd">
<!-- Generated by graphviz version 2.43.0 (0)
 -->
<!-- Title: swarm_bot_cpp/src/ASF/mega/utils/preprocessor/preprocessor.h Pages: 1 -->
<svg width="227pt" height="106pt"
 viewBox="0.00 0.00 226.50 106.00" xmlns="http://www.w3.org/2000/svg" xmlns:xlink="http://www.w3.org/1999/xlink">
<g id="graph0" class="graph" transform="scale(1 1) rotate(0) translate(4 102)">
<title>swarm_bot_cpp/src/ASF/mega/utils/preprocessor/preprocessor.h</title>
<polygon fill="white" stroke="transparent" points="-4,4 -4,-102 222.5,-102 222.5,4 -4,4"/>
<!-- Node1 -->
<g id="node1" class="node">
<title>Node1</title>
<g id="a_node1"><a xlink:title="Preprocessor utils.">
<polygon fill="#bfbfbf" stroke="black" points="75.5,-56.5 75.5,-97.5 212.5,-97.5 212.5,-56.5 75.5,-56.5"/>
<text text-anchor="start" x="83.5" y="-85.5" font-family="Helvetica,sans-Serif" font-size="10.00">swarm_bot_cpp/src/ASF</text>
<text text-anchor="start" x="83.5" y="-74.5" font-family="Helvetica,sans-Serif" font-size="10.00">/mega/utils/preprocessor</text>
<text text-anchor="middle" x="144" y="-63.5" font-family="Helvetica,sans-Serif" font-size="10.00">/preprocessor.h</text>
</a>
</g>
</g>
<!-- Node2 -->
<g id="node2" class="node">
<title>Node2</title>
<g id="a_node2"><a xlink:href="tpaste_8h.html" target="_top" xlink:title="Preprocessor token pasting utils.">
<polygon fill="white" stroke="black" points="0,-0.5 0,-19.5 56,-19.5 56,-0.5 0,-0.5"/>
<text text-anchor="middle" x="28" y="-7.5" font-family="Helvetica,sans-Serif" font-size="10.00">tpaste.h</text>
</a>
</g>
</g>
<!-- Node1&#45;&gt;Node2 -->
<g id="edge1" class="edge">
<title>Node1&#45;&gt;Node2</title>
<path fill="none" stroke="midnightblue" d="M109.2,-56.5C90.9,-46.24 68.91,-33.93 52.44,-24.69"/>
<polygon fill="midnightblue" stroke="midnightblue" points="53.88,-21.49 43.44,-19.65 50.45,-27.59 53.88,-21.49"/>
</g>
<!-- Node3 -->
<g id="node3" class="node">
<title>Node3</title>
<g id="a_node3"><a xlink:href="stringz_8h.html" target="_top" xlink:title="Preprocessor stringizing utils.">
<polygon fill="white" stroke="black" points="74.5,-0.5 74.5,-19.5 133.5,-19.5 133.5,-0.5 74.5,-0.5"/>
<text text-anchor="middle" x="104" y="-7.5" font-family="Helvetica,sans-Serif" font-size="10.00">stringz.h</text>
</a>
</g>
</g>
<!-- Node1&#45;&gt;Node3 -->
<g id="edge2" class="edge">
<title>Node1&#45;&gt;Node3</title>
<path fill="none" stroke="midnightblue" d="M132,-56.5C126.46,-47.49 119.93,-36.89 114.58,-28.19"/>
<polygon fill="midnightblue" stroke="midnightblue" points="117.55,-26.33 109.32,-19.65 111.58,-30 117.55,-26.33"/>
</g>
<!-- Node4 -->
<g id="node4" class="node">
<title>Node4</title>
<g id="a_node4"><a xlink:href="mrepeat_8h.html" target="_top" xlink:title="Preprocessor macro repeating utils.">
<polygon fill="white" stroke="black" points="151.5,-0.5 151.5,-19.5 218.5,-19.5 218.5,-0.5 151.5,-0.5"/>
<text text-anchor="middle" x="185" y="-7.5" font-family="Helvetica,sans-Serif" font-size="10.00">mrepeat.h</text>
</a>
</g>
</g>
<!-- Node1&#45;&gt;Node4 -->
<g id="edge3" class="edge">
<title>Node1&#45;&gt;Node4</title>
<path fill="none" stroke="midnightblue" d="M150.06,-56.5C155.11,-47.3 162.05,-36.44 168.53,-27.63"/>
<polygon fill="midnightblue" stroke="midnightblue" points="171.37,-29.68 174.78,-19.65 165.86,-25.37 171.37,-29.68"/>
</g>
<!-- Node4&#45;&gt;Node1 -->
<g id="edge4" class="edge">
<title>Node4&#45;&gt;Node1</title>
<path fill="none" stroke="midnightblue" d="M184.31,-19.65C181.25,-26.96 175.02,-37.85 168.28,-48.12"/>
<polygon fill="midnightblue" stroke="midnightblue" points="165.3,-46.27 162.55,-56.5 171.08,-50.22 165.3,-46.27"/>
</g>
</g>
</svg>
