<?xml version="1.0" encoding="UTF-8" standalone="no"?>
<!DOCTYPE svg PUBLIC "-//W3C//DTD SVG 1.1//EN"
 "http://www.w3.org/Graphics/SVG/1.1/DTD/svg11.dtd">
<!-- Generated by graphviz version 2.43.0 (0)
 -->
<!-- Title: swarm_bot_cpp/src/ASF/mega/utils/progmem.h Pages: 1 -->
<svg width="421pt" height="452pt"
 viewBox="0.00 0.00 420.75 452.00" xmlns="http://www.w3.org/2000/svg" xmlns:xlink="http://www.w3.org/1999/xlink">
<g id="graph0" class="graph" transform="scale(1 1) rotate(0) translate(4 448)">
<title>swarm_bot_cpp/src/ASF/mega/utils/progmem.h</title>
<polygon fill="white" stroke="transparent" points="-4,4 -4,-448 416.75,-448 416.75,4 -4,4"/>
<!-- Node1 -->
<g id="node1" class="node">
<title>Node1</title>
<g id="a_node1"><a xlink:title="Program memory access.">
<polygon fill="#bfbfbf" stroke="black" points="127.75,-413.5 127.75,-443.5 259.75,-443.5 259.75,-413.5 127.75,-413.5"/>
<text text-anchor="start" x="135.75" y="-431.5" font-family="Helvetica,sans-Serif" font-size="10.00">swarm_bot_cpp/src/ASF</text>
<text text-anchor="middle" x="193.75" y="-420.5" font-family="Helvetica,sans-Serif" font-size="10.00">/mega/utils/progmem.h</text>
</a>
</g>
</g>
<!-- Node2 -->
<g id="node2" class="node">
<title>Node2</title>
<g id="a_node2"><a xlink:href="compiler_8h.html" target="_top" xlink:title="Commonly used includes, types and macros.">
<polygon fill="white" stroke="black" points="127.75,-346.5 127.75,-376.5 259.75,-376.5 259.75,-346.5 127.75,-346.5"/>
<text text-anchor="start" x="135.75" y="-364.5" font-family="Helvetica,sans-Serif" font-size="10.00">swarm_bot_cpp/src/ASF</text>
<text text-anchor="middle" x="193.75" y="-353.5" font-family="Helvetica,sans-Serif" font-size="10.00">/mega/utils/compiler.h</text>
</a>
</g>
</g>
<!-- Node1&#45;&gt;Node2 -->
<g id="edge1" class="edge">
<title>Node1&#45;&gt;Node2</title>
<path fill="none" stroke="midnightblue" d="M193.75,-403.11C193.75,-394.15 193.75,-384.32 193.75,-376.58"/>
<polygon fill="midnightblue" stroke="midnightblue" points="190.25,-403.4 193.75,-413.4 197.25,-403.4 190.25,-403.4"/>
</g>
<!-- Node3 -->
<g id="node3" class="node">
<title>Node3</title>
<g id="a_node3"><a xlink:href="board_8h.html" target="_top" xlink:title="Standard board header file.">
<polygon fill="white" stroke="black" points="124.75,-274 124.75,-304 262.75,-304 262.75,-274 124.75,-274"/>
<text text-anchor="start" x="132.75" y="-292" font-family="Helvetica,sans-Serif" font-size="10.00">swarm_bot_cpp/src/ASF</text>
<text text-anchor="middle" x="193.75" y="-281" font-family="Helvetica,sans-Serif" font-size="10.00">/common/boards/board.h</text>
</a>
</g>
</g>
<!-- Node2&#45;&gt;Node3 -->
<g id="edge2" class="edge">
<title>Node2&#45;&gt;Node3</title>
<path fill="none" stroke="midnightblue" d="M193.75,-336.23C193.75,-325.57 193.75,-313.41 193.75,-304.25"/>
<polygon fill="midnightblue" stroke="midnightblue" points="190.25,-336.23 193.75,-346.23 197.25,-336.23 190.25,-336.23"/>
</g>
<!-- Node30 -->
<g id="node8" class="node">
<title>Node30</title>
<g id="a_node8"><a xlink:href="asf_8h.html" target="_top" xlink:title="Autogenerated API include file for the Atmel Software Framework (ASF)">
<polygon fill="white" stroke="black" points="9.25,-212.5 9.25,-231.5 146.25,-231.5 146.25,-212.5 9.25,-212.5"/>
<text text-anchor="middle" x="77.75" y="-219.5" font-family="Helvetica,sans-Serif" font-size="10.00">swarm_bot_cpp/src/asf.h</text>
</a>
</g>
</g>
<!-- Node2&#45;&gt;Node30 -->
<g id="edge16" class="edge">
<title>Node2&#45;&gt;Node30</title>
<path fill="none" stroke="midnightblue" d="M154.81,-341.41C141.11,-333.22 126.46,-322.61 115.75,-310 95.06,-285.63 83.91,-248.23 79.72,-231.55"/>
<polygon fill="midnightblue" stroke="midnightblue" points="153.22,-344.53 163.64,-346.44 156.68,-338.44 153.22,-344.53"/>
</g>
<!-- Node31 -->
<g id="node9" class="node">
<title>Node31</title>
<g id="a_node9"><a xlink:href="interrupt__avr8_8h.html" target="_top" xlink:title="Global interrupt management for 8&#45;bit AVR.">
<polygon fill="white" stroke="black" points="280.75,-268.5 280.75,-309.5 412.75,-309.5 412.75,-268.5 280.75,-268.5"/>
<text text-anchor="start" x="288.75" y="-297.5" font-family="Helvetica,sans-Serif" font-size="10.00">swarm_bot_cpp/src/ASF</text>
<text text-anchor="start" x="288.75" y="-286.5" font-family="Helvetica,sans-Serif" font-size="10.00">/common/utils/interrupt</text>
<text text-anchor="middle" x="346.75" y="-275.5" font-family="Helvetica,sans-Serif" font-size="10.00">/interrupt_avr8.h</text>
</a>
</g>
</g>
<!-- Node2&#45;&gt;Node31 -->
<g id="edge15" class="edge">
<title>Node2&#45;&gt;Node31</title>
<path fill="none" stroke="midnightblue" d="M233.62,-342.13C255.34,-332.12 282.23,-319.73 304.33,-309.55"/>
<polygon fill="midnightblue" stroke="midnightblue" points="231.97,-339.04 224.35,-346.4 234.9,-345.4 231.97,-339.04"/>
</g>
<!-- Node4 -->
<g id="node4" class="node">
<title>Node4</title>
<g id="a_node4"><a xlink:href="init_8c.html" target="_top" xlink:title="User board initialization template.">
<polygon fill="white" stroke="black" points="67.25,-0.5 67.25,-41.5 222.25,-41.5 222.25,-0.5 67.25,-0.5"/>
<text text-anchor="start" x="75.25" y="-29.5" font-family="Helvetica,sans-Serif" font-size="10.00">swarm_bot_cpp/src/ASF</text>
<text text-anchor="start" x="75.25" y="-18.5" font-family="Helvetica,sans-Serif" font-size="10.00">/common/boards/user_board</text>
<text text-anchor="middle" x="144.75" y="-7.5" font-family="Helvetica,sans-Serif" font-size="10.00">/init.c</text>
</a>
</g>
</g>
<!-- Node3&#45;&gt;Node4 -->
<g id="edge3" class="edge">
<title>Node3&#45;&gt;Node4</title>
<path fill="none" stroke="midnightblue" d="M233.91,-268.9C249.55,-259.69 266.4,-247.29 277.75,-232 301.24,-200.37 311.61,-180.61 294.75,-145 272.14,-97.21 220.85,-61.77 184.56,-41.51"/>
<polygon fill="midnightblue" stroke="midnightblue" points="231.91,-266.01 224.9,-273.95 235.33,-272.12 231.91,-266.01"/>
</g>
<!-- Node5 -->
<g id="node5" class="node">
<title>Node5</title>
<g id="a_node5"><a xlink:href=".html" target="_top" xlink:title=" ">
<polygon fill="white" stroke="black" points="154.25,-145.5 154.25,-175.5 267.25,-175.5 267.25,-145.5 154.25,-145.5"/>
<text text-anchor="start" x="162.25" y="-163.5" font-family="Helvetica,sans-Serif" font-size="10.00">swarm_bot_cpp/src/</text>
<text text-anchor="middle" x="210.75" y="-152.5" font-family="Helvetica,sans-Serif" font-size="10.00">__pin_map.h</text>
</a>
</g>
</g>
<!-- Node3&#45;&gt;Node5 -->
<g id="edge4" class="edge">
<title>Node3&#45;&gt;Node5</title>
<path fill="none" stroke="midnightblue" d="M197.01,-263.77C200.52,-237.63 206,-196.9 208.86,-175.58"/>
<polygon fill="midnightblue" stroke="midnightblue" points="193.5,-263.6 195.64,-273.98 200.44,-264.53 193.5,-263.6"/>
</g>
<!-- Node6 -->
<g id="node6" class="node">
<title>Node6</title>
<g id="a_node6"><a xlink:href="____swarm__wold_____8h.html" target="_top" xlink:title="Header file for dummy purposes.">
<polygon fill="white" stroke="red" points="88.25,-78.5 88.25,-108.5 201.25,-108.5 201.25,-78.5 88.25,-78.5"/>
<text text-anchor="start" x="96.25" y="-96.5" font-family="Helvetica,sans-Serif" font-size="10.00">swarm_bot_cpp/src/</text>
<text text-anchor="middle" x="144.75" y="-85.5" font-family="Helvetica,sans-Serif" font-size="10.00">__swarm_wold__.h</text>
</a>
</g>
</g>
<!-- Node3&#45;&gt;Node6 -->
<g id="edge7" class="edge">
<title>Node3&#45;&gt;Node6</title>
<path fill="none" stroke="midnightblue" d="M220.65,-267.65C254.69,-239.36 305.6,-186.92 276.75,-145 259.79,-120.34 229.01,-107.71 201.44,-101.25"/>
<polygon fill="midnightblue" stroke="midnightblue" points="218.41,-264.95 212.84,-273.97 222.82,-270.4 218.41,-264.95"/>
</g>
<!-- Node28 -->
<g id="node7" class="node">
<title>Node28</title>
<g id="a_node7"><a xlink:href="____usart_____8h.html" target="_top" xlink:title="Header file for pid.c.">
<polygon fill="white" stroke="red" points="23.25,-145.5 23.25,-175.5 136.25,-175.5 136.25,-145.5 23.25,-145.5"/>
<text text-anchor="start" x="31.25" y="-163.5" font-family="Helvetica,sans-Serif" font-size="10.00">swarm_bot_cpp/src/</text>
<text text-anchor="middle" x="79.75" y="-152.5" font-family="Helvetica,sans-Serif" font-size="10.00">__usart__.h</text>
</a>
</g>
</g>
<!-- Node3&#45;&gt;Node28 -->
<g id="edge8" class="edge">
<title>Node3&#45;&gt;Node28</title>
<path fill="none" stroke="midnightblue" d="M185.17,-264.13C178.59,-248.14 168.33,-227.28 154.75,-212 141.52,-197.09 122.96,-184.55 107.61,-175.69"/>
<polygon fill="midnightblue" stroke="midnightblue" points="182.06,-265.8 188.96,-273.84 188.58,-263.25 182.06,-265.8"/>
</g>
<!-- Node3&#45;&gt;Node30 -->
<g id="edge10" class="edge">
<title>Node3&#45;&gt;Node30</title>
<path fill="none" stroke="midnightblue" d="M159.8,-268.97C137.65,-256.56 109.83,-240.97 92.94,-231.51"/>
<polygon fill="midnightblue" stroke="midnightblue" points="158.15,-272.06 168.58,-273.9 161.57,-265.95 158.15,-272.06"/>
</g>
<!-- Node5&#45;&gt;Node6 -->
<g id="edge5" class="edge">
<title>Node5&#45;&gt;Node6</title>
<path fill="none" stroke="midnightblue" d="M189.24,-138.31C179.34,-128.56 167.86,-117.26 159.05,-108.58"/>
<polygon fill="midnightblue" stroke="midnightblue" points="186.85,-140.87 196.43,-145.4 191.76,-135.89 186.85,-140.87"/>
</g>
<!-- Node6&#45;&gt;Node4 -->
<g id="edge6" class="edge">
<title>Node6&#45;&gt;Node4</title>
<path fill="none" stroke="midnightblue" d="M144.75,-67.98C144.75,-59.35 144.75,-49.76 144.75,-41.59"/>
<polygon fill="midnightblue" stroke="midnightblue" points="141.25,-68.23 144.75,-78.23 148.25,-68.23 141.25,-68.23"/>
</g>
<!-- Node28&#45;&gt;Node6 -->
<g id="edge9" class="edge">
<title>Node28&#45;&gt;Node6</title>
<path fill="none" stroke="midnightblue" d="M100.94,-138.31C110.69,-128.56 122,-117.26 130.68,-108.58"/>
<polygon fill="midnightblue" stroke="midnightblue" points="98.46,-135.85 93.86,-145.4 103.4,-140.8 98.46,-135.85"/>
</g>
<!-- Node30&#45;&gt;Node4 -->
<g id="edge11" class="edge">
<title>Node30&#45;&gt;Node4</title>
<path fill="none" stroke="midnightblue" d="M42.31,-208.2C27.97,-201.06 12.91,-190.61 4.75,-176 -1.96,-163.97 -0.83,-157.59 4.75,-145 25.55,-98.12 74.26,-62.14 108.35,-41.54"/>
<polygon fill="midnightblue" stroke="midnightblue" points="40.99,-211.44 51.54,-212.41 43.9,-205.08 40.99,-211.44"/>
</g>
<!-- Node30&#45;&gt;Node5 -->
<g id="edge12" class="edge">
<title>Node30&#45;&gt;Node5</title>
<path fill="none" stroke="midnightblue" d="M106.07,-208.33C127.59,-198.7 157.18,-185.47 179.41,-175.52"/>
<polygon fill="midnightblue" stroke="midnightblue" points="104.51,-205.2 96.81,-212.48 107.37,-211.59 104.51,-205.2"/>
</g>
<!-- Node30&#45;&gt;Node6 -->
<g id="edge13" class="edge">
<title>Node30&#45;&gt;Node6</title>
<path fill="none" stroke="midnightblue" d="M47.2,-207.56C34.43,-200.22 20.91,-189.77 13.75,-176 7.4,-163.77 5.96,-156.36 13.75,-145 30.51,-120.58 60.87,-107.97 88.15,-101.45"/>
<polygon fill="midnightblue" stroke="midnightblue" points="45.8,-210.77 56.27,-212.36 49.07,-204.59 45.8,-210.77"/>
</g>
<!-- Node30&#45;&gt;Node28 -->
<g id="edge14" class="edge">
<title>Node30&#45;&gt;Node28</title>
<path fill="none" stroke="midnightblue" d="M78.39,-202.23C78.68,-193.59 79.02,-183.5 79.28,-175.52"/>
<polygon fill="midnightblue" stroke="midnightblue" points="74.88,-202.36 78.04,-212.48 81.88,-202.6 74.88,-202.36"/>
</g>
</g>
</svg>
