<?xml version="1.0" encoding="UTF-8" standalone="no"?>
<!DOCTYPE svg PUBLIC "-//W3C//DTD SVG 1.1//EN"
 "http://www.w3.org/Graphics/SVG/1.1/DTD/svg11.dtd">
<!-- Generated by graphviz version 2.43.0 (0)
 -->
<!-- Title: swarm_bot_cpp/src/ASF/mega/utils/status_codes.h Pages: 1 -->
<svg width="335pt" height="307pt"
 viewBox="0.00 0.00 335.00 307.00" xmlns="http://www.w3.org/2000/svg" xmlns:xlink="http://www.w3.org/1999/xlink">
<g id="graph0" class="graph" transform="scale(1 1) rotate(0) translate(4 303)">
<title>swarm_bot_cpp/src/ASF/mega/utils/status_codes.h</title>
<polygon fill="white" stroke="transparent" points="-4,4 -4,-303 331,-303 331,4 -4,4"/>
<!-- Node1 -->
<g id="node1" class="node">
<title>Node1</title>
<g id="a_node1"><a xlink:title="Status code definitions.">
<polygon fill="#bfbfbf" stroke="black" points="69,-268.5 69,-298.5 216,-298.5 216,-268.5 69,-268.5"/>
<text text-anchor="start" x="77" y="-286.5" font-family="Helvetica,sans-Serif" font-size="10.00">swarm_bot_cpp/src/ASF</text>
<text text-anchor="middle" x="142.5" y="-275.5" font-family="Helvetica,sans-Serif" font-size="10.00">/mega/utils/status_codes.h</text>
</a>
</g>
</g>
<!-- Node2 -->
<g id="node2" class="node">
<title>Node2</title>
<g id="a_node2"><a xlink:href="asf_8h.html" target="_top" xlink:title="Autogenerated API include file for the Atmel Software Framework (ASF)">
<polygon fill="white" stroke="black" points="74,-212.5 74,-231.5 211,-231.5 211,-212.5 74,-212.5"/>
<text text-anchor="middle" x="142.5" y="-219.5" font-family="Helvetica,sans-Serif" font-size="10.00">swarm_bot_cpp/src/asf.h</text>
</a>
</g>
</g>
<!-- Node1&#45;&gt;Node2 -->
<g id="edge1" class="edge">
<title>Node1&#45;&gt;Node2</title>
<path fill="none" stroke="midnightblue" d="M142.5,-258.29C142.5,-248.86 142.5,-238.65 142.5,-231.66"/>
<polygon fill="midnightblue" stroke="midnightblue" points="139,-258.4 142.5,-268.4 146,-258.4 139,-258.4"/>
</g>
<!-- Node3 -->
<g id="node3" class="node">
<title>Node3</title>
<g id="a_node3"><a xlink:href="init_8c.html" target="_top" xlink:title="User board initialization template.">
<polygon fill="white" stroke="black" points="0,-0.5 0,-41.5 155,-41.5 155,-0.5 0,-0.5"/>
<text text-anchor="start" x="8" y="-29.5" font-family="Helvetica,sans-Serif" font-size="10.00">swarm_bot_cpp/src/ASF</text>
<text text-anchor="start" x="8" y="-18.5" font-family="Helvetica,sans-Serif" font-size="10.00">/common/boards/user_board</text>
<text text-anchor="middle" x="77.5" y="-7.5" font-family="Helvetica,sans-Serif" font-size="10.00">/init.c</text>
</a>
</g>
</g>
<!-- Node2&#45;&gt;Node3 -->
<g id="edge2" class="edge">
<title>Node2&#45;&gt;Node3</title>
<path fill="none" stroke="midnightblue" d="M81.23,-209.21C63.13,-202.56 45.29,-192.19 34.5,-176 6.17,-133.5 40.78,-72.54 62.49,-41.61"/>
<polygon fill="midnightblue" stroke="midnightblue" points="80.38,-212.61 90.97,-212.44 82.58,-205.97 80.38,-212.61"/>
</g>
<!-- Node4 -->
<g id="node4" class="node">
<title>Node4</title>
<g id="a_node4"><a xlink:href=".html" target="_top" xlink:title=" ">
<polygon fill="white" stroke="black" points="44,-145.5 44,-175.5 157,-175.5 157,-145.5 44,-145.5"/>
<text text-anchor="start" x="52" y="-163.5" font-family="Helvetica,sans-Serif" font-size="10.00">swarm_bot_cpp/src/</text>
<text text-anchor="middle" x="100.5" y="-152.5" font-family="Helvetica,sans-Serif" font-size="10.00">__pin_map.h</text>
</a>
</g>
</g>
<!-- Node2&#45;&gt;Node4 -->
<g id="edge3" class="edge">
<title>Node2&#45;&gt;Node4</title>
<path fill="none" stroke="midnightblue" d="M130.67,-204.25C124.28,-195.19 116.47,-184.12 110.4,-175.52"/>
<polygon fill="midnightblue" stroke="midnightblue" points="127.86,-206.32 136.48,-212.48 133.57,-202.29 127.86,-206.32"/>
</g>
<!-- Node5 -->
<g id="node5" class="node">
<title>Node5</title>
<g id="a_node5"><a xlink:href="____swarm__wold_____8h.html" target="_top" xlink:title="Header file for dummy purposes.">
<polygon fill="white" stroke="red" points="64,-78.5 64,-108.5 177,-108.5 177,-78.5 64,-78.5"/>
<text text-anchor="start" x="72" y="-96.5" font-family="Helvetica,sans-Serif" font-size="10.00">swarm_bot_cpp/src/</text>
<text text-anchor="middle" x="120.5" y="-85.5" font-family="Helvetica,sans-Serif" font-size="10.00">__swarm_wold__.h</text>
</a>
</g>
</g>
<!-- Node2&#45;&gt;Node5 -->
<g id="edge6" class="edge">
<title>Node2&#45;&gt;Node5</title>
<path fill="none" stroke="midnightblue" d="M154.55,-203.89C163.94,-188.35 174.2,-164.88 166.5,-145 160.93,-130.62 149.16,-117.82 138.92,-108.71"/>
<polygon fill="midnightblue" stroke="midnightblue" points="151.51,-202.15 148.99,-212.44 157.37,-205.97 151.51,-202.15"/>
</g>
<!-- Node27 -->
<g id="node6" class="node">
<title>Node27</title>
<g id="a_node6"><a xlink:href="____usart_____8h.html" target="_top" xlink:title="Header file for pid.c.">
<polygon fill="white" stroke="black" points="214,-145.5 214,-175.5 327,-175.5 327,-145.5 214,-145.5"/>
<text text-anchor="start" x="222" y="-163.5" font-family="Helvetica,sans-Serif" font-size="10.00">swarm_bot_cpp/src/</text>
<text text-anchor="middle" x="270.5" y="-152.5" font-family="Helvetica,sans-Serif" font-size="10.00">__usart__.h</text>
</a>
</g>
</g>
<!-- Node2&#45;&gt;Node27 -->
<g id="edge7" class="edge">
<title>Node2&#45;&gt;Node27</title>
<path fill="none" stroke="midnightblue" d="M170.04,-208.2C190.72,-198.58 219.04,-185.42 240.33,-175.52"/>
<polygon fill="midnightblue" stroke="midnightblue" points="168.43,-205.09 160.84,-212.48 171.38,-211.43 168.43,-205.09"/>
</g>
<!-- Node4&#45;&gt;Node5 -->
<g id="edge4" class="edge">
<title>Node4&#45;&gt;Node5</title>
<path fill="none" stroke="midnightblue" d="M107.82,-135.7C110.63,-126.59 113.73,-116.49 116.17,-108.58"/>
<polygon fill="midnightblue" stroke="midnightblue" points="104.44,-134.81 104.84,-145.4 111.13,-136.87 104.44,-134.81"/>
</g>
<!-- Node5&#45;&gt;Node3 -->
<g id="edge5" class="edge">
<title>Node5&#45;&gt;Node3</title>
<path fill="none" stroke="midnightblue" d="M106.59,-69.7C101.06,-60.63 94.77,-50.31 89.45,-41.59"/>
<polygon fill="midnightblue" stroke="midnightblue" points="103.6,-71.52 111.8,-78.23 109.58,-67.87 103.6,-71.52"/>
</g>
<!-- Node27&#45;&gt;Node5 -->
<g id="edge8" class="edge">
<title>Node27&#45;&gt;Node5</title>
<path fill="none" stroke="midnightblue" d="M228.75,-141.41C204.8,-131.03 175.18,-118.2 152.98,-108.58"/>
<polygon fill="midnightblue" stroke="midnightblue" points="227.39,-144.63 237.95,-145.4 230.17,-138.21 227.39,-144.63"/>
</g>
<!-- Node28 -->
<g id="node7" class="node">
<title>Node28</title>
<g id="a_node7"><a xlink:href=".html" target="_top" xlink:title=" ">
<polygon fill="white" stroke="black" points="214,-78.5 214,-108.5 327,-108.5 327,-78.5 214,-78.5"/>
<text text-anchor="start" x="222" y="-96.5" font-family="Helvetica,sans-Serif" font-size="10.00">swarm_bot_cpp/src/</text>
<text text-anchor="middle" x="270.5" y="-85.5" font-family="Helvetica,sans-Serif" font-size="10.00">__usart__.c</text>
</a>
</g>
</g>
<!-- Node27&#45;&gt;Node28 -->
<g id="edge9" class="edge">
<title>Node27&#45;&gt;Node28</title>
<path fill="none" stroke="midnightblue" d="M270.5,-135.11C270.5,-126.15 270.5,-116.32 270.5,-108.58"/>
<polygon fill="midnightblue" stroke="midnightblue" points="267,-135.4 270.5,-145.4 274,-135.4 267,-135.4"/>
</g>
</g>
</svg>
