<?xml version="1.0" encoding="UTF-8" standalone="no"?>
<!DOCTYPE svg PUBLIC "-//W3C//DTD SVG 1.1//EN"
 "http://www.w3.org/Graphics/SVG/1.1/DTD/svg11.dtd">
<!-- Generated by graphviz version 8.0.1 (20230327.1645)
 -->
<!-- Title: swarm_bot_cpp/src/__swarm_wold__.h Pages: 1 -->
<svg width="1528pt" height="181pt"
 viewBox="0.00 0.00 1528.00 181.00" xmlns="http://www.w3.org/2000/svg" xmlns:xlink="http://www.w3.org/1999/xlink">
<g id="graph0" class="graph" transform="scale(1 1) rotate(0) translate(4 177)">
<title>swarm_bot_cpp/src/__swarm_wold__.h</title>
<!-- Node1 -->
<g id="node1" class="node">
<title>Node1</title>
<g id="a_node1"><a xlink:title="Header file for dummy purposes.">
<polygon fill="#999999" stroke="#666666" points="849,-173 745,-173 745,-143 849,-143 849,-173"/>
<text text-anchor="start" x="753" y="-161" font-family="Helvetica,sans-Serif" font-size="10.00">swarm_bot_cpp/src/</text>
<text text-anchor="middle" x="797" y="-150" font-family="Helvetica,sans-Serif" font-size="10.00">__swarm_wold__.h</text>
</a>
</g>
</g>
<!-- Node2 -->
<g id="node2" class="node">
<title>Node2</title>
<g id="a_node2"><a xlink:href="init_8c.html" target="_top" xlink:title="User board initialization template.">
<polygon fill="white" stroke="#666666" points="140,-107 0,-107 0,-66 140,-66 140,-107"/>
<text text-anchor="start" x="8" y="-95" font-family="Helvetica,sans-Serif" font-size="10.00">swarm_bot_cpp/src/ASF</text>
<text text-anchor="start" x="8" y="-84" font-family="Helvetica,sans-Serif" font-size="10.00">/common/boards/user_board</text>
<text text-anchor="middle" x="70" y="-73" font-family="Helvetica,sans-Serif" font-size="10.00">/init.c</text>
</a>
</g>
</g>
<!-- Node1&#45;&gt;Node2 -->
<g id="edge1" class="edge">
<title>Node1&#45;&gt;Node2</title>
<path fill="none" stroke="#63b8ff" d="M733.75,-155.58C617.35,-152.2 361.6,-141.2 149,-107 146.07,-106.53 143.09,-106 140.09,-105.44"/>
<polygon fill="#63b8ff" stroke="#63b8ff" points="733.48,-159.1 743.58,-155.88 733.68,-152.1 733.48,-159.1"/>
</g>
<!-- Node3 -->
<g id="node3" class="node">
<title>Node3</title>
<g id="a_node3"><a xlink:href="_____i_n_t__0__1_____8h.html" target="_top" xlink:title="Header file for INT_0_1.c.">
<polygon fill="white" stroke="#666666" points="262,-101.5 158,-101.5 158,-71.5 262,-71.5 262,-101.5"/>
<text text-anchor="start" x="166" y="-89.5" font-family="Helvetica,sans-Serif" font-size="10.00">swarm_bot_cpp/src/</text>
<text text-anchor="middle" x="210" y="-78.5" font-family="Helvetica,sans-Serif" font-size="10.00">__INT_0_1__.h</text>
</a>
</g>
</g>
<!-- Node1&#45;&gt;Node3 -->
<g id="edge2" class="edge">
<title>Node1&#45;&gt;Node3</title>
<path fill="none" stroke="#63b8ff" d="M733.69,-155.55C632.71,-152.21 429.82,-141.38 262,-107 255.46,-105.66 248.64,-103.88 242.14,-101.93"/>
<polygon fill="#63b8ff" stroke="#63b8ff" points="733.5,-159.08 743.61,-155.9 733.72,-152.08 733.5,-159.08"/>
</g>
<!-- Node5 -->
<g id="node5" class="node">
<title>Node5</title>
<g id="a_node5"><a xlink:href="____adc_____8h.html" target="_top" xlink:title="Header file for adc.c.">
<polygon fill="white" stroke="#666666" points="1154,-101.5 1050,-101.5 1050,-71.5 1154,-71.5 1154,-101.5"/>
<text text-anchor="start" x="1058" y="-89.5" font-family="Helvetica,sans-Serif" font-size="10.00">swarm_bot_cpp/src/</text>
<text text-anchor="middle" x="1102" y="-78.5" font-family="Helvetica,sans-Serif" font-size="10.00">__adc__.h</text>
</a>
</g>
</g>
<!-- Node1&#45;&gt;Node5 -->
<g id="edge5" class="edge">
<title>Node1&#45;&gt;Node5</title>
<path fill="none" stroke="#63b8ff" d="M860.1,-144.59C907.65,-135.49 974.17,-122.12 1032,-107 1037.81,-105.48 1043.88,-103.74 1049.93,-101.93"/>
<polygon fill="#63b8ff" stroke="#63b8ff" points="859.52,-141.33 850.35,-146.64 860.83,-148.21 859.52,-141.33"/>
</g>
<!-- Node8 -->
<g id="node8" class="node">
<title>Node8</title>
<g id="a_node8"><a xlink:href="____dc__control_____8h.html" target="_top" xlink:title="Header file for dc_control.c.">
<polygon fill="white" stroke="#666666" points="384,-101.5 280,-101.5 280,-71.5 384,-71.5 384,-101.5"/>
<text text-anchor="start" x="288" y="-89.5" font-family="Helvetica,sans-Serif" font-size="10.00">swarm_bot_cpp/src/</text>
<text text-anchor="middle" x="332" y="-78.5" font-family="Helvetica,sans-Serif" font-size="10.00">__dc_control__.h</text>
</a>
</g>
</g>
<!-- Node1&#45;&gt;Node8 -->
<g id="edge10" class="edge">
<title>Node1&#45;&gt;Node8</title>
<path fill="none" stroke="#63b8ff" d="M733.69,-153.29C651.93,-147.41 505.92,-133.79 384,-107 377.7,-105.62 371.13,-103.86 364.83,-101.97"/>
<polygon fill="#63b8ff" stroke="#63b8ff" points="733.33,-156.84 743.55,-154.05 733.82,-149.86 733.33,-156.84"/>
</g>
<!-- Node10 -->
<g id="node10" class="node">
<title>Node10</title>
<g id="a_node10"><a xlink:href="____format_____8h.html" target="_top" xlink:title="Header file for format.c.">
<polygon fill="white" stroke="#666666" points="506,-101.5 402,-101.5 402,-71.5 506,-71.5 506,-101.5"/>
<text text-anchor="start" x="410" y="-89.5" font-family="Helvetica,sans-Serif" font-size="10.00">swarm_bot_cpp/src/</text>
<text text-anchor="middle" x="454" y="-78.5" font-family="Helvetica,sans-Serif" font-size="10.00">__format__.h</text>
</a>
</g>
</g>
<!-- Node1&#45;&gt;Node10 -->
<g id="edge13" class="edge">
<title>Node1&#45;&gt;Node10</title>
<path fill="none" stroke="#63b8ff" d="M733.86,-149.28C674.39,-140.91 583.36,-126.13 506,-107 500.06,-105.53 493.86,-103.79 487.87,-101.97"/>
<polygon fill="#63b8ff" stroke="#63b8ff" points="733.2,-152.86 743.58,-150.77 734.16,-145.93 733.2,-152.86"/>
</g>
<!-- Node12 -->
<g id="node12" class="node">
<title>Node12</title>
<g id="a_node12"><a xlink:href="____kinematics_____8h.html" target="_top" xlink:title="Header file for kimenatics.c.">
<polygon fill="white" stroke="#666666" points="628,-101.5 524,-101.5 524,-71.5 628,-71.5 628,-101.5"/>
<text text-anchor="start" x="532" y="-89.5" font-family="Helvetica,sans-Serif" font-size="10.00">swarm_bot_cpp/src/</text>
<text text-anchor="middle" x="576" y="-78.5" font-family="Helvetica,sans-Serif" font-size="10.00">__kinematics__.h</text>
</a>
</g>
</g>
<!-- Node1&#45;&gt;Node12 -->
<g id="edge16" class="edge">
<title>Node1&#45;&gt;Node12</title>
<path fill="none" stroke="#63b8ff" d="M740.87,-139.35C704.07,-127.77 656.56,-112.83 622,-101.97"/>
<polygon fill="#63b8ff" stroke="#63b8ff" points="739.35,-142.85 749.94,-142.52 741.45,-136.18 739.35,-142.85"/>
</g>
<!-- Node14 -->
<g id="node14" class="node">
<title>Node14</title>
<g id="a_node14"><a xlink:href=".html" target="_top" xlink:title=" ">
<polygon fill="white" stroke="#666666" points="666,-24.5 532,-24.5 532,-5.5 666,-5.5 666,-24.5"/>
<text text-anchor="middle" x="599" y="-12.5" font-family="Helvetica,sans-Serif" font-size="10.00">swarm_bot_cpp/src/main.c</text>
</a>
</g>
</g>
<!-- Node1&#45;&gt;Node14 -->
<g id="edge35" class="edge">
<title>Node1&#45;&gt;Node14</title>
<path fill="none" stroke="#63b8ff" d="M736.4,-138.81C715.78,-130.95 693.33,-120.42 675,-107 658.23,-94.72 620.6,-45.16 605.48,-24.8"/>
<polygon fill="#63b8ff" stroke="#63b8ff" points="735.08,-142.42 745.67,-142.57 737.48,-135.84 735.08,-142.42"/>
</g>
<!-- Node15 -->
<g id="node15" class="node">
<title>Node15</title>
<g id="a_node15"><a xlink:href="____odometry_____8h.html" target="_top" xlink:title="Header file for odometry.c.">
<polygon fill="white" stroke="#666666" points="788,-101.5 684,-101.5 684,-71.5 788,-71.5 788,-101.5"/>
<text text-anchor="start" x="692" y="-89.5" font-family="Helvetica,sans-Serif" font-size="10.00">swarm_bot_cpp/src/</text>
<text text-anchor="middle" x="736" y="-78.5" font-family="Helvetica,sans-Serif" font-size="10.00">__odometry__.h</text>
</a>
</g>
</g>
<!-- Node1&#45;&gt;Node15 -->
<g id="edge19" class="edge">
<title>Node1&#45;&gt;Node15</title>
<path fill="none" stroke="#63b8ff" d="M771.17,-134.8C760.98,-124.02 750.14,-111.38 743.03,-101.88"/>
<polygon fill="#63b8ff" stroke="#63b8ff" points="768.28,-136.88 777.77,-141.6 773.3,-131.99 768.28,-136.88"/>
</g>
<!-- Node17 -->
<g id="node17" class="node">
<title>Node17</title>
<g id="a_node17"><a xlink:href="____pwm_____8h.html" target="_top" xlink:title="Header file for pwm.c.">
<polygon fill="white" stroke="#666666" points="910,-101.5 806,-101.5 806,-71.5 910,-71.5 910,-101.5"/>
<text text-anchor="start" x="814" y="-89.5" font-family="Helvetica,sans-Serif" font-size="10.00">swarm_bot_cpp/src/</text>
<text text-anchor="middle" x="858" y="-78.5" font-family="Helvetica,sans-Serif" font-size="10.00">__pwm__.h</text>
</a>
</g>
</g>
<!-- Node1&#45;&gt;Node17 -->
<g id="edge22" class="edge">
<title>Node1&#45;&gt;Node17</title>
<path fill="none" stroke="#63b8ff" d="M810.66,-134.17C819.32,-123.53 830.4,-111.2 839.79,-101.88"/>
<polygon fill="#63b8ff" stroke="#63b8ff" points="807.46,-131.57 804.05,-141.6 812.97,-135.89 807.46,-131.57"/>
</g>
<!-- Node19 -->
<g id="node19" class="node">
<title>Node19</title>
<g id="a_node19"><a xlink:href="____timer0_____8h.html" target="_top" xlink:title="Header file for timer0.c.">
<polygon fill="white" stroke="#666666" points="1032,-101.5 928,-101.5 928,-71.5 1032,-71.5 1032,-101.5"/>
<text text-anchor="start" x="936" y="-89.5" font-family="Helvetica,sans-Serif" font-size="10.00">swarm_bot_cpp/src/</text>
<text text-anchor="middle" x="980" y="-78.5" font-family="Helvetica,sans-Serif" font-size="10.00">__timer0__.h</text>
</a>
</g>
</g>
<!-- Node1&#45;&gt;Node19 -->
<g id="edge25" class="edge">
<title>Node1&#45;&gt;Node19</title>
<path fill="none" stroke="#63b8ff" d="M839.23,-138.67C868.43,-127.17 907.08,-112.55 936.54,-101.88"/>
<polygon fill="#63b8ff" stroke="#63b8ff" points="838.33,-135.66 830.32,-142.6 840.91,-142.17 838.33,-135.66"/>
</g>
<!-- Node21 -->
<g id="node21" class="node">
<title>Node21</title>
<g id="a_node21"><a xlink:href="____timer1_____8h.html" target="_top" xlink:title="Header file for timer1.c.">
<polygon fill="white" stroke="#666666" points="1314,-101.5 1210,-101.5 1210,-71.5 1314,-71.5 1314,-101.5"/>
<text text-anchor="start" x="1218" y="-89.5" font-family="Helvetica,sans-Serif" font-size="10.00">swarm_bot_cpp/src/</text>
<text text-anchor="middle" x="1262" y="-78.5" font-family="Helvetica,sans-Serif" font-size="10.00">__timer1__.h</text>
</a>
</g>
</g>
<!-- Node1&#45;&gt;Node21 -->
<g id="edge28" class="edge">
<title>Node1&#45;&gt;Node21</title>
<path fill="none" stroke="#63b8ff" d="M859.74,-151.76C937.24,-144.92 1072.62,-130.9 1187,-107 1194.37,-105.46 1202.11,-103.5 1209.72,-101.41"/>
<polygon fill="#63b8ff" stroke="#63b8ff" points="859.85,-148.33 850.19,-152.68 860.46,-155.3 859.85,-148.33"/>
</g>
<!-- Node23 -->
<g id="node23" class="node">
<title>Node23</title>
<g id="a_node23"><a xlink:href="____timer2_____8h.html" target="_top" xlink:title="Header file for timer2.c.">
<polygon fill="white" stroke="#666666" points="1436,-101.5 1332,-101.5 1332,-71.5 1436,-71.5 1436,-101.5"/>
<text text-anchor="start" x="1340" y="-89.5" font-family="Helvetica,sans-Serif" font-size="10.00">swarm_bot_cpp/src/</text>
<text text-anchor="middle" x="1384" y="-78.5" font-family="Helvetica,sans-Serif" font-size="10.00">__timer2__.h</text>
</a>
</g>
</g>
<!-- Node1&#45;&gt;Node23 -->
<g id="edge32" class="edge">
<title>Node1&#45;&gt;Node23</title>
<path fill="none" stroke="#63b8ff" d="M860.21,-155.15C958.3,-151.37 1152.41,-140.11 1314,-107 1320.54,-105.66 1327.36,-103.88 1334.09,-101.93"/>
<polygon fill="#63b8ff" stroke="#63b8ff" points="860.16,-151.68 850.3,-155.55 860.42,-158.68 860.16,-151.68"/>
</g>
<!-- Node3&#45;&gt;Node1 -->
<g id="edge4" class="edge">
<title>Node3&#45;&gt;Node1</title>
<path fill="none" stroke="#63b8ff" d="M270.34,-104.77C273.6,-105.6 276.83,-106.35 280,-107 447.82,-141.38 650.71,-152.21 744.7,-155.55"/>
<polygon fill="#63b8ff" stroke="#63b8ff" points="271.48,-101.18 260.91,-101.93 269.64,-107.94 271.48,-101.18"/>
</g>
<!-- Node4 -->
<g id="node4" class="node">
<title>Node4</title>
<g id="a_node4"><a xlink:href=".html" target="_top" xlink:title=" ">
<polygon fill="white" stroke="#666666" points="148,-30 44,-30 44,0 148,0 148,-30"/>
<text text-anchor="start" x="52" y="-18" font-family="Helvetica,sans-Serif" font-size="10.00">swarm_bot_cpp/src/</text>
<text text-anchor="middle" x="96" y="-7" font-family="Helvetica,sans-Serif" font-size="10.00">__INT_0_1__.c</text>
</a>
</g>
</g>
<!-- Node3&#45;&gt;Node4 -->
<g id="edge3" class="edge">
<title>Node3&#45;&gt;Node4</title>
<path fill="none" stroke="#63b8ff" d="M177.18,-65.49C158.78,-54.27 136.24,-40.54 119.59,-30.38"/>
<polygon fill="#63b8ff" stroke="#63b8ff" points="175.02,-68.88 185.38,-71.1 178.66,-62.91 175.02,-68.88"/>
</g>
<!-- Node5&#45;&gt;Node1 -->
<g id="edge9" class="edge">
<title>Node5&#45;&gt;Node1</title>
<path fill="none" stroke="#63b8ff" d="M1057.46,-104.97C1054.95,-105.68 1052.45,-106.36 1050,-107 981.6,-124.89 901.04,-140.32 849.41,-149.14"/>
<polygon fill="#63b8ff" stroke="#63b8ff" points="1058.16,-108.11 1066.76,-101.93 1056.18,-101.4 1058.16,-108.11"/>
</g>
<!-- Node6 -->
<g id="node6" class="node">
<title>Node6</title>
<g id="a_node6"><a xlink:href=".html" target="_top" xlink:title=" ">
<polygon fill="white" stroke="#666666" points="1154,-30 1050,-30 1050,0 1154,0 1154,-30"/>
<text text-anchor="start" x="1058" y="-18" font-family="Helvetica,sans-Serif" font-size="10.00">swarm_bot_cpp/src/</text>
<text text-anchor="middle" x="1102" y="-7" font-family="Helvetica,sans-Serif" font-size="10.00">__adc__.c</text>
</a>
</g>
</g>
<!-- Node5&#45;&gt;Node6 -->
<g id="edge6" class="edge">
<title>Node5&#45;&gt;Node6</title>
<path fill="none" stroke="#63b8ff" d="M1102,-60.41C1102,-50.32 1102,-39.04 1102,-30.38"/>
<polygon fill="#63b8ff" stroke="#63b8ff" points="1098.5,-60.1 1102,-70.1 1105.5,-60.1 1098.5,-60.1"/>
</g>
<!-- Node7 -->
<g id="node7" class="node">
<title>Node7</title>
<g id="a_node7"><a xlink:href=".html" target="_top" xlink:title=" ">
<polygon fill="white" stroke="#666666" points="1276,-30 1172,-30 1172,0 1276,0 1276,-30"/>
<text text-anchor="start" x="1180" y="-18" font-family="Helvetica,sans-Serif" font-size="10.00">swarm_bot_cpp/src/</text>
<text text-anchor="middle" x="1224" y="-7" font-family="Helvetica,sans-Serif" font-size="10.00">__pin_map.h</text>
</a>
</g>
</g>
<!-- Node5&#45;&gt;Node7 -->
<g id="edge7" class="edge">
<title>Node5&#45;&gt;Node7</title>
<path fill="none" stroke="#63b8ff" d="M1136.58,-65.8C1156.37,-54.53 1180.77,-40.63 1198.75,-30.38"/>
<polygon fill="#63b8ff" stroke="#63b8ff" points="1135.24,-63.11 1128.28,-71.1 1138.7,-69.19 1135.24,-63.11"/>
</g>
<!-- Node7&#45;&gt;Node1 -->
<g id="edge8" class="edge">
<title>Node7&#45;&gt;Node1</title>
<path fill="none" stroke="#63b8ff" d="M1214.66,-40.09C1205.06,-61.38 1187.98,-91.41 1163,-107 1111.72,-139.01 937.52,-150.99 849.22,-155.08"/>
<polygon fill="#63b8ff" stroke="#63b8ff" points="1218.19,-41.73 1218.88,-31.16 1211.75,-38.99 1218.19,-41.73"/>
</g>
<!-- Node8&#45;&gt;Node1 -->
<g id="edge12" class="edge">
<title>Node8&#45;&gt;Node1</title>
<path fill="none" stroke="#63b8ff" d="M393,-104.83C396.03,-105.62 399.05,-106.35 402,-107 523.32,-133.65 668.47,-147.28 744.64,-153.2"/>
<polygon fill="#63b8ff" stroke="#63b8ff" points="394.19,-101.25 383.62,-101.97 392.33,-108 394.19,-101.25"/>
</g>
<!-- Node9 -->
<g id="node9" class="node">
<title>Node9</title>
<g id="a_node9"><a xlink:href="____dc__control_____8c.html" target="_top" xlink:title="Header file for dc_control.c.">
<polygon fill="white" stroke="#666666" points="270,-30 166,-30 166,0 270,0 270,-30"/>
<text text-anchor="start" x="174" y="-18" font-family="Helvetica,sans-Serif" font-size="10.00">swarm_bot_cpp/src/</text>
<text text-anchor="middle" x="218" y="-7" font-family="Helvetica,sans-Serif" font-size="10.00">__dc_control__.c</text>
</a>
</g>
</g>
<!-- Node8&#45;&gt;Node9 -->
<g id="edge11" class="edge">
<title>Node8&#45;&gt;Node9</title>
<path fill="none" stroke="#63b8ff" d="M299.18,-65.49C280.78,-54.27 258.24,-40.54 241.59,-30.38"/>
<polygon fill="#63b8ff" stroke="#63b8ff" points="297.02,-68.88 307.38,-71.1 300.66,-62.91 297.02,-68.88"/>
</g>
<!-- Node10&#45;&gt;Node1 -->
<g id="edge15" class="edge">
<title>Node10&#45;&gt;Node1</title>
<path fill="none" stroke="#63b8ff" d="M516.08,-104.93C518.76,-105.66 521.4,-106.36 524,-107 600.02,-125.8 689.24,-140.39 744.55,-148.84"/>
<polygon fill="#63b8ff" stroke="#63b8ff" points="517.27,-101.35 506.7,-101.97 515.35,-108.08 517.27,-101.35"/>
</g>
<!-- Node11 -->
<g id="node11" class="node">
<title>Node11</title>
<g id="a_node11"><a xlink:href="____format_____8c.html" target="_top" xlink:title="Header file for format.c.">
<polygon fill="white" stroke="#666666" points="392,-30 288,-30 288,0 392,0 392,-30"/>
<text text-anchor="start" x="296" y="-18" font-family="Helvetica,sans-Serif" font-size="10.00">swarm_bot_cpp/src/</text>
<text text-anchor="middle" x="340" y="-7" font-family="Helvetica,sans-Serif" font-size="10.00">__format__.c</text>
</a>
</g>
</g>
<!-- Node10&#45;&gt;Node11 -->
<g id="edge14" class="edge">
<title>Node10&#45;&gt;Node11</title>
<path fill="none" stroke="#63b8ff" d="M421.18,-65.49C402.78,-54.27 380.24,-40.54 363.59,-30.38"/>
<polygon fill="#63b8ff" stroke="#63b8ff" points="419.02,-68.88 429.38,-71.1 422.66,-62.91 419.02,-68.88"/>
</g>
<!-- Node13 -->
<g id="node13" class="node">
<title>Node13</title>
<g id="a_node13"><a xlink:href=".html" target="_top" xlink:title=" ">
<polygon fill="white" stroke="#666666" points="514,-30 410,-30 410,0 514,0 514,-30"/>
<text text-anchor="start" x="418" y="-18" font-family="Helvetica,sans-Serif" font-size="10.00">swarm_bot_cpp/src/</text>
<text text-anchor="middle" x="462" y="-7" font-family="Helvetica,sans-Serif" font-size="10.00">__kinematics__.c</text>
</a>
</g>
</g>
<!-- Node12&#45;&gt;Node13 -->
<g id="edge17" class="edge">
<title>Node12&#45;&gt;Node13</title>
<path fill="none" stroke="#63b8ff" d="M543.18,-65.49C524.78,-54.27 502.24,-40.54 485.59,-30.38"/>
<polygon fill="#63b8ff" stroke="#63b8ff" points="541.02,-68.88 551.38,-71.1 544.66,-62.91 541.02,-68.88"/>
</g>
<!-- Node12&#45;&gt;Node14 -->
<g id="edge18" class="edge">
<title>Node12&#45;&gt;Node14</title>
<path fill="none" stroke="#63b8ff" d="M584.2,-60.73C588.36,-48.15 593.15,-33.67 596.13,-24.68"/>
<polygon fill="#63b8ff" stroke="#63b8ff" points="580.58,-59.51 580.77,-70.1 587.23,-61.71 580.58,-59.51"/>
</g>
<!-- Node15&#45;&gt;Node1 -->
<g id="edge21" class="edge">
<title>Node15&#45;&gt;Node1</title>
<path fill="none" stroke="#63b8ff" d="M761.81,-109.68C772,-120.45 782.84,-133.09 789.95,-142.6"/>
<polygon fill="#63b8ff" stroke="#63b8ff" points="764.7,-107.6 755.21,-102.88 759.68,-112.49 764.7,-107.6"/>
</g>
<!-- Node16 -->
<g id="node16" class="node">
<title>Node16</title>
<g id="a_node16"><a xlink:href=".html" target="_top" xlink:title=" ">
<polygon fill="white" stroke="#666666" points="788,-30 684,-30 684,0 788,0 788,-30"/>
<text text-anchor="start" x="692" y="-18" font-family="Helvetica,sans-Serif" font-size="10.00">swarm_bot_cpp/src/</text>
<text text-anchor="middle" x="736" y="-7" font-family="Helvetica,sans-Serif" font-size="10.00">__odometry__.c</text>
</a>
</g>
</g>
<!-- Node15&#45;&gt;Node16 -->
<g id="edge20" class="edge">
<title>Node15&#45;&gt;Node16</title>
<path fill="none" stroke="#63b8ff" d="M736,-60.41C736,-50.32 736,-39.04 736,-30.38"/>
<polygon fill="#63b8ff" stroke="#63b8ff" points="732.5,-60.1 736,-70.1 739.5,-60.1 732.5,-60.1"/>
</g>
<!-- Node17&#45;&gt;Node1 -->
<g id="edge24" class="edge">
<title>Node17&#45;&gt;Node1</title>
<path fill="none" stroke="#63b8ff" d="M844.36,-110.31C835.71,-120.95 824.62,-133.28 815.23,-142.6"/>
<polygon fill="#63b8ff" stroke="#63b8ff" points="847.55,-112.91 850.97,-102.88 842.04,-108.59 847.55,-112.91"/>
</g>
<!-- Node18 -->
<g id="node18" class="node">
<title>Node18</title>
<g id="a_node18"><a xlink:href=".html" target="_top" xlink:title=" ">
<polygon fill="white" stroke="#666666" points="910,-30 806,-30 806,0 910,0 910,-30"/>
<text text-anchor="start" x="814" y="-18" font-family="Helvetica,sans-Serif" font-size="10.00">swarm_bot_cpp/src/</text>
<text text-anchor="middle" x="858" y="-7" font-family="Helvetica,sans-Serif" font-size="10.00">__pwm__.c</text>
</a>
</g>
</g>
<!-- Node17&#45;&gt;Node18 -->
<g id="edge23" class="edge">
<title>Node17&#45;&gt;Node18</title>
<path fill="none" stroke="#63b8ff" d="M858,-60.41C858,-50.32 858,-39.04 858,-30.38"/>
<polygon fill="#63b8ff" stroke="#63b8ff" points="854.5,-60.1 858,-70.1 861.5,-60.1 854.5,-60.1"/>
</g>
<!-- Node19&#45;&gt;Node1 -->
<g id="edge26" class="edge">
<title>Node19&#45;&gt;Node1</title>
<path fill="none" stroke="#63b8ff" d="M937.82,-105.81C908.63,-117.31 869.99,-131.93 840.51,-142.6"/>
<polygon fill="#63b8ff" stroke="#63b8ff" points="938.72,-108.82 946.72,-101.88 936.14,-102.31 938.72,-108.82"/>
</g>
<!-- Node20 -->
<g id="node20" class="node">
<title>Node20</title>
<g id="a_node20"><a xlink:href=".html" target="_top" xlink:title=" ">
<polygon fill="white" stroke="#666666" points="1032,-30 928,-30 928,0 1032,0 1032,-30"/>
<text text-anchor="start" x="936" y="-18" font-family="Helvetica,sans-Serif" font-size="10.00">swarm_bot_cpp/src/</text>
<text text-anchor="middle" x="980" y="-7" font-family="Helvetica,sans-Serif" font-size="10.00">__timer0__.c</text>
</a>
</g>
</g>
<!-- Node19&#45;&gt;Node20 -->
<g id="edge27" class="edge">
<title>Node19&#45;&gt;Node20</title>
<path fill="none" stroke="#63b8ff" d="M980,-60.41C980,-50.32 980,-39.04 980,-30.38"/>
<polygon fill="#63b8ff" stroke="#63b8ff" points="976.5,-60.1 980,-70.1 983.5,-60.1 976.5,-60.1"/>
</g>
<!-- Node21&#45;&gt;Node1 -->
<g id="edge30" class="edge">
<title>Node21&#45;&gt;Node1</title>
<path fill="none" stroke="#63b8ff" d="M1215.34,-104.63C1211.86,-105.49 1208.39,-106.29 1205,-107 1079.09,-133.31 927.74,-147.65 849.43,-153.62"/>
<polygon fill="#63b8ff" stroke="#63b8ff" points="1215.92,-107.84 1224.7,-101.91 1214.14,-101.07 1215.92,-107.84"/>
</g>
<!-- Node21&#45;&gt;Node7 -->
<g id="edge29" class="edge">
<title>Node21&#45;&gt;Node7</title>
<path fill="none" stroke="#63b8ff" d="M1248.99,-61.7C1243.3,-51.29 1236.8,-39.42 1231.86,-30.38"/>
<polygon fill="#63b8ff" stroke="#63b8ff" points="1246.26,-63 1254.13,-70.1 1252.4,-59.65 1246.26,-63"/>
</g>
<!-- Node22 -->
<g id="node22" class="node">
<title>Node22</title>
<g id="a_node22"><a xlink:href=".html" target="_top" xlink:title=" ">
<polygon fill="white" stroke="#666666" points="1398,-30 1294,-30 1294,0 1398,0 1398,-30"/>
<text text-anchor="start" x="1302" y="-18" font-family="Helvetica,sans-Serif" font-size="10.00">swarm_bot_cpp/src/</text>
<text text-anchor="middle" x="1346" y="-7" font-family="Helvetica,sans-Serif" font-size="10.00">__timer1__.c</text>
</a>
</g>
</g>
<!-- Node21&#45;&gt;Node22 -->
<g id="edge31" class="edge">
<title>Node21&#45;&gt;Node22</title>
<path fill="none" stroke="#63b8ff" d="M1287.69,-64.25C1300.95,-53.27 1316.8,-40.16 1328.62,-30.38"/>
<polygon fill="#63b8ff" stroke="#63b8ff" points="1285.88,-62.03 1280.4,-71.1 1290.34,-67.42 1285.88,-62.03"/>
</g>
<!-- Node23&#45;&gt;Node1 -->
<g id="edge33" class="edge">
<title>Node23&#45;&gt;Node1</title>
<path fill="none" stroke="#63b8ff" d="M1341.32,-104.85C1338.19,-105.65 1335.06,-106.37 1332,-107 1157.89,-142.67 946.03,-152.99 849.39,-155.9"/>
<polygon fill="#63b8ff" stroke="#63b8ff" points="1342.16,-107.98 1350.86,-101.93 1340.29,-101.23 1342.16,-107.98"/>
</g>
<!-- Node24 -->
<g id="node24" class="node">
<title>Node24</title>
<g id="a_node24"><a xlink:href=".html" target="_top" xlink:title=" ">
<polygon fill="white" stroke="#666666" points="1520,-30 1416,-30 1416,0 1520,0 1520,-30"/>
<text text-anchor="start" x="1424" y="-18" font-family="Helvetica,sans-Serif" font-size="10.00">swarm_bot_cpp/src/</text>
<text text-anchor="middle" x="1468" y="-7" font-family="Helvetica,sans-Serif" font-size="10.00">__timer2__.c</text>
</a>
</g>
</g>
<!-- Node23&#45;&gt;Node24 -->
<g id="edge34" class="edge">
<title>Node23&#45;&gt;Node24</title>
<path fill="none" stroke="#63b8ff" d="M1409.69,-64.25C1422.95,-53.27 1438.8,-40.16 1450.62,-30.38"/>
<polygon fill="#63b8ff" stroke="#63b8ff" points="1407.88,-62.03 1402.4,-71.1 1412.34,-67.42 1407.88,-62.03"/>
</g>
</g>
</svg>
